<?xml version="1.0" encoding="UTF-8"?><svg xmlns="http://www.w3.org/2000/svg" viewBox="0 0 350 318.97"><defs><style>.cls-1{fill:#e74c3c;}.cls-2{fill:#95a5a6;mix-blend-mode:multiply;}.cls-3{fill:#f39c12;}.cls-4{fill:#bdc3c7;mix-blend-mode:overlay;opacity:.5;}.cls-5{fill:#f1e9c8;}.cls-6{fill:#34495e;}.cls-7{fill:#f1c40f;}.cls-8{fill:none;isolation:isolate;}.cls-9{fill:#7f8c8d;}.cls-10{fill:#c0392b;}</style></defs><g class="cls-8"><g id="Camada_2"><g id="Camada_1-2"><path class="cls-2" d="m257.52,318.44l-187.03-66.97L156.97,9.94l187.04,66.97c4.7,1.68,7.14,6.86,5.46,11.56l-80.39,224.51c-1.68,4.7-6.86,7.14-11.56,5.46Z"/><path class="cls-1" d="m254.26,308.5l-187.03-66.97L153.71,0l187.03,66.97c4.7,1.68,7.15,6.86,5.46,11.56l-80.39,224.51c-1.68,4.7-6.86,7.15-11.56,5.46Z"/><rect class="cls-10" x="109.77" y="-3.53" width="23.6" height="256.55" transform="translate(49.17 -33.68) rotate(19.7)"/><path class="cls-5" d="m253.29,177.87l-73.79-26.42c-4.7-1.68-7.14-6.86-5.46-11.56l12.41-34.67c1.68-4.7,6.86-7.15,11.56-5.46l73.79,26.42c4.7,1.68,7.15,6.86,5.46,11.56l-12.41,34.67c-1.68,4.7-6.86,7.15-11.56,5.46Z"/><rect class="cls-6" x="192.56" y="111.42" width="26.9" height="8.97" transform="translate(51.13 -62.66) rotate(19.7)"/><rect class="cls-6" x="222.01" y="125.69" width="47.71" height="8.97" transform="translate(58.28 -75.26) rotate(19.7)"/><rect class="cls-9" x="185.98" y="134.39" width="79.64" height="8.97" transform="translate(60.03 -67.99) rotate(19.7)"/><rect class="cls-9" x="181.02" y="148.23" width="79.64" height="8.97" transform="translate(64.41 -65.51) rotate(19.7)"/><path class="cls-4" d="m320.85,149.33l2.67-7.46c-39.44,11.26-78.04,24.92-114.08,38.25-48,17.75-92.92,40.04-137.53,63.1l40.8,14.61c35.09-18.64,70.16-37.32,105.27-55.92,34.05-18.04,68.23-35.74,102.86-52.57Z"/><path class="cls-4" d="m222.29,135.11c37.35-12.97,76.65-26.01,116.63-36.25l7.28-20.33c1.68-4.7-.76-9.87-5.46-11.56L153.71,0l-69.85,195.09c44.72-22.25,90.08-43.2,138.44-59.98Z"/><path class="cls-4" d="m212.05,249.1c1.2-.91,2.4-1.84,3.6-2.75-18.12,9.62-36.23,19.25-54.35,28.87l6.05,2.16c14.42-10.1,29.39-19.46,44.7-28.28Z"/><rect class="cls-2" x="166.51" y="47.7" width="70.53" height="240.77" transform="translate(35.97 -35.56) rotate(11.05)"/><rect class="cls-5" x="161.49" y="44.07" width="70.53" height="240.76" transform="translate(35.18 -34.67) rotate(11.05)"/><path class="cls-2" d="m201.19,303.3L4.59,274.71,41.51,20.83l196.6,28.59c4.94.72,8.36,5.31,7.64,10.25l-34.32,235.99c-.72,4.94-5.31,8.36-10.25,7.64Z"/><path class="cls-7" d="m196.6,294.06L0,265.46,36.92,11.59l196.6,28.59c4.94.72,8.36,5.31,7.64,10.25l-34.32,235.99c-.72,4.94-5.31,8.36-10.25,7.64Z"/><rect class="cls-3" x="18.34" y="11.95" width="23.6" height="256.55" transform="translate(20.49 -2.88) rotate(8.27)"/><path class="cls-5" d="m169.77,166.21l-77.57-11.28c-4.94-.72-8.36-5.31-7.64-10.25l5.3-36.44c.72-4.94,5.31-8.36,10.25-7.64l77.57,11.28c4.94.72,8.36,5.31,7.65,10.25l-5.3,36.44c-.72,4.94-5.31,8.36-10.25,7.64Z"/><rect class="cls-6" x="97.7" y="110.35" width="26.9" height="8.97" transform="translate(17.69 -14.81) rotate(8.28)"/><rect class="cls-6" x="129.19" y="116.44" width="47.71" height="8.97" transform="translate(18.99 -20.77) rotate(8.27)"/><rect class="cls-9" x="95.27" y="128.94" width="79.64" height="8.97" transform="translate(20.61 -18.05) rotate(8.27)"/><rect class="cls-9" x="93.16" y="143.5" width="79.64" height="8.97" transform="translate(22.68 -17.6) rotate(8.28)"/><path class="cls-4" d="m230.34,124.84l1.14-7.85c-36.43,18.85-71.56,39.89-104.24,60.09-43.53,26.91-83.15,57.65-122.31,89.1l42.89,6.24c30.7-25.23,61.38-50.48,92.11-75.67,29.8-24.43,59.79-48.55,90.41-71.91Z"/><path class="cls-4" d="m130.92,130.43c34.04-20.11,69.98-40.68,107.14-58.64l3.11-21.37c.72-4.94-2.7-9.53-7.64-10.25L36.92,11.59,7.1,216.65c39.43-30.67,79.74-60.19,123.82-86.22Z"/><path class="cls-4" d="m143.45,244.19c1-1.13,1.99-2.28,2.99-3.41-15.85,13.02-31.7,26.05-47.55,39.07l6.36.92c12.13-12.76,24.96-24.9,38.21-36.58Z"/></g></g></g></svg>