<?xml version="1.0" encoding="UTF-8"?><svg id="Camada_2" xmlns="http://www.w3.org/2000/svg" viewBox="0 0 236.9 353.15"><defs><style>.cls-1{fill:none;stroke:#494846;stroke-linecap:round;stroke-miterlimit:10;stroke-width:6.17px;}.cls-2{fill:#fbd100;}.cls-3{fill:#c69700;}</style></defs><g id="Camada_1-2"><rect class="cls-2" x="98.97" y="255.68" width="123.55" height="52.58" transform="translate(-128.03 133.81) rotate(-33.15)"/><rect class="cls-2" x="119.99" y="307.89" width="123.55" height="12.5" transform="translate(-142.21 150.54) rotate(-33.15)"/><rect class="cls-3" x="114.96" y="303.5" width="123.55" height="5.88" transform="translate(-138.82 146.55) rotate(-33.16)"/><path class="cls-1" d="m159.14,341.43c-11.9-30.29-30.54-70.08-38.15-86.09-2.16-4.53-6.12-7.93-10.93-9.39l-8.45-2.55c-8.89-2.68-14.23-11.76-12.25-20.83l2.3-10.58c.99-4.57,3.75-8.56,7.66-11.12l4.36-2.85,3.14-2.05,4.36-2.85c3.92-2.56,8.68-3.47,13.26-2.55l10.61,2.14c9.11,1.84,15.27,10.37,14.15,19.59l-1.06,8.76c-.6,4.98.92,9.98,4.2,13.78,11.6,13.4,40.55,46.46,63.5,69.53"/><rect class="cls-2" x="44.9" y="13.11" width="52.58" height="123.55" transform="translate(-29.37 51.12) rotate(-33.15)"/><rect class="cls-2" x="32.77" y="34.13" width="12.5" height="123.55" transform="translate(-46.09 36.95) rotate(-33.15)"/><rect class="cls-3" x="43.77" y="29.1" width="5.88" height="123.55" transform="translate(-42.09 40.34) rotate(-33.16)"/><path class="cls-1" d="m11.72,73.28c30.29-11.9,70.08-30.54,86.09-38.15,4.53-2.16,7.93-6.12,9.39-10.93l2.55-8.45c2.68-8.89,11.76-14.23,20.83-12.25l10.58,2.3c4.57.99,8.56,3.75,11.12,7.66l2.85,4.36,2.05,3.14,2.85,4.36c2.56,3.92,3.47,8.68,2.55,13.26l-2.14,10.61c-1.84,9.11-10.37,15.27-19.59,14.15l-8.76-1.06c-4.98-.6-9.98.92-13.78,4.2-13.4,11.6-46.46,40.55-69.53,63.5"/></g></svg>