<?xml version="1.0" encoding="UTF-8"?><svg xmlns="http://www.w3.org/2000/svg" viewBox="0 0 150.73 622.93"><defs><style>.cls-1{fill:#e74c3c;}.cls-2{fill:#63c0ff;}.cls-3{fill:#d4b742;}.cls-4{fill:#95a5a6;mix-blend-mode:multiply;}.cls-5{fill:#f39c12;}.cls-6{fill:#3498db;}.cls-7{fill:#34495e;}.cls-8{fill:#f1c40f;}.cls-9{fill:#e67e22;}.cls-10{fill:none;isolation:isolate;}.cls-11{fill:#226c9c;}.cls-12{fill:#c0392b;}.cls-13{fill:#ecf0f1;}.cls-14{fill:#f1d35c;}</style></defs><g class="cls-10"><g id="Camada_2"><g id="Camada_1-2"><path class="cls-4" d="m13.16,622.93l1.66-57.4.23.09,91.56-226.16,18.32,7.42-20.19-8.18,4.02-9.94c4.52-11.15,17.21-16.53,28.37-12.02,11.15,4.51,16.53,17.21,12.02,28.37l-4.02,9.94-1.87-.76-91.56,226.16-18.32-7.42,18.54,7.5-38.74,42.39Z"/><rect class="cls-8" x="49.21" y="326.36" width="39.52" height="243.99" transform="translate(173.3 6.89) rotate(22.04)"/><rect class="cls-9" x="76.18" y="331.62" width="11.54" height="243.99" transform="translate(176.25 2.41) rotate(22.05)"/><rect class="cls-5" x="50.24" y="321.11" width="11.54" height="243.99" transform="translate(170.41 11.38) rotate(22.05)"/><polygon class="cls-14" points="4.65 553.93 3 611.33 41.74 568.95 4.65 553.93"/><polygon class="cls-3" points="29.1 563.83 3 611.33 41.74 568.95 29.1 563.83"/><polygon class="cls-7" points="3 611.33 3.48 594.64 14.26 599.01 3 611.33"/><path class="cls-13" d="m126.95,305.15h0c-11.15-4.52-23.85.86-28.37,12.02l-4.02,9.94,40.38,16.35,4.02-9.94c4.51-11.15-.87-23.85-12.02-28.36Z"/><path class="cls-12" d="m126.95,305.15h0c-11.15-4.52-23.85.86-28.37,12.02l-4.02,9.94,40.38,16.35,4.02-9.94c4.51-11.15-.87-23.85-12.02-28.36Z"/><path class="cls-1" d="m120.17,308.74h0c-8.62-3.49-18.44.67-21.94,9.29l-3.67,9.07,31.23,12.65,3.67-9.07c3.49-8.62-.67-18.45-9.3-21.94Z"/><path class="cls-4" d="m42.25,50.87c1.46-5.05,4.85-9.2,9.06-12.09l1.39.24c.75-2.95,1.47-5.91,2.26-8.85,1.84-6.37,8.62-10.6,14.98-9.51h0c6.36,1.09,11.33,7.36,10.93,13.97-.24,3.04-.55,6.07-.83,9.1l1.39.24c3,4.14,4.81,9.18,4.49,14.43-5.9,74.78-19.33,148.79-40.11,220.91l-29.03,49.97-10.64-56.8h0C10.69,197.56,22.79,123.31,42.25,50.87Z"/><path class="cls-8" d="m50.93,145.24c-7.85-1.35-15.7-2.7-23.54-4.06,2.7-44.45,9.88-88.51,21.43-131.5C50.66,3.32,57.43-.92,63.8.17h0c6.37,1.1,11.33,7.36,10.94,13.98-3.5,44.38-11.47,88.3-23.81,131.09Z"/><path class="cls-5" d="m74.74,14.15c.4-6.61-4.57-12.88-10.94-13.97h0c-4.81-.83-9.83,1.4-12.81,5.28,6.43-2.45,15.46,1.74,13.94,10.59l-22.01,127.82,8.02,1.38c12.33-42.79,20.3-86.71,23.81-131.09Z"/><path class="cls-6" d="m75.3,23.48l-30.13-5.19c-4.21,2.9-7.6,7.04-9.06,12.09C16.64,102.83,4.54,177.08,0,251.98l39.67,6.84c20.78-72.12,34.21-146.13,40.11-220.91.31-5.25-1.5-10.29-4.49-14.43Z"/><path class="cls-11" d="m75.3,23.48l-30.12-5.19c-2.02,1.4-3.9,3-5.41,4.96,10.83-4.14,26.06,2.93,23.49,17.84l-37.1,215.39,13.52,2.33c20.78-72.12,34.21-146.13,40.11-220.91.31-5.25-1.5-10.29-4.49-14.43Z"/><polygon class="cls-6" points="0 251.98 10.64 308.78 39.67 258.82 0 251.98"/><path class="cls-2" d="m52.06,31.09l-7.88-1.36c-1.55,3.36-3.02,7.83-4.05,12.96C26.01,114.27,13.67,186.67,3.28,258.82c-.42,2.9,1.56,5.6,4.44,6.1h0c2.88.5,5.65-1.39,6.22-4.26,14.35-71.47,26.95-143.83,37.6-216.01.74-5.17.85-9.88.51-13.57Z"/><rect class="cls-8" x="3.78" y="157.19" width="61.98" height="16.71" transform="translate(28.6 -3.5) rotate(9.77)"/><rect class="cls-5" x="46.05" y="160.8" width="19.4" height="16.71" transform="translate(29.51 -7.01) rotate(9.77)"/><polygon class="cls-11" points="26.15 256.49 10.64 308.78 39.67 258.82 26.15 256.49"/><polygon class="cls-8" points="10.64 308.78 7.55 292.26 19.09 294.25 10.64 308.78"/><path class="cls-8" d="m40.25,147.62h-.05c-5.69-.99-9.51-6.4-8.53-12.09L51.67,19.42l20.67,3.56-20,116.11c-.98,5.69-6.39,9.51-12.08,8.53Z"/><path class="cls-5" d="m57.2,20.37c4.26,3.27,7.09,8.33,5.9,15.24l-17.02,98.8c-1.08,6.28-4.79,9.98-9.27,11.89,1.03.59,2.14,1.1,3.38,1.31h.05c5.69.99,11.1-2.83,12.08-8.52l20-116.11-15.13-2.61Z"/></g></g></g></svg>