<?xml version="1.0" encoding="UTF-8"?><svg id="Camada_2" xmlns="http://www.w3.org/2000/svg" viewBox="0 0 284.38 351.87"><defs><style>.cls-1{fill:#996b4d;}</style></defs><g id="Camada_1-2"><polygon class="cls-1" points="3.89 169.02 3.08 174.72 2.66 168.41 3.89 169.02"/><polygon class="cls-1" points="49.1 74.41 51.15 74.31 50.38 76.46 49.1 74.41"/><path class="cls-1" d="m215.98,322.56c.78-.02,1.55-.1,2.29-.35,3.64-1.22,5.08-5.75,8.4-7.67,2.77-1.6,6.65-.89,8.67,1.59,2.02,2.47,1.94,6.42-.19,8.81,15.65,3.25-8.31,13.23-8.98,13.76-3.47,2.68-2.94,9.22-8.22,1.76-.87-1.23-2.19-2.42-3.68-2.21-.77-.2-1.47.65-1.5,1.45-.02.79.38,1.53.68,2.27,1.05,2.58.82,5.66-.62,8.04-.43.71-.98,1.38-1.75,1.69-1.2.47-2.53-.08-3.67-.68-7.94-4.25-14.43-6.9-23-10.39-1.14-.46-2.36-1.05-2.86-2.16-.61-1.38.11-2.96.9-4.24,4.06-6.62,10.45-12.91,9.67-20.63,6.39,1.56,12.08,5.82,15.37,11.51.65-1.87,2.91-2.61,4.89-2.64,1.2-.02,2.41.13,3.6.11Z"/><path class="cls-1" d="m72.11,151.76c-1.3,4.32-2.5,8.66-3.51,13.05.4-4.52,1.03-9.43,3.51-13.05Z"/><path class="cls-1" d="m68.88,79.29c-2.49-4.92,25.7-15.52,29.14-16.48,6.44-1.8,13.01-3.12,19.64-3.95-3.48,7.09-10.83,11.29-17.81,14.99-9.96,5.28-5.8,8.8-8.09,16.92-3.93,13.98-8.26,1.23-15.47,6.56-1.26.93-1.78,2.54-2.61,3.87-2.3,3.69-7,5.14-11.34,5.39-5.76.34-11.61-.94-16.71-3.64-2.91-1.55-5.66-3.64-7.22-6.55-1.55-2.91-1.66-6.75.38-9.34,1.71-2.17,4.5-3.1,6.75-4.7,5.62-3.98,7.38-11.67,12.46-16.34,4.53,3.56,8.27,8.12,10.87,13.26Z"/><path class="cls-1" d="m127.15,13.41c-5.78,2.38-12.28-.02-18.51-.54-6.23-.52-14.15,2.82-13.78,9.06.22,3.73,3.67,6.69,7.35,7.33,3.68.64,7.45-.61,10.73-2.39,2.38,4.1,8.59,4.15,12.63,1.68,4.04-2.48,6.68-6.64,9.91-10.11,10.91-11.71,25.52-.53,9.2,4.09.15,1.65.99,3.22,2.27,4.27-1.43,1.37-2.87,2.75-4.3,4.12-1.25,1.19,1,3.16,4.59,4.94l-13.03,2.36-25.43.31-10.82,2.07-3.67,4.96-4.63,1.69-8.23,4.07-6.45,5.63-13.38,5.13-8.37,6.49-2.07,5.75,6.4-.3,7.16-7.49,11.26-8,35.65-7.24,22.75-3.95,22.52,5.52,26.67,3.65,23.55,13.09,6.89,2.62,4,6.52,10.44,10.21,8.55,3.05,3.42,6.62,6.07,5.2.48,8.96,15.63,27.56,4.94,31.41-1.25,32.85-8.22,32.62-6.01,16.31-13.16,11.69-2.18,9.6-7.83,4.45-7.76,4.09-3.65,2.26-3.55,2.09-28.41,16.68-4.74,1.02c1.29-2,2.7-4.09,2.85-4.01-2.23-1.14-4.75.7-6.71,2.26-1.96,1.56-5.04,2.87-6.73,1.01-.81-.89-.92-2.19-1.04-3.38-.45-4.29-1.65-8.67-4.43-11.98-2.78-3.31-7.38-5.33-11.54-4.14.87,5.58,7.09,10.25,5.36,15.62-.56,1.74-1.89,3.11-3.24,4.34-2.83,2.56-6.16,4.9-9.97,5.23-3.81.33-8.06-2.01-8.67-5.78-.02,1.59-.18,3.37-.69,4.89l-13.44-1.53-29.15-8.67-12.83-5.97-10.88-8.34-7.81-.5-5.72-3.31-4.06-5.12-5.27-4.23-16.32-16.92-9.01-21.71-11.88-33.63-6.38-22.86-.13-1.97-.27,1.91-2.81,24.45,5.13,17.06,4.44,20.52,13.3,21.54,16.33,19,3.79,5.69,6.71,3.49,5.46,5.01,5.61,4.95,6.4,3.91,2.37.81c-.17.79-.31,1.58-.41,2.34-.52,4.06-.43,9.2,3.25,10.99,3.8,1.83,7.93-1.53,12.04-2.49.39-.09.77-.1,1.15-.14l1.66,1.36,7.67.98c2.26,1.33,4.39,3.03,6.28,4.78,4.63,4.29,9.4,9.25,15.67,10.01,6.25.76,17.93-.28,22.44-5.23,2.88-3.16,4.7-8.28,8.97-8.57,5.75-.39,7.79,8.31,13.24,10.18,6.97,2.4,13.47-7.73,20.59-5.84-2.87-.76,3.17-9.6,4.28-10.5,3.67-3,7.5-3,12.23-2.23,1.22.2,2.83.27,3.29-.88.22-.56.04-1.19.03-1.8-.05-2.79,3.59-4.26,6.29-3.55,2.7.71,4.9,2.67,7.51,3.66.4.15.85.28,1.26.16.42-.12.72-.48.95-.86,2.11-3.4.19-8.94,3.57-11.08.79-.5,1.74-.69,2.58-1.11.98-.49,1.65-1.37,2.11-2.36l.85.03,5.32-7.67,6.62-6,5.71-6.8,10.26-14.96,13.06-13.23,9.44-22.87,6.92-23.79-2.88-24.65-.79-23.91-5.27-23.58-11.4-21.33-8.6-15.57-3-3.07-4.36.74,2.39-3.31-2.78,1.98,2.07-2.84-1.2.41-5.02-6.27-15.26-8.22-6.66-4.47-5.72-6.16c-9.73-4.08-15.27-1.75-17.74-12.16-.86-3.62-4.24-5.96-7.06-8.39-6.69-5.76-11.33-13.86-12.94-22.54-.53-2.88-.79-5.96-2.51-8.33-2.66-3.69-7.93-4.4-12.41-3.61-4.48.79-8.72,2.74-13.25,3.17-3.07.29-6.23-.12-9.18.78-1.06.33-2.03.8-2.96,1.38-3.71,2.29-6.63,6.11-10.72,7.8Zm55.81,296.77l.04-.02h0s-.02.01-.03.02Z"/></g></svg>