<?xml version="1.0" encoding="UTF-8"?><svg id="Camada_2" xmlns="http://www.w3.org/2000/svg" viewBox="0 0 359.07 443.48"><defs><style>.cls-1,.cls-2{fill:#50d7e2;}.cls-3{fill:#14898c;}.cls-3,.cls-4,.cls-5,.cls-6,.cls-2{fill-rule:evenodd;}.cls-4{fill:#26261c;}.cls-5{fill:#ce720d;}.cls-7,.cls-6{fill:#fa8a00;}.cls-8{fill:none;opacity:.2;}</style></defs><g id="Camada_1-2"><g class="cls-8"><path class="cls-4" d="m288.98,404.15h0s.87-.45.87-.45c4.2-2.12,5.9-7.29,3.77-11.5l-50.1-98.96-48.38-95.59h0s-1.7-3.37-1.7-3.37c-2.13-4.2-7.3-5.89-11.49-3.77l-.88.44h0c-6.23-12.31-24.33-13.33-28.28-11.32l-.92.46-8.06-15.92c-1.12-2.21-3.67-3.23-5.97-2.52l-3.22-6.37c-.9-1.78-3.67-3.64-6.16-4.15l-18.15-3.7c-2.5-.51-3.79.53-2.89,2.32l11,21.72c-1.92,1.43-2.61,4.08-1.49,6.29l8.06,15.92-.92.47c-3.95,2-13.84,17.21-7.62,29.5l-.88.44c-4.2,2.12-5.89,7.29-3.76,11.49l1.7,3.37h0l48.39,95.59,50.09,98.96c2.13,4.2,7.3,5.9,11.5,3.77l.87-.45c3.01,5.93,10.3,8.32,16.23,5.33l43.09-21.82c5.93-3,8.32-10.3,5.32-16.22Z"/><path class="cls-4" d="m144.89,98.39L107.69,24.9c-2.13-4.2-7.3-5.9-11.49-3.76l-.36.18-.32-.63c-1.71-3.38-5.87-4.74-9.25-3.03l-53.38,27.02c-3.38,1.71-4.73,5.87-3.04,9.24l.32.63-.36.18c-4.2,2.12-5.89,7.3-3.77,11.5l37.21,73.48c2.12,4.2,7.29,5.89,11.49,3.77l66.39-33.61c4.19-2.12,5.9-7.29,3.77-11.49Z"/></g><path class="cls-6" d="m109.49,138.38l23.32,46.07c.9,1.78-.4,2.81-2.89,2.31l-18.14-3.69c-2.5-.51-5.27-2.38-6.18-4.16l-23.31-46.06c-.9-1.78.39-2.83,2.89-2.32l18.15,3.7c2.49.5,5.26,2.37,6.16,4.15Z"/><path class="cls-4" d="m118.68,147.26l32.26,63.74c1.25,2.47.25,5.5-2.21,6.75l-17.93,9.08c-2.46,1.25-5.5.25-6.75-2.22l-32.26-63.74c-1.25-2.47-.26-5.5,2.2-6.75l17.93-9.08c2.47-1.25,5.5-.25,6.75,2.21Z"/><path class="cls-4" d="m155.94,174.04l107.91,213.18c3,5.92.61,13.22-5.32,16.22l-43.09,21.81c-5.92,2.99-13.22.6-16.23-5.33l-107.91-213.18c-6.22-12.3,3.67-27.5,7.62-29.5l28.72-14.54c3.95-2.01,22.06-.98,28.28,11.32Z"/><path class="cls-5" d="m168.31,177.37l100.18,197.91c2.13,4.2.43,9.37-3.77,11.49l-66.38,33.6c-4.19,2.13-9.37.43-11.49-3.76l-100.18-197.92c-2.13-4.2-.44-9.37,3.76-11.49l66.39-33.61c4.19-2.13,9.37-.43,11.49,3.77Z"/><rect class="cls-7" x="131.83" y="189.86" width="91.51" height="214.27" transform="translate(-114.98 112.21) rotate(-26.85)"/><path class="cls-5" d="m82.57,7.98l37.2,73.48c2.13,4.21.42,9.38-3.77,11.5l-66.39,33.61c-4.2,2.12-9.37.44-11.49-3.77L.91,49.31c-2.12-4.2-.42-9.37,3.77-11.5L71.07,4.21c4.19-2.13,9.36-.43,11.49,3.76Z"/><path class="cls-6" d="m106.11,74.32L70.39,3.77c-1.71-3.38-5.87-4.74-9.25-3.03L7.76,27.76c-3.37,1.71-4.73,5.87-3.04,9.24l35.72,70.55c1.7,3.38,5.86,4.74,9.24,3.04l53.38-27.02c3.38-1.71,4.74-5.86,3.04-9.24Z"/><g class="cls-8"><path class="cls-4" d="m353.44,342.03h0s.75-.23.75-.23c3.61-1.07,5.67-4.9,4.6-8.51l-25.32-84.97-24.45-82.08h0s-.86-2.89-.86-2.89c-1.08-3.61-4.91-5.67-8.51-4.6l-.75.23h0c-3.15-10.57-17.25-13.95-20.64-12.94l-.79.23-4.08-13.67c-.57-1.9-2.43-3.06-4.33-2.83l-1.63-5.47c-.46-1.52-2.37-3.39-4.26-4.14l-13.75-5.49c-1.89-.76-3.06-.12-2.6,1.41l5.56,18.66c-1.72.85-2.64,2.84-2.07,4.74l4.07,13.67-.79.24c-3.39,1.01-13.33,11.57-10.19,22.12l-.75.22c-3.61,1.07-5.67,4.9-4.59,8.51l.86,2.9h0l24.46,82.08,25.31,84.98c1.08,3.61,4.91,5.68,8.51,4.6l.75-.23c1.52,5.09,6.92,8.01,12.01,6.5l37-11.03c5.1-1.51,8.01-6.92,6.5-12Z"/></g><path class="cls-6" d="m250.08,107.42l11.79,39.56c.46,1.53-.72,2.16-2.6,1.4l-13.74-5.48c-1.89-.75-3.81-2.62-4.26-4.15l-11.78-39.55c-.46-1.53.71-2.17,2.6-1.41l13.75,5.49c1.89.75,3.8,2.62,4.26,4.14Z"/><path class="cls-4" d="m256.04,115.71l16.31,54.73c.63,2.12-.59,4.36-2.7,4.99l-15.4,4.59c-2.11.63-4.36-.59-4.99-2.71l-16.3-54.73c-.63-2.12.58-4.36,2.69-4.99l15.4-4.59c2.12-.63,4.36.59,5,2.7Z"/><path class="cls-4" d="m281.54,142.09l54.54,183.06c1.52,5.08-1.4,10.49-6.5,12.01l-37,11.02c-5.08,1.52-10.48-1.41-12.01-6.5l-54.54-183.05c-3.14-10.56,6.8-21.11,10.2-22.12l24.66-7.35c3.4-1.02,17.49,2.37,20.64,12.93Z"/><path class="cls-3" d="m290.79,146.47l50.64,169.95c1.08,3.61-.99,7.44-4.6,8.51l-57,16.99c-3.6,1.08-7.44-.99-8.51-4.6l-50.63-169.96c-1.08-3.61.99-7.43,4.59-8.5l57.01-16.99c3.6-1.07,7.43,1,8.5,4.6Z"/><rect class="cls-1" x="244.49" y="156.24" width="73.15" height="171.29" transform="translate(-57.36 90.32) rotate(-16.59)"/><path class="cls-3" d="m269.44,78.02l18.8,63.1c1.07,3.62-1,7.44-4.6,8.51l-57.01,16.99c-3.6,1.07-7.43-.99-8.5-4.6l-18.81-63.1c-1.07-3.6,1-7.43,4.6-8.51l57.01-16.98c3.6-1.08,7.42.99,8.5,4.6Z"/><path class="cls-2" d="m278.51,133.56l-18.06-60.58c-.87-2.9-3.94-4.57-6.84-3.7l-45.84,13.66c-2.9.86-4.56,3.94-3.7,6.83l18.06,60.59c.86,2.9,3.94,4.56,6.84,3.7l45.84-13.66c2.9-.86,4.57-3.94,3.71-6.84Z"/></g></svg>