<?xml version="1.0" encoding="UTF-8"?><svg id="Camada_2" xmlns="http://www.w3.org/2000/svg" viewBox="0 0 480.04 1345.84"><defs><style>.cls-1{fill:#d39720;stroke-width:0px;}</style></defs><g id="Camada_1-2"><path class="cls-1" d="m301.28,855.85l-1.14,1.15c-3.79,3.83-4.81,9.61-2.57,14.51l3.65,7.98c3.02,6.59.04,14.38-6.61,17.28l-18.48,8.06c-7.12,3.11-9.93,11.73-6.01,18.44l5.72,9.77c3.6,6.14,11.47,8.24,17.65,4.7l15.34-8.8c6.78-3.89,15.44-.94,18.43,6.28l4.8,11.57c2.87,6.93,11.01,9.98,17.73,6.66h0c6.2-3.07,8.9-10.47,6.13-16.81l-7.47-17.12c-2.65-6.06-.3-13.14,5.43-16.43l15.63-8.97c5.94-3.41,8.21-10.86,5.17-17l-.74-1.49c-3.07-6.2-10.47-8.9-16.81-6.13l-13.75,6c-6.56,2.86-14.21-.14-17.07-6.7l-3.93-9c-3.67-8.4-14.66-10.45-21.11-3.93Z"/><path class="cls-1" d="m125.76,801.78l-.61,1.5c-2.04,4.99-.78,10.72,3.16,14.4l6.42,5.98c5.31,4.94,5.53,13.28.49,18.49l-14,14.51c-5.39,5.59-4.7,14.63,1.49,19.33l9.01,6.85c5.67,4.31,13.75,3.24,18.1-2.4l10.81-13.99c4.78-6.19,13.91-6.77,19.44-1.23l8.85,8.86c5.3,5.31,13.99,5.02,18.93-.62h0c4.56-5.21,4.23-13.07-.75-17.88l-13.44-12.97c-4.76-4.59-5.3-12.03-1.26-17.26l11.02-14.26c4.19-5.42,3.44-13.17-1.72-17.69l-1.25-1.1c-5.21-4.56-13.07-4.23-17.88.75l-10.42,10.8c-4.97,5.15-13.18,5.3-18.34.33l-7.07-6.82c-6.6-6.37-17.54-4.06-21.01,4.43Z"/><path class="cls-1" d="m346.57,1270.39l-1.07.34c-3.56,1.12-6.05,4.33-6.26,8.06l-.34,6.06c-.28,5.01-4.62,8.82-9.63,8.45l-13.93-1.02c-5.36-.39-9.87,3.98-9.63,9.36l.35,7.83c.22,4.92,4.37,8.75,9.29,8.57l12.24-.44c5.41-.19,9.76,4.41,9.27,9.8l-.8,8.64c-.48,5.17,3.52,9.67,8.71,9.8h0c4.79.12,8.83-3.54,9.18-8.32l.95-12.9c.34-4.57,4.06-8.15,8.63-8.31l12.47-.45c4.74-.17,8.53-4,8.65-8.75l.03-1.15c.12-4.79-3.54-8.83-8.32-9.18l-10.36-.76c-4.95-.36-8.66-4.67-8.3-9.62l.5-6.78c.47-6.33-5.61-11.13-11.66-9.22Z"/><path class="cls-1" d="m283.21,1107.7c7.51,3.16,16.15-.37,19.31-7.88,3.16-7.51-.37-16.15-7.88-19.31-7.51-3.16-16.15.37-19.31,7.88-3.16,7.51.37,16.15,7.88,19.31Z"/><circle class="cls-1" cx="317.45" cy="1026.27" r="14.75" transform="translate(-364.19 195.98) rotate(-22.2)"/><path class="cls-1" d="m327.42,1079.36l-57.74-23.65c-3.96-1.62-5.83-6.16-4.18-10.1h0c1.53-3.64,5.57-5.53,9.34-4.37l59.46,18.2c4.09,1.25,6.37,5.6,5.08,9.67l-1.72,5.44c-1.36,4.29-6.09,6.51-10.25,4.8Z"/><path class="cls-1" d="m399.61,1149l-5.69-71.93c-.37-4.7,3.66-8.56,8.34-7.99h0c3.48.43,6.19,3.22,6.52,6.71l6.65,71.54c.3,3.26-1.56,6.34-4.58,7.58l-.96.4c-4.68,1.93-9.87-1.26-10.27-6.31Z"/><path class="cls-1" d="m443.38,1075.5l6.25,72.44c.38,4.45-3.33,8.18-7.78,7.82l-4.52-.37c-3.68-.3-6.55-3.33-6.64-7.03l-1.73-72.07c-.07-2.88,1.58-5.53,4.2-6.73h0c4.54-2.09,9.79.95,10.22,5.94Z"/><path class="cls-1" d="m50.75,864.66L1.96,811.49c-3.19-3.47-2.39-8.99,1.65-11.43h0c3-1.81,6.86-1.28,9.27,1.27l49.3,52.26c2.25,2.38,2.68,5.95,1.06,8.8l-.51.91c-2.5,4.4-8.56,5.09-11.97,1.36Z"/><path class="cls-1" d="m39.96,779.79l49.54,53.21c3.05,3.27,2.42,8.5-1.31,10.96l-3.79,2.49c-3.09,2.03-7.21,1.41-9.56-1.45l-45.76-55.71c-1.83-2.23-2.16-5.33-.84-7.89h0c2.29-4.45,8.3-5.28,11.71-1.62Z"/><path class="cls-1" d="m407.79,1246.16l56.47,45.8c3.47,2.82,3.58,8.08.22,11.03l-3.4,3c-2.77,2.44-6.94,2.4-9.67-.1l-53.06-48.8c-2.12-1.95-2.88-4.98-1.93-7.7h0c1.65-4.72,7.49-6.38,11.37-3.23Z"/><path class="cls-1" d="m228.5,1081.52l25.6,68.05c1.57,4.18-.99,8.78-5.38,9.63l-4.45.87c-3.63.71-7.21-1.44-8.29-4.97l-21.15-68.92c-.85-2.76.03-5.75,2.22-7.62h0c3.81-3.24,9.68-1.73,11.45,2.96Z"/><path class="cls-1" d="m210.95,731.7l21.25,17.41c4.49,3.68,11.22.3,10.95-5.5l-.1-2.2c-.17-3.7,2.68-6.84,6.38-7.01l34.96-1.64c2.98-.14,5.7,1.71,6.66,4.54l1.38,4.07c.96,2.83,3.68,4.68,6.66,4.54l.71-.03c3.7-.17,6.56-3.31,6.38-7.01l-1.41-29.88c-.17-3.7-3.31-6.56-7.01-6.38l-1.22.06c-3.16.15-5.79,2.49-6.3,5.61l-.63,3.84c-.52,3.16-3.21,5.51-6.41,5.61l-68.21,2.1c-3.74.12-6.67,3.27-6.49,7.02h0c.09,1.9.98,3.67,2.45,4.87Z"/><path class="cls-1" d="m131.1,1226.92l22.45,15.85c4.74,3.35,11.21-.5,10.52-6.27l-.26-2.19c-.44-3.68,2.19-7.01,5.86-7.45l34.75-4.14c2.97-.35,5.81,1.3,6.97,4.05l1.67,3.96c1.16,2.75,4,4.4,6.97,4.05l.71-.08c3.68-.44,6.3-3.77,5.86-7.45l-3.54-29.7c-.44-3.68-3.77-6.3-7.45-5.86l-1.21.14c-3.14.37-5.59,2.89-5.88,6.04l-.36,3.88c-.29,3.19-2.8,5.73-5.99,6.06l-67.89,6.97c-3.73.38-6.42,3.74-5.97,7.46h0c.23,1.89,1.24,3.59,2.79,4.68Z"/><path class="cls-1" d="m290.35,1222.78l17.63,25.92c2.51,3.7,8.22,2.69,9.32-1.64h0c.32-1.25.16-2.58-.45-3.72l-7.12-13.36c-1.11-2.09-.67-4.66,1.07-6.26l7.54-6.91c2.24-2.06,5.76-1.75,7.62.66l18.93,24.57c.92,1.19,2.31,1.93,3.81,2.01l10.69.61c2.91.17,5.39-2.1,5.48-5.01l1.52-46.13c.09-2.78-2.02-5.13-4.8-5.34l-7.31-.55c-3.19-.24-5.84,2.44-5.56,5.63l1.44,16.36c.41,4.7-5.14,7.47-8.64,4.31l-16.97-15.31c-1.75-1.58-4.35-1.78-6.33-.48l-26.45,17.4c-2.42,1.59-3.07,4.86-1.44,7.25Z"/><path class="cls-1" d="m91.04,1087.55l31.08,4.06c4.43.58,7.47-4.35,4.97-8.05h0c-.72-1.07-1.82-1.83-3.07-2.14l-14.71-3.57c-2.3-.56-3.93-2.6-3.96-4.96l-.15-10.23c-.05-3.04,2.52-5.47,5.55-5.25l30.94,2.2c1.5.11,2.97-.44,4.04-1.51l7.57-7.58c2.06-2.06,2.02-5.42-.1-7.42l-33.45-31.81c-2.01-1.92-5.18-1.9-7.18.03l-5.27,5.1c-2.3,2.22-2.06,5.98.51,7.89l13.18,9.8c3.78,2.81,2.16,8.81-2.53,9.32l-22.72,2.49c-2.35.26-4.22,2.07-4.57,4.4l-4.59,31.33c-.42,2.87,1.59,5.52,4.46,5.9Z"/><path class="cls-1" d="m168.68,942.88l-3.42,2.16c-10.27,6.49-16.44,17.83-16.33,29.97l.23,24.5c.03,3.01,2.31,5.69,5.32,5.84,3.43.16,6.1-2.65,5.91-5.93l-1.67-29.26c-.1-1.69.58-3.34,1.83-4.48l6.84-6.21c2.2-2,5.57-1.94,7.7.13l4.43,4.32c.92.89,1.5,2.08,1.66,3.35l2.76,22.8c.58,4.78,5.5,7.74,10,6.02h0c3-1.15,4.92-4.12,4.74-7.33l-1.33-23.28c-.1-1.69.58-3.34,1.83-4.48l6.84-6.21c2.2-2,5.57-1.94,7.7.13l4.43,4.31c.92.89,1.5,2.08,1.66,3.35l3.5,28.85c.37,3.08,3.17,5.27,6.25,4.9l1.64-.2c3.08-.37,5.28-3.17,4.9-6.25l-2.82-23.22c-1.15-9.5-6.14-18.12-13.8-23.85l-5.81-4.35c-1.87-1.4-4.4-1.5-6.37-.25l-14.89,10.6c-2.99,2.13-7.02,2.08-9.96-.12l-7.41-5.55c-1.87-1.4-4.4-1.5-6.37-.25Z"/><path class="cls-1" d="m181.8,491.63l1.2-1.09c3.99-3.63,5.32-9.34,3.34-14.36l-3.22-8.16c-2.66-6.75.73-14.36,7.52-16.9l18.88-7.07c7.27-2.72,10.54-11.19,6.98-18.09l-5.19-10.06c-3.26-6.33-11.02-8.84-17.37-5.63l-15.78,7.97c-6.98,3.53-15.47.12-18.07-7.25l-4.18-11.81c-2.5-7.07-10.46-10.55-17.35-7.59h0c-6.36,2.74-9.44,9.98-7.02,16.46l6.55,17.49c2.32,6.19-.39,13.14-6.3,16.12l-16.09,8.13c-6.12,3.09-8.77,10.41-6.06,16.7l.66,1.53c2.74,6.36,9.98,9.44,16.46,7.02l14.05-5.26c6.71-2.51,14.18.89,16.69,7.6l3.44,9.2c3.22,8.59,14.08,11.22,20.87,5.05Z"/><path class="cls-1" d="m354.2,554.95l.69-1.46c2.3-4.87,1.35-10.66-2.4-14.54l-6.09-6.31c-5.04-5.22-4.81-13.55.49-18.49l14.75-13.75c5.68-5.3,5.47-14.36-.46-19.38l-8.64-7.31c-5.43-4.6-13.56-3.96-18.21,1.43l-11.54,13.4c-5.1,5.92-14.25,6.02-19.47.2l-8.37-9.32c-5.01-5.58-13.7-5.76-18.94-.38h0c-4.83,4.96-4.92,12.83-.2,17.89l12.73,13.66c4.51,4.84,4.65,12.3.34,17.31l-11.76,13.66c-4.47,5.19-4.13,12.97.77,17.75l1.19,1.16c4.96,4.83,12.83,4.92,17.89.2l10.98-10.23c5.24-4.88,13.45-4.59,18.33.65l6.7,7.19c6.25,6.71,17.3,4.99,21.21-3.3Z"/><path class="cls-1" d="m158.57,75.27l1.08-.28c3.61-.93,6.27-4.01,6.68-7.72l.66-6.04c.55-4.99,5.08-8.56,10.06-7.93l13.85,1.76c5.34.68,10.07-3.45,10.11-8.83l.07-7.84c.04-4.93-3.9-8.97-8.83-9.06l-12.24-.21c-5.41-.09-9.51-4.92-8.73-10.28l1.25-8.58c.75-5.14-3-9.84-8.18-10.25h0c-4.78-.38-9.01,3.07-9.61,7.82l-1.63,12.83c-.58,4.54-4.48,7.92-9.06,7.84l-12.48-.21c-4.75-.08-8.73,3.54-9.11,8.28l-.09,1.15c-.38,4.78,3.07,9.01,7.82,9.61l10.31,1.31c4.92.63,8.4,5.12,7.77,10.04l-.86,6.75c-.8,6.3,5.01,11.42,11.16,9.83Z"/><path class="cls-1" d="m213.21,241.1c-7.33-3.55-16.15-.49-19.7,6.84-3.55,7.33-.49,16.15,6.84,19.7,7.33,3.55,16.15.49,19.7-6.84,3.55-7.33.49-16.15-6.84-19.7Z"/><path class="cls-1" d="m181.13,307.32c-7.33-3.55-16.15-.49-19.7,6.84-3.55,7.33-.49,16.15,6.84,19.7,7.33,3.55,16.15.49,19.7-6.84,3.55-7.33.49-16.15-6.84-19.7Z"/><path class="cls-1" d="m167.56,267.05l56.4,26.68c3.87,1.83,5.5,6.46,3.63,10.31h0c-1.72,3.55-5.85,5.23-9.56,3.87l-58.41-21.34c-4.02-1.47-6.07-5.93-4.56-9.93l2.01-5.35c1.58-4.21,6.42-6.17,10.49-4.25Z"/><path class="cls-1" d="m99.17,193.67l1.86,72.14c.12,4.71-4.11,8.35-8.75,7.53h0c-3.45-.61-6.01-3.54-6.15-7.05l-2.84-71.79c-.13-3.27,1.89-6.24,4.98-7.33l.98-.35c4.77-1.67,9.79,1.79,9.92,6.84Z"/><path class="cls-1" d="m51.55,264.75l-2.4-72.67c-.15-4.47,3.76-8,8.19-7.4l4.49.61c3.66.49,6.36,3.67,6.25,7.37l-2.1,72.06c-.08,2.88-1.87,5.44-4.55,6.5h0c-4.65,1.85-9.73-1.47-9.89-6.47Z"/><path class="cls-1" d="m432.44,496.14l45.9,55.68c3,3.64,1.91,9.11-2.25,11.32h0c-3.1,1.65-6.92.91-9.19-1.76l-46.46-54.8c-2.12-2.5-2.36-6.08-.59-8.84l.56-.88c2.73-4.26,8.81-4.62,12.03-.72Z"/><path class="cls-1" d="m438.71,581.46l-46.65-55.77c-2.87-3.43-1.97-8.61,1.89-10.87l3.91-2.29c3.19-1.87,7.28-1.02,9.47,1.95l42.74,58.06c1.71,2.32,1.87,5.44.42,7.93h0c-2.52,4.32-8.57,4.83-11.78.99Z"/><path class="cls-1" d="m96.16,96.22l-53.95-48.74c-3.32-3-3.14-8.26.36-11.03l3.56-2.81c2.9-2.29,7.06-2.03,9.65.62l50.4,51.55c2.01,2.06,2.61,5.12,1.52,7.79h0c-1.9,4.63-7.81,5.98-11.53,2.62Z"/><path class="cls-1" d="m266.45,270.14l-21.95-69.32c-1.35-4.26,1.46-8.71,5.88-9.33l4.49-.63c3.66-.51,7.12,1.82,8.01,5.4l17.46,69.95c.7,2.8-.33,5.74-2.62,7.49h0c-3.98,3.04-9.76,1.21-11.27-3.56Z"/><path class="cls-1" d="m265.41,620.41l-20.3-18.52c-4.29-3.91-11.19-.89-11.22,4.91v2.21c-.04,3.7-3.06,6.69-6.76,6.66l-35-.21c-2.99-.02-5.6-2.01-6.41-4.89l-1.16-4.13c-.81-2.88-3.42-4.87-6.41-4.89h-.71c-3.7-.03-6.72,2.96-6.74,6.66l-.18,29.91c-.02,3.7,2.96,6.72,6.66,6.75h1.22c3.16.03,5.91-2.17,6.59-5.26l.84-3.8c.69-3.13,3.49-5.34,6.7-5.26l68.23,1.53c3.74.08,6.83-2.92,6.85-6.66h0c.01-1.9-.78-3.71-2.19-4.99Z"/><path class="cls-1" d="m371.44,130.12l-21.57-17.02c-4.56-3.6-11.22-.09-10.84,5.7l.14,2.2c.24,3.69-2.56,6.89-6.25,7.13l-34.92,2.29c-2.98.2-5.73-1.6-6.75-4.41l-1.46-4.04c-1.01-2.81-3.76-4.61-6.75-4.41l-.71.05c-3.69.24-6.49,3.43-6.25,7.13l1.96,29.85c.24,3.69,3.43,6.49,7.13,6.25l1.22-.08c3.16-.21,5.74-2.59,6.19-5.72l.56-3.85c.46-3.17,3.1-5.57,6.3-5.73l68.16-3.36c3.74-.18,6.6-3.4,6.36-7.13h0c-.12-1.9-1.05-3.65-2.54-4.82Z"/><path class="cls-1" d="m212.19,125.81l-16.23-26.82c-2.32-3.83-8.06-3.13-9.39,1.14h0c-.38,1.23-.29,2.56.25,3.73l6.4,13.72c1,2.14.42,4.69-1.4,6.19l-7.89,6.5c-2.35,1.93-5.84,1.44-7.57-1.06l-17.6-25.54c-.85-1.24-2.2-2.05-3.7-2.21l-10.65-1.18c-2.9-.32-5.49,1.81-5.74,4.71l-3.97,45.99c-.24,2.77,1.75,5.23,4.5,5.59l7.27.94c3.17.41,5.96-2.13,5.85-5.33l-.57-16.42c-.16-4.71,5.53-7.18,8.86-3.84l16.13,16.19c1.67,1.67,4.25,2.01,6.29.82l27.34-15.98c2.5-1.46,3.32-4.69,1.82-7.16Z"/><path class="cls-1" d="m404.04,271.42l-30.82-5.71c-4.4-.81-7.69,3.94-5.39,7.77h0c.67,1.11,1.72,1.92,2.96,2.3l14.5,4.35c2.26.68,3.78,2.8,3.69,5.17l-.39,10.22c-.12,3.04-2.81,5.33-5.83,4.95l-30.78-3.84c-1.49-.19-2.99.29-4.11,1.29l-7.96,7.17c-2.17,1.95-2.3,5.3-.3,7.42l31.71,33.54c1.91,2.02,5.07,2.18,7.17.35l5.54-4.81c2.42-2.1,2.37-5.87-.09-7.91l-12.64-10.49c-3.63-3.01-1.69-8.91,3.02-9.17l22.82-1.28c2.36-.13,4.33-1.84,4.79-4.16l6.25-31.04c.57-2.84-1.29-5.6-4.14-6.12Z"/><path class="cls-1" d="m318.83,411.77l3.53-1.98c10.6-5.94,17.37-16.93,17.9-29.06l1.07-24.48c.13-3.01-2-5.81-5-6.11-3.42-.34-6.23,2.33-6.22,5.61l.11,29.31c0,1.7-.75,3.3-2.07,4.38l-7.16,5.84c-2.3,1.88-5.66,1.64-7.68-.54l-4.2-4.54c-.87-.94-1.39-2.15-1.48-3.43l-1.55-22.91c-.33-4.81-5.08-8.02-9.66-6.54h0c-3.06.99-5.13,3.85-5.12,7.07l.09,23.32c0,1.7-.75,3.3-2.07,4.38l-7.16,5.84c-2.3,1.88-5.66,1.64-7.68-.54l-4.2-4.54c-.87-.94-1.39-2.15-1.48-3.43l-1.96-28.99c-.21-3.1-2.89-5.44-5.99-5.23l-1.64.11c-3.1.21-5.44,2.89-5.23,5.99l1.58,23.34c.65,9.55,5.17,18.42,12.51,24.55l5.57,4.65c1.79,1.49,4.31,1.73,6.35.59l15.44-9.8c3.1-1.97,7.12-1.71,9.94.65l7.1,5.93c1.79,1.49,4.31,1.73,6.35.59Z"/></g></svg>