<?xml version="1.0" encoding="UTF-8"?><svg id="Camada_2" xmlns="http://www.w3.org/2000/svg" viewBox="0 0 455.73 164.84"><defs><style>.cls-1{fill:#3b99b9;}.cls-1,.cls-2,.cls-3{stroke-width:0px;}.cls-2{fill:#fff;}.cls-3{fill:#1e8aaf;}</style></defs><g id="Camada_1-2"><rect class="cls-3" x="9.25" y="8.5" width="441.53" height="147.67"/><path class="cls-1" d="m446.97,156.17c.49.62,1.61.27,1.39-1.44l-1.89-1.21.5,2.65Z"/><path class="cls-1" d="m450.48,144.67c-.92-2.01-2.53-4.33-4.27-3.03,1.82,1.99,1.06,2.47,3.22,4.62.22,1.71-.61,2.99-1.3,2.7.49.6-.42,2.66.77,3.58,1.46-2.23,1.52-5.04.31-7.99.42-.63.91-.02,1.26.13Z"/><path class="cls-1" d="m419.84,5.85l1.08.22c-.29-.12-.66-.19-1.08-.22Z"/><path class="cls-1" d="m316.29,4.81c.79-.05,1.12-.23,1.16-.4-.73.12-1.33.24-1.16.4Z"/><path class="cls-1" d="m298.62,2.73c.38.06.7.09,1.04.13-.4-.17-.8-.27-1.04-.13Z"/><path class="cls-1" d="m419.84,5.85l-2.77-.59c-.19.62,1.42.46,2.77.59Z"/><path class="cls-1" d="m445.91,121.63c.09.58.27,1.06.5,1.5-.08-.48-.15-.94-.2-1.41-.1-.03-.19-.05-.3-.09Z"/><path class="cls-1" d="m454.96,23.2v.84c.22.25.48.48.77.7l-.77-1.54Z"/><path class="cls-1" d="m455.25,58.23c.07-.79-1.54-1.07-2.24-1.37.66.45.98,1.03,1.1,1.73.31.01.67-.09,1.14-.36Z"/><path class="cls-1" d="m452.42,113.78l.22.99c-.07-.26-.13-.69-.22-.99Z"/><path class="cls-1" d="m440.41,3.97c-.06-.24-.18-.45-.32-.58,0,.2.12.39.32.58Z"/><path class="cls-1" d="m410.17,148.63c-.03.11.01.19,0,.29.2-.16.27-.28,0-.29Z"/><path class="cls-1" d="m450.78,156.59l-.56.09c-.06.3-.12.6-.12.9l.68-.99Z"/><path class="cls-1" d="m266.26.67c.06.02.08.02.14.03.85-.18.37-.15-.14-.03Z"/><path class="cls-1" d="m2.6,48.49c1.44-3.36,1.84,5.48,3.44.41-.63.47-2.5-4.6-3.44-.41Z"/><path class="cls-1" d="m446.12,120.72c-.02-.47-.03-.95-.02-1.44-.05.65-.04,1.09.02,1.44Z"/><path class="cls-1" d="m6.04,48.9h.01l.15-.52c-.07.22-.11.34-.17.52Z"/><path class="cls-1" d="m191.72,1.63c.15.28.45.5.76.7-.03-.16-.2-.37-.76-.7Z"/><path class="cls-1" d="m247.25,3.92l-1.37-.22c.54.15.99.2,1.37.22Z"/><path class="cls-1" d="m162.88,3.9c-.75-.12-1-.34-2.02-.13.09.08.19.14.31.2.37-.22.86-.32,1.71-.07Z"/><path class="cls-1" d="m132.87,3.91c.16.12.37.21.55.32.3-.03.65-.06.95-.09l-1.5-.24Z"/><path class="cls-1" d="m318.96,149.4c.66.45,1.07.95,1.39,1.44-.46-1.14,3.95-1.55-1.39-1.44Z"/><path class="cls-1" d="m446.82,121.61c-.41-.18-.61-.43-.69-.89.02.34.05.68.09,1,.24.09.46.11.61-.11Z"/><path class="cls-1" d="m161.66,16.58l-4.77-.24c1.33.15,3.07.24,4.77.24Z"/><path class="cls-1" d="m103.65,149.63l1.09-.19c-.42-.04-.81,0-1.09.19Z"/><path class="cls-1" d="m142.75,16.58c-.85-.57-1.75-.9-2.69-1.11-.2.13-.42.23-.55.41l3.24.7Z"/><path class="cls-1" d="m320.36,150.86s-.01-.02-.01-.02c0,0,0,0,.01.02Z"/><path class="cls-1" d="m351.77,147.05c-4.54-.05-2.13,2.07-3.1,3.28-5.42.6-2.51-1.56-4.36-2.64-3.39.56-5.98,2.5-8.51,2.41-.19-.35-.68-.47-.1-.91-3.58,1.68-10.63.08-14.8,2.19-.31-.19-.47-.36-.54-.52.67,1.06.78,2.13.64,2.9-2.04.04-3.78,1.33-4.55-.05,1.25.04,1.35-.52,1.94-.95l-2.13.6c-1.92-1.98,2.91-.69,2.91-2.16-4.16.65-9.01,2.29-12.2,1.73-.67-1.94,7.46-.65,3.2-2.38l4.94.74c-3.77-3.06,3,.21-.47-3.06-6.49-.56-7.26.99-13.74.42-1.46,1.08.48,1.6-.98,2.68-9.21,1.94-7.25-4.88-14.02-2.3-1.75,1.29-2.43,3.75-7.25,2.45l1.64-2.2c-6.29-.22-3.59,3.16-10.17,1.68,1.17-.86,4.94-.73,3.99-.99-4.27-1.73-3.02,1.24-6.3,1.24l-.68-1.94c-6.69.31-14.07,1.71-21.48,2.06.41-.58,1.68-1.19-.05-1.78-9.35.97-19.96-.24-28.98-1.39l-3.45,1.68c-.8-.02-1.49-.76-.62-1.08-3.51-.64-.18,1.06-1.87,1.72-2,.12-2.64-.96-1.37-1.47-6.2,1.42-17.67,3.06-24.2,1.27l1.27-.5c-5.09-.68-5.74,3.44-10.46,1.87l.9-.3c-11.04-.73-23.25.81-31.67-1.72-1.6,2.42-10.93-1.08-11.64,2.29-6.31-1.67-4.5-2.27-13.38-3.4-2.37-.15-3.54,2.1-6.47,2.46l-.07-1.76-3.98,1.85-2.12-2.11-2.75.45c1.1.1,2.33.79,2.16,1.3-4.3.8-10.47-1.23-10.58-2.13l-10.16,1.49c.23-.71,1.93-.95,3.27-1.4-5.43,1.8-.99-1.86-5.96-.21.67.4-.36,1.05-.47,1.41-2.48-1.06-8.12-1.07-12.29-.63l.8-1.22c-7.54-.31-15.89.58-24.36.56,3.04.57,2.34,2.67-.14,2.87l-.99-1.86c-1.6,1.15,2.59.7-.7,2.11-3.16-.22-2.13-2.12-.31-2.72l-3.84.65c-.23-.56.68-.85.91-1.56-1.58,1.16-6.63-1.87-8.91.14l-.22-.55c-4.23,0-7.3.15-10.18.32-1.44.08-2.83.16-4.28.25-.21.07-.47.13-.75.15-.39.76-.72,1.08-1.16,1.34-.45.26-.97.47-1.91,1-.06,0-.13.03-.2.05.26-1.37.7-2.67,1.06-3.59l.07-.17c.02-.08.04-.05.06-.28.04-.35.08-.71.12-1.07.08-.72.14-1.44.2-2.17.11-1.46.16-2.96.13-4.48-.8-4.29-1.36-1.25-2.32-3.18,1.46-.32,1.33-6.41,2.38-3.25-.24-7.32-.29-9.35-1.48-18.61-.6,1-.86,2.14-1.36,1.55-.24-1.68.61-3.82,1.32-3.58l.15.44c-2.19-10.4,4.27-23.99,1.22-32.27l.15.46-1.59-8.58c.25-3.95,1.1,2.37,2.01-.55-2.44-9.26.36-14.63-1.27-22.26,4.32-5.9-.3-20.95,2.45-28.91l-1.02.46c-.5-1.03-.35-1.65-.05-2.21.15-.27.34-.56.5-.8.17-.04.31-.07.37-.1-.39-.02-.62,0-.82.13-.2.39-.37.52-.64-.05-.21-.79-.31-1.78-.31-2.7.54,0,1.1.02,1.65.08.72.05.44.13,2.9.23,3.72.19,7.46.46,11.21.76,7.49.59,15,1.27,22.39,1.65,6.54.27,3.71-5.26,11.96-2.83l-2.34,1.89c13.2-2.27,26.99.08,39.91-1.84-.77.44-.79,1-2.05,1,2.73,1.37,10.09.07,10.14-1.05,2.01.13.47,1.01,1.71,1.58,2.74.81,6.87-1.75,8.33-.39.25.22-.77.45-1.27.55,1.78-.66,8.31.17,6.6-1.41,4.85.76,9.28-.7,13.15.23,2.52-1.77,8.3.85,9.1-1.65-.35,2.59,8.5,2.09,11.57.87-1.03.78,2.67.81,1.46,1.89,3.5-.04,6.71-.52,6.1-1.84,6.45,3.09,12.96-2.49,16.59,1.47,10.39-1.39,20.01-2.33,29.37-2.94-.34,2.58-10.34.26-9.94,2.96,8.87-1.06,13.99-3.28,22.78-2.65,2.28.35-1.29,1.12-2.06,1.56,8.86-1.06,17.14.23,25.02-1.17-.02.24-.87.5-1.68.7,1.55-.09,3.62.38,3.44-.79l-1.52.32c-2.48-1.7,6.17-3.55,6.45-4.45-2.64,3.36,7.79.84,3.6,5.09,1.02-.22,2.31-.78,2.07-1.56,1.52.23,2,.69.46,1.58,5.57-.64,3.59-1.88,8.63-1.86-.02.57-1.04.79-1.56,1.45,2.55-1.11,5.12-2.21,9.38-1.73-.26.34.24.79-1.03.78,7.32-.17,12.48-2.95,20.51-1.88-2.37,2.46,2.73.81,3.16,2.95l4.32-.64-1.73-1.04c3.78.04,7.12-1.52,10.38-.82l-2.81.88,7.09-.4-4.01-.81c3.83-1.1-.41-2.7,4.62-2.11-1.02.22,3.78.03,5.76,1.28,0,0-.01,0-.01,0,1.87-.68,3.8-1.4,6.59-.87.73.68-.58,2.36-.11,2.81,1.85-1.78,8.86-.5,11.2-2.4-.78.45-.82,1.57-.56,1.79l1.55-1.45c1.75.46,2.01.69,1.72,1.58,5.27.27-1.67-2.71,4.58-1.54-.49.12-.26.33-1.28.55,6.28.61,12.14-.92,17.91-.21,1.7,2.15-5.04.53-3.09,2.34,8.32-.39,17.24-2.57,25.29-2.07l-1.5-.24c1.12-3.03,6,1.5,10.07.07-1,.23-1.31,1.68-1.04,1.35,5.52.49,11.28-.75,19.64-1.7l-1.04.78c3.25.7,8.56.4,12.07.76,1.04-.78,3.05-.65,1.83-1.78,3.76,1.54,7.4,1.72,10.96,1.46.42-.03.94-.07,1.27-.12l.84-.15c.61-.12,1.21-.23,1.81-.35,1.26-.24,2.68-.48,4.05-.6.21,1.95.06,4.66-1.07,6.57,0-.76-.68-1.49-.68-.97l.18,1.11.18,1.98.36,4.09c1.32-.65.8-1.07,1.83-2.79.78,1.04,1.39,3.35,1.39,5.37-.88-3.68-2.12.03-2.86,1.62.4-.27.85.28,1.26.14-2.35,4.27,2.66.72,1.08,6.55l-.69-.31c.35,2.18,1.27,4.2,1.07,6.55-1.53.98-.71-2.33-1.97-2.48.09,3.31,2.89,6.53,1.37,9.52-.43-1.4-.43-3.43-.86-4.83-1.79,3.26-1.34,3.64-1.62,6.06l.04-.24-.81,5.6.49-1.43c3.98,4.14.73,8.43,3.34,14.01-2.47-5.42-1.43-.9-3.16-1.31-.48,1.42-1.02,3.59-1.51,2.97,1.4,2.64-1.1,4.4.94,8.12-.55.17-.05,2.82-1.45,2.23.44,3.43.97-.81,1.67-.52,1.91,5.28-2.31,12.42.3,20.01,1.07,6.55,2.96,7.76,3.89,13.84-.89,2.05-2.03-1.68-2.03-1.68-.82,3.31-.67,5.8-.03,8.92-.49-.63-.9.02-1.52.97.15,2.5,2.03,1.67,1.21,4.98-.62-.57-1.62-1.29-2.24-2.5.51,2.95,1.55,5.86,2.06,8.92-.97.81-1.47-1.84-2.11-2.92.44,3.43.88,8.89,2.42,9.95l.55-2.2c.08,1.25-1.32.64-1.6-.28-1.21-2.94.53-4.24,1.09-4.41l.36,2.18c3.27-2.23-.53-8.74-.33-13.11l2.38,1.83-1.97-4.49c.62-.95,1.95-1.61,2.3.55,1.17-3.14-.85-2.78.46-5.48.2-.3.32-.16.41.11l-.71-3.07c.5.6,1.68-.51,1.34,1.37,1.37-5.51-1.78-8.88.02-10.95l.15.46c-.8-7.64-1.75-.74-3.79-6.47l4.31-3.86-1.75-.75c.06-.79.19-2.35.89-2.06-1.19-2.93-.76.5-1.89-1.2,1.59-3.79-.74-10.46,2.04-11.31-1.33-1.36-1.02,3.63-1.95-.42,2.99-1.15-.51-4.68.86-8.15,1.54,1.06.73,4.35,2.11.88-2.61-2.09.57-6.75.07-9.67-2.08-.14-.87-6.35-1.56-11.26.7.31,1.14-9.23,1.89-13.79l.35.13c-2.1-.88-1.7-5.59-2.14-9.02,1.26.13,1.75.75,2.32,2.61v-3.22c-.68-.76-1.04-1.77-1.28-3.85l1.57.81c-.02-.96-.12-1.93-.26-2.91-.15-1.33-.3-2.69-.46-4.08-.31-2.82-.55-5.49-.32-8.96-.68-.05-1.37-.13-2.07-.24-.78.73-.21,1.75-.73,2.71-.47.96-1.85,1.86-4.65,2.34.37-.79.89-2.14,2.87-2.47-.67.1-2.38.66-3.28.32,1.06-.44,2.22-.89,3.5-1.33-2.75-.58-2.28,1.11-4.45.99.49-1.13-1.5-.81-.93-1.7.73-.11,2.08.47,3.28.02-1.42-.1-2.99-.32-4.43-.62-.69-.15-1.46-.32-1.95-.51-.42-.19-.76-.39-.99-.6.2.64,0,1.52-1.66,1.67-4.29.08-1.47-1.36-3.97-1.94-1.04.78-3.77-.03-3.84,1.66-1.25,0-1.49-.8-1.97-1.25-2.22.75-10.36.21-7.86,2.01l.57.12c-.11.03-.23.04-.36.07h.02-.02c-7.27,1.68-15.11-.96-22.32-.23v-.56c-4.3.64-9.58.38-12.65,1.6-1.27,0-3.01-1.03-2.46-1.7-3.29.42-3.66,1.06-8.42.13,3.31-.98-1.14-.87,3.39-.72-4.28-.49-5.25-1.39-9.84.15,1.56-1.45-3.22-1.82-5.25-1.39l3,1.04c-2.29.21-4.29.08-6.32-.04l1.1-1.9c-8.76-2.31-15.79,3.94-22.46.06-2.32,1.33,4.75.94,2.68,2.49-4.03-.26-8.22-2.99-9.49-2.99-5.52-1.05-5.15,2.78-10.92,2.06.74.68,1.44,2.49-2.88,3.13-4.03-.25-4.95-2.85-2.41-3.39.97-.06,1.43.16,1.39.39,1.3-.25,3.01-.54,1.42-1.27l-.52.68c-2-.69-7.54-.62-6.24-1.73-3.04.65-1.3,1.11.95,1.47-5.17-.98-8.08-.03-13.4-.69.85.37,1.62,1.17.78,1.16-7.8-.84-3.44,1.29-8.73,1.58-3-1.03,1.08-2.47-4.25-1.6-3.25-.7-.69-1.8.6-2.35-4.85,1.31-9.06-.86-11.83-1.1l2.55-.55c-1.53.33-2.78.32-4.05.31l1.46,1.36c-1.5-.24-2.77-.24-2.74-.81-1.55.89,1.18,2.26-1.88,3.47-2-.69-6.09.74-6.78-1.06,6.29.61-.7-1.81,4.63-2.1-1.03.21-2.28.21-3.78-.03-.23-.2.21-.37.62-.48-6.02-1.61-2.77,2.04-9,1.99.79-1.01-1.45-1.92-2.46-1.71,2.51.02,1.2,1.69-1.1,2.47-4-.79-4.35.59-6.44.5l2.39.37c-.81,1.01-2.81.88-5.6,1.2-.24-.79,2.53-.54,1.54-.89-3.1,1.78-6.99-1.85-11.31-.64-2-.69-.19-1.91-1.95-2.37-4.84,1.32-5.24-1.39-10.32-.3,1.46,1.36,1.72,1.03-1.86,2.36l8.36-.96-5.36,1.98c2.52.02,5.32-.86,6.83-.63-2.56,1.11-2.29.77-1.08,1.91-3.45-2.05-6.84,1.19-10.83-.19l.12-3.38c-6-1.5-10.66,1.73-18.45.88l2.5.59c-1.04,1.34-4.81.19-7.33.73.23-1.13-1.34-1.54-2.42-2.24.13.84-5.7-.08-6.41,2.18l-3.48-1.49c-6.29-.61-7.18,3.22-13.22,2.83,1.82-1.23-.93-2.03,3.12-2.9-2.02-.01-3.83-.22-3.87.56-1.18-.71-5.6,1.52-7.45.45-.85.5-1.13,1.68-3.4,1.58-.25-.23,0-.56,0-.56,0,.56-3.55.76-1.57,2.01-6.22-3.52-17.38.25-22.79-2.77-4.41.38-9.71.74-13.71.82.26-.34.01-.56.77-.45-5.52-1.05-3.39,3.24-9.67,2.07-3.21-1.82,3.33-.99,1.33-1.68-.87-3.71-7.58.51-11.8-1.66l1.02-.22c-3.23-1.26-7.88,1.41-13.16,1.14,0,0,.26-.33.03-.56-3.61,1.89-10.44,2.52-15.51,3.05,1.58-1.45,2.31-.77,1.34-2.25-2.27.21.67,2.37-3.87,2.78-1.48-.8-4.75-1.49-5.19-3.07l4.28-.08c-2.19-2.04-5.54.07-7.8-.28l.29-.89c-6.56.29-6.66,2.53-13.71,2.37l.73.67c-3.86,2.22-3.23-1.25-7.08.4l-1.16-2.26c-2.54.54-8.91,2.18-13.47,2.61,2.58-1.67,7.92-2.53,11.23-3.52-2.52-.02-8.57.17-9.88,1.28,1.02-.22,2.3-.77,3.3-.42-3.09,1.77-7.17,2.65-12.19,2.61.15-.72-.11-1.23-.65-1.59-.15-.09-.26-.18-.48-.25-.24-.08-.5-.14-.79-.2-.57-.12-1.25-.22-1.99-.29-2.99-.3-7.02-.27-10.96-.44-.17,3.86-.55,7.35-1.73,9.13.1.96.19,1.91.26,2.83.07.88.13,2,.18,2.4.09,1.11.14,2.22.14,3.34.01,2.23-.11,4.48-.29,6.78-.34,4.59-.85,9.37-.72,14.55,3.4-3.67.1,3.02,3.59,2.39.22,2.41.16,3.33-.06,3.55l-2.09,7.31c-1.02,1.73-.77-2.29-1.55-2.07-.27,5.28-1.48,2.22-2.41,5.71,1.25-.72,1.79,1.84,1.31,4.85l1.61-4.24c1.86,7.38-2.93,6.38-1.09,13.82l-1.1-2.35c.65,3.82-.02,14.09,2.79,17.83-.4.68-1.36,1.57-1.61-.11-.42,9.12,2.99,20.31,1.26,27.4l-.85-.69c.25,1.7,1.61,2.96.75,5.09-.35-.11-.85-.69-.9.1.29.9,1.5,4.52,1,6.78l-.96-1.93c-.56,4.45.03,7.86.82,11.1.4,1.62.85,3.19,1.24,4.83.2.82.37,1.65.52,2.51.07.43.14.87.2,1.32.03.22.05.45.08.68.02.31.04.63.06.95-1.07.02-1.83,2.03-2.38,5.19-.55,3.12-.9,7.29-1.14,10.86,1.16.08,2.23.16,3.15.22l-.52.36c4.84.08,9.48-.01,13.75-.21.65-.02.78-.05,1.09-.08l.84-.09c.56-.07,1.11-.13,1.66-.2,1.1-.14,2.18-.3,3.26-.47,4.31-.68,8.51-1.53,13.31-2.02,5.96,2.73,20.18,1.14,29.76,2.68-1.46-.46.24-1.96,1.94-2.21,2.25.51,6.21-1.75,5.86.56l-.8-.04c1.69,2.26,6.31,1.66,9.92,1.72l.59-3.02c9.43,4.39,24.71-1.61,29.86,2.32,2.28-.76,5.1-.75,7.35-1.5l-.12,1.62c6.31.41,9.45.62,17.25.23l-1.59,1.16c4.4.11,5.55-4.67,9.61-4.76l1.22,2.42c7.67-.04,15.43,2.08,23.01-.11-.12.35-.35,1.05-1.59,1.15,3.61.06,13.97,1.64,12.66-1.68.09,2.16,7.91.21,12.06-.74l-.64,1.59c3.5-2.03,3.61-2.59,8.49-3.16,1.16.21,1.01,1.28-.52.87,3.86.83,3-1.51,7.68-.66l-1.74,1.02c3.97.12,3.65-.42,5.84-1.61,2.49-.64,7.53.4,8.11,1.84.53-.88,2.71-2.05,5.04-1.64.31.54-.54.88-.96,1.05,6.63,1.08,9.86-1.85,14.42-.29.09.53.39.79.77.95-5.27-.04-9.51-.13-9.12-.24,0,1.47,4.26,1.73.87,3.75,3.42-1.11,9.26-3.51,13.41-2.82.2.14.4.28.55.51l-.43.16c.96.15,1.82,0,2.62-.24,1.32.24,2.16.42,3.44.44.49,1.22,4.88.66,7,.72-.18-1.61,2.6-1.35,0-2.68.34.11-.4.19-1.81.26-.32.05-.69.07-.9.17.04-.04.09-.09.14-.14-1.39.05-3.21.08-5.28.11,1.68-.82,3.43-1.5,5.78-.61,1.09-1.03,2.29-2.09,2.96-2.59,2.9,2.24,8.5,3.45,9.28,4.83,6.48-.9,15.27-.59,19.34-3.61,1.84-.39,2.12.87,2.81,1.34-1.06.3-2.33.26-2.91.69,3.68-.77,10.92-.3,11.79-2.41,4.64.95-2.61,1.94,3.77,1.6l-.86.65c12.55,3.37,20.41-5.38,34.32-1.06-.96-.27-1.45-.39-1.64-.74,15.87,1.91,32.7-1.79,48.35,1.24,4.45.61,4.93-.74,7.65-1.76l.96,1.73,4.64-1.99c6.58-1.46,11.4,4.24,19.74,1.48l-1.08-1.16c2.99.22,9.48-.69,8.98.65.31-.21.98-1.21,2.15-.6l.09.9,7.35-1.55c5.7.65-.89,3.59,7.43,3.76,3.09-.35,8.81-2.63,7.65-3.23-1.25-.04-3.19-.56-3.28-1.47l2.83-.47c.51-2.66,2.69-5.39-4.25-7.25l-4.84,1.63-1.56-1.29,4.07-.08c-2.31-1.22-3.77-.14-5.41.6-.39-.69-1.07-1.17-2.03-1.42l-4.75,2.54c-.58-1.04,2.13-2.07-1.06-2.64-2.22,1.18,2.13,2.33-1.55,3.11-2.32-1.21-1.64-2.2-4.36-1.16-.38-.69.19-1.12,1.27-1.42-2.42.82-6.4.35-7.65,1.76-2.41-1.49-8.17.39-7.93-2.13-.76.6-4.26,1.98-6.48,2.08,4.06-3.02-8.31-.18-7.24-3.41-3,2.71-10.85,1.2-16.17,2.71.3-.21.88-.65,1.35-.51-2.99-.23-3.86-1.04-5.79-1.55-.38,2.24-5.05,2.75-7.56,4.13-3.67-2.16,2.23-2.63,1.08-4.71.18,1.82-6.38,1.81-5.13,3.32-2.81-1.34-2.42-.65-3.86-2.51-.49,2.8-2.61.47-4.94,2.19-4.06-1.38-1.05-2.62-5.51-1.77-2.12-.86,1.85-1.85,1.85-1.85Zm-106.12,4.84v-.03c.91-.04,1.69-.07,2.19-.09-.46.03-1.09.06-2.19.12Zm-8.92.03c1.09.06,2.44.07,3.87.06.31.56-.03,1.13-.92,1.1.49-.37-1.61-.69-2.95-1.16Zm18.86,11.14c-1.41.23-1.88-.09-2.08-.42.67-.03,1.45-.08,2.47-.19.04-.06.12-.13.17-.2-.13.31-.29.59-.56.81Z"/><path class="cls-1" d="m258.13,160.94c.2-.03.32-.1.58-.12-.29-.14-.56-.26-.84-.36-.17.17-.35.35-.5.5.26,0,.52-.02.76-.03Z"/><path class="cls-1" d="m421.1,6.11l-.19-.04c.16.06.3.13.39.23-.12-.08-.12-.13-.21-.19Z"/><polygon class="cls-1" points="113.58 148.84 113.6 149.25 114.38 148.89 113.58 148.84"/><path class="cls-1" d="m447.65,27.94c-.14.09-.29.28-.41.64.11-.03.25-.31.41-.64Z"/><path class="cls-1" d="m447.29,49.16l-.57,3c.33-1.3.48-2.24.57-3Z"/><path class="cls-1" d="m446.49,65.47c.28.21.49.27.69.32,0-.01,0-.02.01-.03l-.7-.29Z"/><path class="cls-1" d="m248.38,14.67c-.22,0-.44.03-.63.07-1.48.31-.47.19.63-.07Z"/><path class="cls-1" d="m325.56,10.92c-.82.29-1.63.58-2.48.76,1.37.12,2.44.15,2.48-.76Z"/><path class="cls-1" d="m162.19,16.6s0-.01,0-.03h-.53l.52.03Z"/><path class="cls-1" d="m319.49,11.65c1.37.32,2.52.25,3.59.03-1.13-.11-2.45-.27-3.59-.03Z"/><path class="cls-1" d="m445.77,136.17l-.07.79c.11-.01.19.03.26.09l-.19-.88Z"/><path class="cls-1" d="m445.96,137.05l.19.87c0-.4-.01-.75-.19-.87Z"/><path class="cls-1" d="m446.55,139.76l-.41-1.84c0,.64-.05,1.42.41,1.84Z"/><path class="cls-1" d="m446.51,114.58l-.58-.25c.12.13.31.22.58.25Z"/><path class="cls-1" d="m446.34,108.02c-.13,1.56-1.24,3.93-.88,6.11l.46.2c-.87-1.03,1.4-4.83.42-6.32Z"/><path class="cls-1" d="m453.54,80.62l-.47,5.5c.62-.96,1.46-2.23,1.6.28,1.85-6.93-1.39,1.43-1.14-5.77Z"/><path class="cls-1" d="m454.44,63.57c.29,2.95.9-.03,1.25.12-.57-1.87-.71-2.33-1.25-.12Z"/><path class="cls-1" d="m382.63,4.83l.3-1.46c-2.28.21-.02.57-.3,1.46Z"/><polygon class="cls-1" points="359.07 12.39 361.29 13.29 362.35 11.95 359.07 12.39"/><polygon class="cls-1" points="345.16 1.97 346.15 1.76 342.36 2.29 345.16 1.97"/><path class="cls-1" d="m138.21,2.49l.69,1.8c1.54-.32,1.86-2.35-.69-1.8Z"/><path class="cls-1" d="m48.87,4.32c-.97-.9-3.49-1.48-5.03-.59,2.01.12,4.01.83,5.03.59Z"/><polygon class="cls-1" points="89.89 163.28 88.09 163.89 91.48 163.38 89.89 163.28"/><path class="cls-2" d="m40.97,56.46v-15.64h4.81c1.38,0,2.61.31,3.69.93,1.09.62,1.93,1.5,2.54,2.64.61,1.14.91,2.44.91,3.89v.72c0,1.45-.3,2.75-.9,3.88-.6,1.13-1.44,2.01-2.53,2.63s-2.32.94-3.68.95h-4.84Zm3.22-13.03v10.44h1.56c1.26,0,2.22-.41,2.89-1.24.67-.82,1.01-2,1.02-3.53v-.83c0-1.59-.33-2.79-.99-3.61-.66-.82-1.62-1.23-2.89-1.23h-1.59Z"/><path class="cls-2" d="m70.42,48.45h-9.6v-2.54h9.6v2.54Zm0,4.65h-9.6v-2.54h9.6v2.54Z"/><path class="cls-2" d="m78.82,56.46v-15.64h4.81c1.38,0,2.61.31,3.69.93,1.09.62,1.93,1.5,2.54,2.64.61,1.14.91,2.44.91,3.89v.72c0,1.45-.3,2.75-.9,3.88-.6,1.13-1.44,2.01-2.53,2.63s-2.32.94-3.68.95h-4.84Zm3.22-13.03v10.44h1.56c1.26,0,2.22-.41,2.89-1.24.67-.82,1.01-2,1.02-3.53v-.83c0-1.59-.33-2.79-.99-3.61-.66-.82-1.62-1.23-2.89-1.23h-1.59Z"/><path class="cls-2" d="m92.89,41.83c0-.47.16-.85.47-1.15.31-.3.74-.45,1.27-.45s.95.15,1.27.45.47.68.47,1.15-.16.86-.48,1.16c-.32.3-.74.45-1.26.45s-.94-.15-1.26-.45c-.32-.3-.48-.69-.48-1.16Zm3.3,14.63h-3.12v-11.62h3.12v11.62Z"/><path class="cls-2" d="m99.59,56.46v-9.35h-1.73v-2.28h1.73v-.99c0-1.3.37-2.31,1.12-3.03.75-.72,1.79-1.08,3.14-1.08.43,0,.96.07,1.58.21l-.03,2.41c-.26-.06-.57-.1-.95-.1-1.17,0-1.75.55-1.75,1.64v.93h2.31v2.28h-2.31v9.35h-3.12Z"/><path class="cls-2" d="m113.59,55.28c-.77.93-1.83,1.4-3.18,1.4-1.25,0-2.2-.36-2.85-1.07-.65-.72-.99-1.77-1-3.15v-7.62h3.1v7.52c0,1.21.55,1.82,1.65,1.82s1.78-.37,2.17-1.1v-8.24h3.12v11.62h-2.92l-.09-1.18Z"/><path class="cls-2" d="m125.23,53.25c0-.38-.19-.68-.56-.9-.38-.22-.98-.41-1.81-.59-2.76-.58-4.15-1.75-4.15-3.52,0-1.03.43-1.89,1.28-2.58.86-.69,1.98-1.04,3.36-1.04,1.48,0,2.66.35,3.54,1.04.88.69,1.33,1.6,1.33,2.71h-3.1c0-.44-.14-.81-.43-1.1s-.73-.44-1.34-.44c-.52,0-.93.12-1.21.35s-.43.54-.43.9c0,.34.16.62.49.83.33.21.88.39,1.65.55.77.15,1.42.33,1.96.52,1.64.6,2.46,1.64,2.46,3.13,0,1.06-.46,1.92-1.36,2.57s-2.08.98-3.52.98c-.97,0-1.84-.17-2.59-.52-.75-.35-1.35-.82-1.78-1.43-.43-.6-.64-1.26-.64-1.96h2.94c.03.55.23.97.61,1.27.38.29.89.44,1.53.44.59,0,1.04-.11,1.35-.34.3-.23.46-.52.46-.89Z"/><path class="cls-2" d="m136.98,56.46c-.14-.28-.25-.63-.31-1.04-.75.84-1.73,1.26-2.93,1.26-1.14,0-2.08-.33-2.83-.99-.75-.66-1.12-1.49-1.12-2.49,0-1.23.46-2.18,1.37-2.84.91-.66,2.23-.99,3.96-1h1.43v-.67c0-.54-.14-.97-.41-1.29-.28-.32-.71-.48-1.31-.48-.52,0-.93.13-1.23.38-.3.25-.45.59-.45,1.03h-3.1c0-.67.21-1.3.62-1.87.42-.57,1-1.02,1.76-1.35.76-.33,1.61-.49,2.56-.49,1.43,0,2.57.36,3.41,1.08.84.72,1.26,1.73,1.26,3.03v5.04c0,1.1.16,1.94.46,2.5v.18h-3.14Zm2.03-16.36c0,.81-.24,1.49-.71,2.04s-1.05.82-1.73.82c-.27,0-.51-.03-.72-.09-.21-.06-.5-.19-.88-.39-.37-.2-.64-.32-.81-.37-.17-.05-.34-.07-.54-.07-.25,0-.46.09-.64.27-.18.18-.26.43-.26.76l-1.8-.11c0-.79.23-1.47.7-2.03.47-.56,1.04-.84,1.72-.84.21,0,.42.03.61.08.19.05.5.18.93.39.43.21.73.33.89.38s.34.06.52.06c.25,0,.47-.09.65-.26.18-.18.27-.43.27-.76l1.79.12Zm-4.6,14.2c.46,0,.88-.1,1.27-.31s.67-.48.86-.82v-2h-1.16c-1.55,0-2.38.54-2.48,1.61v.18c-.01.39.12.71.4.96.27.25.64.38,1.12.38Z"/><path class="cls-2" d="m141.56,50.55c0-1.15.22-2.18.67-3.08s1.08-1.6,1.92-2.09c.83-.49,1.8-.74,2.91-.74,1.57,0,2.85.48,3.84,1.44.99.96,1.54,2.26,1.66,3.91l.02.79c0,1.78-.5,3.21-1.49,4.29-1,1.08-2.33,1.62-4.01,1.62s-3.01-.54-4.01-1.61c-1-1.07-1.5-2.54-1.5-4.38v-.14Zm3.1.22c0,1.1.21,1.95.62,2.53.42.58,1.01.88,1.78.88s1.34-.29,1.76-.87c.42-.58.63-1.5.63-2.77,0-1.08-.21-1.92-.63-2.52s-1.02-.89-1.78-.89-1.35.3-1.76.89-.62,1.51-.62,2.75Z"/><path class="cls-2" d="m159.48,50.57c0-1.81.41-3.25,1.22-4.33.81-1.07,1.92-1.61,3.34-1.61,1.13,0,2.07.42,2.8,1.27v-5.93h3.12v16.5h-2.8l-.15-1.24c-.77.97-1.77,1.45-2.99,1.45-1.37,0-2.46-.54-3.29-1.62-.83-1.08-1.24-2.58-1.24-4.5Zm3.1.23c0,1.09.19,1.93.57,2.51.38.58.93.87,1.65.87.96,0,1.64-.41,2.03-1.22v-4.59c-.39-.81-1.06-1.22-2.01-1.22-1.5,0-2.25,1.22-2.25,3.65Z"/><path class="cls-2" d="m171.88,50.55c0-1.15.22-2.18.67-3.08s1.08-1.6,1.92-2.09c.83-.49,1.8-.74,2.91-.74,1.57,0,2.85.48,3.84,1.44.99.96,1.54,2.26,1.66,3.91l.02.79c0,1.78-.5,3.21-1.49,4.29-1,1.08-2.33,1.62-4.01,1.62s-3.01-.54-4.01-1.61c-1-1.07-1.5-2.54-1.5-4.38v-.14Zm3.1.22c0,1.1.21,1.95.62,2.53.42.58,1.01.88,1.78.88s1.34-.29,1.76-.87c.42-.58.63-1.5.63-2.77,0-1.08-.21-1.92-.63-2.52s-1.02-.89-1.78-.89-1.35.3-1.76.89-.62,1.51-.62,2.75Z"/><path class="cls-2" d="m189.83,50.57c0-1.78.42-3.22,1.27-4.31.85-1.09,1.99-1.63,3.43-1.63,1.27,0,2.27.44,2.98,1.31l.13-1.1h2.81v11.24c0,1.02-.23,1.9-.69,2.65-.46.75-1.11,1.32-1.95,1.72-.84.39-1.82.59-2.94.59-.85,0-1.68-.17-2.49-.51-.81-.34-1.42-.78-1.84-1.32l1.38-1.89c.77.87,1.71,1.3,2.81,1.3.82,0,1.46-.22,1.92-.66s.69-1.07.69-1.87v-.62c-.72.81-1.66,1.21-2.83,1.21-1.4,0-2.53-.55-3.39-1.64-.86-1.09-1.29-2.54-1.29-4.35v-.13Zm3.1.23c0,1.05.21,1.88.63,2.48.42.6,1,.9,1.74.9.95,0,1.62-.35,2.03-1.06v-4.9c-.42-.71-1.08-1.06-2.01-1.06-.75,0-1.33.31-1.76.91-.43.61-.64,1.52-.64,2.73Z"/><path class="cls-2" d="m209.57,56.46c-.14-.28-.25-.63-.31-1.04-.75.84-1.73,1.26-2.93,1.26-1.14,0-2.08-.33-2.83-.99-.75-.66-1.12-1.49-1.12-2.49,0-1.23.46-2.18,1.37-2.84.91-.66,2.23-.99,3.96-1h1.43v-.67c0-.54-.14-.97-.41-1.29-.28-.32-.71-.48-1.31-.48-.52,0-.93.13-1.23.38-.3.25-.45.59-.45,1.03h-3.1c0-.67.21-1.3.62-1.87.42-.57,1-1.02,1.76-1.35.76-.33,1.61-.49,2.56-.49,1.43,0,2.57.36,3.41,1.08.84.72,1.26,1.73,1.26,3.03v5.04c0,1.1.16,1.94.46,2.5v.18h-3.14Zm-2.57-2.16c.46,0,.88-.1,1.27-.31s.67-.48.86-.82v-2h-1.16c-1.55,0-2.38.54-2.48,1.61v.18c-.01.39.12.71.4.96.27.25.64.38,1.12.38Zm1.18-14.34h3.38l-2.98,3.33h-2.52l2.12-3.33Z"/><path class="cls-2" d="m220.92,53.25c0-.38-.19-.68-.56-.9-.38-.22-.98-.41-1.81-.59-2.76-.58-4.15-1.75-4.15-3.52,0-1.03.43-1.89,1.28-2.58.86-.69,1.98-1.04,3.36-1.04,1.48,0,2.66.35,3.54,1.04.88.69,1.33,1.6,1.33,2.71h-3.1c0-.44-.14-.81-.43-1.1s-.73-.44-1.34-.44c-.52,0-.93.12-1.21.35s-.43.54-.43.9c0,.34.16.62.49.83.33.21.88.39,1.65.55.77.15,1.42.33,1.96.52,1.64.6,2.46,1.64,2.46,3.13,0,1.06-.46,1.92-1.36,2.57s-2.08.98-3.52.98c-.97,0-1.84-.17-2.59-.52-.75-.35-1.35-.82-1.78-1.43-.43-.6-.64-1.26-.64-1.96h2.94c.03.55.23.97.61,1.27.38.29.89.44,1.53.44.59,0,1.04-.11,1.35-.34.3-.23.46-.52.46-.89Z"/><path class="cls-2" d="m238.15,56.46c-.14-.28-.25-.63-.31-1.04-.75.84-1.73,1.26-2.93,1.26-1.14,0-2.08-.33-2.83-.99-.75-.66-1.12-1.49-1.12-2.49,0-1.23.46-2.18,1.37-2.84.91-.66,2.23-.99,3.96-1h1.43v-.67c0-.54-.14-.97-.41-1.29-.28-.32-.71-.48-1.31-.48-.52,0-.93.13-1.23.38-.3.25-.45.59-.45,1.03h-3.1c0-.67.21-1.3.62-1.87.42-.57,1-1.02,1.76-1.35.76-.33,1.61-.49,2.56-.49,1.43,0,2.57.36,3.41,1.08.84.72,1.26,1.73,1.26,3.03v5.04c0,1.1.16,1.94.46,2.5v.18h-3.14Zm-2.57-2.16c.46,0,.88-.1,1.27-.31s.67-.48.86-.82v-2h-1.16c-1.55,0-2.38.54-2.48,1.61v.18c-.01.39.12.71.4.96.27.25.64.38,1.12.38Z"/><path class="cls-2" d="m246.93,41.98v2.86h1.99v2.28h-1.99v5.8c0,.43.08.74.25.92.17.19.48.28.95.28.34,0,.65-.02.91-.08v2.35c-.61.19-1.24.28-1.88.28-2.18,0-3.29-1.1-3.33-3.3v-6.26h-1.7v-2.28h1.7v-2.86h3.1Z"/><path class="cls-2" d="m257.18,47.75c-.42-.06-.79-.09-1.12-.09-1.17,0-1.94.4-2.31,1.19v7.61h-3.1v-11.62h2.93l.09,1.39c.62-1.07,1.49-1.6,2.59-1.6.34,0,.67.05.97.14l-.04,2.99Z"/><path class="cls-2" d="m265.09,56.46c-.14-.28-.25-.63-.31-1.04-.75.84-1.73,1.26-2.93,1.26-1.14,0-2.08-.33-2.83-.99-.75-.66-1.12-1.49-1.12-2.49,0-1.23.46-2.18,1.37-2.84.91-.66,2.23-.99,3.96-1h1.43v-.67c0-.54-.14-.97-.41-1.29-.28-.32-.71-.48-1.31-.48-.52,0-.93.13-1.23.38-.3.25-.45.59-.45,1.03h-3.1c0-.67.21-1.3.62-1.87.42-.57,1-1.02,1.76-1.35.76-.33,1.61-.49,2.56-.49,1.43,0,2.57.36,3.41,1.08.84.72,1.26,1.73,1.26,3.03v5.04c0,1.1.16,1.94.46,2.5v.18h-3.14Zm-2.57-2.16c.46,0,.88-.1,1.27-.31s.67-.48.86-.82v-2h-1.16c-1.55,0-2.38.54-2.48,1.61v.18c-.01.39.12.71.4.96.27.25.64.38,1.12.38Z"/><path class="cls-2" d="m274.33,52.67l2.16-7.83h3.24l-3.92,11.62h-2.96l-3.92-11.62h3.24l2.16,7.83Z"/><path class="cls-2" d="m286.31,56.68c-1.7,0-3.09-.52-4.16-1.57-1.07-1.05-1.61-2.44-1.61-4.18v-.3c0-1.17.23-2.21.68-3.13.45-.92,1.09-1.63,1.92-2.13.83-.5,1.77-.75,2.83-.75,1.59,0,2.84.5,3.75,1.5.91,1,1.37,2.42,1.37,4.26v1.27h-7.4c.1.76.4,1.37.91,1.83.51.46,1.14.69,1.92.69,1.2,0,2.13-.43,2.8-1.3l1.53,1.71c-.47.66-1.1,1.17-1.89,1.54s-1.68.55-2.64.55Zm-.35-9.55c-.62,0-1.12.21-1.5.63-.38.42-.63,1.01-.74,1.79h4.32v-.25c-.01-.69-.2-1.22-.56-1.6-.36-.38-.87-.57-1.53-.57Zm.28-7.17h3.38l-2.98,3.33h-2.52l2.12-3.33Z"/><path class="cls-2" d="m299.15,53.25c0-.38-.19-.68-.56-.9-.38-.22-.98-.41-1.81-.59-2.76-.58-4.15-1.75-4.15-3.52,0-1.03.43-1.89,1.28-2.58.86-.69,1.98-1.04,3.36-1.04,1.48,0,2.66.35,3.54,1.04.88.69,1.33,1.6,1.33,2.71h-3.1c0-.44-.14-.81-.43-1.1s-.73-.44-1.34-.44c-.52,0-.93.12-1.21.35s-.43.54-.43.9c0,.34.16.62.49.83.33.21.88.39,1.65.55.77.15,1.42.33,1.96.52,1.64.6,2.46,1.64,2.46,3.13,0,1.06-.46,1.92-1.36,2.57s-2.08.98-3.52.98c-.97,0-1.84-.17-2.59-.52-.75-.35-1.35-.82-1.78-1.43-.43-.6-.64-1.26-.64-1.96h2.94c.03.55.23.97.61,1.27.38.29.89.44,1.53.44.59,0,1.04-.11,1.35-.34.3-.23.46-.52.46-.89Z"/><path class="cls-2" d="m309.16,50.57c0-1.81.41-3.25,1.22-4.33.81-1.07,1.92-1.61,3.34-1.61,1.13,0,2.07.42,2.8,1.27v-5.93h3.12v16.5h-2.8l-.15-1.24c-.77.97-1.77,1.45-2.99,1.45-1.37,0-2.46-.54-3.29-1.62-.83-1.08-1.24-2.58-1.24-4.5Zm3.1.23c0,1.09.19,1.93.57,2.51.38.58.93.87,1.65.87.96,0,1.64-.41,2.03-1.22v-4.59c-.39-.81-1.06-1.22-2.01-1.22-1.5,0-2.25,1.22-2.25,3.65Z"/><path class="cls-2" d="m321.56,50.55c0-1.15.22-2.18.67-3.08s1.08-1.6,1.92-2.09c.83-.49,1.8-.74,2.91-.74,1.57,0,2.85.48,3.84,1.44.99.96,1.54,2.26,1.66,3.91l.02.79c0,1.78-.5,3.21-1.49,4.29-1,1.08-2.33,1.62-4.01,1.62s-3.01-.54-4.01-1.61c-1-1.07-1.5-2.54-1.5-4.38v-.14Zm3.1.22c0,1.1.21,1.95.62,2.53.42.58,1.01.88,1.78.88s1.34-.29,1.76-.87c.42-.58.63-1.5.63-2.77,0-1.08-.21-1.92-.63-2.52s-1.02-.89-1.78-.89-1.35.3-1.76.89-.62,1.51-.62,2.75Z"/><path class="cls-2" d="m342.87,44.84l.1,1.3c.82-1.01,1.94-1.51,3.34-1.51,1.5,0,2.52.59,3.08,1.77.82-1.18,1.98-1.77,3.49-1.77,1.26,0,2.2.37,2.81,1.1.62.73.92,1.84.92,3.31v7.42h-3.12v-7.41c0-.66-.13-1.14-.39-1.44-.26-.3-.71-.46-1.36-.46-.93,0-1.58.44-1.93,1.33v7.98s-3.09,0-3.09,0v-7.4c0-.67-.13-1.16-.4-1.46s-.72-.45-1.35-.45c-.88,0-1.52.37-1.91,1.1v8.22h-3.1v-11.62h2.91Z"/><path class="cls-2" d="m365.74,56.46c-.14-.28-.25-.63-.31-1.04-.75.84-1.73,1.26-2.93,1.26-1.14,0-2.08-.33-2.83-.99-.75-.66-1.12-1.49-1.12-2.49,0-1.23.46-2.18,1.37-2.84.91-.66,2.23-.99,3.96-1h1.43v-.67c0-.54-.14-.97-.41-1.29-.28-.32-.71-.48-1.31-.48-.52,0-.93.13-1.23.38-.3.25-.45.59-.45,1.03h-3.1c0-.67.21-1.3.62-1.87.42-.57,1-1.02,1.76-1.35.76-.33,1.61-.49,2.56-.49,1.43,0,2.57.36,3.41,1.08.84.72,1.26,1.73,1.26,3.03v5.04c0,1.1.16,1.94.46,2.5v.18h-3.14Zm-2.57-2.16c.46,0,.88-.1,1.27-.31s.67-.48.86-.82v-2h-1.16c-1.55,0-2.38.54-2.48,1.61v.18c-.01.39.12.71.4.96.27.25.64.38,1.12.38Z"/><path class="cls-2" d="m374.52,41.98v2.86h1.99v2.28h-1.99v5.8c0,.43.08.74.25.92.17.19.48.28.95.28.34,0,.65-.02.91-.08v2.35c-.61.19-1.24.28-1.88.28-2.18,0-3.29-1.1-3.33-3.3v-6.26h-1.7v-2.28h1.7v-2.86h3.1Z"/><path class="cls-2" d="m383.58,56.68c-1.7,0-3.09-.52-4.16-1.57-1.07-1.05-1.61-2.44-1.61-4.18v-.3c0-1.17.23-2.21.68-3.13.45-.92,1.09-1.63,1.92-2.13.83-.5,1.77-.75,2.83-.75,1.59,0,2.84.5,3.75,1.5.91,1,1.37,2.42,1.37,4.26v1.27h-7.4c.1.76.4,1.37.91,1.83.51.46,1.14.69,1.92.69,1.2,0,2.13-.43,2.8-1.3l1.53,1.71c-.47.66-1.1,1.17-1.89,1.54s-1.68.55-2.64.55Zm-.35-9.55c-.62,0-1.12.21-1.5.63-.38.42-.63,1.01-.74,1.79h4.32v-.25c-.01-.69-.2-1.22-.56-1.6-.36-.38-.87-.57-1.53-.57Z"/><path class="cls-2" d="m396.66,47.75c-.42-.06-.79-.09-1.12-.09-1.17,0-1.94.4-2.31,1.19v7.61h-3.1v-11.62h2.93l.09,1.39c.62-1.07,1.49-1.6,2.59-1.6.34,0,.67.05.97.14l-.04,2.99Z"/><path class="cls-2" d="m398.13,41.83c0-.47.16-.85.47-1.15.31-.3.74-.45,1.27-.45s.95.15,1.27.45.47.68.47,1.15-.16.86-.48,1.16c-.32.3-.74.45-1.26.45s-.94-.15-1.26-.45c-.32-.3-.48-.69-.48-1.16Zm3.3,14.63h-3.12v-11.62h3.12v11.62Z"/><path class="cls-2" d="m410.72,56.46c-.14-.28-.25-.63-.31-1.04-.75.84-1.73,1.26-2.93,1.26-1.14,0-2.08-.33-2.83-.99-.75-.66-1.12-1.49-1.12-2.49,0-1.23.46-2.18,1.37-2.84.91-.66,2.23-.99,3.96-1h1.43v-.67c0-.54-.14-.97-.41-1.29-.28-.32-.71-.48-1.31-.48-.52,0-.93.13-1.23.38-.3.25-.45.59-.45,1.03h-3.1c0-.67.21-1.3.62-1.87.42-.57,1-1.02,1.76-1.35.76-.33,1.61-.49,2.56-.49,1.43,0,2.57.36,3.41,1.08.84.72,1.26,1.73,1.26,3.03v5.04c0,1.1.16,1.94.46,2.5v.18h-3.14Zm-2.57-2.16c.46,0,.88-.1,1.27-.31s.67-.48.86-.82v-2h-1.16c-1.55,0-2.38.54-2.48,1.61v.18c-.01.39.12.71.4.96.27.25.64.38,1.12.38Z"/><path class="cls-2" d="m419.05,56.46h-3.12v-16.5h3.12v16.5Z"/><path class="cls-2" d="m45.87,82.19l-1.68,1.8v4.47h-3.22v-15.64h3.22v7.09l1.42-1.94,3.99-5.15h3.96l-5.55,6.95,5.71,8.69h-3.83l-4.02-6.27Z"/><path class="cls-2" d="m70.08,80.45h-9.6v-2.54h9.6v2.54Zm0,4.65h-9.6v-2.54h9.6v2.54Z"/><path class="cls-2" d="m86.59,84.36c0-.61-.21-1.08-.64-1.4-.43-.33-1.2-.67-2.32-1.03-1.12-.36-2-.72-2.65-1.07-1.78-.96-2.66-2.25-2.66-3.88,0-.84.24-1.6.71-2.26.48-.66,1.16-1.18,2.05-1.55.89-.37,1.89-.56,3-.56s2.11.2,2.99.61c.87.4,1.55.98,2.04,1.71.48.74.72,1.58.72,2.51h-3.22c0-.72-.23-1.27-.68-1.67s-1.08-.6-1.9-.6-1.4.17-1.84.5-.66.77-.66,1.32c0,.51.26.93.77,1.28.51.34,1.27.67,2.26.97,1.83.55,3.17,1.24,4.01,2.05s1.26,1.83,1.26,3.05c0,1.35-.51,2.42-1.54,3.19-1.02.77-2.4,1.15-4.14,1.15-1.2,0-2.3-.22-3.29-.66s-1.74-1.04-2.26-1.81c-.52-.77-.78-1.65-.78-2.66h3.23c0,1.73,1.03,2.59,3.09,2.59.77,0,1.36-.16,1.79-.47s.64-.75.64-1.31Z"/><path class="cls-2" d="m91.32,82.55c0-1.15.22-2.18.67-3.08s1.08-1.6,1.92-2.09c.83-.49,1.8-.74,2.91-.74,1.57,0,2.85.48,3.84,1.44.99.96,1.54,2.26,1.66,3.91l.02.79c0,1.78-.5,3.21-1.49,4.29-1,1.08-2.33,1.62-4.01,1.62s-3.01-.54-4.01-1.61c-1-1.07-1.5-2.54-1.5-4.38v-.14Zm3.1.22c0,1.1.21,1.95.62,2.53.42.58,1.01.88,1.78.88s1.34-.29,1.76-.87c.42-.58.63-1.5.63-2.77,0-1.08-.21-1.92-.63-2.52s-1.02-.89-1.78-.89-1.35.3-1.76.89-.62,1.51-.62,2.75Z"/><path class="cls-2" d="m107.52,88.46h-3.12v-16.5h3.12v16.5Z"/><path class="cls-2" d="m117.04,87.28c-.77.93-1.83,1.4-3.18,1.4-1.25,0-2.2-.36-2.85-1.07-.65-.72-.99-1.77-1-3.15v-7.62h3.1v7.52c0,1.21.55,1.82,1.65,1.82s1.78-.37,2.17-1.1v-8.24h3.12v11.62h-2.92l-.09-1.18Z"/><path class="cls-2" d="m132.86,82.76c0,1.86-.4,3.31-1.19,4.36s-1.91,1.56-3.33,1.56c-1.26,0-2.27-.48-3.02-1.45l-.14,1.24h-2.79v-16.5h3.1v5.92c.72-.84,1.66-1.26,2.83-1.26,1.42,0,2.53.52,3.33,1.56.81,1.04,1.21,2.51,1.21,4.4v.17Zm-3.1-.23c0-1.17-.19-2.03-.56-2.57-.37-.54-.93-.81-1.67-.81-.99,0-1.67.4-2.04,1.21v4.59c.38.82,1.07,1.22,2.06,1.22s1.66-.49,1.98-1.48c.15-.47.23-1.19.23-2.16Z"/><path class="cls-2" d="m134.75,73.83c0-.47.16-.85.47-1.15.31-.3.74-.45,1.27-.45s.95.15,1.27.45.47.68.47,1.15-.16.86-.48,1.16c-.32.3-.74.45-1.26.45s-.94-.15-1.26-.45c-.32-.3-.48-.69-.48-1.16Zm3.3,14.63h-3.12v-11.62h3.12v11.62Z"/><path class="cls-2" d="m143.88,88.46h-3.12v-16.5h3.12v16.5Z"/><path class="cls-2" d="m146.42,73.83c0-.47.16-.85.47-1.15.31-.3.74-.45,1.27-.45s.95.15,1.27.45.47.68.47,1.15-.16.86-.48,1.16c-.32.3-.74.45-1.26.45s-.94-.15-1.26-.45c-.32-.3-.48-.69-.48-1.16Zm3.3,14.63h-3.12v-11.62h3.12v11.62Z"/><path class="cls-2" d="m151.79,82.57c0-1.81.41-3.25,1.22-4.33.81-1.07,1.92-1.61,3.34-1.61,1.13,0,2.07.42,2.8,1.27v-5.93h3.12v16.5h-2.8l-.15-1.24c-.77.97-1.77,1.45-2.99,1.45-1.37,0-2.46-.54-3.29-1.62-.83-1.08-1.24-2.58-1.24-4.5Zm3.1.23c0,1.09.19,1.93.57,2.51.38.58.93.87,1.65.87.96,0,1.64-.41,2.03-1.22v-4.59c-.39-.81-1.06-1.22-2.01-1.22-1.5,0-2.25,1.22-2.25,3.65Z"/><path class="cls-2" d="m171.4,88.46c-.14-.28-.25-.63-.31-1.04-.75.84-1.73,1.26-2.93,1.26-1.14,0-2.08-.33-2.83-.99-.75-.66-1.12-1.49-1.12-2.49,0-1.23.46-2.18,1.37-2.84.91-.66,2.23-.99,3.96-1h1.43v-.67c0-.54-.14-.97-.41-1.29-.28-.32-.71-.48-1.31-.48-.52,0-.93.13-1.23.38-.3.25-.45.59-.45,1.03h-3.1c0-.67.21-1.3.62-1.87.42-.57,1-1.02,1.76-1.35.76-.33,1.61-.49,2.56-.49,1.43,0,2.57.36,3.41,1.08.84.72,1.26,1.73,1.26,3.03v5.04c0,1.1.16,1.94.46,2.5v.18h-3.14Zm-2.57-2.16c.46,0,.88-.1,1.27-.31s.67-.48.86-.82v-2h-1.16c-1.55,0-2.38.54-2.48,1.61v.18c-.01.39.12.71.4.96.27.25.64.38,1.12.38Z"/><path class="cls-2" d="m175.98,82.57c0-1.81.41-3.25,1.22-4.33.81-1.07,1.92-1.61,3.34-1.61,1.13,0,2.07.42,2.8,1.27v-5.93h3.12v16.5h-2.8l-.15-1.24c-.77.97-1.77,1.45-2.99,1.45-1.37,0-2.46-.54-3.29-1.62-.83-1.08-1.24-2.58-1.24-4.5Zm3.1.23c0,1.09.19,1.93.57,2.51.38.58.93.87,1.65.87.96,0,1.64-.41,2.03-1.22v-4.59c-.39-.81-1.06-1.22-2.01-1.22-1.5,0-2.25,1.22-2.25,3.65Z"/><path class="cls-2" d="m194.21,88.68c-1.7,0-3.09-.52-4.16-1.57-1.07-1.05-1.61-2.44-1.61-4.18v-.3c0-1.17.23-2.21.68-3.13.45-.92,1.09-1.63,1.92-2.13.83-.5,1.77-.75,2.83-.75,1.59,0,2.84.5,3.75,1.5.91,1,1.37,2.42,1.37,4.26v1.27h-7.4c.1.76.4,1.37.91,1.83.51.46,1.14.69,1.92.69,1.2,0,2.13-.43,2.8-1.3l1.53,1.71c-.47.66-1.1,1.17-1.89,1.54s-1.68.55-2.64.55Zm-.35-9.55c-.62,0-1.12.21-1.5.63-.38.42-.63,1.01-.74,1.79h4.32v-.25c-.01-.69-.2-1.22-.56-1.6-.36-.38-.87-.57-1.53-.57Z"/><path class="cls-2" d="m205.75,82.57c0-1.81.41-3.25,1.22-4.33.81-1.07,1.92-1.61,3.34-1.61,1.13,0,2.07.42,2.8,1.27v-5.93h3.12v16.5h-2.8l-.15-1.24c-.77.97-1.77,1.45-2.99,1.45-1.37,0-2.46-.54-3.29-1.62-.83-1.08-1.24-2.58-1.24-4.5Zm3.1.23c0,1.09.19,1.93.57,2.51.38.58.93.87,1.65.87.96,0,1.64-.41,2.03-1.22v-4.59c-.39-.81-1.06-1.22-2.01-1.22-1.5,0-2.25,1.22-2.25,3.65Z"/><path class="cls-2" d="m223.97,88.68c-1.7,0-3.09-.52-4.16-1.57-1.07-1.05-1.61-2.44-1.61-4.18v-.3c0-1.17.23-2.21.68-3.13.45-.92,1.09-1.63,1.92-2.13.83-.5,1.77-.75,2.83-.75,1.59,0,2.84.5,3.75,1.5.91,1,1.37,2.42,1.37,4.26v1.27h-7.4c.1.76.4,1.37.91,1.83.51.46,1.14.69,1.92.69,1.2,0,2.13-.43,2.8-1.3l1.53,1.71c-.47.66-1.1,1.17-1.89,1.54s-1.68.55-2.64.55Zm-.35-9.55c-.62,0-1.12.21-1.5.63-.38.42-.63,1.01-.74,1.79h4.32v-.25c-.01-.69-.2-1.22-.56-1.6-.36-.38-.87-.57-1.53-.57Z"/><path class="cls-2" d="m235.54,82.57c0-1.78.42-3.22,1.27-4.31.85-1.09,1.99-1.63,3.43-1.63,1.27,0,2.27.44,2.98,1.31l.13-1.1h2.81v11.24c0,1.02-.23,1.9-.69,2.65-.46.75-1.11,1.32-1.95,1.72-.84.39-1.82.59-2.94.59-.85,0-1.68-.17-2.49-.51-.81-.34-1.42-.78-1.84-1.32l1.38-1.89c.77.87,1.71,1.3,2.81,1.3.82,0,1.46-.22,1.92-.66s.69-1.07.69-1.87v-.62c-.72.81-1.66,1.21-2.83,1.21-1.4,0-2.53-.55-3.39-1.64-.86-1.09-1.29-2.54-1.29-4.35v-.13Zm3.1.23c0,1.05.21,1.88.63,2.48.42.6,1,.9,1.74.9.95,0,1.62-.35,2.03-1.06v-4.9c-.42-.71-1.08-1.06-2.01-1.06-.75,0-1.33.31-1.76.91-.43.61-.64,1.52-.64,2.73Z"/><path class="cls-2" d="m255.29,88.46c-.14-.28-.25-.63-.31-1.04-.75.84-1.73,1.26-2.93,1.26-1.14,0-2.08-.33-2.83-.99-.75-.66-1.12-1.49-1.12-2.49,0-1.23.46-2.18,1.37-2.84.91-.66,2.23-.99,3.96-1h1.43v-.67c0-.54-.14-.97-.41-1.29-.28-.32-.71-.48-1.31-.48-.52,0-.93.13-1.23.38-.3.25-.45.59-.45,1.03h-3.1c0-.67.21-1.3.62-1.87.42-.57,1-1.02,1.76-1.35.76-.33,1.61-.49,2.56-.49,1.43,0,2.57.36,3.41,1.08.84.72,1.26,1.73,1.26,3.03v5.04c0,1.1.16,1.94.46,2.5v.18h-3.14Zm-2.57-2.16c.46,0,.88-.1,1.27-.31s.67-.48.86-.82v-2h-1.16c-1.55,0-2.38.54-2.48,1.61v.18c-.01.39.12.71.4.96.27.25.64.38,1.12.38Zm1.18-14.34h3.38l-2.98,3.33h-2.52l2.12-3.33Z"/><path class="cls-2" d="m266.64,85.25c0-.38-.19-.68-.56-.9-.38-.22-.98-.41-1.81-.59-2.76-.58-4.15-1.75-4.15-3.52,0-1.03.43-1.89,1.28-2.58.86-.69,1.98-1.04,3.36-1.04,1.48,0,2.66.35,3.54,1.04.88.69,1.33,1.6,1.33,2.71h-3.1c0-.44-.14-.81-.43-1.1s-.73-.44-1.34-.44c-.52,0-.93.12-1.21.35s-.43.54-.43.9c0,.34.16.62.49.83.33.21.88.39,1.65.55.77.15,1.42.33,1.96.52,1.64.6,2.46,1.64,2.46,3.13,0,1.06-.46,1.92-1.36,2.57s-2.08.98-3.52.98c-.97,0-1.84-.17-2.59-.52-.75-.35-1.35-.82-1.78-1.43-.43-.6-.64-1.26-.64-1.96h2.94c.03.55.23.97.61,1.27.38.29.89.44,1.53.44.59,0,1.04-.11,1.35-.34.3-.23.46-.52.46-.89Z"/><path class="cls-2" d="m276.65,82.57c0-1.81.41-3.25,1.22-4.33.81-1.07,1.92-1.61,3.34-1.61,1.13,0,2.07.42,2.8,1.27v-5.93h3.12v16.5h-2.8l-.15-1.24c-.77.97-1.77,1.45-2.99,1.45-1.37,0-2.46-.54-3.29-1.62-.83-1.08-1.24-2.58-1.24-4.5Zm3.1.23c0,1.09.19,1.93.57,2.51.38.58.93.87,1.65.87.96,0,1.64-.41,2.03-1.22v-4.59c-.39-.81-1.06-1.22-2.01-1.22-1.5,0-2.25,1.22-2.25,3.65Z"/><path class="cls-2" d="m289.05,82.55c0-1.15.22-2.18.67-3.08s1.08-1.6,1.92-2.09c.83-.49,1.8-.74,2.91-.74,1.57,0,2.85.48,3.84,1.44.99.96,1.54,2.26,1.66,3.91l.02.79c0,1.78-.5,3.21-1.49,4.29-1,1.08-2.33,1.62-4.01,1.62s-3.01-.54-4.01-1.61c-1-1.07-1.5-2.54-1.5-4.38v-.14Zm3.1.22c0,1.1.21,1.95.62,2.53.42.58,1.01.88,1.78.88s1.34-.29,1.76-.87c.42-.58.63-1.5.63-2.77,0-1.08-.21-1.92-.63-2.52s-1.02-.89-1.78-.89-1.35.3-1.76.89-.62,1.51-.62,2.75Z"/><path class="cls-2" d="m310.36,76.84l.1,1.3c.82-1.01,1.94-1.51,3.34-1.51,1.5,0,2.52.59,3.08,1.77.82-1.18,1.98-1.77,3.49-1.77,1.26,0,2.2.37,2.81,1.1.62.73.92,1.84.92,3.31v7.42h-3.12v-7.41c0-.66-.13-1.14-.39-1.44-.26-.3-.71-.46-1.36-.46-.93,0-1.58.44-1.93,1.33v7.98s-3.09,0-3.09,0v-7.4c0-.67-.13-1.16-.4-1.46s-.72-.45-1.35-.45c-.88,0-1.52.37-1.91,1.1v8.22h-3.1v-11.62h2.91Z"/><path class="cls-2" d="m333.23,88.46c-.14-.28-.25-.63-.31-1.04-.75.84-1.73,1.26-2.93,1.26-1.14,0-2.08-.33-2.83-.99-.75-.66-1.12-1.49-1.12-2.49,0-1.23.46-2.18,1.37-2.84.91-.66,2.23-.99,3.96-1h1.43v-.67c0-.54-.14-.97-.41-1.29-.28-.32-.71-.48-1.31-.48-.52,0-.93.13-1.23.38-.3.25-.45.59-.45,1.03h-3.1c0-.67.21-1.3.62-1.87.42-.57,1-1.02,1.76-1.35.76-.33,1.61-.49,2.56-.49,1.43,0,2.57.36,3.41,1.08.84.72,1.26,1.73,1.26,3.03v5.04c0,1.1.16,1.94.46,2.5v.18h-3.14Zm-2.57-2.16c.46,0,.88-.1,1.27-.31s.67-.48.86-.82v-2h-1.16c-1.55,0-2.38.54-2.48,1.61v.18c-.01.39.12.71.4.96.27.25.64.38,1.12.38Z"/><path class="cls-2" d="m342.01,73.98v2.86h1.99v2.28h-1.99v5.8c0,.43.08.74.25.92.17.19.48.28.95.28.34,0,.65-.02.91-.08v2.35c-.61.19-1.24.28-1.88.28-2.18,0-3.29-1.1-3.33-3.3v-6.26h-1.7v-2.28h1.7v-2.86h3.1Z"/><path class="cls-2" d="m351.08,88.68c-1.7,0-3.09-.52-4.16-1.57-1.07-1.05-1.61-2.44-1.61-4.18v-.3c0-1.17.23-2.21.68-3.13.45-.92,1.09-1.63,1.92-2.13.83-.5,1.77-.75,2.83-.75,1.59,0,2.84.5,3.75,1.5.91,1,1.37,2.42,1.37,4.26v1.27h-7.4c.1.76.4,1.37.91,1.83.51.46,1.14.69,1.92.69,1.2,0,2.13-.43,2.8-1.3l1.53,1.71c-.47.66-1.1,1.17-1.89,1.54s-1.68.55-2.64.55Zm-.35-9.55c-.62,0-1.12.21-1.5.63-.38.42-.63,1.01-.74,1.79h4.32v-.25c-.01-.69-.2-1.22-.56-1.6-.36-.38-.87-.57-1.53-.57Z"/><path class="cls-2" d="m364.15,79.75c-.42-.06-.79-.09-1.12-.09-1.17,0-1.94.4-2.31,1.19v7.61h-3.1v-11.62h2.93l.09,1.39c.62-1.07,1.49-1.6,2.59-1.6.34,0,.67.05.97.14l-.04,2.99Z"/><path class="cls-2" d="m365.62,73.83c0-.47.16-.85.47-1.15.31-.3.74-.45,1.27-.45s.95.15,1.27.45.47.68.47,1.15-.16.86-.48,1.16c-.32.3-.74.45-1.26.45s-.94-.15-1.26-.45c-.32-.3-.48-.69-.48-1.16Zm3.3,14.63h-3.12v-11.62h3.12v11.62Z"/><path class="cls-2" d="m378.21,88.46c-.14-.28-.25-.63-.31-1.04-.75.84-1.73,1.26-2.93,1.26-1.14,0-2.08-.33-2.83-.99-.75-.66-1.12-1.49-1.12-2.49,0-1.23.46-2.18,1.37-2.84.91-.66,2.23-.99,3.96-1h1.43v-.67c0-.54-.14-.97-.41-1.29-.28-.32-.71-.48-1.31-.48-.52,0-.93.13-1.23.38-.3.25-.45.59-.45,1.03h-3.1c0-.67.21-1.3.62-1.87.42-.57,1-1.02,1.76-1.35.76-.33,1.61-.49,2.56-.49,1.43,0,2.57.36,3.41,1.08.84.72,1.26,1.73,1.26,3.03v5.04c0,1.1.16,1.94.46,2.5v.18h-3.14Zm-2.57-2.16c.46,0,.88-.1,1.27-.31s.67-.48.86-.82v-2h-1.16c-1.55,0-2.38.54-2.48,1.61v.18c-.01.39.12.71.4.96.27.25.64.38,1.12.38Z"/><path class="cls-2" d="m386.55,88.46h-3.12v-16.5h3.12v16.5Z"/><path class="cls-2" d="m44.19,117.88h6.84v2.59h-10.07v-15.64h3.22v13.05Z"/><path class="cls-2" d="m68.03,112.45h-9.6v-2.54h9.6v2.54Zm0,4.65h-9.6v-2.54h9.6v2.54Z"/><path class="cls-2" d="m85.84,113.69h-6.19v4.19h7.26v2.59h-10.48v-15.64h10.46v2.61h-7.24v3.73h6.19v2.52Z"/><path class="cls-2" d="m94.9,117.25c0-.38-.19-.68-.56-.9-.38-.22-.98-.41-1.81-.59-2.76-.58-4.15-1.75-4.15-3.52,0-1.03.43-1.89,1.28-2.58.86-.69,1.98-1.04,3.36-1.04,1.48,0,2.66.35,3.54,1.04.88.69,1.33,1.6,1.33,2.71h-3.1c0-.44-.14-.81-.43-1.1s-.73-.44-1.34-.44c-.52,0-.93.12-1.21.35s-.43.54-.43.9c0,.34.16.62.49.83.33.21.88.39,1.65.55.77.15,1.42.33,1.96.52,1.64.6,2.46,1.64,2.46,3.13,0,1.06-.46,1.92-1.36,2.57s-2.08.98-3.52.98c-.97,0-1.84-.17-2.59-.52-.75-.35-1.35-.82-1.78-1.43-.43-.6-.64-1.26-.64-1.96h2.94c.03.55.23.97.61,1.27.38.29.89.44,1.53.44.59,0,1.04-.11,1.35-.34.3-.23.46-.52.46-.89Z"/><path class="cls-2" d="m110.38,114.76c0,1.79-.41,3.22-1.22,4.3-.81,1.08-1.91,1.62-3.29,1.62-1.17,0-2.12-.41-2.85-1.22v5.48h-3.1v-16.09h2.88l.11,1.14c.75-.9,1.73-1.35,2.94-1.35,1.43,0,2.55.53,3.34,1.59.79,1.06,1.19,2.52,1.19,4.38v.16Zm-3.1-.23c0-1.08-.19-1.92-.57-2.5-.38-.59-.94-.88-1.67-.88-.97,0-1.64.37-2.01,1.12v4.76c.38.77,1.06,1.15,2.03,1.15,1.48,0,2.22-1.21,2.22-3.64Z"/><path class="cls-2" d="m117.65,120.68c-1.7,0-3.09-.52-4.16-1.57-1.07-1.05-1.61-2.44-1.61-4.18v-.3c0-1.17.23-2.21.68-3.13.45-.92,1.09-1.63,1.92-2.13.83-.5,1.77-.75,2.83-.75,1.59,0,2.84.5,3.75,1.5.91,1,1.37,2.42,1.37,4.26v1.27h-7.4c.1.76.4,1.37.91,1.83.51.46,1.14.69,1.92.69,1.2,0,2.13-.43,2.8-1.3l1.53,1.71c-.47.66-1.1,1.17-1.89,1.54s-1.68.55-2.64.55Zm-.35-9.55c-.62,0-1.12.21-1.5.63-.38.42-.63,1.01-.74,1.79h4.32v-.25c-.01-.69-.2-1.22-.56-1.6-.36-.38-.87-.57-1.53-.57Z"/><path class="cls-2" d="m130.49,117.25c0-.38-.19-.68-.56-.9-.38-.22-.98-.41-1.81-.59-2.76-.58-4.15-1.75-4.15-3.52,0-1.03.43-1.89,1.28-2.58.86-.69,1.98-1.04,3.36-1.04,1.48,0,2.66.35,3.54,1.04.88.69,1.33,1.6,1.33,2.71h-3.1c0-.44-.14-.81-.43-1.1s-.73-.44-1.34-.44c-.52,0-.93.12-1.21.35s-.43.54-.43.9c0,.34.16.62.49.83.33.21.88.39,1.65.55.77.15,1.42.33,1.96.52,1.64.6,2.46,1.64,2.46,3.13,0,1.06-.46,1.92-1.36,2.57s-2.08.98-3.52.98c-.97,0-1.84-.17-2.59-.52-.75-.35-1.35-.82-1.78-1.43-.43-.6-.64-1.26-.64-1.96h2.94c.03.55.23.97.61,1.27.38.29.89.44,1.53.44.59,0,1.04-.11,1.35-.34.3-.23.46-.52.46-.89Z"/><path class="cls-2" d="m141.8,117.25c0-.38-.19-.68-.56-.9-.38-.22-.98-.41-1.81-.59-2.76-.58-4.15-1.75-4.15-3.52,0-1.03.43-1.89,1.28-2.58.86-.69,1.98-1.04,3.36-1.04,1.48,0,2.66.35,3.54,1.04.88.69,1.33,1.6,1.33,2.71h-3.1c0-.44-.14-.81-.43-1.1s-.73-.44-1.34-.44c-.52,0-.93.12-1.21.35s-.43.54-.43.9c0,.34.16.62.49.83.33.21.88.39,1.65.55.77.15,1.42.33,1.96.52,1.64.6,2.46,1.64,2.46,3.13,0,1.06-.46,1.92-1.36,2.57s-2.08.98-3.52.98c-.97,0-1.84-.17-2.59-.52-.75-.35-1.35-.82-1.78-1.43-.43-.6-.64-1.26-.64-1.96h2.94c.03.55.23.97.61,1.27.38.29.89.44,1.53.44.59,0,1.04-.11,1.35-.34.3-.23.46-.52.46-.89Z"/><path class="cls-2" d="m153.77,119.28c-.77.93-1.83,1.4-3.18,1.4-1.25,0-2.2-.36-2.85-1.07-.65-.72-.99-1.77-1-3.15v-7.62h3.1v7.52c0,1.21.55,1.82,1.65,1.82s1.78-.37,2.17-1.1v-8.24h3.12v11.62h-2.92l-.09-1.18Z"/><path class="cls-2" d="m165.66,111.75c-.42-.06-.79-.09-1.12-.09-1.17,0-1.94.4-2.31,1.19v7.61h-3.1v-11.62h2.93l.09,1.39c.62-1.07,1.49-1.6,2.59-1.6.34,0,.67.05.97.14l-.04,2.99Z"/><path class="cls-2" d="m173.56,120.46c-.14-.28-.25-.63-.31-1.04-.75.84-1.73,1.26-2.93,1.26-1.14,0-2.08-.33-2.83-.99-.75-.66-1.12-1.49-1.12-2.49,0-1.23.46-2.18,1.37-2.84.91-.66,2.23-.99,3.96-1h1.43v-.67c0-.54-.14-.97-.41-1.29-.28-.32-.71-.48-1.31-.48-.52,0-.93.13-1.23.38-.3.25-.45.59-.45,1.03h-3.1c0-.67.21-1.3.62-1.87.42-.57,1-1.02,1.76-1.35.76-.33,1.61-.49,2.56-.49,1.43,0,2.57.36,3.41,1.08.84.72,1.26,1.73,1.26,3.03v5.04c0,1.1.16,1.94.46,2.5v.18h-3.14Zm-2.57-2.16c.46,0,.88-.1,1.27-.31s.67-.48.86-.82v-2h-1.16c-1.55,0-2.38.54-2.48,1.61v.18c-.01.39.12.71.4.96.27.25.64.38,1.12.38Z"/><path class="cls-2" d="m183.62,114.57c0-1.81.41-3.25,1.22-4.33.81-1.07,1.92-1.61,3.34-1.61,1.13,0,2.07.42,2.8,1.27v-5.93h3.12v16.5h-2.8l-.15-1.24c-.77.97-1.77,1.45-2.99,1.45-1.37,0-2.46-.54-3.29-1.62-.83-1.08-1.24-2.58-1.24-4.5Zm3.1.23c0,1.09.19,1.93.57,2.51.38.58.93.87,1.65.87.96,0,1.64-.41,2.03-1.22v-4.59c-.39-.81-1.06-1.22-2.01-1.22-1.5,0-2.25,1.22-2.25,3.65Z"/><path class="cls-2" d="m196.01,114.55c0-1.15.22-2.18.67-3.08s1.08-1.6,1.92-2.09c.83-.49,1.8-.74,2.91-.74,1.57,0,2.85.48,3.84,1.44.99.96,1.54,2.26,1.66,3.91l.02.79c0,1.78-.5,3.21-1.49,4.29-1,1.08-2.33,1.62-4.01,1.62s-3.01-.54-4.01-1.61c-1-1.07-1.5-2.54-1.5-4.38v-.14Zm3.1.22c0,1.1.21,1.95.62,2.53.42.58,1.01.88,1.78.88s1.34-.29,1.76-.87c.42-.58.63-1.5.63-2.77,0-1.08-.21-1.92-.63-2.52s-1.02-.89-1.78-.89-1.35.3-1.76.89-.62,1.51-.62,2.75Z"/><path class="cls-2" d="m217.33,108.84l.1,1.3c.82-1.01,1.94-1.51,3.34-1.51,1.5,0,2.52.59,3.08,1.77.82-1.18,1.98-1.77,3.49-1.77,1.26,0,2.2.37,2.81,1.1.62.73.92,1.84.92,3.31v7.42h-3.12v-7.41c0-.66-.13-1.14-.39-1.44-.26-.3-.71-.46-1.36-.46-.93,0-1.58.44-1.93,1.33v7.98s-3.09,0-3.09,0v-7.4c0-.67-.13-1.16-.4-1.46s-.72-.45-1.35-.45c-.88,0-1.52.37-1.91,1.1v8.22h-3.1v-11.62h2.91Z"/><path class="cls-2" d="m240.2,120.46c-.14-.28-.25-.63-.31-1.04-.75.84-1.73,1.26-2.93,1.26-1.14,0-2.08-.33-2.83-.99-.75-.66-1.12-1.49-1.12-2.49,0-1.23.46-2.18,1.37-2.84.91-.66,2.23-.99,3.96-1h1.43v-.67c0-.54-.14-.97-.41-1.29-.28-.32-.71-.48-1.31-.48-.52,0-.93.13-1.23.38-.3.25-.45.59-.45,1.03h-3.1c0-.67.21-1.3.62-1.87.42-.57,1-1.02,1.76-1.35.76-.33,1.61-.49,2.56-.49,1.43,0,2.57.36,3.41,1.08.84.72,1.26,1.73,1.26,3.03v5.04c0,1.1.16,1.94.46,2.5v.18h-3.14Zm-2.57-2.16c.46,0,.88-.1,1.27-.31s.67-.48.86-.82v-2h-1.16c-1.55,0-2.38.54-2.48,1.61v.18c-.01.39.12.71.4.96.27.25.64.38,1.12.38Z"/><path class="cls-2" d="m248.97,105.98v2.86h1.99v2.28h-1.99v5.8c0,.43.08.74.25.92.17.19.48.28.95.28.34,0,.65-.02.91-.08v2.35c-.61.19-1.24.28-1.88.28-2.18,0-3.29-1.1-3.33-3.3v-6.26h-1.7v-2.28h1.7v-2.86h3.1Z"/><path class="cls-2" d="m258.04,120.68c-1.7,0-3.09-.52-4.16-1.57-1.07-1.05-1.61-2.44-1.61-4.18v-.3c0-1.17.23-2.21.68-3.13.45-.92,1.09-1.63,1.92-2.13.83-.5,1.77-.75,2.83-.75,1.59,0,2.84.5,3.75,1.5.91,1,1.37,2.42,1.37,4.26v1.27h-7.4c.1.76.4,1.37.91,1.83.51.46,1.14.69,1.92.69,1.2,0,2.13-.43,2.8-1.3l1.53,1.71c-.47.66-1.1,1.17-1.89,1.54s-1.68.55-2.64.55Zm-.35-9.55c-.62,0-1.12.21-1.5.63-.38.42-.63,1.01-.74,1.79h4.32v-.25c-.01-.69-.2-1.22-.56-1.6-.36-.38-.87-.57-1.53-.57Z"/><path class="cls-2" d="m271.11,111.75c-.42-.06-.79-.09-1.12-.09-1.17,0-1.94.4-2.31,1.19v7.61h-3.1v-11.62h2.93l.09,1.39c.62-1.07,1.49-1.6,2.59-1.6.34,0,.67.05.97.14l-.04,2.99Z"/><path class="cls-2" d="m272.58,105.83c0-.47.16-.85.47-1.15.31-.3.74-.45,1.27-.45s.95.15,1.27.45.47.68.47,1.15-.16.86-.48,1.16c-.32.3-.74.45-1.26.45s-.94-.15-1.26-.45c-.32-.3-.48-.69-.48-1.16Zm3.3,14.63h-3.12v-11.62h3.12v11.62Z"/><path class="cls-2" d="m285.17,120.46c-.14-.28-.25-.63-.31-1.04-.75.84-1.73,1.26-2.93,1.26-1.14,0-2.08-.33-2.83-.99-.75-.66-1.12-1.49-1.12-2.49,0-1.23.46-2.18,1.37-2.84.91-.66,2.23-.99,3.96-1h1.43v-.67c0-.54-.14-.97-.41-1.29-.28-.32-.71-.48-1.31-.48-.52,0-.93.13-1.23.38-.3.25-.45.59-.45,1.03h-3.1c0-.67.21-1.3.62-1.87.42-.57,1-1.02,1.76-1.35.76-.33,1.61-.49,2.56-.49,1.43,0,2.57.36,3.41,1.08.84.72,1.26,1.73,1.26,3.03v5.04c0,1.1.16,1.94.46,2.5v.18h-3.14Zm-2.57-2.16c.46,0,.88-.1,1.27-.31s.67-.48.86-.82v-2h-1.16c-1.55,0-2.38.54-2.48,1.61v.18c-.01.39.12.71.4.96.27.25.64.38,1.12.38Z"/><path class="cls-2" d="m293.51,120.46h-3.12v-16.5h3.12v16.5Z"/></g></svg>