<?xml version="1.0" encoding="UTF-8"?><svg id="Camada_2" xmlns="http://www.w3.org/2000/svg" viewBox="0 0 450 363.96"><defs><style>.cls-1{fill:#ffdfc9;}.cls-1,.cls-2,.cls-3,.cls-4,.cls-5,.cls-6,.cls-7,.cls-8,.cls-9,.cls-10{stroke-width:0px;}.cls-2{fill:#006652;}.cls-3{fill:#b26538;}.cls-4{fill:#f39257;}.cls-5{fill:#004b3a;opacity:.58;}.cls-6{fill:#4b5767;}.cls-7{fill:#303948;}.cls-8{fill:#fff;}.cls-9{fill:#ece4df;}.cls-10{fill:#d07a47;}</style></defs><g id="Camada_1-2"><polygon class="cls-2" points="14.26 10.66 28.24 321.26 431.4 293.83 439.64 13.67 14.26 10.66"/><polygon class="cls-5" points="175.02 311.86 118.61 186.23 23.16 215.85 28.24 321.26 175.02 311.86"/><path class="cls-4" d="m0,0l13.77,338.78,431.62-24.61L450,.32,0,0Zm431.4,293.83l-403.16,27.43L14.26,10.66l425.38,3.01-8.24,280.16Z"/><polygon class="cls-3" points="448.53 .32 437.58 13.65 439.64 13.67 439.59 15.49 449.96 2.82 450 .32 448.53 .32"/><polygon class="cls-3" points="431.48 291.15 431.4 293.83 429.66 293.95 443.73 314.27 445.39 314.17 445.43 311.24 431.48 291.15"/><polygon class="cls-3" points="28.24 321.26 28.11 318.38 13.65 335.92 13.77 338.78 15.52 338.68 29.94 321.14 28.24 321.26"/><polygon class="cls-3" points="14.26 10.66 16.72 10.68 2.89 0 0 0 .05 1.26 14.34 12.32 14.26 10.66"/><path class="cls-1" d="m9.37,42.33l.13,30.68c.06,13.65.47,27.44,1.27,41.34l6.15,107.88-2.8-107.81c-.39-15.1-1.19-29.71-2.37-43.79l-2.37-28.3Z"/><path class="cls-1" d="m439.09,284.96l2.27-40.78c.94-16.9,1.47-33.45,1.59-49.61l.83-105.73-4.28,104.04c-.71,17.3-.98,35.02-.8,53.11l.39,38.97Z"/><path class="cls-1" d="m121.63,5.28c-18.74-.17-37.4-.1-55.96.22l-38.54.67,40.72.74c17.54.32,35.05.42,52.47.31l124.1-.81-122.8-1.13Z"/><path class="cls-1" d="m378.26,304.25c-16.53.54-32.81,4.35-49.25,5.27h0c17.6-.9,35.11-1.96,52.43-3.29l46.91-3.61-50.1,1.63Z"/><path class="cls-8" d="m258.52,321.17l-20.83,1.45-.55-15.48,19.89-3.61c3.67-.67,7.16,2.3,8,6.82h0c.99,5.35-2.1,10.51-6.51,10.82Z"/><path class="cls-9" d="m241.72,314.5c.16,4.31-1.42,7.93-3.54,8.08-2.12.15-3.95-3.24-4.1-7.55-.14-4.28,1.44-7.86,3.54-8,2.1-.14,3.93,3.19,4.09,7.47Z"/><polygon class="cls-10" points="111.54 333.17 110.07 321.26 288.57 315.77 111.54 333.17"/><path class="cls-7" d="m188.34,295.54l-37.45,1.67c-4.66.21-8.67,4.93-9.07,10.72l-.83,11.81c-.43,6.08,3.18,11.04,8.05,11.04h38.18c4.87,0,8.99-4.96,9.21-11.03l.47-13.51c.21-6.08-3.67-10.91-8.56-10.7Z"/><path class="cls-6" d="m145.75,320.77l.77-11.46c.24-3.65,2.73-6.59,5.66-6.72,0,0,25.19-2.77,33.22-3.13h0c-8.8.39-34.64,1.55-34.64,1.55-3.02.13-5.59,3.17-5.85,6.92l-.8,11.81c-.27,3.91,2.06,7.1,5.19,7.1h.59c-3.03,0-4.39-2.28-4.14-6.07Z"/><path class="cls-4" d="m115.12,326.36l2.21,37.59s192.8-5.91,192.4-5.79c-.4.11,3.72-43.91,3.72-43.91l-198.34,12.11Z"/><path class="cls-10" d="m313.45,314.25h0c-17.23,16.01-37.91,26.24-59.89,29.5l-136.23,20.2,192.4-5.79,3.72-43.91Z"/><path class="cls-1" d="m120.28,355.31l-1.67-24.54,114.35-8.16-105.19,10.85c-3.45.36-6.36,4.02-6.63,8.39l-.85,13.45Z"/><path class="cls-8" d="m54.54,63.05v-13.51h3.83c1.46,0,2.65.54,3.58,1.62.92,1.08,1.39,2.47,1.39,4.17v1.92c0,1.71-.46,3.1-1.39,4.17s-2.12,1.61-3.58,1.61h-3.83Zm1.88-12.06v10.63h1.95c.93,0,1.67-.41,2.23-1.22.56-.81.83-1.86.83-3.14v-1.94c0-1.26-.28-2.3-.83-3.11s-1.3-1.22-2.23-1.22h-1.95Z"/><path class="cls-8" d="m69.01,63.24c-1.25,0-2.23-.46-2.94-1.37-.71-.92-1.06-2.11-1.06-3.57v-.44c0-1.47.35-2.68,1.06-3.62.71-.94,1.63-1.41,2.77-1.41s2.01.41,2.61,1.22c.6.81.89,1.9.89,3.27v1.06h-5.45c0,1.03.18,1.86.55,2.5s.93.96,1.69.96c.53,0,.98-.08,1.37-.25.39-.16.75-.4,1.08-.72l.61,1.17c-.33.35-.77.64-1.32.87-.55.23-1.17.35-1.87.35Zm-.18-8.97c-.54,0-.98.25-1.3.76-.32.5-.52,1.17-.6,2h3.55v-.21c0-.75-.13-1.37-.4-1.84-.27-.47-.68-.71-1.25-.71Z"/><path class="cls-8" d="m78.8,60.51c0-.39-.13-.72-.39-.98s-.76-.56-1.49-.89c-1.03-.39-1.81-.81-2.32-1.27-.51-.46-.77-1.04-.77-1.76,0-.77.31-1.43.93-1.98.62-.54,1.43-.82,2.43-.82s1.87.3,2.5.9c.63.6.93,1.32.91,2.17l-.02.06h-1.82c0-.48-.14-.89-.42-1.23-.28-.34-.66-.52-1.15-.52s-.86.13-1.13.4c-.27.27-.4.58-.4.94,0,.38.12.69.35.9.23.22.73.5,1.49.85,1.05.37,1.84.8,2.37,1.29.53.49.79,1.1.79,1.84,0,.83-.32,1.51-.96,2.04-.64.52-1.48.78-2.52.78-1.12,0-2.01-.31-2.66-.94-.65-.63-.95-1.36-.92-2.2l.02-.06h1.75c.02.65.21,1.12.55,1.41.34.29.77.43,1.29.43s.89-.13,1.17-.39c.28-.26.42-.58.42-.98Z"/><path class="cls-8" d="m86.04,63.24c-1.25,0-2.23-.46-2.94-1.37-.71-.92-1.06-2.11-1.06-3.57v-.44c0-1.47.35-2.68,1.06-3.62.71-.94,1.63-1.41,2.77-1.41s2.01.41,2.61,1.22c.6.81.89,1.9.89,3.27v1.06h-5.45c0,1.03.18,1.86.55,2.5s.93.96,1.69.96c.53,0,.98-.08,1.37-.25.39-.16.75-.4,1.08-.72l.61,1.17c-.33.35-.77.64-1.32.87-.55.23-1.17.35-1.87.35Zm-.18-8.97c-.54,0-.98.25-1.3.76-.32.5-.52,1.17-.6,2h3.55v-.21c0-.75-.13-1.37-.4-1.84-.27-.47-.68-.71-1.25-.71Z"/><path class="cls-8" d="m93.15,53.01v10.72c0,1.08-.25,1.91-.74,2.49-.5.58-1.18.88-2.06.88-.19,0-.35-.01-.51-.04-.15-.03-.32-.07-.5-.12l.11-1.44c.1.04.21.07.34.09.13.02.25.04.36.04.34,0,.61-.16.81-.47.2-.31.3-.79.3-1.42v-10.72h1.88Zm-.05-2.66h-1.89v-1.77h1.89v1.77Z"/><path class="cls-8" d="m100.64,63.05c-.08-.3-.14-.57-.19-.81-.05-.24-.08-.47-.09-.71-.27.49-.62.9-1.05,1.23-.44.33-.93.49-1.49.49-.9,0-1.58-.27-2.06-.8-.48-.53-.72-1.26-.72-2.18s.33-1.69,1-2.24c.66-.54,1.59-.82,2.78-.82h1.54v-1.03c0-.61-.14-1.09-.41-1.43-.27-.34-.66-.52-1.17-.52-.46,0-.82.15-1.09.45-.27.3-.4.68-.4,1.14h-1.8s-.02-.05-.02-.05c-.04-.78.27-1.47.91-2.06.64-.59,1.48-.89,2.52-.89s1.8.29,2.42.88c.62.58.93,1.42.93,2.5v4.66c0,.38.02.76.07,1.12.05.36.13.72.23,1.07h-1.91Zm-2.43-1.25c.51,0,.97-.16,1.36-.48s.66-.7.78-1.16v-1.78h-1.57c-.58,0-1.04.18-1.36.55-.33.37-.49.81-.49,1.33,0,.46.11.83.33,1.11s.54.42.95.42Z"/><path class="cls-8" d="m109.29,58.02h-4.7v-1.44h4.7v1.44Z"/><path class="cls-8" d="m116.46,60.51c0-.39-.13-.72-.39-.98s-.76-.56-1.49-.89c-1.03-.39-1.81-.81-2.32-1.27-.51-.46-.77-1.04-.77-1.76,0-.77.31-1.43.93-1.98.62-.54,1.43-.82,2.43-.82s1.87.3,2.5.9c.63.6.93,1.32.91,2.17l-.02.06h-1.82c0-.48-.14-.89-.42-1.23-.28-.34-.66-.52-1.15-.52s-.86.13-1.13.4c-.27.27-.4.58-.4.94,0,.38.12.69.35.9.23.22.73.5,1.49.85,1.05.37,1.84.8,2.37,1.29.53.49.79,1.1.79,1.84,0,.83-.32,1.51-.96,2.04-.64.52-1.48.78-2.52.78-1.12,0-2.01-.31-2.66-.94-.65-.63-.95-1.36-.92-2.2l.02-.06h1.75c.02.65.21,1.12.55,1.41.34.29.77.43,1.29.43s.89-.13,1.17-.39c.28-.26.42-.58.42-.98Z"/><path class="cls-8" d="m123.69,63.24c-1.25,0-2.23-.46-2.94-1.37-.71-.92-1.06-2.11-1.06-3.57v-.44c0-1.47.35-2.68,1.06-3.62.71-.94,1.63-1.41,2.77-1.41s2.01.41,2.61,1.22c.6.81.89,1.9.89,3.27v1.06h-5.45c0,1.03.18,1.86.55,2.5s.93.96,1.69.96c.53,0,.98-.08,1.37-.25.39-.16.75-.4,1.08-.72l.61,1.17c-.33.35-.77.64-1.32.87-.55.23-1.17.35-1.87.35Zm-.18-8.97c-.54,0-.98.25-1.3.76-.32.5-.52,1.17-.6,2h3.55v-.21c0-.75-.13-1.37-.4-1.84-.27-.47-.68-.71-1.25-.71Z"/><path class="cls-8" d="m138.11,63.05c-.08-.3-.14-.57-.19-.81-.05-.24-.08-.47-.09-.71-.27.49-.62.9-1.05,1.23-.44.33-.93.49-1.49.49-.9,0-1.58-.27-2.06-.8-.48-.53-.72-1.26-.72-2.18s.33-1.69,1-2.24c.66-.54,1.59-.82,2.78-.82h1.54v-1.03c0-.61-.14-1.09-.41-1.43-.27-.34-.66-.52-1.17-.52-.46,0-.82.15-1.09.45-.27.3-.4.68-.4,1.14h-1.8s-.02-.05-.02-.05c-.04-.78.27-1.47.91-2.06.64-.59,1.48-.89,2.52-.89s1.8.29,2.42.88c.62.58.93,1.42.93,2.5v4.66c0,.38.02.76.07,1.12.05.36.13.72.23,1.07h-1.91Zm-2.43-1.25c.51,0,.97-.16,1.36-.48s.66-.7.78-1.16v-1.78h-1.57c-.58,0-1.04.18-1.36.55-.33.37-.49.81-.49,1.33,0,.46.11.83.33,1.11s.54.42.95.42Z"/><path class="cls-8" d="m141.51,58.15c0-1.61.29-2.9.88-3.87.59-.97,1.41-1.46,2.48-1.46.48,0,.9.11,1.28.32.38.21.7.52.97.92v-5.49h1.88v14.47h-1.56l-.19-1.21c-.28.46-.62.81-1.02,1.04-.4.24-.86.36-1.38.36-1.06,0-1.88-.45-2.46-1.34-.58-.89-.88-2.08-.88-3.56v-.19Zm1.88.19c0,1.05.16,1.89.47,2.51.32.62.81.93,1.47.93.42,0,.78-.11,1.07-.33.29-.22.53-.54.72-.95v-4.86c-.19-.41-.43-.74-.72-.99s-.65-.37-1.06-.37c-.67,0-1.16.36-1.48,1.07-.32.71-.48,1.64-.48,2.79v.19Z"/><path class="cls-8" d="m156.43,63.05c-.08-.3-.14-.57-.19-.81-.05-.24-.08-.47-.09-.71-.27.49-.62.9-1.05,1.23-.44.33-.93.49-1.49.49-.9,0-1.58-.27-2.06-.8-.48-.53-.72-1.26-.72-2.18s.33-1.69,1-2.24c.66-.54,1.59-.82,2.78-.82h1.54v-1.03c0-.61-.14-1.09-.41-1.43-.27-.34-.66-.52-1.17-.52-.46,0-.82.15-1.09.45-.27.3-.4.68-.4,1.14h-1.8s-.02-.05-.02-.05c-.04-.78.27-1.47.91-2.06.64-.59,1.48-.89,2.52-.89s1.8.29,2.42.88c.62.58.93,1.42.93,2.5v4.66c0,.38.02.76.07,1.12.05.36.13.72.23,1.07h-1.91Zm-2.43-1.25c.51,0,.97-.16,1.36-.48s.66-.7.78-1.16v-1.78h-1.57c-.58,0-1.04.18-1.36.55-.33.37-.49.81-.49,1.33,0,.46.11.83.33,1.11s.54.42.95.42Z"/><path class="cls-8" d="m167.72,58.34c0,1.48-.3,2.67-.89,3.56s-1.41,1.34-2.47,1.34c-.49,0-.93-.1-1.31-.29-.38-.2-.7-.48-.97-.86v4.81h-1.89v-13.9h1.6l.18,1.21c.27-.45.61-.8,1-1.03.4-.24.86-.36,1.38-.36,1.06,0,1.89.49,2.48,1.46.59.97.89,2.26.89,3.87v.19Zm-1.89-.19c0-1.14-.17-2.07-.5-2.78s-.83-1.08-1.49-1.08c-.42,0-.78.12-1.07.35-.29.23-.52.55-.7.94v5.06c.17.38.4.67.7.87s.65.31,1.08.31c.66,0,1.16-.32,1.48-.95s.49-1.47.49-2.52v-.19Z"/><path class="cls-8" d="m171.96,50.51v2.5h1.57v1.35h-1.57v5.97c0,.52.08.89.24,1.11.16.22.37.33.63.33.11,0,.21,0,.3-.03.09-.02.2-.05.33-.08l.19,1.3c-.18.09-.38.16-.6.21-.22.05-.45.08-.68.08-.72,0-1.29-.23-1.69-.7-.4-.47-.6-1.2-.6-2.21v-5.97h-1.33v-1.35h1.33v-2.5h1.89Z"/><path class="cls-8" d="m180.45,63.05c-.08-.3-.14-.57-.19-.81-.05-.24-.08-.47-.09-.71-.27.49-.62.9-1.05,1.23-.44.33-.93.49-1.49.49-.9,0-1.58-.27-2.06-.8-.48-.53-.72-1.26-.72-2.18s.33-1.69,1-2.24c.66-.54,1.59-.82,2.78-.82h1.54v-1.03c0-.61-.14-1.09-.41-1.43-.27-.34-.66-.52-1.17-.52-.46,0-.82.15-1.09.45-.27.3-.4.68-.4,1.14h-1.8s-.02-.05-.02-.05c-.04-.78.27-1.47.91-2.06.64-.59,1.48-.89,2.52-.89s1.8.29,2.42.88c.62.58.93,1.42.93,2.5v4.66c0,.38.02.76.07,1.12.05.36.13.72.23,1.07h-1.91Zm-2.43-1.25c.51,0,.97-.16,1.36-.48s.66-.7.78-1.16v-1.78h-1.57c-.58,0-1.04.18-1.36.55-.33.37-.49.81-.49,1.33,0,.46.11.83.33,1.11s.54.42.95.42Z"/><path class="cls-8" d="m188.51,54.58l-.82-.05c-.4,0-.73.12-.99.36-.26.24-.47.57-.61,1.01v7.15h-1.89v-10.04h1.73l.13,1.48c.22-.53.51-.94.85-1.23s.75-.44,1.2-.44c.12,0,.23.01.33.03.1.02.19.05.27.08l-.21,1.64Z"/><path class="cls-8" d="m196.24,63.05h-1.89v-14.47h1.89v14.47Z"/><path class="cls-8" d="m202.17,63.24c-1.25,0-2.23-.46-2.94-1.37-.71-.92-1.06-2.11-1.06-3.57v-.44c0-1.47.35-2.68,1.06-3.62.71-.94,1.63-1.41,2.77-1.41s2.01.41,2.61,1.22c.6.81.89,1.9.89,3.27v1.06h-5.45c0,1.03.18,1.86.55,2.5s.93.96,1.69.96c.53,0,.98-.08,1.37-.25.39-.16.75-.4,1.08-.72l.61,1.17c-.33.35-.77.64-1.32.87-.55.23-1.17.35-1.87.35Zm-.18-8.97c-.54,0-.98.25-1.3.76-.32.5-.52,1.17-.6,2h3.55v-.21c0-.75-.13-1.37-.4-1.84-.27-.47-.68-.71-1.25-.71Z"/><path class="cls-8" d="m208.91,53.01l.11,1.49c.28-.53.64-.94,1.08-1.24.43-.29.92-.44,1.47-.44.89,0,1.58.33,2.08.98.5.66.75,1.68.75,3.06v6.18h-1.88v-6.17c0-.95-.13-1.61-.39-2s-.66-.58-1.19-.58c-.43,0-.8.11-1.11.34-.31.23-.56.54-.74.93v7.49h-1.89v-10.04h1.73Z"/><path class="cls-8" d="m218.97,50.51v2.5h1.57v1.35h-1.57v5.97c0,.52.08.89.24,1.11.16.22.37.33.63.33.11,0,.21,0,.3-.03.09-.02.2-.05.33-.08l.19,1.3c-.18.09-.38.16-.6.21-.22.05-.45.08-.68.08-.72,0-1.29-.23-1.69-.7-.4-.47-.6-1.2-.6-2.21v-5.97h-1.33v-1.35h1.33v-2.5h1.89Z"/><path class="cls-8" d="m225.87,63.24c-1.25,0-2.23-.46-2.94-1.37-.71-.92-1.06-2.11-1.06-3.57v-.44c0-1.47.35-2.68,1.06-3.62.71-.94,1.63-1.41,2.77-1.41s2.01.41,2.61,1.22c.6.81.89,1.9.89,3.27v1.06h-5.45c0,1.03.18,1.86.55,2.5s.93.96,1.69.96c.53,0,.98-.08,1.37-.25.39-.16.75-.4,1.08-.72l.61,1.17c-.33.35-.77.64-1.32.87-.55.23-1.17.35-1.87.35Zm-.18-8.97c-.54,0-.98.25-1.3.76-.32.5-.52,1.17-.6,2h3.55v-.21c0-.75-.13-1.37-.4-1.84-.27-.47-.68-.71-1.25-.71Z"/><path class="cls-8" d="m235.66,60.51c0-.39-.13-.72-.39-.98s-.76-.56-1.49-.89c-1.03-.39-1.81-.81-2.32-1.27-.51-.46-.77-1.04-.77-1.76,0-.77.31-1.43.93-1.98.62-.54,1.43-.82,2.43-.82s1.87.3,2.5.9c.63.6.93,1.32.91,2.17l-.02.06h-1.82c0-.48-.14-.89-.42-1.23-.28-.34-.66-.52-1.15-.52s-.86.13-1.13.4c-.27.27-.4.58-.4.94,0,.38.12.69.35.9.23.22.73.5,1.49.85,1.05.37,1.84.8,2.37,1.29.53.49.79,1.1.79,1.84,0,.83-.32,1.51-.96,2.04-.64.52-1.48.78-2.52.78-1.12,0-2.01-.31-2.66-.94-.65-.63-.95-1.36-.92-2.2l.02-.06h1.75c.02.65.21,1.12.55,1.41.34.29.77.43,1.29.43s.89-.13,1.17-.39c.28-.26.42-.58.42-.98Z"/><path class="cls-8" d="m245.52,57.23v5.82h-1.88v-13.5h3.98c1.3,0,2.3.33,3.01.99s1.06,1.61,1.06,2.85c0,.71-.17,1.32-.5,1.85-.33.53-.81.94-1.42,1.23.69.24,1.19.62,1.5,1.17.31.54.46,1.22.46,2.02v1.18c0,.41.04.8.12,1.16.08.36.22.64.43.83v.21h-1.94c-.21-.2-.35-.52-.41-.93-.06-.42-.1-.85-.1-1.29v-1.14c0-.75-.18-1.35-.52-1.79-.35-.44-.83-.66-1.45-.66h-2.33Zm0-1.44h2c.78,0,1.35-.21,1.72-.62s.56-.99.56-1.75-.18-1.37-.54-1.8c-.36-.43-.91-.64-1.65-.64h-2.1v4.81Z"/><path class="cls-8" d="m262.83,61.28c-.32.51-.83.97-1.54,1.36-.7.4-1.61.59-2.71.59-1.41,0-2.55-.43-3.41-1.29-.86-.86-1.29-2.08-1.29-3.67v-4.01c0-1.56.42-2.78,1.25-3.64s1.95-1.29,3.33-1.29,2.42.35,3.16,1.06,1.1,1.67,1.08,2.89l-.02.06h-1.77c0-.81-.21-1.44-.62-1.89-.41-.45-1.01-.67-1.79-.67-.85,0-1.51.3-2,.89-.49.59-.73,1.45-.73,2.57v4.03c0,1.15.25,2.03.76,2.63.5.6,1.19.9,2.05.9.64,0,1.15-.1,1.53-.3.38-.2.66-.44.83-.72v-3.15h-2.49v-1.37h4.38v5.01Z"/><path class="cls-8" d="m267.2,57.72v5.33h-1.88v-13.51h4.39c1.28,0,2.28.38,3.01,1.13.73.75,1.09,1.74,1.09,2.96s-.36,2.22-1.09,2.97c-.73.75-1.73,1.12-3.01,1.12h-2.5Zm0-1.45h2.5c.73,0,1.28-.25,1.66-.75.38-.5.57-1.12.57-1.88s-.19-1.39-.56-1.9-.93-.76-1.67-.76h-2.5v5.29Z"/><path class="cls-8" d="m281.48,53.01l.11,1.49c.28-.53.64-.94,1.08-1.24.43-.29.92-.44,1.47-.44.89,0,1.58.33,2.08.98.5.66.75,1.68.75,3.06v6.18h-1.88v-6.17c0-.95-.13-1.61-.39-2s-.66-.58-1.19-.58c-.43,0-.8.11-1.11.34-.31.23-.56.54-.74.93v7.49h-1.89v-10.04h1.73Z"/><path class="cls-8" d="m288.75,57.92c0-1.49.35-2.71,1.06-3.66s1.67-1.43,2.9-1.43,2.2.48,2.91,1.43c.71.95,1.06,2.17,1.06,3.66v.25c0,1.5-.35,2.72-1.06,3.66-.71.94-1.67,1.42-2.89,1.42s-2.22-.47-2.92-1.42c-.71-.94-1.06-2.16-1.06-3.66v-.25Zm1.89.25c0,1.07.17,1.95.51,2.63.34.68.87,1.02,1.57,1.02s1.2-.34,1.54-1.03c.34-.68.51-1.56.51-2.62v-.25c0-1.05-.17-1.92-.52-2.61-.35-.69-.87-1.03-1.56-1.03s-1.21.35-1.55,1.03c-.34.69-.51,1.56-.51,2.61v.25Z"/><path class="cls-8" d="m308.05,61.58c-.27.53-.62.94-1.04,1.23-.42.29-.91.43-1.46.43-.92,0-1.64-.36-2.16-1.07s-.78-1.81-.78-3.31v-5.85h1.89v5.87c0,1.08.12,1.83.37,2.26.25.43.62.65,1.13.65.46,0,.86-.11,1.18-.32.33-.22.58-.53.77-.93v-7.52h1.89v10.04h-1.61l-.19-1.47Z"/><path class="cls-8" d="m316.76,60.51c0-.39-.13-.72-.39-.98s-.76-.56-1.49-.89c-1.03-.39-1.81-.81-2.32-1.27-.51-.46-.77-1.04-.77-1.76,0-.77.31-1.43.93-1.98.62-.54,1.43-.82,2.43-.82s1.87.3,2.5.9c.63.6.93,1.32.91,2.17l-.02.06h-1.82c0-.48-.14-.89-.42-1.23-.28-.34-.66-.52-1.15-.52s-.86.13-1.13.4c-.27.27-.4.58-.4.94,0,.38.12.69.35.9.23.22.73.5,1.49.85,1.05.37,1.84.8,2.37,1.29.53.49.79,1.1.79,1.84,0,.83-.32,1.51-.96,2.04-.64.52-1.48.78-2.52.78-1.12,0-2.01-.31-2.66-.94-.65-.63-.95-1.36-.92-2.2l.02-.06h1.75c.02.65.21,1.12.55,1.41.34.29.77.43,1.29.43s.89-.13,1.17-.39c.28-.26.42-.58.42-.98Z"/><path class="cls-8" d="m325.77,61.58c-.27.53-.62.94-1.04,1.23-.42.29-.91.43-1.46.43-.92,0-1.64-.36-2.16-1.07s-.78-1.81-.78-3.31v-5.85h1.89v5.87c0,1.08.12,1.83.37,2.26.25.43.62.65,1.13.65.46,0,.86-.11,1.18-.32.33-.22.58-.53.77-.93v-7.52h1.89v10.04h-1.61l-.19-1.47Z"/><path class="cls-8" d="m334.94,63.05c-.08-.3-.14-.57-.19-.81-.05-.24-.08-.47-.09-.71-.27.49-.62.9-1.05,1.23-.44.33-.93.49-1.49.49-.9,0-1.58-.27-2.06-.8-.48-.53-.72-1.26-.72-2.18s.33-1.69,1-2.24c.66-.54,1.59-.82,2.78-.82h1.54v-1.03c0-.61-.14-1.09-.41-1.43-.27-.34-.66-.52-1.17-.52-.46,0-.82.15-1.09.45-.27.3-.4.68-.4,1.14h-1.8s-.02-.05-.02-.05c-.04-.78.27-1.47.91-2.06.64-.59,1.48-.89,2.52-.89s1.8.29,2.42.88c.62.58.93,1.42.93,2.5v4.66c0,.38.02.76.07,1.12.05.36.13.72.23,1.07h-1.91Zm-2.43-1.25c.51,0,.97-.16,1.36-.48s.66-.7.78-1.16v-1.78h-1.57c-.58,0-1.04.18-1.36.55-.33.37-.49.81-.49,1.33,0,.46.11.83.33,1.11s.54.42.95.42Zm1.28-13.05h2.16l.03.05-2.24,2.42h-1.58l1.63-2.47Z"/><path class="cls-8" d="m343,54.58l-.82-.05c-.4,0-.73.12-.99.36-.26.24-.47.57-.61,1.01v7.15h-1.89v-10.04h1.73l.13,1.48c.22-.53.51-.94.85-1.23s.75-.44,1.2-.44c.12,0,.23.01.33.03.1.02.19.05.27.08l-.21,1.64Z"/><path class="cls-8" d="m346.55,50.37h-1.89v-1.8h1.89v1.8Zm0,12.67h-1.89v-10.04h1.89v10.04Z"/><path class="cls-8" d="m348.47,57.92c0-1.49.35-2.71,1.06-3.66s1.67-1.43,2.9-1.43,2.2.48,2.91,1.43c.71.95,1.06,2.17,1.06,3.66v.25c0,1.5-.35,2.72-1.06,3.66-.71.94-1.67,1.42-2.89,1.42s-2.22-.47-2.92-1.42c-.71-.94-1.06-2.16-1.06-3.66v-.25Zm1.89.25c0,1.07.17,1.95.51,2.63.34.68.87,1.02,1.57,1.02s1.2-.34,1.54-1.03c.34-.68.51-1.56.51-2.62v-.25c0-1.05-.17-1.92-.52-2.61-.35-.69-.87-1.03-1.56-1.03s-1.21.35-1.55,1.03c-.34.69-.51,1.56-.51,2.61v.25Z"/><path class="cls-8" d="m362.03,58.15c0-1.61.29-2.9.88-3.87.59-.97,1.41-1.46,2.48-1.46.48,0,.9.11,1.28.32.38.21.7.52.97.92v-5.49h1.88v14.47h-1.56l-.19-1.21c-.28.46-.62.81-1.02,1.04-.4.24-.86.36-1.38.36-1.06,0-1.88-.45-2.46-1.34-.58-.89-.88-2.08-.88-3.56v-.19Zm1.88.19c0,1.05.16,1.89.47,2.51.32.62.81.93,1.47.93.42,0,.78-.11,1.07-.33.29-.22.53-.54.72-.95v-4.86c-.19-.41-.43-.74-.72-.99s-.65-.37-1.06-.37c-.67,0-1.16.36-1.48,1.07-.32.71-.48,1.64-.48,2.79v.19Z"/><path class="cls-8" d="m375.36,63.24c-1.25,0-2.23-.46-2.94-1.37-.71-.92-1.06-2.11-1.06-3.57v-.44c0-1.47.35-2.68,1.06-3.62.71-.94,1.63-1.41,2.77-1.41s2.01.41,2.61,1.22c.6.81.89,1.9.89,3.27v1.06h-5.45c0,1.03.18,1.86.55,2.5s.93.96,1.69.96c.53,0,.98-.08,1.37-.25.39-.16.75-.4,1.08-.72l.61,1.17c-.33.35-.77.64-1.32.87-.55.23-1.17.35-1.87.35Zm-.18-8.97c-.54,0-.98.25-1.3.76-.32.5-.52,1.17-.6,2h3.55v-.21c0-.75-.13-1.37-.4-1.84-.27-.47-.68-.71-1.25-.71Z"/><path class="cls-8" d="m56.35,85.85h-1.89v-14.47h1.89v14.47Z"/><path class="cls-8" d="m62.28,86.04c-1.25,0-2.23-.46-2.94-1.37-.71-.92-1.06-2.11-1.06-3.57v-.44c0-1.47.35-2.68,1.06-3.62.71-.94,1.63-1.41,2.77-1.41s2.01.41,2.61,1.21c.6.81.89,1.9.89,3.27v1.06h-5.45c0,1.03.18,1.86.55,2.5.37.64.93.96,1.69.96.53,0,.98-.08,1.37-.25.39-.16.75-.4,1.08-.72l.61,1.17c-.33.35-.77.64-1.32.87-.55.24-1.17.35-1.87.35Zm-.18-8.97c-.54,0-.98.25-1.3.76-.32.5-.52,1.17-.6,2h3.55v-.21c0-.75-.13-1.37-.4-1.84-.27-.47-.68-.71-1.25-.71Z"/><path class="cls-8" d="m69.01,75.81l.11,1.49c.28-.53.64-.94,1.08-1.24.43-.29.92-.44,1.47-.44.89,0,1.58.33,2.08.98.5.66.75,1.68.75,3.06v6.18h-1.88v-6.17c0-.95-.13-1.61-.39-2s-.66-.58-1.19-.58c-.43,0-.8.11-1.11.34-.31.23-.56.54-.74.93v7.49h-1.89v-10.04h1.73Z"/><path class="cls-8" d="m79.08,73.31v2.5h1.57v1.34h-1.57v5.97c0,.52.08.89.24,1.11.16.22.37.33.63.33.11,0,.21,0,.3-.03.09-.02.2-.05.33-.08l.19,1.3c-.18.09-.38.16-.6.21-.22.05-.45.08-.68.08-.72,0-1.29-.23-1.69-.7-.4-.47-.6-1.2-.6-2.21v-5.97h-1.33v-1.34h1.33v-2.5h1.89Z"/><path class="cls-8" d="m85.98,86.04c-1.25,0-2.23-.46-2.94-1.37-.71-.92-1.06-2.11-1.06-3.57v-.44c0-1.47.35-2.68,1.06-3.62.71-.94,1.63-1.41,2.77-1.41s2.01.41,2.61,1.21c.6.81.89,1.9.89,3.27v1.06h-5.45c0,1.03.18,1.86.55,2.5.37.64.93.96,1.69.96.53,0,.98-.08,1.37-.25.39-.16.75-.4,1.08-.72l.61,1.17c-.33.35-.77.64-1.32.87-.55.24-1.17.35-1.87.35Zm-.18-8.97c-.54,0-.98.25-1.3.76-.32.5-.52,1.17-.6,2h3.55v-.21c0-.75-.13-1.37-.4-1.84-.27-.47-.68-.71-1.25-.71Z"/><path class="cls-8" d="m95.77,83.31c0-.39-.13-.72-.39-.98s-.76-.56-1.49-.89c-1.03-.39-1.81-.81-2.32-1.27-.51-.46-.77-1.04-.77-1.76,0-.77.31-1.43.93-1.98.62-.54,1.43-.82,2.43-.82s1.87.3,2.5.9c.63.6.93,1.32.91,2.17l-.02.06h-1.82c0-.48-.14-.89-.42-1.23s-.66-.51-1.15-.51-.86.13-1.13.4c-.27.27-.4.58-.4.94,0,.38.12.69.35.9.23.22.73.5,1.49.85,1.05.37,1.84.8,2.37,1.29.53.49.79,1.1.79,1.84,0,.83-.32,1.51-.96,2.04-.64.52-1.48.78-2.52.78-1.12,0-2.01-.31-2.66-.94-.65-.63-.95-1.36-.92-2.2l.02-.06h1.75c.02.65.21,1.12.55,1.41.34.29.77.43,1.29.43s.89-.13,1.17-.39c.28-.26.42-.58.42-.98Z"/><path class="cls-8" d="m103.2,80.95c0-1.61.29-2.9.88-3.87.59-.97,1.41-1.46,2.48-1.46.48,0,.9.11,1.28.32.38.21.7.52.97.92v-5.49h1.88v14.47h-1.56l-.19-1.21c-.28.46-.62.81-1.02,1.04s-.86.36-1.38.36c-1.06,0-1.88-.45-2.46-1.34-.58-.89-.88-2.08-.88-3.56v-.19Zm1.88.19c0,1.05.16,1.89.47,2.51s.81.93,1.47.93c.42,0,.78-.11,1.07-.33.29-.22.53-.54.72-.95v-4.86c-.19-.41-.43-.74-.72-.99s-.65-.37-1.06-.37c-.67,0-1.16.36-1.48,1.07-.32.71-.48,1.64-.48,2.79v.19Z"/><path class="cls-8" d="m116.53,86.04c-1.25,0-2.23-.46-2.94-1.37-.71-.92-1.06-2.11-1.06-3.57v-.44c0-1.47.35-2.68,1.06-3.62.71-.94,1.63-1.41,2.77-1.41s2.01.41,2.61,1.21c.6.81.89,1.9.89,3.27v1.06h-5.45c0,1.03.18,1.86.55,2.5.37.64.93.96,1.69.96.53,0,.98-.08,1.37-.25.39-.16.75-.4,1.08-.72l.61,1.17c-.33.35-.77.64-1.32.87-.55.24-1.17.35-1.87.35Zm-.18-8.97c-.54,0-.98.25-1.3.76-.32.5-.52,1.17-.6,2h3.55v-.21c0-.75-.13-1.37-.4-1.84-.27-.47-.68-.71-1.25-.71Z"/><path class="cls-8" d="m129.22,84.61c.46,0,.85-.18,1.16-.54.31-.36.47-.84.47-1.46h1.7l.02.06c.02.95-.29,1.74-.96,2.39-.66.65-1.46.97-2.39.97-1.24,0-2.19-.47-2.87-1.41-.67-.94-1.01-2.15-1.01-3.61v-.35c0-1.46.34-2.66,1.01-3.61s1.63-1.42,2.87-1.42c1,0,1.82.34,2.44,1.02.63.68.93,1.56.91,2.64l-.02.05h-1.71c0-.67-.15-1.21-.45-1.63-.3-.42-.69-.63-1.18-.63-.71,0-1.21.34-1.53,1.02-.31.68-.47,1.54-.47,2.57v.35c0,1.05.15,1.91.46,2.59.31.67.82,1.01,1.53,1.01Z"/><path class="cls-8" d="m133.95,80.71c0-1.49.35-2.71,1.06-3.66.71-.95,1.67-1.43,2.9-1.43s2.2.48,2.91,1.43c.71.95,1.06,2.17,1.06,3.66v.25c0,1.5-.35,2.72-1.06,3.66-.71.94-1.67,1.41-2.89,1.41s-2.22-.47-2.92-1.41c-.71-.94-1.06-2.16-1.06-3.66v-.25Zm1.89.25c0,1.07.17,1.95.51,2.62.34.68.87,1.02,1.57,1.02s1.2-.34,1.54-1.02c.34-.68.51-1.56.51-2.62v-.25c0-1.05-.17-1.92-.52-2.61-.35-.69-.87-1.03-1.56-1.03s-1.21.34-1.55,1.03c-.34.69-.51,1.56-.51,2.61v.25Z"/><path class="cls-8" d="m145.39,75.81l.11,1.49c.28-.53.64-.94,1.08-1.24.43-.29.92-.44,1.47-.44.89,0,1.58.33,2.08.98.5.66.75,1.68.75,3.06v6.18h-1.88v-6.17c0-.95-.13-1.61-.39-2s-.66-.58-1.19-.58c-.43,0-.8.11-1.11.34-.31.23-.56.54-.74.93v7.49h-1.89v-10.04h1.73Z"/><path class="cls-8" d="m155.46,73.31v2.5h1.57v1.34h-1.57v5.97c0,.52.08.89.24,1.11.16.22.37.33.63.33.11,0,.21,0,.3-.03.09-.02.2-.05.33-.08l.19,1.3c-.18.09-.38.16-.6.21-.22.05-.45.08-.68.08-.72,0-1.29-.23-1.69-.7-.4-.47-.6-1.2-.6-2.21v-5.97h-1.33v-1.34h1.33v-2.5h1.89Z"/><path class="cls-8" d="m163.95,85.85c-.08-.3-.14-.57-.19-.81-.05-.24-.08-.47-.09-.71-.27.49-.62.9-1.05,1.23-.44.32-.93.49-1.49.49-.9,0-1.58-.27-2.06-.8-.48-.53-.72-1.26-.72-2.18s.33-1.69,1-2.24c.66-.54,1.59-.82,2.78-.82h1.54v-1.03c0-.61-.14-1.09-.41-1.43s-.66-.51-1.17-.51c-.46,0-.82.15-1.09.45-.27.3-.4.68-.4,1.14h-1.8s-.02-.05-.02-.05c-.04-.78.27-1.47.91-2.06.64-.59,1.48-.89,2.52-.89s1.8.29,2.42.88.93,1.42.93,2.5v4.66c0,.38.02.76.07,1.12s.13.72.23,1.07h-1.91Zm-2.43-1.25c.51,0,.97-.16,1.36-.48s.66-.7.78-1.16v-1.78h-1.57c-.58,0-1.04.18-1.36.55-.33.37-.49.81-.49,1.33,0,.46.11.83.33,1.11s.54.42.95.42Z"/><path class="cls-8" d="m170.13,73.31v2.5h1.57v1.34h-1.57v5.97c0,.52.08.89.24,1.11.16.22.37.33.63.33.11,0,.21,0,.3-.03.09-.02.2-.05.33-.08l.19,1.3c-.18.09-.38.16-.6.21-.22.05-.45.08-.68.08-.72,0-1.29-.23-1.69-.7-.4-.47-.6-1.2-.6-2.21v-5.97h-1.33v-1.34h1.33v-2.5h1.89Z"/><path class="cls-8" d="m173.02,80.71c0-1.49.35-2.71,1.06-3.66.71-.95,1.67-1.43,2.9-1.43s2.2.48,2.91,1.43c.71.95,1.06,2.17,1.06,3.66v.25c0,1.5-.35,2.72-1.06,3.66-.71.94-1.67,1.41-2.89,1.41s-2.22-.47-2.92-1.41c-.71-.94-1.06-2.16-1.06-3.66v-.25Zm1.89.25c0,1.07.17,1.95.51,2.62.34.68.87,1.02,1.57,1.02s1.2-.34,1.54-1.02c.34-.68.51-1.56.51-2.62v-.25c0-1.05-.17-1.92-.52-2.61-.35-.69-.87-1.03-1.56-1.03s-1.21.34-1.55,1.03c-.34.69-.51,1.56-.51,2.61v.25Z"/><path class="cls-8" d="m190.56,86.04c-1.25,0-2.23-.46-2.94-1.37-.71-.92-1.06-2.11-1.06-3.57v-.44c0-1.47.35-2.68,1.06-3.62.71-.94,1.63-1.41,2.77-1.41s2.01.41,2.61,1.21c.6.81.89,1.9.89,3.27v1.06h-5.45c0,1.03.18,1.86.55,2.5.37.64.93.96,1.69.96.53,0,.98-.08,1.37-.25.39-.16.75-.4,1.08-.72l.61,1.17c-.33.35-.77.64-1.32.87-.55.24-1.17.35-1.87.35Zm-.18-8.97c-.54,0-.98.25-1.3.76-.32.5-.52,1.17-.6,2h3.55v-.21c0-.75-.13-1.37-.4-1.84-.27-.47-.68-.71-1.25-.71Z"/><path class="cls-8" d="m204.52,83.31c0-.39-.13-.72-.39-.98s-.76-.56-1.49-.89c-1.03-.39-1.81-.81-2.32-1.27-.51-.46-.77-1.04-.77-1.76,0-.77.31-1.43.93-1.98.62-.54,1.43-.82,2.43-.82s1.87.3,2.5.9c.63.6.93,1.32.91,2.17l-.02.06h-1.82c0-.48-.14-.89-.42-1.23s-.66-.51-1.15-.51-.86.13-1.13.4c-.27.27-.4.58-.4.94,0,.38.12.69.35.9.23.22.73.5,1.49.85,1.05.37,1.84.8,2.37,1.29.53.49.79,1.1.79,1.84,0,.83-.32,1.51-.96,2.04-.64.52-1.48.78-2.52.78-1.12,0-2.01-.31-2.66-.94-.65-.63-.95-1.36-.92-2.2l.02-.06h1.75c.02.65.21,1.12.55,1.41.34.29.77.43,1.29.43s.89-.13,1.17-.39c.28-.26.42-.58.42-.98Z"/><path class="cls-8" d="m213.34,85.85c-.08-.3-.14-.57-.19-.81-.05-.24-.08-.47-.09-.71-.27.49-.62.9-1.05,1.23-.44.32-.93.49-1.49.49-.9,0-1.58-.27-2.06-.8-.48-.53-.72-1.26-.72-2.18s.33-1.69,1-2.24c.66-.54,1.59-.82,2.78-.82h1.54v-1.03c0-.61-.14-1.09-.41-1.43s-.66-.51-1.17-.51c-.46,0-.82.15-1.09.45-.27.3-.4.68-.4,1.14h-1.8s-.02-.05-.02-.05c-.04-.78.27-1.47.91-2.06.64-.59,1.48-.89,2.52-.89s1.8.29,2.42.88.93,1.42.93,2.5v4.66c0,.38.02.76.07,1.12s.13.72.23,1.07h-1.91Zm-2.43-1.25c.51,0,.97-.16,1.36-.48s.66-.7.78-1.16v-1.78h-1.57c-.58,0-1.04.18-1.36.55-.33.37-.49.81-.49,1.33,0,.46.11.83.33,1.11s.54.42.95.42Z"/><path class="cls-8" d="m224.64,81.14c0,1.48-.29,2.67-.88,3.56-.58.89-1.41,1.34-2.48,1.34-.54,0-1.02-.12-1.42-.37-.41-.24-.74-.6-1.01-1.07l-.2,1.24h-1.55v-14.47h1.89v5.52c.27-.41.59-.72.96-.94.38-.22.82-.33,1.32-.33,1.08,0,1.91.48,2.49,1.45.58.97.88,2.26.88,3.87v.19Zm-1.89-.19c0-1.16-.15-2.1-.46-2.8s-.8-1.06-1.48-1.06c-.44,0-.81.13-1.1.38-.3.25-.53.6-.71,1.03v4.75c.17.43.4.76.7.99.3.23.68.35,1.13.35.67,0,1.16-.31,1.47-.92.31-.62.46-1.45.46-2.52v-.19Z"/><path class="cls-8" d="m230.08,86.04c-1.25,0-2.23-.46-2.94-1.37-.71-.92-1.06-2.11-1.06-3.57v-.44c0-1.47.35-2.68,1.06-3.62.71-.94,1.63-1.41,2.77-1.41s2.01.41,2.61,1.21c.6.81.89,1.9.89,3.27v1.06h-5.45c0,1.03.18,1.86.55,2.5.37.64.93.96,1.69.96.53,0,.98-.08,1.37-.25.39-.16.75-.4,1.08-.72l.61,1.17c-.33.35-.77.64-1.32.87-.55.24-1.17.35-1.87.35Zm-.18-8.97c-.54,0-.98.25-1.3.76-.32.5-.52,1.17-.6,2h3.55v-.21c0-.75-.13-1.37-.4-1.84-.27-.47-.68-.71-1.25-.71Z"/><path class="cls-8" d="m239.99,80.82h-4.7v-1.44h4.7v1.44Z"/><path class="cls-8" d="m247.17,83.31c0-.39-.13-.72-.39-.98s-.76-.56-1.49-.89c-1.03-.39-1.81-.81-2.32-1.27-.51-.46-.77-1.04-.77-1.76,0-.77.31-1.43.93-1.98.62-.54,1.43-.82,2.43-.82s1.87.3,2.5.9c.63.6.93,1.32.91,2.17l-.02.06h-1.82c0-.48-.14-.89-.42-1.23s-.66-.51-1.15-.51-.86.13-1.13.4c-.27.27-.4.58-.4.94,0,.38.12.69.35.9.23.22.73.5,1.49.85,1.05.37,1.84.8,2.37,1.29.53.49.79,1.1.79,1.84,0,.83-.32,1.51-.96,2.04-.64.52-1.48.78-2.52.78-1.12,0-2.01-.31-2.66-.94-.65-.63-.95-1.36-.92-2.2l.02-.06h1.75c.02.65.21,1.12.55,1.41.34.29.77.43,1.29.43s.89-.13,1.17-.39c.28-.26.42-.58.42-.98Z"/><path class="cls-8" d="m254.4,86.04c-1.25,0-2.23-.46-2.94-1.37-.71-.92-1.06-2.11-1.06-3.57v-.44c0-1.47.35-2.68,1.06-3.62.71-.94,1.63-1.41,2.77-1.41s2.01.41,2.61,1.21c.6.81.89,1.9.89,3.27v1.06h-5.45c0,1.03.18,1.86.55,2.5.37.64.93.96,1.69.96.53,0,.98-.08,1.37-.25.39-.16.75-.4,1.08-.72l.61,1.17c-.33.35-.77.64-1.32.87-.55.24-1.17.35-1.87.35Zm-.18-8.97c-.54,0-.98.25-1.3.76-.32.5-.52,1.17-.6,2h3.55v-.21c0-.75-.13-1.37-.4-1.84-.27-.47-.68-.71-1.25-.71Z"/><path class="cls-8" d="m263.25,80.95c0-1.61.29-2.9.88-3.87.59-.97,1.41-1.46,2.48-1.46.51,0,.96.12,1.34.35.39.23.72.57.99,1l.2-1.17h1.55v13.9h-1.89v-4.77c-.27.36-.58.64-.95.83s-.79.28-1.27.28c-1.06,0-1.88-.45-2.46-1.34-.58-.89-.88-2.08-.88-3.56v-.19Zm1.88.19c0,1.06.16,1.9.47,2.53s.81.94,1.47.94c.4,0,.75-.1,1.03-.3.28-.2.52-.49.71-.86v-5.17c-.18-.38-.41-.67-.7-.89-.29-.22-.63-.32-1.03-.32-.67,0-1.16.36-1.48,1.08-.32.72-.48,1.65-.48,2.8v.19Z"/><path class="cls-8" d="m278.35,84.38c-.27.53-.62.94-1.04,1.23-.42.29-.91.43-1.46.43-.92,0-1.64-.36-2.16-1.07-.52-.71-.78-1.82-.78-3.31v-5.85h1.89v5.87c0,1.08.12,1.83.37,2.26.25.43.62.65,1.13.65.46,0,.86-.11,1.18-.33.33-.22.58-.53.77-.93v-7.52h1.89v10.04h-1.61l-.19-1.47Z"/><path class="cls-8" d="m285.93,86.04c-1.25,0-2.23-.46-2.94-1.37-.71-.92-1.06-2.11-1.06-3.57v-.44c0-1.47.35-2.68,1.06-3.62.71-.94,1.63-1.41,2.77-1.41s2.01.41,2.61,1.21c.6.81.89,1.9.89,3.27v1.06h-5.45c0,1.03.18,1.86.55,2.5.37.64.93.96,1.69.96.53,0,.98-.08,1.37-.25.39-.16.75-.4,1.08-.72l.61,1.17c-.33.35-.77.64-1.32.87-.55.24-1.17.35-1.87.35Zm-.18-8.97c-.54,0-.98.25-1.3.76-.32.5-.52,1.17-.6,2h3.55v-.21c0-.75-.13-1.37-.4-1.84-.27-.47-.68-.71-1.25-.71Z"/><path class="cls-8" d="m298.77,86.04c-1.25,0-2.23-.46-2.94-1.37-.71-.92-1.06-2.11-1.06-3.57v-.44c0-1.47.35-2.68,1.06-3.62.71-.94,1.63-1.41,2.77-1.41s2.01.41,2.61,1.21c.6.81.89,1.9.89,3.27v1.06h-5.45c0,1.03.18,1.86.55,2.5.37.64.93.96,1.69.96.53,0,.98-.08,1.37-.25.39-.16.75-.4,1.08-.72l.61,1.17c-.33.35-.77.64-1.32.87-.55.24-1.17.35-1.87.35Zm-.18-8.97c-.54,0-.98.25-1.3.76-.32.5-.52,1.17-.6,2h3.55v-.21c0-.75-.13-1.37-.4-1.84-.27-.47-.68-.71-1.25-.71Z"/><path class="cls-8" d="m305.81,85.85h-1.89v-14.47h1.89v14.47Z"/><path class="cls-8" d="m311.73,86.04c-1.25,0-2.23-.46-2.94-1.37-.71-.92-1.06-2.11-1.06-3.57v-.44c0-1.47.35-2.68,1.06-3.62.71-.94,1.63-1.41,2.77-1.41s2.01.41,2.61,1.21c.6.81.89,1.9.89,3.27v1.06h-5.45c0,1.03.18,1.86.55,2.5.37.64.93.96,1.69.96.53,0,.98-.08,1.37-.25.39-.16.75-.4,1.08-.72l.61,1.17c-.33.35-.77.64-1.32.87-.55.24-1.17.35-1.87.35Zm-.18-8.97c-.54,0-.98.25-1.3.76-.32.5-.52,1.17-.6,2h3.55v-.21c0-.75-.13-1.37-.4-1.84-.27-.47-.68-.71-1.25-.71Z"/><path class="cls-8" d="m326.34,84.38c-.27.53-.62.94-1.04,1.23-.42.29-.91.43-1.46.43-.92,0-1.64-.36-2.16-1.07-.52-.71-.78-1.82-.78-3.31v-5.85h1.89v5.87c0,1.08.12,1.83.37,2.26.25.43.62.65,1.13.65.46,0,.86-.11,1.18-.33.33-.22.58-.53.77-.93v-7.52h1.89v10.04h-1.61l-.19-1.47Z"/><path class="cls-8" d="m332.71,73.31v2.5h1.57v1.34h-1.57v5.97c0,.52.08.89.24,1.11.16.22.37.33.63.33.11,0,.21,0,.3-.03.09-.02.2-.05.33-.08l.19,1.3c-.18.09-.38.16-.6.21-.22.05-.45.08-.68.08-.72,0-1.29-.23-1.69-.7-.4-.47-.6-1.2-.6-2.21v-5.97h-1.33v-1.34h1.33v-2.5h1.89Z"/><path class="cls-8" d="m338,73.17h-1.89v-1.8h1.89v1.8Zm0,12.67h-1.89v-10.04h1.89v10.04Z"/><path class="cls-8" d="m342.31,85.85h-1.89v-14.47h1.89v14.47Z"/><path class="cls-8" d="m346.63,73.17h-1.89v-1.8h1.89v1.8Zm0,12.67h-1.89v-10.04h1.89v10.04Z"/><path class="cls-8" d="m350.69,84.42h4.89v1.43h-7v-1.19l4.63-7.39h-4.53v-1.46h6.69v1.17l-4.68,7.44Z"/><path class="cls-8" d="m362.52,85.85c-.08-.3-.14-.57-.19-.81-.05-.24-.08-.47-.09-.71-.27.49-.62.9-1.05,1.23-.44.32-.93.49-1.49.49-.9,0-1.58-.27-2.06-.8-.48-.53-.72-1.26-.72-2.18s.33-1.69,1-2.24c.66-.54,1.59-.82,2.78-.82h1.54v-1.03c0-.61-.14-1.09-.41-1.43s-.66-.51-1.17-.51c-.46,0-.82.15-1.09.45-.27.3-.4.68-.4,1.14h-1.8s-.02-.05-.02-.05c-.04-.78.27-1.47.91-2.06.64-.59,1.48-.89,2.52-.89s1.8.29,2.42.88.93,1.42.93,2.5v4.66c0,.38.02.76.07,1.12s.13.72.23,1.07h-1.91Zm-2.43-1.25c.51,0,.97-.16,1.36-.48s.66-.7.78-1.16v-1.78h-1.57c-.58,0-1.04.18-1.36.55-.33.37-.49.81-.49,1.33,0,.46.11.83.33,1.11s.54.42.95.42Z"/><path class="cls-8" d="m56.35,108.65h-1.89v-14.47h1.89v14.47Z"/><path class="cls-8" d="m62.28,108.84c-1.25,0-2.23-.46-2.94-1.37s-1.06-2.11-1.06-3.57v-.44c0-1.47.35-2.68,1.06-3.62s1.63-1.42,2.77-1.42,2.01.41,2.61,1.22c.6.81.89,1.9.89,3.27v1.06h-5.45c0,1.03.18,1.86.55,2.5.37.64.93.96,1.69.96.53,0,.98-.08,1.37-.25s.75-.4,1.08-.72l.61,1.17c-.33.35-.77.64-1.32.87-.55.23-1.17.35-1.87.35Zm-.18-8.97c-.54,0-.98.25-1.3.76-.32.5-.52,1.17-.6,2h3.55v-.21c0-.75-.13-1.37-.4-1.84-.27-.47-.68-.71-1.25-.71Z"/><path class="cls-8" d="m69.01,98.61l.11,1.49c.28-.53.64-.94,1.08-1.24.43-.29.92-.44,1.47-.44.89,0,1.58.33,2.08.98.5.66.75,1.68.75,3.06v6.18h-1.88v-6.17c0-.95-.13-1.61-.39-2s-.66-.58-1.19-.58c-.43,0-.8.11-1.11.34-.31.23-.56.54-.74.93v7.49h-1.89v-10.04h1.73Z"/><path class="cls-8" d="m79.08,96.11v2.5h1.57v1.35h-1.57v5.97c0,.52.08.89.24,1.11.16.22.37.33.63.33.11,0,.21,0,.3-.03.09-.02.2-.05.33-.08l.19,1.3c-.18.09-.38.16-.6.21-.22.05-.45.08-.68.08-.72,0-1.29-.23-1.69-.7-.4-.47-.6-1.2-.6-2.21v-5.97h-1.33v-1.35h1.33v-2.5h1.89Z"/><path class="cls-8" d="m85.98,108.84c-1.25,0-2.23-.46-2.94-1.37s-1.06-2.11-1.06-3.57v-.44c0-1.47.35-2.68,1.06-3.62s1.63-1.42,2.77-1.42,2.01.41,2.61,1.22c.6.81.89,1.9.89,3.27v1.06h-5.45c0,1.03.18,1.86.55,2.5.37.64.93.96,1.69.96.53,0,.98-.08,1.37-.25s.75-.4,1.08-.72l.61,1.17c-.33.35-.77.64-1.32.87-.55.23-1.17.35-1.87.35Zm-.18-8.97c-.54,0-.98.25-1.3.76-.32.5-.52,1.17-.6,2h3.55v-.21c0-.75-.13-1.37-.4-1.84-.27-.47-.68-.71-1.25-.71Z"/><path class="cls-8" d="m95.77,106.11c0-.39-.13-.72-.39-.98-.26-.26-.76-.56-1.49-.89-1.03-.39-1.81-.81-2.32-1.27-.51-.46-.77-1.05-.77-1.76,0-.77.31-1.43.93-1.98.62-.54,1.43-.82,2.43-.82s1.87.3,2.5.9.93,1.32.91,2.17l-.02.06h-1.82c0-.48-.14-.89-.42-1.23-.28-.34-.66-.51-1.15-.51s-.86.13-1.13.4-.4.58-.4.94c0,.38.12.69.35.9.23.22.73.5,1.49.85,1.05.37,1.84.8,2.37,1.29.53.49.79,1.1.79,1.84,0,.83-.32,1.51-.96,2.04-.64.52-1.48.78-2.52.78-1.12,0-2.01-.31-2.66-.94-.65-.63-.95-1.36-.92-2.2l.02-.06h1.75c.02.65.21,1.12.55,1.41.34.29.77.43,1.29.43s.89-.13,1.17-.38c.28-.26.42-.58.42-.98Z"/><path class="cls-8" d="m107.04,107.41c.46,0,.85-.18,1.16-.54.31-.36.47-.84.47-1.46h1.7l.02.06c.02.95-.29,1.74-.96,2.39-.66.65-1.46.97-2.39.97-1.24,0-2.19-.47-2.87-1.41s-1.01-2.15-1.01-3.61v-.35c0-1.46.34-2.66,1.01-3.61.67-.95,1.63-1.42,2.87-1.42,1,0,1.82.34,2.44,1.02.63.68.93,1.56.91,2.64l-.02.05h-1.71c0-.67-.15-1.21-.45-1.63-.3-.42-.69-.63-1.18-.63-.71,0-1.21.34-1.53,1.02-.31.68-.47,1.54-.47,2.57v.35c0,1.05.15,1.91.46,2.59.31.67.82,1.01,1.53,1.01Z"/><path class="cls-8" d="m111.77,103.52c0-1.49.35-2.71,1.06-3.66.71-.95,1.67-1.43,2.9-1.43s2.2.48,2.91,1.43c.71.95,1.06,2.17,1.06,3.66v.25c0,1.5-.35,2.72-1.06,3.66s-1.67,1.41-2.89,1.41-2.22-.47-2.92-1.41-1.06-2.16-1.06-3.66v-.25Zm1.89.25c0,1.07.17,1.95.51,2.63.34.68.87,1.02,1.57,1.02s1.2-.34,1.54-1.02c.34-.68.51-1.56.51-2.62v-.25c0-1.05-.17-1.92-.52-2.61-.35-.69-.87-1.03-1.56-1.03s-1.21.34-1.55,1.03c-.34.69-.51,1.56-.51,2.61v.25Z"/><path class="cls-8" d="m123.23,98.61l.1,1.36c.28-.49.63-.88,1.06-1.15.43-.27.93-.4,1.5-.4s1.04.15,1.45.46c.41.31.71.77.92,1.4.27-.58.62-1.04,1.06-1.36s.96-.49,1.56-.49c.87,0,1.56.35,2.05,1.06s.75,1.79.75,3.23v5.93h-1.89v-5.94c0-1.04-.13-1.78-.39-2.19-.26-.42-.65-.63-1.16-.63-.43,0-.8.16-1.09.48-.29.32-.51.75-.64,1.27,0,.11.01.23.02.35,0,.12,0,.24,0,.37v6.29h-1.88v-5.94c0-1.01-.13-1.73-.4-2.17-.27-.44-.65-.65-1.16-.65-.41,0-.75.11-1.04.33s-.51.53-.67.92v7.51h-1.89v-10.04h1.73Z"/><path class="cls-8" d="m144.33,100.18l-.82-.05c-.4,0-.73.12-.99.36-.26.24-.47.57-.61,1.01v7.15h-1.89v-10.04h1.73l.13,1.48c.22-.53.51-.94.85-1.23.35-.29.75-.44,1.2-.44.12,0,.23.01.33.03.1.02.19.05.27.08l-.21,1.64Z"/><path class="cls-8" d="m151.09,108.65c-.08-.3-.14-.57-.19-.81-.05-.24-.08-.47-.09-.71-.27.5-.62.9-1.05,1.23-.44.32-.93.49-1.49.49-.9,0-1.58-.27-2.06-.8-.48-.53-.72-1.26-.72-2.18s.33-1.69,1-2.24c.66-.54,1.59-.82,2.78-.82h1.54v-1.03c0-.61-.14-1.09-.41-1.43-.27-.34-.66-.51-1.17-.51-.46,0-.82.15-1.09.45-.27.3-.4.68-.4,1.14h-1.8s-.02-.05-.02-.05c-.04-.78.27-1.47.91-2.06.64-.59,1.48-.89,2.52-.89s1.8.29,2.42.88c.62.58.93,1.42.93,2.5v4.66c0,.38.02.76.07,1.12.05.36.13.72.23,1.07h-1.91Zm-2.43-1.25c.51,0,.97-.16,1.36-.48.4-.32.66-.7.78-1.15v-1.78h-1.57c-.58,0-1.04.18-1.36.55s-.49.81-.49,1.33c0,.46.11.83.33,1.11s.54.42.95.42Z"/><path class="cls-8" d="m156.86,95.97h-1.89v-1.8h1.89v1.8Zm0,12.67h-1.89v-10.04h1.89v10.04Z"/><path class="cls-8" d="m158.78,103.52c0-1.49.35-2.71,1.06-3.66.71-.95,1.67-1.43,2.9-1.43s2.2.48,2.91,1.43c.71.95,1.06,2.17,1.06,3.66v.25c0,1.5-.35,2.72-1.06,3.66s-1.67,1.41-2.89,1.41-2.22-.47-2.92-1.41-1.06-2.16-1.06-3.66v-.25Zm1.89.25c0,1.07.17,1.95.51,2.63.34.68.87,1.02,1.57,1.02s1.2-.34,1.54-1.02c.34-.68.51-1.56.51-2.62v-.25c0-1.05-.17-1.92-.52-2.61-.35-.69-.87-1.03-1.56-1.03s-1.21.34-1.55,1.03c-.34.69-.51,1.56-.51,2.61v.25Z"/><path class="cls-8" d="m180.25,98.59c0,.7-.18,1.32-.53,1.85-.35.54-.83.94-1.42,1.2.7.28,1.26.71,1.68,1.29.42.58.64,1.25.64,2.01,0,1.24-.38,2.2-1.13,2.88-.75.68-1.71,1.02-2.88,1.02s-2.23-.34-3.01-1.02-1.17-1.64-1.17-2.88c0-.77.22-1.44.65-2.02.43-.58,1.02-1.01,1.76-1.28-.63-.27-1.13-.67-1.49-1.2-.36-.53-.54-1.15-.54-1.85,0-1.17.35-2.08,1.05-2.7s1.62-.94,2.74-.94,1.95.31,2.63.94c.68.63,1.02,1.53,1.02,2.7Zm-1.53,6.31c0-.74-.2-1.35-.61-1.82-.41-.47-.91-.71-1.5-.71-.65,0-1.19.24-1.62.71-.43.47-.65,1.08-.65,1.82s.21,1.38.64,1.83c.43.46.97.68,1.63.68.61,0,1.11-.23,1.51-.69.4-.46.6-1.07.6-1.83Zm-.37-6.27c0-.66-.17-1.2-.5-1.61-.33-.41-.75-.62-1.25-.62-.56,0-1.02.2-1.37.6-.35.4-.52.95-.52,1.64s.18,1.25.53,1.67c.36.42.81.63,1.37.63.51,0,.92-.21,1.25-.63.32-.42.49-.98.49-1.67Z"/><path class="cls-8" d="m184.35,108.42l-1.21,2.74h-1.21l.56-2.8v-1.72h1.86v1.78Z"/><path class="cls-8" d="m186.63,102.63l.69-7.5h6.39v1.55h-4.81l-.37,4.06c.25-.23.54-.43.89-.58.34-.15.74-.23,1.19-.25,1.11-.01,1.97.37,2.6,1.16s.94,1.87.94,3.25-.33,2.44-.98,3.27c-.66.83-1.64,1.24-2.96,1.24-1.07,0-1.97-.32-2.7-.95-.73-.63-1.08-1.55-1.05-2.75l.02-.05,1.79-.04c0,.75.18,1.34.54,1.74s.83.61,1.41.61c.68,0,1.19-.26,1.53-.79.34-.53.51-1.28.51-2.27,0-.9-.17-1.61-.52-2.14-.35-.53-.85-.8-1.51-.8-.59,0-1.03.12-1.32.35-.29.23-.5.58-.63,1.03l-1.64-.16Z"/><path class="cls-8" d="m203.9,103.84c0,1.55-.36,2.77-1.08,3.66s-1.68,1.34-2.88,1.34-2.17-.45-2.89-1.34c-.72-.89-1.09-2.11-1.09-3.66v-3.89c0-1.53.36-2.75,1.08-3.66s1.68-1.35,2.88-1.35,2.17.45,2.89,1.35c.72.9,1.09,2.12,1.09,3.66v3.89Zm-1.91-4.16c0-1.02-.18-1.82-.54-2.41-.36-.59-.87-.88-1.53-.88s-1.16.29-1.52.88c-.36.59-.54,1.39-.54,2.41v4.42c0,1.02.18,1.83.55,2.42s.88.89,1.53.89,1.16-.3,1.52-.89c.36-.59.53-1.4.53-2.43v-4.42Z"/><path class="cls-8" d="m208.01,108.65h-1.9v-1.88h1.9v1.88Z"/><path class="cls-8" d="m214.93,108.65v-13.51h3.74c1.29,0,2.3.3,3.03.91.73.61,1.09,1.52,1.09,2.73,0,.63-.16,1.19-.47,1.68-.31.49-.75.85-1.32,1.08.79.13,1.39.5,1.81,1.12.42.62.64,1.34.64,2.18,0,1.24-.36,2.19-1.07,2.84-.71.65-1.7.98-2.96.98h-4.49Zm1.88-7.65h2.14c.61-.02,1.08-.21,1.42-.59.34-.37.51-.9.51-1.59,0-.74-.19-1.3-.57-1.67-.38-.37-.93-.56-1.66-.56h-1.86v4.41Zm0,1.35v4.87h2.61c.68,0,1.21-.21,1.58-.62.37-.41.56-1,.56-1.77s-.18-1.34-.54-1.78c-.36-.45-.87-.68-1.53-.71h-2.67Z"/><path class="cls-8" d="m230.43,108.65c-.08-.3-.14-.57-.19-.81-.05-.24-.08-.47-.09-.71-.27.5-.62.9-1.05,1.23-.44.32-.93.49-1.49.49-.9,0-1.58-.27-2.06-.8-.48-.53-.72-1.26-.72-2.18s.33-1.69,1-2.24c.66-.54,1.59-.82,2.78-.82h1.54v-1.03c0-.61-.14-1.09-.41-1.43-.27-.34-.66-.51-1.17-.51-.46,0-.82.15-1.09.45-.27.3-.4.68-.4,1.14h-1.8s-.02-.05-.02-.05c-.04-.78.27-1.47.91-2.06.64-.59,1.48-.89,2.52-.89s1.8.29,2.42.88c.62.58.93,1.42.93,2.5v4.66c0,.38.02.76.07,1.12.05.36.13.72.23,1.07h-1.91Zm-2.43-1.25c.51,0,.97-.16,1.36-.48.4-.32.66-.7.78-1.15v-1.78h-1.57c-.58,0-1.04.18-1.36.55s-.49.81-.49,1.33c0,.46.11.83.33,1.11s.54.42.95.42Z"/><path class="cls-8" d="m238.94,106.11c0-.39-.13-.72-.39-.98-.26-.26-.76-.56-1.49-.89-1.03-.39-1.81-.81-2.32-1.27-.51-.46-.77-1.05-.77-1.76,0-.77.31-1.43.93-1.98.62-.54,1.43-.82,2.43-.82s1.87.3,2.5.9.93,1.32.91,2.17l-.02.06h-1.82c0-.48-.14-.89-.42-1.23-.28-.34-.66-.51-1.15-.51s-.86.13-1.13.4-.4.58-.4.94c0,.38.12.69.35.9.23.22.73.5,1.49.85,1.05.37,1.84.8,2.37,1.29.53.49.79,1.1.79,1.84,0,.83-.32,1.51-.96,2.04-.64.52-1.48.78-2.52.78-1.12,0-2.01-.31-2.66-.94-.65-.63-.95-1.36-.92-2.2l.02-.06h1.75c.02.65.21,1.12.55,1.41.34.29.77.43,1.29.43s.89-.13,1.17-.38c.28-.26.42-.58.42-.98Z"/><path class="cls-8" d="m244.97,96.11v2.5h1.57v1.35h-1.57v5.97c0,.52.08.89.24,1.11.16.22.37.33.63.33.11,0,.21,0,.3-.03.09-.02.2-.05.33-.08l.19,1.3c-.18.09-.38.16-.6.21-.22.05-.45.08-.68.08-.72,0-1.29-.23-1.69-.7-.4-.47-.6-1.2-.6-2.21v-5.97h-1.33v-1.35h1.33v-2.5h1.89Z"/><path class="cls-8" d="m253.46,108.65c-.08-.3-.14-.57-.19-.81-.05-.24-.08-.47-.09-.71-.27.5-.62.9-1.05,1.23-.44.32-.93.49-1.49.49-.9,0-1.58-.27-2.06-.8-.48-.53-.72-1.26-.72-2.18s.33-1.69,1-2.24c.66-.54,1.59-.82,2.78-.82h1.54v-1.03c0-.61-.14-1.09-.41-1.43-.27-.34-.66-.51-1.17-.51-.46,0-.82.15-1.09.45-.27.3-.4.68-.4,1.14h-1.8s-.02-.05-.02-.05c-.04-.78.27-1.47.91-2.06.64-.59,1.48-.89,2.52-.89s1.8.29,2.42.88c.62.58.93,1.42.93,2.5v4.66c0,.38.02.76.07,1.12.05.36.13.72.23,1.07h-1.91Zm-2.43-1.25c.51,0,.97-.16,1.36-.48.4-.32.66-.7.78-1.15v-1.78h-1.57c-.58,0-1.04.18-1.36.55s-.49.81-.49,1.33c0,.46.11.83.33,1.11s.54.42.95.42Z"/><path class="cls-8" d="m259.08,108.42l-1.21,2.74h-1.21l.56-2.8v-1.72h1.86v1.78Z"/><path class="cls-8" d="m268.86,108.84c-1.25,0-2.23-.46-2.94-1.37s-1.06-2.11-1.06-3.57v-.44c0-1.47.35-2.68,1.06-3.62s1.63-1.42,2.77-1.42,2.01.41,2.61,1.22c.6.81.89,1.9.89,3.27v1.06h-5.45c0,1.03.18,1.86.55,2.5.37.64.93.96,1.69.96.53,0,.98-.08,1.37-.25s.75-.4,1.08-.72l.61,1.17c-.33.35-.77.64-1.32.87-.55.23-1.17.35-1.87.35Zm-.18-8.97c-.54,0-.98.25-1.3.76-.32.5-.52,1.17-.6,2h3.55v-.21c0-.75-.13-1.37-.4-1.84-.27-.47-.68-.71-1.25-.71Z"/><path class="cls-8" d="m275.6,98.61l.11,1.49c.28-.53.64-.94,1.08-1.24.43-.29.92-.44,1.47-.44.89,0,1.58.33,2.08.98.5.66.75,1.68.75,3.06v6.18h-1.88v-6.17c0-.95-.13-1.61-.39-2s-.66-.58-1.19-.58c-.43,0-.8.11-1.11.34-.31.23-.56.54-.74.93v7.49h-1.89v-10.04h1.73Z"/><path class="cls-8" d="m285.66,96.11v2.5h1.57v1.35h-1.57v5.97c0,.52.08.89.24,1.11.16.22.37.33.63.33.11,0,.21,0,.3-.03.09-.02.2-.05.33-.08l.19,1.3c-.18.09-.38.16-.6.21-.22.05-.45.08-.68.08-.72,0-1.29-.23-1.69-.7-.4-.47-.6-1.2-.6-2.21v-5.97h-1.33v-1.35h1.33v-2.5h1.89Z"/><path class="cls-8" d="m294.15,108.65c-.08-.3-.14-.57-.19-.81-.05-.24-.08-.47-.09-.71-.27.5-.62.9-1.05,1.23-.44.32-.93.49-1.49.49-.9,0-1.58-.27-2.06-.8-.48-.53-.72-1.26-.72-2.18s.33-1.69,1-2.24c.66-.54,1.59-.82,2.78-.82h1.54v-1.03c0-.61-.14-1.09-.41-1.43-.27-.34-.66-.51-1.17-.51-.46,0-.82.15-1.09.45-.27.3-.4.68-.4,1.14h-1.8s-.02-.05-.02-.05c-.04-.78.27-1.47.91-2.06.64-.59,1.48-.89,2.52-.89s1.8.29,2.42.88c.62.58.93,1.42.93,2.5v4.66c0,.38.02.76.07,1.12.05.36.13.72.23,1.07h-1.91Zm.99-14.06c0,.57-.16,1.05-.47,1.44s-.71.58-1.18.58c-.38,0-.79-.15-1.23-.45-.44-.3-.79-.45-1.07-.45-.22,0-.4.1-.54.31-.14.21-.21.46-.21.77l-1.03-.26c0-.56.16-1.04.47-1.44.31-.4.71-.6,1.18-.6.31,0,.7.15,1.18.46.48.31.85.46,1.12.46.2,0,.38-.1.53-.32s.23-.47.23-.78l1.02.29Zm-3.42,12.81c.51,0,.97-.16,1.36-.48.4-.32.66-.7.78-1.15v-1.78h-1.57c-.58,0-1.04.18-1.36.55s-.49.81-.49,1.33c0,.46.11.83.33,1.11s.54.42.95.42Z"/><path class="cls-8" d="m297.53,103.52c0-1.49.35-2.71,1.06-3.66.71-.95,1.67-1.43,2.9-1.43s2.2.48,2.91,1.43c.71.95,1.06,2.17,1.06,3.66v.25c0,1.5-.35,2.72-1.06,3.66s-1.67,1.41-2.89,1.41-2.22-.47-2.92-1.41-1.06-2.16-1.06-3.66v-.25Zm1.89.25c0,1.07.17,1.95.51,2.63.34.68.87,1.02,1.57,1.02s1.2-.34,1.54-1.02c.34-.68.51-1.56.51-2.62v-.25c0-1.05-.17-1.92-.52-2.61-.35-.69-.87-1.03-1.56-1.03s-1.21.34-1.55,1.03c-.34.69-.51,1.56-.51,2.61v.25Z"/><path class="cls-8" d="m309.13,108.42l-1.21,2.74h-1.21l.56-2.8v-1.72h1.86v1.78Z"/><path class="cls-8" d="m319.58,100.18l-.82-.05c-.4,0-.73.12-.99.36-.26.24-.47.57-.61,1.01v7.15h-1.89v-10.04h1.73l.13,1.48c.22-.53.51-.94.85-1.23.35-.29.75-.44,1.2-.44.12,0,.23.01.33.03.1.02.19.05.27.08l-.21,1.64Z"/><path class="cls-8" d="m324.57,108.84c-1.25,0-2.23-.46-2.94-1.37s-1.06-2.11-1.06-3.57v-.44c0-1.47.35-2.68,1.06-3.62s1.63-1.42,2.77-1.42,2.01.41,2.61,1.22c.6.81.89,1.9.89,3.27v1.06h-5.45c0,1.03.18,1.86.55,2.5.37.64.93.96,1.69.96.53,0,.98-.08,1.37-.25s.75-.4,1.08-.72l.61,1.17c-.33.35-.77.64-1.32.87-.55.23-1.17.35-1.87.35Zm-.18-8.97c-.54,0-.98.25-1.3.76-.32.5-.52,1.17-.6,2h3.55v-.21c0-.75-.13-1.37-.4-1.84-.27-.47-.68-.71-1.25-.71Z"/><path class="cls-8" d="m334.81,108.65c-.08-.3-.14-.57-.19-.81-.05-.24-.08-.47-.09-.71-.27.5-.62.9-1.05,1.23-.44.32-.93.49-1.49.49-.9,0-1.58-.27-2.06-.8-.48-.53-.72-1.26-.72-2.18s.33-1.69,1-2.24c.66-.54,1.59-.82,2.78-.82h1.54v-1.03c0-.61-.14-1.09-.41-1.43-.27-.34-.66-.51-1.17-.51-.46,0-.82.15-1.09.45-.27.3-.4.68-.4,1.14h-1.8s-.02-.05-.02-.05c-.04-.78.27-1.47.91-2.06.64-.59,1.48-.89,2.52-.89s1.8.29,2.42.88c.62.58.93,1.42.93,2.5v4.66c0,.38.02.76.07,1.12.05.36.13.72.23,1.07h-1.91Zm-2.43-1.25c.51,0,.97-.16,1.36-.48.4-.32.66-.7.78-1.15v-1.78h-1.57c-.58,0-1.04.18-1.36.55s-.49.81-.49,1.33c0,.46.11.83.33,1.11s.54.42.95.42Z"/><path class="cls-8" d="m340.59,108.65h-1.89v-14.47h1.89v14.47Z"/><path class="cls-8" d="m344.9,95.97h-1.89v-1.8h1.89v1.8Zm0,12.67h-1.89v-10.04h1.89v10.04Z"/><path class="cls-8" d="m348.96,107.22h4.89v1.43h-7v-1.19l4.63-7.39h-4.53v-1.46h6.69v1.17l-4.68,7.44Z"/><path class="cls-8" d="m360.79,108.65c-.08-.3-.14-.57-.19-.81-.05-.24-.08-.47-.09-.71-.27.5-.62.9-1.05,1.23-.44.32-.93.49-1.49.49-.9,0-1.58-.27-2.06-.8-.48-.53-.72-1.26-.72-2.18s.33-1.69,1-2.24c.66-.54,1.59-.82,2.78-.82h1.54v-1.03c0-.61-.14-1.09-.41-1.43-.27-.34-.66-.51-1.17-.51-.46,0-.82.15-1.09.45-.27.3-.4.68-.4,1.14h-1.8s-.02-.05-.02-.05c-.04-.78.27-1.47.91-2.06.64-.59,1.48-.89,2.52-.89s1.8.29,2.42.88c.62.58.93,1.42.93,2.5v4.66c0,.38.02.76.07,1.12.05.36.13.72.23,1.07h-1.91Zm-2.43-1.25c.51,0,.97-.16,1.36-.48.4-.32.66-.7.78-1.15v-1.78h-1.57c-.58,0-1.04.18-1.36.55s-.49.81-.49,1.33c0,.46.11.83.33,1.11s.54.42.95.42Z"/><path class="cls-8" d="m368.85,100.18l-.82-.05c-.4,0-.73.12-.99.36-.26.24-.47.57-.61,1.01v7.15h-1.89v-10.04h1.73l.13,1.48c.22-.53.51-.94.85-1.23.35-.29.75-.44,1.2-.44.12,0,.23.01.33.03.1.02.19.05.27.08l-.21,1.64Z"/><path class="cls-8" d="m374.19,103.52c0-1.49.35-2.71,1.06-3.66.71-.95,1.67-1.43,2.9-1.43s2.2.48,2.91,1.43c.71.95,1.06,2.17,1.06,3.66v.25c0,1.5-.35,2.72-1.06,3.66s-1.67,1.41-2.89,1.41-2.22-.47-2.92-1.41-1.06-2.16-1.06-3.66v-.25Zm1.89.25c0,1.07.17,1.95.51,2.63.34.68.87,1.02,1.57,1.02s1.2-.34,1.54-1.02c.34-.68.51-1.56.51-2.62v-.25c0-1.05-.17-1.92-.52-2.61-.35-.69-.87-1.03-1.56-1.03s-1.21.34-1.55,1.03c-.34.69-.51,1.56-.51,2.61v.25Z"/><path class="cls-8" d="m57.82,130.21c.46,0,.85-.18,1.16-.54.31-.36.47-.84.47-1.46h1.7l.02.06c.02.95-.29,1.74-.96,2.39-.66.65-1.46.97-2.39.97-1.24,0-2.19-.47-2.87-1.41-.67-.94-1.01-2.15-1.01-3.61v-.35c0-1.46.34-2.66,1.01-3.61.67-.95,1.63-1.42,2.87-1.42,1,0,1.82.34,2.44,1.02.63.68.93,1.56.91,2.64l-.02.05h-1.71c0-.67-.15-1.21-.45-1.63-.3-.42-.69-.63-1.18-.63-.71,0-1.21.34-1.53,1.02-.31.68-.47,1.54-.47,2.57v.35c0,1.05.15,1.91.46,2.59.31.67.82,1.01,1.53,1.01Z"/><path class="cls-8" d="m68.15,131.45c-.08-.3-.14-.57-.19-.81-.05-.24-.08-.47-.09-.71-.27.5-.62.9-1.05,1.23-.44.32-.93.49-1.49.49-.9,0-1.58-.27-2.06-.8-.48-.53-.72-1.26-.72-2.18s.33-1.69,1-2.24c.66-.54,1.59-.82,2.78-.82h1.54v-1.03c0-.61-.14-1.09-.41-1.43-.27-.34-.66-.51-1.17-.51-.46,0-.82.15-1.09.45-.27.3-.4.68-.4,1.14h-1.8s-.02-.05-.02-.05c-.04-.78.27-1.47.91-2.06.64-.59,1.48-.89,2.52-.89s1.8.29,2.42.88c.62.58.93,1.42.93,2.5v4.66c0,.38.02.76.07,1.12.05.36.13.72.23,1.07h-1.91Zm-2.43-1.25c.51,0,.97-.16,1.36-.48.4-.32.66-.7.78-1.15v-1.78h-1.57c-.58,0-1.04.18-1.36.55-.33.37-.49.81-.49,1.33,0,.46.11.83.33,1.11s.54.42.95.42Zm1.28-13.05h2.16l.03.05-2.24,2.42h-1.58l1.63-2.47Z"/><path class="cls-8" d="m73.92,131.45h-1.89v-14.47h1.89v14.47Z"/><path class="cls-8" d="m79.71,130.21c.46,0,.85-.18,1.16-.54.31-.36.47-.84.47-1.46h1.7l.02.06c.02.95-.29,1.74-.96,2.39-.66.65-1.46.97-2.39.97-1.24,0-2.19-.47-2.87-1.41-.67-.94-1.01-2.15-1.01-3.61v-.35c0-1.46.34-2.66,1.01-3.61.67-.95,1.63-1.42,2.87-1.42,1,0,1.82.34,2.44,1.02.63.68.93,1.56.91,2.64l-.02.05h-1.71c0-.67-.15-1.21-.45-1.63-.3-.42-.69-.63-1.18-.63-.71,0-1.21.34-1.53,1.02-.31.68-.47,1.54-.47,2.57v.35c0,1.05.15,1.91.46,2.59.31.67.82,1.01,1.53,1.01Z"/><path class="cls-8" d="m90.22,129.98c-.27.53-.62.94-1.04,1.23-.42.29-.91.43-1.46.43-.92,0-1.64-.36-2.16-1.07-.52-.71-.78-1.81-.78-3.31v-5.85h1.89v5.87c0,1.08.12,1.83.37,2.26.25.43.62.64,1.13.64.46,0,.86-.11,1.18-.32.33-.22.58-.53.77-.93v-7.52h1.89v10.04h-1.61l-.19-1.47Z"/><path class="cls-8" d="m96.18,131.45h-1.89v-14.47h1.89v14.47Z"/><path class="cls-8" d="m98.11,126.32c0-1.49.35-2.71,1.06-3.66.71-.95,1.67-1.43,2.9-1.43s2.2.48,2.91,1.43c.71.95,1.06,2.17,1.06,3.66v.25c0,1.5-.35,2.72-1.06,3.66-.71.94-1.67,1.41-2.89,1.41s-2.22-.47-2.92-1.41c-.71-.94-1.06-2.16-1.06-3.66v-.25Zm1.89.25c0,1.07.17,1.95.51,2.63.34.68.87,1.02,1.57,1.02s1.2-.34,1.54-1.02c.34-.68.51-1.56.51-2.62v-.25c0-1.05-.17-1.92-.52-2.61-.35-.69-.87-1.03-1.56-1.03s-1.21.34-1.55,1.03c-.34.69-.51,1.56-.51,2.61v.25Z"/><path class="cls-8" d="m119.55,126.74c0,1.48-.3,2.67-.89,3.56s-1.41,1.34-2.47,1.34c-.49,0-.93-.1-1.31-.29-.38-.19-.7-.48-.97-.86v4.81h-1.89v-13.9h1.6l.18,1.21c.27-.45.61-.8,1-1.03.4-.24.86-.36,1.38-.36,1.06,0,1.89.49,2.48,1.46s.89,2.26.89,3.87v.19Zm-1.89-.19c0-1.14-.17-2.07-.5-2.78-.33-.72-.83-1.08-1.49-1.08-.42,0-.78.12-1.07.35-.29.23-.52.55-.7.94v5.06c.17.38.4.67.7.87s.65.31,1.08.31c.66,0,1.16-.32,1.48-.95s.49-1.47.49-2.52v-.19Z"/><path class="cls-8" d="m126.58,131.45c-.08-.3-.14-.57-.19-.81-.05-.24-.08-.47-.09-.71-.27.5-.62.9-1.05,1.23-.44.32-.93.49-1.49.49-.9,0-1.58-.27-2.06-.8-.48-.53-.72-1.26-.72-2.18s.33-1.69,1-2.24c.66-.54,1.59-.82,2.78-.82h1.54v-1.03c0-.61-.14-1.09-.41-1.43-.27-.34-.66-.51-1.17-.51-.46,0-.82.15-1.09.45-.27.3-.4.68-.4,1.14h-1.8s-.02-.05-.02-.05c-.04-.78.27-1.47.91-2.06.64-.59,1.48-.89,2.52-.89s1.8.29,2.42.88c.62.58.93,1.42.93,2.5v4.66c0,.38.02.76.07,1.12.05.36.13.72.23,1.07h-1.91Zm-2.43-1.25c.51,0,.97-.16,1.36-.48.4-.32.66-.7.78-1.15v-1.78h-1.57c-.58,0-1.04.18-1.36.55-.33.37-.49.81-.49,1.33,0,.46.11.83.33,1.11s.54.42.95.42Z"/><path class="cls-8" d="m134.64,122.98l-.82-.05c-.4,0-.73.12-.99.36-.26.24-.47.57-.61,1.01v7.15h-1.89v-10.04h1.73l.13,1.48c.22-.53.51-.94.85-1.23.35-.29.75-.44,1.2-.44.12,0,.23.01.33.03.1.02.19.05.27.08l-.21,1.64Z"/><path class="cls-8" d="m141.39,131.45c-.08-.3-.14-.57-.19-.81-.05-.24-.08-.47-.09-.71-.27.5-.62.9-1.05,1.23-.44.32-.93.49-1.49.49-.9,0-1.58-.27-2.06-.8-.48-.53-.72-1.26-.72-2.18s.33-1.69,1-2.24c.66-.54,1.59-.82,2.78-.82h1.54v-1.03c0-.61-.14-1.09-.41-1.43-.27-.34-.66-.51-1.17-.51-.46,0-.82.15-1.09.45-.27.3-.4.68-.4,1.14h-1.8s-.02-.05-.02-.05c-.04-.78.27-1.47.91-2.06.64-.59,1.48-.89,2.52-.89s1.8.29,2.42.88c.62.58.93,1.42.93,2.5v4.66c0,.38.02.76.07,1.12.05.36.13.72.23,1.07h-1.91Zm-2.43-1.25c.51,0,.97-.16,1.36-.48.4-.32.66-.7.78-1.15v-1.78h-1.57c-.58,0-1.04.18-1.36.55-.33.37-.49.81-.49,1.33,0,.46.11.83.33,1.11s.54.42.95.42Z"/><path class="cls-8" d="m148.97,126.55c0-1.61.29-2.9.88-3.87s1.41-1.46,2.48-1.46c.48,0,.9.11,1.28.32.38.21.7.52.97.92v-5.49h1.88v14.47h-1.56l-.19-1.21c-.28.46-.62.81-1.02,1.04-.4.24-.86.36-1.38.36-1.06,0-1.88-.45-2.46-1.34-.58-.89-.88-2.08-.88-3.56v-.19Zm1.88.19c0,1.05.16,1.89.47,2.51.32.62.81.93,1.47.93.42,0,.78-.11,1.07-.33.29-.22.53-.54.72-.95v-4.86c-.19-.41-.43-.74-.72-.99-.3-.24-.65-.37-1.06-.37-.67,0-1.16.36-1.48,1.07-.32.71-.48,1.64-.48,2.79v.19Z"/><path class="cls-8" d="m162.31,131.64c-1.25,0-2.23-.46-2.94-1.37-.71-.92-1.06-2.11-1.06-3.57v-.44c0-1.47.35-2.68,1.06-3.62s1.63-1.42,2.77-1.42,2.01.41,2.61,1.22c.6.81.89,1.9.89,3.27v1.06h-5.45c0,1.03.18,1.86.55,2.5.37.64.93.96,1.69.96.53,0,.98-.08,1.37-.25.39-.16.75-.4,1.08-.72l.61,1.17c-.33.35-.77.64-1.32.87-.55.23-1.17.35-1.87.35Zm-.18-8.97c-.54,0-.98.25-1.3.76-.32.5-.52,1.17-.6,2h3.55v-.21c0-.75-.13-1.37-.4-1.84-.27-.47-.68-.71-1.25-.71Z"/><path class="cls-8" d="m172.09,128.91c0-.39-.13-.72-.39-.98-.26-.26-.76-.56-1.49-.89-1.03-.39-1.81-.81-2.32-1.27-.51-.46-.77-1.05-.77-1.76,0-.77.31-1.43.93-1.98.62-.54,1.43-.82,2.43-.82s1.87.3,2.5.9.93,1.32.91,2.17l-.02.06h-1.82c0-.48-.14-.89-.42-1.23-.28-.34-.66-.51-1.15-.51s-.86.13-1.13.4-.4.58-.4.94c0,.38.12.69.35.9.23.22.73.5,1.49.85,1.05.37,1.84.8,2.37,1.29.53.49.79,1.1.79,1.84,0,.83-.32,1.51-.96,2.04-.64.52-1.48.78-2.52.78-1.12,0-2.01-.31-2.66-.94-.65-.63-.95-1.36-.92-2.2l.02-.06h1.75c.02.65.21,1.12.55,1.41.34.29.77.43,1.29.43s.89-.13,1.17-.38c.28-.26.42-.58.42-.98Z"/><path class="cls-8" d="m179.19,130.21c.46,0,.85-.18,1.16-.54.31-.36.47-.84.47-1.46h1.7l.02.06c.02.95-.29,1.74-.96,2.39-.66.65-1.46.97-2.39.97-1.24,0-2.19-.47-2.87-1.41-.67-.94-1.01-2.15-1.01-3.61v-.35c0-1.46.34-2.66,1.01-3.61.67-.95,1.63-1.42,2.87-1.42,1,0,1.82.34,2.44,1.02.63.68.93,1.56.91,2.64l-.02.05h-1.71c0-.67-.15-1.21-.45-1.63-.3-.42-.69-.63-1.18-.63-.71,0-1.21.34-1.53,1.02-.31.68-.47,1.54-.47,2.57v.35c0,1.05.15,1.91.46,2.59.31.67.82,1.01,1.53,1.01Z"/><path class="cls-8" d="m183.92,126.32c0-1.49.35-2.71,1.06-3.66.71-.95,1.67-1.43,2.9-1.43s2.2.48,2.91,1.43c.71.95,1.06,2.17,1.06,3.66v.25c0,1.5-.35,2.72-1.06,3.66-.71.94-1.67,1.41-2.89,1.41s-2.22-.47-2.92-1.41c-.71-.94-1.06-2.16-1.06-3.66v-.25Zm1.89.25c0,1.07.17,1.95.51,2.63.34.68.87,1.02,1.57,1.02s1.2-.34,1.54-1.02c.34-.68.51-1.56.51-2.62v-.25c0-1.05-.17-1.92-.52-2.61-.35-.69-.87-1.03-1.56-1.03s-1.21.34-1.55,1.03c-.34.69-.51,1.56-.51,2.61v.25Z"/><path class="cls-8" d="m201.2,126.74c0,1.48-.29,2.67-.88,3.56-.58.89-1.41,1.34-2.48,1.34-.54,0-1.02-.12-1.42-.37-.41-.24-.74-.6-1.01-1.07l-.2,1.24h-1.55v-14.47h1.89v5.52c.27-.41.59-.72.96-.94.38-.22.82-.33,1.32-.33,1.08,0,1.91.48,2.49,1.45.58.97.88,2.26.88,3.87v.19Zm-1.89-.19c0-1.16-.15-2.1-.46-2.8s-.8-1.06-1.48-1.06c-.44,0-.81.13-1.1.38s-.53.6-.71,1.03v4.75c.17.43.4.76.7.99.3.23.68.35,1.13.35.67,0,1.16-.31,1.47-.92.31-.62.46-1.46.46-2.52v-.19Z"/><path class="cls-8" d="m207.31,122.98l-.82-.05c-.4,0-.73.12-.99.36-.26.24-.47.57-.61,1.01v7.15h-1.89v-10.04h1.73l.13,1.48c.22-.53.51-.94.85-1.23.35-.29.75-.44,1.2-.44.12,0,.23.01.33.03.1.02.19.05.27.08l-.21,1.64Z"/><path class="cls-8" d="m210.86,118.77h-1.89v-1.8h1.89v1.8Zm0,12.67h-1.89v-10.04h1.89v10.04Z"/><path class="cls-8" d="m217.47,122.98l-.82-.05c-.4,0-.73.12-.99.36-.26.24-.47.57-.61,1.01v7.15h-1.89v-10.04h1.73l.13,1.48c.22-.53.51-.94.85-1.23.35-.29.75-.44,1.2-.44.12,0,.23.01.33.03.1.02.19.05.27.08l-.21,1.64Z"/><path class="cls-8" d="m228.4,131.45c-.08-.3-.14-.57-.19-.81-.05-.24-.08-.47-.09-.71-.27.5-.62.9-1.05,1.23-.44.32-.93.49-1.49.49-.9,0-1.58-.27-2.06-.8-.48-.53-.72-1.26-.72-2.18s.33-1.69,1-2.24c.66-.54,1.59-.82,2.78-.82h1.54v-1.03c0-.61-.14-1.09-.41-1.43-.27-.34-.66-.51-1.17-.51-.46,0-.82.15-1.09.45-.27.3-.4.68-.4,1.14h-1.8s-.02-.05-.02-.05c-.04-.78.27-1.47.91-2.06.64-.59,1.48-.89,2.52-.89s1.8.29,2.42.88c.62.58.93,1.42.93,2.5v4.66c0,.38.02.76.07,1.12.05.36.13.72.23,1.07h-1.91Zm-2.43-1.25c.51,0,.97-.16,1.36-.48.4-.32.66-.7.78-1.15v-1.78h-1.57c-.58,0-1.04.18-1.36.55-.33.37-.49.81-.49,1.33,0,.46.11.83.33,1.11s.54.42.95.42Z"/><path class="cls-8" d="m235.98,126.55c0-1.61.29-2.9.88-3.87s1.41-1.46,2.48-1.46c.48,0,.9.11,1.28.32.38.21.7.52.97.92v-5.49h1.88v14.47h-1.56l-.19-1.21c-.28.46-.62.81-1.02,1.04-.4.24-.86.36-1.38.36-1.06,0-1.88-.45-2.46-1.34-.58-.89-.88-2.08-.88-3.56v-.19Zm1.88.19c0,1.05.16,1.89.47,2.51.32.62.81.93,1.47.93.42,0,.78-.11,1.07-.33.29-.22.53-.54.72-.95v-4.86c-.19-.41-.43-.74-.72-.99-.3-.24-.65-.37-1.06-.37-.67,0-1.16.36-1.48,1.07-.32.71-.48,1.64-.48,2.79v.19Z"/><path class="cls-8" d="m247.69,118.77h-1.89v-1.8h1.89v1.8Zm0,12.67h-1.89v-10.04h1.89v10.04Z"/><path class="cls-8" d="m249.61,126.32c0-1.49.35-2.71,1.06-3.66.71-.95,1.67-1.43,2.9-1.43s2.2.48,2.91,1.43c.71.95,1.06,2.17,1.06,3.66v.25c0,1.5-.35,2.72-1.06,3.66-.71.94-1.67,1.41-2.89,1.41s-2.22-.47-2.92-1.41c-.71-.94-1.06-2.16-1.06-3.66v-.25Zm1.89.25c0,1.07.17,1.95.51,2.63.34.68.87,1.02,1.57,1.02s1.2-.34,1.54-1.02c.34-.68.51-1.56.51-2.62v-.25c0-1.05-.17-1.92-.52-2.61-.35-.69-.87-1.03-1.56-1.03s-1.21.34-1.55,1.03c-.34.69-.51,1.56-.51,2.61v.25Z"/><path class="cls-8" d="m266.88,126.74c0,1.48-.3,2.67-.89,3.56s-1.41,1.34-2.47,1.34c-.49,0-.93-.1-1.31-.29-.38-.19-.7-.48-.97-.86v4.81h-1.89v-13.9h1.6l.18,1.21c.27-.45.61-.8,1-1.03.4-.24.86-.36,1.38-.36,1.06,0,1.89.49,2.48,1.46s.89,2.26.89,3.87v.19Zm-1.89-.19c0-1.14-.17-2.07-.5-2.78-.33-.72-.83-1.08-1.49-1.08-.42,0-.78.12-1.07.35-.29.23-.52.55-.7.94v5.06c.17.38.4.67.7.87s.65.31,1.08.31c.66,0,1.16-.32,1.48-.95s.49-1.47.49-2.52v-.19Z"/><path class="cls-8" d="m271.12,118.91v2.5h1.57v1.35h-1.57v5.97c0,.52.08.89.24,1.11.16.22.37.33.63.33.11,0,.21,0,.3-.03.09-.02.2-.05.33-.08l.19,1.3c-.18.09-.38.16-.6.21-.22.05-.45.08-.68.08-.72,0-1.29-.23-1.69-.7-.4-.47-.6-1.2-.6-2.21v-5.97h-1.33v-1.35h1.33v-2.5h1.89Z"/><path class="cls-8" d="m278.7,122.98l-.82-.05c-.4,0-.73.12-.99.36-.26.24-.47.57-.61,1.01v7.15h-1.89v-10.04h1.73l.13,1.48c.22-.53.51-.94.85-1.23.35-.29.75-.44,1.2-.44.12,0,.23.01.33.03.1.02.19.05.27.08l-.21,1.64Z"/><path class="cls-8" d="m282.25,118.77h-1.89v-1.8h1.89v1.8Zm0,12.67h-1.89v-10.04h1.89v10.04Z"/><path class="cls-8" d="m289.77,131.45c-.08-.3-.14-.57-.19-.81-.05-.24-.08-.47-.09-.71-.27.5-.62.9-1.05,1.23-.44.32-.93.49-1.49.49-.9,0-1.58-.27-2.06-.8-.48-.53-.72-1.26-.72-2.18s.33-1.69,1-2.24c.66-.54,1.59-.82,2.78-.82h1.54v-1.03c0-.61-.14-1.09-.41-1.43-.27-.34-.66-.51-1.17-.51-.46,0-.82.15-1.09.45-.27.3-.4.68-.4,1.14h-1.8s-.02-.05-.02-.05c-.04-.78.27-1.47.91-2.06.64-.59,1.48-.89,2.52-.89s1.8.29,2.42.88c.62.58.93,1.42.93,2.5v4.66c0,.38.02.76.07,1.12.05.36.13.72.23,1.07h-1.91Zm-2.43-1.25c.51,0,.97-.16,1.36-.48.4-.32.66-.7.78-1.15v-1.78h-1.57c-.58,0-1.04.18-1.36.55-.33.37-.49.81-.49,1.33,0,.46.11.83.33,1.11s.54.42.95.42Z"/><path class="cls-8" d="m297.35,126.55c0-1.61.29-2.9.88-3.87s1.41-1.46,2.48-1.46c.48,0,.9.11,1.28.32.38.21.7.52.97.92v-5.49h1.88v14.47h-1.56l-.19-1.21c-.28.46-.62.81-1.02,1.04-.4.24-.86.36-1.38.36-1.06,0-1.88-.45-2.46-1.34-.58-.89-.88-2.08-.88-3.56v-.19Zm1.88.19c0,1.05.16,1.89.47,2.51.32.62.81.93,1.47.93.42,0,.78-.11,1.07-.33.29-.22.53-.54.72-.95v-4.86c-.19-.41-.43-.74-.72-.99-.3-.24-.65-.37-1.06-.37-.67,0-1.16.36-1.48,1.07-.32.71-.48,1.64-.48,2.79v.19Z"/><path class="cls-8" d="m312.26,131.45c-.08-.3-.14-.57-.19-.81-.05-.24-.08-.47-.09-.71-.27.5-.62.9-1.05,1.23-.44.32-.93.49-1.49.49-.9,0-1.58-.27-2.06-.8-.48-.53-.72-1.26-.72-2.18s.33-1.69,1-2.24c.66-.54,1.59-.82,2.78-.82h1.54v-1.03c0-.61-.14-1.09-.41-1.43-.27-.34-.66-.51-1.17-.51-.46,0-.82.15-1.09.45-.27.3-.4.68-.4,1.14h-1.8s-.02-.05-.02-.05c-.04-.78.27-1.47.91-2.06.64-.59,1.48-.89,2.52-.89s1.8.29,2.42.88c.62.58.93,1.42.93,2.5v4.66c0,.38.02.76.07,1.12.05.36.13.72.23,1.07h-1.91Zm-2.43-1.25c.51,0,.97-.16,1.36-.48.4-.32.66-.7.78-1.15v-1.78h-1.57c-.58,0-1.04.18-1.36.55-.33.37-.49.81-.49,1.33,0,.46.11.83.33,1.11s.54.42.95.42Z"/><path class="cls-8" d="m322.21,131.45h-1.89v-14.47h1.89v14.47Z"/><path class="cls-8" d="m328.14,131.64c-1.25,0-2.23-.46-2.94-1.37-.71-.92-1.06-2.11-1.06-3.57v-.44c0-1.47.35-2.68,1.06-3.62s1.63-1.42,2.77-1.42,2.01.41,2.61,1.22c.6.81.89,1.9.89,3.27v1.06h-5.45c0,1.03.18,1.86.55,2.5.37.64.93.96,1.69.96.53,0,.98-.08,1.37-.25.39-.16.75-.4,1.08-.72l.61,1.17c-.33.35-.77.64-1.32.87-.55.23-1.17.35-1.87.35Zm-.18-8.97c-.54,0-.98.25-1.3.76-.32.5-.52,1.17-.6,2h3.55v-.21c0-.75-.13-1.37-.4-1.84-.27-.47-.68-.71-1.25-.71Z"/><path class="cls-8" d="m334.87,121.41l.11,1.49c.28-.53.64-.94,1.08-1.24.43-.29.92-.44,1.47-.44.89,0,1.58.33,2.08.98.5.66.75,1.68.75,3.06v6.18h-1.88v-6.17c0-.95-.13-1.61-.39-2s-.66-.58-1.19-.58c-.43,0-.8.11-1.11.34-.31.23-.56.54-.74.93v7.49h-1.89v-10.04h1.73Z"/><path class="cls-8" d="m344.94,118.91v2.5h1.57v1.35h-1.57v5.97c0,.52.08.89.24,1.11.16.22.37.33.63.33.11,0,.21,0,.3-.03.09-.02.2-.05.33-.08l.19,1.3c-.18.09-.38.16-.6.21-.22.05-.45.08-.68.08-.72,0-1.29-.23-1.69-.7-.4-.47-.6-1.2-.6-2.21v-5.97h-1.33v-1.35h1.33v-2.5h1.89Z"/><path class="cls-8" d="m351.84,131.64c-1.25,0-2.23-.46-2.94-1.37-.71-.92-1.06-2.11-1.06-3.57v-.44c0-1.47.35-2.68,1.06-3.62s1.63-1.42,2.77-1.42,2.01.41,2.61,1.22c.6.81.89,1.9.89,3.27v1.06h-5.45c0,1.03.18,1.86.55,2.5.37.64.93.96,1.69.96.53,0,.98-.08,1.37-.25.39-.16.75-.4,1.08-.72l.61,1.17c-.33.35-.77.64-1.32.87-.55.23-1.17.35-1.87.35Zm-.18-8.97c-.54,0-.98.25-1.3.76-.32.5-.52,1.17-.6,2h3.55v-.21c0-.75-.13-1.37-.4-1.84-.27-.47-.68-.71-1.25-.71Z"/><path class="cls-8" d="m58.64,145.78l-.82-.05c-.4,0-.73.12-.99.36-.26.24-.47.57-.61,1.01v7.15h-1.89v-10.04h1.73l.13,1.48c.22-.53.51-.94.85-1.23.35-.29.75-.44,1.2-.44.12,0,.23.01.33.03.1.02.19.05.27.08l-.21,1.64Z"/><path class="cls-8" d="m62.19,154.25h-1.88v-10.04h1.88v10.04Zm-.23-14.11h2.16l.03.05-2.25,2.42h-1.58l1.63-2.47Z"/><path class="cls-8" d="m64.22,149.35c0-1.61.29-2.9.88-3.87.59-.97,1.42-1.46,2.49-1.46.52,0,.98.12,1.38.38.4.25.73.61,1.01,1.07l.18-1.26h1.58v10.06c0,1.29-.34,2.28-1.03,2.98-.69.7-1.66,1.05-2.9,1.05-.43,0-.88-.06-1.37-.19-.49-.13-.92-.31-1.31-.53l.31-1.41c.34.19.71.34,1.11.45.4.11.82.16,1.25.16.71,0,1.22-.21,1.56-.63.33-.42.5-1.05.5-1.9v-.99c-.27.39-.6.68-.97.88s-.81.3-1.29.3c-1.06,0-1.88-.45-2.47-1.34-.59-.89-.88-2.08-.88-3.56v-.19Zm1.89.19c0,1.06.16,1.9.46,2.51.31.62.8.93,1.47.93.42,0,.78-.11,1.07-.32.29-.22.53-.52.71-.92v-4.94c-.18-.41-.42-.73-.71-.96-.29-.23-.65-.35-1.06-.35-.67,0-1.16.36-1.48,1.07-.32.71-.47,1.64-.47,2.79v.19Z"/><path class="cls-8" d="m75.9,141.57h-1.89v-1.8h1.89v1.8Zm0,12.67h-1.89v-10.04h1.89v10.04Z"/><path class="cls-8" d="m77.85,149.35c0-1.61.29-2.9.88-3.87.59-.97,1.41-1.46,2.48-1.46.48,0,.9.11,1.28.32.38.21.7.52.97.92v-5.49h1.88v14.47h-1.56l-.19-1.21c-.28.46-.62.81-1.02,1.04-.4.24-.86.36-1.38.36-1.06,0-1.88-.45-2.46-1.34-.58-.89-.88-2.08-.88-3.56v-.19Zm1.88.19c0,1.05.16,1.89.47,2.51.32.62.81.93,1.47.93.42,0,.78-.11,1.07-.33.29-.22.53-.54.72-.95v-4.86c-.19-.41-.43-.74-.72-.99-.3-.24-.65-.37-1.06-.37-.67,0-1.16.36-1.48,1.07-.32.71-.48,1.64-.48,2.79v.19Z"/><path class="cls-8" d="m92.77,154.25c-.08-.3-.14-.57-.19-.81-.05-.24-.08-.47-.09-.71-.27.5-.62.9-1.05,1.23-.44.32-.93.49-1.49.49-.9,0-1.58-.27-2.06-.8-.48-.53-.72-1.26-.72-2.18s.33-1.69,1-2.24c.66-.54,1.59-.82,2.78-.82h1.54v-1.03c0-.61-.14-1.09-.41-1.43-.27-.34-.66-.51-1.17-.51-.46,0-.82.15-1.09.45-.27.3-.4.68-.4,1.14h-1.8s-.02-.05-.02-.05c-.04-.78.27-1.47.91-2.06.64-.59,1.48-.89,2.52-.89s1.8.29,2.42.88c.62.58.93,1.42.93,2.5v4.66c0,.38.02.76.07,1.12.05.36.13.72.23,1.07h-1.91Zm-2.43-1.25c.51,0,.97-.16,1.36-.48.4-.32.66-.7.78-1.15v-1.78h-1.57c-.58,0-1.04.18-1.36.55-.33.37-.49.81-.49,1.33,0,.46.11.83.33,1.11s.54.42.95.42Z"/><path class="cls-8" d="m98.62,146.12h-1.9v-1.88h1.9v1.88Zm0,8.13h-1.9v-1.88h1.9v1.88Z"/><path class="cls-8" d="m54.54,199.85v-13.51h3.83c1.46,0,2.65.54,3.58,1.62.92,1.08,1.39,2.47,1.39,4.17v1.92c0,1.71-.46,3.1-1.39,4.17s-2.12,1.61-3.58,1.61h-3.83Zm1.88-12.06v10.63h1.95c.93,0,1.67-.41,2.23-1.22.56-.81.83-1.86.83-3.14v-1.94c0-1.26-.28-2.3-.83-3.11-.56-.81-1.3-1.22-2.23-1.22h-1.95Z"/><path class="cls-8" d="m67.4,187.17h-1.89v-1.8h1.89v1.8Zm0,12.67h-1.89v-10.04h1.89v10.04Z"/><path class="cls-8" d="m69.32,194.71c0-1.49.35-2.71,1.06-3.66.71-.95,1.67-1.43,2.9-1.43s2.2.48,2.91,1.43c.71.95,1.06,2.17,1.06,3.66v.25c0,1.5-.35,2.72-1.06,3.66-.71.94-1.67,1.41-2.89,1.41s-2.22-.47-2.92-1.41c-.71-.94-1.06-2.16-1.06-3.66v-.25Zm1.89.25c0,1.07.17,1.95.51,2.63.34.68.87,1.02,1.57,1.02s1.2-.34,1.54-1.02c.34-.68.51-1.56.51-2.62v-.25c0-1.05-.17-1.92-.52-2.61-.35-.69-.87-1.03-1.56-1.03s-1.21.34-1.55,1.03c-.34.69-.51,1.56-.51,2.61v.25Z"/><path class="cls-8" d="m81.47,187.31v2.5h1.57v1.35h-1.57v5.97c0,.52.08.89.24,1.11.16.22.37.33.63.33.11,0,.21,0,.3-.03.09-.02.2-.05.33-.08l.19,1.3c-.18.09-.38.16-.6.21-.22.05-.45.08-.68.08-.72,0-1.29-.23-1.69-.7-.4-.47-.6-1.2-.6-2.21v-5.97h-1.33v-1.35h1.33v-2.5h1.89Z"/><path class="cls-8" d="m89.05,191.38l-.82-.05c-.4,0-.73.12-.99.36-.26.24-.47.57-.61,1.01v7.15h-1.89v-10.04h1.73l.13,1.48c.22-.53.51-.94.85-1.23.35-.29.75-.44,1.2-.44.12,0,.23.01.33.03.1.02.19.05.27.08l-.21,1.64Z"/><path class="cls-8" d="m90.03,194.71c0-1.49.35-2.71,1.06-3.66.71-.95,1.67-1.43,2.9-1.43s2.2.48,2.91,1.43c.71.95,1.06,2.17,1.06,3.66v.25c0,1.5-.35,2.72-1.06,3.66-.71.94-1.67,1.41-2.89,1.41s-2.22-.47-2.92-1.41c-.71-.94-1.06-2.16-1.06-3.66v-.25Zm1.89.25c0,1.07.17,1.95.51,2.63.34.68.87,1.02,1.57,1.02s1.2-.34,1.54-1.02c.34-.68.51-1.56.51-2.62v-.25c0-1.05-.17-1.92-.52-2.61-.35-.69-.87-1.03-1.56-1.03s-1.21.34-1.55,1.03c-.34.69-.51,1.56-.51,2.61v.25Z"/><path class="cls-8" d="m107.29,195.14c0,1.48-.3,2.67-.89,3.56s-1.41,1.34-2.47,1.34c-.49,0-.93-.1-1.31-.29-.38-.19-.7-.48-.97-.86v4.81h-1.89v-13.9h1.6l.18,1.21c.27-.45.61-.8,1-1.03.4-.24.86-.36,1.38-.36,1.06,0,1.89.49,2.48,1.46.59.97.89,2.26.89,3.87v.19Zm-1.89-.19c0-1.14-.17-2.07-.5-2.78-.33-.72-.83-1.08-1.49-1.08-.42,0-.78.12-1.07.35-.29.23-.52.55-.7.94v5.06c.17.38.4.67.7.87s.65.31,1.08.31c.66,0,1.16-.32,1.48-.95s.49-1.47.49-2.52v-.19Z"/><path class="cls-8" d="m111.12,187.17h-1.89v-1.8h1.89v1.8Zm0,12.67h-1.89v-10.04h1.89v10.04Z"/><path class="cls-8" d="m118.64,199.85c-.08-.3-.14-.57-.19-.81-.05-.24-.08-.47-.09-.71-.27.5-.62.9-1.05,1.23-.44.32-.93.49-1.49.49-.9,0-1.58-.27-2.06-.8-.48-.53-.72-1.26-.72-2.18s.33-1.69,1-2.24c.66-.54,1.59-.82,2.78-.82h1.54v-1.03c0-.61-.14-1.09-.41-1.43-.27-.34-.66-.51-1.17-.51-.46,0-.82.15-1.09.45-.27.3-.4.68-.4,1.14h-1.8s-.02-.05-.02-.05c-.04-.78.27-1.47.91-2.06.64-.59,1.48-.89,2.52-.89s1.8.29,2.42.88c.62.58.93,1.42.93,2.5v4.66c0,.38.02.76.07,1.12.05.36.13.72.23,1.07h-1.91Zm-2.43-1.25c.51,0,.97-.16,1.36-.48.4-.32.66-.7.78-1.15v-1.78h-1.57c-.58,0-1.04.18-1.36.55-.33.37-.49.81-.49,1.33,0,.46.11.83.33,1.11s.54.42.95.42Z"/><path class="cls-8" d="m133.6,192.35h-6.91v-1.48h6.91v1.48Zm0,3.88h-6.91v-1.48h6.91v1.48Z"/><path class="cls-8" d="m54.34,217.17c0-2.34.41-4.39,1.23-6.13.82-1.74,1.71-2.89,2.68-3.46h.06l.34,1c-.71.63-1.31,1.69-1.83,3.19-.51,1.5-.77,3.29-.77,5.37v.19c0,2.08.26,3.87.77,5.36s1.12,2.57,1.83,3.24l-.34.95h-.06c-.97-.56-1.86-1.7-2.68-3.42s-1.22-3.77-1.22-6.14v-.15Z"/><path class="cls-8" d="m65.13,222.65h-1.89v-11.91l-2.63.17v-1.4l4.53-.56v13.7Z"/><path class="cls-8" d="m71.63,222.42l-1.21,2.74h-1.21l.56-2.8v-1.72h1.86v1.78Z"/><path class="cls-8" d="m77.36,215c.68,0,1.18-.21,1.5-.63.32-.42.48-.98.48-1.68s-.16-1.23-.49-1.66c-.32-.43-.8-.64-1.42-.64-.58,0-1.05.21-1.43.64s-.57.97-.57,1.63h-1.84l-.02-.06c-.03-1.04.32-1.91,1.06-2.61.74-.7,1.67-1.05,2.79-1.05,1.17,0,2.11.32,2.8.97s1.03,1.58,1.03,2.78c0,.64-.16,1.23-.49,1.75-.33.53-.78.93-1.35,1.22.66.27,1.16.67,1.51,1.22.35.55.53,1.22.53,2.02,0,1.22-.38,2.18-1.13,2.88-.75.7-1.72,1.04-2.9,1.04-1.07,0-2.01-.34-2.82-1.01-.81-.67-1.2-1.59-1.16-2.77l.02-.06h1.83c0,.68.2,1.25.6,1.71.4.46.91.69,1.54.69s1.17-.23,1.55-.68c.38-.45.57-1.05.57-1.79,0-.85-.19-1.48-.56-1.89-.37-.41-.92-.62-1.64-.62h-1.3v-1.42h1.3Z"/><path class="cls-8" d="m87.16,215c.68,0,1.18-.21,1.5-.63.32-.42.48-.98.48-1.68s-.16-1.23-.49-1.66c-.32-.43-.8-.64-1.42-.64-.58,0-1.05.21-1.43.64s-.57.97-.57,1.63h-1.84l-.02-.06c-.03-1.04.32-1.91,1.06-2.61.74-.7,1.67-1.05,2.79-1.05,1.17,0,2.11.32,2.8.97s1.03,1.58,1.03,2.78c0,.64-.16,1.23-.49,1.75-.33.53-.78.93-1.35,1.22.66.27,1.16.67,1.51,1.22.35.55.53,1.22.53,2.02,0,1.22-.38,2.18-1.13,2.88-.75.7-1.72,1.04-2.9,1.04-1.07,0-2.01-.34-2.82-1.01-.81-.67-1.2-1.59-1.16-2.77l.02-.06h1.83c0,.68.2,1.25.6,1.71.4.46.91.69,1.54.69s1.17-.23,1.55-.68c.38-.45.57-1.05.57-1.79,0-.85-.19-1.48-.56-1.89-.37-.41-.92-.62-1.64-.62h-1.3v-1.42h1.3Z"/><path class="cls-8" d="m101.13,210.59c-1.42,1.8-2.4,3.5-2.95,5.1-.55,1.6-.83,3.43-.83,5.48v1.48h-1.9v-1.48c0-2.04.33-3.91.99-5.6.66-1.69,1.6-3.35,2.82-4.99h-6.4v-1.45h8.27v1.45Z"/><path class="cls-8" d="m107.88,217.62h-4.7v-1.44h4.7v1.44Z"/><path class="cls-8" d="m115.46,222.65h-1.89v-11.91l-2.63.17v-1.4l4.53-.56v13.7Z"/><path class="cls-8" d="m123.6,217.32c0,2.35-.42,4.39-1.25,6.12-.83,1.73-1.74,2.88-2.71,3.44h-.06l-.36-.95c.7-.63,1.31-1.7,1.83-3.21.52-1.51.78-3.3.78-5.39v-.19c0-2.07-.27-3.86-.8-5.38-.54-1.52-1.14-2.6-1.81-3.24l.36-.95h.06c.97.56,1.87,1.71,2.71,3.47.83,1.75,1.25,3.79,1.25,6.12v.15Z"/><path class="cls-8" d="m126.52,223.81h-1.75l4.54-14.67h1.75l-4.55,14.67Z"/><path class="cls-8" d="m140.48,210.59c-1.42,1.8-2.4,3.5-2.95,5.1-.55,1.6-.83,3.43-.83,5.48v1.48h-1.9v-1.48c0-2.04.33-3.91.99-5.6.66-1.69,1.6-3.35,2.82-4.99h-6.4v-1.45h8.27v1.45Z"/><path class="cls-8" d="m144.21,222.42l-1.21,2.74h-1.21l.56-2.8v-1.72h1.86v1.78Z"/><path class="cls-8" d="m149.48,221.41c.72,0,1.3-.3,1.74-.89s.67-1.43.67-2.5v-1.3c-.27.43-.61.76-1.02.99-.41.23-.84.34-1.31.34-1.14,0-2.04-.4-2.69-1.22-.66-.81-.98-1.9-.98-3.27s.37-2.44,1.1-3.32c.73-.88,1.66-1.31,2.77-1.31,1.21,0,2.18.43,2.93,1.3.75.87,1.12,2.08,1.12,3.65v4.08c0,1.52-.4,2.71-1.21,3.58-.81.86-1.84,1.29-3.11,1.29-.43,0-.86-.05-1.3-.15-.44-.1-.86-.24-1.24-.44l.31-1.36c.35.19.7.32,1.05.4.35.08.74.12,1.19.12Zm.28-4.75c.51,0,.94-.14,1.3-.41.36-.27.64-.62.83-1.06v-1.59c0-1.04-.19-1.84-.57-2.39-.38-.55-.89-.83-1.54-.83-.58,0-1.06.3-1.43.91-.37.61-.56,1.36-.56,2.27s.17,1.66.51,2.23c.34.57.82.86,1.45.86Z"/><path class="cls-8" d="m163.76,217.84c0,1.55-.36,2.77-1.08,3.66-.72.89-1.68,1.34-2.88,1.34s-2.17-.45-2.89-1.34c-.72-.89-1.09-2.11-1.09-3.66v-3.89c0-1.53.36-2.75,1.08-3.66.72-.9,1.68-1.35,2.88-1.35s2.17.45,2.89,1.35c.72.9,1.09,2.12,1.09,3.66v3.89Zm-1.91-4.16c0-1.02-.18-1.82-.54-2.41-.36-.59-.87-.88-1.53-.88s-1.16.29-1.52.88c-.36.59-.54,1.39-.54,2.41v4.42c0,1.02.18,1.83.55,2.42s.88.89,1.53.89,1.16-.3,1.52-.89c.36-.59.53-1.4.53-2.43v-4.42Z"/><path class="cls-8" d="m176.98,215.15h-6.91v-1.48h6.91v1.48Zm0,3.88h-6.91v-1.48h6.91v1.48Z"/><path class="cls-8" d="m62.12,240.64c0,1.55-.36,2.77-1.08,3.66-.72.89-1.68,1.34-2.88,1.34s-2.17-.45-2.89-1.34c-.72-.89-1.09-2.11-1.09-3.66v-3.89c0-1.53.36-2.75,1.08-3.66.72-.9,1.68-1.35,2.88-1.35s2.17.45,2.89,1.35c.72.9,1.09,2.12,1.09,3.66v3.89Zm-1.91-4.16c0-1.02-.18-1.82-.54-2.41-.36-.59-.87-.88-1.53-.88s-1.16.29-1.52.88c-.36.59-.54,1.39-.54,2.41v4.42c0,1.02.18,1.83.55,2.42s.88.89,1.53.89,1.16-.3,1.52-.89c.36-.59.53-1.4.53-2.43v-4.42Z"/><path class="cls-8" d="m66,245.22l-1.21,2.74h-1.21l.56-2.8v-1.72h1.86v1.78Z"/><path class="cls-8" d="m71.73,237.8c.68,0,1.18-.21,1.5-.63.32-.42.48-.98.48-1.68s-.16-1.23-.49-1.66c-.32-.43-.8-.64-1.42-.64-.58,0-1.05.21-1.43.64s-.57.97-.57,1.63h-1.84l-.02-.06c-.03-1.04.32-1.91,1.06-2.61.74-.7,1.67-1.05,2.79-1.05,1.17,0,2.11.32,2.8.97s1.03,1.58,1.03,2.78c0,.64-.16,1.23-.49,1.75-.33.53-.78.93-1.35,1.22.66.27,1.16.67,1.51,1.22.35.55.53,1.22.53,2.02,0,1.22-.38,2.18-1.13,2.88-.75.7-1.72,1.04-2.9,1.04-1.07,0-2.01-.34-2.82-1.01-.81-.67-1.2-1.59-1.16-2.77l.02-.06h1.83c0,.68.2,1.25.6,1.71.4.46.91.69,1.54.69s1.17-.23,1.55-.68c.38-.45.57-1.05.57-1.79,0-.85-.19-1.48-.56-1.89-.37-.41-.92-.62-1.64-.62h-1.3v-1.42h1.3Z"/><path class="cls-8" d="m81.53,237.8c.68,0,1.18-.21,1.5-.63.32-.42.48-.98.48-1.68s-.16-1.23-.49-1.66c-.32-.43-.8-.64-1.42-.64-.58,0-1.05.21-1.43.64s-.57.97-.57,1.63h-1.84l-.02-.06c-.03-1.04.32-1.91,1.06-2.61.74-.7,1.67-1.05,2.79-1.05,1.17,0,2.11.32,2.8.97s1.03,1.58,1.03,2.78c0,.64-.16,1.23-.49,1.75-.33.53-.78.93-1.35,1.22.66.27,1.16.67,1.51,1.22.35.55.53,1.22.53,2.02,0,1.22-.38,2.18-1.13,2.88-.75.7-1.72,1.04-2.9,1.04-1.07,0-2.01-.34-2.82-1.01-.81-.67-1.2-1.59-1.16-2.77l.02-.06h1.83c0,.68.2,1.25.6,1.71.4.46.91.69,1.54.69s1.17-.23,1.55-.68c.38-.45.57-1.05.57-1.79,0-.85-.19-1.48-.56-1.89-.37-.41-.92-.62-1.64-.62h-1.3v-1.42h1.3Z"/><path class="cls-8" d="m95.5,233.38c-1.42,1.8-2.4,3.5-2.95,5.1-.55,1.6-.83,3.43-.83,5.48v1.48h-1.9v-1.48c0-2.04.33-3.91.99-5.6.66-1.69,1.6-3.35,2.82-4.99h-6.4v-1.45h8.27v1.45Z"/><path class="cls-8" d="m98.11,246.61h-1.75l4.54-14.67h1.75l-4.55,14.67Z"/><path class="cls-8" d="m112.07,233.38c-1.42,1.8-2.4,3.5-2.95,5.1-.55,1.6-.83,3.43-.83,5.48v1.48h-1.9v-1.48c0-2.04.33-3.91.99-5.6.66-1.69,1.6-3.35,2.82-4.99h-6.4v-1.45h8.27v1.45Z"/><path class="cls-8" d="m115.8,245.22l-1.21,2.74h-1.21l.56-2.8v-1.72h1.86v1.78Z"/><path class="cls-8" d="m121.08,244.21c.72,0,1.3-.3,1.74-.89s.67-1.43.67-2.5v-1.3c-.27.43-.61.76-1.02.99-.41.23-.84.34-1.31.34-1.14,0-2.04-.4-2.69-1.22-.66-.81-.98-1.9-.98-3.27s.37-2.44,1.1-3.32c.73-.88,1.66-1.31,2.77-1.31,1.21,0,2.18.43,2.93,1.3.75.87,1.12,2.08,1.12,3.65v4.08c0,1.52-.4,2.71-1.21,3.58-.81.86-1.84,1.29-3.11,1.29-.43,0-.86-.05-1.3-.15-.44-.1-.86-.24-1.24-.44l.31-1.36c.35.19.7.32,1.05.4.35.08.74.12,1.19.12Zm.28-4.75c.51,0,.94-.14,1.3-.41.36-.27.64-.62.83-1.06v-1.59c0-1.04-.19-1.84-.57-2.39-.38-.55-.89-.83-1.54-.83-.58,0-1.06.3-1.43.91-.37.61-.56,1.36-.56,2.27s.17,1.66.51,2.23c.34.57.82.86,1.45.86Z"/><path class="cls-8" d="m135.35,240.64c0,1.55-.36,2.77-1.08,3.66-.72.89-1.68,1.34-2.88,1.34s-2.17-.45-2.89-1.34c-.72-.89-1.09-2.11-1.09-3.66v-3.89c0-1.53.36-2.75,1.08-3.66.72-.9,1.68-1.35,2.88-1.35s2.17.45,2.89,1.35c.72.9,1.09,2.12,1.09,3.66v3.89Zm-1.91-4.16c0-1.02-.18-1.82-.54-2.41-.36-.59-.87-.88-1.53-.88s-1.16.29-1.52.88c-.36.59-.54,1.39-.54,2.41v4.42c0,1.02.18,1.83.55,2.42s.88.89,1.53.89,1.16-.3,1.52-.89c.36-.59.53-1.4.53-2.43v-4.42Z"/><path class="cls-8" d="m148.57,237.95h-6.91v-1.48h6.91v1.48Zm0,3.88h-6.91v-1.48h6.91v1.48Z"/><path class="cls-8" d="m58.09,260.6c.68,0,1.18-.21,1.5-.63.32-.42.48-.98.48-1.68s-.16-1.23-.49-1.66c-.32-.43-.8-.64-1.42-.64-.58,0-1.05.21-1.43.64s-.57.97-.57,1.63h-1.84l-.02-.06c-.03-1.04.32-1.91,1.06-2.61.74-.7,1.67-1.05,2.79-1.05,1.17,0,2.11.32,2.8.97s1.03,1.58,1.03,2.78c0,.64-.16,1.23-.49,1.75-.33.53-.78.93-1.35,1.22.66.27,1.16.67,1.51,1.22.35.55.53,1.22.53,2.02,0,1.22-.38,2.18-1.13,2.88-.75.7-1.72,1.04-2.9,1.04-1.07,0-2.01-.34-2.82-1.01-.81-.67-1.2-1.59-1.16-2.77l.02-.06h1.83c0,.68.2,1.25.6,1.71.4.46.91.69,1.54.69s1.17-.23,1.55-.68c.38-.45.57-1.05.57-1.79,0-.85-.19-1.48-.56-1.89-.37-.41-.92-.62-1.64-.62h-1.3v-1.42h1.3Z"/><path class="cls-8" d="m67.89,260.6c.68,0,1.18-.21,1.5-.63.32-.42.48-.98.48-1.68s-.16-1.23-.49-1.66c-.32-.43-.8-.64-1.42-.64-.58,0-1.05.21-1.43.64s-.57.97-.57,1.63h-1.84l-.02-.06c-.03-1.04.32-1.91,1.06-2.61.74-.7,1.67-1.05,2.79-1.05,1.17,0,2.11.32,2.8.97s1.03,1.58,1.03,2.78c0,.64-.16,1.23-.49,1.75-.33.53-.78.93-1.35,1.22.66.27,1.16.67,1.51,1.22.35.55.53,1.22.53,2.02,0,1.22-.38,2.18-1.13,2.88-.75.7-1.72,1.04-2.9,1.04-1.07,0-2.01-.34-2.82-1.01-.81-.67-1.2-1.59-1.16-2.77l.02-.06h1.83c0,.68.2,1.25.6,1.71.4.46.91.69,1.54.69s1.17-.23,1.55-.68c.38-.45.57-1.05.57-1.79,0-.85-.19-1.48-.56-1.89-.37-.41-.92-.62-1.64-.62h-1.3v-1.42h1.3Z"/><path class="cls-8" d="m81.86,256.19c-1.42,1.8-2.4,3.5-2.95,5.1-.55,1.6-.83,3.43-.83,5.48v1.48h-1.9v-1.48c0-2.04.33-3.91.99-5.6.66-1.69,1.6-3.35,2.82-4.99h-6.4v-1.45h8.27v1.45Z"/><path class="cls-8" d="m84.48,269.41h-1.75l4.54-14.67h1.75l-4.55,14.67Z"/><path class="cls-8" d="m98.43,256.19c-1.42,1.8-2.4,3.5-2.95,5.1-.55,1.6-.83,3.43-.83,5.48v1.48h-1.9v-1.48c0-2.04.33-3.91.99-5.6.66-1.69,1.6-3.35,2.82-4.99h-6.4v-1.45h8.27v1.45Z"/><path class="cls-8" d="m102.16,268.02l-1.21,2.74h-1.21l.56-2.8v-1.72h1.86v1.78Z"/><path class="cls-8" d="m107.44,267.01c.72,0,1.3-.3,1.74-.89s.67-1.43.67-2.5v-1.3c-.27.43-.61.76-1.02.99-.41.23-.84.34-1.31.34-1.14,0-2.04-.4-2.69-1.22-.66-.81-.98-1.9-.98-3.27s.37-2.44,1.1-3.32c.73-.88,1.66-1.31,2.77-1.31,1.21,0,2.18.43,2.93,1.3.75.87,1.12,2.08,1.12,3.65v4.08c0,1.52-.4,2.71-1.21,3.58-.81.86-1.84,1.29-3.11,1.29-.43,0-.86-.05-1.3-.15-.44-.1-.86-.24-1.24-.44l.31-1.36c.35.19.7.32,1.05.4.35.08.74.12,1.19.12Zm.28-4.75c.51,0,.94-.14,1.3-.41.36-.27.64-.62.83-1.06v-1.59c0-1.04-.19-1.84-.57-2.39-.38-.55-.89-.83-1.54-.83-.58,0-1.06.3-1.43.91-.37.61-.56,1.36-.56,2.27s.17,1.66.51,2.23c.34.57.82.86,1.45.86Z"/><path class="cls-8" d="m121.72,263.44c0,1.55-.36,2.77-1.08,3.66-.72.89-1.68,1.34-2.88,1.34s-2.17-.45-2.89-1.34c-.72-.89-1.09-2.11-1.09-3.66v-3.89c0-1.53.36-2.75,1.08-3.66.72-.9,1.68-1.35,2.88-1.35s2.17.45,2.89,1.35c.72.9,1.09,2.12,1.09,3.66v3.89Zm-1.91-4.16c0-1.02-.18-1.82-.54-2.41-.36-.59-.87-.88-1.53-.88s-1.16.29-1.52.88c-.36.59-.54,1.39-.54,2.41v4.42c0,1.02.18,1.83.55,2.42s.88.89,1.53.89,1.16-.3,1.52-.89c.36-.59.53-1.4.53-2.43v-4.42Z"/><path class="cls-8" d="m134.94,260.75h-6.91v-1.48h6.91v1.48Zm0,3.88h-6.91v-1.48h6.91v1.48Z"/><path class="cls-8" d="m60.96,286.43h1.57v1.44h-1.57v3.17h-1.9v-3.17h-5.15l-.05-1.06,5.14-9.28h1.97v8.9Zm-5.24,0h3.34v-6.29l-.06-.02-.25.58-3.03,5.73Z"/><path class="cls-8" d="m72.04,291.05h-7.8v-1.25l3.82-5c.62-.87,1.06-1.58,1.3-2.13.24-.56.37-1.09.37-1.61,0-.69-.15-1.23-.45-1.64s-.74-.61-1.32-.61c-.66,0-1.16.25-1.51.75-.35.5-.52,1.14-.52,1.91h-1.85l-.03-.06c-.02-1.13.32-2.09,1.03-2.88.71-.79,1.67-1.18,2.88-1.18s2.06.34,2.71,1.01c.65.67.97,1.57.97,2.7,0,.76-.2,1.5-.59,2.21-.39.71-.99,1.59-1.8,2.62l-2.63,3.74h5.43v1.43Z"/><path class="cls-8" d="m75.79,290.82l-1.21,2.74h-1.21l.56-2.8v-1.72h1.86v1.78Z"/><path class="cls-8" d="m82.19,277.34c.47,0,.92.05,1.35.16.43.11.82.25,1.17.43l-.37,1.38c-.32-.17-.65-.29-.98-.38-.33-.09-.72-.13-1.17-.13-.75,0-1.36.35-1.83,1.05-.47.7-.71,1.62-.71,2.76v1.06c.33-.39.73-.7,1.2-.92s.99-.33,1.55-.33c1.05,0,1.87.39,2.46,1.18.59.79.89,1.84.89,3.15s-.36,2.44-1.08,3.26c-.72.83-1.66,1.24-2.83,1.24s-2.16-.47-2.93-1.41c-.77-.94-1.15-2.22-1.15-3.85v-3.25c0-1.59.42-2.89,1.27-3.89.84-1,1.9-1.5,3.17-1.5Zm-.42,6.45c-.51,0-.94.12-1.3.36-.36.24-.64.57-.82.98v.95c0,1.16.21,2.07.61,2.74s.93,1,1.58,1,1.12-.29,1.48-.87c.36-.58.54-1.32.54-2.21s-.18-1.64-.55-2.16c-.37-.53-.88-.79-1.53-.79Z"/><path class="cls-8" d="m87.87,285.03l.69-7.5h6.39v1.55h-4.81l-.37,4.06c.25-.23.54-.43.89-.58.34-.15.74-.23,1.19-.25,1.11-.01,1.97.37,2.6,1.16.63.79.94,1.87.94,3.25s-.33,2.44-.98,3.27c-.66.83-1.64,1.24-2.96,1.24-1.07,0-1.97-.32-2.7-.95-.73-.63-1.08-1.55-1.05-2.75l.02-.05,1.79-.04c0,.75.18,1.34.54,1.74s.83.61,1.41.61c.68,0,1.19-.26,1.53-.79.34-.53.51-1.28.51-2.27,0-.9-.17-1.61-.52-2.14-.35-.53-.85-.8-1.51-.8-.59,0-1.03.12-1.32.35-.29.23-.5.58-.63,1.03l-1.64-.16Z"/><path class="cls-8" d="m101.18,286.15c0-1.61.29-2.9.88-3.87.59-.97,1.41-1.46,2.48-1.46.48,0,.9.11,1.28.32.38.21.7.52.97.92v-5.49h1.88v14.47h-1.56l-.19-1.21c-.28.46-.62.81-1.02,1.04-.4.24-.86.36-1.38.36-1.06,0-1.88-.45-2.46-1.34-.58-.89-.88-2.08-.88-3.56v-.19Zm1.88.19c0,1.05.16,1.89.47,2.51.32.62.81.93,1.47.93.42,0,.78-.11,1.07-.33.29-.22.53-.54.72-.95v-4.86c-.19-.41-.43-.74-.72-.99-.3-.24-.65-.37-1.06-.37-.67,0-1.16.36-1.48,1.07-.32.71-.48,1.64-.48,2.79v.19Z"/></g></svg>