<?xml version="1.0" encoding="UTF-8"?><svg id="Camada_2" xmlns="http://www.w3.org/2000/svg" viewBox="0 0 400 323.52"><defs><style>.cls-1{fill:#ffdfc9;}.cls-1,.cls-2,.cls-3,.cls-4,.cls-5,.cls-6,.cls-7,.cls-8,.cls-9,.cls-10{stroke-width:0px;}.cls-2{fill:#006652;}.cls-3{fill:#b26538;}.cls-4{fill:#f39257;}.cls-5{fill:#004b3a;opacity:.58;}.cls-6{fill:#4b5767;}.cls-7{fill:#303948;}.cls-8{fill:#fff;}.cls-9{fill:#ece4df;}.cls-10{fill:#d07a47;}</style></defs><g id="Camada_1-2"><polygon class="cls-2" points="12.68 9.48 25.1 285.56 383.47 261.18 390.79 12.15 12.68 9.48"/><polygon class="cls-5" points="155.57 277.21 105.43 165.54 20.59 191.87 25.1 285.56 155.57 277.21"/><path class="cls-4" d="m0,0l12.24,301.14,383.66-21.87L400,.28,0,0Zm383.47,261.18l-358.36,24.38L12.68,9.48l378.11,2.67-7.32,249.03Z"/><polygon class="cls-3" points="398.7 .28 388.96 12.14 390.79 12.15 390.74 13.77 399.97 2.5 400 .28 398.7 .28"/><polygon class="cls-3" points="383.54 258.8 383.47 261.18 381.92 261.28 394.43 279.35 395.9 279.26 395.94 276.65 383.54 258.8"/><polygon class="cls-3" points="25.1 285.56 24.99 283 12.14 298.59 12.24 301.14 13.8 301.05 26.61 285.46 25.1 285.56"/><polygon class="cls-3" points="12.68 9.48 14.86 9.49 2.57 0 0 0 .05 1.12 12.74 10.95 12.68 9.48"/><path class="cls-1" d="m8.33,37.62l.11,27.27c.05,12.13.42,24.39,1.13,36.74l5.47,95.9-2.49-95.83c-.35-13.43-1.05-26.4-2.1-38.92l-2.11-25.16Z"/><path class="cls-1" d="m390.3,253.3l2.01-36.25c.83-15.02,1.3-29.73,1.42-44.09l.74-93.98-3.8,92.48c-.63,15.38-.88,31.13-.71,47.21l.35,34.64Z"/><path class="cls-1" d="m108.12,4.7c-16.65-.15-33.25-.09-49.74.2l-34.25.6,36.2.66c15.59.28,31.15.38,46.64.27l110.31-.72-109.16-1.01Z"/><path class="cls-1" d="m336.23,270.44c-14.7.48-29.16,3.87-43.78,4.69h0c15.65-.8,31.21-1.74,46.61-2.92l41.7-3.21-44.53,1.45Z"/><path class="cls-8" d="m229.79,285.48l-18.52,1.29-.49-13.76,17.68-3.21c3.27-.59,6.37,2.05,7.11,6.07h0c.88,4.75-1.87,9.34-5.79,9.62Z"/><path class="cls-9" d="m214.86,279.56c.15,3.83-1.26,7.05-3.14,7.18-1.88.13-3.51-2.88-3.64-6.71-.13-3.81,1.28-6.99,3.15-7.11,1.86-.13,3.49,2.84,3.64,6.64Z"/><polygon class="cls-10" points="99.15 296.15 97.84 285.57 256.5 280.69 99.15 296.15"/><path class="cls-7" d="m167.42,262.7l-33.29,1.49c-4.14.19-7.7,4.38-8.06,9.53l-.73,10.49c-.38,5.4,2.82,9.81,7.15,9.81h33.94c4.33,0,7.99-4.41,8.18-9.81l.42-12.01c.19-5.41-3.26-9.7-7.61-9.51Z"/><path class="cls-6" d="m129.55,285.13l.68-10.19c.22-3.24,2.43-5.86,5.03-5.97,0,0,22.39-2.46,29.53-2.78h0c-7.82.35-30.79,1.38-30.79,1.38-2.69.12-4.97,2.82-5.2,6.15l-.71,10.49c-.24,3.47,1.83,6.31,4.61,6.31h.52c-2.69,0-3.91-2.02-3.68-5.39Z"/><path class="cls-4" d="m102.33,290.1l1.97,33.42s171.38-5.25,171.02-5.15c-.35.1,3.31-39.03,3.31-39.03l-176.3,10.76Z"/><path class="cls-10" d="m278.63,279.34h0c-15.32,14.23-33.7,23.33-53.24,26.23l-121.09,17.96,171.02-5.15,3.31-39.03Z"/><path class="cls-1" d="m106.92,315.83l-1.48-21.81,101.64-7.25-93.5,9.65c-3.07.32-5.65,3.58-5.9,7.46l-.76,11.96Z"/><path class="cls-8" d="m43.42,50.67v5.82h-1.88v-13.5h3.98c1.3,0,2.3.33,3.01.99.71.66,1.06,1.61,1.06,2.85,0,.71-.17,1.32-.5,1.85-.33.53-.81.94-1.42,1.23.69.24,1.19.62,1.5,1.17.31.54.46,1.22.46,2.02v1.18c0,.41.04.8.12,1.16.08.36.22.64.43.83v.21h-1.94c-.21-.2-.35-.52-.41-.93-.06-.42-.1-.85-.1-1.29v-1.14c0-.75-.18-1.35-.52-1.79-.35-.44-.83-.66-1.45-.66h-2.33Zm0-1.44h2c.78,0,1.35-.21,1.72-.62s.56-.99.56-1.75-.18-1.37-.54-1.8c-.36-.43-.91-.64-1.65-.64h-2.1v4.81Z"/><path class="cls-8" d="m55.53,56.68c-1.25,0-2.23-.46-2.94-1.37-.71-.92-1.06-2.11-1.06-3.57v-.44c0-1.47.35-2.68,1.06-3.62.71-.94,1.63-1.41,2.77-1.41s2.01.41,2.61,1.21c.6.81.89,1.9.89,3.27v1.06h-5.45c0,1.03.18,1.86.55,2.5.37.64.93.96,1.69.96.53,0,.98-.08,1.37-.25.39-.16.75-.4,1.08-.72l.61,1.17c-.33.35-.77.64-1.32.87-.55.24-1.17.35-1.87.35Zm-.18-8.97c-.54,0-.98.25-1.3.76-.32.5-.52,1.17-.6,2h3.55v-.21c0-.75-.13-1.37-.4-1.84-.27-.47-.68-.71-1.25-.71Z"/><path class="cls-8" d="m64.05,55.25c.46,0,.85-.18,1.16-.54.31-.36.47-.84.47-1.46h1.7l.02.06c.02.95-.29,1.74-.96,2.39-.66.65-1.46.97-2.39.97-1.24,0-2.19-.47-2.87-1.41-.67-.94-1.01-2.15-1.01-3.61v-.35c0-1.46.34-2.66,1.01-3.61s1.63-1.42,2.87-1.42c1,0,1.82.34,2.44,1.02.63.68.93,1.56.91,2.64l-.02.05h-1.71c0-.67-.15-1.21-.45-1.63-.3-.42-.69-.63-1.18-.63-.71,0-1.21.34-1.53,1.02-.31.68-.47,1.54-.47,2.57v.35c0,1.05.15,1.91.46,2.59.31.67.82,1.01,1.53,1.01Z"/><path class="cls-8" d="m72.78,56.68c-1.25,0-2.23-.46-2.94-1.37-.71-.92-1.06-2.11-1.06-3.57v-.44c0-1.47.35-2.68,1.06-3.62.71-.94,1.63-1.41,2.77-1.41s2.01.41,2.61,1.21c.6.81.89,1.9.89,3.27v1.06h-5.45c0,1.03.18,1.86.55,2.5.37.64.93.96,1.69.96.53,0,.98-.08,1.37-.25.39-.16.75-.4,1.08-.72l.61,1.17c-.33.35-.77.64-1.32.87-.55.24-1.17.35-1.87.35Zm-.18-8.97c-.54,0-.98.25-1.3.76-.32.5-.52,1.17-.6,2h3.55v-.21c0-.75-.13-1.37-.4-1.84-.27-.47-.68-.71-1.25-.71Z"/><path class="cls-8" d="m79.83,43.81h-1.89v-1.8h1.89v1.8Zm0,12.67h-1.89v-10.04h1.89v10.04Z"/><path class="cls-8" d="m84.55,43.95v2.5h1.57v1.34h-1.57v5.97c0,.52.08.89.24,1.11.16.22.37.33.63.33.11,0,.21,0,.3-.03.09-.02.2-.05.33-.08l.19,1.3c-.18.09-.38.16-.6.21-.22.05-.45.08-.68.08-.72,0-1.29-.23-1.69-.7-.4-.47-.6-1.2-.6-2.21v-5.97h-1.33v-1.34h1.33v-2.5h1.89Z"/><path class="cls-8" d="m93.04,56.48c-.08-.3-.14-.57-.19-.81-.05-.24-.08-.47-.09-.71-.27.49-.62.9-1.05,1.23-.44.32-.93.49-1.49.49-.9,0-1.58-.27-2.06-.8-.48-.53-.72-1.26-.72-2.18s.33-1.69,1-2.24c.66-.54,1.59-.82,2.78-.82h1.54v-1.03c0-.61-.14-1.09-.41-1.43s-.66-.51-1.17-.51c-.46,0-.82.15-1.09.45-.27.3-.4.68-.4,1.14h-1.8s-.02-.05-.02-.05c-.04-.78.27-1.47.91-2.06.64-.59,1.48-.89,2.52-.89s1.8.29,2.42.88.93,1.42.93,2.5v4.66c0,.38.02.76.07,1.12s.13.72.23,1.07h-1.91Zm-2.43-1.25c.51,0,.97-.16,1.36-.48s.66-.7.78-1.16v-1.78h-1.57c-.58,0-1.04.18-1.36.55-.33.37-.49.81-.49,1.33,0,.46.11.83.33,1.11s.54.42.95.42Z"/><path class="cls-8" d="m100.62,51.58c0-1.61.29-2.9.88-3.87.59-.97,1.41-1.46,2.48-1.46.48,0,.9.11,1.28.32.38.21.7.52.97.92v-5.49h1.88v14.47h-1.56l-.19-1.21c-.28.46-.62.81-1.02,1.04s-.86.36-1.38.36c-1.06,0-1.88-.45-2.46-1.34-.58-.89-.88-2.08-.88-3.56v-.19Zm1.88.19c0,1.05.16,1.89.47,2.51s.81.93,1.47.93c.42,0,.78-.11,1.07-.33.29-.22.53-.54.72-.95v-4.86c-.19-.41-.43-.74-.72-.99s-.65-.37-1.06-.37c-.67,0-1.16.36-1.48,1.07-.32.71-.48,1.64-.48,2.79v.19Z"/><path class="cls-8" d="m113.95,56.68c-1.25,0-2.23-.46-2.94-1.37-.71-.92-1.06-2.11-1.06-3.57v-.44c0-1.47.35-2.68,1.06-3.62.71-.94,1.63-1.41,2.77-1.41s2.01.41,2.61,1.21c.6.81.89,1.9.89,3.27v1.06h-5.45c0,1.03.18,1.86.55,2.5.37.64.93.96,1.69.96.53,0,.98-.08,1.37-.25.39-.16.75-.4,1.08-.72l.61,1.17c-.33.35-.77.64-1.32.87-.55.24-1.17.35-1.87.35Zm-.18-8.97c-.54,0-.98.25-1.3.76-.32.5-.52,1.17-.6,2h3.55v-.21c0-.75-.13-1.37-.4-1.84-.27-.47-.68-.71-1.25-.71Z"/><path class="cls-8" d="m126.78,56.68c-1.25,0-2.23-.46-2.94-1.37-.71-.92-1.06-2.11-1.06-3.57v-.44c0-1.47.35-2.68,1.06-3.62.71-.94,1.63-1.41,2.77-1.41s2.01.41,2.61,1.21c.6.81.89,1.9.89,3.27v1.06h-5.45c0,1.03.18,1.86.55,2.5.37.64.93.96,1.69.96.53,0,.98-.08,1.37-.25.39-.16.75-.4,1.08-.72l.61,1.17c-.33.35-.77.64-1.32.87-.55.24-1.17.35-1.87.35Zm-.18-8.97c-.54,0-.98.25-1.3.76-.32.5-.52,1.17-.6,2h3.55v-.21c0-.75-.13-1.37-.4-1.84-.27-.47-.68-.71-1.25-.71Z"/><path class="cls-8" d="m136.57,53.95c0-.39-.13-.72-.39-.98s-.76-.56-1.49-.89c-1.03-.39-1.81-.81-2.32-1.27-.51-.46-.77-1.04-.77-1.76,0-.77.31-1.43.93-1.98.62-.54,1.43-.82,2.43-.82s1.87.3,2.5.9c.63.6.93,1.32.91,2.17l-.02.06h-1.82c0-.48-.14-.89-.42-1.23s-.66-.51-1.15-.51-.86.13-1.13.4c-.27.27-.4.58-.4.94,0,.38.12.69.35.9.23.22.73.5,1.49.85,1.05.37,1.84.8,2.37,1.29.53.49.79,1.1.79,1.84,0,.83-.32,1.51-.96,2.04-.64.52-1.48.78-2.52.78-1.12,0-2.01-.31-2.66-.94-.65-.63-.95-1.36-.92-2.2l.02-.06h1.75c.02.65.21,1.12.55,1.41.34.29.77.43,1.29.43s.89-.13,1.17-.39c.28-.26.42-.58.42-.98Z"/><path class="cls-8" d="m140.81,56.48v-8.69h-1.33v-1.34h1.33v-1.29c0-1.06.26-1.89.77-2.47.52-.58,1.24-.87,2.17-.87.19,0,.38.02.57.05.2.03.41.08.64.14l-.18,1.38c-.12-.03-.24-.06-.37-.07-.13-.02-.27-.03-.43-.03-.42,0-.74.16-.96.48-.22.32-.33.78-.33,1.38v1.29h1.66v1.34h-1.66v8.69h-1.88Z"/><path class="cls-8" d="m149.23,56.68c-1.25,0-2.23-.46-2.94-1.37-.71-.92-1.06-2.11-1.06-3.57v-.44c0-1.47.35-2.68,1.06-3.62.71-.94,1.63-1.41,2.77-1.41s2.01.41,2.61,1.21c.6.81.89,1.9.89,3.27v1.06h-5.45c0,1.03.18,1.86.55,2.5.37.64.93.96,1.69.96.53,0,.98-.08,1.37-.25.39-.16.75-.4,1.08-.72l.61,1.17c-.33.35-.77.64-1.32.87-.55.24-1.17.35-1.87.35Zm-.18-8.97c-.54,0-.98.25-1.3.76-.32.5-.52,1.17-.6,2h3.55v-.21c0-.75-.13-1.37-.4-1.84-.27-.47-.68-.71-1.25-.71Zm.54-5.54h2.16l.03.05-2.24,2.42h-1.58l1.63-2.47Z"/><path class="cls-8" d="m158.56,48.01l-.82-.05c-.4,0-.73.12-.99.36-.26.24-.47.57-.61,1.01v7.15h-1.89v-10.04h1.73l.13,1.48c.22-.53.51-.94.85-1.23s.75-.44,1.2-.44c.12,0,.23.01.33.03.1.02.19.05.27.08l-.21,1.64Z"/><path class="cls-8" d="m162.12,43.81h-1.89v-1.8h1.89v1.8Zm0,12.67h-1.89v-10.04h1.89v10.04Z"/><path class="cls-8" d="m167.91,55.25c.46,0,.85-.18,1.16-.54.31-.36.47-.84.47-1.46h1.7l.02.06c.02.95-.29,1.74-.96,2.39-.66.65-1.46.97-2.39.97-1.24,0-2.19-.47-2.87-1.41-.67-.94-1.01-2.15-1.01-3.61v-.35c0-1.46.34-2.66,1.01-3.61s1.63-1.42,2.87-1.42c1,0,1.82.34,2.44,1.02.63.68.93,1.56.91,2.64l-.02.05h-1.71c0-.67-.15-1.21-.45-1.63-.3-.42-.69-.63-1.18-.63-.71,0-1.21.34-1.53,1.02-.31.68-.47,1.54-.47,2.57v.35c0,1.05.15,1.91.46,2.59.31.67.82,1.01,1.53,1.01Z"/><path class="cls-8" d="m172.64,51.35c0-1.49.35-2.71,1.06-3.66.71-.95,1.67-1.43,2.9-1.43s2.2.48,2.91,1.43c.71.95,1.06,2.17,1.06,3.66v.25c0,1.5-.35,2.72-1.06,3.66-.71.94-1.67,1.41-2.89,1.41s-2.22-.47-2.92-1.41c-.71-.94-1.06-2.16-1.06-3.66v-.25Zm1.89.25c0,1.07.17,1.95.51,2.62.34.68.87,1.02,1.57,1.02s1.2-.34,1.54-1.02c.34-.68.51-1.56.51-2.62v-.25c0-1.05-.17-1.92-.52-2.61-.35-.69-.87-1.03-1.56-1.03s-1.21.34-1.55,1.03c-.34.69-.51,1.56-.51,2.61v.25Z"/><path class="cls-8" d="m191.15,49.3h3.25v1.61h-3.25v4.21h-1.85v-4.21h-3.24v-1.61h3.24v-4.01h1.85v4.01Z"/><path class="cls-8" d="m196.47,50.47l.69-7.5h6.39v1.55h-4.81l-.37,4.06c.25-.23.54-.43.89-.58.34-.15.74-.23,1.19-.25,1.11-.01,1.97.37,2.6,1.16.63.79.94,1.87.94,3.25s-.33,2.44-.98,3.27c-.66.83-1.64,1.24-2.96,1.24-1.07,0-1.97-.32-2.7-.95-.73-.63-1.08-1.55-1.05-2.75l.02-.05,1.79-.04c0,.75.18,1.34.54,1.74s.83.61,1.41.61c.68,0,1.19-.26,1.53-.79.34-.53.51-1.29.51-2.27,0-.9-.17-1.61-.52-2.14-.35-.53-.85-.8-1.51-.8-.59,0-1.03.12-1.32.35-.29.23-.5.58-.63,1.03l-1.64-.16Z"/><path class="cls-8" d="m207.82,56.26l-1.21,2.74h-1.21l.56-2.8v-1.72h1.86v1.78Z"/><path class="cls-8" d="m217.58,51.68c0,1.55-.36,2.77-1.08,3.66-.72.89-1.68,1.34-2.88,1.34s-2.17-.45-2.89-1.34c-.72-.89-1.09-2.11-1.09-3.66v-3.89c0-1.53.36-2.75,1.08-3.66.72-.9,1.68-1.35,2.88-1.35s2.17.45,2.89,1.35c.72.9,1.09,2.12,1.09,3.66v3.89Zm-1.91-4.16c0-1.02-.18-1.82-.54-2.41-.36-.59-.87-.88-1.53-.88s-1.16.29-1.52.88c-.36.59-.54,1.39-.54,2.41v4.42c0,1.02.18,1.83.55,2.42s.88.89,1.53.89,1.16-.29,1.52-.89c.36-.59.53-1.4.53-2.43v-4.42Z"/><path class="cls-8" d="m227.38,51.68c0,1.55-.36,2.77-1.08,3.66-.72.89-1.68,1.34-2.88,1.34s-2.17-.45-2.89-1.34c-.72-.89-1.09-2.11-1.09-3.66v-3.89c0-1.53.36-2.75,1.08-3.66.72-.9,1.68-1.35,2.88-1.35s2.17.45,2.89,1.35c.72.9,1.09,2.12,1.09,3.66v3.89Zm-1.91-4.16c0-1.02-.18-1.82-.54-2.41-.36-.59-.87-.88-1.53-.88s-1.16.29-1.52.88c-.36.59-.54,1.39-.54,2.41v4.42c0,1.02.18,1.83.55,2.42s.88.89,1.53.89,1.16-.29,1.52-.89c.36-.59.53-1.4.53-2.43v-4.42Z"/><path class="cls-8" d="m231.49,56.48h-1.9v-1.88h1.9v1.88Z"/><path class="cls-8" d="m41.55,79.28v-13.51h3.83c1.46,0,2.65.54,3.58,1.62s1.39,2.47,1.39,4.17v1.92c0,1.71-.46,3.1-1.39,4.17s-2.12,1.61-3.58,1.61h-3.83Zm1.88-12.06v10.63h1.95c.93,0,1.67-.41,2.23-1.22s.83-1.86.83-3.14v-1.94c0-1.26-.28-2.3-.83-3.11-.56-.81-1.3-1.22-2.23-1.22h-1.95Z"/><path class="cls-8" d="m56.02,79.48c-1.25,0-2.23-.46-2.94-1.37s-1.06-2.11-1.06-3.57v-.44c0-1.47.35-2.68,1.06-3.62s1.63-1.42,2.77-1.42,2.01.41,2.61,1.22c.6.81.89,1.9.89,3.27v1.06h-5.45c0,1.03.18,1.86.55,2.5.37.64.93.96,1.69.96.53,0,.98-.08,1.37-.25s.75-.4,1.08-.72l.61,1.17c-.33.35-.77.64-1.32.87-.55.23-1.17.35-1.87.35Zm-.18-8.97c-.54,0-.98.25-1.3.76-.32.5-.52,1.17-.6,2h3.55v-.21c0-.75-.13-1.37-.4-1.84-.27-.47-.68-.71-1.25-.71Z"/><path class="cls-8" d="m65.81,76.75c0-.39-.13-.72-.39-.98-.26-.26-.76-.56-1.49-.89-1.03-.39-1.81-.81-2.32-1.27-.51-.46-.77-1.05-.77-1.76,0-.77.31-1.43.93-1.98.62-.54,1.43-.82,2.43-.82s1.87.3,2.5.9.93,1.32.91,2.17l-.02.06h-1.82c0-.48-.14-.89-.42-1.23-.28-.34-.66-.51-1.15-.51s-.86.13-1.13.4-.4.58-.4.94c0,.38.12.69.35.9.23.22.73.5,1.49.85,1.05.37,1.84.8,2.37,1.29.53.49.79,1.1.79,1.84,0,.83-.32,1.51-.96,2.04-.64.52-1.48.78-2.52.78-1.12,0-2.01-.31-2.66-.94-.65-.63-.95-1.36-.92-2.2l.02-.06h1.75c.02.65.21,1.12.55,1.41.34.29.77.43,1.29.43s.89-.13,1.17-.38c.28-.26.42-.58.42-.98Z"/><path class="cls-8" d="m73.05,79.48c-1.25,0-2.23-.46-2.94-1.37s-1.06-2.11-1.06-3.57v-.44c0-1.47.35-2.68,1.06-3.62s1.63-1.42,2.77-1.42,2.01.41,2.61,1.22c.6.81.89,1.9.89,3.27v1.06h-5.45c0,1.03.18,1.86.55,2.5.37.64.93.96,1.69.96.53,0,.98-.08,1.37-.25s.75-.4,1.08-.72l.61,1.17c-.33.35-.77.64-1.32.87-.55.23-1.17.35-1.87.35Zm-.18-8.97c-.54,0-.98.25-1.3.76-.32.5-.52,1.17-.6,2h3.55v-.21c0-.75-.13-1.37-.4-1.84-.27-.47-.68-.71-1.25-.71Z"/><path class="cls-8" d="m80.16,69.24v10.72c0,1.08-.25,1.91-.74,2.49-.5.58-1.18.88-2.06.88-.19,0-.35-.01-.51-.04-.15-.03-.32-.07-.5-.13l.11-1.44c.1.04.21.07.34.09.13.02.25.04.36.04.34,0,.61-.16.81-.47.2-.31.3-.79.3-1.42v-10.72h1.88Zm-.05-2.66h-1.89v-1.77h1.89v1.77Z"/><path class="cls-8" d="m87.65,79.28c-.08-.3-.14-.57-.19-.81-.05-.24-.08-.47-.09-.71-.27.5-.62.9-1.05,1.23-.44.32-.93.49-1.49.49-.9,0-1.58-.27-2.06-.8-.48-.53-.72-1.26-.72-2.18s.33-1.69,1-2.24c.66-.54,1.59-.82,2.78-.82h1.54v-1.03c0-.61-.14-1.09-.41-1.43-.27-.34-.66-.51-1.17-.51-.46,0-.82.15-1.09.45-.27.3-.4.68-.4,1.14h-1.8s-.02-.05-.02-.05c-.04-.78.27-1.47.91-2.06.64-.59,1.48-.89,2.52-.89s1.8.29,2.42.88c.62.58.93,1.42.93,2.5v4.66c0,.38.02.76.07,1.12.05.36.13.72.23,1.07h-1.91Zm-2.43-1.25c.51,0,.97-.16,1.36-.48.4-.32.66-.7.78-1.15v-1.78h-1.57c-.58,0-1.04.18-1.36.55s-.49.81-.49,1.33c0,.46.11.83.33,1.11s.54.42.95.42Z"/><path class="cls-8" d="m96.29,74.25h-4.7v-1.44h4.7v1.44Z"/><path class="cls-8" d="m103.47,76.75c0-.39-.13-.72-.39-.98-.26-.26-.76-.56-1.49-.89-1.03-.39-1.81-.81-2.32-1.27-.51-.46-.77-1.05-.77-1.76,0-.77.31-1.43.93-1.98.62-.54,1.43-.82,2.43-.82s1.87.3,2.5.9.93,1.32.91,2.17l-.02.06h-1.82c0-.48-.14-.89-.42-1.23-.28-.34-.66-.51-1.15-.51s-.86.13-1.13.4-.4.58-.4.94c0,.38.12.69.35.9.23.22.73.5,1.49.85,1.05.37,1.84.8,2.37,1.29.53.49.79,1.1.79,1.84,0,.83-.32,1.51-.96,2.04-.64.52-1.48.78-2.52.78-1.12,0-2.01-.31-2.66-.94-.65-.63-.95-1.36-.92-2.2l.02-.06h1.75c.02.65.21,1.12.55,1.41.34.29.77.43,1.29.43s.89-.13,1.17-.38c.28-.26.42-.58.42-.98Z"/><path class="cls-8" d="m110.7,79.48c-1.25,0-2.23-.46-2.94-1.37s-1.06-2.11-1.06-3.57v-.44c0-1.47.35-2.68,1.06-3.62s1.63-1.42,2.77-1.42,2.01.41,2.61,1.22c.6.81.89,1.9.89,3.27v1.06h-5.45c0,1.03.18,1.86.55,2.5.37.64.93.96,1.69.96.53,0,.98-.08,1.37-.25s.75-.4,1.08-.72l.61,1.17c-.33.35-.77.64-1.32.87-.55.23-1.17.35-1.87.35Zm-.18-8.97c-.54,0-.98.25-1.3.76-.32.5-.52,1.17-.6,2h3.55v-.21c0-.75-.13-1.37-.4-1.84-.27-.47-.68-.71-1.25-.71Z"/><path class="cls-8" d="m123.39,78.05c.46,0,.85-.18,1.16-.54.31-.36.47-.84.47-1.46h1.7l.02.06c.02.95-.29,1.74-.96,2.39-.66.65-1.46.97-2.39.97-1.24,0-2.19-.47-2.87-1.41s-1.01-2.15-1.01-3.61v-.35c0-1.46.34-2.66,1.01-3.61.67-.95,1.63-1.42,2.87-1.42,1,0,1.82.34,2.44,1.02.63.68.93,1.56.91,2.64l-.02.05h-1.71c0-.67-.15-1.21-.45-1.63-.3-.42-.69-.63-1.18-.63-.71,0-1.21.34-1.53,1.02-.31.68-.47,1.54-.47,2.57v.35c0,1.05.15,1.91.46,2.59.31.67.82,1.01,1.53,1.01Z"/><path class="cls-8" d="m128.12,74.15c0-1.49.35-2.71,1.06-3.66.71-.95,1.67-1.43,2.9-1.43s2.2.48,2.91,1.43c.71.95,1.06,2.17,1.06,3.66v.25c0,1.5-.35,2.72-1.06,3.66s-1.67,1.41-2.89,1.41-2.22-.47-2.92-1.41-1.06-2.16-1.06-3.66v-.25Zm1.89.25c0,1.07.17,1.95.51,2.63.34.68.87,1.02,1.57,1.02s1.2-.34,1.54-1.02c.34-.68.51-1.56.51-2.62v-.25c0-1.05-.17-1.92-.52-2.61-.35-.69-.87-1.03-1.56-1.03s-1.21.34-1.55,1.03c-.34.69-.51,1.56-.51,2.61v.25Z"/><path class="cls-8" d="m139.56,69.24l.11,1.49c.28-.53.64-.94,1.08-1.24.43-.29.92-.44,1.47-.44.89,0,1.58.33,2.08.98.5.66.75,1.68.75,3.06v6.18h-1.88v-6.17c0-.95-.13-1.61-.39-2s-.66-.58-1.19-.58c-.43,0-.8.11-1.11.34-.31.23-.56.54-.74.93v7.49h-1.89v-10.04h1.73Z"/><path class="cls-8" d="m150.16,76.27l.16.79h.06l.17-.79,1.75-7.02h1.95l-3.06,10.04h-1.68l-3.08-10.04h1.97l1.77,7.02Z"/><path class="cls-8" d="m159.09,79.48c-1.25,0-2.23-.46-2.94-1.37s-1.06-2.11-1.06-3.57v-.44c0-1.47.35-2.68,1.06-3.62s1.63-1.42,2.77-1.42,2.01.41,2.61,1.22c.6.81.89,1.9.89,3.27v1.06h-5.45c0,1.03.18,1.86.55,2.5.37.64.93.96,1.69.96.53,0,.98-.08,1.37-.25s.75-.4,1.08-.72l.61,1.17c-.33.35-.77.64-1.32.87-.55.23-1.17.35-1.87.35Zm-.18-8.97c-.54,0-.98.25-1.3.76-.32.5-.52,1.17-.6,2h3.55v-.21c0-.75-.13-1.37-.4-1.84-.27-.47-.68-.71-1.25-.71Z"/><path class="cls-8" d="m168.43,70.81l-.82-.05c-.4,0-.73.12-.99.36-.26.24-.47.57-.61,1.01v7.15h-1.89v-10.04h1.73l.13,1.48c.22-.53.51-.94.85-1.23.35-.29.75-.44,1.2-.44.12,0,.23.01.33.03.1.02.19.05.27.08l-.21,1.64Z"/><path class="cls-8" d="m172.54,66.75v2.5h1.57v1.35h-1.57v5.97c0,.52.08.89.24,1.11.16.22.37.33.63.33.11,0,.21,0,.3-.03.09-.02.2-.05.33-.08l.19,1.3c-.18.09-.38.16-.6.21-.22.05-.45.08-.68.08-.72,0-1.29-.23-1.69-.7-.4-.47-.6-1.2-.6-2.21v-5.97h-1.33v-1.35h1.33v-2.5h1.89Z"/><path class="cls-8" d="m179.45,79.48c-1.25,0-2.23-.46-2.94-1.37s-1.06-2.11-1.06-3.57v-.44c0-1.47.35-2.68,1.06-3.62s1.63-1.42,2.77-1.42,2.01.41,2.61,1.22c.6.81.89,1.9.89,3.27v1.06h-5.45c0,1.03.18,1.86.55,2.5.37.64.93.96,1.69.96.53,0,.98-.08,1.37-.25s.75-.4,1.08-.72l.61,1.17c-.33.35-.77.64-1.32.87-.55.23-1.17.35-1.87.35Zm-.18-8.97c-.54,0-.98.25-1.3.76-.32.5-.52,1.17-.6,2h3.55v-.21c0-.75-.13-1.37-.4-1.84-.27-.47-.68-.71-1.25-.71Z"/><path class="cls-8" d="m188.78,70.81l-.82-.05c-.4,0-.73.12-.99.36-.26.24-.47.57-.61,1.01v7.15h-1.89v-10.04h1.73l.13,1.48c.22-.53.51-.94.85-1.23.35-.29.75-.44,1.2-.44.12,0,.23.01.33.03.1.02.19.05.27.08l-.21,1.64Z"/><path class="cls-8" d="m198.12,79.48c-1.25,0-2.23-.46-2.94-1.37s-1.06-2.11-1.06-3.57v-.44c0-1.47.35-2.68,1.06-3.62s1.63-1.42,2.77-1.42,2.01.41,2.61,1.22c.6.81.89,1.9.89,3.27v1.06h-5.45c0,1.03.18,1.86.55,2.5.37.64.93.96,1.69.96.53,0,.98-.08,1.37-.25s.75-.4,1.08-.72l.61,1.17c-.33.35-.77.64-1.32.87-.55.23-1.17.35-1.87.35Zm-.18-8.97c-.54,0-.98.25-1.3.76-.32.5-.52,1.17-.6,2h3.55v-.21c0-.75-.13-1.37-.4-1.84-.27-.47-.68-.71-1.25-.71Z"/><path class="cls-8" d="m207.91,76.75c0-.39-.13-.72-.39-.98-.26-.26-.76-.56-1.49-.89-1.03-.39-1.81-.81-2.32-1.27-.51-.46-.77-1.05-.77-1.76,0-.77.31-1.43.93-1.98.62-.54,1.43-.82,2.43-.82s1.87.3,2.5.9.93,1.32.91,2.17l-.02.06h-1.82c0-.48-.14-.89-.42-1.23-.28-.34-.66-.51-1.15-.51s-.86.13-1.13.4-.4.58-.4.94c0,.38.12.69.35.9.23.22.73.5,1.49.85,1.05.37,1.84.8,2.37,1.29.53.49.79,1.1.79,1.84,0,.83-.32,1.51-.96,2.04-.64.52-1.48.78-2.52.78-1.12,0-2.01-.31-2.66-.94-.65-.63-.95-1.36-.92-2.2l.02-.06h1.75c.02.65.21,1.12.55,1.41.34.29.77.43,1.29.43s.89-.13,1.17-.38c.28-.26.42-.58.42-.98Z"/><path class="cls-8" d="m216.28,76.75c0-.39-.13-.72-.39-.98-.26-.26-.76-.56-1.49-.89-1.03-.39-1.81-.81-2.32-1.27-.51-.46-.77-1.05-.77-1.76,0-.77.31-1.43.93-1.98.62-.54,1.43-.82,2.43-.82s1.87.3,2.5.9.93,1.32.91,2.17l-.02.06h-1.82c0-.48-.14-.89-.42-1.23-.28-.34-.66-.51-1.15-.51s-.86.13-1.13.4-.4.58-.4.94c0,.38.12.69.35.9.23.22.73.5,1.49.85,1.05.37,1.84.8,2.37,1.29.53.49.79,1.1.79,1.84,0,.83-.32,1.51-.96,2.04-.64.52-1.48.78-2.52.78-1.12,0-2.01-.31-2.66-.94-.65-.63-.95-1.36-.92-2.2l.02-.06h1.75c.02.65.21,1.12.55,1.41.34.29.77.43,1.29.43s.89-.13,1.17-.38c.28-.26.42-.58.42-.98Z"/><path class="cls-8" d="m223.52,79.48c-1.25,0-2.23-.46-2.94-1.37s-1.06-2.11-1.06-3.57v-.44c0-1.47.35-2.68,1.06-3.62s1.63-1.42,2.77-1.42,2.01.41,2.61,1.22c.6.81.89,1.9.89,3.27v1.06h-5.45c0,1.03.18,1.86.55,2.5.37.64.93.96,1.69.96.53,0,.98-.08,1.37-.25s.75-.4,1.08-.72l.61,1.17c-.33.35-.77.64-1.32.87-.55.23-1.17.35-1.87.35Zm-.18-8.97c-.54,0-.98.25-1.3.76-.32.5-.52,1.17-.6,2h3.55v-.21c0-.75-.13-1.37-.4-1.84-.27-.47-.68-.71-1.25-.71Z"/><path class="cls-8" d="m232.4,74.38c0-1.61.29-2.9.88-3.87s1.42-1.46,2.49-1.46c.52,0,.98.12,1.38.38.4.25.73.61,1.01,1.07l.18-1.26h1.58v10.06c0,1.29-.34,2.28-1.03,2.98-.69.7-1.66,1.05-2.9,1.05-.43,0-.88-.06-1.37-.19-.49-.13-.92-.31-1.31-.53l.31-1.41c.34.19.71.34,1.11.45.4.11.82.16,1.25.16.71,0,1.22-.21,1.56-.63.33-.42.5-1.05.5-1.9v-.99c-.27.39-.6.68-.97.88s-.81.3-1.29.3c-1.06,0-1.88-.45-2.47-1.34s-.88-2.08-.88-3.56v-.19Zm1.89.19c0,1.06.16,1.9.46,2.51.31.62.8.93,1.47.93.42,0,.78-.11,1.07-.32s.53-.52.71-.92v-4.94c-.18-.41-.42-.73-.71-.96-.29-.23-.65-.35-1.06-.35-.67,0-1.16.36-1.48,1.07-.32.71-.47,1.64-.47,2.79v.19Z"/><path class="cls-8" d="m246.38,70.81l-.82-.05c-.4,0-.73.12-.99.36-.26.24-.47.57-.61,1.01v7.15h-1.89v-10.04h1.73l.13,1.48c.22-.53.51-.94.85-1.23.35-.29.75-.44,1.2-.44.12,0,.23.01.33.03.1.02.19.05.27.08l-.21,1.64Z"/><path class="cls-8" d="m253.13,79.28c-.08-.3-.14-.57-.19-.81-.05-.24-.08-.47-.09-.71-.27.5-.62.9-1.05,1.23-.44.32-.93.49-1.49.49-.9,0-1.58-.27-2.06-.8-.48-.53-.72-1.26-.72-2.18s.33-1.69,1-2.24c.66-.54,1.59-.82,2.78-.82h1.54v-1.03c0-.61-.14-1.09-.41-1.43-.27-.34-.66-.51-1.17-.51-.46,0-.82.15-1.09.45-.27.3-.4.68-.4,1.14h-1.8s-.02-.05-.02-.05c-.04-.78.27-1.47.91-2.06.64-.59,1.48-.89,2.52-.89s1.8.29,2.42.88c.62.58.93,1.42.93,2.5v4.66c0,.38.02.76.07,1.12.05.36.13.72.23,1.07h-1.91Zm-2.43-1.25c.51,0,.97-.16,1.36-.48.4-.32.66-.7.78-1.15v-1.78h-1.57c-.58,0-1.04.18-1.36.55s-.49.81-.49,1.33c0,.46.11.83.33,1.11s.54.42.95.42Z"/><path class="cls-8" d="m262.28,77.82c-.27.53-.62.94-1.04,1.23-.42.29-.91.43-1.46.43-.92,0-1.64-.36-2.16-1.07-.52-.71-.78-1.82-.78-3.31v-5.85h1.89v5.87c0,1.08.12,1.83.37,2.26s.62.64,1.13.64c.46,0,.86-.11,1.18-.32.33-.22.58-.53.77-.93v-7.52h1.89v10.04h-1.61l-.19-1.47Z"/><path class="cls-8" d="m277.95,74.58c0,1.48-.3,2.67-.89,3.56s-1.41,1.34-2.47,1.34c-.49,0-.93-.1-1.31-.29-.38-.19-.7-.48-.97-.86v4.81h-1.89v-13.9h1.6l.18,1.21c.27-.45.61-.8,1-1.03.4-.24.86-.36,1.38-.36,1.06,0,1.89.49,2.48,1.46s.89,2.26.89,3.87v.19Zm-1.89-.19c0-1.14-.17-2.07-.5-2.78-.33-.72-.83-1.08-1.49-1.08-.42,0-.78.12-1.07.35-.29.23-.52.55-.7.94v5.06c.17.38.4.67.7.87s.65.31,1.08.31c.66,0,1.16-.32,1.48-.95s.49-1.47.49-2.52v-.19Z"/><path class="cls-8" d="m284.98,79.28c-.08-.3-.14-.57-.19-.81-.05-.24-.08-.47-.09-.71-.27.5-.62.9-1.05,1.23-.44.32-.93.49-1.49.49-.9,0-1.58-.27-2.06-.8-.48-.53-.72-1.26-.72-2.18s.33-1.69,1-2.24c.66-.54,1.59-.82,2.78-.82h1.54v-1.03c0-.61-.14-1.09-.41-1.43-.27-.34-.66-.51-1.17-.51-.46,0-.82.15-1.09.45-.27.3-.4.68-.4,1.14h-1.8s-.02-.05-.02-.05c-.04-.78.27-1.47.91-2.06.64-.59,1.48-.89,2.52-.89s1.8.29,2.42.88c.62.58.93,1.42.93,2.5v4.66c0,.38.02.76.07,1.12.05.36.13.72.23,1.07h-1.91Zm-2.43-1.25c.51,0,.97-.16,1.36-.48.4-.32.66-.7.78-1.15v-1.78h-1.57c-.58,0-1.04.18-1.36.55s-.49.81-.49,1.33c0,.46.11.83.33,1.11s.54.42.95.42Z"/><path class="cls-8" d="m293.04,70.81l-.82-.05c-.4,0-.73.12-.99.36-.26.24-.47.57-.61,1.01v7.15h-1.89v-10.04h1.73l.13,1.48c.22-.53.51-.94.85-1.23.35-.29.75-.44,1.2-.44.12,0,.23.01.33.03.1.02.19.05.27.08l-.21,1.64Z"/><path class="cls-8" d="m299.79,79.28c-.08-.3-.14-.57-.19-.81-.05-.24-.08-.47-.09-.71-.27.5-.62.9-1.05,1.23-.44.32-.93.49-1.49.49-.9,0-1.58-.27-2.06-.8-.48-.53-.72-1.26-.72-2.18s.33-1.69,1-2.24c.66-.54,1.59-.82,2.78-.82h1.54v-1.03c0-.61-.14-1.09-.41-1.43-.27-.34-.66-.51-1.17-.51-.46,0-.82.15-1.09.45-.27.3-.4.68-.4,1.14h-1.8s-.02-.05-.02-.05c-.04-.78.27-1.47.91-2.06.64-.59,1.48-.89,2.52-.89s1.8.29,2.42.88c.62.58.93,1.42.93,2.5v4.66c0,.38.02.76.07,1.12.05.36.13.72.23,1.07h-1.91Zm-2.43-1.25c.51,0,.97-.16,1.36-.48.4-.32.66-.7.78-1.15v-1.78h-1.57c-.58,0-1.04.18-1.36.55s-.49.81-.49,1.33c0,.46.11.83.33,1.11s.54.42.95.42Z"/><path class="cls-8" d="m309.74,79.28h-1.89v-14.47h1.89v14.47Z"/><path class="cls-8" d="m315.67,79.48c-1.25,0-2.23-.46-2.94-1.37s-1.06-2.11-1.06-3.57v-.44c0-1.47.35-2.68,1.06-3.62s1.63-1.42,2.77-1.42,2.01.41,2.61,1.22c.6.81.89,1.9.89,3.27v1.06h-5.45c0,1.03.18,1.86.55,2.5.37.64.93.96,1.69.96.53,0,.98-.08,1.37-.25s.75-.4,1.08-.72l.61,1.17c-.33.35-.77.64-1.32.87-.55.23-1.17.35-1.87.35Zm-.18-8.97c-.54,0-.98.25-1.3.76-.32.5-.52,1.17-.6,2h3.55v-.21c0-.75-.13-1.37-.4-1.84-.27-.47-.68-.71-1.25-.71Z"/><path class="cls-8" d="m322.4,69.24l.11,1.49c.28-.53.64-.94,1.08-1.24.43-.29.92-.44,1.47-.44.89,0,1.58.33,2.08.98.5.66.75,1.68.75,3.06v6.18h-1.88v-6.17c0-.95-.13-1.61-.39-2s-.66-.58-1.19-.58c-.43,0-.8.11-1.11.34-.31.23-.56.54-.74.93v7.49h-1.89v-10.04h1.73Z"/><path class="cls-8" d="m332.47,66.75v2.5h1.57v1.35h-1.57v5.97c0,.52.08.89.24,1.11.16.22.37.33.63.33.11,0,.21,0,.3-.03.09-.02.2-.05.33-.08l.19,1.3c-.18.09-.38.16-.6.21-.22.05-.45.08-.68.08-.72,0-1.29-.23-1.69-.7-.4-.47-.6-1.2-.6-2.21v-5.97h-1.33v-1.35h1.33v-2.5h1.89Z"/><path class="cls-8" d="m339.37,79.48c-1.25,0-2.23-.46-2.94-1.37s-1.06-2.11-1.06-3.57v-.44c0-1.47.35-2.68,1.06-3.62s1.63-1.42,2.77-1.42,2.01.41,2.61,1.22c.6.81.89,1.9.89,3.27v1.06h-5.45c0,1.03.18,1.86.55,2.5.37.64.93.96,1.69.96.53,0,.98-.08,1.37-.25s.75-.4,1.08-.72l.61,1.17c-.33.35-.77.64-1.32.87-.55.23-1.17.35-1.87.35Zm-.18-8.97c-.54,0-.98.25-1.3.76-.32.5-.52,1.17-.6,2h3.55v-.21c0-.75-.13-1.37-.4-1.84-.27-.47-.68-.71-1.25-.71Z"/><path class="cls-8" d="m40.99,97.18c0-1.61.29-2.9.88-3.87.59-.97,1.41-1.46,2.48-1.46.48,0,.9.11,1.28.32.38.21.7.52.97.92v-5.49h1.88v14.47h-1.56l-.19-1.21c-.28.46-.62.81-1.02,1.04s-.86.36-1.38.36c-1.06,0-1.88-.45-2.46-1.34-.58-.89-.88-2.08-.88-3.56v-.2Zm1.88.2c0,1.05.16,1.89.47,2.51s.81.93,1.47.93c.42,0,.78-.11,1.07-.33.29-.22.53-.54.72-.95v-4.86c-.19-.41-.43-.74-.72-.99-.3-.24-.65-.37-1.06-.37-.67,0-1.16.36-1.48,1.07-.32.71-.48,1.64-.48,2.79v.2Z"/><path class="cls-8" d="m54.32,102.28c-1.25,0-2.23-.46-2.94-1.37-.71-.92-1.06-2.11-1.06-3.57v-.44c0-1.47.35-2.68,1.06-3.62s1.63-1.42,2.77-1.42,2.01.41,2.61,1.22c.6.81.89,1.9.89,3.27v1.06h-5.45c0,1.03.18,1.86.55,2.5.37.64.93.96,1.69.96.53,0,.98-.08,1.37-.25s.75-.4,1.08-.72l.61,1.17c-.33.35-.77.64-1.32.87-.55.23-1.17.35-1.87.35Zm-.18-8.97c-.54,0-.98.25-1.3.76-.32.5-.52,1.17-.6,2h3.55v-.21c0-.75-.13-1.37-.4-1.84-.27-.47-.68-.71-1.25-.71Z"/><path class="cls-8" d="m67.01,100.85c.46,0,.85-.18,1.16-.54.31-.36.47-.84.47-1.46h1.7l.02.06c.02.95-.29,1.74-.96,2.39-.66.65-1.46.97-2.39.97-1.24,0-2.19-.47-2.87-1.42s-1.01-2.15-1.01-3.61v-.35c0-1.46.34-2.66,1.01-3.61.67-.95,1.63-1.42,2.87-1.42,1,0,1.82.34,2.44,1.02.63.68.93,1.56.91,2.64l-.02.05h-1.71c0-.67-.15-1.21-.45-1.63-.3-.42-.69-.63-1.18-.63-.71,0-1.21.34-1.53,1.02-.31.68-.47,1.54-.47,2.57v.35c0,1.05.15,1.91.46,2.59.31.67.82,1.01,1.53,1.01Z"/><path class="cls-8" d="m71.75,96.95c0-1.49.35-2.71,1.06-3.67.71-.95,1.67-1.43,2.9-1.43s2.2.48,2.91,1.43c.71.95,1.06,2.17,1.06,3.67v.25c0,1.5-.35,2.72-1.06,3.66s-1.67,1.42-2.89,1.42-2.22-.47-2.92-1.42-1.06-2.16-1.06-3.66v-.25Zm1.89.25c0,1.07.17,1.95.51,2.63.34.68.87,1.02,1.57,1.02s1.2-.34,1.54-1.03c.34-.68.51-1.56.51-2.62v-.25c0-1.05-.17-1.92-.52-2.61-.35-.69-.87-1.03-1.56-1.03s-1.21.35-1.55,1.03c-.34.69-.51,1.56-.51,2.61v.25Z"/><path class="cls-8" d="m83.18,92.04l.11,1.49c.28-.53.64-.94,1.08-1.24.43-.29.92-.44,1.47-.44.89,0,1.58.33,2.08.98.5.66.75,1.68.75,3.06v6.18h-1.88v-6.17c0-.95-.13-1.61-.39-2s-.66-.58-1.19-.58c-.43,0-.8.11-1.11.34-.31.23-.56.54-.74.93v7.49h-1.89v-10.04h1.73Z"/><path class="cls-8" d="m93.25,89.55v2.5h1.57v1.35h-1.57v5.97c0,.52.08.89.24,1.11.16.22.37.33.63.33.11,0,.21,0,.3-.03.09-.02.2-.05.33-.08l.19,1.3c-.18.09-.38.16-.6.21-.22.05-.45.08-.68.08-.72,0-1.29-.23-1.69-.7-.4-.47-.6-1.2-.6-2.21v-5.97h-1.33v-1.35h1.33v-2.5h1.89Z"/><path class="cls-8" d="m101.74,102.08c-.08-.3-.14-.57-.19-.81-.05-.24-.08-.47-.09-.71-.27.5-.62.9-1.05,1.23-.44.32-.93.49-1.49.49-.9,0-1.58-.27-2.06-.8-.48-.53-.72-1.26-.72-2.18s.33-1.69,1-2.24c.66-.54,1.59-.82,2.78-.82h1.54v-1.03c0-.61-.14-1.09-.41-1.43s-.66-.52-1.17-.52c-.46,0-.82.15-1.09.45-.27.3-.4.68-.4,1.14h-1.8s-.02-.05-.02-.05c-.04-.78.27-1.47.91-2.06.64-.59,1.48-.89,2.52-.89s1.8.29,2.42.88.93,1.42.93,2.5v4.66c0,.38.02.76.07,1.12s.13.72.23,1.07h-1.91Zm-2.43-1.25c.51,0,.97-.16,1.36-.48.4-.32.66-.7.78-1.15v-1.78h-1.57c-.58,0-1.04.18-1.36.55s-.49.81-.49,1.33c0,.46.11.83.33,1.11s.54.42.95.42Z"/><path class="cls-8" d="m107.92,89.55v2.5h1.57v1.35h-1.57v5.97c0,.52.08.89.24,1.11.16.22.37.33.63.33.11,0,.21,0,.3-.03.09-.02.2-.05.33-.08l.19,1.3c-.18.09-.38.16-.6.21-.22.05-.45.08-.68.08-.72,0-1.29-.23-1.69-.7-.4-.47-.6-1.2-.6-2.21v-5.97h-1.33v-1.35h1.33v-2.5h1.89Z"/><path class="cls-8" d="m110.81,96.95c0-1.49.35-2.71,1.06-3.67.71-.95,1.67-1.43,2.9-1.43s2.2.48,2.91,1.43c.71.95,1.06,2.17,1.06,3.67v.25c0,1.5-.35,2.72-1.06,3.66s-1.67,1.42-2.89,1.42-2.22-.47-2.92-1.42-1.06-2.16-1.06-3.66v-.25Zm1.89.25c0,1.07.17,1.95.51,2.63.34.68.87,1.02,1.57,1.02s1.2-.34,1.54-1.03c.34-.68.51-1.56.51-2.62v-.25c0-1.05-.17-1.92-.52-2.61-.35-.69-.87-1.03-1.56-1.03s-1.21.35-1.55,1.03c-.34.69-.51,1.56-.51,2.61v.25Z"/><path class="cls-8" d="m122.64,93.96h-1.9v-1.88h1.9v1.88Zm0,8.13h-1.9v-1.88h1.9v1.88Z"/><path class="cls-8" d="m41.55,147.68v-13.51h3.83c1.46,0,2.65.54,3.58,1.62.92,1.08,1.39,2.47,1.39,4.17v1.92c0,1.71-.46,3.1-1.39,4.17s-2.12,1.61-3.58,1.61h-3.83Zm1.88-12.06v10.63h1.95c.93,0,1.67-.41,2.23-1.22.56-.81.83-1.86.83-3.14v-1.94c0-1.26-.28-2.3-.83-3.11s-1.3-1.22-2.23-1.22h-1.95Z"/><path class="cls-8" d="m60.3,147.68h-7.8v-1.25l3.82-5c.62-.87,1.06-1.58,1.3-2.13.24-.56.37-1.09.37-1.61,0-.69-.15-1.23-.45-1.64s-.74-.61-1.32-.61c-.66,0-1.16.25-1.51.75-.35.5-.52,1.14-.52,1.91h-1.85l-.03-.06c-.02-1.13.32-2.09,1.03-2.88.71-.79,1.67-1.18,2.88-1.18s2.06.34,2.71,1.01c.65.67.97,1.57.97,2.7,0,.76-.2,1.5-.59,2.21-.39.71-.99,1.59-1.8,2.62l-2.63,3.74h5.43v1.43Z"/><path class="cls-8" d="m69.22,140.19h-6.91v-1.48h6.91v1.48Zm0,3.88h-6.91v-1.48h6.91v1.48Z"/><path class="cls-8" d="m71.63,142.21c0-2.34.41-4.39,1.23-6.13s1.71-2.89,2.68-3.46h.06l.34,1c-.71.63-1.31,1.7-1.83,3.19-.51,1.5-.77,3.29-.77,5.37v.19c0,2.08.26,3.87.77,5.36s1.12,2.57,1.83,3.24l-.34.95h-.06c-.97-.56-1.86-1.7-2.68-3.42-.82-1.72-1.22-3.77-1.22-6.14v-.15Z"/><path class="cls-8" d="m81.87,140.5h3.25v1.61h-3.25v4.21h-1.85v-4.21h-3.24v-1.61h3.24v-4.01h1.85v4.01Z"/><path class="cls-8" d="m87.18,141.67l.69-7.5h6.39v1.55h-4.81l-.37,4.06c.25-.23.54-.43.89-.58.34-.15.74-.23,1.19-.25,1.11-.01,1.97.37,2.6,1.16.63.79.94,1.87.94,3.25s-.33,2.45-.98,3.27c-.66.83-1.64,1.24-2.96,1.24-1.07,0-1.97-.32-2.7-.95-.73-.63-1.08-1.55-1.05-2.75l.02-.05,1.79-.04c0,.75.18,1.34.54,1.74s.83.61,1.41.61c.68,0,1.19-.26,1.53-.79.34-.53.51-1.29.51-2.27,0-.9-.17-1.61-.52-2.14s-.85-.8-1.51-.8c-.59,0-1.03.12-1.32.35-.29.23-.5.58-.63,1.03l-1.64-.16Z"/><path class="cls-8" d="m100.18,142.36c0,2.35-.42,4.39-1.25,6.12-.83,1.73-1.74,2.88-2.71,3.44h-.06l-.36-.95c.7-.63,1.31-1.7,1.83-3.21.52-1.51.78-3.3.78-5.39v-.19c0-2.07-.27-3.86-.8-5.38-.54-1.52-1.14-2.6-1.81-3.24l.36-.95h.06c.97.56,1.87,1.71,2.71,3.47.83,1.75,1.25,3.79,1.25,6.12v.15Z"/><path class="cls-8" d="m103.1,148.84h-1.75l4.54-14.67h1.75l-4.55,14.67Z"/><path class="cls-8" d="m109.13,142.21c0-2.34.41-4.39,1.23-6.13s1.71-2.89,2.68-3.46h.06l.34,1c-.71.63-1.31,1.7-1.83,3.19-.51,1.5-.77,3.29-.77,5.37v.19c0,2.08.26,3.87.77,5.36s1.12,2.57,1.83,3.24l-.34.95h-.06c-.97-.56-1.86-1.7-2.68-3.42-.82-1.72-1.22-3.77-1.22-6.14v-.15Z"/><path class="cls-8" d="m119.92,147.68h-1.89v-11.91l-2.63.17v-1.4l4.53-.56v13.7Z"/><path class="cls-8" d="m129.44,142.65h-4.7v-1.44h4.7v1.44Z"/><path class="cls-8" d="m131.85,142.21c0-2.34.41-4.39,1.23-6.13s1.71-2.89,2.68-3.46h.06l.34,1c-.71.63-1.31,1.7-1.83,3.19-.51,1.5-.77,3.29-.77,5.37v.19c0,2.08.26,3.87.77,5.36s1.12,2.57,1.83,3.24l-.34.95h-.06c-.97-.56-1.86-1.7-2.68-3.42-.82-1.72-1.22-3.77-1.22-6.14v-.15Z"/><path class="cls-8" d="m142.1,140.5h3.25v1.61h-3.25v4.21h-1.85v-4.21h-3.24v-1.61h3.24v-4.01h1.85v4.01Z"/><path class="cls-8" d="m147.41,141.67l.69-7.5h6.39v1.55h-4.81l-.37,4.06c.25-.23.54-.43.89-.58.34-.15.74-.23,1.19-.25,1.11-.01,1.97.37,2.6,1.16.63.79.94,1.87.94,3.25s-.33,2.45-.98,3.27c-.66.83-1.64,1.24-2.96,1.24-1.07,0-1.97-.32-2.7-.95-.73-.63-1.08-1.55-1.05-2.75l.02-.05,1.79-.04c0,.75.18,1.34.54,1.74s.83.61,1.41.61c.68,0,1.19-.26,1.53-.79.34-.53.51-1.29.51-2.27,0-.9-.17-1.61-.52-2.14s-.85-.8-1.51-.8c-.59,0-1.03.12-1.32.35-.29.23-.5.58-.63,1.03l-1.64-.16Z"/><path class="cls-8" d="m160.41,142.36c0,2.35-.42,4.39-1.25,6.12-.83,1.73-1.74,2.88-2.71,3.44h-.06l-.36-.95c.7-.63,1.31-1.7,1.83-3.21.52-1.51.78-3.3.78-5.39v-.19c0-2.07-.27-3.86-.8-5.38-.54-1.52-1.14-2.6-1.81-3.24l.36-.95h.06c.97.56,1.87,1.71,2.71,3.47.83,1.75,1.25,3.79,1.25,6.12v.15Z"/><path class="cls-8" d="m165.63,141.31h.06l1.61-3.66h2.17l-2.72,4.95,2.81,5.08h-2.15l-1.7-3.79h-.05l-1.69,3.79h-2.15l2.79-5.08-2.71-4.95h2.13l1.6,3.66Z"/><path class="cls-8" d="m178.74,142.88c0,1.55-.36,2.77-1.08,3.66-.72.89-1.68,1.34-2.88,1.34s-2.17-.45-2.89-1.34c-.72-.89-1.09-2.11-1.09-3.66v-3.89c0-1.53.36-2.75,1.08-3.66.72-.9,1.68-1.35,2.88-1.35s2.17.45,2.89,1.35c.72.9,1.09,2.12,1.09,3.66v3.89Zm-1.91-4.16c0-1.02-.18-1.82-.54-2.41-.36-.59-.87-.88-1.53-.88s-1.16.29-1.52.88c-.36.59-.54,1.39-.54,2.41v4.42c0,1.02.18,1.83.55,2.42s.88.89,1.53.89,1.16-.29,1.52-.89c.36-.59.53-1.4.53-2.43v-4.42Z"/><path class="cls-8" d="m182.62,147.46l-1.21,2.74h-1.21l.56-2.8v-1.72h1.86v1.78Z"/><path class="cls-8" d="m192.38,142.88c0,1.55-.36,2.77-1.08,3.66-.72.89-1.68,1.34-2.88,1.34s-2.17-.45-2.89-1.34c-.72-.89-1.09-2.11-1.09-3.66v-3.89c0-1.53.36-2.75,1.08-3.66.72-.9,1.68-1.35,2.88-1.35s2.17.45,2.89,1.35c.72.9,1.09,2.12,1.09,3.66v3.89Zm-1.91-4.16c0-1.02-.18-1.82-.54-2.41-.36-.59-.87-.88-1.53-.88s-1.16.29-1.52.88c-.36.59-.54,1.39-.54,2.41v4.42c0,1.02.18,1.83.55,2.42s.88.89,1.53.89,1.16-.29,1.52-.89c.36-.59.53-1.4.53-2.43v-4.42Z"/><path class="cls-8" d="m199.55,147.68h-1.89v-11.91l-2.63.17v-1.4l4.53-.56v13.7Z"/><path class="cls-8" d="m212.09,147.68h-7.8v-1.25l3.82-5c.62-.87,1.06-1.58,1.3-2.13.24-.56.37-1.09.37-1.61,0-.69-.15-1.23-.45-1.64s-.74-.61-1.32-.61c-.66,0-1.16.25-1.51.75-.35.5-.52,1.14-.52,1.91h-1.85l-.03-.06c-.02-1.13.32-2.09,1.03-2.88.71-.79,1.67-1.18,2.88-1.18s2.06.34,2.71,1.01c.65.67.97,1.57.97,2.7,0,.76-.2,1.5-.59,2.21-.39.71-.99,1.59-1.8,2.62l-2.63,3.74h5.43v1.43Z"/><path class="cls-8" d="m217.49,142.36c0,2.35-.42,4.39-1.25,6.12-.83,1.73-1.74,2.88-2.71,3.44h-.06l-.36-.95c.7-.63,1.31-1.7,1.83-3.21.52-1.51.78-3.3.78-5.39v-.19c0-2.07-.27-3.86-.8-5.38-.54-1.52-1.14-2.6-1.81-3.24l.36-.95h.06c.97.56,1.87,1.71,2.71,3.47.83,1.75,1.25,3.79,1.25,6.12v.15Z"/><path class="cls-8" d="m230.87,140.19h-6.91v-1.48h6.91v1.48Zm0,3.88h-6.91v-1.48h6.91v1.48Z"/><path class="cls-8" d="m41.34,165.01c0-2.34.41-4.39,1.23-6.13s1.71-2.89,2.68-3.46h.06l.34,1c-.71.63-1.31,1.7-1.83,3.19-.51,1.5-.77,3.29-.77,5.37v.19c0,2.08.26,3.87.77,5.36s1.12,2.57,1.83,3.24l-.34.95h-.06c-.97-.56-1.86-1.7-2.68-3.42-.82-1.72-1.22-3.77-1.22-6.14v-.15Z"/><path class="cls-8" d="m51.59,163.3h3.25v1.61h-3.25v4.21h-1.85v-4.21h-3.24v-1.61h3.24v-4.01h1.85v4.01Z"/><path class="cls-8" d="m56.9,164.47l.69-7.5h6.39v1.55h-4.81l-.37,4.06c.25-.23.54-.43.89-.58.34-.15.74-.23,1.19-.25,1.11-.01,1.97.37,2.6,1.16.63.79.94,1.87.94,3.25s-.33,2.45-.98,3.27c-.66.83-1.64,1.24-2.96,1.24-1.07,0-1.97-.32-2.7-.95-.73-.63-1.08-1.55-1.05-2.75l.02-.05,1.79-.04c0,.75.18,1.34.54,1.74s.83.61,1.41.61c.68,0,1.19-.26,1.53-.79.34-.53.51-1.29.51-2.27,0-.9-.17-1.61-.52-2.14s-.85-.8-1.51-.8c-.59,0-1.03.12-1.32.35-.29.23-.5.58-.63,1.03l-1.64-.16Z"/><path class="cls-8" d="m69.9,165.16c0,2.35-.42,4.39-1.25,6.12-.83,1.73-1.74,2.88-2.71,3.44h-.06l-.36-.95c.7-.63,1.31-1.7,1.83-3.21.52-1.51.78-3.3.78-5.39v-.19c0-2.07-.27-3.86-.8-5.38-.54-1.52-1.14-2.6-1.81-3.24l.36-.95h.06c.97.56,1.87,1.71,2.71,3.47.83,1.75,1.25,3.79,1.25,6.12v.15Z"/><path class="cls-8" d="m72.82,171.64h-1.75l4.54-14.67h1.75l-4.55,14.67Z"/><path class="cls-8" d="m78.84,165.01c0-2.34.41-4.39,1.23-6.13s1.71-2.89,2.68-3.46h.06l.34,1c-.71.63-1.31,1.7-1.83,3.19-.51,1.5-.77,3.29-.77,5.37v.19c0,2.08.26,3.87.77,5.36s1.12,2.57,1.83,3.24l-.34.95h-.06c-.97-.56-1.86-1.7-2.68-3.42-.82-1.72-1.22-3.77-1.22-6.14v-.15Z"/><path class="cls-8" d="m89.63,170.48h-1.89v-11.91l-2.63.17v-1.4l4.53-.56v13.7Z"/><path class="cls-8" d="m98.88,163.3h3.25v1.61h-3.25v4.21h-1.85v-4.21h-3.24v-1.61h3.24v-4.01h1.85v4.01Z"/><path class="cls-8" d="m111.68,165.68c0,1.55-.36,2.77-1.08,3.66-.72.89-1.68,1.34-2.88,1.34s-2.17-.45-2.89-1.34c-.72-.89-1.09-2.11-1.09-3.66v-3.89c0-1.53.36-2.75,1.08-3.66.72-.9,1.68-1.35,2.88-1.35s2.17.45,2.89,1.35c.72.9,1.09,2.12,1.09,3.66v3.89Zm-1.91-4.16c0-1.02-.18-1.82-.54-2.41-.36-.59-.87-.88-1.53-.88s-1.16.29-1.52.88c-.36.59-.54,1.39-.54,2.41v4.42c0,1.02.18,1.83.55,2.42s.88.89,1.53.89,1.16-.29,1.52-.89c.36-.59.53-1.4.53-2.43v-4.42Z"/><path class="cls-8" d="m115.56,170.26l-1.21,2.74h-1.21l.56-2.8v-1.72h1.86v1.78Z"/><path class="cls-8" d="m125.31,165.68c0,1.55-.36,2.77-1.08,3.66-.72.89-1.68,1.34-2.88,1.34s-2.17-.45-2.89-1.34c-.72-.89-1.09-2.11-1.09-3.66v-3.89c0-1.53.36-2.75,1.08-3.66.72-.9,1.68-1.35,2.88-1.35s2.17.45,2.89,1.35c.72.9,1.09,2.12,1.09,3.66v3.89Zm-1.91-4.16c0-1.02-.18-1.82-.54-2.41-.36-.59-.87-.88-1.53-.88s-1.16.29-1.52.88c-.36.59-.54,1.39-.54,2.41v4.42c0,1.02.18,1.83.55,2.42s.88.89,1.53.89,1.16-.29,1.52-.89c.36-.59.53-1.4.53-2.43v-4.42Z"/><path class="cls-8" d="m131.74,156.78c.47,0,.92.05,1.35.16.43.11.82.25,1.17.43l-.37,1.38c-.32-.17-.65-.29-.98-.38s-.72-.13-1.17-.13c-.75,0-1.36.35-1.83,1.05-.47.7-.71,1.62-.71,2.76v1.06c.33-.39.73-.7,1.2-.92s.99-.33,1.55-.33c1.05,0,1.87.39,2.46,1.18.59.79.89,1.84.89,3.15s-.36,2.44-1.08,3.26c-.72.83-1.66,1.24-2.83,1.24s-2.16-.47-2.93-1.41c-.77-.94-1.15-2.22-1.15-3.85v-3.25c0-1.59.42-2.89,1.27-3.89.84-1,1.9-1.5,3.17-1.5Zm-.42,6.45c-.51,0-.94.12-1.3.36-.36.24-.64.57-.82.98v.95c0,1.16.21,2.07.61,2.74s.93,1,1.58,1,1.12-.29,1.48-.87c.36-.58.54-1.32.54-2.21s-.18-1.64-.55-2.16c-.37-.53-.88-.79-1.53-.79Z"/><path class="cls-8" d="m140.63,165.16c0,2.35-.42,4.39-1.25,6.12-.83,1.73-1.74,2.88-2.71,3.44h-.06l-.36-.95c.7-.63,1.31-1.7,1.83-3.21.52-1.51.78-3.3.78-5.39v-.19c0-2.07-.27-3.86-.8-5.38-.54-1.52-1.14-2.6-1.81-3.24l.36-.95h.06c.97.56,1.87,1.71,2.71,3.47.83,1.75,1.25,3.79,1.25,6.12v.15Z"/><path class="cls-8" d="m154.01,162.99h-6.91v-1.48h6.91v1.48Zm0,3.88h-6.91v-1.48h6.91v1.48Z"/><path class="cls-8" d="m41.34,187.81c0-2.34.41-4.39,1.23-6.13s1.71-2.89,2.68-3.46h.06l.34,1c-.71.63-1.31,1.7-1.83,3.19-.51,1.5-.77,3.29-.77,5.37v.19c0,2.08.26,3.87.77,5.36s1.12,2.57,1.83,3.24l-.34.95h-.06c-.97-.56-1.86-1.7-2.68-3.42-.82-1.72-1.22-3.77-1.22-6.14v-.15Z"/><path class="cls-8" d="m51.59,186.1h3.25v1.61h-3.25v4.21h-1.85v-4.21h-3.24v-1.61h3.24v-4.01h1.85v4.01Z"/><path class="cls-8" d="m56.9,187.27l.69-7.5h6.39v1.55h-4.81l-.37,4.06c.25-.23.54-.43.89-.58.34-.15.74-.23,1.19-.25,1.11-.01,1.97.37,2.6,1.16.63.79.94,1.87.94,3.25s-.33,2.45-.98,3.27c-.66.83-1.64,1.24-2.96,1.24-1.07,0-1.97-.32-2.7-.95-.73-.63-1.08-1.55-1.05-2.75l.02-.05,1.79-.04c0,.75.18,1.34.54,1.74s.83.61,1.41.61c.68,0,1.19-.26,1.53-.79.34-.53.51-1.29.51-2.27,0-.9-.17-1.61-.52-2.14s-.85-.8-1.51-.8c-.59,0-1.03.12-1.32.35-.29.23-.5.58-.63,1.03l-1.64-.16Z"/><path class="cls-8" d="m69.9,187.96c0,2.35-.42,4.39-1.25,6.12-.83,1.73-1.74,2.88-2.71,3.44h-.06l-.36-.95c.7-.63,1.31-1.7,1.83-3.21.52-1.51.78-3.3.78-5.39v-.19c0-2.07-.27-3.86-.8-5.38-.54-1.52-1.14-2.6-1.81-3.24l.36-.95h.06c.97.56,1.87,1.71,2.71,3.47.83,1.75,1.25,3.79,1.25,6.12v.15Z"/><path class="cls-8" d="m72.82,194.44h-1.75l4.54-14.67h1.75l-4.55,14.67Z"/><path class="cls-8" d="m78.84,187.81c0-2.34.41-4.39,1.23-6.13s1.71-2.89,2.68-3.46h.06l.34,1c-.71.63-1.31,1.7-1.83,3.19-.51,1.5-.77,3.29-.77,5.37v.19c0,2.08.26,3.87.77,5.36s1.12,2.57,1.83,3.24l-.34.95h-.06c-.97-.56-1.86-1.7-2.68-3.42-.82-1.72-1.22-3.77-1.22-6.14v-.15Z"/><path class="cls-8" d="m92.26,188.48c0,1.55-.36,2.77-1.08,3.66-.72.89-1.68,1.34-2.88,1.34s-2.17-.45-2.89-1.34c-.72-.89-1.09-2.11-1.09-3.66v-3.89c0-1.53.36-2.75,1.08-3.66.72-.9,1.68-1.35,2.88-1.35s2.17.45,2.89,1.35c.72.9,1.09,2.12,1.09,3.66v3.89Zm-1.91-4.16c0-1.02-.18-1.82-.54-2.41-.36-.59-.87-.88-1.53-.88s-1.16.29-1.52.88c-.36.59-.54,1.39-.54,2.41v4.42c0,1.02.18,1.83.55,2.42s.88.89,1.53.89,1.16-.29,1.52-.89c.36-.59.53-1.4.53-2.43v-4.42Z"/><path class="cls-8" d="m96.14,193.06l-1.21,2.74h-1.21l.56-2.8v-1.72h1.86v1.78Z"/><path class="cls-8" d="m101.42,192.05c.72,0,1.3-.3,1.74-.89s.67-1.42.67-2.5v-1.3c-.27.43-.61.76-1.02.99-.41.23-.84.34-1.31.34-1.14,0-2.04-.41-2.69-1.22-.66-.81-.98-1.9-.98-3.27s.37-2.44,1.1-3.32c.73-.88,1.66-1.31,2.77-1.31,1.21,0,2.18.43,2.93,1.3.75.87,1.12,2.08,1.12,3.65v4.08c0,1.52-.4,2.71-1.21,3.58-.81.86-1.84,1.29-3.11,1.29-.43,0-.86-.05-1.3-.15-.44-.1-.86-.24-1.24-.44l.31-1.36c.35.19.7.32,1.05.4.35.08.74.12,1.19.12Zm.28-4.75c.51,0,.94-.14,1.3-.41.36-.27.64-.62.83-1.06v-1.59c0-1.04-.19-1.84-.57-2.39-.38-.55-.89-.83-1.54-.83-.58,0-1.06.3-1.43.91-.37.61-.56,1.36-.56,2.27s.17,1.66.51,2.23c.34.57.82.86,1.45.86Z"/><path class="cls-8" d="m114.53,188.67h1.57v1.44h-1.57v3.17h-1.9v-3.17h-5.15l-.05-1.06,5.14-9.28h1.97v8.9Zm-5.24,0h3.34v-6.29l-.06-.02-.25.58-3.03,5.73Z"/><path class="cls-8" d="m121.21,187.96c0,2.35-.42,4.39-1.25,6.12-.83,1.73-1.74,2.88-2.71,3.44h-.06l-.36-.95c.7-.63,1.31-1.7,1.83-3.21.52-1.51.78-3.3.78-5.39v-.19c0-2.07-.27-3.86-.8-5.38-.54-1.52-1.14-2.6-1.81-3.24l.36-.95h.06c.97.56,1.87,1.71,2.71,3.47.83,1.75,1.25,3.79,1.25,6.12v.15Z"/><path class="cls-8" d="m134.59,185.79h-6.91v-1.48h6.91v1.48Zm0,3.88h-6.91v-1.48h6.91v1.48Z"/><path class="cls-8" d="m45.95,208.9h3.25v1.61h-3.25v4.21h-1.85v-4.21h-3.24v-1.61h3.24v-4.01h1.85v4.01Z"/><path class="cls-8" d="m51.27,210.07l.69-7.5h6.39v1.55h-4.81l-.37,4.06c.25-.24.54-.43.89-.58.34-.15.74-.23,1.19-.25,1.11-.01,1.97.38,2.6,1.16s.94,1.87.94,3.25-.33,2.44-.98,3.27c-.66.83-1.64,1.24-2.96,1.24-1.07,0-1.97-.32-2.7-.95-.73-.63-1.08-1.55-1.05-2.75l.02-.05,1.79-.04c0,.75.18,1.34.54,1.74s.83.61,1.41.61c.68,0,1.19-.26,1.53-.79.34-.53.51-1.28.51-2.27,0-.9-.17-1.61-.52-2.14-.35-.53-.85-.8-1.51-.8-.59,0-1.03.12-1.32.35-.29.23-.5.58-.63,1.04l-1.64-.16Z"/><path class="cls-8" d="m62.63,215.86l-1.21,2.74h-1.21l.56-2.8v-1.72h1.86v1.78Z"/><path class="cls-8" d="m68.36,208.44c.68,0,1.18-.21,1.5-.63.32-.42.48-.98.48-1.68s-.16-1.23-.49-1.66c-.32-.43-.8-.64-1.42-.64-.58,0-1.05.21-1.43.64s-.57.97-.57,1.63h-1.84l-.02-.06c-.03-1.04.32-1.91,1.06-2.61s1.67-1.05,2.79-1.05c1.17,0,2.11.32,2.8.97s1.03,1.58,1.03,2.78c0,.64-.16,1.23-.49,1.75s-.78.93-1.35,1.21c.66.27,1.16.67,1.51,1.22.35.55.53,1.22.53,2.02,0,1.22-.38,2.18-1.13,2.88-.75.7-1.72,1.04-2.9,1.04-1.07,0-2.01-.34-2.82-1.01-.81-.67-1.2-1.59-1.16-2.77l.02-.06h1.83c0,.68.2,1.25.6,1.71.4.46.91.69,1.54.69s1.17-.23,1.55-.68c.38-.45.57-1.05.57-1.79,0-.85-.19-1.48-.56-1.89-.37-.41-.92-.62-1.64-.62h-1.3v-1.42h1.3Z"/><path class="cls-8" d="m82.3,216.08h-7.8v-1.25l3.82-5c.62-.87,1.06-1.58,1.3-2.13.24-.56.37-1.09.37-1.61,0-.69-.15-1.23-.45-1.64s-.74-.61-1.32-.61c-.66,0-1.16.25-1.51.75-.35.5-.52,1.14-.52,1.91h-1.85l-.03-.06c-.02-1.13.32-2.09,1.03-2.88.71-.79,1.67-1.18,2.88-1.18s2.06.33,2.71,1.01c.65.67.97,1.57.97,2.7,0,.76-.2,1.5-.59,2.21-.39.71-.99,1.59-1.8,2.62l-2.63,3.74h5.43v1.43Z"/></g></svg>