<?xml version="1.0" encoding="UTF-8"?><svg id="Camada_2" xmlns="http://www.w3.org/2000/svg" viewBox="0 0 450 363.96"><defs><style>.cls-1{fill:#ffdfc9;}.cls-1,.cls-2,.cls-3,.cls-4,.cls-5,.cls-6,.cls-7,.cls-8,.cls-9,.cls-10{stroke-width:0px;}.cls-2{fill:#006652;}.cls-3{fill:#b26538;}.cls-4{fill:#f39257;}.cls-5{fill:#004b3a;opacity:.58;}.cls-6{fill:#4b5767;}.cls-7{fill:#303948;}.cls-8{fill:#fff;}.cls-9{fill:#ece4df;}.cls-10{fill:#d07a47;}</style></defs><g id="Camada_1-2"><polygon class="cls-2" points="14.26 10.66 28.24 321.26 431.4 293.83 439.64 13.67 14.26 10.66"/><polygon class="cls-5" points="175.02 311.86 118.61 186.23 23.16 215.85 28.24 321.26 175.02 311.86"/><path class="cls-4" d="m0,0l13.77,338.78,431.62-24.61L450,.32,0,0Zm431.4,293.83l-403.16,27.43L14.26,10.66l425.38,3.01-8.24,280.16Z"/><polygon class="cls-3" points="448.53 .32 437.58 13.65 439.64 13.67 439.59 15.49 449.96 2.82 450 .32 448.53 .32"/><polygon class="cls-3" points="431.48 291.15 431.4 293.83 429.66 293.95 443.73 314.27 445.39 314.17 445.43 311.24 431.48 291.15"/><polygon class="cls-3" points="28.24 321.26 28.11 318.38 13.65 335.92 13.77 338.78 15.52 338.68 29.94 321.14 28.24 321.26"/><polygon class="cls-3" points="14.26 10.66 16.72 10.68 2.89 0 0 0 .05 1.26 14.34 12.32 14.26 10.66"/><path class="cls-1" d="m9.37,42.33l.13,30.68c.06,13.65.47,27.44,1.27,41.34l6.15,107.88-2.8-107.81c-.39-15.1-1.19-29.71-2.37-43.79l-2.37-28.3Z"/><path class="cls-1" d="m439.09,284.96l2.27-40.78c.94-16.9,1.47-33.45,1.59-49.61l.83-105.73-4.28,104.04c-.71,17.3-.98,35.02-.8,53.11l.39,38.97Z"/><path class="cls-1" d="m121.63,5.28c-18.74-.17-37.4-.1-55.96.22l-38.54.67,40.72.74c17.54.32,35.05.42,52.47.31l124.1-.81-122.8-1.13Z"/><path class="cls-1" d="m378.26,304.25c-16.53.54-32.81,4.35-49.25,5.27h0c17.6-.9,35.11-1.96,52.43-3.29l46.91-3.61-50.1,1.63Z"/><path class="cls-8" d="m258.52,321.17l-20.83,1.45-.55-15.48,19.89-3.61c3.67-.67,7.16,2.3,8,6.82h0c.99,5.35-2.1,10.51-6.51,10.82Z"/><path class="cls-9" d="m241.72,314.5c.16,4.31-1.42,7.93-3.54,8.08-2.12.15-3.95-3.24-4.1-7.55-.14-4.28,1.44-7.86,3.54-8,2.1-.14,3.93,3.19,4.09,7.47Z"/><polygon class="cls-10" points="111.54 333.17 110.07 321.26 288.57 315.77 111.54 333.17"/><path class="cls-7" d="m188.34,295.54l-37.45,1.67c-4.66.21-8.67,4.93-9.07,10.72l-.83,11.81c-.43,6.08,3.18,11.04,8.05,11.04h38.18c4.87,0,8.99-4.96,9.21-11.03l.47-13.51c.21-6.08-3.67-10.91-8.56-10.7Z"/><path class="cls-6" d="m145.75,320.77l.77-11.46c.24-3.65,2.73-6.59,5.66-6.72,0,0,25.19-2.77,33.22-3.13h0c-8.8.39-34.64,1.55-34.64,1.55-3.02.13-5.59,3.17-5.85,6.92l-.8,11.81c-.27,3.91,2.06,7.1,5.19,7.1h.59c-3.03,0-4.39-2.28-4.14-6.07Z"/><path class="cls-4" d="m115.12,326.36l2.21,37.59s192.8-5.91,192.4-5.79c-.4.11,3.72-43.91,3.72-43.91l-198.34,12.11Z"/><path class="cls-10" d="m313.45,314.25h0c-17.23,16.01-37.91,26.24-59.89,29.5l-136.23,20.2,192.4-5.79,3.72-43.91Z"/><path class="cls-1" d="m120.28,355.31l-1.67-24.54,114.35-8.16-105.19,10.85c-3.45.36-6.36,4.02-6.63,8.39l-.85,13.45Z"/><path class="cls-8" d="m60.51,59.63h-4.04l-.97,3.41h-1.96l4.05-13.51h1.83l4.02,13.51h-1.96l-.97-3.41Zm-3.61-1.49h3.19l-1.56-5.49h-.06l-1.58,5.49Z"/><path class="cls-8" d="m64.3,57.92c0-1.49.35-2.71,1.06-3.66s1.67-1.43,2.9-1.43,2.2.48,2.91,1.43c.71.95,1.06,2.17,1.06,3.66v.25c0,1.5-.35,2.72-1.06,3.66-.71.94-1.67,1.42-2.89,1.42s-2.22-.47-2.92-1.42c-.71-.94-1.06-2.16-1.06-3.66v-.25Zm1.89.25c0,1.07.17,1.95.51,2.63.34.68.87,1.02,1.57,1.02s1.2-.34,1.54-1.03c.34-.68.51-1.56.51-2.62v-.25c0-1.05-.17-1.92-.52-2.61-.35-.69-.87-1.03-1.56-1.03s-1.21.35-1.55,1.03c-.34.69-.51,1.56-.51,2.61v.25Z"/><path class="cls-8" d="m82.97,60.51c0-.39-.13-.72-.39-.98s-.76-.56-1.49-.89c-1.03-.39-1.81-.81-2.32-1.27-.51-.46-.77-1.04-.77-1.76,0-.77.31-1.43.93-1.98.62-.54,1.43-.82,2.43-.82s1.87.3,2.5.9c.63.6.93,1.32.91,2.17l-.02.06h-1.82c0-.48-.14-.89-.42-1.23-.28-.34-.66-.52-1.15-.52s-.86.13-1.13.4c-.27.27-.4.58-.4.94,0,.38.12.69.35.9.23.22.73.5,1.49.85,1.05.37,1.84.8,2.37,1.29.53.49.79,1.1.79,1.84,0,.83-.32,1.51-.96,2.04-.64.52-1.48.78-2.52.78-1.12,0-2.01-.31-2.66-.94-.65-.63-.95-1.36-.92-2.2l.02-.06h1.75c.02.65.21,1.12.55,1.41.34.29.77.43,1.29.43s.89-.13,1.17-.39c.28-.26.42-.58.42-.98Z"/><path class="cls-8" d="m90.2,63.24c-1.25,0-2.23-.46-2.94-1.37-.71-.92-1.06-2.11-1.06-3.57v-.44c0-1.47.35-2.68,1.06-3.62.71-.94,1.63-1.41,2.77-1.41s2.01.41,2.61,1.22c.6.81.89,1.9.89,3.27v1.06h-5.45c0,1.03.18,1.86.55,2.5s.93.96,1.69.96c.53,0,.98-.08,1.37-.25.39-.16.75-.4,1.08-.72l.61,1.17c-.33.35-.77.64-1.32.87-.55.23-1.17.35-1.87.35Zm-.18-8.97c-.54,0-.98.25-1.3.76-.32.5-.52,1.17-.6,2h3.55v-.21c0-.75-.13-1.37-.4-1.84-.27-.47-.68-.71-1.25-.71Z"/><path class="cls-8" d="m99.54,54.58l-.82-.05c-.4,0-.73.12-.99.36-.26.24-.47.57-.61,1.01v7.15h-1.89v-10.04h1.73l.13,1.48c.22-.53.51-.94.85-1.23s.75-.44,1.2-.44c.12,0,.23.01.33.03.1.02.19.05.27.08l-.21,1.64Z"/><path class="cls-8" d="m109.55,54.58l-.82-.05c-.4,0-.73.12-.99.36-.26.24-.47.57-.61,1.01v7.15h-1.89v-10.04h1.73l.13,1.48c.22-.53.51-.94.85-1.23s.75-.44,1.2-.44c.12,0,.23.01.33.03.1.02.19.05.27.08l-.21,1.64Z"/><path class="cls-8" d="m114.55,63.24c-1.25,0-2.23-.46-2.94-1.37-.71-.92-1.06-2.11-1.06-3.57v-.44c0-1.47.35-2.68,1.06-3.62.71-.94,1.63-1.41,2.77-1.41s2.01.41,2.61,1.22c.6.81.89,1.9.89,3.27v1.06h-5.45c0,1.03.18,1.86.55,2.5s.93.96,1.69.96c.53,0,.98-.08,1.37-.25.39-.16.75-.4,1.08-.72l.61,1.17c-.33.35-.77.64-1.32.87-.55.23-1.17.35-1.87.35Zm-.18-8.97c-.54,0-.98.25-1.3.76-.32.5-.52,1.17-.6,2h3.55v-.21c0-.75-.13-1.37-.4-1.84-.27-.47-.68-.71-1.25-.71Z"/><path class="cls-8" d="m124.79,63.05c-.08-.3-.14-.57-.19-.81-.05-.24-.08-.47-.09-.71-.27.49-.62.9-1.05,1.23-.44.33-.93.49-1.49.49-.9,0-1.58-.27-2.06-.8-.48-.53-.72-1.26-.72-2.18s.33-1.69,1-2.24c.66-.54,1.59-.82,2.78-.82h1.54v-1.03c0-.61-.14-1.09-.41-1.43-.27-.34-.66-.52-1.17-.52-.46,0-.82.15-1.09.45-.27.3-.4.68-.4,1.14h-1.8s-.02-.05-.02-.05c-.04-.78.27-1.47.91-2.06.64-.59,1.48-.89,2.52-.89s1.8.29,2.42.88c.62.58.93,1.42.93,2.5v4.66c0,.38.02.76.07,1.12.05.36.13.72.23,1.07h-1.91Zm-2.43-1.25c.51,0,.97-.16,1.36-.48s.66-.7.78-1.16v-1.78h-1.57c-.58,0-1.04.18-1.36.55-.33.37-.49.81-.49,1.33,0,.46.11.83.33,1.11s.54.42.95.42Z"/><path class="cls-8" d="m130.56,63.05h-1.89v-14.47h1.89v14.47Z"/><path class="cls-8" d="m134.87,50.37h-1.89v-1.8h1.89v1.8Zm0,12.67h-1.89v-10.04h1.89v10.04Z"/><path class="cls-8" d="m138.94,61.62h4.89v1.43h-7v-1.19l4.63-7.39h-4.53v-1.46h6.69v1.17l-4.68,7.44Z"/><path class="cls-8" d="m150.76,63.05c-.08-.3-.14-.57-.19-.81-.05-.24-.08-.47-.09-.71-.27.49-.62.9-1.05,1.23-.44.33-.93.49-1.49.49-.9,0-1.58-.27-2.06-.8-.48-.53-.72-1.26-.72-2.18s.33-1.69,1-2.24c.66-.54,1.59-.82,2.78-.82h1.54v-1.03c0-.61-.14-1.09-.41-1.43-.27-.34-.66-.52-1.17-.52-.46,0-.82.15-1.09.45-.27.3-.4.68-.4,1.14h-1.8s-.02-.05-.02-.05c-.04-.78.27-1.47.91-2.06.64-.59,1.48-.89,2.52-.89s1.8.29,2.42.88c.62.58.93,1.42.93,2.5v4.66c0,.38.02.76.07,1.12.05.36.13.72.23,1.07h-1.91Zm-2.43-1.25c.51,0,.97-.16,1.36-.48s.66-.7.78-1.16v-1.78h-1.57c-.58,0-1.04.18-1.36.55-.33.37-.49.81-.49,1.33,0,.46.11.83.33,1.11s.54.42.95.42Z"/><path class="cls-8" d="m154.17,58.15c0-1.61.29-2.9.88-3.87.59-.97,1.41-1.46,2.48-1.46.48,0,.9.11,1.28.32.38.21.7.52.97.92v-5.49h1.88v14.47h-1.56l-.19-1.21c-.28.46-.62.81-1.02,1.04-.4.24-.86.36-1.38.36-1.06,0-1.88-.45-2.46-1.34-.58-.89-.88-2.08-.88-3.56v-.19Zm1.88.19c0,1.05.16,1.89.47,2.51.32.62.81.93,1.47.93.42,0,.78-.11,1.07-.33.29-.22.53-.54.72-.95v-4.86c-.19-.41-.43-.74-.72-.99s-.65-.37-1.06-.37c-.67,0-1.16.36-1.48,1.07-.32.71-.48,1.64-.48,2.79v.19Z"/><path class="cls-8" d="m169.09,63.05c-.08-.3-.14-.57-.19-.81-.05-.24-.08-.47-.09-.71-.27.49-.62.9-1.05,1.23-.44.33-.93.49-1.49.49-.9,0-1.58-.27-2.06-.8-.48-.53-.72-1.26-.72-2.18s.33-1.69,1-2.24c.66-.54,1.59-.82,2.78-.82h1.54v-1.03c0-.61-.14-1.09-.41-1.43-.27-.34-.66-.52-1.17-.52-.46,0-.82.15-1.09.45-.27.3-.4.68-.4,1.14h-1.8s-.02-.05-.02-.05c-.04-.78.27-1.47.91-2.06.64-.59,1.48-.89,2.52-.89s1.8.29,2.42.88c.62.58.93,1.42.93,2.5v4.66c0,.38.02.76.07,1.12.05.36.13.72.23,1.07h-1.91Zm-2.43-1.25c.51,0,.97-.16,1.36-.48s.66-.7.78-1.16v-1.78h-1.57c-.58,0-1.04.18-1.36.55-.33.37-.49.81-.49,1.33,0,.46.11.83.33,1.11s.54.42.95.42Z"/><path class="cls-8" d="m182.23,63.05c-.08-.3-.14-.57-.19-.81-.05-.24-.08-.47-.09-.71-.27.49-.62.9-1.05,1.23-.44.33-.93.49-1.49.49-.9,0-1.58-.27-2.06-.8-.48-.53-.72-1.26-.72-2.18s.33-1.69,1-2.24c.66-.54,1.59-.82,2.78-.82h1.54v-1.03c0-.61-.14-1.09-.41-1.43-.27-.34-.66-.52-1.17-.52-.46,0-.82.15-1.09.45-.27.3-.4.68-.4,1.14h-1.8s-.02-.05-.02-.05c-.04-.78.27-1.47.91-2.06.64-.59,1.48-.89,2.52-.89s1.8.29,2.42.88c.62.58.93,1.42.93,2.5v4.66c0,.38.02.76.07,1.12.05.36.13.72.23,1.07h-1.91Zm-2.43-1.25c.51,0,.97-.16,1.36-.48s.66-.7.78-1.16v-1.78h-1.57c-.58,0-1.04.18-1.36.55-.33.37-.49.81-.49,1.33,0,.46.11.83.33,1.11s.54.42.95.42Z"/><path class="cls-8" d="m191.89,53.01l.1,1.36c.28-.49.63-.88,1.06-1.15.43-.27.93-.4,1.5-.4s1.04.15,1.45.46c.41.31.71.77.92,1.4.27-.58.62-1.04,1.06-1.36.44-.33.96-.49,1.56-.49.87,0,1.56.35,2.05,1.06.5.71.75,1.79.75,3.23v5.93h-1.89v-5.94c0-1.05-.13-1.78-.39-2.19-.26-.42-.65-.63-1.16-.63-.43,0-.8.16-1.09.48s-.51.75-.64,1.27c0,.11.01.23.02.35,0,.12,0,.24,0,.37v6.29h-1.88v-5.94c0-1.01-.13-1.73-.4-2.17-.27-.44-.65-.65-1.16-.65-.41,0-.75.11-1.04.33s-.51.53-.67.92v7.51h-1.89v-10.04h1.73Z"/><path class="cls-8" d="m208.14,63.24c-1.25,0-2.23-.46-2.94-1.37-.71-.92-1.06-2.11-1.06-3.57v-.44c0-1.47.35-2.68,1.06-3.62.71-.94,1.63-1.41,2.77-1.41s2.01.41,2.61,1.22c.6.81.89,1.9.89,3.27v1.06h-5.45c0,1.03.18,1.86.55,2.5s.93.96,1.69.96c.53,0,.98-.08,1.37-.25.39-.16.75-.4,1.08-.72l.61,1.17c-.33.35-.77.64-1.32.87-.55.23-1.17.35-1.87.35Zm-.18-8.97c-.54,0-.98.25-1.3.76-.32.5-.52,1.17-.6,2h3.55v-.21c0-.75-.13-1.37-.4-1.84-.27-.47-.68-.71-1.25-.71Z"/><path class="cls-8" d="m212.82,58.15c0-1.61.29-2.9.88-3.87.59-.97,1.41-1.46,2.48-1.46.48,0,.9.11,1.28.32.38.21.7.52.97.92v-5.49h1.88v14.47h-1.56l-.19-1.21c-.28.46-.62.81-1.02,1.04-.4.24-.86.36-1.38.36-1.06,0-1.88-.45-2.46-1.34-.58-.89-.88-2.08-.88-3.56v-.19Zm1.88.19c0,1.05.16,1.89.47,2.51.32.62.81.93,1.47.93.42,0,.78-.11,1.07-.33.29-.22.53-.54.72-.95v-4.86c-.19-.41-.43-.74-.72-.99s-.65-.37-1.06-.37c-.67,0-1.16.36-1.48,1.07-.32.71-.48,1.64-.48,2.79v.19Z"/><path class="cls-8" d="m224.54,50.37h-1.89v-1.8h1.89v1.8Zm0,12.67h-1.89v-10.04h1.89v10.04Z"/><path class="cls-8" d="m230.33,61.81c.46,0,.85-.18,1.16-.54.31-.36.47-.84.47-1.46h1.7l.02.06c.02.95-.29,1.74-.96,2.39-.66.65-1.46.97-2.39.97-1.24,0-2.19-.47-2.87-1.42-.67-.94-1.01-2.15-1.01-3.61v-.35c0-1.46.34-2.66,1.01-3.61s1.63-1.42,2.87-1.42c1,0,1.82.34,2.44,1.02.63.68.93,1.56.91,2.64l-.02.05h-1.71c0-.67-.15-1.21-.45-1.63-.3-.42-.69-.63-1.18-.63-.71,0-1.21.34-1.53,1.02-.31.68-.47,1.54-.47,2.57v.35c0,1.05.15,1.91.46,2.59s.82,1.01,1.53,1.01Zm.61,1.27l-.1.54c.35.06.64.22.88.47.23.25.35.63.35,1.13,0,.61-.23,1.09-.68,1.45-.46.36-1.1.54-1.94.54l-.05-1.05c.33,0,.6-.08.81-.23s.31-.39.31-.71-.09-.52-.28-.65c-.19-.12-.5-.2-.95-.25l.24-1.24h1.41Z"/><path class="cls-8" d="m240.65,63.05c-.08-.3-.14-.57-.19-.81-.05-.24-.08-.47-.09-.71-.27.49-.62.9-1.05,1.23-.44.33-.93.49-1.49.49-.9,0-1.58-.27-2.06-.8-.48-.53-.72-1.26-.72-2.18s.33-1.69,1-2.24c.66-.54,1.59-.82,2.78-.82h1.54v-1.03c0-.61-.14-1.09-.41-1.43-.27-.34-.66-.52-1.17-.52-.46,0-.82.15-1.09.45-.27.3-.4.68-.4,1.14h-1.8s-.02-.05-.02-.05c-.04-.78.27-1.47.91-2.06.64-.59,1.48-.89,2.52-.89s1.8.29,2.42.88c.62.58.93,1.42.93,2.5v4.66c0,.38.02.76.07,1.12.05.36.13.72.23,1.07h-1.91Zm.99-14.06c0,.57-.16,1.05-.47,1.44s-.71.58-1.18.58c-.38,0-.79-.15-1.23-.45-.44-.3-.79-.45-1.07-.45-.22,0-.4.1-.54.31s-.21.46-.21.77l-1.03-.26c0-.56.16-1.04.47-1.44.31-.4.71-.6,1.18-.6.31,0,.7.15,1.18.46.48.31.85.46,1.12.46.2,0,.38-.1.53-.32.15-.21.23-.47.23-.78l1.02.29Zm-3.42,12.81c.51,0,.97-.16,1.36-.48s.66-.7.78-1.16v-1.78h-1.57c-.58,0-1.04.18-1.36.55-.33.37-.49.81-.49,1.33,0,.46.11.83.33,1.11s.54.42.95.42Z"/><path class="cls-8" d="m244.03,57.92c0-1.49.35-2.71,1.06-3.66s1.67-1.43,2.9-1.43,2.2.48,2.91,1.43c.71.95,1.06,2.17,1.06,3.66v.25c0,1.5-.35,2.72-1.06,3.66-.71.94-1.67,1.42-2.89,1.42s-2.22-.47-2.92-1.42c-.71-.94-1.06-2.16-1.06-3.66v-.25Zm1.89.25c0,1.07.17,1.95.51,2.63.34.68.87,1.02,1.57,1.02s1.2-.34,1.54-1.03c.34-.68.51-1.56.51-2.62v-.25c0-1.05-.17-1.92-.52-2.61-.35-.69-.87-1.03-1.56-1.03s-1.21.35-1.55,1.03c-.34.69-.51,1.56-.51,2.61v.25Z"/><path class="cls-8" d="m257.58,58.15c0-1.61.29-2.9.88-3.87.59-.97,1.41-1.46,2.48-1.46.48,0,.9.11,1.28.32.38.21.7.52.97.92v-5.49h1.88v14.47h-1.56l-.19-1.21c-.28.46-.62.81-1.02,1.04-.4.24-.86.36-1.38.36-1.06,0-1.88-.45-2.46-1.34-.58-.89-.88-2.08-.88-3.56v-.19Zm1.88.19c0,1.05.16,1.89.47,2.51.32.62.81.93,1.47.93.42,0,.78-.11,1.07-.33.29-.22.53-.54.72-.95v-4.86c-.19-.41-.43-.74-.72-.99s-.65-.37-1.06-.37c-.67,0-1.16.36-1.48,1.07-.32.71-.48,1.64-.48,2.79v.19Z"/><path class="cls-8" d="m272.5,63.05c-.08-.3-.14-.57-.19-.81-.05-.24-.08-.47-.09-.71-.27.49-.62.9-1.05,1.23-.44.33-.93.49-1.49.49-.9,0-1.58-.27-2.06-.8-.48-.53-.72-1.26-.72-2.18s.33-1.69,1-2.24c.66-.54,1.59-.82,2.78-.82h1.54v-1.03c0-.61-.14-1.09-.41-1.43-.27-.34-.66-.52-1.17-.52-.46,0-.82.15-1.09.45-.27.3-.4.68-.4,1.14h-1.8s-.02-.05-.02-.05c-.04-.78.27-1.47.91-2.06.64-.59,1.48-.89,2.52-.89s1.8.29,2.42.88c.62.58.93,1.42.93,2.5v4.66c0,.38.02.76.07,1.12.05.36.13.72.23,1.07h-1.91Zm-2.43-1.25c.51,0,.97-.16,1.36-.48s.66-.7.78-1.16v-1.78h-1.57c-.58,0-1.04.18-1.36.55-.33.37-.49.81-.49,1.33,0,.46.11.83.33,1.11s.54.42.95.42Z"/><path class="cls-8" d="m283.92,61.81c.46,0,.85-.18,1.16-.54.31-.36.47-.84.47-1.46h1.7l.02.06c.02.95-.29,1.74-.96,2.39-.66.65-1.46.97-2.39.97-1.24,0-2.19-.47-2.87-1.42-.67-.94-1.01-2.15-1.01-3.61v-.35c0-1.46.34-2.66,1.01-3.61s1.63-1.42,2.87-1.42c1,0,1.82.34,2.44,1.02.63.68.93,1.56.91,2.64l-.02.05h-1.71c0-.67-.15-1.21-.45-1.63-.3-.42-.69-.63-1.18-.63-.71,0-1.21.34-1.53,1.02-.31.68-.47,1.54-.47,2.57v.35c0,1.05.15,1.91.46,2.59s.82,1.01,1.53,1.01Z"/><path class="cls-8" d="m294.43,61.58c-.27.53-.62.94-1.04,1.23-.42.29-.91.43-1.46.43-.92,0-1.64-.36-2.16-1.07s-.78-1.81-.78-3.31v-5.85h1.89v5.87c0,1.08.12,1.83.37,2.26.25.43.62.65,1.13.65.46,0,.86-.11,1.18-.32.33-.22.58-.53.77-.93v-7.52h1.89v10.04h-1.61l-.19-1.47Z"/><path class="cls-8" d="m302.69,54.58l-.82-.05c-.4,0-.73.12-.99.36-.26.24-.47.57-.61,1.01v7.15h-1.89v-10.04h1.73l.13,1.48c.22-.53.51-.94.85-1.23s.75-.44,1.2-.44c.12,0,.23.01.33.03.1.02.19.05.27.08l-.21,1.64Z"/><path class="cls-8" d="m307.35,60.03l.16.79h.06l.17-.79,1.75-7.02h1.95l-3.06,10.04h-1.68l-3.08-10.04h1.97l1.77,7.02Z"/><path class="cls-8" d="m317.85,63.05c-.08-.3-.14-.57-.19-.81-.05-.24-.08-.47-.09-.71-.27.49-.62.9-1.05,1.23-.44.33-.93.49-1.49.49-.9,0-1.58-.27-2.06-.8-.48-.53-.72-1.26-.72-2.18s.33-1.69,1-2.24c.66-.54,1.59-.82,2.78-.82h1.54v-1.03c0-.61-.14-1.09-.41-1.43-.27-.34-.66-.52-1.17-.52-.46,0-.82.15-1.09.45-.27.3-.4.68-.4,1.14h-1.8s-.02-.05-.02-.05c-.04-.78.27-1.47.91-2.06.64-.59,1.48-.89,2.52-.89s1.8.29,2.42.88c.62.58.93,1.42.93,2.5v4.66c0,.38.02.76.07,1.12.05.36.13.72.23,1.07h-1.91Zm-2.43-1.25c.51,0,.97-.16,1.36-.48s.66-.7.78-1.16v-1.78h-1.57c-.58,0-1.04.18-1.36.55-.33.37-.49.81-.49,1.33,0,.46.11.83.33,1.11s.54.42.95.42Z"/><path class="cls-8" d="m324.03,50.51v2.5h1.57v1.35h-1.57v5.97c0,.52.08.89.24,1.11.16.22.37.33.63.33.11,0,.21,0,.3-.03.09-.02.2-.05.33-.08l.19,1.3c-.18.09-.38.16-.6.21-.22.05-.45.08-.68.08-.72,0-1.29-.23-1.69-.7-.4-.47-.6-1.2-.6-2.21v-5.97h-1.33v-1.35h1.33v-2.5h1.89Z"/><path class="cls-8" d="m332.7,61.58c-.27.53-.62.94-1.04,1.23-.42.29-.91.43-1.46.43-.92,0-1.64-.36-2.16-1.07s-.78-1.81-.78-3.31v-5.85h1.89v5.87c0,1.08.12,1.83.37,2.26.25.43.62.65,1.13.65.46,0,.86-.11,1.18-.32.33-.22.58-.53.77-.93v-7.52h1.89v10.04h-1.61l-.19-1.47Z"/><path class="cls-8" d="m340.96,54.58l-.82-.05c-.4,0-.73.12-.99.36-.26.24-.47.57-.61,1.01v7.15h-1.89v-10.04h1.73l.13,1.48c.22-.53.51-.94.85-1.23s.75-.44,1.2-.44c.12,0,.23.01.33.03.1.02.19.05.27.08l-.21,1.64Z"/><path class="cls-8" d="m347.71,63.05c-.08-.3-.14-.57-.19-.81-.05-.24-.08-.47-.09-.71-.27.49-.62.9-1.05,1.23-.44.33-.93.49-1.49.49-.9,0-1.58-.27-2.06-.8-.48-.53-.72-1.26-.72-2.18s.33-1.69,1-2.24c.66-.54,1.59-.82,2.78-.82h1.54v-1.03c0-.61-.14-1.09-.41-1.43-.27-.34-.66-.52-1.17-.52-.46,0-.82.15-1.09.45-.27.3-.4.68-.4,1.14h-1.8s-.02-.05-.02-.05c-.04-.78.27-1.47.91-2.06.64-.59,1.48-.89,2.52-.89s1.8.29,2.42.88c.62.58.93,1.42.93,2.5v4.66c0,.38.02.76.07,1.12.05.36.13.72.23,1.07h-1.91Zm-2.43-1.25c.51,0,.97-.16,1.36-.48s.66-.7.78-1.16v-1.78h-1.57c-.58,0-1.04.18-1.36.55-.33.37-.49.81-.49,1.33,0,.46.11.83.33,1.11s.54.42.95.42Z"/><path class="cls-8" d="m355.29,58.15c0-1.61.29-2.9.88-3.87.59-.97,1.41-1.46,2.48-1.46.48,0,.9.11,1.28.32.38.21.7.52.97.92v-5.49h1.88v14.47h-1.56l-.19-1.21c-.28.46-.62.81-1.02,1.04-.4.24-.86.36-1.38.36-1.06,0-1.88-.45-2.46-1.34-.58-.89-.88-2.08-.88-3.56v-.19Zm1.88.19c0,1.05.16,1.89.47,2.51.32.62.81.93,1.47.93.42,0,.78-.11,1.07-.33.29-.22.53-.54.72-.95v-4.86c-.19-.41-.43-.74-.72-.99s-.65-.37-1.06-.37c-.67,0-1.16.36-1.48,1.07-.32.71-.48,1.64-.48,2.79v.19Z"/><path class="cls-8" d="m368.62,63.24c-1.25,0-2.23-.46-2.94-1.37-.71-.92-1.06-2.11-1.06-3.57v-.44c0-1.47.35-2.68,1.06-3.62.71-.94,1.63-1.41,2.77-1.41s2.01.41,2.61,1.22c.6.81.89,1.9.89,3.27v1.06h-5.45c0,1.03.18,1.86.55,2.5s.93.96,1.69.96c.53,0,.98-.08,1.37-.25.39-.16.75-.4,1.08-.72l.61,1.17c-.33.35-.77.64-1.32.87-.55.23-1.17.35-1.87.35Zm-.18-8.97c-.54,0-.98.25-1.3.76-.32.5-.52,1.17-.6,2h3.55v-.21c0-.75-.13-1.37-.4-1.84-.27-.47-.68-.71-1.25-.71Z"/><path class="cls-8" d="m57.82,84.61c.46,0,.85-.18,1.16-.54.31-.36.47-.84.47-1.46h1.7l.02.06c.02.95-.29,1.74-.96,2.39-.66.65-1.46.97-2.39.97-1.24,0-2.19-.47-2.87-1.41-.67-.94-1.01-2.15-1.01-3.61v-.35c0-1.46.34-2.66,1.01-3.61s1.63-1.42,2.87-1.42c1,0,1.82.34,2.44,1.02.63.68.93,1.56.91,2.64l-.02.05h-1.71c0-.67-.15-1.21-.45-1.63-.3-.42-.69-.63-1.18-.63-.71,0-1.21.34-1.53,1.02-.31.68-.47,1.54-.47,2.57v.35c0,1.05.15,1.91.46,2.59.31.67.82,1.01,1.53,1.01Z"/><path class="cls-8" d="m62.55,80.72c0-1.49.35-2.71,1.06-3.66.71-.95,1.67-1.43,2.9-1.43s2.2.48,2.91,1.43c.71.95,1.06,2.17,1.06,3.66v.25c0,1.5-.35,2.72-1.06,3.66-.71.94-1.67,1.41-2.89,1.41s-2.22-.47-2.92-1.41c-.71-.94-1.06-2.16-1.06-3.66v-.25Zm1.89.25c0,1.07.17,1.95.51,2.62.34.68.87,1.02,1.57,1.02s1.2-.34,1.54-1.02c.34-.68.51-1.56.51-2.62v-.25c0-1.05-.17-1.92-.52-2.61-.35-.69-.87-1.03-1.56-1.03s-1.21.34-1.55,1.03c-.34.69-.51,1.56-.51,2.61v.25Zm2.79-9.43h2.16l.03.05-2.25,2.42h-1.58l1.63-2.47Z"/><path class="cls-8" d="m76.59,77.38l-.82-.05c-.4,0-.73.12-.99.36-.26.24-.47.57-.61,1.01v7.15h-1.89v-10.04h1.73l.13,1.48c.22-.53.51-.94.85-1.23s.75-.44,1.2-.44c.12,0,.23.01.33.03.1.02.19.05.27.08l-.21,1.64Z"/><path class="cls-8" d="m79.84,75.81l.11,1.49c.28-.53.64-.94,1.08-1.24.43-.29.92-.44,1.47-.44.89,0,1.58.33,2.08.98.5.66.75,1.68.75,3.06v6.18h-1.88v-6.17c0-.95-.13-1.61-.39-2s-.66-.58-1.19-.58c-.43,0-.8.11-1.11.34-.31.23-.56.54-.74.93v7.49h-1.89v-10.04h1.73Z"/><path class="cls-8" d="m91.11,86.04c-1.25,0-2.23-.46-2.94-1.37-.71-.92-1.06-2.11-1.06-3.57v-.44c0-1.47.35-2.68,1.06-3.62.71-.94,1.63-1.41,2.77-1.41s2.01.41,2.61,1.21c.6.81.89,1.9.89,3.27v1.06h-5.45c0,1.03.18,1.86.55,2.5.37.64.93.96,1.69.96.53,0,.98-.08,1.37-.25.39-.16.75-.4,1.08-.72l.61,1.17c-.33.35-.77.64-1.32.87-.55.24-1.17.35-1.87.35Zm-.18-8.97c-.54,0-.98.25-1.3.76-.32.5-.52,1.17-.6,2h3.55v-.21c0-.75-.13-1.37-.4-1.84-.27-.47-.68-.71-1.25-.71Z"/><path class="cls-8" d="m101.35,85.85c-.08-.3-.14-.57-.19-.81-.05-.24-.08-.47-.09-.71-.27.49-.62.9-1.05,1.23-.44.32-.93.49-1.49.49-.9,0-1.58-.27-2.06-.8-.48-.53-.72-1.26-.72-2.18s.33-1.69,1-2.24c.66-.54,1.59-.82,2.78-.82h1.54v-1.03c0-.61-.14-1.09-.41-1.43s-.66-.51-1.17-.51c-.46,0-.82.15-1.09.45-.27.3-.4.68-.4,1.14h-1.8s-.02-.05-.02-.05c-.04-.78.27-1.47.91-2.06.64-.59,1.48-.89,2.52-.89s1.8.29,2.42.88.93,1.42.93,2.5v4.66c0,.38.02.76.07,1.12s.13.72.23,1.07h-1.91Zm-2.43-1.25c.51,0,.97-.16,1.36-.48s.66-.7.78-1.16v-1.78h-1.57c-.58,0-1.04.18-1.36.55-.33.37-.49.81-.49,1.33,0,.46.11.83.33,1.11s.54.42.95.42Z"/><path class="cls-8" d="m108.93,80.95c0-1.61.29-2.9.88-3.87.59-.97,1.41-1.46,2.48-1.46.48,0,.9.11,1.28.32.38.21.7.52.97.92v-5.49h1.88v14.47h-1.56l-.19-1.21c-.28.46-.62.81-1.02,1.04s-.86.36-1.38.36c-1.06,0-1.88-.45-2.46-1.34-.58-.89-.88-2.08-.88-3.56v-.19Zm1.88.19c0,1.05.16,1.89.47,2.51s.81.93,1.47.93c.42,0,.78-.11,1.07-.33.29-.22.53-.54.72-.95v-4.86c-.19-.41-.43-.74-.72-.99s-.65-.37-1.06-.37c-.67,0-1.16.36-1.48,1.07-.32.71-.48,1.64-.48,2.79v.19Z"/><path class="cls-8" d="m118.26,80.72c0-1.49.35-2.71,1.06-3.66.71-.95,1.67-1.43,2.9-1.43s2.2.48,2.91,1.43c.71.95,1.06,2.17,1.06,3.66v.25c0,1.5-.35,2.72-1.06,3.66-.71.94-1.67,1.41-2.89,1.41s-2.22-.47-2.92-1.41c-.71-.94-1.06-2.16-1.06-3.66v-.25Zm1.89.25c0,1.07.17,1.95.51,2.62.34.68.87,1.02,1.57,1.02s1.2-.34,1.54-1.02c.34-.68.51-1.56.51-2.62v-.25c0-1.05-.17-1.92-.52-2.61-.35-.69-.87-1.03-1.56-1.03s-1.21.34-1.55,1.03c-.34.69-.51,1.56-.51,2.61v.25Z"/><path class="cls-8" d="m137.56,84.38c-.27.53-.62.94-1.04,1.23-.42.29-.91.43-1.46.43-.92,0-1.64-.36-2.16-1.07-.52-.71-.78-1.82-.78-3.31v-5.85h1.89v5.87c0,1.08.12,1.83.37,2.26.25.43.62.65,1.13.65.46,0,.86-.11,1.18-.33.33-.22.58-.53.77-.93v-7.52h1.89v10.04h-1.61l-.19-1.47Z"/><path class="cls-8" d="m146.27,83.31c0-.39-.13-.72-.39-.98s-.76-.56-1.49-.89c-1.03-.39-1.81-.81-2.32-1.27-.51-.46-.77-1.04-.77-1.76,0-.77.31-1.43.93-1.98.62-.54,1.43-.82,2.43-.82s1.87.3,2.5.9c.63.6.93,1.32.91,2.17l-.02.06h-1.82c0-.48-.14-.89-.42-1.23s-.66-.51-1.15-.51-.86.13-1.13.4c-.27.27-.4.58-.4.94,0,.38.12.69.35.9.23.22.73.5,1.49.85,1.05.37,1.84.8,2.37,1.29.53.49.79,1.1.79,1.84,0,.83-.32,1.51-.96,2.04-.64.52-1.48.78-2.52.78-1.12,0-2.01-.31-2.66-.94-.65-.63-.95-1.36-.92-2.2l.02-.06h1.75c.02.65.21,1.12.55,1.41.34.29.77.43,1.29.43s.89-.13,1.17-.39c.28-.26.42-.58.42-.98Z"/><path class="cls-8" d="m155.28,84.38c-.27.53-.62.94-1.04,1.23-.42.29-.91.43-1.46.43-.92,0-1.64-.36-2.16-1.07-.52-.71-.78-1.82-.78-3.31v-5.85h1.89v5.87c0,1.08.12,1.83.37,2.26.25.43.62.65,1.13.65.46,0,.86-.11,1.18-.33.33-.22.58-.53.77-.93v-7.52h1.89v10.04h-1.61l-.19-1.47Z"/><path class="cls-8" d="m164.45,85.85c-.08-.3-.14-.57-.19-.81-.05-.24-.08-.47-.09-.71-.27.49-.62.9-1.05,1.23-.44.32-.93.49-1.49.49-.9,0-1.58-.27-2.06-.8-.48-.53-.72-1.26-.72-2.18s.33-1.69,1-2.24c.66-.54,1.59-.82,2.78-.82h1.54v-1.03c0-.61-.14-1.09-.41-1.43s-.66-.51-1.17-.51c-.46,0-.82.15-1.09.45-.27.3-.4.68-.4,1.14h-1.8s-.02-.05-.02-.05c-.04-.78.27-1.47.91-2.06.64-.59,1.48-.89,2.52-.89s1.8.29,2.42.88.93,1.42.93,2.5v4.66c0,.38.02.76.07,1.12s.13.72.23,1.07h-1.91Zm-2.43-1.25c.51,0,.97-.16,1.36-.48s.66-.7.78-1.16v-1.78h-1.57c-.58,0-1.04.18-1.36.55-.33.37-.49.81-.49,1.33,0,.46.11.83.33,1.11s.54.42.95.42Zm1.28-13.05h2.16l.03.05-2.24,2.42h-1.58l1.63-2.47Z"/><path class="cls-8" d="m172.51,77.38l-.82-.05c-.4,0-.73.12-.99.36-.26.24-.47.57-.61,1.01v7.15h-1.89v-10.04h1.73l.13,1.48c.22-.53.51-.94.85-1.23s.75-.44,1.2-.44c.12,0,.23.01.33.03.1.02.19.05.27.08l-.21,1.64Z"/><path class="cls-8" d="m176.06,73.17h-1.89v-1.8h1.89v1.8Zm0,12.67h-1.89v-10.04h1.89v10.04Z"/><path class="cls-8" d="m177.98,80.72c0-1.49.35-2.71,1.06-3.66.71-.95,1.67-1.43,2.9-1.43s2.2.48,2.91,1.43c.71.95,1.06,2.17,1.06,3.66v.25c0,1.5-.35,2.72-1.06,3.66-.71.94-1.67,1.41-2.89,1.41s-2.22-.47-2.92-1.41c-.71-.94-1.06-2.16-1.06-3.66v-.25Zm1.89.25c0,1.07.17,1.95.51,2.62.34.68.87,1.02,1.57,1.02s1.2-.34,1.54-1.02c.34-.68.51-1.56.51-2.62v-.25c0-1.05-.17-1.92-.52-2.61-.35-.69-.87-1.03-1.56-1.03s-1.21.34-1.55,1.03c-.34.69-.51,1.56-.51,2.61v.25Z"/><path class="cls-8" d="m189.58,85.62l-1.21,2.74h-1.21l.56-2.8v-1.72h1.86v1.78Z"/><path class="cls-8" d="m198.68,82.83l.16.79h.06l.17-.79,1.75-7.02h1.95l-3.06,10.04h-1.68l-3.08-10.04h1.97l1.77,7.02Z"/><path class="cls-8" d="m207.61,86.04c-1.25,0-2.23-.46-2.94-1.37-.71-.92-1.06-2.11-1.06-3.57v-.44c0-1.47.35-2.68,1.06-3.62.71-.94,1.63-1.41,2.77-1.41s2.01.41,2.61,1.21c.6.81.89,1.9.89,3.27v1.06h-5.45c0,1.03.18,1.86.55,2.5.37.64.93.96,1.69.96.53,0,.98-.08,1.37-.25.39-.16.75-.4,1.08-.72l.61,1.17c-.33.35-.77.64-1.32.87-.55.24-1.17.35-1.87.35Zm-.18-8.97c-.54,0-.98.25-1.3.76-.32.5-.52,1.17-.6,2h3.55v-.21c0-.75-.13-1.37-.4-1.84-.27-.47-.68-.71-1.25-.71Z"/><path class="cls-8" d="m216.95,77.38l-.82-.05c-.4,0-.73.12-.99.36-.26.24-.47.57-.61,1.01v7.15h-1.89v-10.04h1.73l.13,1.48c.22-.53.51-.94.85-1.23s.75-.44,1.2-.44c.12,0,.23.01.33.03.1.02.19.05.27.08l-.21,1.64Z"/><path class="cls-8" d="m220.5,73.17h-1.89v-1.8h1.89v1.8Zm0,12.67h-1.89v-10.04h1.89v10.04Z"/><path class="cls-8" d="m223.31,85.85v-8.69h-1.33v-1.34h1.33v-1.03c0-1.14.3-2.03.91-2.66.61-.63,1.46-.94,2.56-.94.39,0,.78.05,1.17.14.39.1.82.23,1.28.41l-.29,1.47c-.31-.14-.64-.25-.96-.33-.33-.08-.69-.12-1.08-.12-.58,0-1.01.17-1.29.51s-.42.85-.42,1.52v1.03h1.74v1.34h-1.74v8.69h-1.88Zm6.81,0h-1.89v-10.04h1.89v10.04Z"/><path class="cls-8" d="m235.91,84.61c.46,0,.85-.18,1.16-.54.31-.36.47-.84.47-1.46h1.7l.02.06c.02.95-.29,1.74-.96,2.39-.66.65-1.46.97-2.39.97-1.24,0-2.19-.47-2.87-1.41-.67-.94-1.01-2.15-1.01-3.61v-.35c0-1.46.34-2.66,1.01-3.61s1.63-1.42,2.87-1.42c1,0,1.82.34,2.44,1.02.63.68.93,1.56.91,2.64l-.02.05h-1.71c0-.67-.15-1.21-.45-1.63-.3-.42-.69-.63-1.18-.63-.71,0-1.21.34-1.53,1.02-.31.68-.47,1.54-.47,2.57v.35c0,1.05.15,1.91.46,2.59.31.67.82,1.01,1.53,1.01Z"/><path class="cls-8" d="m246.23,85.85c-.08-.3-.14-.57-.19-.81-.05-.24-.08-.47-.09-.71-.27.49-.62.9-1.05,1.23-.44.32-.93.49-1.49.49-.9,0-1.58-.27-2.06-.8-.48-.53-.72-1.26-.72-2.18s.33-1.69,1-2.24c.66-.54,1.59-.82,2.78-.82h1.54v-1.03c0-.61-.14-1.09-.41-1.43s-.66-.51-1.17-.51c-.46,0-.82.15-1.09.45-.27.3-.4.68-.4,1.14h-1.8s-.02-.05-.02-.05c-.04-.78.27-1.47.91-2.06.64-.59,1.48-.89,2.52-.89s1.8.29,2.42.88.93,1.42.93,2.5v4.66c0,.38.02.76.07,1.12s.13.72.23,1.07h-1.91Zm-2.43-1.25c.51,0,.97-.16,1.36-.48s.66-.7.78-1.16v-1.78h-1.57c-.58,0-1.04.18-1.36.55-.33.37-.49.81-.49,1.33,0,.46.11.83.33,1.11s.54.42.95.42Z"/><path class="cls-8" d="m254.88,80.82h-4.7v-1.44h4.7v1.44Z"/><path class="cls-8" d="m262.05,83.31c0-.39-.13-.72-.39-.98s-.76-.56-1.49-.89c-1.03-.39-1.81-.81-2.32-1.27-.51-.46-.77-1.04-.77-1.76,0-.77.31-1.43.93-1.98.62-.54,1.43-.82,2.43-.82s1.87.3,2.5.9c.63.6.93,1.32.91,2.17l-.02.06h-1.82c0-.48-.14-.89-.42-1.23s-.66-.51-1.15-.51-.86.13-1.13.4c-.27.27-.4.58-.4.94,0,.38.12.69.35.9.23.22.73.5,1.49.85,1.05.37,1.84.8,2.37,1.29.53.49.79,1.1.79,1.84,0,.83-.32,1.51-.96,2.04-.64.52-1.48.78-2.52.78-1.12,0-2.01-.31-2.66-.94-.65-.63-.95-1.36-.92-2.2l.02-.06h1.75c.02.65.21,1.12.55,1.41.34.29.77.43,1.29.43s.89-.13,1.17-.39c.28-.26.42-.58.42-.98Z"/><path class="cls-8" d="m269.29,86.04c-1.25,0-2.23-.46-2.94-1.37-.71-.92-1.06-2.11-1.06-3.57v-.44c0-1.47.35-2.68,1.06-3.62.71-.94,1.63-1.41,2.77-1.41s2.01.41,2.61,1.21c.6.81.89,1.9.89,3.27v1.06h-5.45c0,1.03.18,1.86.55,2.5.37.64.93.96,1.69.96.53,0,.98-.08,1.37-.25.39-.16.75-.4,1.08-.72l.61,1.17c-.33.35-.77.64-1.32.87-.55.24-1.17.35-1.87.35Zm-.18-8.97c-.54,0-.98.25-1.3.76-.32.5-.52,1.17-.6,2h3.55v-.21c0-.75-.13-1.37-.4-1.84-.27-.47-.68-.71-1.25-.71Z"/><path class="cls-8" d="m278.14,80.95c0-1.61.29-2.9.88-3.87.59-.97,1.41-1.46,2.48-1.46.51,0,.96.12,1.34.35.39.23.72.57.99,1l.2-1.17h1.55v13.9h-1.89v-4.77c-.27.36-.58.64-.95.83s-.79.28-1.27.28c-1.06,0-1.88-.45-2.46-1.34-.58-.89-.88-2.08-.88-3.56v-.19Zm1.88.19c0,1.06.16,1.9.47,2.53s.81.94,1.47.94c.4,0,.75-.1,1.03-.3.28-.2.52-.49.71-.86v-5.17c-.18-.38-.41-.67-.7-.89-.29-.22-.63-.32-1.03-.32-.67,0-1.16.36-1.48,1.08-.32.72-.48,1.65-.48,2.8v.19Z"/><path class="cls-8" d="m293.24,84.38c-.27.53-.62.94-1.04,1.23-.42.29-.91.43-1.46.43-.92,0-1.64-.36-2.16-1.07-.52-.71-.78-1.82-.78-3.31v-5.85h1.89v5.87c0,1.08.12,1.83.37,2.26.25.43.62.65,1.13.65.46,0,.86-.11,1.18-.33.33-.22.58-.53.77-.93v-7.52h1.89v10.04h-1.61l-.19-1.47Z"/><path class="cls-8" d="m300.82,86.04c-1.25,0-2.23-.46-2.94-1.37-.71-.92-1.06-2.11-1.06-3.57v-.44c0-1.47.35-2.68,1.06-3.62.71-.94,1.63-1.41,2.77-1.41s2.01.41,2.61,1.21c.6.81.89,1.9.89,3.27v1.06h-5.45c0,1.03.18,1.86.55,2.5.37.64.93.96,1.69.96.53,0,.98-.08,1.37-.25.39-.16.75-.4,1.08-.72l.61,1.17c-.33.35-.77.64-1.32.87-.55.24-1.17.35-1.87.35Zm-.18-8.97c-.54,0-.98.25-1.3.76-.32.5-.52,1.17-.6,2h3.55v-.21c0-.75-.13-1.37-.4-1.84-.27-.47-.68-.71-1.25-.71Z"/><path class="cls-8" d="m315.24,85.85c-.08-.3-.14-.57-.19-.81-.05-.24-.08-.47-.09-.71-.27.49-.62.9-1.05,1.23-.44.32-.93.49-1.49.49-.9,0-1.58-.27-2.06-.8-.48-.53-.72-1.26-.72-2.18s.33-1.69,1-2.24c.66-.54,1.59-.82,2.78-.82h1.54v-1.03c0-.61-.14-1.09-.41-1.43s-.66-.51-1.17-.51c-.46,0-.82.15-1.09.45-.27.3-.4.68-.4,1.14h-1.8s-.02-.05-.02-.05c-.04-.78.27-1.47.91-2.06.64-.59,1.48-.89,2.52-.89s1.8.29,2.42.88.93,1.42.93,2.5v4.66c0,.38.02.76.07,1.12s.13.72.23,1.07h-1.91Zm-2.43-1.25c.51,0,.97-.16,1.36-.48s.66-.7.78-1.16v-1.78h-1.57c-.58,0-1.04.18-1.36.55-.33.37-.49.81-.49,1.33,0,.46.11.83.33,1.11s.54.42.95.42Z"/><path class="cls-8" d="m324.9,75.81l.1,1.36c.28-.49.63-.88,1.06-1.15.43-.27.93-.4,1.5-.4s1.04.15,1.45.46.71.77.92,1.4c.27-.58.62-1.04,1.06-1.36.44-.33.96-.49,1.56-.49.87,0,1.56.35,2.05,1.06.5.71.75,1.79.75,3.23v5.93h-1.89v-5.94c0-1.05-.13-1.78-.39-2.19s-.65-.63-1.16-.63c-.43,0-.8.16-1.09.48-.29.32-.51.75-.64,1.27,0,.11.01.23.02.35s0,.24,0,.37v6.29h-1.88v-5.94c0-1.01-.13-1.73-.4-2.17-.27-.44-.65-.65-1.16-.65-.41,0-.75.11-1.04.33s-.51.53-.67.92v7.51h-1.89v-10.04h1.73Z"/><path class="cls-8" d="m341.15,86.04c-1.25,0-2.23-.46-2.94-1.37-.71-.92-1.06-2.11-1.06-3.57v-.44c0-1.47.35-2.68,1.06-3.62.71-.94,1.63-1.41,2.77-1.41s2.01.41,2.61,1.21c.6.81.89,1.9.89,3.27v1.06h-5.45c0,1.03.18,1.86.55,2.5.37.64.93.96,1.69.96.53,0,.98-.08,1.37-.25.39-.16.75-.4,1.08-.72l.61,1.17c-.33.35-.77.64-1.32.87-.55.24-1.17.35-1.87.35Zm-.18-8.97c-.54,0-.98.25-1.3.76-.32.5-.52,1.17-.6,2h3.55v-.21c0-.75-.13-1.37-.4-1.84-.27-.47-.68-.71-1.25-.71Z"/><path class="cls-8" d="m345.83,80.95c0-1.61.29-2.9.88-3.87.59-.97,1.41-1.46,2.48-1.46.48,0,.9.11,1.28.32.38.21.7.52.97.92v-5.49h1.88v14.47h-1.56l-.19-1.21c-.28.46-.62.81-1.02,1.04s-.86.36-1.38.36c-1.06,0-1.88-.45-2.46-1.34-.58-.89-.88-2.08-.88-3.56v-.19Zm1.88.19c0,1.05.16,1.89.47,2.51s.81.93,1.47.93c.42,0,.78-.11,1.07-.33.29-.22.53-.54.72-.95v-4.86c-.19-.41-.43-.74-.72-.99s-.65-.37-1.06-.37c-.67,0-1.16.36-1.48,1.07-.32.71-.48,1.64-.48,2.79v.19Z"/><path class="cls-8" d="m357.54,73.17h-1.89v-1.8h1.89v1.8Zm0,12.67h-1.89v-10.04h1.89v10.04Z"/><path class="cls-8" d="m359.49,80.95c0-1.61.29-2.9.88-3.87.59-.97,1.41-1.46,2.48-1.46.48,0,.9.11,1.28.32.38.21.7.52.97.92v-5.49h1.88v14.47h-1.56l-.19-1.21c-.28.46-.62.81-1.02,1.04s-.86.36-1.38.36c-1.06,0-1.88-.45-2.46-1.34-.58-.89-.88-2.08-.88-3.56v-.19Zm1.88.19c0,1.05.16,1.89.47,2.51s.81.93,1.47.93c.42,0,.78-.11,1.07-.33.29-.22.53-.54.72-.95v-4.86c-.19-.41-.43-.74-.72-.99s-.65-.37-1.06-.37c-.67,0-1.16.36-1.48,1.07-.32.71-.48,1.64-.48,2.79v.19Z"/><path class="cls-8" d="m374.41,85.85c-.08-.3-.14-.57-.19-.81-.05-.24-.08-.47-.09-.71-.27.49-.62.9-1.05,1.23-.44.32-.93.49-1.49.49-.9,0-1.58-.27-2.06-.8-.48-.53-.72-1.26-.72-2.18s.33-1.69,1-2.24c.66-.54,1.59-.82,2.78-.82h1.54v-1.03c0-.61-.14-1.09-.41-1.43s-.66-.51-1.17-.51c-.46,0-.82.15-1.09.45-.27.3-.4.68-.4,1.14h-1.8s-.02-.05-.02-.05c-.04-.78.27-1.47.91-2.06.64-.59,1.48-.89,2.52-.89s1.8.29,2.42.88.93,1.42.93,2.5v4.66c0,.38.02.76.07,1.12s.13.72.23,1.07h-1.91Zm-2.43-1.25c.51,0,.97-.16,1.36-.48s.66-.7.78-1.16v-1.78h-1.57c-.58,0-1.04.18-1.36.55-.33.37-.49.81-.49,1.33,0,.46.11.83.33,1.11s.54.42.95.42Z"/><path class="cls-8" d="m53.98,103.75c0-1.61.29-2.9.88-3.87s1.41-1.46,2.48-1.46c.48,0,.9.11,1.28.32.38.21.7.52.97.92v-5.49h1.88v14.47h-1.56l-.19-1.21c-.28.46-.62.81-1.02,1.04-.4.24-.86.36-1.38.36-1.06,0-1.88-.45-2.46-1.34-.58-.89-.88-2.08-.88-3.56v-.19Zm1.88.19c0,1.05.16,1.89.47,2.51.32.62.81.93,1.47.93.42,0,.78-.11,1.07-.33.29-.22.53-.54.72-.95v-4.86c-.19-.41-.43-.74-.72-.99-.3-.24-.65-.37-1.06-.37-.67,0-1.16.36-1.48,1.07-.32.71-.48,1.64-.48,2.79v.19Z"/><path class="cls-8" d="m68.9,108.65c-.08-.3-.14-.57-.19-.81-.05-.24-.08-.47-.09-.71-.27.5-.62.9-1.05,1.23-.44.32-.93.49-1.49.49-.9,0-1.58-.27-2.06-.8-.48-.53-.72-1.26-.72-2.18s.33-1.69,1-2.24c.66-.54,1.59-.82,2.78-.82h1.54v-1.03c0-.61-.14-1.09-.41-1.43-.27-.34-.66-.51-1.17-.51-.46,0-.82.15-1.09.45-.27.3-.4.68-.4,1.14h-1.8s-.02-.05-.02-.05c-.04-.78.27-1.47.91-2.06.64-.59,1.48-.89,2.52-.89s1.8.29,2.42.88c.62.58.93,1.42.93,2.5v4.66c0,.38.02.76.07,1.12.05.36.13.72.23,1.07h-1.91Zm-2.43-1.25c.51,0,.97-.16,1.36-.48.4-.32.66-.7.78-1.15v-1.78h-1.57c-.58,0-1.04.18-1.36.55s-.49.81-.49,1.33c0,.46.11.83.33,1.11s.54.42.95.42Z"/><path class="cls-8" d="m80.32,107.41c.46,0,.85-.18,1.16-.54.31-.36.47-.84.47-1.46h1.7l.02.06c.02.95-.29,1.74-.96,2.39-.66.65-1.46.97-2.39.97-1.24,0-2.19-.47-2.87-1.41s-1.01-2.15-1.01-3.61v-.35c0-1.46.34-2.66,1.01-3.61.67-.95,1.63-1.42,2.87-1.42,1,0,1.82.34,2.44,1.02.63.68.93,1.56.91,2.64l-.02.05h-1.71c0-.67-.15-1.21-.45-1.63-.3-.42-.69-.63-1.18-.63-.71,0-1.21.34-1.53,1.02-.31.68-.47,1.54-.47,2.57v.35c0,1.05.15,1.91.46,2.59.31.67.82,1.01,1.53,1.01Z"/><path class="cls-8" d="m90.83,107.18c-.27.53-.62.94-1.04,1.23-.42.29-.91.43-1.46.43-.92,0-1.64-.36-2.16-1.07-.52-.71-.78-1.82-.78-3.31v-5.85h1.89v5.87c0,1.08.12,1.83.37,2.26s.62.64,1.13.64c.46,0,.86-.11,1.18-.32.33-.22.58-.53.77-.93v-7.52h1.89v10.04h-1.61l-.19-1.47Z"/><path class="cls-8" d="m99.09,100.18l-.82-.05c-.4,0-.73.12-.99.36-.26.24-.47.57-.61,1.01v7.15h-1.89v-10.04h1.73l.13,1.48c.22-.53.51-.94.85-1.23.35-.29.75-.44,1.2-.44.12,0,.23.01.33.03.1.02.19.05.27.08l-.21,1.64Z"/><path class="cls-8" d="m103.75,105.63l.16.79h.06l.17-.79,1.75-7.02h1.95l-3.06,10.04h-1.68l-3.08-10.04h1.97l1.77,7.02Z"/><path class="cls-8" d="m114.25,108.65c-.08-.3-.14-.57-.19-.81-.05-.24-.08-.47-.09-.71-.27.5-.62.9-1.05,1.23-.44.32-.93.49-1.49.49-.9,0-1.58-.27-2.06-.8-.48-.53-.72-1.26-.72-2.18s.33-1.69,1-2.24c.66-.54,1.59-.82,2.78-.82h1.54v-1.03c0-.61-.14-1.09-.41-1.43-.27-.34-.66-.51-1.17-.51-.46,0-.82.15-1.09.45-.27.3-.4.68-.4,1.14h-1.8s-.02-.05-.02-.05c-.04-.78.27-1.47.91-2.06.64-.59,1.48-.89,2.52-.89s1.8.29,2.42.88c.62.58.93,1.42.93,2.5v4.66c0,.38.02.76.07,1.12.05.36.13.72.23,1.07h-1.91Zm-2.43-1.25c.51,0,.97-.16,1.36-.48.4-.32.66-.7.78-1.15v-1.78h-1.57c-.58,0-1.04.18-1.36.55s-.49.81-.49,1.33c0,.46.11.83.33,1.11s.54.42.95.42Z"/><path class="cls-8" d="m125.2,102.57h-.93v6.08h-1.88v-13.51h1.88v5.92h.8l3.77-5.92h2.28l-4.45,6.35,4.8,7.16h-2.39l-3.87-6.08Z"/><path class="cls-8" d="m136.84,103.17c0-2.34.41-4.39,1.23-6.13.82-1.74,1.71-2.89,2.68-3.46h.06l.34,1c-.71.63-1.31,1.69-1.83,3.19s-.77,3.29-.77,5.37v.19c0,2.08.26,3.87.77,5.36s1.12,2.57,1.83,3.24l-.34.95h-.06c-.97-.56-1.86-1.7-2.68-3.42s-1.22-3.77-1.22-6.14v-.15Z"/><path class="cls-8" d="m144.2,98.61l.1,1.36c.28-.49.63-.88,1.06-1.15.43-.27.93-.4,1.5-.4s1.04.15,1.45.46c.41.31.71.77.92,1.4.27-.58.62-1.04,1.06-1.36s.96-.49,1.56-.49c.87,0,1.56.35,2.05,1.06s.75,1.79.75,3.23v5.93h-1.89v-5.94c0-1.04-.13-1.78-.39-2.19-.26-.42-.65-.63-1.16-.63-.43,0-.8.16-1.09.48-.29.32-.51.75-.64,1.27,0,.11.01.23.02.35,0,.12,0,.24,0,.37v6.29h-1.88v-5.94c0-1.01-.13-1.73-.4-2.17-.27-.44-.65-.65-1.16-.65-.41,0-.75.11-1.04.33s-.51.53-.67.92v7.51h-1.89v-10.04h1.73Z"/><path class="cls-8" d="m160.45,108.84c-1.25,0-2.23-.46-2.94-1.37s-1.06-2.11-1.06-3.57v-.44c0-1.47.35-2.68,1.06-3.62s1.63-1.42,2.77-1.42,2.01.41,2.61,1.22c.6.81.89,1.9.89,3.27v1.06h-5.45c0,1.03.18,1.86.55,2.5.37.64.93.96,1.69.96.53,0,.98-.08,1.37-.25s.75-.4,1.08-.72l.61,1.17c-.33.35-.77.64-1.32.87-.55.23-1.17.35-1.87.35Zm-.18-8.97c-.54,0-.98.25-1.3.76-.32.5-.52,1.17-.6,2h3.55v-.21c0-.75-.13-1.37-.4-1.84-.27-.47-.68-.71-1.25-.71Z"/><path class="cls-8" d="m169.78,100.18l-.82-.05c-.4,0-.73.12-.99.36-.26.24-.47.57-.61,1.01v7.15h-1.89v-10.04h1.73l.13,1.48c.22-.53.51-.94.85-1.23.35-.29.75-.44,1.2-.44.12,0,.23.01.33.03.1.02.19.05.27.08l-.21,1.64Z"/><path class="cls-8" d="m173.34,95.97h-1.89v-1.8h1.89v1.8Zm0,12.67h-1.89v-10.04h1.89v10.04Z"/><path class="cls-8" d="m175.28,103.75c0-1.61.29-2.9.88-3.87s1.41-1.46,2.48-1.46c.48,0,.9.11,1.28.32.38.21.7.52.97.92v-5.49h1.88v14.47h-1.56l-.19-1.21c-.28.46-.62.81-1.02,1.04-.4.24-.86.36-1.38.36-1.06,0-1.88-.45-2.46-1.34-.58-.89-.88-2.08-.88-3.56v-.19Zm1.88.19c0,1.05.16,1.89.47,2.51.32.62.81.93,1.47.93.42,0,.78-.11,1.07-.33.29-.22.53-.54.72-.95v-4.86c-.19-.41-.43-.74-.72-.99-.3-.24-.65-.37-1.06-.37-.67,0-1.16.36-1.48,1.07-.32.71-.48,1.64-.48,2.79v.19Z"/><path class="cls-8" d="m187,95.97h-1.89v-1.8h1.89v1.8Zm0,12.67h-1.89v-10.04h1.89v10.04Z"/><path class="cls-8" d="m194.52,108.65c-.08-.3-.14-.57-.19-.81-.05-.24-.08-.47-.09-.71-.27.5-.62.9-1.05,1.23-.44.32-.93.49-1.49.49-.9,0-1.58-.27-2.06-.8-.48-.53-.72-1.26-.72-2.18s.33-1.69,1-2.24c.66-.54,1.59-.82,2.78-.82h1.54v-1.03c0-.61-.14-1.09-.41-1.43-.27-.34-.66-.51-1.17-.51-.46,0-.82.15-1.09.45-.27.3-.4.68-.4,1.14h-1.8s-.02-.05-.02-.05c-.04-.78.27-1.47.91-2.06.64-.59,1.48-.89,2.52-.89s1.8.29,2.42.88c.62.58.93,1.42.93,2.5v4.66c0,.38.02.76.07,1.12.05.36.13.72.23,1.07h-1.91Zm-2.43-1.25c.51,0,.97-.16,1.36-.48.4-.32.66-.7.78-1.15v-1.78h-1.57c-.58,0-1.04.18-1.36.55s-.49.81-.49,1.33c0,.46.11.83.33,1.11s.54.42.95.42Z"/><path class="cls-8" d="m199.98,98.61l.11,1.49c.28-.53.64-.94,1.08-1.24.43-.29.92-.44,1.47-.44.89,0,1.58.33,2.08.98.5.66.75,1.68.75,3.06v6.18h-1.88v-6.17c0-.95-.13-1.61-.39-2s-.66-.58-1.19-.58c-.43,0-.8.11-1.11.34-.31.23-.56.54-.74.93v7.49h-1.89v-10.04h1.73Z"/><path class="cls-8" d="m207.24,103.52c0-1.49.35-2.71,1.06-3.66.71-.95,1.67-1.43,2.9-1.43s2.2.48,2.91,1.43c.71.95,1.06,2.17,1.06,3.66v.25c0,1.5-.35,2.72-1.06,3.66s-1.67,1.41-2.89,1.41-2.22-.47-2.92-1.41-1.06-2.16-1.06-3.66v-.25Zm1.89.25c0,1.07.17,1.95.51,2.63.34.68.87,1.02,1.57,1.02s1.2-.34,1.54-1.02c.34-.68.51-1.56.51-2.62v-.25c0-1.05-.17-1.92-.52-2.61-.35-.69-.87-1.03-1.56-1.03s-1.21.34-1.55,1.03c-.34.69-.51,1.56-.51,2.61v.25Z"/><path class="cls-8" d="m222.88,98.61l.1,1.36c.28-.49.63-.88,1.06-1.15.43-.27.93-.4,1.5-.4s1.04.15,1.45.46c.41.31.71.77.92,1.4.27-.58.62-1.04,1.06-1.36s.96-.49,1.56-.49c.87,0,1.56.35,2.05,1.06s.75,1.79.75,3.23v5.93h-1.89v-5.94c0-1.04-.13-1.78-.39-2.19-.26-.42-.65-.63-1.16-.63-.43,0-.8.16-1.09.48-.29.32-.51.75-.64,1.27,0,.11.01.23.02.35,0,.12,0,.24,0,.37v6.29h-1.88v-5.94c0-1.01-.13-1.73-.4-2.17-.27-.44-.65-.65-1.16-.65-.41,0-.75.11-1.04.33s-.51.53-.67.92v7.51h-1.89v-10.04h1.73Z"/><path class="cls-8" d="m240.72,108.65c-.08-.3-.14-.57-.19-.81-.05-.24-.08-.47-.09-.71-.27.5-.62.9-1.05,1.23-.44.32-.93.49-1.49.49-.9,0-1.58-.27-2.06-.8-.48-.53-.72-1.26-.72-2.18s.33-1.69,1-2.24c.66-.54,1.59-.82,2.78-.82h1.54v-1.03c0-.61-.14-1.09-.41-1.43-.27-.34-.66-.51-1.17-.51-.46,0-.82.15-1.09.45-.27.3-.4.68-.4,1.14h-1.8s-.02-.05-.02-.05c-.04-.78.27-1.47.91-2.06.64-.59,1.48-.89,2.52-.89s1.8.29,2.42.88c.62.58.93,1.42.93,2.5v4.66c0,.38.02.76.07,1.12.05.36.13.72.23,1.07h-1.91Zm-2.43-1.25c.51,0,.97-.16,1.36-.48.4-.32.66-.7.78-1.15v-1.78h-1.57c-.58,0-1.04.18-1.36.55s-.49.81-.49,1.33c0,.46.11.83.33,1.11s.54.42.95.42Z"/><path class="cls-8" d="m246.49,95.97h-1.89v-1.8h1.89v1.8Zm0,12.67h-1.89v-10.04h1.89v10.04Z"/><path class="cls-8" d="m253.55,106.11c0-.39-.13-.72-.39-.98-.26-.26-.76-.56-1.49-.89-1.03-.39-1.81-.81-2.32-1.27-.51-.46-.77-1.05-.77-1.76,0-.77.31-1.43.93-1.98.62-.54,1.43-.82,2.43-.82s1.87.3,2.5.9.93,1.32.91,2.17l-.02.06h-1.82c0-.48-.14-.89-.42-1.23-.28-.34-.66-.51-1.15-.51s-.86.13-1.13.4-.4.58-.4.94c0,.38.12.69.35.9.23.22.73.5,1.49.85,1.05.37,1.84.8,2.37,1.29.53.49.79,1.1.79,1.84,0,.83-.32,1.51-.96,2.04-.64.52-1.48.78-2.52.78-1.12,0-2.01-.31-2.66-.94-.65-.63-.95-1.36-.92-2.2l.02-.06h1.75c.02.65.21,1.12.55,1.41.34.29.77.43,1.29.43s.89-.13,1.17-.38c.28-.26.42-.58.42-.98Z"/><path class="cls-8" d="m268.87,103.94c0,1.48-.3,2.67-.89,3.56s-1.41,1.34-2.47,1.34c-.49,0-.93-.1-1.31-.29-.38-.19-.7-.48-.97-.86v4.81h-1.89v-13.9h1.6l.18,1.21c.27-.45.61-.8,1-1.03.4-.24.86-.36,1.38-.36,1.06,0,1.89.49,2.48,1.46s.89,2.26.89,3.87v.19Zm-1.89-.19c0-1.14-.17-2.07-.5-2.78-.33-.72-.83-1.08-1.49-1.08-.42,0-.78.12-1.07.35-.29.23-.52.55-.7.94v5.06c.17.38.4.67.7.87s.65.31,1.08.31c.66,0,1.16-.32,1.48-.95s.49-1.47.49-2.52v-.19Z"/><path class="cls-8" d="m272.7,108.65h-1.89v-14.47h1.89v14.47Z"/><path class="cls-8" d="m280.21,108.65c-.08-.3-.14-.57-.19-.81-.05-.24-.08-.47-.09-.71-.27.5-.62.9-1.05,1.23-.44.32-.93.49-1.49.49-.9,0-1.58-.27-2.06-.8-.48-.53-.72-1.26-.72-2.18s.33-1.69,1-2.24c.66-.54,1.59-.82,2.78-.82h1.54v-1.03c0-.61-.14-1.09-.41-1.43-.27-.34-.66-.51-1.17-.51-.46,0-.82.15-1.09.45-.27.3-.4.68-.4,1.14h-1.8s-.02-.05-.02-.05c-.04-.78.27-1.47.91-2.06.64-.59,1.48-.89,2.52-.89s1.8.29,2.42.88c.62.58.93,1.42.93,2.5v4.66c0,.38.02.76.07,1.12.05.36.13.72.23,1.07h-1.91Zm-2.43-1.25c.51,0,.97-.16,1.36-.48.4-.32.66-.7.78-1.15v-1.78h-1.57c-.58,0-1.04.18-1.36.55s-.49.81-.49,1.33c0,.46.11.83.33,1.11s.54.42.95.42Z"/><path class="cls-8" d="m285.68,98.61l.11,1.49c.28-.53.64-.94,1.08-1.24.43-.29.92-.44,1.47-.44.89,0,1.58.33,2.08.98.5.66.75,1.68.75,3.06v6.18h-1.88v-6.17c0-.95-.13-1.61-.39-2s-.66-.58-1.19-.58c-.43,0-.8.11-1.11.34-.31.23-.56.54-.74.93v7.49h-1.89v-10.04h1.73Z"/><path class="cls-8" d="m292.94,103.52c0-1.49.35-2.71,1.06-3.66.71-.95,1.67-1.43,2.9-1.43s2.2.48,2.91,1.43c.71.95,1.06,2.17,1.06,3.66v.25c0,1.5-.35,2.72-1.06,3.66s-1.67,1.41-2.89,1.41-2.22-.47-2.92-1.41-1.06-2.16-1.06-3.66v-.25Zm1.89.25c0,1.07.17,1.95.51,2.63.34.68.87,1.02,1.57,1.02s1.2-.34,1.54-1.02c.34-.68.51-1.56.51-2.62v-.25c0-1.05-.17-1.92-.52-2.61-.35-.69-.87-1.03-1.56-1.03s-1.21.34-1.55,1.03c-.34.69-.51,1.56-.51,2.61v.25Z"/><path class="cls-8" d="m306.49,103.75c0-1.61.29-2.9.88-3.87s1.41-1.46,2.48-1.46c.48,0,.9.11,1.28.32.38.21.7.52.97.92v-5.49h1.88v14.47h-1.56l-.19-1.21c-.28.46-.62.81-1.02,1.04-.4.24-.86.36-1.38.36-1.06,0-1.88-.45-2.46-1.34-.58-.89-.88-2.08-.88-3.56v-.19Zm1.88.19c0,1.05.16,1.89.47,2.51.32.62.81.93,1.47.93.42,0,.78-.11,1.07-.33.29-.22.53-.54.72-.95v-4.86c-.19-.41-.43-.74-.72-.99-.3-.24-.65-.37-1.06-.37-.67,0-1.16.36-1.48,1.07-.32.71-.48,1.64-.48,2.79v.19Z"/><path class="cls-8" d="m321.41,108.65c-.08-.3-.14-.57-.19-.81-.05-.24-.08-.47-.09-.71-.27.5-.62.9-1.05,1.23-.44.32-.93.49-1.49.49-.9,0-1.58-.27-2.06-.8-.48-.53-.72-1.26-.72-2.18s.33-1.69,1-2.24c.66-.54,1.59-.82,2.78-.82h1.54v-1.03c0-.61-.14-1.09-.41-1.43-.27-.34-.66-.51-1.17-.51-.46,0-.82.15-1.09.45-.27.3-.4.68-.4,1.14h-1.8s-.02-.05-.02-.05c-.04-.78.27-1.47.91-2.06.64-.59,1.48-.89,2.52-.89s1.8.29,2.42.88c.62.58.93,1.42.93,2.5v4.66c0,.38.02.76.07,1.12.05.36.13.72.23,1.07h-1.91Zm-2.43-1.25c.51,0,.97-.16,1.36-.48.4-.32.66-.7.78-1.15v-1.78h-1.57c-.58,0-1.04.18-1.36.55s-.49.81-.49,1.33c0,.46.11.83.33,1.11s.54.42.95.42Z"/><path class="cls-8" d="m332.83,107.41c.46,0,.85-.18,1.16-.54.31-.36.47-.84.47-1.46h1.7l.02.06c.02.95-.29,1.74-.96,2.39-.66.65-1.46.97-2.39.97-1.24,0-2.19-.47-2.87-1.41s-1.01-2.15-1.01-3.61v-.35c0-1.46.34-2.66,1.01-3.61.67-.95,1.63-1.42,2.87-1.42,1,0,1.82.34,2.44,1.02.63.68.93,1.56.91,2.64l-.02.05h-1.71c0-.67-.15-1.21-.45-1.63-.3-.42-.69-.63-1.18-.63-.71,0-1.21.34-1.53,1.02-.31.68-.47,1.54-.47,2.57v.35c0,1.05.15,1.91.46,2.59.31.67.82,1.01,1.53,1.01Z"/><path class="cls-8" d="m337.56,103.52c0-1.49.35-2.71,1.06-3.66.71-.95,1.67-1.43,2.9-1.43s2.2.48,2.91,1.43c.71.95,1.06,2.17,1.06,3.66v.25c0,1.5-.35,2.72-1.06,3.66s-1.67,1.41-2.89,1.41-2.22-.47-2.92-1.41-1.06-2.16-1.06-3.66v-.25Zm1.89.25c0,1.07.17,1.95.51,2.63.34.68.87,1.02,1.57,1.02s1.2-.34,1.54-1.02c.34-.68.51-1.56.51-2.62v-.25c0-1.05-.17-1.92-.52-2.61-.35-.69-.87-1.03-1.56-1.03s-1.21.34-1.55,1.03c-.34.69-.51,1.56-.51,2.61v.25Zm2.79-9.43h2.16l.03.05-2.25,2.42h-1.58l1.63-2.47Z"/><path class="cls-8" d="m351.6,100.18l-.82-.05c-.4,0-.73.12-.99.36-.26.24-.47.57-.61,1.01v7.15h-1.89v-10.04h1.73l.13,1.48c.22-.53.51-.94.85-1.23.35-.29.75-.44,1.2-.44.12,0,.23.01.33.03.1.02.19.05.27.08l-.21,1.64Z"/><path class="cls-8" d="m354.85,98.61l.11,1.49c.28-.53.64-.94,1.08-1.24.43-.29.92-.44,1.47-.44.89,0,1.58.33,2.08.98.5.66.75,1.68.75,3.06v6.18h-1.88v-6.17c0-.95-.13-1.61-.39-2s-.66-.58-1.19-.58c-.43,0-.8.11-1.11.34-.31.23-.56.54-.74.93v7.49h-1.89v-10.04h1.73Z"/><path class="cls-8" d="m366.12,108.84c-1.25,0-2.23-.46-2.94-1.37s-1.06-2.11-1.06-3.57v-.44c0-1.47.35-2.68,1.06-3.62s1.63-1.42,2.77-1.42,2.01.41,2.61,1.22c.6.81.89,1.9.89,3.27v1.06h-5.45c0,1.03.18,1.86.55,2.5.37.64.93.96,1.69.96.53,0,.98-.08,1.37-.25s.75-.4,1.08-.72l.61,1.17c-.33.35-.77.64-1.32.87-.55.23-1.17.35-1.87.35Zm-.18-8.97c-.54,0-.98.25-1.3.76-.32.5-.52,1.17-.6,2h3.55v-.21c0-.75-.13-1.37-.4-1.84-.27-.47-.68-.71-1.25-.71Z"/><path class="cls-8" d="m376.36,108.65c-.08-.3-.14-.57-.19-.81-.05-.24-.08-.47-.09-.71-.27.5-.62.9-1.05,1.23-.44.32-.93.49-1.49.49-.9,0-1.58-.27-2.06-.8-.48-.53-.72-1.26-.72-2.18s.33-1.69,1-2.24c.66-.54,1.59-.82,2.78-.82h1.54v-1.03c0-.61-.14-1.09-.41-1.43-.27-.34-.66-.51-1.17-.51-.46,0-.82.15-1.09.45-.27.3-.4.68-.4,1.14h-1.8s-.02-.05-.02-.05c-.04-.78.27-1.47.91-2.06.64-.59,1.48-.89,2.52-.89s1.8.29,2.42.88c.62.58.93,1.42.93,2.5v4.66c0,.38.02.76.07,1.12.05.36.13.72.23,1.07h-1.91Zm-2.43-1.25c.51,0,.97-.16,1.36-.48.4-.32.66-.7.78-1.15v-1.78h-1.57c-.58,0-1.04.18-1.36.55s-.49.81-.49,1.33c0,.46.11.83.33,1.11s.54.42.95.42Z"/><path class="cls-8" d="m383.63,103.32c0,2.35-.42,4.39-1.25,6.12-.83,1.73-1.74,2.88-2.71,3.44h-.06l-.36-.95c.7-.63,1.31-1.7,1.83-3.21.52-1.51.78-3.3.78-5.39v-.19c0-2.07-.27-3.86-.8-5.38-.54-1.52-1.14-2.6-1.81-3.24l.36-.95h.06c.97.56,1.87,1.71,2.71,3.47.83,1.75,1.25,3.79,1.25,6.12v.15Z"/><path class="cls-8" d="m57.96,131.64c-1.25,0-2.23-.46-2.94-1.37-.71-.92-1.06-2.11-1.06-3.57v-.44c0-1.47.35-2.68,1.06-3.62s1.63-1.42,2.77-1.42,2.01.41,2.61,1.22c.6.81.89,1.9.89,3.27v1.06h-5.45c0,1.03.18,1.86.55,2.5.37.64.93.96,1.69.96.53,0,.98-.08,1.37-.25.39-.16.75-.4,1.08-.72l.61,1.17c-.33.35-.77.64-1.32.87-.55.23-1.17.35-1.87.35Zm-.18-8.97c-.54,0-.98.25-1.3.76-.32.5-.52,1.17-.6,2h3.55v-.21c0-.75-.13-1.37-.4-1.84-.27-.47-.68-.71-1.25-.71Zm.54-5.54h2.16l.03.05-2.24,2.42h-1.58l1.63-2.47Z"/><path class="cls-8" d="m73.79,126.83h1.57v1.44h-1.57v3.17h-1.9v-3.17h-5.15l-.05-1.06,5.14-9.28h1.97v8.9Zm-5.24,0h3.34v-6.29l-.06-.02-.25.58-3.03,5.73Z"/><path class="cls-8" d="m83.59,126.83h1.57v1.44h-1.57v3.17h-1.9v-3.17h-5.15l-.05-1.06,5.14-9.28h1.97v8.9Zm-5.24,0h3.34v-6.29l-.06-.02-.25.58-3.03,5.73Z"/><path class="cls-8" d="m88.62,131.22l-1.21,2.74h-1.21l.56-2.8v-1.72h1.86v1.78Z"/><path class="cls-8" d="m98.38,126.64c0,1.55-.36,2.77-1.08,3.66-.72.89-1.68,1.34-2.88,1.34s-2.17-.45-2.89-1.34c-.72-.89-1.09-2.11-1.09-3.66v-3.89c0-1.53.36-2.75,1.08-3.66s1.68-1.35,2.88-1.35,2.17.45,2.89,1.35c.72.9,1.09,2.12,1.09,3.66v3.89Zm-1.91-4.16c0-1.02-.18-1.82-.54-2.41-.36-.59-.87-.88-1.53-.88s-1.16.29-1.52.88c-.36.59-.54,1.39-.54,2.41v4.42c0,1.02.18,1.83.55,2.42s.88.89,1.53.89,1.16-.3,1.52-.89c.36-.59.53-1.4.53-2.43v-4.42Z"/><path class="cls-8" d="m108.18,126.64c0,1.55-.36,2.77-1.08,3.66-.72.89-1.68,1.34-2.88,1.34s-2.17-.45-2.89-1.34c-.72-.89-1.09-2.11-1.09-3.66v-3.89c0-1.53.36-2.75,1.08-3.66s1.68-1.35,2.88-1.35,2.17.45,2.89,1.35c.72.9,1.09,2.12,1.09,3.66v3.89Zm-1.91-4.16c0-1.02-.18-1.82-.54-2.41-.36-.59-.87-.88-1.53-.88s-1.16.29-1.52.88c-.36.59-.54,1.39-.54,2.41v4.42c0,1.02.18,1.83.55,2.42s.88.89,1.53.89,1.16-.3,1.52-.89c.36-.59.53-1.4.53-2.43v-4.42Z"/><path class="cls-8" d="m114.01,126.55c0-1.61.29-2.9.88-3.87s1.41-1.46,2.48-1.46c.48,0,.9.11,1.28.32.38.21.7.52.97.92v-5.49h1.88v14.47h-1.56l-.19-1.21c-.28.46-.62.81-1.02,1.04-.4.24-.86.36-1.38.36-1.06,0-1.88-.45-2.46-1.34-.58-.89-.88-2.08-.88-3.56v-.19Zm1.88.19c0,1.05.16,1.89.47,2.51.32.62.81.93,1.47.93.42,0,.78-.11,1.07-.33.29-.22.53-.54.72-.95v-4.86c-.19-.41-.43-.74-.72-.99-.3-.24-.65-.37-1.06-.37-.67,0-1.16.36-1.48,1.07-.32.71-.48,1.64-.48,2.79v.19Z"/><path class="cls-8" d="m131.52,131.64c-1.25,0-2.23-.46-2.94-1.37-.71-.92-1.06-2.11-1.06-3.57v-.44c0-1.47.35-2.68,1.06-3.62s1.63-1.42,2.77-1.42,2.01.41,2.61,1.22c.6.81.89,1.9.89,3.27v1.06h-5.45c0,1.03.18,1.86.55,2.5.37.64.93.96,1.69.96.53,0,.98-.08,1.37-.25.39-.16.75-.4,1.08-.72l.61,1.17c-.33.35-.77.64-1.32.87-.55.23-1.17.35-1.87.35Zm-.18-8.97c-.54,0-.98.25-1.3.76-.32.5-.52,1.17-.6,2h3.55v-.21c0-.75-.13-1.37-.4-1.84-.27-.47-.68-.71-1.25-.71Z"/><path class="cls-8" d="m144.35,131.64c-1.25,0-2.23-.46-2.94-1.37-.71-.92-1.06-2.11-1.06-3.57v-.44c0-1.47.35-2.68,1.06-3.62s1.63-1.42,2.77-1.42,2.01.41,2.61,1.22c.6.81.89,1.9.89,3.27v1.06h-5.45c0,1.03.18,1.86.55,2.5.37.64.93.96,1.69.96.53,0,.98-.08,1.37-.25.39-.16.75-.4,1.08-.72l.61,1.17c-.33.35-.77.64-1.32.87-.55.23-1.17.35-1.87.35Zm-.18-8.97c-.54,0-.98.25-1.3.76-.32.5-.52,1.17-.6,2h3.55v-.21c0-.75-.13-1.37-.4-1.84-.27-.47-.68-.71-1.25-.71Zm.54-5.54h2.16l.03.05-2.24,2.42h-1.58l1.63-2.47Z"/><path class="cls-8" d="m161.09,126.74c0,1.48-.3,2.67-.89,3.56s-1.41,1.34-2.47,1.34c-.49,0-.93-.1-1.31-.29-.38-.19-.7-.48-.97-.86v4.81h-1.89v-13.9h1.6l.18,1.21c.27-.45.61-.8,1-1.03.4-.24.86-.36,1.38-.36,1.06,0,1.89.49,2.48,1.46s.89,2.26.89,3.87v.19Zm-1.89-.19c0-1.14-.17-2.07-.5-2.78-.33-.72-.83-1.08-1.49-1.08-.42,0-.78.12-1.07.35-.29.23-.52.55-.7.94v5.06c.17.38.4.67.7.87s.65.31,1.08.31c.66,0,1.16-.32,1.48-.95s.49-1.47.49-2.52v-.19Z"/><path class="cls-8" d="m167.21,122.98l-.82-.05c-.4,0-.73.12-.99.36-.26.24-.47.57-.61,1.01v7.15h-1.89v-10.04h1.73l.13,1.48c.22-.53.51-.94.85-1.23.35-.29.75-.44,1.2-.44.12,0,.23.01.33.03.1.02.19.05.27.08l-.21,1.64Z"/><path class="cls-8" d="m172.2,131.64c-1.25,0-2.23-.46-2.94-1.37-.71-.92-1.06-2.11-1.06-3.57v-.44c0-1.47.35-2.68,1.06-3.62s1.63-1.42,2.77-1.42,2.01.41,2.61,1.22c.6.81.89,1.9.89,3.27v1.06h-5.45c0,1.03.18,1.86.55,2.5.37.64.93.96,1.69.96.53,0,.98-.08,1.37-.25.39-.16.75-.4,1.08-.72l.61,1.17c-.33.35-.77.64-1.32.87-.55.23-1.17.35-1.87.35Zm-.18-8.97c-.54,0-.98.25-1.3.76-.32.5-.52,1.17-.6,2h3.55v-.21c0-.75-.13-1.37-.4-1.84-.27-.47-.68-.71-1.25-.71Z"/><path class="cls-8" d="m180.72,130.21c.46,0,.85-.18,1.16-.54.31-.36.47-.84.47-1.46h1.7l.02.06c.02.95-.29,1.74-.96,2.39-.66.65-1.46.97-2.39.97-1.24,0-2.19-.47-2.87-1.41-.67-.94-1.01-2.15-1.01-3.61v-.35c0-1.46.34-2.66,1.01-3.61.67-.95,1.63-1.42,2.87-1.42,1,0,1.82.34,2.44,1.02.63.68.93,1.56.91,2.64l-.02.05h-1.71c0-.67-.15-1.21-.45-1.63-.3-.42-.69-.63-1.18-.63-.71,0-1.21.34-1.53,1.02-.31.68-.47,1.54-.47,2.57v.35c0,1.05.15,1.91.46,2.59.31.67.82,1.01,1.53,1.01Z"/><path class="cls-8" d="m187.85,118.77h-1.89v-1.8h1.89v1.8Zm0,12.67h-1.89v-10.04h1.89v10.04Z"/><path class="cls-8" d="m194.91,128.91c0-.39-.13-.72-.39-.98-.26-.26-.76-.56-1.49-.89-1.03-.39-1.81-.81-2.32-1.27-.51-.46-.77-1.05-.77-1.76,0-.77.31-1.43.93-1.98.62-.54,1.43-.82,2.43-.82s1.87.3,2.5.9.93,1.32.91,2.17l-.02.06h-1.82c0-.48-.14-.89-.42-1.23-.28-.34-.66-.51-1.15-.51s-.86.13-1.13.4-.4.58-.4.94c0,.38.12.69.35.9.23.22.73.5,1.49.85,1.05.37,1.84.8,2.37,1.29.53.49.79,1.1.79,1.84,0,.83-.32,1.51-.96,2.04-.64.52-1.48.78-2.52.78-1.12,0-2.01-.31-2.66-.94-.65-.63-.95-1.36-.92-2.2l.02-.06h1.75c.02.65.21,1.12.55,1.41.34.29.77.43,1.29.43s.89-.13,1.17-.38c.28-.26.42-.58.42-.98Z"/><path class="cls-8" d="m198.13,126.32c0-1.49.35-2.71,1.06-3.66.71-.95,1.67-1.43,2.9-1.43s2.2.48,2.91,1.43c.71.95,1.06,2.17,1.06,3.66v.25c0,1.5-.35,2.72-1.06,3.66-.71.94-1.67,1.41-2.89,1.41s-2.22-.47-2.92-1.41c-.71-.94-1.06-2.16-1.06-3.66v-.25Zm1.89.25c0,1.07.17,1.95.51,2.63.34.68.87,1.02,1.57,1.02s1.2-.34,1.54-1.02c.34-.68.51-1.56.51-2.62v-.25c0-1.05-.17-1.92-.52-2.61-.35-.69-.87-1.03-1.56-1.03s-1.21.34-1.55,1.03c-.34.69-.51,1.56-.51,2.61v.25Z"/><path class="cls-8" d="m216.8,128.91c0-.39-.13-.72-.39-.98-.26-.26-.76-.56-1.49-.89-1.03-.39-1.81-.81-2.32-1.27-.51-.46-.77-1.05-.77-1.76,0-.77.31-1.43.93-1.98.62-.54,1.43-.82,2.43-.82s1.87.3,2.5.9.93,1.32.91,2.17l-.02.06h-1.82c0-.48-.14-.89-.42-1.23-.28-.34-.66-.51-1.15-.51s-.86.13-1.13.4-.4.58-.4.94c0,.38.12.69.35.9.23.22.73.5,1.49.85,1.05.37,1.84.8,2.37,1.29.53.49.79,1.1.79,1.84,0,.83-.32,1.51-.96,2.04-.64.52-1.48.78-2.52.78-1.12,0-2.01-.31-2.66-.94-.65-.63-.95-1.36-.92-2.2l.02-.06h1.75c.02.65.21,1.12.55,1.41.34.29.77.43,1.29.43s.89-.13,1.17-.38c.28-.26.42-.58.42-.98Z"/><path class="cls-8" d="m224.04,131.64c-1.25,0-2.23-.46-2.94-1.37-.71-.92-1.06-2.11-1.06-3.57v-.44c0-1.47.35-2.68,1.06-3.62s1.63-1.42,2.77-1.42,2.01.41,2.61,1.22c.6.81.89,1.9.89,3.27v1.06h-5.45c0,1.03.18,1.86.55,2.5.37.64.93.96,1.69.96.53,0,.98-.08,1.37-.25.39-.16.75-.4,1.08-.72l.61,1.17c-.33.35-.77.64-1.32.87-.55.23-1.17.35-1.87.35Zm-.18-8.97c-.54,0-.98.25-1.3.76-.32.5-.52,1.17-.6,2h3.55v-.21c0-.75-.13-1.37-.4-1.84-.27-.47-.68-.71-1.25-.71Z"/><path class="cls-8" d="m231.08,131.45h-1.89v-14.47h1.89v14.47Z"/><path class="cls-8" d="m237.01,131.64c-1.25,0-2.23-.46-2.94-1.37-.71-.92-1.06-2.11-1.06-3.57v-.44c0-1.47.35-2.68,1.06-3.62s1.63-1.42,2.77-1.42,2.01.41,2.61,1.22c.6.81.89,1.9.89,3.27v1.06h-5.45c0,1.03.18,1.86.55,2.5.37.64.93.96,1.69.96.53,0,.98-.08,1.37-.25.39-.16.75-.4,1.08-.72l.61,1.17c-.33.35-.77.64-1.32.87-.55.23-1.17.35-1.87.35Zm-.18-8.97c-.54,0-.98.25-1.3.76-.32.5-.52,1.17-.6,2h3.55v-.21c0-.75-.13-1.37-.4-1.84-.27-.47-.68-.71-1.25-.71Z"/><path class="cls-8" d="m245.52,130.21c.46,0,.85-.18,1.16-.54.31-.36.47-.84.47-1.46h1.7l.02.06c.02.95-.29,1.74-.96,2.39-.66.65-1.46.97-2.39.97-1.24,0-2.19-.47-2.87-1.41-.67-.94-1.01-2.15-1.01-3.61v-.35c0-1.46.34-2.66,1.01-3.61.67-.95,1.63-1.42,2.87-1.42,1,0,1.82.34,2.44,1.02.63.68.93,1.56.91,2.64l-.02.05h-1.71c0-.67-.15-1.21-.45-1.63-.3-.42-.69-.63-1.18-.63-.71,0-1.21.34-1.53,1.02-.31.68-.47,1.54-.47,2.57v.35c0,1.05.15,1.91.46,2.59.31.67.82,1.01,1.53,1.01Z"/><path class="cls-8" d="m252.65,118.77h-1.89v-1.8h1.89v1.8Zm0,12.67h-1.89v-10.04h1.89v10.04Z"/><path class="cls-8" d="m254.57,126.32c0-1.49.35-2.71,1.06-3.66.71-.95,1.67-1.43,2.9-1.43s2.2.48,2.91,1.43c.71.95,1.06,2.17,1.06,3.66v.25c0,1.5-.35,2.72-1.06,3.66-.71.94-1.67,1.41-2.89,1.41s-2.22-.47-2.92-1.41c-.71-.94-1.06-2.16-1.06-3.66v-.25Zm1.89.25c0,1.07.17,1.95.51,2.63.34.68.87,1.02,1.57,1.02s1.2-.34,1.54-1.02c.34-.68.51-1.56.51-2.62v-.25c0-1.05-.17-1.92-.52-2.61-.35-.69-.87-1.03-1.56-1.03s-1.21.34-1.55,1.03c-.34.69-.51,1.56-.51,2.61v.25Z"/><path class="cls-8" d="m266.01,121.41l.11,1.49c.28-.53.64-.94,1.08-1.24.43-.29.92-.44,1.47-.44.89,0,1.58.33,2.08.98.5.66.75,1.68.75,3.06v6.18h-1.88v-6.17c0-.95-.13-1.61-.39-2s-.66-.58-1.19-.58c-.43,0-.8.11-1.11.34-.31.23-.56.54-.74.93v7.49h-1.89v-10.04h1.73Z"/><path class="cls-8" d="m278.87,131.45c-.08-.3-.14-.57-.19-.81-.05-.24-.08-.47-.09-.71-.27.5-.62.9-1.05,1.23-.44.32-.93.49-1.49.49-.9,0-1.58-.27-2.06-.8-.48-.53-.72-1.26-.72-2.18s.33-1.69,1-2.24c.66-.54,1.59-.82,2.78-.82h1.54v-1.03c0-.61-.14-1.09-.41-1.43-.27-.34-.66-.51-1.17-.51-.46,0-.82.15-1.09.45-.27.3-.4.68-.4,1.14h-1.8s-.02-.05-.02-.05c-.04-.78.27-1.47.91-2.06.64-.59,1.48-.89,2.52-.89s1.8.29,2.42.88c.62.58.93,1.42.93,2.5v4.66c0,.38.02.76.07,1.12.05.36.13.72.23,1.07h-1.91Zm-2.43-1.25c.51,0,.97-.16,1.36-.48.4-.32.66-.7.78-1.15v-1.78h-1.57c-.58,0-1.04.18-1.36.55-.33.37-.49.81-.49,1.33,0,.46.11.83.33,1.11s.54.42.95.42Z"/><path class="cls-8" d="m286.93,122.98l-.82-.05c-.4,0-.73.12-.99.36-.26.24-.47.57-.61,1.01v7.15h-1.89v-10.04h1.73l.13,1.48c.22-.53.51-.94.85-1.23.35-.29.75-.44,1.2-.44.12,0,.23.01.33.03.1.02.19.05.27.08l-.21,1.64Z"/><path class="cls-8" d="m297.86,131.45c-.08-.3-.14-.57-.19-.81-.05-.24-.08-.47-.09-.71-.27.5-.62.9-1.05,1.23-.44.32-.93.49-1.49.49-.9,0-1.58-.27-2.06-.8-.48-.53-.72-1.26-.72-2.18s.33-1.69,1-2.24c.66-.54,1.59-.82,2.78-.82h1.54v-1.03c0-.61-.14-1.09-.41-1.43-.27-.34-.66-.51-1.17-.51-.46,0-.82.15-1.09.45-.27.3-.4.68-.4,1.14h-1.8s-.02-.05-.02-.05c-.04-.78.27-1.47.91-2.06.64-.59,1.48-.89,2.52-.89s1.8.29,2.42.88c.62.58.93,1.42.93,2.5v4.66c0,.38.02.76.07,1.12.05.36.13.72.23,1.07h-1.91Zm-2.43-1.25c.51,0,.97-.16,1.36-.48.4-.32.66-.7.78-1.15v-1.78h-1.57c-.58,0-1.04.18-1.36.55-.33.37-.49.81-.49,1.33,0,.46.11.83.33,1.11s.54.42.95.42Z"/><path class="cls-8" d="m309.28,130.21c.46,0,.85-.18,1.16-.54.31-.36.47-.84.47-1.46h1.7l.02.06c.02.95-.29,1.74-.96,2.39-.66.65-1.46.97-2.39.97-1.24,0-2.19-.47-2.87-1.41-.67-.94-1.01-2.15-1.01-3.61v-.35c0-1.46.34-2.66,1.01-3.61.67-.95,1.63-1.42,2.87-1.42,1,0,1.82.34,2.44,1.02.63.68.93,1.56.91,2.64l-.02.05h-1.71c0-.67-.15-1.21-.45-1.63-.3-.42-.69-.63-1.18-.63-.71,0-1.21.34-1.53,1.02-.31.68-.47,1.54-.47,2.57v.35c0,1.05.15,1.91.46,2.59.31.67.82,1.01,1.53,1.01Z"/><path class="cls-8" d="m319.79,129.98c-.27.53-.62.94-1.04,1.23-.42.29-.91.43-1.46.43-.92,0-1.64-.36-2.16-1.07-.52-.71-.78-1.81-.78-3.31v-5.85h1.89v5.87c0,1.08.12,1.83.37,2.26.25.43.62.64,1.13.64.46,0,.86-.11,1.18-.32.33-.22.58-.53.77-.93v-7.52h1.89v10.04h-1.61l-.19-1.47Z"/><path class="cls-8" d="m328.05,122.98l-.82-.05c-.4,0-.73.12-.99.36-.26.24-.47.57-.61,1.01v7.15h-1.89v-10.04h1.73l.13,1.48c.22-.53.51-.94.85-1.23.35-.29.75-.44,1.2-.44.12,0,.23.01.33.03.1.02.19.05.27.08l-.21,1.64Z"/><path class="cls-8" d="m332.7,128.43l.16.79h.06l.17-.79,1.75-7.02h1.95l-3.06,10.04h-1.68l-3.08-10.04h1.97l1.77,7.02Z"/><path class="cls-8" d="m343.2,131.45c-.08-.3-.14-.57-.19-.81-.05-.24-.08-.47-.09-.71-.27.5-.62.9-1.05,1.23-.44.32-.93.49-1.49.49-.9,0-1.58-.27-2.06-.8-.48-.53-.72-1.26-.72-2.18s.33-1.69,1-2.24c.66-.54,1.59-.82,2.78-.82h1.54v-1.03c0-.61-.14-1.09-.41-1.43-.27-.34-.66-.51-1.17-.51-.46,0-.82.15-1.09.45-.27.3-.4.68-.4,1.14h-1.8s-.02-.05-.02-.05c-.04-.78.27-1.47.91-2.06.64-.59,1.48-.89,2.52-.89s1.8.29,2.42.88c.62.58.93,1.42.93,2.5v4.66c0,.38.02.76.07,1.12.05.36.13.72.23,1.07h-1.91Zm-2.43-1.25c.51,0,.97-.16,1.36-.48.4-.32.66-.7.78-1.15v-1.78h-1.57c-.58,0-1.04.18-1.36.55-.33.37-.49.81-.49,1.33,0,.46.11.83.33,1.11s.54.42.95.42Z"/><path class="cls-8" d="m358.68,126.74c0,1.48-.29,2.67-.88,3.56-.58.89-1.41,1.34-2.48,1.34-.54,0-1.02-.12-1.42-.37-.41-.24-.74-.6-1.01-1.07l-.2,1.24h-1.55v-14.47h1.89v5.52c.27-.41.59-.72.96-.94.38-.22.82-.33,1.32-.33,1.08,0,1.91.48,2.49,1.45.58.97.88,2.26.88,3.87v.19Zm-1.89-.19c0-1.16-.15-2.1-.46-2.8s-.8-1.06-1.48-1.06c-.44,0-.81.13-1.1.38s-.53.6-.71,1.03v4.75c.17.43.4.76.7.99.3.23.68.35,1.13.35.67,0,1.16-.31,1.47-.92.31-.62.46-1.46.46-2.52v-.19Z"/><path class="cls-8" d="m365.7,131.45c-.08-.3-.14-.57-.19-.81-.05-.24-.08-.47-.09-.71-.27.5-.62.9-1.05,1.23-.44.32-.93.49-1.49.49-.9,0-1.58-.27-2.06-.8-.48-.53-.72-1.26-.72-2.18s.33-1.69,1-2.24c.66-.54,1.59-.82,2.78-.82h1.54v-1.03c0-.61-.14-1.09-.41-1.43-.27-.34-.66-.51-1.17-.51-.46,0-.82.15-1.09.45-.27.3-.4.68-.4,1.14h-1.8s-.02-.05-.02-.05c-.04-.78.27-1.47.91-2.06.64-.59,1.48-.89,2.52-.89s1.8.29,2.42.88c.62.58.93,1.42.93,2.5v4.66c0,.38.02.76.07,1.12.05.36.13.72.23,1.07h-1.91Zm-2.43-1.25c.51,0,.97-.16,1.36-.48.4-.32.66-.7.78-1.15v-1.78h-1.57c-.58,0-1.04.18-1.36.55-.33.37-.49.81-.49,1.33,0,.46.11.83.33,1.11s.54.42.95.42Z"/><path class="cls-8" d="m374.22,128.91c0-.39-.13-.72-.39-.98-.26-.26-.76-.56-1.49-.89-1.03-.39-1.81-.81-2.32-1.27-.51-.46-.77-1.05-.77-1.76,0-.77.31-1.43.93-1.98.62-.54,1.43-.82,2.43-.82s1.87.3,2.5.9.93,1.32.91,2.17l-.02.06h-1.82c0-.48-.14-.89-.42-1.23-.28-.34-.66-.51-1.15-.51s-.86.13-1.13.4-.4.58-.4.94c0,.38.12.69.35.9.23.22.73.5,1.49.85,1.05.37,1.84.8,2.37,1.29.53.49.79,1.1.79,1.84,0,.83-.32,1.51-.96,2.04-.64.52-1.48.78-2.52.78-1.12,0-2.01-.31-2.66-.94-.65-.63-.95-1.36-.92-2.2l.02-.06h1.75c.02.65.21,1.12.55,1.41.34.29.77.43,1.29.43s.89-.13,1.17-.38c.28-.26.42-.58.42-.98Z"/><path class="cls-8" d="m381.45,131.64c-1.25,0-2.23-.46-2.94-1.37-.71-.92-1.06-2.11-1.06-3.57v-.44c0-1.47.35-2.68,1.06-3.62s1.63-1.42,2.77-1.42,2.01.41,2.61,1.22c.6.81.89,1.9.89,3.27v1.06h-5.45c0,1.03.18,1.86.55,2.5.37.64.93.96,1.69.96.53,0,.98-.08,1.37-.25.39-.16.75-.4,1.08-.72l.61,1.17c-.33.35-.77.64-1.32.87-.55.23-1.17.35-1.87.35Zm-.18-8.97c-.54,0-.98.25-1.3.76-.32.5-.52,1.17-.6,2h3.55v-.21c0-.75-.13-1.37-.4-1.84-.27-.47-.68-.71-1.25-.71Z"/><path class="cls-8" d="m57.96,154.44c-1.25,0-2.23-.46-2.94-1.37-.71-.92-1.06-2.11-1.06-3.57v-.44c0-1.47.35-2.68,1.06-3.62.71-.94,1.63-1.42,2.77-1.42s2.01.41,2.61,1.22c.6.81.89,1.9.89,3.27v1.06h-5.45c0,1.03.18,1.86.55,2.5.37.64.93.96,1.69.96.53,0,.98-.08,1.37-.25.39-.16.75-.4,1.08-.72l.61,1.17c-.33.35-.77.64-1.32.87-.55.23-1.17.35-1.87.35Zm-.18-8.97c-.54,0-.98.25-1.3.76-.32.5-.52,1.17-.6,2h3.55v-.21c0-.75-.13-1.37-.4-1.84-.27-.47-.68-.71-1.25-.71Z"/><path class="cls-8" d="m64.72,144.21l.1,1.36c.28-.49.63-.88,1.06-1.15.43-.27.93-.4,1.5-.4s1.04.15,1.45.46c.41.31.71.77.92,1.4.27-.58.62-1.04,1.06-1.36.44-.33.96-.49,1.56-.49.87,0,1.56.35,2.05,1.06.5.71.75,1.79.75,3.23v5.93h-1.89v-5.94c0-1.04-.13-1.78-.39-2.19-.26-.42-.65-.63-1.16-.63-.43,0-.8.16-1.09.48-.29.32-.51.75-.64,1.27,0,.11.01.23.02.35,0,.12,0,.24,0,.37v6.29h-1.88v-5.94c0-1.01-.13-1.73-.4-2.17-.27-.44-.65-.65-1.16-.65-.41,0-.75.11-1.04.33s-.51.53-.67.92v7.51h-1.89v-10.04h1.73Z"/><path class="cls-8" d="m83.24,144.21l.1,1.36c.28-.49.63-.88,1.06-1.15.43-.27.93-.4,1.5-.4s1.04.15,1.45.46c.41.31.71.77.92,1.4.27-.58.62-1.04,1.06-1.36.44-.33.96-.49,1.56-.49.87,0,1.56.35,2.05,1.06.5.71.75,1.79.75,3.23v5.93h-1.89v-5.94c0-1.04-.13-1.78-.39-2.19-.26-.42-.65-.63-1.16-.63-.43,0-.8.16-1.09.48-.29.32-.51.75-.64,1.27,0,.11.01.23.02.35,0,.12,0,.24,0,.37v6.29h-1.88v-5.94c0-1.01-.13-1.73-.4-2.17-.27-.44-.65-.65-1.16-.65-.41,0-.75.11-1.04.33s-.51.53-.67.92v7.51h-1.89v-10.04h1.73Z"/><path class="cls-8" d="m97.88,141.57h-1.89v-1.8h1.89v1.8Zm0,12.67h-1.89v-10.04h1.89v10.04Z"/><path class="cls-8" d="m102.2,154.25h-1.89v-14.47h1.89v14.47Z"/><path class="cls-8" d="m106.51,154.25h-1.88v-10.04h1.88v10.04Zm-.23-14.11h2.16l.03.05-2.25,2.42h-1.58l1.63-2.47Z"/><path class="cls-8" d="m110.58,144.21l.1,1.36c.28-.49.63-.88,1.06-1.15.43-.27.93-.4,1.5-.4s1.04.15,1.45.46c.41.31.71.77.92,1.4.27-.58.62-1.04,1.06-1.36.44-.33.96-.49,1.56-.49.87,0,1.56.35,2.05,1.06.5.71.75,1.79.75,3.23v5.93h-1.89v-5.94c0-1.04-.13-1.78-.39-2.19-.26-.42-.65-.63-1.16-.63-.43,0-.8.16-1.09.48-.29.32-.51.75-.64,1.27,0,.11.01.23.02.35,0,.12,0,.24,0,.37v6.29h-1.88v-5.94c0-1.01-.13-1.73-.4-2.17-.27-.44-.65-.65-1.16-.65-.41,0-.75.11-1.04.33s-.51.53-.67.92v7.51h-1.89v-10.04h1.73Z"/><path class="cls-8" d="m126.84,154.44c-1.25,0-2.23-.46-2.94-1.37-.71-.92-1.06-2.11-1.06-3.57v-.44c0-1.47.35-2.68,1.06-3.62.71-.94,1.63-1.42,2.77-1.42s2.01.41,2.61,1.22c.6.81.89,1.9.89,3.27v1.06h-5.45c0,1.03.18,1.86.55,2.5.37.64.93.96,1.69.96.53,0,.98-.08,1.37-.25.39-.16.75-.4,1.08-.72l.61,1.17c-.33.35-.77.64-1.32.87-.55.23-1.17.35-1.87.35Zm-.18-8.97c-.54,0-.98.25-1.3.76-.32.5-.52,1.17-.6,2h3.55v-.21c0-.75-.13-1.37-.4-1.84-.27-.47-.68-.71-1.25-.71Z"/><path class="cls-8" d="m134.29,141.71v2.5h1.57v1.35h-1.57v5.97c0,.52.08.89.24,1.11.16.22.37.33.63.33.11,0,.21,0,.3-.03.09-.02.2-.05.33-.08l.19,1.3c-.18.09-.38.16-.6.21-.22.05-.45.08-.68.08-.72,0-1.29-.23-1.69-.7-.4-.47-.6-1.2-.6-2.21v-5.97h-1.33v-1.35h1.33v-2.5h1.89Z"/><path class="cls-8" d="m141.87,145.78l-.82-.05c-.4,0-.73.12-.99.36-.26.24-.47.57-.61,1.01v7.15h-1.89v-10.04h1.73l.13,1.48c.22-.53.51-.94.85-1.23.35-.29.75-.44,1.2-.44.12,0,.23.01.33.03.1.02.19.05.27.08l-.21,1.64Z"/><path class="cls-8" d="m142.84,149.12c0-1.49.35-2.71,1.06-3.66.71-.95,1.67-1.43,2.9-1.43s2.2.48,2.91,1.43c.71.95,1.06,2.17,1.06,3.66v.25c0,1.5-.35,2.72-1.06,3.66-.71.94-1.67,1.41-2.89,1.41s-2.22-.47-2.92-1.41c-.71-.94-1.06-2.16-1.06-3.66v-.25Zm1.89.25c0,1.07.17,1.95.51,2.63.34.68.87,1.02,1.57,1.02s1.2-.34,1.54-1.02c.34-.68.51-1.56.51-2.62v-.25c0-1.05-.17-1.92-.52-2.61-.35-.69-.87-1.03-1.56-1.03s-1.21.34-1.55,1.03c-.34.69-.51,1.56-.51,2.61v.25Z"/><path class="cls-8" d="m157.33,151.71c0-.39-.13-.72-.39-.98-.26-.26-.76-.56-1.49-.89-1.03-.39-1.81-.81-2.32-1.27-.51-.46-.77-1.04-.77-1.76,0-.77.31-1.43.93-1.98.62-.54,1.43-.82,2.43-.82s1.87.3,2.5.9c.63.6.93,1.32.91,2.17l-.02.06h-1.82c0-.48-.14-.89-.42-1.23-.28-.34-.66-.51-1.15-.51s-.86.13-1.13.4-.4.58-.4.94c0,.38.12.69.35.9.23.22.73.5,1.49.85,1.05.37,1.84.8,2.37,1.29.53.49.79,1.1.79,1.84,0,.83-.32,1.51-.96,2.04-.64.52-1.48.78-2.52.78-1.12,0-2.01-.31-2.66-.94-.65-.63-.95-1.36-.92-2.2l.02-.06h1.75c.02.65.21,1.12.55,1.41.34.29.77.43,1.29.43s.89-.13,1.17-.38c.28-.26.42-.58.42-.98Z"/><path class="cls-8" d="m165.12,148.77c0-2.34.41-4.39,1.23-6.13.82-1.74,1.71-2.89,2.68-3.46h.06l.34,1c-.71.63-1.31,1.69-1.83,3.19-.51,1.5-.77,3.29-.77,5.37v.19c0,2.08.26,3.87.77,5.36s1.12,2.57,1.83,3.24l-.34.95h-.06c-.97-.56-1.86-1.7-2.68-3.42s-1.22-3.77-1.22-6.14v-.15Z"/><path class="cls-8" d="m175.05,145.78l-.82-.05c-.4,0-.73.12-.99.36-.26.24-.47.57-.61,1.01v7.15h-1.89v-10.04h1.73l.13,1.48c.22-.53.51-.94.85-1.23.35-.29.75-.44,1.2-.44.12,0,.23.01.33.03.1.02.19.05.27.08l-.21,1.64Z"/><path class="cls-8" d="m181.81,154.25c-.08-.3-.14-.57-.19-.81-.05-.24-.08-.47-.09-.71-.27.5-.62.9-1.05,1.23-.44.32-.93.49-1.49.49-.9,0-1.58-.27-2.06-.8-.48-.53-.72-1.26-.72-2.18s.33-1.69,1-2.24c.66-.54,1.59-.82,2.78-.82h1.54v-1.03c0-.61-.14-1.09-.41-1.43-.27-.34-.66-.51-1.17-.51-.46,0-.82.15-1.09.45-.27.3-.4.68-.4,1.14h-1.8s-.02-.05-.02-.05c-.04-.78.27-1.47.91-2.06.64-.59,1.48-.89,2.52-.89s1.8.29,2.42.88c.62.58.93,1.42.93,2.5v4.66c0,.38.02.76.07,1.12.05.36.13.72.23,1.07h-1.91Zm-2.43-1.25c.51,0,.97-.16,1.36-.48.4-.32.66-.7.78-1.15v-1.78h-1.57c-.58,0-1.04.18-1.36.55-.33.37-.49.81-.49,1.33,0,.46.11.83.33,1.11s.54.42.95.42Z"/><path class="cls-8" d="m187.58,141.57h-1.89v-1.8h1.89v1.8Zm0,12.67h-1.89v-10.04h1.89v10.04Z"/><path class="cls-8" d="m189.5,149.12c0-1.49.35-2.71,1.06-3.66.71-.95,1.67-1.43,2.9-1.43s2.2.48,2.91,1.43c.71.95,1.06,2.17,1.06,3.66v.25c0,1.5-.35,2.72-1.06,3.66-.71.94-1.67,1.41-2.89,1.41s-2.22-.47-2.92-1.41c-.71-.94-1.06-2.16-1.06-3.66v-.25Zm1.89.25c0,1.07.17,1.95.51,2.63.34.68.87,1.02,1.57,1.02s1.2-.34,1.54-1.02c.34-.68.51-1.56.51-2.62v-.25c0-1.05-.17-1.92-.52-2.61-.35-.69-.87-1.03-1.56-1.03s-1.21.34-1.55,1.03c-.34.69-.51,1.56-.51,2.61v.25Z"/><path class="cls-8" d="m202.74,148.92c0,2.35-.42,4.39-1.25,6.12-.83,1.73-1.74,2.88-2.71,3.44h-.06l-.36-.95c.7-.63,1.31-1.7,1.83-3.21.52-1.51.78-3.3.78-5.39v-.19c0-2.07-.27-3.86-.8-5.38-.54-1.52-1.14-2.6-1.81-3.24l.36-.95h.06c.97.56,1.87,1.71,2.71,3.47.83,1.75,1.25,3.79,1.25,6.12v.15Z"/><path class="cls-8" d="m207,146.12h-1.9v-1.88h1.9v1.88Zm0,8.13h-1.9v-1.88h1.9v1.88Z"/><path class="cls-8" d="m56.41,194.03v5.82h-1.88v-13.5h3.98c1.3,0,2.3.33,3.01.99.71.66,1.06,1.61,1.06,2.85,0,.71-.17,1.32-.5,1.85-.33.53-.81.94-1.42,1.23.69.24,1.19.62,1.5,1.17.31.54.46,1.22.46,2.02v1.18c0,.41.04.8.12,1.16.08.36.22.64.43.83v.21h-1.94c-.21-.2-.35-.51-.41-.93-.06-.42-.1-.85-.1-1.29v-1.14c0-.75-.18-1.35-.52-1.79-.35-.44-.83-.66-1.45-.66h-2.33Zm0-1.44h2c.78,0,1.35-.21,1.72-.62.37-.41.56-.99.56-1.75s-.18-1.37-.54-1.8c-.36-.43-.91-.64-1.65-.64h-2.1v4.81Z"/><path class="cls-8" d="m70.11,199.85c-.08-.3-.14-.57-.19-.81-.05-.24-.08-.47-.09-.71-.27.5-.62.9-1.05,1.23-.44.32-.93.49-1.49.49-.9,0-1.58-.27-2.06-.8-.48-.53-.72-1.26-.72-2.18s.33-1.69,1-2.24c.66-.54,1.59-.82,2.78-.82h1.54v-1.03c0-.61-.14-1.09-.41-1.43-.27-.34-.66-.51-1.17-.51-.46,0-.82.15-1.09.45-.27.3-.4.68-.4,1.14h-1.8s-.02-.05-.02-.05c-.04-.78.27-1.47.91-2.06.64-.59,1.48-.89,2.52-.89s1.8.29,2.42.88c.62.58.93,1.42.93,2.5v4.66c0,.38.02.76.07,1.12.05.36.13.72.23,1.07h-1.91Zm-2.43-1.25c.51,0,.97-.16,1.36-.48.4-.32.66-.7.78-1.15v-1.78h-1.57c-.58,0-1.04.18-1.36.55-.33.37-.49.81-.49,1.33,0,.46.11.83.33,1.11s.54.42.95.42Z"/><path class="cls-8" d="m75.88,187.17h-1.89v-1.8h1.89v1.8Zm0,12.67h-1.89v-10.04h1.89v10.04Z"/><path class="cls-8" d="m77.8,194.72c0-1.49.35-2.71,1.06-3.66.71-.95,1.67-1.43,2.9-1.43s2.2.48,2.91,1.43c.71.95,1.06,2.17,1.06,3.66v.25c0,1.5-.35,2.72-1.06,3.66-.71.94-1.67,1.41-2.89,1.41s-2.22-.47-2.92-1.41c-.71-.94-1.06-2.16-1.06-3.66v-.25Zm1.89.25c0,1.07.17,1.95.51,2.63.34.68.87,1.02,1.57,1.02s1.2-.34,1.54-1.02c.34-.68.51-1.56.51-2.62v-.25c0-1.05-.17-1.92-.52-2.61-.35-.69-.87-1.03-1.56-1.03s-1.21.34-1.55,1.03c-.34.69-.51,1.56-.51,2.61v.25Z"/><path class="cls-8" d="m91.7,194.37c0-2.34.41-4.39,1.23-6.13.82-1.74,1.71-2.89,2.68-3.46h.06l.34,1c-.71.63-1.31,1.69-1.83,3.19-.51,1.5-.77,3.29-.77,5.37v.19c0,2.08.26,3.87.77,5.36s1.12,2.57,1.83,3.24l-.34.95h-.06c-.97-.56-1.86-1.7-2.68-3.42s-1.22-3.77-1.22-6.14v-.15Z"/><path class="cls-8" d="m100.82,198.61c.46,0,.85-.18,1.16-.54.31-.36.47-.84.47-1.46h1.7l.02.06c.02.95-.29,1.74-.96,2.39-.66.65-1.46.97-2.39.97-1.24,0-2.19-.47-2.87-1.41-.67-.94-1.01-2.15-1.01-3.61v-.35c0-1.46.34-2.66,1.01-3.61.67-.95,1.63-1.42,2.87-1.42,1,0,1.82.34,2.44,1.02.63.68.93,1.56.91,2.64l-.02.05h-1.71c0-.67-.15-1.21-.45-1.63-.3-.42-.69-.63-1.18-.63-.71,0-1.21.34-1.53,1.02-.31.68-.47,1.54-.47,2.57v.35c0,1.05.15,1.91.46,2.59.31.67.82,1.01,1.53,1.01Z"/><path class="cls-8" d="m111.33,198.38c-.27.53-.62.94-1.04,1.23-.42.29-.91.43-1.46.43-.92,0-1.64-.36-2.16-1.07-.52-.71-.78-1.81-.78-3.31v-5.85h1.89v5.87c0,1.08.12,1.83.37,2.26.25.43.62.64,1.13.64.46,0,.86-.11,1.18-.32.33-.22.58-.53.77-.93v-7.52h1.89v10.04h-1.61l-.19-1.47Z"/><path class="cls-8" d="m119.59,191.38l-.82-.05c-.4,0-.73.12-.99.36-.26.24-.47.57-.61,1.01v7.15h-1.89v-10.04h1.73l.13,1.48c.22-.53.51-.94.85-1.23.35-.29.75-.44,1.2-.44.12,0,.23.01.33.03.1.02.19.05.27.08l-.21,1.64Z"/><path class="cls-8" d="m124.25,196.83l.16.79h.06l.17-.79,1.75-7.02h1.95l-3.06,10.04h-1.68l-3.08-10.04h1.97l1.77,7.02Z"/><path class="cls-8" d="m134.75,199.85c-.08-.3-.14-.57-.19-.81-.05-.24-.08-.47-.09-.71-.27.5-.62.9-1.05,1.23-.44.32-.93.49-1.49.49-.9,0-1.58-.27-2.06-.8-.48-.53-.72-1.26-.72-2.18s.33-1.69,1-2.24c.66-.54,1.59-.82,2.78-.82h1.54v-1.03c0-.61-.14-1.09-.41-1.43-.27-.34-.66-.51-1.17-.51-.46,0-.82.15-1.09.45-.27.3-.4.68-.4,1.14h-1.8s-.02-.05-.02-.05c-.04-.78.27-1.47.91-2.06.64-.59,1.48-.89,2.52-.89s1.8.29,2.42.88c.62.58.93,1.42.93,2.5v4.66c0,.38.02.76.07,1.12.05.36.13.72.23,1.07h-1.91Zm-2.43-1.25c.51,0,.97-.16,1.36-.48.4-.32.66-.7.78-1.15v-1.78h-1.57c-.58,0-1.04.18-1.36.55-.33.37-.49.81-.49,1.33,0,.46.11.83.33,1.11s.54.42.95.42Z"/><path class="cls-8" d="m150.23,195.14c0,1.48-.29,2.67-.88,3.56-.58.89-1.41,1.34-2.48,1.34-.54,0-1.02-.12-1.42-.37-.41-.24-.74-.6-1.01-1.07l-.2,1.24h-1.55v-14.47h1.89v5.52c.27-.41.59-.72.96-.94.38-.22.82-.33,1.32-.33,1.08,0,1.91.48,2.49,1.45.58.97.88,2.26.88,3.87v.19Zm-1.89-.19c0-1.16-.15-2.1-.46-2.8s-.8-1.06-1.48-1.06c-.44,0-.81.13-1.1.38-.3.25-.53.6-.71,1.03v4.75c.17.43.4.76.7.99.3.23.68.35,1.13.35.67,0,1.16-.31,1.47-.92.31-.62.46-1.46.46-2.52v-.19Z"/><path class="cls-8" d="m157.25,199.85c-.08-.3-.14-.57-.19-.81-.05-.24-.08-.47-.09-.71-.27.5-.62.9-1.05,1.23-.44.32-.93.49-1.49.49-.9,0-1.58-.27-2.06-.8-.48-.53-.72-1.26-.72-2.18s.33-1.69,1-2.24c.66-.54,1.59-.82,2.78-.82h1.54v-1.03c0-.61-.14-1.09-.41-1.43-.27-.34-.66-.51-1.17-.51-.46,0-.82.15-1.09.45-.27.3-.4.68-.4,1.14h-1.8s-.02-.05-.02-.05c-.04-.78.27-1.47.91-2.06.64-.59,1.48-.89,2.52-.89s1.8.29,2.42.88c.62.58.93,1.42.93,2.5v4.66c0,.38.02.76.07,1.12.05.36.13.72.23,1.07h-1.91Zm-2.43-1.25c.51,0,.97-.16,1.36-.48.4-.32.66-.7.78-1.15v-1.78h-1.57c-.58,0-1.04.18-1.36.55-.33.37-.49.81-.49,1.33,0,.46.11.83.33,1.11s.54.42.95.42Z"/><path class="cls-8" d="m165.76,197.31c0-.39-.13-.72-.39-.98-.26-.26-.76-.56-1.49-.89-1.03-.39-1.81-.81-2.32-1.27-.51-.46-.77-1.04-.77-1.76,0-.77.31-1.43.93-1.98.62-.54,1.43-.82,2.43-.82s1.87.3,2.5.9c.63.6.93,1.32.91,2.17l-.02.06h-1.82c0-.48-.14-.89-.42-1.23-.28-.34-.66-.51-1.15-.51s-.86.13-1.13.4-.4.58-.4.94c0,.38.12.69.35.9.23.22.73.5,1.49.85,1.05.37,1.84.8,2.37,1.29.53.49.79,1.1.79,1.84,0,.83-.32,1.51-.96,2.04-.64.52-1.48.78-2.52.78-1.12,0-2.01-.31-2.66-.94-.65-.63-.95-1.36-.92-2.2l.02-.06h1.75c.02.65.21,1.12.55,1.41.34.29.77.43,1.29.43s.89-.13,1.17-.38c.28-.26.42-.58.42-.98Z"/><path class="cls-8" d="m173,200.04c-1.25,0-2.23-.46-2.94-1.37-.71-.92-1.06-2.11-1.06-3.57v-.44c0-1.47.35-2.68,1.06-3.62.71-.94,1.63-1.42,2.77-1.42s2.01.41,2.61,1.22c.6.81.89,1.9.89,3.27v1.06h-5.45c0,1.03.18,1.86.55,2.5.37.64.93.96,1.69.96.53,0,.98-.08,1.37-.25.39-.16.75-.4,1.08-.72l.61,1.17c-.33.35-.77.64-1.32.87-.55.23-1.17.35-1.87.35Zm-.18-8.97c-.54,0-.98.25-1.3.76-.32.5-.52,1.17-.6,2h3.55v-.21c0-.75-.13-1.37-.4-1.84-.27-.47-.68-.71-1.25-.71Z"/><path class="cls-8" d="m185.83,200.04c-1.25,0-2.23-.46-2.94-1.37-.71-.92-1.06-2.11-1.06-3.57v-.44c0-1.47.35-2.68,1.06-3.62.71-.94,1.63-1.42,2.77-1.42s2.01.41,2.61,1.22c.6.81.89,1.9.89,3.27v1.06h-5.45c0,1.03.18,1.86.55,2.5.37.64.93.96,1.69.96.53,0,.98-.08,1.37-.25.39-.16.75-.4,1.08-.72l.61,1.17c-.33.35-.77.64-1.32.87-.55.23-1.17.35-1.87.35Zm-.18-8.97c-.54,0-.98.25-1.3.76-.32.5-.52,1.17-.6,2h3.55v-.21c0-.75-.13-1.37-.4-1.84-.27-.47-.68-.71-1.25-.71Z"/><path class="cls-8" d="m192.58,189.81l.1,1.36c.28-.49.63-.88,1.06-1.15.43-.27.93-.4,1.5-.4s1.04.15,1.45.46c.41.31.71.77.92,1.4.27-.58.62-1.04,1.06-1.36.44-.33.96-.49,1.56-.49.87,0,1.56.35,2.05,1.06.5.71.75,1.79.75,3.23v5.93h-1.89v-5.94c0-1.04-.13-1.78-.39-2.19-.26-.42-.65-.63-1.16-.63-.43,0-.8.16-1.09.48-.29.32-.51.75-.64,1.27,0,.11.01.23.02.35,0,.12,0,.24,0,.37v6.29h-1.88v-5.94c0-1.01-.13-1.73-.4-2.17-.27-.44-.65-.65-1.16-.65-.41,0-.75.11-1.04.33s-.51.53-.67.92v7.51h-1.89v-10.04h1.73Z"/><path class="cls-8" d="m211.11,189.81l.1,1.36c.28-.49.63-.88,1.06-1.15.43-.27.93-.4,1.5-.4s1.04.15,1.45.46c.41.31.71.77.92,1.4.27-.58.62-1.04,1.06-1.36.44-.33.96-.49,1.56-.49.87,0,1.56.35,2.05,1.06.5.71.75,1.79.75,3.23v5.93h-1.89v-5.94c0-1.04-.13-1.78-.39-2.19-.26-.42-.65-.63-1.16-.63-.43,0-.8.16-1.09.48-.29.32-.51.75-.64,1.27,0,.11.01.23.02.35,0,.12,0,.24,0,.37v6.29h-1.88v-5.94c0-1.01-.13-1.73-.4-2.17-.27-.44-.65-.65-1.16-.65-.41,0-.75.11-1.04.33s-.51.53-.67.92v7.51h-1.89v-10.04h1.73Z"/><path class="cls-8" d="m225.46,189.81l.1,1.36c.28-.49.63-.88,1.06-1.15.43-.27.93-.4,1.5-.4s1.04.15,1.45.46c.41.31.71.77.92,1.4.27-.58.62-1.04,1.06-1.36.44-.33.96-.49,1.56-.49.87,0,1.56.35,2.05,1.06.5.71.75,1.79.75,3.23v5.93h-1.89v-5.94c0-1.04-.13-1.78-.39-2.19-.26-.42-.65-.63-1.16-.63-.43,0-.8.16-1.09.48-.29.32-.51.75-.64,1.27,0,.11.01.23.02.35,0,.12,0,.24,0,.37v6.29h-1.88v-5.94c0-1.01-.13-1.73-.4-2.17-.27-.44-.65-.65-1.16-.65-.41,0-.75.11-1.04.33s-.51.53-.67.92v7.51h-1.89v-10.04h1.73Z"/><path class="cls-8" d="m241.6,194.52c0,2.35-.42,4.39-1.25,6.12-.83,1.73-1.74,2.88-2.71,3.44h-.06l-.36-.95c.7-.63,1.31-1.7,1.83-3.21.52-1.51.78-3.3.78-5.39v-.19c0-2.07-.27-3.86-.8-5.38-.54-1.52-1.14-2.6-1.81-3.24l.36-.95h.06c.97.56,1.87,1.71,2.71,3.47.83,1.75,1.25,3.79,1.25,6.12v.15Z"/><path class="cls-8" d="m254.97,192.35h-6.91v-1.48h6.91v1.48Zm0,3.88h-6.91v-1.48h6.91v1.48Z"/><path class="cls-8" d="m54.34,217.17c0-2.34.41-4.39,1.23-6.13.82-1.74,1.71-2.89,2.68-3.46h.06l.34,1c-.71.63-1.31,1.69-1.83,3.19-.51,1.5-.77,3.29-.77,5.37v.19c0,2.08.26,3.87.77,5.36s1.12,2.57,1.83,3.24l-.34.95h-.06c-.97-.56-1.86-1.7-2.68-3.42s-1.22-3.77-1.22-6.14v-.15Z"/><path class="cls-8" d="m65.13,222.65h-1.89v-11.91l-2.63.17v-1.4l4.53-.56v13.7Z"/><path class="cls-8" d="m71.63,222.42l-1.21,2.74h-1.21l.56-2.8v-1.72h1.86v1.78Z"/><path class="cls-8" d="m77.36,215c.68,0,1.18-.21,1.5-.63.32-.42.48-.98.48-1.68s-.16-1.23-.49-1.66c-.32-.43-.8-.64-1.42-.64-.58,0-1.05.21-1.43.64s-.57.97-.57,1.63h-1.84l-.02-.06c-.03-1.04.32-1.91,1.06-2.61.74-.7,1.67-1.05,2.79-1.05,1.17,0,2.11.32,2.8.97s1.03,1.58,1.03,2.78c0,.64-.16,1.23-.49,1.75-.33.53-.78.93-1.35,1.22.66.27,1.16.67,1.51,1.22.35.55.53,1.22.53,2.02,0,1.22-.38,2.18-1.13,2.88-.75.7-1.72,1.04-2.9,1.04-1.07,0-2.01-.34-2.82-1.01-.81-.67-1.2-1.59-1.16-2.77l.02-.06h1.83c0,.68.2,1.25.6,1.71.4.46.91.69,1.54.69s1.17-.23,1.55-.68c.38-.45.57-1.05.57-1.79,0-.85-.19-1.48-.56-1.89-.37-.41-.92-.62-1.64-.62h-1.3v-1.42h1.3Z"/><path class="cls-8" d="m87.16,215c.68,0,1.18-.21,1.5-.63.32-.42.48-.98.48-1.68s-.16-1.23-.49-1.66c-.32-.43-.8-.64-1.42-.64-.58,0-1.05.21-1.43.64s-.57.97-.57,1.63h-1.84l-.02-.06c-.03-1.04.32-1.91,1.06-2.61.74-.7,1.67-1.05,2.79-1.05,1.17,0,2.11.32,2.8.97s1.03,1.58,1.03,2.78c0,.64-.16,1.23-.49,1.75-.33.53-.78.93-1.35,1.22.66.27,1.16.67,1.51,1.22.35.55.53,1.22.53,2.02,0,1.22-.38,2.18-1.13,2.88-.75.7-1.72,1.04-2.9,1.04-1.07,0-2.01-.34-2.82-1.01-.81-.67-1.2-1.59-1.16-2.77l.02-.06h1.83c0,.68.2,1.25.6,1.71.4.46.91.69,1.54.69s1.17-.23,1.55-.68c.38-.45.57-1.05.57-1.79,0-.85-.19-1.48-.56-1.89-.37-.41-.92-.62-1.64-.62h-1.3v-1.42h1.3Z"/><path class="cls-8" d="m101.13,210.59c-1.42,1.8-2.4,3.5-2.95,5.1-.55,1.6-.83,3.43-.83,5.48v1.48h-1.9v-1.48c0-2.04.33-3.91.99-5.6.66-1.69,1.6-3.35,2.82-4.99h-6.4v-1.45h8.27v1.45Z"/><path class="cls-8" d="m107.88,217.62h-4.7v-1.44h4.7v1.44Z"/><path class="cls-8" d="m115.46,222.65h-1.89v-11.91l-2.63.17v-1.4l4.53-.56v13.7Z"/><path class="cls-8" d="m123.6,217.32c0,2.35-.42,4.39-1.25,6.12-.83,1.73-1.74,2.88-2.71,3.44h-.06l-.36-.95c.7-.63,1.31-1.7,1.83-3.21.52-1.51.78-3.3.78-5.39v-.19c0-2.07-.27-3.86-.8-5.38-.54-1.52-1.14-2.6-1.81-3.24l.36-.95h.06c.97.56,1.87,1.71,2.71,3.47.83,1.75,1.25,3.79,1.25,6.12v.15Z"/><path class="cls-8" d="m126.52,223.81h-1.75l4.54-14.67h1.75l-4.55,14.67Z"/><path class="cls-8" d="m139.17,218.03h1.57v1.44h-1.57v3.17h-1.9v-3.17h-5.15l-.05-1.06,5.14-9.28h1.97v8.9Zm-5.24,0h3.34v-6.29l-.06-.02-.25.58-3.03,5.73Z"/><path class="cls-8" d="m148.96,218.03h1.57v1.44h-1.57v3.17h-1.9v-3.17h-5.15l-.05-1.06,5.14-9.28h1.97v8.9Zm-5.24,0h3.34v-6.29l-.06-.02-.25.58-3.03,5.73Z"/><path class="cls-8" d="m163.34,215.15h-6.91v-1.48h6.91v1.48Zm0,3.88h-6.91v-1.48h6.91v1.48Z"/><path class="cls-8" d="m62.12,240.64c0,1.55-.36,2.77-1.08,3.66-.72.89-1.68,1.34-2.88,1.34s-2.17-.45-2.89-1.34c-.72-.89-1.09-2.11-1.09-3.66v-3.89c0-1.53.36-2.75,1.08-3.66.72-.9,1.68-1.35,2.88-1.35s2.17.45,2.89,1.35c.72.9,1.09,2.12,1.09,3.66v3.89Zm-1.91-4.16c0-1.02-.18-1.82-.54-2.41-.36-.59-.87-.88-1.53-.88s-1.16.29-1.52.88c-.36.59-.54,1.39-.54,2.41v4.42c0,1.02.18,1.83.55,2.42s.88.89,1.53.89,1.16-.3,1.52-.89c.36-.59.53-1.4.53-2.43v-4.42Z"/><path class="cls-8" d="m66,245.22l-1.21,2.74h-1.21l.56-2.8v-1.72h1.86v1.78Z"/><path class="cls-8" d="m71.73,237.8c.68,0,1.18-.21,1.5-.63.32-.42.48-.98.48-1.68s-.16-1.23-.49-1.66c-.32-.43-.8-.64-1.42-.64-.58,0-1.05.21-1.43.64s-.57.97-.57,1.63h-1.84l-.02-.06c-.03-1.04.32-1.91,1.06-2.61.74-.7,1.67-1.05,2.79-1.05,1.17,0,2.11.32,2.8.97s1.03,1.58,1.03,2.78c0,.64-.16,1.23-.49,1.75-.33.53-.78.93-1.35,1.22.66.27,1.16.67,1.51,1.22.35.55.53,1.22.53,2.02,0,1.22-.38,2.18-1.13,2.88-.75.7-1.72,1.04-2.9,1.04-1.07,0-2.01-.34-2.82-1.01-.81-.67-1.2-1.59-1.16-2.77l.02-.06h1.83c0,.68.2,1.25.6,1.71.4.46.91.69,1.54.69s1.17-.23,1.55-.68c.38-.45.57-1.05.57-1.79,0-.85-.19-1.48-.56-1.89-.37-.41-.92-.62-1.64-.62h-1.3v-1.42h1.3Z"/><path class="cls-8" d="m81.53,237.8c.68,0,1.18-.21,1.5-.63.32-.42.48-.98.48-1.68s-.16-1.23-.49-1.66c-.32-.43-.8-.64-1.42-.64-.58,0-1.05.21-1.43.64s-.57.97-.57,1.63h-1.84l-.02-.06c-.03-1.04.32-1.91,1.06-2.61.74-.7,1.67-1.05,2.79-1.05,1.17,0,2.11.32,2.8.97s1.03,1.58,1.03,2.78c0,.64-.16,1.23-.49,1.75-.33.53-.78.93-1.35,1.22.66.27,1.16.67,1.51,1.22.35.55.53,1.22.53,2.02,0,1.22-.38,2.18-1.13,2.88-.75.7-1.72,1.04-2.9,1.04-1.07,0-2.01-.34-2.82-1.01-.81-.67-1.2-1.59-1.16-2.77l.02-.06h1.83c0,.68.2,1.25.6,1.71.4.46.91.69,1.54.69s1.17-.23,1.55-.68c.38-.45.57-1.05.57-1.79,0-.85-.19-1.48-.56-1.89-.37-.41-.92-.62-1.64-.62h-1.3v-1.42h1.3Z"/><path class="cls-8" d="m95.5,233.38c-1.42,1.8-2.4,3.5-2.95,5.1-.55,1.6-.83,3.43-.83,5.48v1.48h-1.9v-1.48c0-2.04.33-3.91.99-5.6.66-1.69,1.6-3.35,2.82-4.99h-6.4v-1.45h8.27v1.45Z"/><path class="cls-8" d="m98.11,246.61h-1.75l4.54-14.67h1.75l-4.55,14.67Z"/><path class="cls-8" d="m110.76,240.83h1.57v1.44h-1.57v3.17h-1.9v-3.17h-5.15l-.05-1.06,5.14-9.28h1.97v8.9Zm-5.24,0h3.34v-6.29l-.06-.02-.25.58-3.03,5.73Z"/><path class="cls-8" d="m120.56,240.83h1.57v1.44h-1.57v3.17h-1.9v-3.17h-5.15l-.05-1.06,5.14-9.28h1.97v8.9Zm-5.24,0h3.34v-6.29l-.06-.02-.25.58-3.03,5.73Z"/><path class="cls-8" d="m134.94,237.95h-6.91v-1.48h6.91v1.48Zm0,3.88h-6.91v-1.48h6.91v1.48Z"/><path class="cls-8" d="m58.09,260.6c.68,0,1.18-.21,1.5-.63.32-.42.48-.98.48-1.68s-.16-1.23-.49-1.66c-.32-.43-.8-.64-1.42-.64-.58,0-1.05.21-1.43.64s-.57.97-.57,1.63h-1.84l-.02-.06c-.03-1.04.32-1.91,1.06-2.61.74-.7,1.67-1.05,2.79-1.05,1.17,0,2.11.32,2.8.97s1.03,1.58,1.03,2.78c0,.64-.16,1.23-.49,1.75-.33.53-.78.93-1.35,1.22.66.27,1.16.67,1.51,1.22.35.55.53,1.22.53,2.02,0,1.22-.38,2.18-1.13,2.88-.75.7-1.72,1.04-2.9,1.04-1.07,0-2.01-.34-2.82-1.01-.81-.67-1.2-1.59-1.16-2.77l.02-.06h1.83c0,.68.2,1.25.6,1.71.4.46.91.69,1.54.69s1.17-.23,1.55-.68c.38-.45.57-1.05.57-1.79,0-.85-.19-1.48-.56-1.89-.37-.41-.92-.62-1.64-.62h-1.3v-1.42h1.3Z"/><path class="cls-8" d="m67.89,260.6c.68,0,1.18-.21,1.5-.63.32-.42.48-.98.48-1.68s-.16-1.23-.49-1.66c-.32-.43-.8-.64-1.42-.64-.58,0-1.05.21-1.43.64s-.57.97-.57,1.63h-1.84l-.02-.06c-.03-1.04.32-1.91,1.06-2.61.74-.7,1.67-1.05,2.79-1.05,1.17,0,2.11.32,2.8.97s1.03,1.58,1.03,2.78c0,.64-.16,1.23-.49,1.75-.33.53-.78.93-1.35,1.22.66.27,1.16.67,1.51,1.22.35.55.53,1.22.53,2.02,0,1.22-.38,2.18-1.13,2.88-.75.7-1.72,1.04-2.9,1.04-1.07,0-2.01-.34-2.82-1.01-.81-.67-1.2-1.59-1.16-2.77l.02-.06h1.83c0,.68.2,1.25.6,1.71.4.46.91.69,1.54.69s1.17-.23,1.55-.68c.38-.45.57-1.05.57-1.79,0-.85-.19-1.48-.56-1.89-.37-.41-.92-.62-1.64-.62h-1.3v-1.42h1.3Z"/><path class="cls-8" d="m81.86,256.19c-1.42,1.8-2.4,3.5-2.95,5.1-.55,1.6-.83,3.43-.83,5.48v1.48h-1.9v-1.48c0-2.04.33-3.91.99-5.6.66-1.69,1.6-3.35,2.82-4.99h-6.4v-1.45h8.27v1.45Z"/><path class="cls-8" d="m84.48,269.41h-1.75l4.54-14.67h1.75l-4.55,14.67Z"/><path class="cls-8" d="m97.12,263.63h1.57v1.44h-1.57v3.17h-1.9v-3.17h-5.15l-.05-1.06,5.14-9.28h1.97v8.9Zm-5.24,0h3.34v-6.29l-.06-.02-.25.58-3.03,5.73Z"/><path class="cls-8" d="m106.92,263.63h1.57v1.44h-1.57v3.17h-1.9v-3.17h-5.15l-.05-1.06,5.14-9.28h1.97v8.9Zm-5.24,0h3.34v-6.29l-.06-.02-.25.58-3.03,5.73Z"/><path class="cls-8" d="m121.3,260.75h-6.91v-1.48h6.91v1.48Zm0,3.88h-6.91v-1.48h6.91v1.48Z"/><path class="cls-8" d="m62.27,278.99c-1.42,1.8-2.4,3.5-2.95,5.1-.55,1.6-.83,3.43-.83,5.48v1.48h-1.9v-1.48c0-2.04.33-3.91.99-5.6.66-1.69,1.6-3.35,2.82-4.99h-6.4v-1.45h8.27v1.45Z"/><path class="cls-8" d="m66,290.82l-1.21,2.74h-1.21l.56-2.8v-1.72h1.86v1.78Z"/><path class="cls-8" d="m72.39,277.34c.47,0,.92.05,1.35.16.43.11.82.25,1.17.43l-.37,1.38c-.32-.17-.65-.29-.98-.38-.33-.09-.72-.13-1.17-.13-.75,0-1.36.35-1.83,1.05-.47.7-.71,1.62-.71,2.76v1.06c.33-.39.73-.7,1.2-.92s.99-.33,1.55-.33c1.05,0,1.87.39,2.46,1.18.59.79.89,1.84.89,3.15s-.36,2.44-1.08,3.26c-.72.83-1.66,1.24-2.83,1.24s-2.16-.47-2.93-1.41c-.77-.94-1.15-2.22-1.15-3.85v-3.25c0-1.59.42-2.89,1.27-3.89.84-1,1.9-1.5,3.17-1.5Zm-.42,6.45c-.51,0-.94.12-1.3.36-.36.24-.64.57-.82.98v.95c0,1.16.21,2.07.61,2.74s.93,1,1.58,1,1.12-.29,1.48-.87c.36-.58.54-1.32.54-2.21s-.18-1.64-.55-2.16c-.37-.53-.88-.79-1.53-.79Z"/><path class="cls-8" d="m82.19,277.34c.47,0,.92.05,1.35.16.43.11.82.25,1.17.43l-.37,1.38c-.32-.17-.65-.29-.98-.38-.33-.09-.72-.13-1.17-.13-.75,0-1.36.35-1.83,1.05-.47.7-.71,1.62-.71,2.76v1.06c.33-.39.73-.7,1.2-.92s.99-.33,1.55-.33c1.05,0,1.87.39,2.46,1.18.59.79.89,1.84.89,3.15s-.36,2.44-1.08,3.26c-.72.83-1.66,1.24-2.83,1.24s-2.16-.47-2.93-1.41c-.77-.94-1.15-2.22-1.15-3.85v-3.25c0-1.59.42-2.89,1.27-3.89.84-1,1.9-1.5,3.17-1.5Zm-.42,6.45c-.51,0-.94.12-1.3.36-.36.24-.64.57-.82.98v.95c0,1.16.21,2.07.61,2.74s.93,1,1.58,1,1.12-.29,1.48-.87c.36-.58.54-1.32.54-2.21s-.18-1.64-.55-2.16c-.37-.53-.88-.79-1.53-.79Z"/></g></svg>