<?xml version="1.0" encoding="UTF-8"?><svg id="Camada_2" xmlns="http://www.w3.org/2000/svg" viewBox="0 0 351.93 394.56"><defs><style>.cls-1{fill:#005236;}.cls-1,.cls-2,.cls-3,.cls-4,.cls-5,.cls-6{stroke-width:0px;}.cls-3{fill:#104b54;}.cls-4{fill:#fff;}.cls-5{fill:#55a19f;}.cls-6{fill:#424242;}</style></defs><g id="Camada_1-2"><rect class="cls-4" x=".5" y=".5" width="350.35" height="393.56"/><path class="cls-2" d="m350.35,1v392.56H1V1h349.35m1-1H0v394.56h351.35V0h0Z"/><rect class="cls-1" x="55.6" y="90.51" width="221.08" height="68.61"/><rect class="cls-5" x="55.6" y="157.65" width="221.08" height="68.61"/><rect class="cls-3" x="55.6" y="220.52" width="221.08" height="68.61"/><path class="cls-6" d="m9.36,66.48c0-5.17-4.19-9.36-9.36-9.36v18.72c5.17,0,9.36-4.19,9.36-9.36Z"/><path class="cls-6" d="m11.76,96.72c0-6.49-5.27-11.76-11.76-11.76v23.52c6.49,0,11.76-5.27,11.76-11.76Z"/><path class="cls-6" d="m13.44,133.2c0-7.42-6.02-13.44-13.44-13.44v26.88c7.42,0,13.44-6.02,13.44-13.44Z"/><path class="cls-6" d="m16.32,175.44c0-9.01-7.31-16.32-16.32-16.32v32.64c9.01,0,16.32-7.31,16.32-16.32Z"/><path class="cls-6" d="m18.72,221.4c0-10.34-8.38-18.72-18.72-18.72v37.44c10.34,0,18.72-8.38,18.72-18.72Z"/><path class="cls-6" d="m0,253.08v42.24c11.66,0,21.12-9.46,21.12-21.12s-9.46-21.12-21.12-21.12Z"/><path class="cls-2" d="m28.45,270.03c.68,0,1.28.18,1.8.55.52.37.93.86,1.21,1.48.29-.74.72-1.33,1.29-1.78.57-.44,1.22-.66,1.97-.66,1.26,0,2.23.42,2.91,1.26.69.84,1.03,1.9,1.03,3.2,0,1.37-.34,2.49-1.03,3.36-.69.87-1.66,1.3-2.91,1.3-.74,0-1.4-.23-1.97-.68-.57-.45-1-1.07-1.29-1.85-.29.66-.69,1.17-1.21,1.55-.52.38-1.12.57-1.8.57-1.19,0-2.11-.39-2.74-1.17s-.95-1.8-.95-3.06c0-1.19.32-2.17.95-2.93s1.54-1.14,2.73-1.14Zm.08,2.25c-.58,0-1.05.17-1.42.51s-.54.77-.54,1.3c0,.59.18,1.07.53,1.43.35.36.83.54,1.43.54s1.1-.19,1.47-.56c.38-.37.56-.85.56-1.44,0-.52-.19-.95-.56-1.29-.37-.34-.86-.51-1.47-.51Zm6.1-.42c-.66,0-1.21.21-1.63.64-.42.43-.63.96-.63,1.59,0,.69.21,1.26.63,1.72.42.45.97.68,1.63.68s1.21-.22,1.62-.67c.4-.45.61-1.03.61-1.74,0-.63-.2-1.16-.61-1.58s-.95-.63-1.62-.63Z"/><path class="cls-2" d="m26.77,216.91c1.92,1.63,3.62,2.73,5.09,3.3,1.48.57,3.15.86,5.02.86h1.59v2.25h-1.59c-1.95,0-3.71-.36-5.29-1.08s-3.19-1.77-4.82-3.14v7.02h-1.81v-9.21h1.81Z"/><path class="cls-2" d="m24.77,174.53c0-.53.05-1.03.15-1.52.1-.49.24-.93.4-1.32l1.74.44c-.15.38-.26.75-.35,1.11-.08.37-.12.79-.12,1.28,0,.82.33,1.49.99,1.99.66.5,1.54.76,2.62.76h.71c-.37-.37-.65-.8-.85-1.3-.2-.5-.3-1.06-.3-1.67,0-1.16.4-2.07,1.2-2.73.8-.67,1.84-1,3.14-1,1.37,0,2.47.4,3.31,1.2.84.8,1.26,1.85,1.26,3.16s-.48,2.43-1.44,3.29c-.96.86-2.27,1.29-3.93,1.29h-2.94c-1.66,0-3-.47-4.04-1.42-1.03-.95-1.55-2.13-1.55-3.56Zm6.74.5c0,.54.1.99.29,1.37.2.38.46.66.8.87h.81c1.08,0,1.92-.22,2.53-.66.61-.44.92-1,.92-1.68s-.26-1.18-.78-1.55c-.52-.37-1.18-.56-1.99-.56s-1.42.2-1.88.59c-.46.39-.7.94-.7,1.63Z"/><path class="cls-2" d="m32.5,135.82l-7.53-.78v-7.12h1.95v5.25l3.44.41c-.19-.27-.35-.58-.48-.95-.13-.37-.2-.77-.21-1.22-.01-1.26.38-2.23,1.18-2.93.8-.7,1.9-1.05,3.31-1.05,1.34,0,2.42.37,3.26,1.1.84.74,1.25,1.84,1.25,3.3,0,1.19-.32,2.19-.96,3.01s-1.55,1.21-2.74,1.18l-.04-.02-.07-2.12c.63,0,1.12-.19,1.48-.57.36-.38.53-.88.53-1.49,0-.71-.24-1.24-.71-1.61-.48-.36-1.13-.55-1.97-.55s-1.46.19-1.95.57c-.49.38-.74.92-.74,1.61,0,.62.1,1.08.3,1.38.2.3.49.52.87.65l-.16,1.93Z"/><path class="cls-2" d="m33.66,92.22v-1.71h1.82v1.71h3v2.25h-3v5.65l-1.38.05-9.13-5.64v-2.31h8.69Zm0,5.75v-3.51h-5.51v.06s.51.21.51.21l5,3.24Z"/><path class="cls-2" d="m30.64,67.41c0-.73-.18-1.26-.55-1.58-.37-.32-.88-.48-1.53-.48-.59,0-1.07.17-1.43.52s-.55.85-.55,1.5c0,.61.18,1.11.54,1.51.36.4.81.6,1.36.6v2.16l-.05.02c-1.03.04-1.9-.36-2.6-1.18-.7-.83-1.05-1.86-1.05-3.11,0-1.32.32-2.36.97-3.12.65-.76,1.59-1.15,2.83-1.15.62,0,1.19.17,1.7.51.52.34.92.81,1.21,1.41.27-.69.68-1.21,1.23-1.58.55-.37,1.21-.55,1.98-.55,1.24,0,2.22.42,2.92,1.25s1.06,1.91,1.06,3.23c0,1.19-.34,2.23-1.01,3.13-.67.9-1.59,1.33-2.75,1.3l-.06-.02v-2.17c.57,0,1.05-.21,1.43-.63.39-.42.58-.95.58-1.61s-.2-1.22-.61-1.62c-.4-.4-.93-.6-1.56-.6-.77,0-1.34.19-1.72.56s-.57.94-.57,1.7v1.5h-1.77v-1.5Z"/><path class="cls-2" d="m87.27,69.14c0,1.56-.4,2.79-1.2,3.68s-1.87,1.35-3.21,1.35-2.42-.45-3.23-1.35c-.81-.9-1.21-2.13-1.21-3.68v-3.83c0-1.55.4-2.78,1.21-3.68.8-.9,1.88-1.36,3.22-1.36s2.42.45,3.22,1.36c.81.9,1.21,2.13,1.21,3.68v3.83Zm-2.25-4.17c0-.9-.19-1.61-.58-2.12-.38-.51-.92-.77-1.6-.77s-1.23.25-1.61.77c-.38.51-.57,1.22-.57,2.12v4.5c0,.92.19,1.63.58,2.14.38.51.92.76,1.61.76s1.23-.25,1.6-.76c.37-.51.56-1.22.56-2.14v-4.5Z"/><rect class="cls-2" x="76.38" y="66.72" width="12.91" height="1" transform="translate(-16.71 105.58) rotate(-60.13)"/><path class="cls-4" d="m69.78,130.71h-1.9v-9.62h-2.41v-1.51l4.31-.41v11.54Z"/><path class="cls-4" d="m79.18,126.65h1.44v1.53h-1.44v2.52h-1.89v-2.52h-4.76l-.05-1.16,4.75-7.69h1.95v7.32Zm-4.84,0h2.95v-4.64h-.05s-.18.43-.18.43l-2.73,4.21Z"/><path class="cls-4" d="m82.89,130.47l-1.21,2.44h-1.2l.55-2.51v-1.55h1.87v1.62Z"/><path class="cls-4" d="m83.87,125.68l.66-6.34h6v1.64h-4.42l-.34,2.9c.22-.16.49-.3.8-.41s.65-.17,1.03-.17c1.06-.01,1.88.32,2.47.99s.88,1.6.88,2.79c0,1.12-.31,2.04-.93,2.74s-1.55,1.05-2.78,1.05c-1,0-1.84-.27-2.54-.81s-1.02-1.31-1-2.31l.02-.04,1.78-.05c0,.53.16.95.48,1.25s.74.45,1.25.45c.59,0,1.04-.2,1.35-.6s.46-.96.46-1.66-.16-1.23-.48-1.64-.77-.62-1.36-.62c-.52,0-.91.08-1.16.25s-.44.41-.55.73l-1.62-.13Z"/><path class="cls-4" d="m91.49,121.52c0-.67.21-1.23.64-1.68s1.02-.68,1.76-.68,1.34.22,1.77.67.64,1.01.64,1.68v.6c0,.67-.21,1.22-.64,1.67s-1.01.67-1.75.67-1.34-.22-1.77-.67-.65-1-.65-1.67v-.6Zm1.32.6c0,.33.09.62.29.85s.46.35.82.35.61-.11.79-.34.28-.51.28-.85v-.6c0-.34-.09-.62-.29-.86s-.46-.35-.8-.35-.62.12-.8.35-.28.52-.28.86v.6Zm1.49,7.73l-.98-.56,5.55-8.89.98.56-5.55,8.89Zm2.66-1.94c0-.66.22-1.22.65-1.67s1.02-.68,1.76-.68,1.34.22,1.77.67.64,1,.64,1.67v.61c0,.67-.21,1.23-.64,1.68s-1.01.67-1.75.67-1.34-.22-1.77-.67-.65-1-.65-1.67v-.61Zm1.32.61c0,.33.1.62.29.85s.46.35.81.35c.36,0,.64-.11.81-.34s.27-.51.27-.86v-.61c0-.33-.09-.62-.29-.85s-.46-.35-.81-.35-.62.12-.8.35-.28.52-.28.85v.61Z"/><path class="cls-4" d="m69.78,195.87h-1.9v-9.62h-2.41v-1.51l4.31-.41v11.54Z"/><path class="cls-4" d="m76.51,189.28c.61,0,1.06-.15,1.33-.46s.41-.74.41-1.29c0-.5-.15-.9-.44-1.21s-.71-.46-1.27-.46c-.51,0-.93.15-1.27.46s-.51.69-.51,1.14h-1.82l-.02-.05c-.03-.87.3-1.6,1-2.19s1.57-.89,2.62-.89c1.11,0,1.99.27,2.63.82s.96,1.34.96,2.38c0,.52-.14,1-.43,1.43s-.68.77-1.18,1.02c.58.23,1.02.57,1.33,1.04s.46,1.02.46,1.67c0,1.05-.35,1.87-1.05,2.46s-1.61.89-2.72.89c-1,0-1.88-.28-2.63-.85s-1.12-1.34-1.09-2.32l.02-.05h1.83c0,.48.18.88.53,1.21s.8.49,1.36.49,1.03-.17,1.37-.51.51-.78.51-1.32c0-.65-.16-1.13-.47-1.45s-.79-.48-1.43-.48h-1.27v-1.49h1.27Z"/><path class="cls-4" d="m82.89,195.63l-1.21,2.44h-1.2l.55-2.51v-1.55h1.87v1.62Z"/><path class="cls-4" d="m83.87,190.84l.66-6.34h6v1.64h-4.42l-.34,2.9c.22-.16.49-.3.8-.41s.65-.17,1.03-.17c1.06-.01,1.88.32,2.47.99s.88,1.6.88,2.79c0,1.12-.31,2.04-.93,2.74s-1.55,1.05-2.78,1.05c-1,0-1.84-.27-2.54-.81s-1.02-1.31-1-2.31l.02-.04,1.78-.05c0,.53.16.95.48,1.25s.74.45,1.25.45c.59,0,1.04-.2,1.35-.6s.46-.96.46-1.66-.16-1.23-.48-1.64-.77-.62-1.36-.62c-.52,0-.91.08-1.16.25s-.44.41-.55.73l-1.62-.13Z"/><path class="cls-4" d="m91.49,186.68c0-.67.21-1.23.64-1.68s1.02-.68,1.76-.68,1.34.22,1.77.67.64,1.01.64,1.68v.6c0,.67-.21,1.22-.64,1.67s-1.01.67-1.75.67-1.34-.22-1.77-.67-.65-1-.65-1.67v-.6Zm1.32.6c0,.33.09.62.29.85s.46.35.82.35.61-.11.79-.34.28-.51.28-.85v-.6c0-.34-.09-.62-.29-.86s-.46-.35-.8-.35-.62.12-.8.35-.28.52-.28.86v.6Zm1.49,7.73l-.98-.56,5.55-8.89.98.56-5.55,8.89Zm2.66-1.94c0-.66.22-1.22.65-1.67s1.02-.68,1.76-.68,1.34.22,1.77.67.64,1,.64,1.67v.61c0,.67-.21,1.23-.64,1.68s-1.01.67-1.75.67-1.34-.22-1.77-.67-.65-1-.65-1.67v-.61Zm1.32.61c0,.33.1.62.29.85s.46.35.81.35c.36,0,.64-.11.81-.34s.27-.51.27-.86v-.61c0-.33-.09-.62-.29-.85s-.46-.35-.81-.35-.62.12-.8.35-.28.52-.28.85v.61Z"/><path class="cls-4" d="m69.78,261.03h-1.9v-9.62h-2.41v-1.51l4.31-.41v11.54Z"/><path class="cls-4" d="m80.36,261.03h-7.34v-1.3l3.55-4.11c.58-.68.98-1.25,1.2-1.69s.34-.87.34-1.27c0-.48-.14-.88-.41-1.18s-.66-.46-1.16-.46c-.59,0-1.04.19-1.35.57s-.47.86-.47,1.44h-1.84l-.02-.05c-.03-.97.3-1.8.96-2.47s1.57-1.01,2.71-1.01,1.94.29,2.55.88.92,1.35.92,2.3c0,.64-.17,1.24-.51,1.8s-.9,1.32-1.68,2.26l-2.4,2.75.02.04h4.92v1.52Z"/><path class="cls-4" d="m82.89,260.79l-1.21,2.44h-1.2l.55-2.51v-1.55h1.87v1.62Z"/><path class="cls-4" d="m83.87,256l.66-6.34h6v1.64h-4.42l-.34,2.9c.22-.16.49-.3.8-.41s.65-.17,1.03-.17c1.06-.01,1.88.32,2.47.99s.88,1.6.88,2.79c0,1.12-.31,2.04-.93,2.74s-1.55,1.05-2.78,1.05c-1,0-1.84-.27-2.54-.81s-1.02-1.31-1-2.31l.02-.04,1.78-.05c0,.53.16.95.48,1.25s.74.45,1.25.45c.59,0,1.04-.2,1.35-.6s.46-.96.46-1.66-.16-1.23-.48-1.64-.77-.62-1.36-.62c-.52,0-.91.08-1.16.25s-.44.41-.55.73l-1.62-.13Z"/><path class="cls-4" d="m91.49,251.84c0-.67.21-1.23.64-1.68s1.02-.68,1.76-.68,1.34.22,1.77.67.64,1.01.64,1.68v.6c0,.67-.21,1.22-.64,1.67s-1.01.67-1.75.67-1.34-.22-1.77-.67-.65-1-.65-1.67v-.6Zm1.32.6c0,.33.09.62.29.85s.46.35.82.35.61-.11.79-.34.28-.51.28-.85v-.6c0-.34-.09-.62-.29-.86s-.46-.35-.8-.35-.62.12-.8.35-.28.52-.28.86v.6Zm1.49,7.73l-.98-.56,5.55-8.89.98.56-5.55,8.89Zm2.66-1.94c0-.66.22-1.22.65-1.67s1.02-.68,1.76-.68,1.34.22,1.77.67.64,1,.64,1.67v.61c0,.67-.21,1.23-.64,1.68s-1.01.67-1.75.67-1.34-.22-1.77-.67-.65-1-.65-1.67v-.61Zm1.32.61c0,.33.1.62.29.85s.46.35.81.35c.36,0,.64-.11.81-.34s.27-.51.27-.86v-.61c0-.33-.09-.62-.29-.85s-.46-.35-.81-.35-.62.12-.8.35-.28.52-.28.85v.61Z"/><path class="cls-2" d="m223.67,72.17h6.33v1.8h-8.58v-13.51h2.25v11.71Z"/><path class="cls-2" d="m235.93,74.17c-1.46,0-2.61-.46-3.44-1.39-.83-.92-1.24-2.12-1.24-3.59v-.37c0-1.47.41-2.69,1.24-3.64.83-.96,1.89-1.43,3.2-1.42,1.35,0,2.37.42,3.06,1.25.69.83,1.04,1.94,1.04,3.33v1.21h-6.21l-.02.05c.02.82.24,1.49.65,2s1.02.77,1.85.77c.61,0,1.14-.07,1.59-.22.45-.15.86-.36,1.25-.64l.73,1.48c-.38.33-.89.62-1.52.84s-1.36.34-2.18.34Zm-.24-8.61c-.59,0-1.06.21-1.41.63-.35.42-.57.98-.66,1.66l.02.05h3.92v-.18c0-.64-.15-1.16-.45-1.56-.3-.4-.78-.6-1.42-.6Z"/><path class="cls-2" d="m243.66,63.93l.13,1.45c.33-.51.74-.91,1.24-1.2.5-.29,1.06-.43,1.68-.43,1.04,0,1.86.32,2.44.96.58.64.88,1.65.88,3.01v6.24h-2.25v-6.22c0-.78-.15-1.33-.46-1.66-.3-.33-.76-.49-1.37-.49-.48,0-.9.09-1.25.27s-.63.43-.84.76v7.35h-2.25v-10.04h2.06Z"/><path class="cls-2" d="m255.26,61.49v2.44h1.8v1.67h-1.8v5.55c0,.41.09.71.27.89.18.18.42.26.71.26.12,0,.24-.01.36-.03s.23-.05.33-.09l.24,1.65c-.19.1-.42.19-.68.25-.26.06-.54.09-.82.09-.83,0-1.48-.24-1.95-.73-.47-.49-.71-1.25-.71-2.29v-5.55h-1.53v-1.67h1.53v-2.44h2.24Z"/><path class="cls-2" d="m263.14,74.17c-1.46,0-2.61-.46-3.44-1.39-.83-.92-1.24-2.12-1.24-3.59v-.37c0-1.47.41-2.69,1.24-3.64.83-.96,1.89-1.43,3.2-1.42,1.35,0,2.37.42,3.06,1.25.69.83,1.04,1.94,1.04,3.33v1.21h-6.21l-.02.05c.02.82.24,1.49.65,2s1.02.77,1.85.77c.61,0,1.14-.07,1.59-.22.45-.15.86-.36,1.25-.64l.73,1.48c-.38.33-.89.62-1.52.84s-1.36.34-2.18.34Zm-.24-8.61c-.59,0-1.06.21-1.41.63-.35.42-.57.98-.66,1.66l.02.05h3.92v-.18c0-.64-.15-1.16-.45-1.56-.3-.4-.78-.6-1.42-.6Z"/><path class="cls-2" d="m274.47,71.23c0-.35-.15-.63-.44-.86-.29-.23-.85-.43-1.67-.61-1.18-.24-2.08-.6-2.71-1.07-.62-.47-.94-1.1-.94-1.89,0-.84.36-1.56,1.07-2.16.71-.6,1.65-.9,2.81-.9s2.17.31,2.9.92c.73.62,1.08,1.36,1.05,2.22l-.02.05h-2.16c0-.41-.16-.76-.48-1.06-.32-.3-.75-.45-1.29-.45s-.96.12-1.24.37-.43.55-.43.91c0,.34.13.61.4.82.27.2.81.39,1.64.55,1.23.25,2.16.61,2.78,1.09s.94,1.12.94,1.92c0,.9-.37,1.64-1.12,2.21-.75.57-1.73.86-2.95.86-1.31,0-2.33-.33-3.09-1s-1.11-1.44-1.08-2.3l.02-.06h2.1c.02.58.24,1.01.63,1.27s.88.4,1.45.4,1.02-.11,1.34-.34c.32-.23.48-.53.48-.91Z"/><path class="cls-4" d="m239.28,111.46c.66,0,1.19-.23,1.6-.7s.61-1.11.61-1.95v-.82c-.25.35-.55.61-.91.79s-.75.27-1.17.27c-1.08,0-1.92-.34-2.54-1.02s-.92-1.62-.92-2.82.34-2.08,1.03-2.82,1.55-1.11,2.58-1.11c1.14,0,2.06.37,2.77,1.12s1.06,1.79,1.06,3.12v3.23c0,1.32-.38,2.35-1.15,3.11s-1.75,1.13-2.96,1.13c-.4,0-.81-.04-1.23-.12s-.81-.21-1.18-.37l.3-1.45c.34.15.67.26.99.32s.69.1,1.11.1Zm.3-3.89c.45,0,.84-.09,1.16-.29s.57-.44.74-.75v-1.35c0-.77-.17-1.36-.5-1.77s-.8-.62-1.39-.62c-.5,0-.92.23-1.25.68s-.5,1.03-.5,1.72.15,1.29.45,1.72.73.65,1.29.65Z"/><path class="cls-4" d="m246.16,112.57l-1.21,2.44h-1.2l.55-2.51v-1.55h1.87v1.62Z"/><path class="cls-4" d="m250.44,106.22c.61,0,1.06-.15,1.33-.46s.41-.74.41-1.29c0-.5-.15-.9-.44-1.21s-.71-.46-1.27-.46c-.51,0-.93.15-1.27.46s-.51.69-.51,1.14h-1.82l-.02-.05c-.03-.87.3-1.6,1-2.19s1.57-.89,2.62-.89c1.11,0,1.99.27,2.63.82s.96,1.34.96,2.38c0,.52-.14,1-.43,1.43s-.68.77-1.18,1.02c.58.23,1.02.57,1.33,1.04s.46,1.02.46,1.67c0,1.05-.35,1.87-1.05,2.46s-1.61.89-2.72.89c-1,0-1.88-.28-2.63-.85s-1.12-1.34-1.09-2.32l.02-.05h1.83c0,.48.18.88.53,1.21s.8.49,1.36.49,1.03-.17,1.37-.51.51-.78.51-1.32c0-.65-.16-1.13-.47-1.45s-.79-.48-1.43-.48h-1.27v-1.49h1.27Z"/><path class="cls-4" d="m262.25,108.74c0,1.31-.34,2.35-1.01,3.1s-1.58,1.13-2.71,1.13-2.04-.38-2.72-1.14-1.02-1.79-1.02-3.1v-3.23c0-1.31.34-2.34,1.02-3.1s1.58-1.14,2.71-1.14,2.04.38,2.71,1.14,1.02,1.79,1.02,3.1v3.23Zm-1.9-3.52c0-.76-.16-1.36-.48-1.79s-.77-.64-1.35-.64-1.03.21-1.35.64-.48,1.02-.48,1.79v3.79c0,.77.16,1.37.48,1.8s.78.64,1.36.64,1.03-.21,1.35-.64.47-1.03.47-1.8v-3.79Z"/><path class="cls-4" d="m243.32,122.78c0,.57-.15,1.08-.46,1.52s-.72.78-1.25,1.02c.62.25,1.12.61,1.5,1.09s.56,1.03.56,1.66c0,1.06-.35,1.88-1.06,2.45s-1.6.87-2.69.87c-1.16,0-2.1-.29-2.83-.87s-1.1-1.4-1.1-2.45c0-.62.19-1.18.57-1.66s.9-.84,1.56-1.09c-.55-.24-.99-.58-1.3-1.02s-.48-.95-.48-1.52c0-1,.33-1.77.98-2.3s1.52-.8,2.58-.8c1,0,1.83.27,2.46.8s.96,1.3.96,2.3Zm-1.55,5.21c0-.56-.18-1.01-.54-1.37s-.8-.54-1.34-.54c-.58,0-1.07.18-1.45.54s-.57.81-.57,1.37.19,1.02.57,1.36.87.51,1.46.51c.53,0,.97-.17,1.33-.51s.53-.8.53-1.36Zm-.35-5.14c0-.49-.14-.89-.43-1.19s-.65-.46-1.09-.46c-.5,0-.9.15-1.21.44s-.46.7-.46,1.21.16.92.47,1.24.72.47,1.21.47c.44,0,.8-.16,1.08-.47s.43-.73.43-1.24Z"/><path class="cls-4" d="m246.16,130.98l-1.21,2.44h-1.2l.55-2.51v-1.55h1.87v1.62Z"/><path class="cls-4" d="m249.94,129.87c.66,0,1.19-.23,1.6-.7s.61-1.11.61-1.95v-.82c-.25.35-.55.61-.91.79s-.75.27-1.17.27c-1.08,0-1.92-.34-2.54-1.02s-.92-1.62-.92-2.82.34-2.08,1.03-2.82,1.55-1.11,2.58-1.11c1.14,0,2.06.37,2.77,1.12s1.06,1.79,1.06,3.12v3.23c0,1.32-.38,2.35-1.15,3.11s-1.75,1.13-2.96,1.13c-.4,0-.81-.04-1.23-.12s-.81-.21-1.18-.37l.3-1.45c.34.15.67.26.99.32s.69.1,1.11.1Zm.3-3.89c.45,0,.84-.09,1.16-.29s.57-.44.74-.75v-1.35c0-.77-.17-1.36-.5-1.77s-.8-.62-1.39-.62c-.5,0-.92.23-1.25.68s-.5,1.03-.5,1.72.15,1.29.45,1.72.73.65,1.29.65Z"/><path class="cls-4" d="m262.25,127.15c0,1.31-.34,2.35-1.01,3.1s-1.58,1.13-2.71,1.13-2.04-.38-2.72-1.14-1.02-1.79-1.02-3.1v-3.23c0-1.31.34-2.34,1.02-3.1s1.58-1.14,2.71-1.14,2.04.38,2.71,1.14,1.02,1.79,1.02,3.1v3.23Zm-1.9-3.52c0-.76-.16-1.36-.48-1.79s-.77-.64-1.35-.64-1.03.21-1.35.64-.48,1.02-.48,1.79v3.79c0,.77.16,1.37.48,1.8s.78.64,1.36.64,1.03-.21,1.35-.64.47-1.03.47-1.8v-3.79Z"/><path class="cls-4" d="m243.32,140.18c0,.57-.15,1.08-.46,1.52s-.72.78-1.25,1.02c.62.25,1.12.61,1.5,1.09s.56,1.03.56,1.66c0,1.06-.35,1.88-1.06,2.45s-1.6.87-2.69.87c-1.16,0-2.1-.29-2.83-.87s-1.1-1.4-1.1-2.45c0-.62.19-1.18.57-1.66s.9-.84,1.56-1.09c-.55-.24-.99-.58-1.3-1.02s-.48-.95-.48-1.52c0-1,.33-1.77.98-2.3s1.52-.8,2.58-.8c1,0,1.83.27,2.46.8s.96,1.3.96,2.3Zm-1.55,5.21c0-.56-.18-1.01-.54-1.37s-.8-.54-1.34-.54c-.58,0-1.07.18-1.45.54s-.57.81-.57,1.37.19,1.02.57,1.36.87.51,1.46.51c.53,0,.97-.17,1.33-.51s.53-.8.53-1.36Zm-.35-5.14c0-.49-.14-.89-.43-1.19s-.65-.46-1.09-.46c-.5,0-.9.15-1.21.44s-.46.7-.46,1.21.16.92.47,1.24.72.47,1.21.47c.44,0,.8-.16,1.08-.47s.43-.73.43-1.24Z"/><path class="cls-4" d="m246.16,148.38l-1.21,2.44h-1.2l.55-2.51v-1.55h1.87v1.62Z"/><path class="cls-4" d="m251.02,137.08c.44,0,.87.04,1.28.13s.78.2,1.11.34l-.37,1.47c-.32-.12-.63-.22-.94-.29s-.67-.11-1.08-.11c-.69,0-1.25.28-1.68.84s-.64,1.29-.64,2.21v.59c.31-.31.67-.55,1.1-.72s.89-.26,1.4-.26c.97,0,1.74.34,2.3,1.01s.84,1.55.84,2.64c0,1.15-.34,2.08-1.01,2.79s-1.56,1.06-2.66,1.06-2.04-.4-2.77-1.21-1.09-1.91-1.09-3.31v-2.48c0-1.4.4-2.53,1.2-3.4s1.8-1.3,3-1.3Zm-.42,5.68c-.45,0-.84.08-1.15.25s-.56.39-.73.68v.68c0,.91.18,1.62.55,2.13s.84.77,1.41.77.99-.22,1.31-.66.47-1,.47-1.68-.17-1.2-.5-1.59-.79-.59-1.37-.59Z"/><path class="cls-4" d="m262.25,144.55c0,1.31-.34,2.35-1.01,3.1s-1.58,1.13-2.71,1.13-2.04-.38-2.72-1.14-1.02-1.79-1.02-3.1v-3.23c0-1.31.34-2.34,1.02-3.1s1.58-1.14,2.71-1.14,2.04.38,2.71,1.14,1.02,1.79,1.02,3.1v3.23Zm-1.9-3.52c0-.76-.16-1.36-.48-1.79s-.77-.64-1.35-.64-1.03.21-1.35.64-.48,1.02-.48,1.79v3.79c0,.77.16,1.37.48,1.8s.78.64,1.36.64,1.03-.21,1.35-.64.47-1.03.47-1.8v-3.79Z"/><path class="cls-4" d="m239.28,176.62c.66,0,1.19-.23,1.6-.7s.61-1.11.61-1.95v-.82c-.25.35-.55.61-.91.79s-.75.27-1.17.27c-1.08,0-1.92-.34-2.54-1.02s-.92-1.62-.92-2.82.34-2.08,1.03-2.82,1.55-1.11,2.58-1.11c1.14,0,2.06.37,2.77,1.12s1.06,1.79,1.06,3.12v3.23c0,1.32-.38,2.35-1.15,3.11s-1.75,1.13-2.96,1.13c-.4,0-.81-.04-1.23-.12s-.81-.21-1.18-.37l.3-1.45c.34.15.67.26.99.32s.69.1,1.11.1Zm.3-3.89c.45,0,.84-.09,1.16-.29s.57-.44.74-.75v-1.35c0-.77-.17-1.36-.5-1.77s-.8-.62-1.39-.62c-.5,0-.92.23-1.25.68s-.5,1.03-.5,1.72.15,1.29.45,1.72.73.65,1.29.65Z"/><path class="cls-4" d="m246.16,177.73l-1.21,2.44h-1.2l.55-2.51v-1.55h1.87v1.62Z"/><path class="cls-4" d="m254.19,173.91c0,1.31-.34,2.35-1.01,3.1s-1.58,1.13-2.71,1.13-2.04-.38-2.72-1.14-1.02-1.79-1.02-3.1v-3.23c0-1.31.34-2.34,1.02-3.1s1.58-1.14,2.71-1.14,2.04.38,2.71,1.14,1.02,1.79,1.02,3.1v3.23Zm-1.9-3.52c0-.76-.16-1.36-.48-1.79s-.77-.64-1.35-.64-1.03.21-1.35.64-.48,1.02-.48,1.79v3.79c0,.77.16,1.37.48,1.8s.78.64,1.36.64,1.03-.21,1.35-.64.47-1.03.47-1.8v-3.79Z"/><path class="cls-4" d="m262.25,173.91c0,1.31-.34,2.35-1.01,3.1s-1.58,1.13-2.71,1.13-2.04-.38-2.72-1.14-1.02-1.79-1.02-3.1v-3.23c0-1.31.34-2.34,1.02-3.1s1.58-1.14,2.71-1.14,2.04.38,2.71,1.14,1.02,1.79,1.02,3.1v3.23Zm-1.9-3.52c0-.76-.16-1.36-.48-1.79s-.77-.64-1.35-.64-1.03.21-1.35.64-.48,1.02-.48,1.79v3.79c0,.77.16,1.37.48,1.8s.78.64,1.36.64,1.03-.21,1.35-.64.47-1.03.47-1.8v-3.79Z"/><path class="cls-4" d="m243.32,187.95c0,.57-.15,1.08-.46,1.52s-.72.78-1.25,1.02c.62.25,1.12.61,1.5,1.09s.56,1.03.56,1.66c0,1.06-.35,1.88-1.06,2.45s-1.6.87-2.69.87c-1.16,0-2.1-.29-2.83-.87s-1.1-1.4-1.1-2.45c0-.62.19-1.18.57-1.66s.9-.84,1.56-1.09c-.55-.24-.99-.58-1.3-1.02s-.48-.95-.48-1.52c0-1,.33-1.77.98-2.3s1.52-.8,2.58-.8c1,0,1.83.27,2.46.8s.96,1.3.96,2.3Zm-1.55,5.21c0-.56-.18-1.01-.54-1.37s-.8-.54-1.34-.54c-.58,0-1.07.18-1.45.54s-.57.81-.57,1.37.19,1.02.57,1.36.87.51,1.46.51c.53,0,.97-.17,1.33-.51s.53-.8.53-1.36Zm-.35-5.14c0-.49-.14-.89-.43-1.19s-.65-.46-1.09-.46c-.5,0-.9.15-1.21.44s-.46.7-.46,1.21.16.92.47,1.24.72.47,1.21.47c.44,0,.8-.16,1.08-.47s.43-.73.43-1.24Z"/><path class="cls-4" d="m246.16,196.14l-1.21,2.44h-1.2l.55-2.51v-1.55h1.87v1.62Z"/><path class="cls-4" d="m254.33,186.53c-1.37,1.61-2.3,3.04-2.78,4.29s-.72,2.65-.72,4.23v1.34h-1.9v-1.34c0-1.64.3-3.13.91-4.46s1.49-2.68,2.64-4.06h-5.91v-1.52h7.76v1.52Z"/><path class="cls-4" d="m262.25,192.31c0,1.31-.34,2.35-1.01,3.1s-1.58,1.13-2.71,1.13-2.04-.38-2.72-1.14-1.02-1.79-1.02-3.1v-3.23c0-1.31.34-2.34,1.02-3.1s1.58-1.14,2.71-1.14,2.04.38,2.71,1.14,1.02,1.79,1.02,3.1v3.23Zm-1.9-3.52c0-.76-.16-1.36-.48-1.79s-.77-.64-1.35-.64-1.03.21-1.35.64-.48,1.02-.48,1.79v3.79c0,.77.16,1.37.48,1.8s.78.64,1.36.64,1.03-.21,1.35-.64.47-1.03.47-1.8v-3.79Z"/><path class="cls-4" d="m243.32,205.34c0,.57-.15,1.08-.46,1.52s-.72.78-1.25,1.02c.62.25,1.12.61,1.5,1.09s.56,1.03.56,1.66c0,1.06-.35,1.88-1.06,2.45s-1.6.87-2.69.87c-1.16,0-2.1-.29-2.83-.87s-1.1-1.4-1.1-2.45c0-.62.19-1.18.57-1.66s.9-.84,1.56-1.09c-.55-.24-.99-.58-1.3-1.02s-.48-.95-.48-1.52c0-1,.33-1.77.98-2.3s1.52-.8,2.58-.8c1,0,1.83.27,2.46.8s.96,1.3.96,2.3Zm-1.55,5.21c0-.56-.18-1.01-.54-1.37s-.8-.54-1.34-.54c-.58,0-1.07.18-1.45.54s-.57.81-.57,1.37.19,1.02.57,1.36.87.51,1.46.51c.53,0,.97-.17,1.33-.51s.53-.8.53-1.36Zm-.35-5.14c0-.49-.14-.89-.43-1.19s-.65-.46-1.09-.46c-.5,0-.9.15-1.21.44s-.46.7-.46,1.21.16.92.47,1.24.72.47,1.21.47c.44,0,.8-.16,1.08-.47s.43-.73.43-1.24Z"/><path class="cls-4" d="m246.16,213.54l-1.21,2.44h-1.2l.55-2.51v-1.55h1.87v1.62Z"/><path class="cls-4" d="m247.15,208.75l.66-6.34h6v1.64h-4.42l-.34,2.9c.22-.16.49-.3.8-.41s.65-.17,1.03-.17c1.06-.01,1.88.32,2.47.99s.88,1.6.88,2.79c0,1.12-.31,2.04-.93,2.74s-1.55,1.05-2.78,1.05c-1,0-1.84-.27-2.54-.81s-1.02-1.31-1-2.31l.02-.04,1.78-.05c0,.53.16.95.48,1.25s.74.45,1.25.45c.59,0,1.04-.2,1.35-.6s.46-.96.46-1.66-.16-1.23-.48-1.64-.77-.62-1.36-.62c-.52,0-.91.08-1.16.25s-.44.41-.55.73l-1.62-.13Z"/><path class="cls-4" d="m262.25,209.71c0,1.31-.34,2.35-1.01,3.1s-1.58,1.13-2.71,1.13-2.04-.38-2.72-1.14-1.02-1.79-1.02-3.1v-3.23c0-1.31.34-2.34,1.02-3.1s1.58-1.14,2.71-1.14,2.04.38,2.71,1.14,1.02,1.79,1.02,3.1v3.23Zm-1.9-3.52c0-.76-.16-1.36-.48-1.79s-.77-.64-1.35-.64-1.03.21-1.35.64-.48,1.02-.48,1.79v3.79c0,.77.16,1.37.48,1.8s.78.64,1.36.64,1.03-.21,1.35-.64.47-1.03.47-1.8v-3.79Z"/><path class="cls-4" d="m243.32,234.7c0,.57-.15,1.08-.46,1.52s-.72.78-1.25,1.02c.62.25,1.12.61,1.5,1.09s.56,1.03.56,1.66c0,1.06-.35,1.88-1.06,2.45s-1.6.87-2.69.87c-1.16,0-2.1-.29-2.83-.87s-1.1-1.4-1.1-2.45c0-.62.19-1.18.57-1.66s.9-.84,1.56-1.09c-.55-.24-.99-.58-1.3-1.02s-.48-.95-.48-1.52c0-1,.33-1.77.98-2.3s1.52-.8,2.58-.8c1,0,1.83.27,2.46.8s.96,1.3.96,2.3Zm-1.55,5.21c0-.56-.18-1.01-.54-1.37s-.8-.54-1.34-.54c-.58,0-1.07.18-1.45.54s-.57.81-.57,1.37.19,1.02.57,1.36.87.51,1.46.51c.53,0,.97-.17,1.33-.51s.53-.8.53-1.36Zm-.35-5.14c0-.49-.14-.89-.43-1.19s-.65-.46-1.09-.46c-.5,0-.9.15-1.21.44s-.46.7-.46,1.21.16.92.47,1.24.72.47,1.21.47c.44,0,.8-.16,1.08-.47s.43-.73.43-1.24Z"/><path class="cls-4" d="m246.16,242.89l-1.21,2.44h-1.2l.55-2.51v-1.55h1.87v1.62Z"/><path class="cls-4" d="m253.97,234.7c0,.57-.15,1.08-.46,1.52s-.72.78-1.25,1.02c.62.25,1.12.61,1.5,1.09s.56,1.03.56,1.66c0,1.06-.35,1.88-1.06,2.45s-1.6.87-2.69.87c-1.16,0-2.1-.29-2.83-.87s-1.1-1.4-1.1-2.45c0-.62.19-1.18.57-1.66s.9-.84,1.56-1.09c-.55-.24-.99-.58-1.3-1.02s-.48-.95-.48-1.52c0-1,.33-1.77.98-2.3s1.52-.8,2.58-.8c1,0,1.83.27,2.46.8s.96,1.3.96,2.3Zm-1.55,5.21c0-.56-.18-1.01-.54-1.37s-.8-.54-1.34-.54c-.58,0-1.07.18-1.45.54s-.57.81-.57,1.37.19,1.02.57,1.36.87.51,1.46.51c.53,0,.97-.17,1.33-.51s.53-.8.53-1.36Zm-.35-5.14c0-.49-.14-.89-.43-1.19s-.65-.46-1.09-.46c-.5,0-.9.15-1.21.44s-.46.7-.46,1.21.16.92.47,1.24.72.47,1.21.47c.44,0,.8-.16,1.08-.47s.43-.73.43-1.24Z"/><path class="cls-4" d="m262.25,239.07c0,1.31-.34,2.35-1.01,3.1s-1.58,1.13-2.71,1.13-2.04-.38-2.72-1.14-1.02-1.79-1.02-3.1v-3.23c0-1.31.34-2.34,1.02-3.1s1.58-1.14,2.71-1.14,2.04.38,2.71,1.14,1.02,1.79,1.02,3.1v3.23Zm-1.9-3.52c0-.76-.16-1.36-.48-1.79s-.77-.64-1.35-.64-1.03.21-1.35.64-.48,1.02-.48,1.79v3.79c0,.77.16,1.37.48,1.8s.78.64,1.36.64,1.03-.21,1.35-.64.47-1.03.47-1.8v-3.79Z"/><path class="cls-4" d="m243.32,253.11c0,.57-.15,1.08-.46,1.52s-.72.78-1.25,1.02c.62.25,1.12.61,1.5,1.09s.56,1.03.56,1.66c0,1.06-.35,1.88-1.06,2.45s-1.6.87-2.69.87c-1.16,0-2.1-.29-2.83-.87s-1.1-1.4-1.1-2.45c0-.62.19-1.18.57-1.66s.9-.84,1.56-1.09c-.55-.24-.99-.58-1.3-1.02s-.48-.95-.48-1.52c0-1,.33-1.77.98-2.3s1.52-.8,2.58-.8c1,0,1.83.27,2.46.8s.96,1.3.96,2.3Zm-1.55,5.21c0-.56-.18-1.01-.54-1.37s-.8-.54-1.34-.54c-.58,0-1.07.18-1.45.54s-.57.81-.57,1.37.19,1.02.57,1.36.87.51,1.46.51c.53,0,.97-.17,1.33-.51s.53-.8.53-1.36Zm-.35-5.14c0-.49-.14-.89-.43-1.19s-.65-.46-1.09-.46c-.5,0-.9.15-1.21.44s-.46.7-.46,1.21.16.92.47,1.24.72.47,1.21.47c.44,0,.8-.16,1.08-.47s.43-.73.43-1.24Z"/><path class="cls-4" d="m246.16,261.3l-1.21,2.44h-1.2l.55-2.51v-1.55h1.87v1.62Z"/><path class="cls-4" d="m251.02,250c.44,0,.87.04,1.28.13s.78.2,1.11.34l-.37,1.47c-.32-.12-.63-.22-.94-.29s-.67-.11-1.08-.11c-.69,0-1.25.28-1.68.84s-.64,1.29-.64,2.21v.59c.31-.31.67-.55,1.1-.72s.89-.26,1.4-.26c.97,0,1.74.34,2.3,1.01s.84,1.55.84,2.64c0,1.15-.34,2.08-1.01,2.79s-1.56,1.06-2.66,1.06-2.04-.4-2.77-1.21-1.09-1.91-1.09-3.31v-2.48c0-1.4.4-2.53,1.2-3.4s1.8-1.3,3-1.3Zm-.42,5.68c-.45,0-.84.08-1.15.25s-.56.39-.73.68v.68c0,.91.18,1.62.55,2.13s.84.77,1.41.77.99-.22,1.31-.66.47-1,.47-1.68-.17-1.2-.5-1.59-.79-.59-1.37-.59Z"/><path class="cls-4" d="m262.25,257.47c0,1.31-.34,2.35-1.01,3.1s-1.58,1.13-2.71,1.13-2.04-.38-2.72-1.14-1.02-1.79-1.02-3.1v-3.23c0-1.31.34-2.34,1.02-3.1s1.58-1.14,2.71-1.14,2.04.38,2.71,1.14,1.02,1.79,1.02,3.1v3.23Zm-1.9-3.52c0-.76-.16-1.36-.48-1.79s-.77-.64-1.35-.64-1.03.21-1.35.64-.48,1.02-.48,1.79v3.79c0,.77.16,1.37.48,1.8s.78.64,1.36.64,1.03-.21,1.35-.64.47-1.03.47-1.8v-3.79Z"/><path class="cls-4" d="m243.32,270.5c0,.57-.15,1.08-.46,1.52s-.72.78-1.25,1.02c.62.25,1.12.61,1.5,1.09s.56,1.03.56,1.66c0,1.06-.35,1.88-1.06,2.45s-1.6.87-2.69.87c-1.16,0-2.1-.29-2.83-.87s-1.1-1.4-1.1-2.45c0-.62.19-1.18.57-1.66s.9-.84,1.56-1.09c-.55-.24-.99-.58-1.3-1.02s-.48-.95-.48-1.52c0-1,.33-1.77.98-2.3s1.52-.8,2.58-.8c1,0,1.83.27,2.46.8s.96,1.3.96,2.3Zm-1.55,5.21c0-.56-.18-1.01-.54-1.37s-.8-.54-1.34-.54c-.58,0-1.07.18-1.45.54s-.57.81-.57,1.37.19,1.02.57,1.36.87.51,1.46.51c.53,0,.97-.17,1.33-.51s.53-.8.53-1.36Zm-.35-5.14c0-.49-.14-.89-.43-1.19s-.65-.46-1.09-.46c-.5,0-.9.15-1.21.44s-.46.7-.46,1.21.16.92.47,1.24.72.47,1.21.47c.44,0,.8-.16,1.08-.47s.43-.73.43-1.24Z"/><path class="cls-4" d="m246.16,278.7l-1.21,2.44h-1.2l.55-2.51v-1.55h1.87v1.62Z"/><path class="cls-4" d="m253.12,274.89h1.44v1.53h-1.44v2.52h-1.89v-2.52h-4.76l-.05-1.16,4.75-7.69h1.95v7.32Zm-4.84,0h2.95v-4.64h-.05s-.18.43-.18.43l-2.73,4.21Z"/><path class="cls-4" d="m262.25,274.87c0,1.31-.34,2.35-1.01,3.1s-1.58,1.13-2.71,1.13-2.04-.38-2.72-1.14-1.02-1.79-1.02-3.1v-3.23c0-1.31.34-2.34,1.02-3.1s1.58-1.14,2.71-1.14,2.04.38,2.71,1.14,1.02,1.79,1.02,3.1v3.23Zm-1.9-3.52c0-.76-.16-1.36-.48-1.79s-.77-.64-1.35-.64-1.03.21-1.35.64-.48,1.02-.48,1.79v3.79c0,.77.16,1.37.48,1.8s.78.64,1.36.64,1.03-.21,1.35-.64.47-1.03.47-1.8v-3.79Z"/><path class="cls-2" d="m141.91,69.56l.02.06c.03,1.36-.42,2.46-1.33,3.3-.91.84-2.14,1.26-3.68,1.26s-2.84-.53-3.82-1.59c-.98-1.06-1.46-2.42-1.46-4.07v-2.57c0-1.65.48-3,1.45-4.07.96-1.07,2.22-1.6,3.78-1.6s2.84.41,3.75,1.22c.91.81,1.36,1.92,1.33,3.33l-.02.05h-2.18c0-.9-.24-1.59-.73-2.07-.49-.48-1.21-.72-2.15-.72s-1.64.36-2.18,1.09c-.54.73-.8,1.64-.8,2.75v2.59c0,1.12.27,2.04.82,2.77.54.73,1.29,1.09,2.23,1.09s1.62-.24,2.1-.72.72-1.18.72-2.09h2.17Z"/><path class="cls-2" d="m143.45,68.86c0-1.5.41-2.72,1.23-3.68.82-.96,1.94-1.43,3.36-1.43s2.57.48,3.39,1.43c.82.96,1.23,2.18,1.23,3.68v.19c0,1.51-.41,2.74-1.23,3.69-.82.95-1.94,1.42-3.37,1.42s-2.56-.48-3.38-1.43c-.82-.95-1.23-2.18-1.23-3.68v-.19Zm2.25.19c0,.98.19,1.78.58,2.39s.98.92,1.78.92,1.37-.31,1.77-.92c.39-.62.59-1.41.59-2.39v-.19c0-.96-.2-1.75-.59-2.37-.39-.62-.99-.93-1.79-.93s-1.37.31-1.76.93c-.39.62-.58,1.41-.58,2.37v.19Zm3.06-9.4h2.55l.02.05-2.53,2.41h-1.81l1.77-2.47Z"/><path class="cls-2" d="m159.63,65.97l-.96-.04c-.44,0-.81.09-1.1.28-.29.19-.52.45-.68.79v6.98h-2.25v-10.04h2.06l.15,1.46c.25-.51.58-.92.98-1.21.4-.29.86-.44,1.38-.44.14,0,.26.01.38.03.12.02.23.05.32.08l-.27,2.11Z"/><path class="cls-2" d="m163.34,63.93l.13,1.45c.33-.51.74-.91,1.24-1.2.5-.29,1.06-.43,1.68-.43,1.04,0,1.86.32,2.44.96.58.64.88,1.65.88,3.01v6.24h-2.25v-6.22c0-.78-.15-1.33-.46-1.66-.3-.33-.76-.49-1.37-.49-.48,0-.9.09-1.25.27s-.63.43-.84.76v7.35h-2.25v-10.04h2.06Z"/><path class="cls-2" d="m176.32,74.17c-1.46,0-2.61-.46-3.44-1.39-.83-.92-1.24-2.12-1.24-3.59v-.37c0-1.47.41-2.69,1.24-3.64.83-.96,1.89-1.43,3.2-1.42,1.35,0,2.37.42,3.06,1.25.69.83,1.04,1.94,1.04,3.33v1.21h-6.21l-.02.05c.02.82.24,1.49.65,2s1.02.77,1.85.77c.61,0,1.14-.07,1.59-.22.45-.15.86-.36,1.25-.64l.73,1.48c-.38.33-.89.62-1.52.84s-1.36.34-2.18.34Zm-.24-8.61c-.59,0-1.06.21-1.41.63-.35.42-.57.98-.66,1.66l.02.05h3.92v-.18c0-.64-.15-1.16-.45-1.56-.3-.4-.78-.6-1.42-.6Z"/><path class="cls-2" d="m188.05,73.97c-.08-.25-.15-.5-.2-.74-.05-.24-.09-.48-.11-.72-.3.47-.71.86-1.21,1.18s-1.07.48-1.7.48c-1.05,0-1.85-.27-2.41-.81s-.84-1.28-.84-2.22.38-1.73,1.15-2.27c.77-.54,1.85-.81,3.24-.81h1.75v-.88c0-.53-.15-.94-.46-1.23-.31-.3-.75-.45-1.33-.45-.51,0-.92.12-1.22.37s-.46.56-.46.95h-2.17s0-.05,0-.05c-.04-.79.31-1.49,1.06-2.11.75-.61,1.73-.92,2.94-.92s2.11.3,2.83.89,1.08,1.45,1.08,2.56v4.46c0,.42.03.81.08,1.19.05.38.14.75.27,1.12h-2.28Zm-2.76-1.61c.56,0,1.07-.14,1.53-.43.46-.28.76-.61.91-.97v-1.48h-1.79c-.66,0-1.17.16-1.54.49-.37.33-.56.71-.56,1.15,0,.38.12.69.38.91.25.23.61.34,1.08.34Z"/><path class="cls-4" d="m125.98,106.63c.58,0,.99-.14,1.25-.43s.38-.69.38-1.21c0-.46-.14-.84-.41-1.13-.27-.29-.67-.44-1.19-.44-.48,0-.88.14-1.19.43-.32.29-.48.64-.48,1.07h-1.71v-.04c-.04-.82.27-1.5.92-2.05.65-.55,1.47-.83,2.46-.83,1.04,0,1.86.26,2.46.77.6.51.9,1.25.9,2.23,0,.49-.13.94-.4,1.34-.27.41-.64.73-1.11.96.54.21.96.54,1.25.97.29.43.43.95.43,1.56,0,.98-.33,1.75-.99,2.31s-1.51.84-2.55.84c-.94,0-1.76-.27-2.47-.79-.71-.53-1.05-1.25-1.03-2.17l.02-.04h1.71c0,.45.17.83.5,1.13.33.3.75.46,1.27.46s.96-.16,1.28-.48c.32-.32.48-.73.48-1.23,0-.61-.15-1.06-.44-1.36-.29-.3-.74-.45-1.34-.45h-1.19v-1.4h1.19Z"/><path class="cls-4" d="m136.85,104.9c0,.54-.14,1.01-.43,1.42-.29.41-.68.73-1.17.96.59.23,1.05.57,1.4,1.02.35.45.52.97.52,1.55,0,.99-.33,1.76-.99,2.3-.66.54-1.5.81-2.52.81-1.08,0-1.97-.27-2.66-.81-.69-.54-1.03-1.31-1.03-2.3,0-.59.18-1.1.54-1.55.36-.45.85-.79,1.46-1.02-.52-.22-.93-.54-1.22-.96-.3-.41-.45-.89-.45-1.42,0-.94.31-1.66.92-2.16s1.42-.75,2.42-.75c.94,0,1.71.25,2.31.75.6.5.9,1.22.9,2.16Zm-1.45,4.88c0-.52-.17-.95-.5-1.29-.34-.33-.75-.5-1.25-.5-.55,0-1,.17-1.35.5-.36.33-.54.76-.54,1.29s.18.96.53,1.28c.35.32.81.48,1.37.48.5,0,.91-.16,1.25-.48.33-.32.5-.75.5-1.28Zm-.33-4.82c0-.46-.13-.83-.4-1.12-.27-.29-.61-.43-1.03-.43-.47,0-.85.14-1.13.41-.29.28-.43.65-.43,1.13s.15.87.44,1.16c.29.3.67.44,1.13.44.41,0,.75-.15,1.01-.44.27-.29.4-.68.4-1.16Z"/><path class="cls-4" d="m139.52,112.59l-1.13,2.29h-1.13l.51-2.35v-1.45h1.75v1.52Z"/><path class="cls-4" d="m147.04,109c0,1.23-.32,2.2-.95,2.91-.63.71-1.48,1.06-2.54,1.06s-1.91-.36-2.55-1.07c-.64-.71-.96-1.68-.96-2.9v-3.02c0-1.23.32-2.19.95-2.91s1.48-1.07,2.54-1.07,1.91.36,2.54,1.07c.64.71.96,1.68.96,2.91v3.02Zm-1.78-3.29c0-.71-.15-1.27-.45-1.67-.3-.4-.73-.6-1.27-.6s-.97.2-1.27.6c-.3.4-.45.96-.45,1.67v3.55c0,.72.15,1.29.46,1.69.3.4.73.6,1.27.6s.97-.2,1.26-.6c.3-.4.44-.96.44-1.69v-3.55Z"/><path class="cls-4" d="m154.6,109c0,1.23-.32,2.2-.95,2.91-.63.71-1.48,1.06-2.54,1.06s-1.91-.36-2.55-1.07c-.64-.71-.96-1.68-.96-2.9v-3.02c0-1.23.32-2.19.95-2.91s1.48-1.07,2.54-1.07,1.91.36,2.54,1.07c.64.71.96,1.68.96,2.91v3.02Zm-1.78-3.29c0-.71-.15-1.27-.45-1.67-.3-.4-.73-.6-1.27-.6s-.97.2-1.27.6c-.3.4-.45.96-.45,1.67v3.55c0,.72.15,1.29.46,1.69.3.4.73.6,1.27.6s.97-.2,1.26-.6c.3-.4.44-.96.44-1.69v-3.55Z"/><path class="cls-4" d="m162.9,112.81c-.06-.2-.12-.4-.16-.59-.04-.19-.07-.38-.08-.57-.24.37-.56.68-.96.93-.4.25-.85.38-1.34.38-.83,0-1.46-.21-1.9-.64-.44-.42-.66-1.01-.66-1.75s.3-1.36.91-1.79c.61-.43,1.46-.64,2.56-.64h1.38v-.7c0-.42-.12-.74-.36-.97-.24-.23-.59-.35-1.05-.35-.41,0-.73.1-.97.29-.24.19-.36.44-.36.75h-1.71s0-.04,0-.04c-.03-.62.25-1.18.84-1.66.59-.48,1.37-.73,2.32-.73s1.67.23,2.23.7.85,1.14.85,2.02v3.52c0,.33.02.64.07.94.04.3.11.59.21.88h-1.8Zm-2.18-1.27c.44,0,.85-.11,1.21-.34.36-.22.6-.48.71-.77v-1.17h-1.41c-.52,0-.92.13-1.22.38-.29.26-.44.56-.44.9,0,.3.1.54.3.72.2.18.48.27.85.27Z"/><path class="cls-4" d="m173.92,109.01h1.35v1.44h-1.35v2.37h-1.77v-2.37h-4.46l-.04-1.09,4.45-7.21h1.82v6.86Zm-4.54,0h2.77v-4.35h-.04s-.17.4-.17.4l-2.56,3.95Z"/><path class="cls-4" d="m180.23,112.81h-1.78v-9.02h-2.26v-1.41l4.04-.38v10.82Z"/><path class="cls-4" d="m184.95,112.59l-1.13,2.29h-1.13l.51-2.35v-1.45h1.75v1.52Z"/><path class="cls-4" d="m192.47,109c0,1.23-.32,2.2-.95,2.91-.63.71-1.48,1.06-2.54,1.06s-1.91-.36-2.55-1.07c-.64-.71-.96-1.68-.96-2.9v-3.02c0-1.23.32-2.19.95-2.91s1.48-1.07,2.54-1.07,1.91.36,2.54,1.07c.64.71.96,1.68.96,2.91v3.02Zm-1.78-3.29c0-.71-.15-1.27-.45-1.67-.3-.4-.73-.6-1.27-.6s-.97.2-1.27.6c-.3.4-.45.96-.45,1.67v3.55c0,.72.15,1.29.46,1.69.3.4.73.6,1.27.6s.97-.2,1.26-.6c.3-.4.44-.96.44-1.69v-3.55Z"/><path class="cls-4" d="m200.04,109c0,1.23-.32,2.2-.95,2.91-.63.71-1.48,1.06-2.54,1.06s-1.91-.36-2.55-1.07c-.64-.71-.96-1.68-.96-2.9v-3.02c0-1.23.32-2.19.95-2.91s1.48-1.07,2.54-1.07,1.91.36,2.54,1.07c.64.71.96,1.68.96,2.91v3.02Zm-1.78-3.29c0-.71-.15-1.27-.45-1.67-.3-.4-.73-.6-1.27-.6s-.97.2-1.27.6c-.3.4-.45.96-.45,1.67v3.55c0,.72.15,1.29.46,1.69.3.4.73.6,1.27.6s.97-.2,1.26-.6c.3-.4.44-.96.44-1.69v-3.55Z"/><path class="cls-4" d="m128.48,126.91h1.35v1.44h-1.35v2.37h-1.77v-2.37h-4.46l-.04-1.09,4.45-7.21h1.82v6.86Zm-4.54,0h2.77v-4.35h-.04s-.17.4-.17.4l-2.56,3.95Z"/><path class="cls-4" d="m134.79,130.71h-1.78v-9.02h-2.26v-1.41l4.04-.38v10.82Z"/><path class="cls-4" d="m139.52,130.48l-1.13,2.29h-1.13l.51-2.35v-1.45h1.75v1.52Z"/><path class="cls-4" d="m147.04,126.89c0,1.23-.32,2.2-.95,2.91-.63.71-1.48,1.06-2.54,1.06s-1.91-.36-2.55-1.07c-.64-.71-.96-1.68-.96-2.9v-3.02c0-1.23.32-2.19.95-2.91s1.48-1.07,2.54-1.07,1.91.36,2.54,1.07c.64.71.96,1.68.96,2.91v3.02Zm-1.78-3.29c0-.71-.15-1.27-.45-1.67-.3-.4-.73-.6-1.27-.6s-.97.2-1.27.6c-.3.4-.45.96-.45,1.67v3.55c0,.72.15,1.29.46,1.69.3.4.73.6,1.27.6s.97-.2,1.26-.6c.3-.4.44-.96.44-1.69v-3.55Z"/><path class="cls-4" d="m154.6,126.89c0,1.23-.32,2.2-.95,2.91-.63.71-1.48,1.06-2.54,1.06s-1.91-.36-2.55-1.07c-.64-.71-.96-1.68-.96-2.9v-3.02c0-1.23.32-2.19.95-2.91s1.48-1.07,2.54-1.07,1.91.36,2.54,1.07c.64.71.96,1.68.96,2.91v3.02Zm-1.78-3.29c0-.71-.15-1.27-.45-1.67-.3-.4-.73-.6-1.27-.6s-.97.2-1.27.6c-.3.4-.45.96-.45,1.67v3.55c0,.72.15,1.29.46,1.69.3.4.73.6,1.27.6s.97-.2,1.26-.6c.3-.4.44-.96.44-1.69v-3.55Z"/><path class="cls-4" d="m162.9,130.71c-.06-.2-.12-.4-.16-.59-.04-.19-.07-.38-.08-.57-.24.37-.56.68-.96.93-.4.25-.85.38-1.34.38-.83,0-1.46-.21-1.9-.64-.44-.42-.66-1.01-.66-1.75s.3-1.36.91-1.79c.61-.43,1.46-.64,2.56-.64h1.38v-.7c0-.42-.12-.74-.36-.97-.24-.23-.59-.35-1.05-.35-.41,0-.73.1-.97.29-.24.19-.36.44-.36.75h-1.71s0-.04,0-.04c-.03-.62.25-1.18.84-1.66.59-.48,1.37-.73,2.32-.73s1.67.23,2.23.7.85,1.14.85,2.02v3.52c0,.33.02.64.07.94.04.3.11.59.21.88h-1.8Zm-2.18-1.27c.44,0,.85-.11,1.21-.34.36-.22.6-.48.71-.77v-1.17h-1.41c-.52,0-.92.13-1.22.38-.29.26-.44.56-.44.9,0,.3.1.54.3.72.2.18.48.27.85.27Z"/><path class="cls-4" d="m173.92,126.91h1.35v1.44h-1.35v2.37h-1.77v-2.37h-4.46l-.04-1.09,4.45-7.21h1.82v6.86Zm-4.54,0h2.77v-4.35h-.04s-.17.4-.17.4l-2.56,3.95Z"/><path class="cls-4" d="m181.48,126.91h1.35v1.44h-1.35v2.37h-1.77v-2.37h-4.46l-.04-1.09,4.45-7.21h1.82v6.86Zm-4.54,0h2.77v-4.35h-.04s-.17.4-.17.4l-2.56,3.95Z"/><path class="cls-4" d="m184.95,130.48l-1.13,2.29h-1.13l.51-2.35v-1.45h1.75v1.52Z"/><path class="cls-4" d="m192.47,126.89c0,1.23-.32,2.2-.95,2.91-.63.71-1.48,1.06-2.54,1.06s-1.91-.36-2.55-1.07c-.64-.71-.96-1.68-.96-2.9v-3.02c0-1.23.32-2.19.95-2.91s1.48-1.07,2.54-1.07,1.91.36,2.54,1.07c.64.71.96,1.68.96,2.91v3.02Zm-1.78-3.29c0-.71-.15-1.27-.45-1.67-.3-.4-.73-.6-1.27-.6s-.97.2-1.27.6c-.3.4-.45.96-.45,1.67v3.55c0,.72.15,1.29.46,1.69.3.4.73.6,1.27.6s.97-.2,1.26-.6c.3-.4.44-.96.44-1.69v-3.55Z"/><path class="cls-4" d="m200.04,126.89c0,1.23-.32,2.2-.95,2.91-.63.71-1.48,1.06-2.54,1.06s-1.91-.36-2.55-1.07c-.64-.71-.96-1.68-.96-2.9v-3.02c0-1.23.32-2.19.95-2.91s1.48-1.07,2.54-1.07,1.91.36,2.54,1.07c.64.71.96,1.68.96,2.91v3.02Zm-1.78-3.29c0-.71-.15-1.27-.45-1.67-.3-.4-.73-.6-1.27-.6s-.97.2-1.27.6c-.3.4-.45.96-.45,1.67v3.55c0,.72.15,1.29.46,1.69.3.4.73.6,1.27.6s.97-.2,1.26-.6c.3-.4.44-.96.44-1.69v-3.55Z"/><path class="cls-4" d="m128.48,144.82h1.35v1.44h-1.35v2.37h-1.77v-2.37h-4.46l-.04-1.09,4.45-7.21h1.82v6.86Zm-4.54,0h2.77v-4.35h-.04s-.17.4-.17.4l-2.56,3.95Z"/><path class="cls-4" d="m136.05,144.82h1.35v1.44h-1.35v2.37h-1.77v-2.37h-4.46l-.04-1.09,4.45-7.21h1.82v6.86Zm-4.54,0h2.77v-4.35h-.04s-.17.4-.17.4l-2.56,3.95Z"/><path class="cls-4" d="m139.52,148.39l-1.13,2.29h-1.13l.51-2.35v-1.45h1.75v1.52Z"/><path class="cls-4" d="m147.04,144.8c0,1.23-.32,2.2-.95,2.91-.63.71-1.48,1.06-2.54,1.06s-1.91-.36-2.55-1.07c-.64-.71-.96-1.68-.96-2.9v-3.02c0-1.23.32-2.19.95-2.91s1.48-1.07,2.54-1.07,1.91.36,2.54,1.07c.64.71.96,1.68.96,2.91v3.02Zm-1.78-3.29c0-.71-.15-1.27-.45-1.67-.3-.4-.73-.6-1.27-.6s-.97.2-1.27.6c-.3.4-.45.96-.45,1.67v3.55c0,.72.15,1.29.46,1.69.3.4.73.6,1.27.6s.97-.2,1.26-.6c.3-.4.44-.96.44-1.69v-3.55Z"/><path class="cls-4" d="m154.6,144.8c0,1.23-.32,2.2-.95,2.91-.63.71-1.48,1.06-2.54,1.06s-1.91-.36-2.55-1.07c-.64-.71-.96-1.68-.96-2.9v-3.02c0-1.23.32-2.19.95-2.91s1.48-1.07,2.54-1.07,1.91.36,2.54,1.07c.64.71.96,1.68.96,2.91v3.02Zm-1.78-3.29c0-.71-.15-1.27-.45-1.67-.3-.4-.73-.6-1.27-.6s-.97.2-1.27.6c-.3.4-.45.96-.45,1.67v3.55c0,.72.15,1.29.46,1.69.3.4.73.6,1.27.6s.97-.2,1.26-.6c.3-.4.44-.96.44-1.69v-3.55Z"/><path class="cls-4" d="m162.9,148.62c-.06-.2-.12-.4-.16-.59-.04-.19-.07-.38-.08-.57-.24.37-.56.68-.96.93-.4.25-.85.38-1.34.38-.83,0-1.46-.21-1.9-.64-.44-.42-.66-1.01-.66-1.75s.3-1.36.91-1.79c.61-.43,1.46-.64,2.56-.64h1.38v-.7c0-.42-.12-.74-.36-.97-.24-.23-.59-.35-1.05-.35-.41,0-.73.1-.97.29-.24.19-.36.44-.36.75h-1.71s0-.04,0-.04c-.03-.62.25-1.18.84-1.66.59-.48,1.37-.73,2.32-.73s1.67.23,2.23.7.85,1.14.85,2.02v3.52c0,.33.02.64.07.94.04.3.11.59.21.88h-1.8Zm-2.18-1.27c.44,0,.85-.11,1.21-.34.36-.22.6-.48.71-.77v-1.17h-1.41c-.52,0-.92.13-1.22.38-.29.26-.44.56-.44.9,0,.3.1.54.3.72.2.18.48.27.85.27Z"/><path class="cls-4" d="m173.92,144.82h1.35v1.44h-1.35v2.37h-1.77v-2.37h-4.46l-.04-1.09,4.45-7.21h1.82v6.86Zm-4.54,0h2.77v-4.35h-.04s-.17.4-.17.4l-2.56,3.95Z"/><path class="cls-4" d="m182.29,140.71c0,.54-.14,1.01-.43,1.42-.29.41-.68.73-1.17.96.59.23,1.05.57,1.4,1.02.35.45.52.97.52,1.55,0,.99-.33,1.76-.99,2.3-.66.54-1.5.81-2.52.81-1.08,0-1.97-.27-2.66-.81-.69-.54-1.03-1.31-1.03-2.3,0-.59.18-1.1.54-1.55.36-.45.85-.79,1.46-1.02-.52-.22-.93-.54-1.22-.96-.3-.41-.45-.89-.45-1.42,0-.94.31-1.66.92-2.16s1.42-.75,2.42-.75c.94,0,1.71.25,2.31.75.6.5.9,1.22.9,2.16Zm-1.45,4.88c0-.52-.17-.95-.5-1.29-.34-.33-.75-.5-1.25-.5-.55,0-1,.17-1.35.5-.36.33-.54.76-.54,1.29s.18.96.53,1.28c.35.32.81.48,1.37.48.5,0,.91-.16,1.25-.48.33-.32.5-.75.5-1.28Zm-.33-4.82c0-.46-.13-.83-.4-1.12-.27-.29-.61-.43-1.03-.43-.47,0-.85.14-1.13.41-.29.28-.43.65-.43,1.13s.15.87.44,1.16c.29.3.67.44,1.13.44.41,0,.75-.15,1.01-.44.27-.29.4-.68.4-1.16Z"/><path class="cls-4" d="m184.95,148.39l-1.13,2.29h-1.13l.51-2.35v-1.45h1.75v1.52Z"/><path class="cls-4" d="m192.47,144.8c0,1.23-.32,2.2-.95,2.91-.63.71-1.48,1.06-2.54,1.06s-1.91-.36-2.55-1.07c-.64-.71-.96-1.68-.96-2.9v-3.02c0-1.23.32-2.19.95-2.91s1.48-1.07,2.54-1.07,1.91.36,2.54,1.07c.64.71.96,1.68.96,2.91v3.02Zm-1.78-3.29c0-.71-.15-1.27-.45-1.67-.3-.4-.73-.6-1.27-.6s-.97.2-1.27.6c-.3.4-.45.96-.45,1.67v3.55c0,.72.15,1.29.46,1.69.3.4.73.6,1.27.6s.97-.2,1.26-.6c.3-.4.44-.96.44-1.69v-3.55Z"/><path class="cls-4" d="m200.04,144.8c0,1.23-.32,2.2-.95,2.91-.63.71-1.48,1.06-2.54,1.06s-1.91-.36-2.55-1.07c-.64-.71-.96-1.68-.96-2.9v-3.02c0-1.23.32-2.19.95-2.91s1.48-1.07,2.54-1.07,1.91.36,2.54,1.07c.64.71.96,1.68.96,2.91v3.02Zm-1.78-3.29c0-.71-.15-1.27-.45-1.67-.3-.4-.73-.6-1.27-.6s-.97.2-1.27.6c-.3.4-.45.96-.45,1.67v3.55c0,.72.15,1.29.46,1.69.3.4.73.6,1.27.6s.97-.2,1.26-.6c.3-.4.44-.96.44-1.69v-3.55Z"/><path class="cls-4" d="m125.98,168.25c.58,0,.99-.14,1.25-.43s.38-.69.38-1.21c0-.46-.14-.84-.41-1.13-.27-.29-.67-.44-1.19-.44-.48,0-.88.14-1.19.43-.32.29-.48.64-.48,1.07h-1.71v-.04c-.04-.82.27-1.5.92-2.05.65-.55,1.47-.83,2.46-.83,1.04,0,1.86.26,2.46.77.6.51.9,1.25.9,2.23,0,.49-.13.94-.4,1.34-.27.41-.64.73-1.11.96.54.21.96.54,1.25.97.29.43.43.95.43,1.56,0,.98-.33,1.75-.99,2.31s-1.51.84-2.55.84c-.94,0-1.76-.27-2.47-.79-.71-.53-1.05-1.25-1.03-2.17l.02-.04h1.71c0,.45.17.83.5,1.13.33.3.75.46,1.27.46s.96-.16,1.28-.48c.32-.32.48-.73.48-1.23,0-.61-.15-1.06-.44-1.36-.29-.3-.74-.45-1.34-.45h-1.19v-1.4h1.19Z"/><path class="cls-4" d="m136.85,166.52c0,.54-.14,1.01-.43,1.42-.29.41-.68.73-1.17.96.59.23,1.05.57,1.4,1.02.35.45.52.97.52,1.55,0,.99-.33,1.76-.99,2.3-.66.54-1.5.81-2.52.81-1.08,0-1.97-.27-2.66-.81-.69-.54-1.03-1.31-1.03-2.3,0-.59.18-1.1.54-1.55.36-.45.85-.79,1.46-1.02-.52-.22-.93-.54-1.22-.96-.3-.41-.45-.89-.45-1.42,0-.94.31-1.66.92-2.16s1.42-.75,2.42-.75c.94,0,1.71.25,2.31.75.6.5.9,1.22.9,2.16Zm-1.45,4.88c0-.52-.17-.95-.5-1.29-.34-.33-.75-.5-1.25-.5-.55,0-1,.17-1.35.5-.36.33-.54.76-.54,1.29s.18.96.53,1.28c.35.32.81.48,1.37.48.5,0,.91-.16,1.25-.48.33-.32.5-.75.5-1.28Zm-.33-4.82c0-.46-.13-.83-.4-1.12-.27-.29-.61-.43-1.03-.43-.47,0-.85.14-1.13.41-.29.28-.43.65-.43,1.13s.15.87.44,1.16c.29.3.67.44,1.13.44.41,0,.75-.15,1.01-.44.27-.29.4-.68.4-1.16Z"/><path class="cls-4" d="m139.52,174.21l-1.13,2.29h-1.13l.51-2.35v-1.45h1.75v1.52Z"/><path class="cls-4" d="m147.04,170.62c0,1.23-.32,2.2-.95,2.91-.63.71-1.48,1.06-2.54,1.06s-1.91-.36-2.55-1.07c-.64-.71-.96-1.68-.96-2.9v-3.02c0-1.23.32-2.19.95-2.91s1.48-1.07,2.54-1.07,1.91.36,2.54,1.07c.64.71.96,1.68.96,2.91v3.02Zm-1.78-3.29c0-.71-.15-1.27-.45-1.67-.3-.4-.73-.6-1.27-.6s-.97.2-1.27.6c-.3.4-.45.96-.45,1.67v3.55c0,.72.15,1.29.46,1.69.3.4.73.6,1.27.6s.97-.2,1.26-.6c.3-.4.44-.96.44-1.69v-3.55Z"/><path class="cls-4" d="m154.6,170.62c0,1.23-.32,2.2-.95,2.91-.63.71-1.48,1.06-2.54,1.06s-1.91-.36-2.55-1.07c-.64-.71-.96-1.68-.96-2.9v-3.02c0-1.23.32-2.19.95-2.91s1.48-1.07,2.54-1.07,1.91.36,2.54,1.07c.64.71.96,1.68.96,2.91v3.02Zm-1.78-3.29c0-.71-.15-1.27-.45-1.67-.3-.4-.73-.6-1.27-.6s-.97.2-1.27.6c-.3.4-.45.96-.45,1.67v3.55c0,.72.15,1.29.46,1.69.3.4.73.6,1.27.6s.97-.2,1.26-.6c.3-.4.44-.96.44-1.69v-3.55Z"/><path class="cls-4" d="m162.9,174.43c-.06-.2-.12-.4-.16-.59-.04-.19-.07-.38-.08-.57-.24.37-.56.68-.96.93-.4.25-.85.38-1.34.38-.83,0-1.46-.21-1.9-.64-.44-.42-.66-1.01-.66-1.75s.3-1.36.91-1.79c.61-.43,1.46-.64,2.56-.64h1.38v-.7c0-.42-.12-.74-.36-.97-.24-.23-.59-.35-1.05-.35-.41,0-.73.1-.97.29-.24.19-.36.44-.36.75h-1.71s0-.04,0-.04c-.03-.62.25-1.18.84-1.66.59-.48,1.37-.73,2.32-.73s1.67.23,2.23.7.85,1.14.85,2.02v3.52c0,.33.02.64.07.94.04.3.11.59.21.88h-1.8Zm-2.18-1.27c.44,0,.85-.11,1.21-.34.36-.22.6-.48.71-.77v-1.17h-1.41c-.52,0-.92.13-1.22.38-.29.26-.44.56-.44.9,0,.3.1.54.3.72.2.18.48.27.85.27Z"/><path class="cls-4" d="m173.92,170.63h1.35v1.44h-1.35v2.37h-1.77v-2.37h-4.46l-.04-1.09,4.45-7.21h1.82v6.86Zm-4.54,0h2.77v-4.35h-.04s-.17.4-.17.4l-2.56,3.95Z"/><path class="cls-4" d="m180.23,174.43h-1.78v-9.02h-2.26v-1.41l4.04-.38v10.82Z"/><path class="cls-4" d="m184.95,174.21l-1.13,2.29h-1.13l.51-2.35v-1.45h1.75v1.52Z"/><path class="cls-4" d="m192.47,170.62c0,1.23-.32,2.2-.95,2.91-.63.71-1.48,1.06-2.54,1.06s-1.91-.36-2.55-1.07c-.64-.71-.96-1.68-.96-2.9v-3.02c0-1.23.32-2.19.95-2.91s1.48-1.07,2.54-1.07,1.91.36,2.54,1.07c.64.71.96,1.68.96,2.91v3.02Zm-1.78-3.29c0-.71-.15-1.27-.45-1.67-.3-.4-.73-.6-1.27-.6s-.97.2-1.27.6c-.3.4-.45.96-.45,1.67v3.55c0,.72.15,1.29.46,1.69.3.4.73.6,1.27.6s.97-.2,1.26-.6c.3-.4.44-.96.44-1.69v-3.55Z"/><path class="cls-4" d="m200.04,170.62c0,1.23-.32,2.2-.95,2.91-.63.71-1.48,1.06-2.54,1.06s-1.91-.36-2.55-1.07c-.64-.71-.96-1.68-.96-2.9v-3.02c0-1.23.32-2.19.95-2.91s1.48-1.07,2.54-1.07,1.91.36,2.54,1.07c.64.71.96,1.68.96,2.91v3.02Zm-1.78-3.29c0-.71-.15-1.27-.45-1.67-.3-.4-.73-.6-1.27-.6s-.97.2-1.27.6c-.3.4-.45.96-.45,1.67v3.55c0,.72.15,1.29.46,1.69.3.4.73.6,1.27.6s.97-.2,1.26-.6c.3-.4.44-.96.44-1.69v-3.55Z"/><path class="cls-4" d="m128.48,192.07h1.35v1.44h-1.35v2.37h-1.77v-2.37h-4.46l-.04-1.09,4.45-7.21h1.82v6.86Zm-4.54,0h2.77v-4.35h-.04s-.17.4-.17.4l-2.56,3.95Z"/><path class="cls-4" d="m134.79,195.87h-1.78v-9.02h-2.26v-1.41l4.04-.38v10.82Z"/><path class="cls-4" d="m139.52,195.64l-1.13,2.29h-1.13l.51-2.35v-1.45h1.75v1.52Z"/><path class="cls-4" d="m147.04,192.05c0,1.23-.32,2.2-.95,2.91-.63.71-1.48,1.06-2.54,1.06s-1.91-.36-2.55-1.07c-.64-.71-.96-1.68-.96-2.9v-3.02c0-1.23.32-2.19.95-2.91s1.48-1.07,2.54-1.07,1.91.36,2.54,1.07c.64.71.96,1.68.96,2.91v3.02Zm-1.78-3.29c0-.71-.15-1.27-.45-1.67-.3-.4-.73-.6-1.27-.6s-.97.2-1.27.6c-.3.4-.45.96-.45,1.67v3.55c0,.72.15,1.29.46,1.69.3.4.73.6,1.27.6s.97-.2,1.26-.6c.3-.4.44-.96.44-1.69v-3.55Z"/><path class="cls-4" d="m154.6,192.05c0,1.23-.32,2.2-.95,2.91-.63.71-1.48,1.06-2.54,1.06s-1.91-.36-2.55-1.07c-.64-.71-.96-1.68-.96-2.9v-3.02c0-1.23.32-2.19.95-2.91s1.48-1.07,2.54-1.07,1.91.36,2.54,1.07c.64.71.96,1.68.96,2.91v3.02Zm-1.78-3.29c0-.71-.15-1.27-.45-1.67-.3-.4-.73-.6-1.27-.6s-.97.2-1.27.6c-.3.4-.45.96-.45,1.67v3.55c0,.72.15,1.29.46,1.69.3.4.73.6,1.27.6s.97-.2,1.26-.6c.3-.4.44-.96.44-1.69v-3.55Z"/><path class="cls-4" d="m162.9,195.87c-.06-.2-.12-.4-.16-.59-.04-.19-.07-.38-.08-.57-.24.37-.56.68-.96.93-.4.25-.85.38-1.34.38-.83,0-1.46-.21-1.9-.64-.44-.42-.66-1.01-.66-1.75s.3-1.36.91-1.79c.61-.43,1.46-.64,2.56-.64h1.38v-.7c0-.42-.12-.74-.36-.97-.24-.23-.59-.35-1.05-.35-.41,0-.73.1-.97.29-.24.19-.36.44-.36.75h-1.71s0-.04,0-.04c-.03-.62.25-1.18.84-1.66.59-.48,1.37-.73,2.32-.73s1.67.23,2.23.7.85,1.14.85,2.02v3.52c0,.33.02.64.07.94.04.3.11.59.21.88h-1.8Zm-2.18-1.27c.44,0,.85-.11,1.21-.34.36-.22.6-.48.71-.77v-1.17h-1.41c-.52,0-.92.13-1.22.38-.29.26-.44.56-.44.9,0,.3.1.54.3.72.2.18.48.27.85.27Z"/><path class="cls-4" d="m173.92,192.07h1.35v1.44h-1.35v2.37h-1.77v-2.37h-4.46l-.04-1.09,4.45-7.21h1.82v6.86Zm-4.54,0h2.77v-4.35h-.04s-.17.4-.17.4l-2.56,3.95Z"/><path class="cls-4" d="m181.48,192.07h1.35v1.44h-1.35v2.37h-1.77v-2.37h-4.46l-.04-1.09,4.45-7.21h1.82v6.86Zm-4.54,0h2.77v-4.35h-.04s-.17.4-.17.4l-2.56,3.95Z"/><path class="cls-4" d="m184.95,195.64l-1.13,2.29h-1.13l.51-2.35v-1.45h1.75v1.52Z"/><path class="cls-4" d="m192.47,192.05c0,1.23-.32,2.2-.95,2.91-.63.71-1.48,1.06-2.54,1.06s-1.91-.36-2.55-1.07c-.64-.71-.96-1.68-.96-2.9v-3.02c0-1.23.32-2.19.95-2.91s1.48-1.07,2.54-1.07,1.91.36,2.54,1.07c.64.71.96,1.68.96,2.91v3.02Zm-1.78-3.29c0-.71-.15-1.27-.45-1.67-.3-.4-.73-.6-1.27-.6s-.97.2-1.27.6c-.3.4-.45.96-.45,1.67v3.55c0,.72.15,1.29.46,1.69.3.4.73.6,1.27.6s.97-.2,1.26-.6c.3-.4.44-.96.44-1.69v-3.55Z"/><path class="cls-4" d="m200.04,192.05c0,1.23-.32,2.2-.95,2.91-.63.71-1.48,1.06-2.54,1.06s-1.91-.36-2.55-1.07c-.64-.71-.96-1.68-.96-2.9v-3.02c0-1.23.32-2.19.95-2.91s1.48-1.07,2.54-1.07,1.91.36,2.54,1.07c.64.71.96,1.68.96,2.91v3.02Zm-1.78-3.29c0-.71-.15-1.27-.45-1.67-.3-.4-.73-.6-1.27-.6s-.97.2-1.27.6c-.3.4-.45.96-.45,1.67v3.55c0,.72.15,1.29.46,1.69.3.4.73.6,1.27.6s.97-.2,1.26-.6c.3-.4.44-.96.44-1.69v-3.55Z"/><path class="cls-4" d="m128.48,209.98h1.35v1.44h-1.35v2.37h-1.77v-2.37h-4.46l-.04-1.09,4.45-7.21h1.82v6.86Zm-4.54,0h2.77v-4.35h-.04s-.17.4-.17.4l-2.56,3.95Z"/><path class="cls-4" d="m136.05,209.98h1.35v1.44h-1.35v2.37h-1.77v-2.37h-4.46l-.04-1.09,4.45-7.21h1.82v6.86Zm-4.54,0h2.77v-4.35h-.04s-.17.4-.17.4l-2.56,3.95Z"/><path class="cls-4" d="m139.52,213.55l-1.13,2.29h-1.13l.51-2.35v-1.45h1.75v1.52Z"/><path class="cls-4" d="m147.04,209.96c0,1.23-.32,2.2-.95,2.91-.63.71-1.48,1.06-2.54,1.06s-1.91-.36-2.55-1.07c-.64-.71-.96-1.68-.96-2.9v-3.02c0-1.23.32-2.19.95-2.91s1.48-1.07,2.54-1.07,1.91.36,2.54,1.07c.64.71.96,1.68.96,2.91v3.02Zm-1.78-3.29c0-.71-.15-1.27-.45-1.67-.3-.4-.73-.6-1.27-.6s-.97.2-1.27.6c-.3.4-.45.96-.45,1.67v3.55c0,.72.15,1.29.46,1.69.3.4.73.6,1.27.6s.97-.2,1.26-.6c.3-.4.44-.96.44-1.69v-3.55Z"/><path class="cls-4" d="m154.6,209.96c0,1.23-.32,2.2-.95,2.91-.63.71-1.48,1.06-2.54,1.06s-1.91-.36-2.55-1.07c-.64-.71-.96-1.68-.96-2.9v-3.02c0-1.23.32-2.19.95-2.91s1.48-1.07,2.54-1.07,1.91.36,2.54,1.07c.64.71.96,1.68.96,2.91v3.02Zm-1.78-3.29c0-.71-.15-1.27-.45-1.67-.3-.4-.73-.6-1.27-.6s-.97.2-1.27.6c-.3.4-.45.96-.45,1.67v3.55c0,.72.15,1.29.46,1.69.3.4.73.6,1.27.6s.97-.2,1.26-.6c.3-.4.44-.96.44-1.69v-3.55Z"/><path class="cls-4" d="m162.9,213.78c-.06-.2-.12-.4-.16-.59-.04-.19-.07-.38-.08-.57-.24.37-.56.68-.96.93-.4.25-.85.38-1.34.38-.83,0-1.46-.21-1.9-.64-.44-.42-.66-1.01-.66-1.75s.3-1.36.91-1.79c.61-.43,1.46-.64,2.56-.64h1.38v-.7c0-.42-.12-.74-.36-.97-.24-.23-.59-.35-1.05-.35-.41,0-.73.1-.97.29-.24.19-.36.44-.36.75h-1.71s0-.04,0-.04c-.03-.62.25-1.18.84-1.66.59-.48,1.37-.73,2.32-.73s1.67.23,2.23.7.85,1.14.85,2.02v3.52c0,.33.02.64.07.94.04.3.11.59.21.88h-1.8Zm-2.18-1.27c.44,0,.85-.11,1.21-.34.36-.22.6-.48.71-.77v-1.17h-1.41c-.52,0-.92.13-1.22.38-.29.26-.44.56-.44.9,0,.3.1.54.3.72.2.18.48.27.85.27Z"/><path class="cls-4" d="m173.92,209.98h1.35v1.44h-1.35v2.37h-1.77v-2.37h-4.46l-.04-1.09,4.45-7.21h1.82v6.86Zm-4.54,0h2.77v-4.35h-.04s-.17.4-.17.4l-2.56,3.95Z"/><path class="cls-4" d="m182.29,205.87c0,.54-.14,1.01-.43,1.42-.29.41-.68.73-1.17.96.59.23,1.05.57,1.4,1.02.35.45.52.97.52,1.55,0,.99-.33,1.76-.99,2.3-.66.54-1.5.81-2.52.81-1.08,0-1.97-.27-2.66-.81-.69-.54-1.03-1.31-1.03-2.3,0-.59.18-1.1.54-1.55.36-.45.85-.79,1.46-1.02-.52-.22-.93-.54-1.22-.96-.3-.41-.45-.89-.45-1.42,0-.94.31-1.66.92-2.16s1.42-.75,2.42-.75c.94,0,1.71.25,2.31.75.6.5.9,1.22.9,2.16Zm-1.45,4.88c0-.52-.17-.95-.5-1.29-.34-.33-.75-.5-1.25-.5-.55,0-1,.17-1.35.5-.36.33-.54.76-.54,1.29s.18.96.53,1.28c.35.32.81.48,1.37.48.5,0,.91-.16,1.25-.48.33-.32.5-.75.5-1.28Zm-.33-4.82c0-.46-.13-.83-.4-1.12-.27-.29-.61-.43-1.03-.43-.47,0-.85.14-1.13.41-.29.28-.43.65-.43,1.13s.15.87.44,1.16c.29.3.67.44,1.13.44.41,0,.75-.15,1.01-.44.27-.29.4-.68.4-1.16Z"/><path class="cls-4" d="m184.95,213.55l-1.13,2.29h-1.13l.51-2.35v-1.45h1.75v1.52Z"/><path class="cls-4" d="m192.47,209.96c0,1.23-.32,2.2-.95,2.91-.63.71-1.48,1.06-2.54,1.06s-1.91-.36-2.55-1.07c-.64-.71-.96-1.68-.96-2.9v-3.02c0-1.23.32-2.19.95-2.91s1.48-1.07,2.54-1.07,1.91.36,2.54,1.07c.64.71.96,1.68.96,2.91v3.02Zm-1.78-3.29c0-.71-.15-1.27-.45-1.67-.3-.4-.73-.6-1.27-.6s-.97.2-1.27.6c-.3.4-.45.96-.45,1.67v3.55c0,.72.15,1.29.46,1.69.3.4.73.6,1.27.6s.97-.2,1.26-.6c.3-.4.44-.96.44-1.69v-3.55Z"/><path class="cls-4" d="m200.04,209.96c0,1.23-.32,2.2-.95,2.91-.63.71-1.48,1.06-2.54,1.06s-1.91-.36-2.55-1.07c-.64-.71-.96-1.68-.96-2.9v-3.02c0-1.23.32-2.19.95-2.91s1.48-1.07,2.54-1.07,1.91.36,2.54,1.07c.64.71.96,1.68.96,2.91v3.02Zm-1.78-3.29c0-.71-.15-1.27-.45-1.67-.3-.4-.73-.6-1.27-.6s-.97.2-1.27.6c-.3.4-.45.96-.45,1.67v3.55c0,.72.15,1.29.46,1.69.3.4.73.6,1.27.6s.97-.2,1.26-.6c.3-.4.44-.96.44-1.69v-3.55Z"/><path class="cls-4" d="m125.98,236.95c.58,0,.99-.14,1.25-.43s.38-.69.38-1.21c0-.46-.14-.84-.41-1.13-.27-.29-.67-.44-1.19-.44-.48,0-.88.14-1.19.43-.32.29-.48.64-.48,1.07h-1.71v-.04c-.04-.82.27-1.5.92-2.05.65-.55,1.47-.83,2.46-.83,1.04,0,1.86.26,2.46.77.6.51.9,1.25.9,2.23,0,.49-.13.94-.4,1.34-.27.41-.64.73-1.11.96.54.21.96.54,1.25.97.29.43.43.95.43,1.56,0,.98-.33,1.75-.99,2.31s-1.51.84-2.55.84c-.94,0-1.76-.27-2.47-.79-.71-.53-1.05-1.25-1.03-2.17l.02-.04h1.71c0,.45.17.83.5,1.13.33.3.75.46,1.27.46s.96-.16,1.28-.48c.32-.32.48-.73.48-1.23,0-.61-.15-1.06-.44-1.36-.29-.3-.74-.45-1.34-.45h-1.19v-1.4h1.19Z"/><path class="cls-4" d="m136.85,235.23c0,.54-.14,1.01-.43,1.42-.29.41-.68.73-1.17.96.59.23,1.05.57,1.4,1.02.35.45.52.97.52,1.55,0,.99-.33,1.76-.99,2.3-.66.54-1.5.81-2.52.81-1.08,0-1.97-.27-2.66-.81-.69-.54-1.03-1.31-1.03-2.3,0-.59.18-1.1.54-1.55.36-.45.85-.79,1.46-1.02-.52-.22-.93-.54-1.22-.96-.3-.41-.45-.89-.45-1.42,0-.94.31-1.66.92-2.16s1.42-.75,2.42-.75c.94,0,1.71.25,2.31.75.6.5.9,1.22.9,2.16Zm-1.45,4.88c0-.52-.17-.95-.5-1.29-.34-.33-.75-.5-1.25-.5-.55,0-1,.17-1.35.5-.36.33-.54.76-.54,1.29s.18.96.53,1.28c.35.32.81.48,1.37.48.5,0,.91-.16,1.25-.48.33-.32.5-.75.5-1.28Zm-.33-4.82c0-.46-.13-.83-.4-1.12-.27-.29-.61-.43-1.03-.43-.47,0-.85.14-1.13.41-.29.28-.43.65-.43,1.13s.15.87.44,1.16c.29.3.67.44,1.13.44.41,0,.75-.15,1.01-.44.27-.29.4-.68.4-1.16Z"/><path class="cls-4" d="m139.52,242.91l-1.13,2.29h-1.13l.51-2.35v-1.45h1.75v1.52Z"/><path class="cls-4" d="m147.04,239.32c0,1.23-.32,2.2-.95,2.91-.63.71-1.48,1.06-2.54,1.06s-1.91-.36-2.55-1.07c-.64-.71-.96-1.68-.96-2.9v-3.02c0-1.23.32-2.19.95-2.91s1.48-1.07,2.54-1.07,1.91.36,2.54,1.07c.64.71.96,1.68.96,2.91v3.02Zm-1.78-3.29c0-.71-.15-1.27-.45-1.67-.3-.4-.73-.6-1.27-.6s-.97.2-1.27.6c-.3.4-.45.96-.45,1.67v3.55c0,.72.15,1.29.46,1.69.3.4.73.6,1.27.6s.97-.2,1.26-.6c.3-.4.44-.96.44-1.69v-3.55Z"/><path class="cls-4" d="m154.6,239.32c0,1.23-.32,2.2-.95,2.91-.63.71-1.48,1.06-2.54,1.06s-1.91-.36-2.55-1.07c-.64-.71-.96-1.68-.96-2.9v-3.02c0-1.23.32-2.19.95-2.91s1.48-1.07,2.54-1.07,1.91.36,2.54,1.07c.64.71.96,1.68.96,2.91v3.02Zm-1.78-3.29c0-.71-.15-1.27-.45-1.67-.3-.4-.73-.6-1.27-.6s-.97.2-1.27.6c-.3.4-.45.96-.45,1.67v3.55c0,.72.15,1.29.46,1.69.3.4.73.6,1.27.6s.97-.2,1.26-.6c.3-.4.44-.96.44-1.69v-3.55Z"/><path class="cls-4" d="m162.9,243.14c-.06-.2-.12-.4-.16-.59-.04-.19-.07-.38-.08-.57-.24.37-.56.68-.96.93-.4.25-.85.38-1.34.38-.83,0-1.46-.21-1.9-.64-.44-.42-.66-1.01-.66-1.75s.3-1.36.91-1.79c.61-.43,1.46-.64,2.56-.64h1.38v-.7c0-.42-.12-.74-.36-.97-.24-.23-.59-.35-1.05-.35-.41,0-.73.1-.97.29-.24.19-.36.44-.36.75h-1.71s0-.04,0-.04c-.03-.62.25-1.18.84-1.66.59-.48,1.37-.73,2.32-.73s1.67.23,2.23.7.85,1.14.85,2.02v3.52c0,.33.02.64.07.94.04.3.11.59.21.88h-1.8Zm-2.18-1.27c.44,0,.85-.11,1.21-.34.36-.22.6-.48.71-.77v-1.17h-1.41c-.52,0-.92.13-1.22.38-.29.26-.44.56-.44.9,0,.3.1.54.3.72.2.18.48.27.85.27Z"/><path class="cls-4" d="m173.92,239.33h1.35v1.44h-1.35v2.37h-1.77v-2.37h-4.46l-.04-1.09,4.45-7.21h1.82v6.86Zm-4.54,0h2.77v-4.35h-.04s-.17.4-.17.4l-2.56,3.95Z"/><path class="cls-4" d="m180.23,243.14h-1.78v-9.02h-2.26v-1.41l4.04-.38v10.82Z"/><path class="cls-4" d="m184.95,242.91l-1.13,2.29h-1.13l.51-2.35v-1.45h1.75v1.52Z"/><path class="cls-4" d="m192.47,239.32c0,1.23-.32,2.2-.95,2.91-.63.71-1.48,1.06-2.54,1.06s-1.91-.36-2.55-1.07c-.64-.71-.96-1.68-.96-2.9v-3.02c0-1.23.32-2.19.95-2.91s1.48-1.07,2.54-1.07,1.91.36,2.54,1.07c.64.71.96,1.68.96,2.91v3.02Zm-1.78-3.29c0-.71-.15-1.27-.45-1.67-.3-.4-.73-.6-1.27-.6s-.97.2-1.27.6c-.3.4-.45.96-.45,1.67v3.55c0,.72.15,1.29.46,1.69.3.4.73.6,1.27.6s.97-.2,1.26-.6c.3-.4.44-.96.44-1.69v-3.55Z"/><path class="cls-4" d="m200.04,239.32c0,1.23-.32,2.2-.95,2.91-.63.71-1.48,1.06-2.54,1.06s-1.91-.36-2.55-1.07c-.64-.71-.96-1.68-.96-2.9v-3.02c0-1.23.32-2.19.95-2.91s1.48-1.07,2.54-1.07,1.91.36,2.54,1.07c.64.71.96,1.68.96,2.91v3.02Zm-1.78-3.29c0-.71-.15-1.27-.45-1.67-.3-.4-.73-.6-1.27-.6s-.97.2-1.27.6c-.3.4-.45.96-.45,1.67v3.55c0,.72.15,1.29.46,1.69.3.4.73.6,1.27.6s.97-.2,1.26-.6c.3-.4.44-.96.44-1.69v-3.55Z"/><path class="cls-4" d="m128.48,257.23h1.35v1.44h-1.35v2.37h-1.77v-2.37h-4.46l-.04-1.09,4.45-7.21h1.82v6.86Zm-4.54,0h2.77v-4.35h-.04s-.17.4-.17.4l-2.56,3.95Z"/><path class="cls-4" d="m134.79,261.03h-1.78v-9.02h-2.26v-1.41l4.04-.38v10.82Z"/><path class="cls-4" d="m139.52,260.8l-1.13,2.29h-1.13l.51-2.35v-1.45h1.75v1.52Z"/><path class="cls-4" d="m147.04,257.21c0,1.23-.32,2.2-.95,2.91-.63.71-1.48,1.06-2.54,1.06s-1.91-.36-2.55-1.07c-.64-.71-.96-1.68-.96-2.9v-3.02c0-1.23.32-2.19.95-2.91s1.48-1.07,2.54-1.07,1.91.36,2.54,1.07c.64.71.96,1.68.96,2.91v3.02Zm-1.78-3.29c0-.71-.15-1.27-.45-1.67-.3-.4-.73-.6-1.27-.6s-.97.2-1.27.6c-.3.4-.45.96-.45,1.67v3.55c0,.72.15,1.29.46,1.69.3.4.73.6,1.27.6s.97-.2,1.26-.6c.3-.4.44-.96.44-1.69v-3.55Z"/><path class="cls-4" d="m154.6,257.21c0,1.23-.32,2.2-.95,2.91-.63.71-1.48,1.06-2.54,1.06s-1.91-.36-2.55-1.07c-.64-.71-.96-1.68-.96-2.9v-3.02c0-1.23.32-2.19.95-2.91s1.48-1.07,2.54-1.07,1.91.36,2.54,1.07c.64.71.96,1.68.96,2.91v3.02Zm-1.78-3.29c0-.71-.15-1.27-.45-1.67-.3-.4-.73-.6-1.27-.6s-.97.2-1.27.6c-.3.4-.45.96-.45,1.67v3.55c0,.72.15,1.29.46,1.69.3.4.73.6,1.27.6s.97-.2,1.26-.6c.3-.4.44-.96.44-1.69v-3.55Z"/><path class="cls-4" d="m162.9,261.03c-.06-.2-.12-.4-.16-.59-.04-.19-.07-.38-.08-.57-.24.37-.56.68-.96.93-.4.25-.85.38-1.34.38-.83,0-1.46-.21-1.9-.64-.44-.42-.66-1.01-.66-1.75s.3-1.36.91-1.79c.61-.43,1.46-.64,2.56-.64h1.38v-.7c0-.42-.12-.74-.36-.97-.24-.23-.59-.35-1.05-.35-.41,0-.73.1-.97.29-.24.19-.36.44-.36.75h-1.71s0-.04,0-.04c-.03-.62.25-1.18.84-1.66.59-.48,1.37-.73,2.32-.73s1.67.23,2.23.7.85,1.14.85,2.02v3.52c0,.33.02.64.07.94.04.3.11.59.21.88h-1.8Zm-2.18-1.27c.44,0,.85-.11,1.21-.34.36-.22.6-.48.71-.77v-1.17h-1.41c-.52,0-.92.13-1.22.38-.29.26-.44.56-.44.9,0,.3.1.54.3.72.2.18.48.27.85.27Z"/><path class="cls-4" d="m173.92,257.23h1.35v1.44h-1.35v2.37h-1.77v-2.37h-4.46l-.04-1.09,4.45-7.21h1.82v6.86Zm-4.54,0h2.77v-4.35h-.04s-.17.4-.17.4l-2.56,3.95Z"/><path class="cls-4" d="m181.48,257.23h1.35v1.44h-1.35v2.37h-1.77v-2.37h-4.46l-.04-1.09,4.45-7.21h1.82v6.86Zm-4.54,0h2.77v-4.35h-.04s-.17.4-.17.4l-2.56,3.95Z"/><path class="cls-4" d="m184.95,260.8l-1.13,2.29h-1.13l.51-2.35v-1.45h1.75v1.52Z"/><path class="cls-4" d="m192.47,257.21c0,1.23-.32,2.2-.95,2.91-.63.71-1.48,1.06-2.54,1.06s-1.91-.36-2.55-1.07c-.64-.71-.96-1.68-.96-2.9v-3.02c0-1.23.32-2.19.95-2.91s1.48-1.07,2.54-1.07,1.91.36,2.54,1.07c.64.71.96,1.68.96,2.91v3.02Zm-1.78-3.29c0-.71-.15-1.27-.45-1.67-.3-.4-.73-.6-1.27-.6s-.97.2-1.27.6c-.3.4-.45.96-.45,1.67v3.55c0,.72.15,1.29.46,1.69.3.4.73.6,1.27.6s.97-.2,1.26-.6c.3-.4.44-.96.44-1.69v-3.55Z"/><path class="cls-4" d="m200.04,257.21c0,1.23-.32,2.2-.95,2.91-.63.71-1.48,1.06-2.54,1.06s-1.91-.36-2.55-1.07c-.64-.71-.96-1.68-.96-2.9v-3.02c0-1.23.32-2.19.95-2.91s1.48-1.07,2.54-1.07,1.91.36,2.54,1.07c.64.71.96,1.68.96,2.91v3.02Zm-1.78-3.29c0-.71-.15-1.27-.45-1.67-.3-.4-.73-.6-1.27-.6s-.97.2-1.27.6c-.3.4-.45.96-.45,1.67v3.55c0,.72.15,1.29.46,1.69.3.4.73.6,1.27.6s.97-.2,1.26-.6c.3-.4.44-.96.44-1.69v-3.55Z"/><path class="cls-4" d="m128.48,275.14h1.35v1.44h-1.35v2.37h-1.77v-2.37h-4.46l-.04-1.09,4.45-7.21h1.82v6.86Zm-4.54,0h2.77v-4.35h-.04s-.17.4-.17.4l-2.56,3.95Z"/><path class="cls-4" d="m136.05,275.14h1.35v1.44h-1.35v2.37h-1.77v-2.37h-4.46l-.04-1.09,4.45-7.21h1.82v6.86Zm-4.54,0h2.77v-4.35h-.04s-.17.4-.17.4l-2.56,3.95Z"/><path class="cls-4" d="m139.52,278.71l-1.13,2.29h-1.13l.51-2.35v-1.45h1.75v1.52Z"/><path class="cls-4" d="m147.04,275.12c0,1.23-.32,2.2-.95,2.91-.63.71-1.48,1.06-2.54,1.06s-1.91-.36-2.55-1.07c-.64-.71-.96-1.68-.96-2.9v-3.02c0-1.23.32-2.19.95-2.91s1.48-1.07,2.54-1.07,1.91.36,2.54,1.07c.64.71.96,1.68.96,2.91v3.02Zm-1.78-3.29c0-.71-.15-1.27-.45-1.67-.3-.4-.73-.6-1.27-.6s-.97.2-1.27.6c-.3.4-.45.96-.45,1.67v3.55c0,.72.15,1.29.46,1.69.3.4.73.6,1.27.6s.97-.2,1.26-.6c.3-.4.44-.96.44-1.69v-3.55Z"/><path class="cls-4" d="m154.6,275.12c0,1.23-.32,2.2-.95,2.91-.63.71-1.48,1.06-2.54,1.06s-1.91-.36-2.55-1.07c-.64-.71-.96-1.68-.96-2.9v-3.02c0-1.23.32-2.19.95-2.91s1.48-1.07,2.54-1.07,1.91.36,2.54,1.07c.64.71.96,1.68.96,2.91v3.02Zm-1.78-3.29c0-.71-.15-1.27-.45-1.67-.3-.4-.73-.6-1.27-.6s-.97.2-1.27.6c-.3.4-.45.96-.45,1.67v3.55c0,.72.15,1.29.46,1.69.3.4.73.6,1.27.6s.97-.2,1.26-.6c.3-.4.44-.96.44-1.69v-3.55Z"/><path class="cls-4" d="m162.9,278.94c-.06-.2-.12-.4-.16-.59-.04-.19-.07-.38-.08-.57-.24.37-.56.68-.96.93-.4.25-.85.38-1.34.38-.83,0-1.46-.21-1.9-.64-.44-.42-.66-1.01-.66-1.75s.3-1.36.91-1.79c.61-.43,1.46-.64,2.56-.64h1.38v-.7c0-.42-.12-.74-.36-.97-.24-.23-.59-.35-1.05-.35-.41,0-.73.1-.97.29-.24.19-.36.44-.36.75h-1.71s0-.04,0-.04c-.03-.62.25-1.18.84-1.66.59-.48,1.37-.73,2.32-.73s1.67.23,2.23.7.85,1.14.85,2.02v3.52c0,.33.02.64.07.94.04.3.11.59.21.88h-1.8Zm-2.18-1.27c.44,0,.85-.11,1.21-.34.36-.22.6-.48.71-.77v-1.17h-1.41c-.52,0-.92.13-1.22.38-.29.26-.44.56-.44.9,0,.3.1.54.3.72.2.18.48.27.85.27Z"/><path class="cls-4" d="m173.92,275.14h1.35v1.44h-1.35v2.37h-1.77v-2.37h-4.46l-.04-1.09,4.45-7.21h1.82v6.86Zm-4.54,0h2.77v-4.35h-.04s-.17.4-.17.4l-2.56,3.95Z"/><path class="cls-4" d="m182.29,271.03c0,.54-.14,1.01-.43,1.42-.29.41-.68.73-1.17.96.59.23,1.05.57,1.4,1.02.35.45.52.97.52,1.55,0,.99-.33,1.76-.99,2.3-.66.54-1.5.81-2.52.81-1.08,0-1.97-.27-2.66-.81-.69-.54-1.03-1.31-1.03-2.3,0-.59.18-1.1.54-1.55.36-.45.85-.79,1.46-1.02-.52-.22-.93-.54-1.22-.96-.3-.41-.45-.89-.45-1.42,0-.94.31-1.66.92-2.16s1.42-.75,2.42-.75c.94,0,1.71.25,2.31.75.6.5.9,1.22.9,2.16Zm-1.45,4.88c0-.52-.17-.95-.5-1.29-.34-.33-.75-.5-1.25-.5-.55,0-1,.17-1.35.5-.36.33-.54.76-.54,1.29s.18.96.53,1.28c.35.32.81.48,1.37.48.5,0,.91-.16,1.25-.48.33-.32.5-.75.5-1.28Zm-.33-4.82c0-.46-.13-.83-.4-1.12-.27-.29-.61-.43-1.03-.43-.47,0-.85.14-1.13.41-.29.28-.43.65-.43,1.13s.15.87.44,1.16c.29.3.67.44,1.13.44.41,0,.75-.15,1.01-.44.27-.29.4-.68.4-1.16Z"/><path class="cls-4" d="m184.95,278.71l-1.13,2.29h-1.13l.51-2.35v-1.45h1.75v1.52Z"/><path class="cls-4" d="m192.47,275.12c0,1.23-.32,2.2-.95,2.91-.63.71-1.48,1.06-2.54,1.06s-1.91-.36-2.55-1.07c-.64-.71-.96-1.68-.96-2.9v-3.02c0-1.23.32-2.19.95-2.91s1.48-1.07,2.54-1.07,1.91.36,2.54,1.07c.64.71.96,1.68.96,2.91v3.02Zm-1.78-3.29c0-.71-.15-1.27-.45-1.67-.3-.4-.73-.6-1.27-.6s-.97.2-1.27.6c-.3.4-.45.96-.45,1.67v3.55c0,.72.15,1.29.46,1.69.3.4.73.6,1.27.6s.97-.2,1.26-.6c.3-.4.44-.96.44-1.69v-3.55Z"/><path class="cls-4" d="m200.04,275.12c0,1.23-.32,2.2-.95,2.91-.63.71-1.48,1.06-2.54,1.06s-1.91-.36-2.55-1.07c-.64-.71-.96-1.68-.96-2.9v-3.02c0-1.23.32-2.19.95-2.91s1.48-1.07,2.54-1.07,1.91.36,2.54,1.07c.64.71.96,1.68.96,2.91v3.02Zm-1.78-3.29c0-.71-.15-1.27-.45-1.67-.3-.4-.73-.6-1.27-.6s-.97.2-1.27.6c-.3.4-.45.96-.45,1.67v3.55c0,.72.15,1.29.46,1.69.3.4.73.6,1.27.6s.97-.2,1.26-.6c.3-.4.44-.96.44-1.69v-3.55Z"/><path class="cls-2" d="m351.81,63.3h-.47c-15.17-.18-27.5-12.65-27.5-27.82s12.34-27.64,27.5-27.82h.47s0,55.64,0,55.64Zm-.93-54.7c-14.44.42-26.12,12.38-26.12,26.88s11.67,26.46,26.12,26.88V8.6Z"/><path class="cls-2" d="m349.64,123.72c-16.47,0-29.88-13.4-29.88-29.88s13.4-29.88,29.88-29.88c.58,0,1.16.02,1.73.05l.47.03v59.59l-.47.03c-.57.03-1.15.05-1.73.05Zm0-58.76c-15.93,0-28.88,12.96-28.88,28.88s12.96,28.88,28.88,28.88c.4,0,.81,0,1.21-.03v-57.71c-.4-.02-.8-.03-1.21-.03Z"/><path class="cls-2" d="m350.54,185.92c-16.98,0-30.79-13.81-30.79-30.79s13.81-30.79,30.79-30.79c.19,0,.37,0,.56.01l.76.02v61.51l-.72.02c-.2,0-.4.01-.6.01Zm0-60.55c-16.41,0-29.76,13.35-29.76,29.76s13.35,29.76,29.76,29.76c.1,0,.2,0,.3,0v-59.52c-.1,0-.2,0-.3,0Z"/><path class="cls-2" d="m351.89,251.47h-.56c-17.73-.49-31.61-14.75-31.61-32.48s13.89-32,31.61-32.47h.56s0,64.95,0,64.95Zm-1.08-63.85c-16.87.74-30,14.41-30,31.37s13.13,30.63,30,31.37v-62.74Z"/><path class="cls-2" d="m351.91,319.55l-.58-.02c-18.3-.61-32.64-15.43-32.64-33.75s14.34-33.14,32.64-33.74l.58-.02v67.53Zm-1.12-66.36c-17.41.88-30.97,15.08-30.97,32.6s13.56,31.72,30.97,32.6v-65.19Z"/><path class="cls-2" d="m351.93,389.86h-.58c-19.25,0-34.91-15.66-34.91-34.91s15.66-34.91,34.91-34.91h.58v69.81Zm-1.16-68.65c-18.34.31-33.16,15.33-33.16,33.74s14.82,33.43,33.16,33.74v-67.48Z"/><path class="cls-2" d="m294.5,34.5v-2.25h11.43v-2.87h1.79l.48,5.12h-13.7Z"/><path class="cls-2" d="m299.34,46.94c-1.56,0-2.79-.4-3.68-1.2s-1.35-1.87-1.35-3.21.45-2.42,1.35-3.23c.9-.81,2.13-1.21,3.68-1.21h3.83c1.55,0,2.78.4,3.68,1.21.9.8,1.36,1.88,1.36,3.22s-.45,2.42-1.36,3.22c-.9.81-2.13,1.21-3.68,1.21h-3.83Zm4.17-2.25c.9,0,1.61-.19,2.12-.58.51-.38.77-.92.77-1.6s-.25-1.23-.77-1.61c-.51-.38-1.22-.57-2.12-.57h-4.5c-.92,0-1.63.19-2.14.58-.51.38-.76.92-.76,1.61s.25,1.23.76,1.6c.51.38,1.22.56,2.14.56h4.5Z"/><path class="cls-2" d="m294.5,90.26v-2.25h11.43v-2.87h1.79l.48,5.12h-13.7Z"/><path class="cls-2" d="m294.5,99.84v-2.25h11.43v-2.87h1.79l.48,5.12h-13.7Z"/><path class="cls-2" d="m294.5,147.83v-2.25h11.43v-2.87h1.79l.48,5.12h-13.7Z"/><path class="cls-2" d="m294.5,157.42v-2.25h11.43v-2.87h1.79l.48,5.12h-13.7Z"/><path class="cls-2" d="m294.79,163.4l-2.89-1.44v-1.43l2.98.65h1.84v2.22h-1.92Z"/><path class="cls-2" d="m300.48,164.57l7.53.78v7.12h-1.95v-5.25l-3.44-.41c.19.27.35.58.48.95.13.37.2.78.21,1.22.01,1.26-.38,2.23-1.18,2.93s-1.9,1.05-3.31,1.05c-1.34,0-2.42-.37-3.26-1.1s-1.25-1.84-1.25-3.3c0-1.19.32-2.19.96-3.01.64-.82,1.55-1.21,2.74-1.18l.05.02.07,2.12c-.63,0-1.12.19-1.48.57-.36.38-.53.88-.53,1.49,0,.71.24,1.24.71,1.61s1.13.55,1.98.55,1.46-.19,1.95-.57c.49-.38.74-.91.74-1.61,0-.62-.1-1.08-.3-1.38-.2-.3-.49-.52-.87-.65l.16-1.93Z"/><path class="cls-2" d="m294.5,215.41v-2.25h11.43v-2.87h1.79l.48,5.12h-13.7Z"/><path class="cls-2" d="m294.5,227.98v-8.71h1.55l4.88,4.22c.81.69,1.48,1.16,2,1.43.53.27,1.03.4,1.51.4.58,0,1.04-.16,1.41-.48.36-.32.54-.78.54-1.38,0-.7-.23-1.23-.68-1.61-.45-.37-1.02-.56-1.71-.56v-2.18l.05-.02c1.16-.03,2.14.35,2.94,1.15.8.79,1.2,1.87,1.2,3.21s-.35,2.3-1.04,3.03c-.69.73-1.6,1.09-2.73,1.09-.76,0-1.47-.2-2.14-.61-.67-.4-1.56-1.07-2.68-2l-3.27-2.85-.05.02v5.85h-1.8Z"/><path class="cls-2" d="m294.5,278.12v-2.25h11.43v-2.87h1.79l.48,5.12h-13.7Z"/><path class="cls-2" d="m294.5,290.7v-8.71h1.55l4.88,4.22c.81.69,1.48,1.16,2,1.43.53.27,1.03.4,1.51.4.58,0,1.04-.16,1.41-.48.36-.32.54-.78.54-1.38,0-.7-.23-1.23-.68-1.61-.45-.37-1.02-.56-1.71-.56v-2.18l.05-.02c1.16-.03,2.14.35,2.94,1.15.8.79,1.2,1.87,1.2,3.21s-.35,2.3-1.04,3.03c-.69.73-1.6,1.09-2.73,1.09-.76,0-1.47-.2-2.14-.61s-1.56-1.07-2.68-2l-3.27-2.85-.05.02v5.85h-1.8Z"/><path class="cls-2" d="m294.79,293.69l-2.89-1.44v-1.43l2.98.65h1.84v2.22h-1.92Z"/><path class="cls-2" d="m300.48,294.86l7.53.78v7.12h-1.95v-5.25l-3.44-.41c.19.27.35.58.48.95.13.37.2.77.21,1.22.01,1.26-.38,2.23-1.18,2.93s-1.9,1.05-3.31,1.05c-1.34,0-2.42-.37-3.26-1.1s-1.25-1.84-1.25-3.3c0-1.19.32-2.19.96-3.01.64-.82,1.55-1.21,2.74-1.18l.05.02.07,2.12c-.63,0-1.12.19-1.48.57-.36.38-.53.88-.53,1.49,0,.71.24,1.24.71,1.61.48.36,1.13.55,1.98.55s1.46-.19,1.95-.57c.49-.38.74-.92.74-1.61,0-.62-.1-1.08-.3-1.38-.2-.3-.49-.52-.87-.65l.16-1.93Z"/><path class="cls-2" d="m294.5,353.62v-2.25h11.43v-2.87h1.79l.48,5.12h-13.7Z"/><path class="cls-2" d="m302.33,361.62c0,.73.18,1.26.55,1.58.37.32.88.48,1.53.48.59,0,1.07-.17,1.43-.52.37-.35.55-.85.55-1.5,0-.61-.18-1.11-.54-1.51-.36-.4-.81-.6-1.36-.6v-2.16l.05-.02c1.03-.04,1.9.36,2.6,1.18s1.05,1.86,1.05,3.11c0,1.32-.32,2.36-.97,3.12-.65.76-1.59,1.15-2.83,1.15-.62,0-1.19-.17-1.7-.51-.52-.34-.92-.81-1.21-1.41-.27.69-.68,1.21-1.23,1.58-.55.37-1.21.55-1.98.55-1.24,0-2.22-.42-2.92-1.25-.71-.84-1.06-1.91-1.06-3.23,0-1.19.34-2.23,1.01-3.13s1.59-1.33,2.75-1.3l.06.02v2.17c-.57,0-1.05.21-1.43.63-.39.42-.58.95-.58,1.61s.2,1.22.61,1.62c.4.4.93.6,1.56.6.77,0,1.34-.19,1.72-.56.38-.37.57-.94.57-1.7v-1.5h1.77v1.5Z"/><rect class="cls-2" x="111.25" y="39.58" width="1" height="249.56"/><rect class="cls-2" x="209.51" y="39.58" width="1" height="249.56"/><rect class="cls-2" x="55.6" y="39.08" width="221.08" height="1"/></g></svg>