<?xml version="1.0" encoding="UTF-8"?><svg id="Camada_2" xmlns="http://www.w3.org/2000/svg" viewBox="0 0 61.24 102.1"><defs><style>.cls-1{fill:#3b99b9;stroke-width:0px;}</style></defs><g id="Camada_1-2"><path class="cls-1" d="m11.17,87.07c-.08.17-.07.56.12.49l.18-.66-.3.17Z"/><path class="cls-1" d="m12.37,88.32c.24-.31.51-.87.39-1.48-.24.63-.28.36-.55,1.11-.2.07-.32-.22-.27-.46-.08.17-.28-.15-.41.26.21.52.53.55.88.13.06.15-.01.32-.03.44Z"/><path class="cls-1" d="m31.07,85.78l-.15-.03s.1.03.15.03Z"/><path class="cls-1" d="m41.49,79.99c-.06.07-.05.14-.02.19.04-.09.07-.16.02-.19Z"/><path class="cls-1" d="m43.57,79.28s-.08.03-.12.05c.07.02.13.01.12-.05Z"/><path class="cls-1" d="m31.07,85.78l.38.07c-.07-.21-.22-.09-.38-.07Z"/><path class="cls-1" d="m14.92,86.79c-.06.03-.11.09-.16.17.05-.03.1-.05.15-.07,0-.04,0-.07,0-.1Z"/><path class="cls-1" d="m26.29,88.08l-.09.03c0,.08,0,.18,0,.28l.1-.31Z"/><path class="cls-1" d="m22.36,89.18c.1,0,.01-.55,0-.8,0,.24-.05.36-.12.41.02.1.06.23.12.38Z"/><path class="cls-1" d="m15.87,89.02l-.11.09s.08-.05.11-.09Z"/><path class="cls-1" d="m29.1,87.27c.04.08.08.14.11.17-.02-.07-.06-.12-.11-.17Z"/><path class="cls-1" d="m24.87,5.3s.02-.06.03-.1c-.04.05-.05.08-.03.1Z"/><path class="cls-1" d="m21.13,1.63l.07-.02c.02-.1.04-.21.06-.31l-.13.33Z"/><path class="cls-1" d="m46.89,77.24s-.01,0-.02,0c-.02.12,0,.07.02,0Z"/><path class="cls-1" d="m60.4,45.42c-.49.4-.67-.64-1.21-.05.22-.06.9.54,1.21.05Z"/><path class="cls-1" d="m15.02,86.86c.05,0,.1,0,.15,0-.07-.02-.12-.02-.15,0Z"/><path class="cls-1" d="m59.19,45.37h0l-.05.06s.04-.04.05-.06Z"/><path class="cls-1" d="m52.37,70.27c-.09-.04-.17-.06-.25-.07.05.03.12.05.25.07Z"/><path class="cls-1" d="m47.61,74.81l.16-.07c-.08.01-.13.04-.16.07Z"/><path class="cls-1" d="m53.54,66.98c.08-.05.17-.04.17-.18-.03,0-.05,0-.08,0,.04.08.04.14-.09.18Z"/><path class="cls-1" d="m55.22,63.9s-.09,0-.13,0c0,.04-.02.08-.02.11l.15-.12Z"/><path class="cls-1" d="m33.83,8.82c.02-.17.07-.34.12-.51-.16.37-.63.26-.12.51Z"/><path class="cls-1" d="m14.93,87.1c.02-.14.04-.21.09-.24-.04,0-.07.02-.11.03,0,.08,0,.16.02.21Z"/><path class="cls-1" d="m49.81,64.59l.35-.38c-.12.09-.25.23-.35.38Z"/><path class="cls-1" d="m49.98,24.9l-.12-.07s.05.07.12.07Z"/><path class="cls-1" d="m50.77,62.85c.22.01.36-.02.47-.07-.03-.04-.05-.08-.1-.12l-.37.19Z"/><path class="cls-1" d="m33.96,8.3h0s0,0,0,0Z"/><path class="cls-1" d="m30.39,7.96c.43.2.51-.56.79-.91.62.05,0,.6.02,1.02.41-.05.96-.51,1.18-.35-.04.12-.01.18-.14.29.61-.33,1,.53,1.75.11,0,.07-.02.14-.04.19.12-.36.29-.69.44-.92.2.1.6-.2.43.26-.11-.08-.22.08-.35.18l.31-.07c-.17.7-.4.05-.66.5.5.02,1.26-.21,1.47.13-.29.61-.83-.2-.74.54l-.33-.48c-.19,1.12-.24-.22-.5.95.49.51.86.05,1.33.61.33-.23.26-.5.59-.73,1.2,0-.31,1.87.79,1.53.41-.27.97-.92,1.14-.25l-.59.52c.5.44.97-.67,1.25.15-.29.17-.59-.1-.56.03.01.75.53-.17.82.04l-.35.58c.61.37,1.53.5,2.23.93-.17.12-.41.2-.4.48.49.19.89.56,1.22.98.31.45.53.98.73,1.46l.67-.16c.06.07-.08.3-.22.32.11.42.28-.25.57-.28.18.12-.04.44-.26.47.81.12,2.15.6,2.1,1.59h-.22c.17.58,1.31-.3,1.22.45h-.14c.57,1.07,1.87,1.76,1.64,3.05.79-.35.36,1.18,1.38.57-.09.89-.38.85-.17,1.84.09.24.81-.07,1.08.14l-.52.33.77.04-.52.58.28.17c-.03-.12.11-.36.28-.43.47.27.19,1.2-.08,1.36l1,.69c-.23.09-.4-.02-.61-.07.84.21-.52.39.25.58.09-.13.34-.14.46-.18-.21.41.03.96.36,1.29l-.42.11c.23.77.89,1.44,1.26,2.27.05-.37.76-.59.94-.37l-.56.34c.44,0,.11-.35.71-.21.04.35-.61.49-.87.39l.35.3c-.17.09-.3.04-.54.11.43.01-.38.89.36.87l-.17.09c.29.84.64,1.15.92,1.83.54-.16.52.15,1.03.23-.03.58-.32,1.28-.11,1.9.38.38.49.01.87.13-.49.16-.28.78-.72.53.25.74.39.93.94,1.83.19-.15.26-.28.44-.25.11.17-.15.45-.4.47l-.06-.04c.91,1.01-1.08,2.73.07,3.47l-.05-.04.59.87c-.07.43-.4-.23-.7.11.9.94-.05,1.55.55,2.34-.72.32-.74.85-.68,1.43.06.57.18,1.2-.32,1.57l.36-.02c.34.24-.22.24-.31.39.28,0,.33-.21.52-.05.21.95-.14,1.88-.51,2.78-.41.9-.79,1.79-1.25,2.62-.28.62,1.67.84.61,1.46l-.57-.42c.19.77,0,1.47-.23,2.13-.29.65-.58,1.29-.52,2.05-.11-.13-.29-.21-.24-.33-.55.09-.41.98-.06,1.14-.12.18-.34-.09-.57-.05-.37.15.3.93-.22.86-.08,0-.1-.14-.11-.2.12.26-.46.75.12.83-.47.34-.24.99-.72,1.21.42.53-.67.64.06,1.14-.78-.47-1.03.45-.87.93-.18-.23-.4.09-.65-.21-.19.32-.23.69.2.88-1.28,0-.02,1.65-1.39,1.21-.05.3-.1.59-.16.88-.07.28-.17.54-.26.79-.19.51-.4,1-.62,1.47-.69-.59.62-.94-.17-1.47-.28.96-.02,1.89-.78,2.51-.25.12-.21-.36-.28-.53-.29,1-1.3,1.3-1.5,2.27-.06-.06-.06-.19-.05-.3-.09.14-.36.19-.05.46l.03-.2c.62.21.44,1.35.64,1.59-.65-1.03-.8.42-1.54-.96-.02.13.02.37.23.55-.17.06-.32-.01-.42-.35-.25.6.2.75-.21,1.12-.14-.15-.11-.27-.23-.48.06.46.12.93-.34,1.12-.06-.11-.21-.18-.1-.27-.55.57-.33,1.68-1.23,1.99-.36-.83-.41-.02-.92-.56-.06.17-.14.32-.22.47l.38.17c-.34.24-.29.88-.73.91l.06-.43-.53.58.52-.04c-.1.56.62.72.04.89.05-.13-.35.25-.78.03h0c-.02.31-.05.65-.41.68-.2-.15-.43-.71-.56-.81.19.62-.66.74-.52,1.41-.01-.18-.23-.5-.3-.55l.14.51c-.26-.03-.32-.08-.47-.36-.54.23.68.69-.13.72.02-.06-.04-.11.01-.24-.7.19-.97.98-1.64,1.11-.54-.55.38-.45-.13-.88-.35.3-.63.74-.94,1.15-.32.39-.67.72-1.11.84h.19c.38.99-.83-.17-1,.48.06-.12-.14-.59-.11-.47-.62.11-.97.81-1.68,1.5v-.29c-.44-.09-.93.22-1.34.24,0,.29-.23.33.05.65-.85-.5-1.28-.1-1.72.33-.42.45-.86.86-1.57.39.12-.04.21-.31.12-.28l-.78.49c.2.42.19.24.48.53-.03.29-.22.57-.44.63.31-.41-.22-.71-.45-.91.07.13.05.29.11.43-.68-.66.18.92-.6.57l-.03-.24c-.2.19-.34.56-.61.57-.24-.49.19-.31.09-.74-.34.12-.45,1.21-.91.74.12-.17.34-.23.45-.42-.49-.5-.5-.35-.78-.4h.03s-.66-.16-.66-.16l.19.14c-.16,1.45-.86.42-1.3,1.43.44-.96,0-.51-.05-1.11-.18-.14-.45-.28-.41-.46-.2.53-.53-.29-.81.49-.05-.19-.3.04-.31-.46-.34.22.13.32.14.57-.48.8-1.43-.67-2.16.33-.68.43-.77,1.1-1.44,1.48-.24-.29.15-.72.15-.72-.38-.26-.65-.18-.99.07.07-.17-.01-.31-.12-.54-.27.04-.17.71-.54.41.06-.22.14-.56.26-.78-.32.17-.63.53-.97.7-.09-.34.21-.51.32-.73-.37.14-.97.28-1.1.82l.24.2c-.14.02-.06-.46.04-.56.33-.41.46.2.48.39l-.24.12c.24,1.15.98-.16,1.45-.08l-.19.83c.17-.23.33-.44.49-.69.11.21.2.67-.04.81.37.38.3-.32.63.11.04.07.02.11,0,.15l.34-.28c-.06.18.09.58-.13.48.66.43.97-.71,1.26-.1l-.05.06c.85-.35.04-.62.61-1.38l.59,1.46.02-.61c.09.01.27.05.27.29.28-.44-.09-.26.06-.67.5.54,1.13-.42,1.37.52.08-.49-.46-.28-.06-.68.29,1.01.49-.27.96.13-.02.55-.45.34.03.74.08-.94.8.05,1.11-.18-.13-.72.66-.43,1.16-.77.03.28,1.11.1,1.69.21l.02.12c-.09-.74.46-.75.79-1.01.11.43.09.61-.06.86l.36-.11c.02-.25.09-.4.3-.55l.07.55c.47-.18.77-.87,1.49-.75-.14-.49-.93-1.16-.43-1.73.11.25.3.69.17.86.04-.05.11-.29.26-.22l-.09.54c.34.09,0-.42.24-.47.13.37.25.2.33.51-.04.06-.24-.08-.27.1.27-.03.64.07.84.32-.1-.2-.19-.5-.03-.62.45-.21.33.38.67.46.01-.3.41-.15.2-.7.14-.05.26.19.38.32.14-.34,1.09-.51.57-.98h-.08s.02-.04.03-.05h0s0,0,0,0c.55-.81,1.71-.43,2.35-1.02l.09.18c.34-.43.93-.62,1.04-1.15.13-.06.48.16.54.4.26-.31.21-.49.83-.5-.16.5.27.21-.21.42.51-.09.77.1.95-.64.1.53.64.35.77.09l-.48-.13c.19-.2.41-.29.63-.38l.24.63c1.32.12.82-2.11,2.22-1.43-.04-.54-.64.05-.75-.54.43-.19,1.37.29,1.49.2.74-.09-.09-1.15.6-1.35-.21-.14-.65-.6-.4-1.07.42-.2,1.07.44.95.77-.08.08-.17.06-.21-.01-.07.16-.17.36.14.45l-.1-.23c.33.05.84-.36.96.04.15-.39-.12-.4-.41-.34.69-.1.78-.54,1.38-.79-.16-.03-.4-.19-.33-.25.87-.38,0-.61.39-1.1.5.04.48.73.74.09.45-.07.48.42.49.66.12-.72,1-.49,1.31-.66l-.1.34c.06-.21.17-.3.29-.4l-.45-.23c.19-.06.3-.16.44-.01-.08-.35-.65-.48-.67-1.03.34.02.34-.66.83-.28-.67.37.51.4.12.91.04-.14.16-.23.33-.3.07.03.07.11.07.17.89-.12-.28-.75.23-1.27.19.32.6.34.63.2-.21.21-.52-.31-.53-.69.52-.15.2-.51.39-.67l-.29.11c-.19-.31,0-.45.13-.76.22.17-.06.34.11.34-.22-.68,1.03-.16,1.06-.81.34-.01.52.42.78.38.04-.72.77-.17.85-.88-.48-.17-.4-.07-.5-.7l-.35.99-.15-.94c-.19.23-.15.68-.32.77-.11-.49-.04-.38-.43-.53.79.15.16-.89.82-.94l.91.75c.85-.23.29-1.36,1.09-1.9l-.35.11c-.3-.38.29-.48.32-.82.3.25.54.19.81.23-.25-.16.39-.55-.22-1.07l.65-.05c.58-.51-.49-1.32,0-1.83.25.41.66.28.66.85.13-.2.31-.34.08-.49.29.01-.1-.83.34-.81-.1-.17-.43-.41-.26-.61.08.02.17.1.17.1-.16-.1-.02-.49-.51-.51,1.4-.03.83-1.81,2.06-1.88.12-.52.28-1.12.47-1.54.09.08.18.08.1.14.59-.44-.88-.83-.24-1.33.72-.09.17.49.48.37,1.23.42.16-.89,1.05-1.06l.03.14c.55-.2-.12-1.04.2-1.58,0,0,.1.07.18.07-.44-.61-.44-1.43-.46-2.05.44.32.18.34.71.38,0-.28-.81-.18-.81-.72.31-.08.65-.38,1.19-.27l-.11.49c.75-.05.15-.63.35-.85l.29.12c.11-.78-.64-.98-.37-1.75l-.25.03c-.63-.6.51-.27.03-.83l.8.03c-.13-.34-.57-1.17-.63-1.71.53.39.72,1.06.99,1.51.06-.29.12-1.01-.24-1.23.06.13.22.31.08.41-.55-.47-.77-.98-.66-1.54,1.5.32.66-1.44,1.81-1.75-.5-1.1.37-2.08.35-3.33-1.22.42-.01-.36-1.24-.29-.09-.28-.07-.39,0-.41l.69-.86c.35-.21.28.27.55.23.07-.63.51-.28.81-.71-.43.1-.64-.2-.49-.57l-.54.53c-.69-.84.99-.82.31-1.67l.4.26c-.12-.22-.14-.65-.26-1.06-.12-.41-.39-.81-.9-.97.13-.1.44-.24.56-.05-.02-1.12-1.39-2.23-.92-3.16l.31.02c-.11-.19-.6-.24-.38-.54.12-.01.31.02.31-.08-.13-.08-.64-.41-.54-.71l.38.15c.12-1.12-1.19-1.39-1.6-2.17.84-.23.94-1.13.93-1.56l.12-.02c-.31-1.21-1.39-1.76-2.09-2.69.71-1.03-.56-2.34-.54-3.6-.07.23-.63.27-.8.12.05-.32-.85-.39-.11-.71l.03.09c.62-.53.23-.95.02-1.33l-.97.43c.8-1.7-1.92-2.23-1.04-3.45-.35-.1-.52-.38-.91-.45l.48-.29c-.31-.69-.46-1.04-1.1-1.73l.44-.08c-.27-.46-1.71.4-2,.04l.6-.62c-.5-.75-.55-1.89-1.71-2.11.1-.07.31-.2.43-.11-.25-.34-.63-1.65-1.41-.77.56-.5-.53-.78-1.11-.9l.46-.32c-.81.19-.96.32-1.51.05-.04-.15.24-.39.26-.17-.11-.52-.63.12-.79-.47l.4-.11c-.3-.36-.41-.2-.88-.08-.36-.04-.51-.71-.21-1.13-.26.18-.72.3-.81,0,.1-.17.25-.18.33-.19-.29-.83-1.3-.27-1.32-1.03.11-.15.15-.24.15-.31.46.41.82.75.76.75.35-.38.02-.77.8-1.04-.58.02-1.65.21-1.87-.28.01-.05.03-.11.07-.18h.08c-.05-.12-.16-.15-.29-.15-.07-.17-.1-.28-.21-.38.23-.37-.3-.55-.48-.73-.33.45-.53.17-.58.73,0-.06.08-.02.22.07.04.01.08.03.12.02l-.04.03c.14.09.31.22.5.37-.33.09-.64.15-.65-.27-.32.2-.66.4-.83.49.24-.84-.02-1.58.19-2.01-.82-.19-1.61-.87-2.59-.27-.25,0-.03-.39,0-.57.16-.02.27.08.41,0-.51-.02-1.11-.64-1.59-.08-.27-.58.62-.41-.07-.71l.21-.14c-.33-.86-1.11-.76-1.85-.69-.75.07-1.46.11-1.82-.96.06.14.08.2.05.32-.65-.74-1.62-.94-2.52-1.23-.91-.27-1.76-.64-2.47-1.38-.42-.36-.63.06-1.04.31l.08-.61-.73.5c-.86.28-.83-1.88-2.04-1.15l.02.42c-.32-.15-1.12,0-.96-.44-.05.06-.2.39-.29.15l.06-.31-.94.36c-.6-.36.35-1.21-.6-1.47-.39.04-1.16.7-1.06.93.14.04.33.27.29.58l-.34.1c-.21.91-.56,1.8.05,2.6l.6-.45.08.48-.43-.06c.17.47.38.13.6-.09,0,.24.03.42.12.53l.67-.77c-.02.37-.37.66-.08.93.32-.35-.05-.85.39-1.03.15.46,0,.79.37.49-.01.24-.11.38-.24.46.32-.23.69.02.94-.43.13.54.88.08.62.93.13-.18.62-.53.86-.49-.71.88.83.33.38,1.38.59-.81,1.22-.05,1.93-.37-.06.06-.17.18-.2.12.27.18.27.45.39.71.32-.72.84-.68,1.28-1.02.07.86-.57.75-.73,1.48.22-.6.86-.31.94-.85.09.55.15.31.03.97.44-.88.32-.04.79-.49.2.61-.28.88.28.8.08.36-.45.51-.45.51Zm10.39,4.71s0,0,0,0c-.08-.05-.16-.1-.2-.13.04.03.1.06.21.12Zm.75.62c-.08-.09-.19-.19-.31-.29.1-.17.26-.29.33-.22-.13.06-.02.3-.02.51Zm.88-4.35c.18.05.15.17.1.27-.07-.04-.15-.09-.27-.14-.02.01-.04.03-.06.04.08-.07.16-.14.23-.18Z"/><path class="cls-1" d="m41.72,9.32s-.05,0-.08-.01c0,.06,0,.11,0,.16.05-.03.11-.07.15-.1l-.07-.05Z"/><path class="cls-1" d="m30.9,85.75h.03s-.05-.02-.07-.05c.02.02.03.04.05.05Z"/><polygon class="cls-1" points="49.21 24.12 49.33 24.05 49.19 24.04 49.21 24.12"/><path class="cls-1" d="m25.05,85.78s-.06-.09-.11-.12c.01.03.06.08.11.12Z"/><path class="cls-1" d="m22.78,86.27l-.37-.14c.16.09.28.12.37.14Z"/><path class="cls-1" d="m20.97,86.32c0,.1,0,.18,0,.24h0s-.01-.24-.01-.24Z"/><path class="cls-1" d="m44.77,72.34s.02-.04.03-.07c.03-.19-.01-.08-.03.07Z"/><path class="cls-1" d="m39.36,78.92c.01-.14.02-.27.06-.38-.15.06-.25.12-.06.38Z"/><polygon class="cls-1" points="49.77 64.63 49.78 64.64 49.81 64.59 49.77 64.63"/><path class="cls-1" d="m39.75,78.31c-.19,0-.27.1-.32.23.12-.04.27-.09.32-.23Z"/><path class="cls-1" d="m13.35,86.69l-.08-.03s0,.07-.01.09l.1-.06Z"/><path class="cls-1" d="m13.26,86.76l-.1.06s.08,0,.1-.06Z"/><path class="cls-1" d="m12.96,86.96l.2-.14c-.07,0-.15-.02-.2.14Z"/><path class="cls-1" d="m15.69,86.96l.02-.21s-.02.11-.02.21Z"/><path class="cls-1" d="m16.39,86.84c-.17-.03-.45-.4-.67-.25v.16c.08-.31.53.44.67.09Z"/><path class="cls-1" d="m19.7,89.07c-.21,0-.43-.05-.65-.09.14.21.32.48.04.56.89.57-.22-.45.61-.47Z"/><path class="cls-1" d="m21.69,89.02c-.32.16.06.31.07.43.18-.24.22-.29-.07-.43Z"/><path class="cls-1" d="m35.09,84.21l.21.46c.2-.18-.09-.17-.21-.46Z"/><polygon class="cls-1" points="36.03 80.57 35.65 80.42 35.8 80.88 36.03 80.57"/><polygon class="cls-1" points="39.35 82.79 39.29 82.91 39.57 82.52 39.35 82.79"/><path class="cls-1" d="m55.37,64.69l-.6-.22c.02.21.63.58.6.22Z"/><path class="cls-1" d="m58.47,54.66c.34-.04.62-.28.34-.53-.07.23-.38.4-.34.53Z"/><polygon class="cls-1" points="54.92 23.92 55.21 24 54.85 23.73 54.92 23.92"/><path class="cls-1" d="m32.56,69.42c-.08-.16-.32-.46-.34-.35l.34.57v-.22Z"/><path class="cls-1" d="m31.4,68.74c.11.32.35.84.76,1.29-.3-.57-.12-.37-.49-1.04.02-.11.24.09.37.29-.08-.15.19.04-.02-.32-.39-.35-.51-.29-.37.13-.11-.1-.19-.26-.25-.36Z"/><path class="cls-1" d="m24.39,72.56l.09.03s-.06-.04-.09-.03Z"/><path class="cls-1" d="m20.21,75.14s0-.1-.04-.15c0,.06,0,.1.04.15Z"/><path class="cls-1" d="m19.1,75.05s.04,0,.07,0c-.05-.04-.09-.05-.07,0Z"/><path class="cls-1" d="m24.39,72.56l-.23-.09c.12.18.15.09.23.09Z"/><path class="cls-1" d="m31.45,70.68s-.01-.11-.04-.18c0,.04,0,.07-.01.1.02.03.04.06.06.09Z"/><path class="cls-1" d="m25.82,70.85l.03-.02c-.04-.07-.08-.15-.13-.24l.1.26Z"/><path class="cls-1" d="m27.11,69.8s.27.46.41.67c-.12-.2-.16-.31-.16-.36-.06-.09-.14-.19-.25-.31Z"/><path class="cls-1" d="m29.81,69.05v-.09s0,.06,0,.09Z"/><path class="cls-1" d="m24.79,71.45c-.05-.07-.1-.12-.13-.15.04.06.09.11.13.15Z"/><path class="cls-1" d="m26.01,99.26s-.06.02-.1.03c.06,0,.1-.02.1-.03Z"/><polygon class="cls-1" points="23.84 101.94 23.81 101.92 23.5 101.97 23.84 101.94"/><path class="cls-1" d="m17.44,75.36s0,0,.01,0c0-.08-.02-.05-.01,0Z"/><path class="cls-1" d="m3.07,86.31c1.19-.24.96.1,2.36-.23-.48.07-1.45-.03-2.36.23Z"/><path class="cls-1" d="m31.38,70.64s-.03.04-.05.04c.04,0,.05-.02.05-.04Z"/><path class="cls-1" d="m5.43,86.08h0s.13-.03.13-.03c-.06.01-.09.02-.14.03Z"/><path class="cls-1" d="m14.78,77.71c.06.08.12.13.17.18-.03-.05-.08-.1-.17-.18Z"/><path class="cls-1" d="m17.38,76.81l-.1-.02c.05.03.08.03.1.02Z"/><path class="cls-1" d="m14.15,79.15c-.05-.01-.11-.07-.1.02.02.02.04.03.05.05-.03-.07-.03-.11.05-.07Z"/><path class="cls-1" d="m13,79.99s.06.05.09.08l.02-.05-.11-.03Z"/><path class="cls-1" d="m23.77,94.9c-.12.11-.25.22-.4.32.33-.23.57-.09.4-.32Z"/><path class="cls-1" d="m31.27,70.42c.08.12.11.18.11.22,0-.01.02-.03.02-.05-.05-.07-.09-.13-.13-.17Z"/><path class="cls-1" d="m16.71,82.78l-.23.07c.08,0,.17-.02.23-.07Z"/><path class="cls-1" d="m15.67,87.08l.08-.03s-.04-.02-.08.03Z"/><path class="cls-1" d="m15.98,83.3c-.15-.14-.25-.2-.33-.24.02.04.03.08.06.13l.27.11Z"/><path class="cls-1" d="m23.37,95.23h0s0,0,0,0Z"/><path class="cls-1" d="m25.34,96.07c-.1-.23-.7.22-1.11.36-.32-.16.42-.36.71-.62-.26-.08-.93.12-.96,0,.1-.07.13-.11.28-.16-.6.12-.3-.49-1.04-.3.05-.05.1-.09.14-.12-.3.22-.62.42-.86.55-.06-.08-.5.08-.11-.2.02.06.19-.04.34-.09l-.24.02c.54-.44.28,0,.73-.27-.31-.07-.93.03-.85-.2.55-.39.4.2.79-.31l-.08.35c.81-.73.02.17.9-.58-.02-.4-.51-.14-.53-.54-.36.14-.45.33-.81.47-.82,0,1.21-1.29.25-1.07-.43.19-1.14.67-.92.2l.67-.39c-.14-.31-1,.51-.79-.07.28-.14.36.05.4-.04.35-.55-.44.14-.54,0l.51-.45c-.3-.22-.91-.21-1.27-.41.17-.12.37-.21.47-.41-.59-.14-.62-.84-.69-1.46l-.55.29s.13-.24.24-.29c.02-.29-.27.26-.49.36-.1-.04.13-.34.31-.42-.59.13-1.38.14-1.23-.54l.17-.09c-.05-.35-1.01.73-.84.16l.1-.05c-.28-.56-1.08-.53-.93-1.48-.56.64-.26-.64-.95.31.06-.67.26-.8.07-1.38-.08-.11-.55.53-.75.56l.32-.53-.51.45.28-.69-.21.06c.03.06-.03.3-.13.45-.33.13-.26-.65-.11-.93-.24.06-.48.12-.72.2.13-.21.25-.25.39-.36-.55.43.25-.6-.25-.21-.03.14-.19.32-.25.43.05-.39-.22-.53-.49-.48l.22-.36c-.16-.14-.38-.19-.6-.22,0,0-.06-.02,0,.01.05.03.07.04.05.04l-.02.02-.04.03s-.06.03-.07.02c-.1.17-.5.8-.61.84l.38-.55c-.28.32-.1.22-.47.6-.03-.09.45-.62.59-.79-.06.06-.12.11-.19.17.13-.15.21-.24.38-.43-.31.31.45-.52-.09.02l.15-.15s-.25.14-.34.14c-.6.38-.49.28-1.04.57.09-.15.57-.44.45-.43-.44.15-.68.27-1.18.45.71-.29.55-.29,1.14-.48-.22.03-.24.04-1.11.22-.34.11-.47.16-.78.25-.19.03.27-.13.72-.25l.1-.02c-.9.19-.08-.1.59-.27.47-.13.8-.19-.25,0l.12-.02c-.43.07-.96.17-1.3.2.26-.08.84-.13,1.59-.29-.92.14-.78.08-.6.03.19-.05.41-.09-.11-.07,1.54-.18,1.48-.17,1.34-.19-.15,0-.36-.06.46-.05h-.59c-.56-.04.35-.02.49-.01-.43-.02-.48-.02-.83-.03-.25-.08.09-.17.45-.15.37,0,.76.12.91.21.07.07-1.69-1.05-.83-.62.17.15.36.29.54.42-.31-.27-.21-.33-.15-.34-.01.02.19-.11.29-.21.11-.12.19-.27.22-.49.06.14.18.31.13.34.39.31.4-.26.17-.58.1-.02.23.27.39.4.27.15-.1-.69.24-.34.06.06.06.15.06.19-.07-.24.35-.18-.04-.58.34.08.21-.46.55-.3-.27-.57.49.01,0-.72.52.74.75.35.62-.08.12.25.27.16.45.49.13-.11.15-.33-.15-.69.88.7-.02-1.07.94-.04.11-.68.29-1.22.52-1.65.52.74-.34.36.23,1.12.12-.55-.14-1.32.33-1.38.16.04.18.35.24.5.12-.55.7-.41.72-1.03.05.07.07.17.08.24.04-.07.22,0-.03-.32v.13c-.44-.41-.49-1.18-.66-1.44.59,1.02.47.02,1.18,1.34,0-.09-.07-.28-.24-.5.11.02.22.14.34.43.08-.34-.25-.63-.05-.77.12.16.12.25.24.46-.13-.38-.26-.77,0-.75.06.1.17.22.12.25.25-.25-.13-1.18.4-1.1.42.76.27.15.73.75l.03-.3-.28-.24c.15-.09-.04-.63.23-.52l.07.33.19-.31-.32-.12c-.08-.42-.57-.75-.26-.72,0,.09.15-.1.48.2h0c-.07-.24-.14-.5.07-.43.17.17.46.68.57.8-.3-.56.24-.39-.06-.99.06.15.29.47.35.52l-.24-.45c.16.08.22.14.39.4.26-.07-.62-.72-.14-.56,0,.05.06.1.06.19.37,0,.28-.6.64-.56.51.56-.08.29.36.75.24-.34.13-1.21.54-1.29l-.11-.03c-.58-.89.54.26.4-.26,0,.09.3.51.24.41.31-.02.28-.52.4-1.03l.12.25c.27.11.41-.12.62-.12-.12-.25-.02-.27-.3-.56,1.33.95.3-1.25,1.43-.47-.04.03.04.27.07.24l.17-.43c-.3-.36-.21-.2-.48-.44-.12-.25-.16-.49-.08-.54.04.35.44.6.65.76-.09-.11-.16-.25-.25-.36.65.55-.52-.77.03-.49l.13.2c.01-.16-.1-.48.03-.49.35.41.06.27.31.63.11-.12-.34-1,.08-.65.03.16-.04.22,0,.38.49.42.41.28.57.29h-.02s.38.07.38.07l-.15-.1c-.66-1.24.17-.44-.15-1.33.3.85.26.43.6.93.15.1.35.19.42.34-.19-.47.39.19.12-.49.12.15.12-.06.38.35.04-.22-.23-.25-.36-.46-.19-.69.95.31.7-.64.03-.49-.31-1.05-.27-1.49.26.2.35.62.35.62.3.14.36.03.35-.24.08.16.19.25.35.4.07-.11-.35-.62-.06-.48.11.19.28.49.36.7,0-.23-.09-.6-.08-.83.23.25.23.47.32.68.04-.22.16-.5-.12-.96l-.2-.09c.03-.06.3.36.32.46.13.42-.27-.03-.39-.19v-.16c-.75-.86-.22.39-.42.46l-.42-.72.23.68c-.16-.15-.46-.51-.45-.67-.36-.25.07.32-.31.02-.05-.05-.07-.09-.08-.12l.03.29c-.08-.16-.36-.46-.22-.42-.49-.24.03.75-.42.3v-.05c-.14.44.32.52.52,1.25l-1.03-1.11.33.52s-.13.01-.26-.2c.13.42.17.2.34.57-.47-.34-.25.5-.85-.26.22.41.35.19.38.56-.66-.81-.07.28-.49-.02-.28-.47.02-.33-.4-.62.46.8-.38.03-.39.25.42.59-.07.42-.11.75-.13-.21-.59-.07-.92-.15l-.07-.1c.4.62.14.64.09.86-.25-.36-.33-.52-.38-.73l-.12.09c.11.21.14.34.11.47l-.29-.47c-.15.14.05.76-.38.62.29.42,1.01,1.03.98,1.47-.17-.22-.46-.6-.47-.73,0,.04.07.24-.04.17l-.18-.44c-.22-.1.18.35.08.37-.23-.32-.22-.19-.4-.45,0-.05.16.08.1-.06-.13,0-.37-.11-.58-.32.14.18.31.43.28.52-.15.14-.34-.34-.55-.44.12.25-.15.1.19.58-.05.03-.22-.18-.33-.3.07.27-.35.35.11.79l.05.02s0,.02,0,.03h0s0,0,0,0c.07.68-.78.15-.9.55l-.12-.16c-.03.3-.29.37-.16.8-.05.03-.33-.21-.44-.41-.04.21.08.4-.3.27-.08-.37-.22-.22-.02-.3-.26-.02-.49-.25-.35.32-.24-.45-.5-.43-.49-.25l.33.21c-.04.12-.15.14-.25.16l-.35-.57c-.81-.41.2,1.55-.85.64.19.44.38.13.62.63-.21.04-.93-.62-.98-.58-.43-.14.37.93,0,.89.17.17.57.66.53.97-.21.04-.77-.67-.79-.89.03-.04.09,0,.13.07,0-.11,0-.24-.21-.4l.12.21c-.22-.14-.42.03-.6-.32.02.27.18.35.34.39-.4-.13-.31.22-.65.18.11.08.3.29.27.31-.47-.02.13.46,0,.69-.33-.21-.47-.73-.49-.34-.27-.11-.4-.49-.46-.68.08.51-.52,0-.68.02v-.23c0,.13-.06.17-.11.2l.33.34c-.11-.03-.16,0-.27-.15.12.29.51.61.64,1.04-.22-.14-.08.38-.48-.11.37,0-.4-.49-.25-.72,0,.09-.04.12-.15.1-.05-.05-.07-.11-.07-.15-.56-.29.31.65.07.81-.18-.31-.45-.5-.45-.42.1-.06.39.45.47.73-.32-.11-.05.29-.15.32l.17.04c.18.31.07.33.03.5-.17-.22-.01-.22-.12-.3.25.59-.65-.33-.57.13-.22-.14-.4-.53-.56-.62.08.51-.49-.25-.46.2.34.35.28.24.41.72l.12-.5.2.71c.1-.06.03-.39.13-.37.13.39.07.28.35.57-.55-.48-.02.53-.45.25l-.69-.96c-.54-.26-.05.79-.52.76l.22.1c.24.41-.15.19-.13.41-.22-.33-.37-.4-.55-.57.18.23-.23.14.2.79l-.44-.32c-.37,0,.39,1.11.08,1.17-.18-.4-.45-.55-.48-.91-.08.05-.19.04-.03.27-.19-.17.1.59-.19.33.07.16.3.51.2.54-.06-.06-.11-.16-.11-.16.11.16.02.31.35.61-.96-.82-.61.56-1.44-.15-.09.23-.22.48-.36.61-.06-.1-.12-.16-.06-.15-.43-.14.54,1.01.05.85-.5-.43-.08-.37-.29-.51-.8-1.03-.19.35-.79-.14v-.09c-.39-.27-.02.62-.27.69,0,0-.06-.1-.11-.16.22.66.01,1.08-.07,1.37-.31-.4-.09-.27-.52-.59-.06.14.64.56.55.8-.28-.14-.64-.18-1.13-.5l.22-.19c-.71-.37-.3.25-.53.26l-.26-.2c-.32.36.44.78.03,1.01l.28.09c.65.49-.63-.08-.19.31l-.95-.29c.06.19.42.64.42.82-.64-.26-.72-.57-.92-.85-.16.11-.45.4-.02.57-.04-.06-.21-.18,0-.18.59.34.82.55.57.71-1.03-.2-1.35-.09-1.64.06-.3.15-.56.32-1.61.36.17.23-.18.41-.69.63-.5.21-1.14.46-1.4.71,2.5-.35-.13.14,2.28-.1.03.08-.06.11-.22.14-.61.14-1.24.3-1.89.47-.85.17-.41-.03-.99.05-.55.28-1.22.24-2.16.53.97-.17,1.2-.1.63.11l1.5-.39c.96.11-2.67.67-1.76.81l-.71.04c.09.07-.11.22-.04.32.06.1.39.14,1.73-.11-.41.11-1.4.35-1.58.34-.09.05-.14.1-.14.13,1.24.03,4.27-.47,3.59,0l-.78.2c.4-.04,1.62-.36,1.15-.12-.29.09-.75.21-.7.23.35-.06,1.62-.32,1.48-.16l-.91.22c.09.21.93.11,1.76-.06.86-.17,1.7-.39,2.16-.41-1.43.67-1.11.99-.89,1.16l-.18.09c.53.12,1.27.05,1.96-.07.64-.09,1.19-.21,1.68-.24-.15.46.21.68.63.87.23.11.4.15.7.32.09.09.16.19.19.36.01-.17.3-.62.4-.67,0,.2.51-.43.14.29l-.02-.03c-.28.74-.03.63.1.72l.51-.93c-.37,1.52,1.2.04.7,1.33.22-.18.32-.11.55-.29l-.31.47c.14.26.2.4.54.47l-.28.3c.12.13,1.13-1.2,1.3-1.13l-.45.71c.29.17.06.97.79.57-.08.09-.24.28-.31.27.1.11.07.8.79-.11-.49.57.21.26.56.15l-.39.39c.59-.42.72-.56,1.02-.56-.01.09-.27.35-.22.2-.08.33.46-.29.4.07l-.3.2c.1.15.22,0,.58-.22.24-.08.15.33-.2.7.24-.2.6-.41.56-.23-.13.14-.24.19-.29.22-.09.47.77-.11.5.4-.14.13-.2.2-.23.25-.14-.18-.24-.34-.2-.35-.38.35-.33.54-.94.92.37-.16,1.17-.53,1.11-.24-.03.04-.06.08-.12.13l-.06.02c-.01.06.05.06.14.03-.03.1-.05.16-.02.21-.31.29-.05.3-.01.39.43-.36.44-.21.73-.59-.02.04-.06.03-.12,0-.02,0-.04,0-.07,0l.04-.03s-.11-.09-.18-.15c.27-.13.51-.22.32.06.31-.19.63-.38.78-.47-.53.6-.72,1.05-1.08,1.37.41.03.56.38,1.52-.08.16,0-.2.25-.32.37-.11.02-.13-.03-.27.03.31-.02.34.34.98-.04-.17.36-.63.28-.38.45l-.21.09c-.35.55.16.47.66.45.48-.02.94.02.42.66.06-.08.09-.12.19-.19-.24.89,1.21,1.07.52,2.11-.14.26.31.11.69.1l-.55.25.72-.04c.58.13-1.25.94-.21.99l.38-.16c-.03.15.33.35-.12.45.07,0,.42-.07.23.04l-.3.08.6.19c-.16.3-1.23.26-1.21.61.15.1.99.18,1.19.09,0-.06.16-.18.47-.25l.19.1c.92-.16,1.88-.22,2.43-.72l-.62-.13.42-.18.08.21c.39-.21,0-.21-.27-.23.23-.07.38-.15.46-.22l-.92-.03c.35-.12.73-.06.88-.28-.43-.01-.76.31-1.07.19.38-.22.72-.28.34-.32.23-.08.38-.09.5-.06-.31-.05-.2-.3-.69-.23.46-.27-.27-.36.58-.62-.21.02-.73,0-.8-.1,1.07-.13-.08-.43,1-.76-.95.17-.58-.42-1.19-.48.08-.01.23-.04.2,0,0-.18.26-.33.38-.49-.73.28-1,.13-1.49.21.62-.48.89-.26,1.53-.61-.58.26-.72-.06-1.17.22.37-.33.16-.21.71-.55-.9.39-.21-.06-.8.09.35-.4.81-.45.43-.53.21-.24.63-.2.63-.2Zm-4.52-3.73s0,0,0,0c.04.03.08.05.1.06-.02-.01-.05-.03-.11-.05Zm-.31-.33c.02.06.06.11.11.16-.13.14-.3.26-.32.22.11-.07.13-.22.2-.38Zm-2.36,3.2c-.1,0-.03-.08.06-.16.03.01.06.03.12.04.02-.01.04-.03.06-.04-.09.06-.17.12-.23.16Z"/><path class="cls-1" d="m18.78,94.82s.04-.01.05,0c.03-.04.05-.08.08-.11l-.15.09.03.02Z"/><path class="cls-1" d="m24.49,72.6h-.01s.04.02.06.05c-.02-.02-.03-.03-.05-.05Z"/><polygon class="cls-1" points="16.27 87.11 16.2 87.23 16.3 87.15 16.27 87.11"/><path class="cls-1" d="m27.51,72.79s.07.07.11.1c-.02-.03-.06-.06-.11-.1Z"/><path class="cls-1" d="m28.4,72.3l.23.08c-.12-.06-.18-.07-.23-.08Z"/><path class="cls-1" d="m29.18,72.08c-.05-.08-.09-.15-.13-.2h0s.13.2.13.2Z"/><path class="cls-1" d="m19.64,79.82s-.01.02,0,.04c0,.13.02.07,0-.04Z"/><path class="cls-1" d="m21.82,76.61c.03.11.06.21.06.28.08,0,.13-.02-.06-.28Z"/><path class="cls-1" d="m16.73,82.77h0s-.01,0-.02,0h.03Z"/><path class="cls-1" d="m21.74,76.99c.12.05.15,0,.14-.09-.07,0-.15,0-.14.09Z"/><path class="cls-1" d="m32.04,70.31h.04s-.04-.06-.05-.08v.08Z"/><path class="cls-1" d="m32.04,70.24v-.08s-.03.02,0,.08Z"/><path class="cls-1" d="m32.02,69.99v.17s.08-.02,0-.17Z"/><path class="cls-1" d="m31.06,70.71l.11.17s-.05-.09-.11-.17Z"/><path class="cls-1" d="m30.85,70.94c.09,0,.41.24.41.08l-.09-.14c.14.27-.47-.26-.33.06Z"/><path class="cls-1" d="m28.32,69.66l.31-.02c-.16-.15-.38-.35-.32-.46-.65-.33.34.35.01.48Z"/><path class="cls-1" d="m27.48,69.88c.05-.16-.19-.25-.25-.36.04.21.06.27.25.36Z"/><path class="cls-1" d="m22.76,73.3l-.29-.42c-.04.12.12.16.29.42Z"/><polygon class="cls-1" points="23.41 76.1 23.68 76.29 23.44 75.89 23.41 76.1"/><polygon class="cls-1" points="20.73 73.54 20.73 73.45 20.69 73.71 20.73 73.54"/><path class="cls-1" d="m12.91,79.44l.4.49c0-.13-.41-.72-.4-.49Z"/><path class="cls-1" d="m9.21,82.92c-.38-.12-.76-.09-.51.11.17-.07.54-.03.51-.11Z"/><polygon class="cls-1" points="12.79 90.93 12.63 91.08 12.84 90.99 12.79 90.93"/></g></svg>