<?xml version="1.0" encoding="UTF-8"?><svg id="Camada_2" xmlns="http://www.w3.org/2000/svg" viewBox="0 0 60.82 102.65"><defs><style>.cls-1{fill:#3b99b9;stroke-width:0px;}</style></defs><g id="Camada_1-2"><path class="cls-1" d="m49.92,90.16c.06-.18-.01-.56-.2-.48l-.09.66.3-.18Z"/><path class="cls-1" d="m48.52,88.97c-.21.33-.46.9-.29,1.5.21-.64.28-.38.49-1.14.19-.08.35.2.33.45.06-.17.32.14.39-.28-.29-.5-.6-.52-.92-.09-.08-.14-.02-.32,0-.44Z"/><path class="cls-1" d="m30.55,84.52l.08.12c-.01-.05-.04-.09-.08-.12Z"/><path class="cls-1" d="m20.97,78.39c.08.04.15,0,.19-.04-.09-.01-.17-.02-.19.04Z"/><path class="cls-1" d="m19.92,76.63s.04.07.05.11c0-.08,0-.13-.05-.11Z"/><path class="cls-1" d="m30.55,84.52l-.2-.3c-.11.19.08.2.2.3Z"/><path class="cls-1" d="m45.88,90.63c.07-.03.13-.1.18-.18-.06.03-.11.05-.17.07,0,.04,0,.07-.01.1Z"/><path class="cls-1" d="m35.44,85.72l.09.02c.05-.06.1-.15.15-.24l-.24.21Z"/><path class="cls-1" d="m39.15,86.55c-.08-.04-.22.51-.31.74.1-.22.18-.31.26-.34.02-.1.04-.23.04-.4Z"/><path class="cls-1" d="m45.07,88.31l.11-.07s-.08.04-.11.07Z"/><path class="cls-1" d="m32.89,84.74c.02-.08.04-.15.04-.2-.02.07-.04.13-.04.2Z"/><path class="cls-1" d="m34.6.66s.02.06.03.1c0-.06,0-.1-.03-.1Z"/><path class="cls-1" d="m39.8,2.36l-.06.04c.01.11.02.21.03.31l.02-.36Z"/><path class="cls-1" d="m17.83,73.78s0,.01,0,.02c.11.02.06,0,0-.02Z"/><path class="cls-1" d="m5.14,45.87c-.52.36-.62-.59-1.2-.05.22-.05.85.49,1.2.05Z"/><path class="cls-1" d="m45.78,90.56c-.06,0-.11.01-.17,0,.08.02.13.01.17,0Z"/><path class="cls-1" d="m3.94,45.82h0l-.06.06s.04-.04.06-.06Z"/><path class="cls-1" d="m12.44,67.95c-.07.07-.12.14-.16.21.05-.04.09-.09.16-.21Z"/><path class="cls-1" d="m15.62,73.07l-.05-.16c0,.08.02.13.05.16Z"/><path class="cls-1" d="m10.09,65.77c0-.09.04-.15-.08-.21-.02.02-.03.04-.04.06.09,0,.15.02.12.14Z"/><path class="cls-1" d="m8.54,62.91s-.05.07-.07.1l.07.08v-.18Z"/><path class="cls-1" d="m24.69,5.15c.15.1.28.23.39.36-.25-.32.14-.7-.39-.36Z"/><path class="cls-1" d="m45.89,90.31c-.02.14-.06.21-.11.24.04,0,.08-.02.12-.03.01-.08.02-.16,0-.21Z"/><path class="cls-1" d="m6.21,67.93l-.24-.52c.04.16.13.35.24.52Z"/><path class="cls-1" d="m6.95,23.04v-.15s-.04.08,0,.15Z"/><path class="cls-1" d="m5.12,65.94c.13-.18.18-.33.2-.47-.05,0-.09,0-.16,0l-.04.46Z"/><path class="cls-1" d="m25.08,5.51h0s0,0,0,0Z"/><path class="cls-1" d="m27.8,2.6c-.51.21.07.76.15,1.19-.5.45-.51-.37-.88-.62-.3.33-.26,1.09-.53,1.21-.08-.1-.15-.11-.16-.28-.1.73-1.09.65-1.16,1.53-.06-.04-.11-.08-.15-.13.25.28.45.6.57.84-.2.13-.14.62-.46.24.13-.06.04-.23.03-.4l-.11.3c-.54-.49.17-.37-.08-.82-.31.44-.51,1.21-.93,1.22-.43-.54.64-.62-.11-.89l.64-.06c-.93-.7.35-.11-.59-.9-.77.23-.59.7-1.34.96.06.42.35.44.41.85-.51,1.18-1.65-.93-1.8.28.09.49.52,1.24-.21,1.19l-.29-.73c-.66.37.3,1.13-.64,1.16-.07-.32.33-.54.18-.55-.78-.2-.03.55-.35.77l-.48-.49c-.55.59-.9,1.54-1.48,2.19-.1-.18-.12-.44-.41-.47-.31.49-.77.85-1.3,1.14-.5.32-1.05.59-1.57.82l.12.71c-.07.06-.31-.06-.32-.22-.45.14.25.28.27.58-.14.2-.46-.02-.48-.25-.17.88-.7,2.19-1.63,2.39l-.03-.23c-.57.31.48,1.3-.29,1.37v-.15c-1.04.83-1.53,2.24-2.78,2.55.58.64-1.05.84-.12,1.58-.9.28-.96-.01-1.89.64-.2.21.41.75.34,1.11l-.53-.32.32.74-.76-.16-.03.36c.1-.09.38-.1.52,0,0,.58-.98.85-1.27.71l-.14,1.29c-.21-.14-.18-.35-.24-.57.24.85-.63-.2-.42.58.16,0,.3.21.41.28-.47.09-.74.7-.81,1.22l-.34-.27c-.48.78-.61,1.81-1.04,2.72.33-.25.98.11.92.4l-.65-.14c.29.32.35-.18.65.35-.19.32-.77-.04-.89-.32l.06.51c-.19-.05-.25-.18-.47-.3.31.32-.88.52-.31,1.02l-.19-.04c-.35.96-.29,1.46-.53,2.25.53.18.31.45.66.81-.32.52-.91,1.05-1.04,1.77.15.56.43.26.69.56-.51-.09-.63.62-.9.18-.11.87-.22,1.1.03,2.26.22-.08.33-.19.49-.09.05.21-.28.4-.52.33l-.04-.06c.59,1.31-1.92,2.61-.96,3.73l-.05-.06.51,1.06c-.11.46-.37-.31-.7.02.8,1.15-.2,1.75.32,2.67-.79.35-.72.99-.58,1.65.13.66.34,1.33-.11,1.86l.35-.08c.36.22-.18.32-.25.51.27-.05.3-.3.5-.16.23,1.03.33,2.09.29,3.2-.01,1.1-.22,2.28-.03,3.36.12.8,1.9-.04,1.35,1.13l-.71-.09c.6.66.81,1.43,1.02,2.21.27.75.54,1.52,1.13,2.1-.17-.03-.36.04-.41-.1-.32.48.43,1.14.79.98.05.24-.31.19-.43.41-.13.42.86.52.52.86-.06.06-.18-.02-.24-.05.31.09.4.91.81.49.03.63.73.87.64,1.43.68-.02.19,1.02,1,.68-.81.4-.18,1.27.41,1.34-.3.04-.07.41-.47.49.24.35.59.58.94.28-.5,1.23,1.56.81.63,1.94.26.2.52.39.77.58.26.18.51.36.76.53.49.35.94.71,1.36,1.07-.73.53-.82-.9-1.54-.29.95.61,1.92.6,2.38,1.55.07.29-.39.13-.57.16.92.59,1.3,1.56,2.28,1.92-.06.06-.2.05-.31.02.15.11.2.4.48.11l-.2-.05c.24-.62,1.39-.33,1.63-.53-1.05.6.4.86-.99,1.55.14.03.38,0,.55-.21.06.19,0,.34-.35.43.6.32.75-.16,1.18.24-.14.14-.28.12-.49.24.49-.08.98-.16,1.23.29-.1.07-.17.22-.27.12.68.53,1.76.2,2.21,1.1-.76.48.05.43-.39,1.04.17.06.35.11.53.15l.07-.4c.35.28.99.08,1.14.5l-.45.05.75.38-.2-.5c.59-.04.54-.77.87-.27-.14,0,.34.26.26.75h0c.31-.06.63-.13.78.21-.07.24-.53.63-.58.79.54-.39.91.5,1.53.07-.16.08-.39.4-.41.49l.44-.33c.08.24.06.32-.14.56.47.4.36-.89.75-.17-.07,0-.09.08-.23.08.5.56,1.36.47,1.79,1.03-.22.75-.59-.15-.73.51.45.2.99.27,1.5.37.52.08,1.04.16,1.41.45l-.12-.15c.61-.88.37.78,1.02.54-.14.02-.4.46-.32.37.5.43,1.28.38,2.29.47l-.22.21c.25.36.87.49,1.2.76.22-.21.41-.08.43-.5.29.95.93.98,1.55.97.62,0,1.23-.1,1.57.67-.13-.03-.38.14-.28.17l.99.03c.06-.46-.04-.3-.12-.7.19-.23.51-.36.73-.3-.49.18-.21.71-.1,1.01,0-.14.11-.28.14-.42.25.93.33-.87.82-.15l-.1.22c.27-.05.57-.3.81-.16-.02.55-.31.17-.44.59.38.07.95-.75,1.17-.19-.19.12-.42.06-.6.16.21.72.3.56.55.71l-.02-.02.58.4-.13-.2c.76-1.28,1.01-.07,1.81-.85-.76.74-.19.47-.34,1.06.13.2.35.43.25.58.38-.43.45.47.99-.15,0,.2.32.08.18.55.42-.08-.05-.35.02-.59.68-.52,1.35.95,2.33.13.79-.31.97-.96,1.67-1.23.22.33-.23.69-.23.69.36.32.66.29,1.02.09-.08.17,0,.31.1.53.29-.06.21-.71.58-.44-.07.22-.16.57-.3.79.35-.19.69-.56,1.04-.74.1.34-.21.52-.34.75.4-.16,1.04-.33,1.14-.87l-.26-.19c.14-.03.09.46-.02.56-.33.43-.49-.17-.51-.37l.25-.13c-.26-1.14-.99.21-1.5.15l.22-.84c-.17.23-.35.48-.53.69-.1-.23-.16-.7.09-.8-.33-.44-.32.27-.6-.21-.03-.07-.01-.11.02-.14l-.35.22c.08-.17-.02-.59.18-.45-.57-.53-1.02.54-1.21-.11l.05-.05c-.87.21-.13.6-.84,1.26l-.27-1.53-.15.6c-.08-.03-.25-.09-.19-.33-.37.39.02.27-.21.64-.35-.56-1.2.09-1.15-.88-.22.43.35.43-.15.66.04-1.06-.54.08-.85-.46.21-.51.52-.16.22-.71-.39.86-.69-.33-1.04-.22-.16.71-.75.17-1.34.3.08-.2-.89-.66-1.3-1.05l.05-.11c-.29.68-.75.4-1.16.44.14-.42.25-.56.5-.7l-.34-.09c-.15.2-.29.29-.53.31l.25-.5c-.45-.11-1.11.38-1.56-.19-.21.47,0,1.53-.74,1.61.07-.27.21-.73.4-.77-.06.01-.26.14-.33,0l.4-.34c-.19-.3-.27.31-.46.19.14-.37-.06-.33.08-.61.07-.02.12.23.26.11-.21-.16-.41-.49-.39-.81-.06.22-.19.5-.37.48-.45-.15.02-.5-.16-.79-.21.21-.38-.16-.6.38-.13-.05-.05-.32-.04-.49-.32.15-1.08-.35-1.07.33l.04.06s-.03,0-.05,0h0s0,0,0,0c-1.01.27-1.38-1.01-2.2-1.13l.09-.18c-.53-.01-1-.36-1.51-.14-.13-.06-.13-.47.04-.65-.39-.04-.55.16-.84-.4.48-.11.04-.32.45-.03-.33-.38-.24-.72-.95-.52.4-.35.03-.73-.24-.72l.09.48c-.25-.07-.41-.22-.58-.38l.45-.5c-.35-1.18-2.22.26-2.06-1.27-.47.24.23.57-.26.89-.32-.33-.12-1.39-.23-1.47-.26-.65-1.02.45-1.37-.13-.08.24-.4.79-.92.68-.31-.34.17-1.12.51-1.1.1.05.09.14.04.2.17.02.38.05.39-.26l-.19.15c-.03-.32-.52-.66-.17-.88-.4-.02-.36.22-.23.46-.23-.61-.71-.51-.98-1.09-.02.16-.13.43-.2.37-.44-.79-.57.09-1.07-.22,0-.49.66-.57.02-.73-.1-.42.36-.52.6-.57-.69,0-.52-.87-.68-1.13l.33.04c-.2-.02-.29-.12-.39-.21l-.21.45c-.06-.17-.16-.26-.02-.4-.34.11-.45.66-.99.74,0-.32-.68-.26-.28-.77.33.64.38-.49.87-.18-.13-.02-.24-.1-.28-.29.03-.07.11-.08.16-.07-.04-.87-.7.29-1.15-.21.31-.19.38-.58.25-.61.18.2-.34.51-.7.51-.1-.51-.47-.2-.6-.39l.08.28c-.32.18-.44-.01-.73-.16.19-.21.33.07.35-.09-.69.17-.04-.99-.68-1.05.03-.32.49-.45.48-.7-.71-.08.02-.75-.61-.92-.27.43-.16.38-.76.36l.81.5h-.89c.17.21.59.25.63.43-.47.03-.36-.02-.58.34.31-.76-.79-.33-.68-.99l.93-.73c.02-.83-1.18-.53-1.47-1.38v.34c-.45.19-.37-.37-.7-.48.34-.21.34-.43.48-.66-.23.18-.31-.53-1-.15l.23-.61c-.19-.69-1.36-.04-1.61-.68.47-.06.55-.46,1.04-.25-.11-.19-.16-.39-.39-.25.14-.24-.78-.23-.57-.6-.2.01-.57.2-.68-.03.05-.06.17-.1.17-.1-.18.1-.43-.2-.7.21.76-1.22-.96-1.68-.3-2.69-.34-.37-.72-.83-.95-1.21.12-.02.18-.08.18,0,.1-.7-1.18.12-1.06-.69.46-.58.45.2.59-.1,1.16-.6-.47-.7.06-1.41l.11.07c.28-.48-.77-.61-.9-1.18,0,0,.12-.01.19-.06-.79-.13-1.21-.79-1.53-1.28.53.02.33.16.79-.09-.14-.22-.77.32-1.05-.12.22-.24.36-.66.87-.85l.16.44c.62-.43-.19-.57-.13-.84l.31-.05c-.29-.65-1.05-.47-1.21-1.23l-.21.13c-.88-.24.34-.44-.3-.73l.75-.29c-.23-.23-.91-.81-1.14-1.29.63.19,1.02.7,1.42.98-.04-.27-.21-.89-.62-.97.09.1.31.2.21.33-.67-.22-1.04-.62-1.13-1.17,1.53-.12.12-1.47,1.33-1.99-.62-.9.13-1.89-.03-2.97-1.17.41-.05-.32-1.27-.24-.07-.26-.04-.37.04-.39l.77-.78c.36-.18.26.25.53.23.12-.56.53-.22.87-.58-.44.06-.62-.21-.44-.52l-.58.42c-.61-.82,1.06-.62.45-1.44l.37.27c-.1-.21-.09-.57-.16-.95-.07-.38-.17-.76-.64-1.02.15-.06.5-.11.56.08.29-.92-.71-2.3,0-2.95l.28.13c-.06-.19-.51-.42-.15-.58.12.04.27.13.31.05-.08-.11-.39-.58-.16-.78l.28.27c.61-.82-.44-1.6-.44-2.45.86.24,1.28-.41,1.55-.71l.11.05c.47-.99-.07-1.98-.04-3.09,1.05-.27,1.23-1.84,2.13-2.55-.21.07-.61-.32-.61-.52.26-.14-.27-.88.44-.49l-.05.07c.8.19.78-.36,1-.68l-.9-.55c1.85-.14.85-2.61,2.3-2.39-.11-.35.05-.61-.02-.95l.47.32c.51-.47.76-.71,1.12-1.46l.24.37c.29-.36-.99-1.43-.77-1.82l.76.39c.44-.71,1.59-.85,1.5-1.96.09.09.26.26.2.39.27-.28,1.39-.77.42-1.42.58.49.58-.62.66-1.16l.36.43c-.26-.75-.39-.89-.15-1.41.14-.04.4.23.18.25.51-.1-.15-.6.43-.76l.12.38c.34-.28.17-.39.05-.85.04-.35.68-.49,1.08-.17-.17-.26-.29-.73,0-.81.15.11.17.27.18.34.76-.24.38-1.19,1.12-1.11.13.13.21.18.28.2-.45.36-.82.63-.82.57.35.38.75.16.95.91.01-.52-.06-1.56.45-1.66.05.02.1.05.16.1v.07c.11-.03.15-.12.16-.24.16-.03.27-.04.38-.12.31.29.54-.16.73-.29-.37-.43-.08-.55-.58-.73.05,0,0,.08-.09.2-.02.04-.04.07-.04.11l-.02-.05c-.11.11-.25.25-.41.4-.04-.34-.05-.65.35-.57-.14-.36-.27-.73-.32-.92.73.4,1.46.36,1.83.71.38-.65,1.22-1.1.99-2.23.09-.23.36.12.52.21-.04.15-.16.22-.12.38.18-.45.91-.76.6-1.44.6,0,.12.73.64.25l.04.24c.9.17,1.13-.5,1.42-1.15.29-.65.64-1.3,1.65-1-.13-.03-.2-.04-.27-.14.91-.13,1.68-.57,2.45-1.05.78-.45,1.57-.92,2.57-.64.53.05.42-.41.6-.84l.29.54.27-.82c.56-.7,1.59.99,2.22-.12l-.22-.37c.34,0,.97-.45,1.02.02.02-.08.01-.43.19-.25l.08.31.68-.7c.66.1.15,1.25,1.03,1.13.3-.19.78-1.1.63-1.29-.14.01-.38-.12-.44-.43l.28-.23c-.09-.93.03-1.93-.89-2.4l-.46.68-.26-.41.47-.13c-.34-.36-.45.04-.59.34-.09-.23-.2-.38-.33-.44l-.37.99c-.14-.34.1-.76-.32-.88-.17.46.42.75.05,1.1-.36-.36-.36-.71-.59-.29-.1-.22-.07-.39.04-.52-.22.34-.72.28-.75.79-.42-.47-.9.37-1.1-.48-.03.23-.29.82-.53.94.16-1.16-.96.24-1.18-.87-.05,1.01-1.11.8-1.53,1.5,0-.08.02-.25.09-.22-.36.04-.57-.21-.85-.28.24.75-.2,1.14-.28,1.7-.68-.53-.11-.96-.51-1.58.26.58-.46.89-.11,1.32-.49-.3-.35-.09-.77-.62.34.92-.22.28-.23.94-.64-.25-.5-.78-.86-.3-.36-.17-.07-.68-.07-.68Zm-9.64,8.22s0,0,0,0c.07-.08.14-.15.17-.19-.04.04-.08.1-.17.2Zm-.79.68c.11-.06.23-.16.36-.27.16.12.26.3.17.36-.04-.13-.3-.06-.53-.08Zm4.14,1.61c-.06.16-.17.11-.26.03.05-.05.1-.12.16-.22,0-.02-.02-.04-.03-.06.06.09.11.18.13.26Z"/><path class="cls-1" d="m21.25,12.36s0-.05.02-.07c-.05-.02-.1-.03-.15-.04.02.06.05.12.07.17l.06-.06Z"/><path class="cls-1" d="m30.64,84.65v-.02s0,.05,0,.09c0-.03,0-.05,0-.07Z"/><polygon class="cls-1" points="7.3 21.88 7.42 21.95 7.36 21.8 7.3 21.88"/><path class="cls-1" d="m35.22,88.32c0,.05,0,.11.03.16,0-.04,0-.09-.03-.16Z"/><path class="cls-1" d="m37.56,89.09l.3.26c-.12-.14-.22-.21-.3-.26Z"/><path class="cls-1" d="m39.37,89.71c.04-.09.06-.16.08-.23h0s-.08.23-.08.23Z"/><path class="cls-1" d="m12.95,75.73s-.04-.03-.07-.04c-.2-.05-.09,0,.07.04Z"/><path class="cls-1" d="m20.51,80.72c-.14.03-.27.05-.39.04.1.13.19.21.39-.04Z"/><path class="cls-1" d="m6.24,67.99s0,0,0,0l-.03-.05.03.06Z"/><path class="cls-1" d="m19.8,80.5c.06.18.18.25.32.26-.08-.11-.17-.25-.32-.26Z"/><path class="cls-1" d="m47.6,90.64l.09.02s0-.07,0-.09l-.1.07Z"/><path class="cls-1" d="m47.7,90.57l.1-.07s-.09,0-.1.07Z"/><path class="cls-1" d="m48.01,90.35l-.21.15c.07,0,.17.01.21-.15Z"/><path class="cls-1" d="m45.07,90.38l-.04.2s.03-.11.04-.2Z"/><path class="cls-1" d="m44.3,90.38c.18.06.44.47.7.36l.03-.16c-.14.29-.54-.53-.73-.2Z"/><path class="cls-1" d="m41.45,87.59c.19.1.39.16.58.23-.08-.22-.18-.52.1-.55-.67-.71.09.52-.68.32Z"/><path class="cls-1" d="m39.66,86.94c.34-.04.05-.31.09-.43-.24.16-.3.2-.09.43Z"/><path class="cls-1" d="m27.03,82.4l.27-.43c-.26-.05-.1.17-.27.43Z"/><polygon class="cls-1" points="23.42 83.31 23.47 83.72 23.82 83.39 23.42 83.31"/><polygon class="cls-1" points="24.08 79.43 24.21 79.43 23.76 79.37 24.08 79.43"/><path class="cls-1" d="m9.25,63.19l-.53.36c.18.1.82-.2.53-.36Z"/><path class="cls-1" d="m5.26,54.42c.27-.17.4-.48.08-.58-.02.22-.19.49-.08.58Z"/><polygon class="cls-1" points="10.34 26.72 10.43 26.98 10.46 26.59 10.34 26.72"/><path class="cls-1" d="m29.89,67.7c-.12.12-.34.45-.23.43l.44-.5-.21.07Z"/><path class="cls-1" d="m29.6,69.02c.27-.2.69-.6.99-1.12-.45.46-.31.23-.84.78-.11.01.01-.25.16-.44-.12.12-.02-.19-.3.12-.22.48-.12.57.24.31-.06.14-.19.26-.26.35Z"/><path class="cls-1" d="m35.4,74.5v-.09s0,.07,0,.09Z"/><path class="cls-1" d="m39.15,77.67s-.09.03-.13.08c.05-.01.1-.03.13-.08Z"/><path class="cls-1" d="m39.4,78.76s0-.04-.01-.07c-.02.06-.02.1.01.07Z"/><path class="cls-1" d="m35.4,74.5l-.02.25c.13-.17.04-.17.02-.25Z"/><path class="cls-1" d="m31.43,68.36s-.1.05-.16.1c.03,0,.07-.02.1-.02.02-.03.04-.05.06-.08Z"/><path class="cls-1" d="m33.34,73.66l-.03-.02c-.05.06-.11.12-.18.2l.22-.18Z"/><path class="cls-1" d="m31.94,72.77s.36-.41.51-.6c-.15.17-.24.25-.29.26-.06.09-.13.19-.22.33Z"/><path class="cls-1" d="m30.39,70.43l-.08.04s.05-.02.08-.04Z"/><path class="cls-1" d="m34.23,74.46c-.05.07-.08.13-.11.17.04-.06.08-.11.11-.17Z"/><path class="cls-1" d="m39.9,101.28s-.06-.02-.1-.03c.05.02.09.04.1.03Z"/><polygon class="cls-1" points="36.75 102.32 36.73 102.29 36.42 102.22 36.75 102.32"/><path class="cls-1" d="m40.22,80.24s0,0,0-.01c-.07.03-.04.03,0,.01Z"/><path class="cls-1" d="m48.6,85.81c.93.06,1.38.21,2.39.25-.44-.05-1.81-.23-2.39-.25Z"/><path class="cls-1" d="m31.42,68.45s.04.02.06.04c-.01-.03-.03-.04-.06-.04Z"/><path class="cls-1" d="m50.99,86.06h.01s.09,0,.09,0c-.04,0-.07,0-.1,0Z"/><path class="cls-1" d="m43.27,82.04c.05-.08.08-.15.12-.22-.03.05-.07.11-.12.22Z"/><path class="cls-1" d="m41.62,79.85v.1c.02-.06.01-.08,0-.1Z"/><path class="cls-1" d="m44.84,82.2c0,.06-.03.13.05.09.01-.03.02-.04.03-.06-.06.05-.1.07-.08-.03Z"/><path class="cls-1" d="m46,83.03s.03-.07.05-.11h-.05s0,.11,0,.11Z"/><path class="cls-1" d="m41.18,97.78c-.15-.06-.31-.13-.47-.21.35.19.39.42.47.21Z"/><path class="cls-1" d="m31.24,68.62c.09-.11.14-.16.18-.17-.02,0-.04,0-.06,0-.05.07-.1.13-.12.17Z"/><path class="cls-1" d="m47.5,78.64l.13.2c-.02-.08-.07-.15-.13-.2Z"/><path class="cls-1" d="m47.5,91.48v.08s.02-.02,0-.08Z"/><path class="cls-1" d="m48.22,79.17c-.08.18-.12.3-.13.39.03-.03.06-.05.11-.1l.02-.29Z"/><path class="cls-1" d="m40.71,97.56h0s0,0,0,0Z"/><path class="cls-1" d="m41.27,99.33c.1-.15-.61-.4-.97-.62-.08-.3.54.15.91.26-.11-.21-.66-.62-.58-.7.11.05.16.05.28.15-.44-.42.18-.4-.37-.93.06.02.12.05.17.07-.33-.16-.66-.35-.89-.49.03-.09-.31-.39.12-.17-.04.04.12.14.24.24l-.13-.19c.64.29.13.23.58.5-.1-.26-.47-.75-.22-.77.59.34.02.4.63.56l-.34.04c1,.43-.13.07.92.54.31-.11-.13-.43.18-.55-.28-.26-.48-.29-.76-.55-.34-.72,1.57.71.99-.04-.32-.32-1-.85-.51-.75l.58.51c.22-.16-.79-.78-.21-.69.21.22.07.32.17.34.59.23-.27-.37-.18-.48l.55.4c.08-.29-.11-.85.02-1.16.14.15.27.32.47.41.02-.51.61-.59,1.17-.55l-.31-.51s.23.15.28.25c.26.06-.26-.27-.37-.48.03-.09.32.17.4.33-.16-.52-.19-1.32.44-1.02l.07.17c.32.05-.59-1.07-.08-.78l.04.1c.52-.1.61-.88,1.44-.35-.43-.73.59.05-.05-.95.55.33.6.54,1.12.68.11,0-.26-.7-.22-.87l.32.52-.19-.64.45.59.02-.19c-.06,0-.22-.19-.31-.35.02-.34.6.15.75.42.03-.23.07-.45.12-.66.11.22.08.33.11.49-.09-.65.34.56.25-.04-.09-.11-.15-.33-.21-.45.26.29.47.19.56-.03l.15.4c.16-.02.28-.14.4-.27.19-.1.38-.19.56-.29.17-.08.34-.15.52-.21-.39-.09-.74-.75-.62-.86l.49.53c-.14-.38-.35-.15-.43-.64.26,0,.67.57.65.8l.16-.29c.16.16.16.27.31.48-.18-.38,1.11.35.75-.29l.18.15c.72-.26,1.06-.44,1.75-.58-.69-.44-.25-.38-.69-.76.68.06,1.95.31,2.53.19-.05-.27-.73-.38-1.16-.65.97.38,1.52.26,1.91.58.62-.16.87-.21.79-.63-.61-.14-.92-.19-1.29-.32-.07-.08.85.1,1.45.28l.09.04c-.25-.2.09-.21.71-.16.76.08,1.62.17,2.41.25.6,0,.69-.13-.57-.49l.15.04-1.66-.57c-.05-.14,1.02.27,1.55.26-1.27-.4-1.41-.54-1.5-.68-.08-.14-.1-.28-.91-.52,1.31.02.85-.29.29-.57-.57-.3-1.22-.57-.71-.79l-.55.04c-.71-.09.16-.13.18-.22-.43.03-.36.13-.76.08-.92-.4-1.27-.82-1.6-1.34-.32-.51-.63-1.13-1.17-1.71-.43-.43-1.97.85-1.74-.04.23-.1.48-.2.72-.29-.82-.1-1.24-.42-1.69-.77-.27-.21-.32-.27-.48-.34-.15-.07-.31-.1-.54-.05.12-.1.24-.26.28-.22.18-.46-.37-.3-.6.02-.05-.09.19-.3.26-.5.06-.31-.62.3-.4-.12.04-.07.12-.1.16-.12-.2.14-.28-.28-.54.22-.03-.35-.5-.06-.46-.43-.46.43-.14-.47-.69.21.54-.72.1-.83-.26-.57.2-.19.06-.3.33-.58-.14-.09-.36-.04-.61.35.39-1.06-1.01.34-.33-.88-.68.1-1.25.1-1.73.01.54-.72.45.21.99-.56-.56.05-1.21.54-1.42.12-.02-.16.28-.28.4-.38-.56.05-.61-.54-1.2-.36.05-.07.14-.12.21-.15-.08-.02-.06-.21-.29.13l.12-.05c-.25.55-.97.83-1.16,1.08.79-.88-.12-.46.91-1.54-.08.03-.25.16-.4.38-.01-.11.06-.25.31-.46-.34.03-.52.43-.71.29.12-.16.2-.19.36-.37-.33.24-.65.48-.72.23.08-.09.15-.23.2-.19-.32-.16-1.08.49-1.17-.04.6-.63.06-.31.48-.92l-.3.06-.15.34c-.14-.12-.58.23-.57-.06l.29-.17-.35-.08v.34c-.39.21-.55.78-.62.47.08-.03-.14-.11.04-.52h0c-.21.14-.43.29-.43.06.11-.21.51-.65.58-.79-.44.45-.44-.11-.92.37.12-.1.35-.42.39-.49l-.36.37c.03-.18.06-.25.26-.5-.15-.22-.49.81-.49.31.04-.02.08-.09.16-.12-.12-.35-.65-.08-.73-.44.38-.66.3,0,.6-.58-.4-.12-1.19.25-1.39-.12v.11c-.66.83.09-.59-.36-.3.08-.04.4-.44.32-.35-.11-.29-.59-.1-1.1-.06l.2-.19c.02-.29-.25-.35-.31-.55-.2.19-.25.1-.44.45.5-1.56-1.28.1-.89-1.21.05.03.24-.12.21-.14l-.46-.03c-.25.39-.12.26-.27.6-.2.19-.41.3-.49.24.32-.15.44-.6.53-.85-.07.12-.19.23-.27.35.32-.78-.57.73-.47.12l.15-.19c-.16.04-.42.24-.47.12.28-.46.24-.14.5-.49-.14-.07-.85.64-.65.12.14-.08.22-.03.36-.11.24-.6.14-.48.1-.63v.02s-.05-.39-.05-.39l-.05.18c-.98,1.01-.47-.03-1.22.56.72-.55.33-.38.7-.86.04-.18.07-.39.2-.51-.39.32.06-.43-.5.04.11-.16-.1-.09.21-.47-.22.03-.17.3-.32.49-.59.39,0-1-.83-.47-.47.12-.9.62-1.33.72.1-.31.48-.53.48-.53.04-.32-.08-.35-.33-.26.12-.12.18-.25.28-.46-.13-.03-.48.53-.44.2.15-.16.38-.42.56-.56-.22.06-.54.28-.76.33.17-.3.37-.37.54-.52-.22.03-.52,0-.88.41l-.03.22c-.06-.01.25-.39.34-.45.36-.26.05.27-.06.43l-.16.04c-.59.99.44.09.57.27l-.56.62.58-.43c-.09.2-.34.6-.49.64-.12.42.28-.16.11.28-.03.07-.06.09-.09.11l.26-.12c-.13.12-.33.49-.33.34-.07.54.71-.26.42.31l-.05.03c.46-.02.39-.47,1.03-.89l-.74,1.33.39-.47s.05.12-.1.31c.36-.26.14-.23.43-.5-.18.56.55.08.01.89.33-.34.07-.39.42-.54-.57.88.28-.01.14.47-.36.41-.32.08-.47.57.62-.68.14.35.36.29.43-.58.42-.07.75-.13-.16.19.12.58.14.92l-.08.09c.47-.57.56-.33.79-.35-.26.35-.39.48-.58.58l.12.09c.17-.17.28-.24.41-.25l-.35.42c.18.09.71-.28.71.17.31-.41.67-1.28,1.09-1.39-.15.23-.42.62-.55.67.04-.01.2-.14.17-.01l-.36.31c-.02.24.28-.28.33-.19-.23.32-.11.27-.3.51-.04.02.03-.18-.09-.08.04.12.01.39-.13.65.12-.19.31-.43.41-.43.18.1-.22.43-.25.66.2-.19.14.11.49-.36.05.04-.11.27-.18.41.24-.15.44.23.71-.35v-.05s.02,0,.03-.01h0s0,0,0,0c.62-.27.38.69.81.69l-.12.16c.3-.06.45.16.81-.1.05.04-.1.38-.26.55.21-.03.36-.2.35.2-.33.19-.14.28-.28.11.06.26-.08.54.41.23-.36.37-.25.6-.08.54l.1-.38c.13,0,.18.1.23.19l-.43.51c-.14.9,1.41-.68.87.61.36-.31.01-.4.41-.78.1.18-.3,1.07-.25,1.11,0,.45.77-.64.84-.28.11-.21.46-.74.75-.81.1.18-.4.94-.6,1.03-.05-.01-.02-.08.03-.15-.1.03-.23.07-.32.32l.16-.18c-.07.25.16.39-.12.66.25-.1.28-.28.26-.44,0,.42.3.23.37.57.04-.13.18-.38.21-.35.13.45.4-.27.66-.21-.1.38-.55.67-.17.57-.02.29-.34.53-.51.65.45-.24.17.5.23.64l-.21.08c.13-.05.17-.01.22.02l.22-.43c0,.11.06.15-.06.3.24-.21.42-.67.79-.93-.07.25.39-.04.04.49-.12-.35-.35.53-.61.47.08-.03.13,0,.14.11-.03.06-.08.1-.12.12-.1.62.52-.5.75-.31-.24.27-.34.58-.26.55-.09-.08.3-.51.55-.67,0,.33.29-.05.35.04l-.02-.17c.24-.26.29-.17.46-.18-.15.23-.21.08-.24.21.49-.42-.11.72.3.5-.06.25-.38.55-.41.73.46-.24-.08.54.33.37.22-.43.15-.34.56-.62l-.52.04.61-.41c-.09-.08-.38.09-.39-.01.33-.24.25-.16.43-.51-.29.68.51-.15.38.36l-.7.95c-.08.59.76-.19.89.26l.02-.24c.32-.35.22.08.43,0-.24.31-.26.47-.37.7.17-.24.2.18.69-.44l-.17.52c.12.35.94-.71,1.09-.43-.32.3-.38.6-.72.74.07.06.1.17.26-.05-.1.23.53-.27.38.08.13-.12.39-.44.46-.35-.04.07-.11.16-.11.16.11-.16.29-.12.47-.53-.49,1.17.72.41.3,1.42.25.02.52.06.69.15-.08.09-.12.16-.12.1,0,.45.8-.82.8-.32-.25.61-.33.19-.4.44-.73,1.08.39.07.11.8l-.08.03c-.14.45.59-.18.74.04,0,0-.08.09-.12.16.5-.46.81-.5,1.12-.5-.43.32-.26.14-.62.52.11-.01.59-.6.85-.59-.17.22-.27.45-.73.79l-.11-.04c-.54.49.12.06.07.17l-.28.18c.18,0,.95-.41,1.08-.24l.23-.13c.94-.28-.38.26.36.08l-.86.35c.25-.05,1.11-.14,1.45-.07-.84.11-1.32.13-1.78.23.03.03.21.08.74-.02-.12,0-.39.05-.26,0,.83-.17,1.37-.15,1.51-.03-1.07.17-1.13.24-1.13.31,0,.06.08.14-.84.2.51.02.49.08.34.12-.14.04-.43.06-.29.1,2.22.14.1.03,2.47.24.21.06.2.07.05.06-.42,0-.86-.03-1.33-.06-.71-.08-.59-.1-1.15-.16-.14.01-1.05-.12-1.73-.21.92.13,1.34.2,1,.16l1.17.15c1.52.3-2.18-.32-.71-.04l-.89-.17c.41.09.98.22,1.98.46-.3-.07-.81-.18-1.17-.26-.05,0-.05,0-.03,0,.08.03.5.15.73.24.23.09.28.15-.22.02l-.49-.15c.13.05.89.3.36.15-.19-.06-.39-.13-.51-.17.17.05.77.29.46.21l-.49-.19c-.35-.1-.06.02.28.19.34.17.74.4.77.49-1.12-.53-1.53-.69-1.7-.78l-.14-.08c-.13-.07.61.53.64.89-.4-.35-.51-.42-.6-.43-.02-.02-.13.02-.07-.05-.15.03-.31.03-.48-.03.14.11.28.63.24.75-.18-.11-.02.69-.36-.04h.04c-.43-.68-.56-.38-.75-.31l.46.95c-1.18-1.14-.82,1.12-1.76.07.03.29-.09.36-.05.64l-.3-.48c-.36.06-.54.11-.8.45l-.16-.38c-.22.11.7,1.51.55,1.65l-.55-.65c-.32.23-1.1-.08-.93.77-.07-.1-.22-.3-.19-.37-.16.1-.95.04-.14.87-.5-.57-.37.21-.29.61l-.35-.44c.35.65.48.8.43,1.11-.09-.01-.34-.29-.19-.24-.34-.08.25.49-.12.43l-.18-.32c-.18.11-.03.24.18.61.07.24-.37.16-.75-.17.2.23.43.6.24.59-.15-.12-.21-.23-.23-.29-.51,0,.14.81-.42.61-.14-.12-.22-.17-.28-.19.19-.19.36-.33.38-.29-.38-.35-.59-.24-1-.86.16.4.58,1.19.26,1.19-.04-.02-.09-.05-.15-.09l-.03-.05c-.07,0-.07.07-.03.16-.11,0-.19-.01-.24.03-.35-.26-.34.05-.43.13.44.35.28.4.73.59-.04-.01-.04-.06-.01-.13,0-.02,0-.04-.02-.07l.03.04c.03-.07.08-.15.14-.23.16.25.29.47-.02.36.24.27.49.55.61.69-.7-.38-1.21-.41-1.61-.67.05.46-.33.76.42,1.54.06.15-.31-.08-.46-.15-.06-.11,0-.15-.12-.26.12.31-.22.53.37.97-.41.01-.5-.48-.57-.15l-.17-.16c-.67-.05-.43.44-.2.88.24.46.46.87-.38.82.1,0,.15,0,.27.05-1.01.4-.14,1.72-1.43,2.03-.28.14.16.33.45.58l-.58-.16.58.46c.38.46-1.59.09-.81.78l.41.06c-.12.12.12.52-.33.37.07.03.4.16.18.16l-.31-.08.44.49c-.29.22-1.21-.34-1.37.07.08.19.79.63,1.02.61.03-.06.23-.11.54-.05l.13.16c.91.21,1.82.47,2.53.32l-.51-.32.46.04v.17c.43,0,.07-.14-.16-.26.24.04.41.05.5.03l-.82-.4c.36.07.68.26.91.19-.38-.19-.81-.11-1.04-.33.43,0,.76.13.44-.08.23.05.38.11.47.18-.25-.17-.06-.29-.52-.48.53.05-.02-.37.82-.1-.19-.09-.6-.38-.61-.48.95.49.17-.31,1.22.11-.85-.43-.27-.56-.66-.95.06.04.2.12.14.12.12-.08.4,0,.6-.01-.72-.31-.8-.56-1.2-.86.75.16.8.46,1.49.7-.59-.25-.48-.49-.98-.67.47.09.25,0,.86.22-.88-.43-.11-.17-.61-.52.5.05.84.36.66.07.31.06.54.35.54.35Zm1.05-4.59s0,0,0,0c-.02.04-.03.07-.04.09,0-.02.02-.05.03-.1Zm.25-.3s-.09.06-.13.11c-.15-.12-.29-.26-.26-.29.08.1.23.11.39.17Zm-3.55-1.87c-.02-.11.09-.06.18,0-.02.03-.03.07-.03.14l.05.05c-.08-.07-.15-.14-.2-.2Z"/><path class="cls-1" d="m39.51,93.15s.02.04.01.05c.05.02.09.03.12.05l-.12-.13-.02.04Z"/><path class="cls-1" d="m35.41,74.39v.02s.01-.04.03-.08c-.01.03-.02.04-.03.06Z"/><polygon class="cls-1" points="47.28 91.93 47.21 91.81 47.24 91.93 47.28 91.93"/><path class="cls-1" d="m34.66,71.46s.05-.09.06-.13c-.02.03-.04.08-.06.13Z"/><path class="cls-1" d="m33.92,70.77v-.25c-.01.13-.01.2,0,.25Z"/><path class="cls-1" d="m33.46,70.09c-.06.08-.11.13-.15.19h0s.15-.19.15-.19Z"/><path class="cls-1" d="m43.78,76.77s.02,0,.04,0c.12-.05.06-.04-.04,0Z"/><path class="cls-1" d="m40.05,75.69c.09-.06.18-.12.25-.15-.03-.07-.06-.11-.25.15Z"/><polygon class="cls-1" points="47.48 78.62 47.48 78.63 47.5 78.64 47.48 78.62"/><path class="cls-1" d="m40.44,75.65c.01-.13-.04-.14-.13-.11.02.06.04.15.13.11Z"/><path class="cls-1" d="m30.9,67.92l-.02-.04s-.04.05-.06.07l.07-.03Z"/><path class="cls-1" d="m30.83,67.95l-.07.03s.03.02.07-.03Z"/><path class="cls-1" d="m30.6,68.04l.15-.06s-.04-.05-.15.06Z"/><path class="cls-1" d="m31.57,68.73l.13-.16s-.07.08-.13.16Z"/><path class="cls-1" d="m31.86,68.86c-.03-.08.11-.46-.05-.42l-.1.13c.22-.22-.1.53.16.29Z"/><path class="cls-1" d="m31.43,71.66l-.11-.28c-.09.2-.21.47-.34.45-.12.72.23-.43.46-.16Z"/><path class="cls-1" d="m31.9,72.39c-.17,0-.18.26-.26.35.19-.11.23-.14.26-.35Z"/><path class="cls-1" d="m36.62,75.82l-.31.41c.13,0,.12-.16.31-.41Z"/><polygon class="cls-1" points="39.07 74.34 39.17 74.02 38.86 74.37 39.07 74.34"/><polygon class="cls-1" points="37.46 77.67 37.38 77.71 37.64 77.66 37.46 77.67"/><path class="cls-1" d="m45.5,83.28l.34-.53c-.13.05-.55.61-.34.53Z"/><path class="cls-1" d="m48.64,84.77c-.3.17-.49.29-.12.17.01-.04.23-.19.12-.17Z"/><polygon class="cls-1" points="45.74 86.98 45.73 86.75 45.65 86.99 45.74 86.98"/></g></svg>