<?xml version="1.0" encoding="UTF-8"?><svg id="Camada_2" xmlns="http://www.w3.org/2000/svg" viewBox="0 0 176.19 106.35"><defs><style>.cls-1{fill:#e7b543;}.cls-1,.cls-2,.cls-3{stroke-width:0px;}.cls-2{fill:#fffefd;}.cls-3{fill:#e4aa28;}</style></defs><g id="Camada_1-2"><rect class="cls-3" x="6.91" y="6.35" width="165.47" height="93.53"/><path class="cls-1" d="m169.53,99.88c.37.27,1.2.12,1.04-.63l-1.41-.53.38,1.17Z"/><path class="cls-1" d="m172.15,94.82c-.69-.88-1.89-1.9-3.19-1.33,1.36.88.79,1.09,2.41,2.03.16.75-.45,1.31-.97,1.19.36.27-.31,1.17.58,1.57,1.09-.98,1.14-2.22.23-3.51.31-.28.68,0,.94.06Z"/><path class="cls-1" d="m174.35,21.36l-.17.47c.09-.13.14-.29.17-.47Z"/><path class="cls-1" d="m141.88,3.59c.35-.03.49-.17.51-.3-.32.09-.59.18-.51.3Z"/><path class="cls-1" d="m134.1,2.04c.17.04.31.06.46.1-.17-.13-.35-.2-.46-.1Z"/><path class="cls-1" d="m174.35,21.36l.44-1.22c-.46-.09-.34.62-.44,1.22Z"/><path class="cls-1" d="m168.74,84.69c.07.25.2.47.37.66-.06-.21-.11-.41-.15-.62-.08-.01-.14-.02-.22-.04Z"/><path class="cls-1" d="m175.5,41.43v.37c.16.11.36.21.58.31l-.58-.68Z"/><path class="cls-1" d="m175.72,56.83c.05-.35-1.15-.47-1.67-.6.49.2.73.45.82.76.23,0,.5-.04.85-.16Z"/><path class="cls-1" d="m173.6,81.24l.17.43c-.05-.11-.1-.3-.17-.43Z"/><path class="cls-1" d="m175.76,30.41c.18-.03.33-.08.43-.14-.15,0-.29.06-.43.14Z"/><path class="cls-1" d="m154.52,94.24c-.01.09,0,.14,0,.21.09-.12.12-.21,0-.21Z"/><path class="cls-1" d="m172.37,100.19l-.25.06c-.03.23-.05.45-.05.67l.3-.74Z"/><path class="cls-1" d="m119.88.5s.04.01.06.02c.37-.14.16-.11-.06-.02Z"/><path class="cls-1" d="m1.94,23.93c1.07-1.48,1.38,2.41,2.57.18-.47.21-1.87-2.02-2.57-.18Z"/><path class="cls-1" d="m168.9,84.29c-.01-.21-.02-.42-.01-.63-.04.29-.03.48.01.63Z"/><path class="cls-1" d="m4.51,24.11h.01l.11-.23c-.05.1-.08.15-.12.23Z"/><path class="cls-1" d="m87.12,1.22c.07.21.2.37.33.53-.01-.12-.09-.27-.33-.53Z"/><path class="cls-1" d="m111.53,2.93l-.6-.16c.24.11.43.15.6.16Z"/><path class="cls-1" d="m74.44,2.91c-.33-.09-.44-.26-.89-.1.04.06.08.1.14.15.16-.16.38-.24.75-.05Z"/><path class="cls-1" d="m61.25,2.92c.07.09.16.16.24.24.13-.02.28-.04.42-.06l-.66-.18Z"/><path class="cls-1" d="m114.43,94.82c.29.34.47.71.61,1.08-.2-.85,1.73-1.16-.61-1.08Z"/><path class="cls-1" d="m169.42,84.69c-.3-.08-.45-.19-.52-.39.01.15.04.3.06.44.18.04.35.05.45-.05Z"/><path class="cls-1" d="m73.9,12.38l-2.1-.18c.59.12,1.35.18,2.1.18Z"/><path class="cls-1" d="m19.79,94.99l.48-.14c-.19-.03-.36,0-.48.14Z"/><path class="cls-1" d="m65.59,12.38c-.37-.42-.77-.67-1.18-.83-.09.09-.19.17-.24.31l1.42.52Z"/><path class="cls-1" d="m115.05,95.91s0-.01,0-.01c0,0,0,0,0,.01Z"/><path class="cls-1" d="m128.85,93.06c-2-.03-.94,1.54-1.36,2.45-2.38.45-1.1-1.16-1.91-1.97-1.49.42-2.63,1.86-3.74,1.8-.08-.26-.3-.35-.05-.68-1.57,1.25-4.67.06-6.5,1.64-.14-.14-.21-.27-.24-.39.3.79.34,1.59.28,2.16-.9.03-1.66,1-2-.03.55.03.59-.39.85-.71l-.94.45c-.84-1.48,1.28-.51,1.28-1.61-1.83.48-3.96,1.71-5.36,1.29-.29-1.45,3.28-.49,1.41-1.78l2.17.55c-1.66-2.29,1.32.16-.21-2.29-2.85-.42-3.19.74-6.04.32-.64.81.21,1.19-.43,2-4.05,1.45-3.19-3.65-6.16-1.71-.77.97-1.07,2.8-3.19,1.83l.72-1.64c-2.76-.16-1.58,2.36-4.47,1.25.51-.64,2.17-.54,1.75-.74-1.88-1.29-1.33.93-2.77.93l-.3-1.45c-2.94.23-6.18,1.28-9.44,1.54.18-.43.74-.89-.02-1.33-4.11.73-8.77-.18-12.74-1.04l-1.51,1.25c-.35-.01-.65-.57-.27-.81-1.54-.48-.08.79-.82,1.29-.88.09-1.16-.72-.6-1.1-2.73,1.06-7.77,2.29-10.64.95l.56-.37c-2.24-.51-2.52,2.57-4.6,1.4l.4-.22c-4.85-.54-10.22.6-13.92-1.29-.7,1.81-4.8-.8-5.12,1.71-2.77-1.25-1.98-1.7-5.88-2.54-1.04-.12-1.55,1.57-2.84,1.83l-.03-1.32-1.75,1.38-.93-1.57-1.21.34c.48.08,1.02.59.95.97-1.89.6-4.6-.92-4.65-1.59l-2.23.56c-.17.05-.4.09-.53.14l-.17.14c-.12.09-.26.19-.41.28.17-.53.41-.71.54-1.05-.31.67-.35.32-.26-.04.05-.36.21-.74-.18-.12-.06.3-.36.78-.51,1.05,0-.58-.15-.74-.57-.66-.03-.09-.1-.16-.19-.22.3-.2.61-.42.91-.65.12-.29,0-.37-.13-.62-.03.11-.07-.54-.1-.96-.03-.46-.06-.91-.1-1.37-.06-.92-.09-1.85-.09-2.78-.42,1.33-1.99,1.03-2.15-.06l1.39-.44c-.86-.7-.52,1.14-1.57-.31.16-1.39,1.58-.93,2.03-.14l-.48-1.69c.42-.1.64.3,1.16.4-.86-.69,1.4-2.92-.1-3.92l.41-.1c.01-3.72-.47-5.4-.54-8.43-1.2-.06-.93-1.24-1.9-2.15.38-2.23,1.33-4.7,1.23-7.38-.6-1.88-1.02-.55-1.73-1.4,1.09-.14.99-2.82,1.77-1.43-.18-3.22-.22-4.11-1.1-8.18-.45.44-.64.94-1.02.68-.18-.74.46-1.68.98-1.57l.11.19c-1.64-4.57,3.19-10.55.91-14.18l.11.2-1.19-3.77c.19-1.74.82,1.04,1.5-.24-1.82-4.07.27-6.43-.95-9.78,1.61-1.3,1.56-3.6,1.35-6.01-.1-1.21-.24-2.44-.22-3.6,0-.29.02-.57.04-.85.03-.26.06-.63.12-.57.11-.08.28-.12.54-.09-.25-.06-.51-.11-.76-.15-.75-.4.43-.1.61-.04-.59-.29-.68-.12-1.1-.41-.16-.41-.23-.88-.23-1.28.47,0,1.03.08,1.5.23.12.04.23.08.33.12.13.04.07.09.62.14l2.47.31c3.29.44,6.59.95,9.84,1.23,2.88.2,1.63-3.93,5.26-2.12l-1.03,1.41c5.8-1.69,11.86.06,17.54-1.38-.34.33-.35.75-.9.74,1.2,1.02,4.44.05,4.46-.79.88.1.21.76.75,1.18,1.2.6,3.02-1.31,3.66-.29.11.17-.34.33-.56.41.78-.5,3.65.13,2.9-1.06,2.13.56,4.08-.53,5.78.17,1.11-1.32,3.65.64,4-1.23-.15,1.93,3.74,1.56,5.09.65-.45.58,1.17.6.64,1.41,1.54-.03,2.95-.39,2.68-1.38,2.83,2.31,5.7-1.86,7.29,1.1,4.57-1.04,8.8-1.74,12.91-2.19-.15,1.93-4.54.19-4.37,2.21,3.9-.79,6.15-2.45,10.02-1.98,1,.26-.57.83-.91,1.16,3.9-.79,7.53.18,11-.87,0,.18-.38.38-.74.52.68-.06,1.59.28,1.51-.59l-.67.24c-1.09-1.27,2.71-2.65,2.84-3.32-1.16,2.51,3.42.63,1.58,3.8.45-.17,1.01-.58.91-1.17.67.17.88.51.2,1.18,2.45-.48,1.58-1.41,3.79-1.39,0,.42-.46.59-.68,1.09,1.12-.83,2.25-1.65,4.12-1.29-.11.26.1.59-.45.58,3.22-.13,5.48-2.2,9.01-1.4-1.04,1.84,1.2.61,1.39,2.2l1.9-.48-.76-.77c1.66.03,3.13-1.13,4.56-.61l-1.24.66,3.12-.3-1.76-.6c1.68-.82-.18-2.02,2.03-1.57-.45.16,1.66.02,2.53.96h0c.82-.5,1.67-1.04,2.9-.64.32.51-.26,1.76-.05,2.1.81-1.33,3.89-.37,4.92-1.79-.34.33-.36,1.17-.25,1.34l.68-1.08c.77.35.88.51.76,1.18,2.32.2-.74-2.02,2.01-1.15-.22.09-.11.25-.56.41,2.76.45,5.34-.69,7.87-.15.75,1.6-2.22.39-1.36,1.75.78-.06,1.57-.18,2.36-.34.24-.04.31-.08.42-.12l.33-.13.73-.26c1.02-.35,2.35-.69,3.48-.75.02.36.01.74-.05,1.14l.18-.6c1.13-.81.85.07.42.96-.43.93-1.01,1.7-.47,2.17-.17-.28-1.26-.02-1-.03-.09.36-.1.68-.06,1.02.05.53.15,1.26.29,1.94.27,1.4.68,2.95,1.04,4.78l-.58-.46c-.52,1.43-.3,3.76-.56,5.31.58.46.49,1.34,1.33.8-3.31,4.76,1.78,9.08-.98,13.3,0-.5-.51-1.2-.51-.8l.53,3.6c.99-.28.6-.47,1.37-1.23.58.46,1.04,1.47,1.04,2.36-.65-1.62-1.58.01-2.13.71.3-.12.64.12.94.06-1.75,1.88,1.98.31.8,2.88l-.52-.14c.27.96.95,1.84.8,2.88-1.14.43-.53-1.02-1.47-1.09.07,1.45,2.16,2.87,1.02,4.19-.32-.62-.32-1.51-.64-2.12-1.34,1.43-1,1.6-1.21,2.66l.03-.1-.61,2.46.36-.63c2.98,1.82.54,3.71,2.49,6.16-1.84-2.38-1.07-.39-2.36-.58-.36.63-.76,1.58-1.12,1.31,1.04,1.16-.82,1.93.7,3.57-.41.07-.04,1.24-1.09.98.33,1.51.72-.36,1.25-.23,1.42,2.32-1.73,5.46.23,8.8.8,2.88,2.21,3.41,2.91,6.09-.67.9-1.52-.74-1.52-.74-.61,1.46-.5,2.55-.02,3.92-.36-.28-.67,0-1.14.43.11,1.1,1.52.74.9,2.19-.46-.25-1.21-.57-1.67-1.1.38,1.3,1.16,2.58,1.54,3.92-.73.36-1.1-.81-1.57-1.28.33,1.51.66,3.91,1.81,4.38l.41-.97c.06.55-.99.28-1.2-.12-.9-1.29.4-1.86.82-1.94l.27.96c2.44-.98-.39-3.84-.25-5.76l1.78.8-1.47-1.97c.46-.42,1.45-.71,1.72.24.88-1.38-.63-1.22.35-2.41.15-.13.24-.07.31.05l-.53-1.35c.37.26,1.25-.22,1,.6,1.02-2.42-1.33-3.9.01-4.81l.11.2c-.6-3.36-1.3-.32-2.83-2.84l3.22-1.69-1.3-.33c.05-.35.14-1.03.67-.9-.89-1.29-.57.22-1.41-.53,1.19-1.67-.56-4.6,1.52-4.97-.99-.6-.77,1.59-1.45-.19,2.23-.51-.38-2.06.64-3.58,1.15.47.54,1.91,1.57.39-1.95-.92.43-2.97.05-4.25-1.55-.06-.65-2.79-1.16-4.95.52.14.85-4.06,1.41-6.06l.26.06c-1.57-.39-1.27-2.46-1.6-3.96.94.06,1.31.33,1.73,1.15v-1.42c-.51-.33-.77-.78-.95-1.69l1.17.36c-.06-1.88-1.38-3.8-.6-6.22-1.09-.14-3.04,1.93-3.77-.64.59-.1,1.6-.19,1.84.48-.08-.22-.49-.78-.24-1.23l.99,1.02c.44-1.1-.83-.58-.74-1.46.84.02.6-.65,1.27-.53.08.23-.35.77-.02,1.11.15-1,.65-2.2,1.29-2.6-.48.09-1.14,0-1.24-.73-.06-1.88,1.01-.65,1.45-1.74-.58-.46.02-1.66-1.24-1.69,0-.55.59-.65.94-.87-.56-.98-.16-4.56-1.5-3.46l-.09.25s-.03-.1-.06-.16h0s0,0,0,0c-.63-1.6-.45-3.26-.18-4.92.13-.83.29-1.66.38-2.48.04-.41.07-.82.07-1.22,0-.44-.03-1.01-.1-1.48l.42-.06c-.24-1.21-.31-2.52-.44-3.7-.12-1.17-.3-2.18-.76-2.53,0-.11.02-.24.06-.39-.37-.19-.47-.79.15-1.21-1.11.16-1.77.36-2.43.43-.67.07-1.3.02-2.55-.33,2.27-.74-.44-.65,2.28-.54-1.21-.18-1.96-.44-2.82-.51-.43-.04-.88-.02-1.41.07-.26.05-.55.11-.85.2-.14.05-.33.1-.44.16-.11.06-.23.13-.36.2.69-1.08-1.42-1.36-2.31-1.04l1.32.77c-1,.16-1.88.06-2.78-.03l.48-1.42c-3.85-1.73-6.94,2.94-9.87.05-1.02.99,2.09.7,1.18,1.86-1.77-.19-3.61-2.23-4.17-2.23-2.42-.79-2.26,2.08-4.8,1.54.32.51.63,1.86-1.27,2.34-1.77-.19-2.18-2.13-1.06-2.53.42-.04.63.12.61.29.57-.18,1.32-.4.62-.95l-.23.51c-.88-.52-3.32-.46-2.74-1.29-1.34.48-.57.83.42,1.09-2.27-.73-3.55-.02-5.89-.51.37.28.71.87.34.87-3.43-.63-1.51.96-3.83,1.18-1.32-.77.47-1.84-1.87-1.2-1.43-.52-.3-1.34.27-1.76-2.13.98-3.98-.64-5.2-.82l1.12-.41c-.67.24-1.22.24-1.78.23l.64,1.01c-.66-.18-1.22-.18-1.21-.6-.68.66.52,1.69-.83,2.59-.88-.51-2.68.55-2.98-.79,2.76.46-.31-1.35,2.03-1.57-.45.16-1,.15-1.66-.02-.1-.15.09-.28.27-.36-2.65-1.2-1.22,1.52-3.96,1.49.35-.76-.64-1.44-1.08-1.28,1.1.02.53,1.26-.48,1.84-1.76-.59-1.91.44-2.83.37l1.05.28c-.36.76-1.23.66-2.46.9-.1-.59,1.11-.41.68-.67-1.36,1.33-3.07-1.38-4.97-.48-.88-.51-.08-1.42-.86-1.77-2.13.98-2.3-1.04-4.54-.23.64,1.02.76.77-.82,1.76l3.67-.72-2.36,1.48c1.11.01,2.34-.64,3-.47-1.12.83-1.01.58-.48,1.42-1.52-1.53-3.01.89-4.76-.14l.05-2.52c-2.64-1.12-4.69,1.29-8.11.66l1.1.44c-.46,1-2.11.14-3.22.55.1-.84-.59-1.15-1.06-1.67.06.63-2.51-.06-2.82,1.63l-1.53-1.11c-2.76-.45-3.15,2.4-5.81,2.11.8-.92-.41-1.51,1.37-2.17-.89,0-1.69-.16-1.7.42-.52-.53-2.46,1.14-3.28.33-.37.37-.5,1.25-1.49,1.18-.11-.17,0-.42,0-.42,0,.42-1.56.57-.69,1.5-2.73-2.63-7.64.19-10.02-2.07-1.94.28-4.27.55-6.03.62.11-.25,0-.42.34-.33-2.42-.78-1.49,2.42-4.25,1.54-1.41-1.36,1.47-.74.59-1.25-.38-2.77-3.33.38-5.19-1.24l.45-.16c-1.42-.94-3.46,1.05-5.78.85,0,0,.11-.25.01-.42-1.59,1.41-4.59,1.88-6.82,2.28.69-1.08,1.01-.57.59-1.68-1,.16.29,1.77-1.7,2.08-.65-.59-2.09-1.11-2.28-2.29l1.88-.06c-.96-1.52-2.44.05-3.43-.21l.13-.67c-2.89.22-2.93,1.89-6.03,1.77l.32.5c-1.69,1.66-1.42-.93-3.11.3l-.51-1.69c-1.12.41-3.92,1.63-5.92,1.95,1.14-1.25,3.48-1.89,4.94-2.63-1.11-.01-3.77.12-4.35.96.45-.16,1.01-.58,1.45-.32-.68.66-1.47,1.16-2.36,1.48-.23.08-.44.15-.71.21-.29.06-.58.11-.88.15-.6.08-1.21.11-1.87.11-.3-2.14-3.94-1.83-7.47-2.07-.13,1.64-.41,3.06-1.29,3.48,1.21,7.89-.52,10.23-.32,15.08,2.54-1.61.07,1.33,2.68,1.05.17,1.06.12,1.46-.05,1.56l-1.56,3.21c-.76.76-.58-1.01-1.16-.91-.2,2.32-1.11.97-1.8,2.51.93-.31,1.34.81.98,2.13l1.2-1.86c1.39,3.24-2.19,2.8-.81,6.08l-.82-1.03c.48,1.68-.02,6.19,2.08,7.84-.3.3-1.02.69-1.2-.05-.31,4.01,2.23,8.93.94,12.05l-.64-.3c.18.75,1.2,1.3.56,2.24-.26-.05-.64-.3-.67.05.22.4,1.12,1.99.75,2.98l-.72-.85c-.84,3.91,1.75,6,2.19,9.29-1.88,0-2.49,3.07-2.79,4.61l-.27-.05c-.23,4.56,1.56,7.74,2.29,11.96-1.02,1.31-1.23,3.53-1.33,5.94-.05,1.37-.1,2.79-.16,4.17-.08,2.17-.22,4.31-.51,6.42.17-.7.54-.83.88-.68.35.15.68.55.77,1.08-.22,1.12.27,2.08.36,2.82.68-.06.96.07.21.78l-.56-.03c-.2.85.82,1.16,2.22,1.26,1.41.1,3.15,0,4.6.03.41-.75.8-1.5,1.15-2.25.67.41,1.53.7,2.48.9.23.04.46.09.69.13.15.04.3.07.45.1.3.06.61.09.92.12,1.25.09,2.55-.07,3.79-.25,2.48-.34,4.73-.73,5.86.74,1-.56,2.24-.56,3.23-1.12l-.05,1.21c2.77.31,4.16.46,7.58.17l-.7.86c1.93.08,2.44-3.49,4.22-3.56l.54,1.8c3.37-.03,6.78,1.56,10.12-.08-.05.26-.15.79-.7.86,1.59.05,6.14,1.22,5.56-1.26.04,1.61,3.48.16,5.3-.55l-.28,1.19c1.54-1.52,1.59-1.94,3.73-2.36.51.16.45.95-.23.65,1.69.62,1.32-1.13,3.38-.49l-.77.76c1.74.09,1.6-.32,2.56-1.2,1.1-.48,3.31.3,3.57,1.38.23-.66,1.19-1.53,2.22-1.22.14.41-.24.66-.42.78,2.92.81,4.34-1.38,6.34-.21.04.39.17.59.34.71-2.32-.03-4.18-.09-4.01-.18,0,1.1,1.87,1.29.38,2.8,1.5-.83,4.07-2.62,5.89-2.11.09.11.17.21.24.38l-.19.12c.42.11.8,0,1.15-.18.58.18.95.31,1.51.33.22.91,2.15.49,3.08.53-.08-1.2,1.14-1.01,0-2,.15.08-.18.14-.8.19-.14.04-.31.05-.4.12.02-.03.04-.07.06-.11-.61.03-1.41.06-2.32.08.74-.61,1.51-1.12,2.54-.46.48-.77,1.01-1.56,1.3-1.94,1.28,1.67,3.74,2.58,4.08,3.61,2.85-.67,6.71-.44,8.5-2.7.81-.29.93.65,1.23,1-.47.23-1.02.19-1.28.52,1.62-.58,4.8-.22,5.18-1.8,2.04.71-1.15,1.45,1.66,1.19l-.38.48c5.52,2.52,8.97-4.02,15.09-.79-.42-.2-.64-.29-.72-.55,6.97,1.43,14.37-1.34,21.25.92,1.96.46,2.17-.55,3.36-1.32l.42,1.29,2.04-1.49c2.89-1.09,5.01,3.16,8.68,1.1l-.47-.87c1.32.16,4.17-.51,3.95.49.13-.16.43-.9.95-.45l.04.67,3.23-1.16c2.51.49-.39,2.68,3.26,2.81,1.36-.26,3.87-1.96,3.36-2.42-.55-.03-1.4-.42-1.44-1.1l1.24-.35c.23-1.99,1.18-4.02-1.87-5.41l-2.13,1.22-.69-.96,1.79-.06c-1.02-.91-1.66-.1-2.38.45-.17-.51-.47-.87-.89-1.06l-2.09,1.9c-.25-.78.94-1.54-.46-1.97-.98.88.94,1.74-.68,2.32-1.02-.9-.72-1.64-1.91-.87-.17-.51.08-.84.56-1.06-1.06.61-2.81.26-3.36,1.32-1.06-1.12-3.59.29-3.48-1.59-.33.45-1.87,1.48-2.85,1.56,1.78-2.25-3.66-.13-3.18-2.55-1.32,2.03-4.77.9-7.11,2.02.13-.16.39-.49.59-.38-1.32-.17-1.7-.78-2.54-1.16-.17,1.67-2.22,2.06-3.32,3.09-1.61-1.61.98-1.96.47-3.51.08,1.36-2.8,1.35-2.25,2.48-1.23-1-1.06-.48-1.7-1.87-.22,2.09-1.15.35-2.17,1.64-1.79-1.03-.46-1.96-2.42-1.32-.93-.64.81-1.38.81-1.38Zm-46.65,3.62v-.02c.4-.03.74-.05.96-.07-.2.02-.48.05-.96.09Zm-3.92.02c.48.05,1.07.06,1.7.05.14.41-.01.84-.41.82.21-.28-.71-.52-1.29-.87Zm8.29,8.32c-.62.17-.83-.07-.91-.31.29-.02.64-.06,1.09-.14.02-.04.06-.1.07-.15-.06.23-.13.44-.25.6Z"/><path class="cls-1" d="m87.69,103.44c.09-.03.14-.08.26-.09-.13-.1-.25-.2-.37-.27-.08.13-.15.26-.22.38.11,0,.23-.01.33-.02Z"/><path class="cls-1" d="m174.16,21.92l.03-.08c-.05.07-.1.13-.17.17.06-.06.1-.06.14-.09Z"/><polygon class="cls-1" points="24.15 94.4 24.16 94.7 24.5 94.44 24.15 94.4"/><path class="cls-1" d="m170.04,43.51c-.11.04-.21.12-.31.28.08-.01.19-.13.31-.28Z"/><path class="cls-1" d="m169.77,52.84l-.43,1.32c.24-.57.36-.99.43-1.32Z"/><path class="cls-1" d="m169.18,60.01c.21.09.37.12.51.14,0,0,0,0,0-.01l-.52-.13Z"/><path class="cls-1" d="m112.02,10.96c-.1,0-.19.02-.28.05-.65.23-.21.14.28-.05Z"/><path class="cls-1" d="m145.95,8.15c-.36.22-.71.43-1.09.57.6.09,1.07.12,1.09-.57Z"/><path class="cls-1" d="m74.13,12.4s0-.01,0-.02h-.23l.23.02Z"/><path class="cls-1" d="m143.28,8.7c.6.24,1.11.19,1.58.02-.5-.08-1.08-.2-1.58-.02Z"/><path class="cls-1" d="m168.63,91.09l-.05.35c.08,0,.14.01.19.04l-.14-.39Z"/><path class="cls-1" d="m168.77,91.47l.14.38c0-.18,0-.33-.14-.38Z"/><path class="cls-1" d="m169.22,92.66l-.3-.81c0,.28-.04.62.3.81Z"/><path class="cls-1" d="m169.19,81.59l-.44-.11c.09.06.23.1.44.11Z"/><path class="cls-1" d="m169.06,78.71c-.1.69-.93,1.73-.66,2.69l.35.09c-.65-.45,1.04-2.12.31-2.78Z"/><path class="cls-1" d="m174.44,66.67l-.35,2.42c.46-.42,1.09-.98,1.2.12,1.38-3.05-1.04.63-.85-2.54Z"/><path class="cls-1" d="m175.11,59.17c.22,1.3.67-.02.94.05-.42-.82-.53-1.02-.94-.05Z"/><path class="cls-1" d="m173.24,3.61l1.08-1.09c-1.67.16-.34.42-1.08,1.09Z"/><polygon class="cls-1" points="160.68 9.25 161.65 9.93 162.12 8.93 160.68 9.25"/><polygon class="cls-1" points="154.56 1.47 155 1.32 153.33 1.71 154.56 1.47"/><path class="cls-1" d="m63.6,1.86l.3,1.35c.68-.24.82-1.75-.3-1.35Z"/><path class="cls-1" d="m24.32,3.23c-.43-.67-1.53-1.1-2.21-.44.88.09,1.76.62,2.21.44Z"/><path class="cls-1" d="m13.68,105.19l-1.45.45,1.37-.19c.27-.03.33-.06.47-.09l.37-.09c-.26-.03-.41-.05-.76-.08Z"/><path class="cls-2" d="m100.94,44.89v-15.64h4.81c1.38,0,2.61.31,3.69.93,1.09.62,1.93,1.5,2.54,2.64.61,1.14.91,2.44.91,3.89v.72c0,1.45-.3,2.75-.9,3.88-.6,1.13-1.44,2.01-2.53,2.63s-2.32.94-3.68.95h-4.84Zm3.22-13.03v10.44h1.56c1.26,0,2.22-.41,2.89-1.24.67-.82,1.01-2,1.02-3.53v-.83c0-1.59-.33-2.79-.99-3.61-.66-.82-1.62-1.23-2.89-1.23h-1.59Z"/><path class="cls-2" d="m122.45,44.89h-3.1v-11.97l-3.71,1.15v-2.52l6.48-2.32h.33v15.66Z"/><path class="cls-2" d="m77.27,76.89h-3.1v-11.97l-3.71,1.15v-2.52l6.48-2.32h.33v15.66Z"/><path class="cls-2" d="m88.56,66.77h3.52v2.59h-3.52v3.91h-2.72v-3.91h-3.6v-2.59h3.6v-3.68h2.72v3.68Zm3.22,10.11h-9.28v-2.52h9.28v2.52Z"/><path class="cls-2" d="m94.5,76.89v-15.64h4.81c1.38,0,2.61.31,3.69.93,1.09.62,1.93,1.5,2.54,2.64.61,1.14.91,2.44.91,3.89v.72c0,1.45-.3,2.75-.9,3.88-.6,1.13-1.44,2.01-2.53,2.63s-2.32.94-3.68.95h-4.84Zm3.22-13.03v10.44h1.56c1.26,0,2.22-.41,2.89-1.24.67-.82,1.01-2,1.02-3.53v-.83c0-1.59-.33-2.79-.99-3.61-.66-.82-1.62-1.23-2.89-1.23h-1.59Z"/><path class="cls-2" d="m116,76.89h-3.1v-11.97l-3.71,1.15v-2.52l6.48-2.32h.33v15.66Z"/><path class="cls-2" d="m132.49,66.65l2.93-5.39h3.71l-4.55,7.76,4.67,7.88h-3.75l-3.01-5.48-3.01,5.48h-3.75l4.67-7.88-4.55-7.76h3.71l2.93,5.39Z"/><path class="cls-2" d="m145.66,71c0-1.81.41-3.25,1.22-4.33.81-1.07,1.92-1.61,3.34-1.61,1.13,0,2.07.42,2.8,1.27v-5.93h3.12v16.5h-2.8l-.15-1.24c-.77.97-1.77,1.45-2.99,1.45-1.37,0-2.46-.54-3.29-1.62-.83-1.08-1.24-2.58-1.24-4.5Zm3.1.23c0,1.09.19,1.93.57,2.51.38.58.93.87,1.65.87.96,0,1.64-.41,2.03-1.22v-4.59c-.39-.81-1.06-1.22-2.01-1.22-1.5,0-2.25,1.22-2.25,3.65Z"/><path class="cls-2" d="m21.8,44.89v-15.64h4.81c1.38,0,2.61.31,3.69.93,1.09.62,1.93,1.5,2.54,2.64.61,1.14.91,2.44.91,3.89v.72c0,1.45-.3,2.75-.9,3.88-.6,1.13-1.44,2.01-2.53,2.63s-2.32.94-3.68.95h-4.84Zm3.22-13.03v10.44h1.56c1.26,0,2.22-.41,2.89-1.24.67-.82,1.01-2,1.02-3.53v-.83c0-1.59-.33-2.79-.99-3.61-.66-.82-1.62-1.23-2.89-1.23h-1.59Z"/><path class="cls-2" d="m46.49,44.89h-10.72v-2.13l5.06-5.39c.69-.76,1.21-1.42,1.54-1.99.33-.57.5-1.1.5-1.61,0-.69-.18-1.24-.53-1.64s-.85-.6-1.5-.6c-.7,0-1.25.24-1.66.73-.41.48-.61,1.12-.61,1.91h-3.12c0-.95.23-1.82.68-2.61.46-.79,1.1-1.41,1.93-1.85.83-.45,1.77-.67,2.83-.67,1.61,0,2.86.39,3.75,1.16.89.77,1.34,1.87,1.34,3.28,0,.77-.2,1.56-.6,2.36-.4.8-1.09,1.74-2.06,2.8l-3.56,3.75h6.72v2.5Z"/><path class="cls-2" d="m58.39,36.88h-9.6v-2.54h9.6v2.54Zm0,4.65h-9.6v-2.54h9.6v2.54Z"/><rect class="cls-2" x="65.28" y="51.67" width="95.04" height="1"/></g></svg>