<?xml version="1.0" encoding="UTF-8"?><svg id="Camada_2" xmlns="http://www.w3.org/2000/svg" viewBox="0 0 356.53 111.94"><defs><style>.cls-1{fill:#e7b543;}.cls-1,.cls-2,.cls-3{stroke-width:0px;}.cls-2{fill:#fffefd;}.cls-4{fill:#fff;font-family:Roboto-Bold, Roboto;font-size:22px;font-weight:700;}.cls-3{fill:#e4aa28;}</style></defs><g id="Camada_1-2"><rect class="cls-3" x="9.92" y="9.12" width="341.34" height="93.53"/><path class="cls-1" d="m347.18,102.65c.53.46,1.73.2,1.49-1.06l-2.03-.9.54,1.96Z"/><path class="cls-1" d="m350.94,94.16c-.98-1.48-2.71-3.19-4.58-2.23,1.95,1.47,1.14,1.82,3.46,3.41.24,1.26-.65,2.2-1.4,1.99.52.45-.45,1.96.83,2.64,1.57-1.64,1.63-3.72.34-5.9.45-.47.98-.01,1.35.09Z"/><path class="cls-1" d="m312.96,6.27l.79.24c-.22-.13-.49-.21-.79-.24Z"/><path class="cls-1" d="m236.54,5.16c.58-.05.82-.25.85-.43-.54.13-.98.26-.85.43Z"/><path class="cls-1" d="m223.49,2.92c.28.06.52.09.77.14-.29-.19-.59-.29-.77-.14Z"/><path class="cls-1" d="m312.96,6.27l-2.04-.64c-.14.66,1.05.49,2.04.64Z"/><path class="cls-1" d="m346.04,77.15c.1.43.29.78.53,1.11-.09-.35-.16-.69-.21-1.04-.11-.02-.2-.04-.32-.07Z"/><path class="cls-1" d="m349.05,4.63h.9c.4-.23.83-.51,1.29-.83-.76.28-1.49.55-2.19.83Z"/><path class="cls-1" d="m356.06,30.36c.08-.58-1.65-.79-2.4-1.01.71.33,1.05.76,1.18,1.28.33,0,.72-.07,1.22-.26Z"/><path class="cls-1" d="m353.02,71.36l.24.73c-.07-.19-.14-.51-.24-.73Z"/><path class="cls-1" d="m328.14,4.26c-.04-.26-.14-.48-.24-.62,0,.22.09.42.24.62Z"/><path class="cls-1" d="m321.29,94.56c-.02.12,0,.2,0,.31.15-.17.2-.3,0-.31Z"/><path class="cls-1" d="m351.26,103.09l-.42.09c-.04.33-.09.65-.09.97l.5-1.06Z"/><path class="cls-1" d="m199.61.72s.06.02.11.03c.63-.2.27-.16-.11-.03Z"/><path class="cls-1" d="m2.79,38.63c1.54-2.48,1.98,4.04,3.69.3-.67.35-2.69-3.4-3.69-.3Z"/><path class="cls-1" d="m346.27,76.48c-.02-.35-.03-.7-.02-1.06-.06.48-.05.81.02,1.06Z"/><path class="cls-1" d="m6.48,38.94h.02l.16-.39c-.07.16-.11.25-.18.39Z"/><path class="cls-1" d="m144.59,1.75c.11.3.33.53.56.75-.02-.18-.15-.39-.56-.75Z"/><path class="cls-1" d="m185.58,4.2l-1.01-.23c.4.16.73.21,1.01.23Z"/><path class="cls-1" d="m123.31,4.18c-.55-.13-.74-.37-1.49-.14.07.09.14.15.23.21.27-.24.63-.35,1.26-.07Z"/><path class="cls-1" d="m101.16,4.19c.12.13.27.23.41.35.22-.03.48-.06.7-.09l-1.11-.25Z"/><path class="cls-1" d="m253.97,95.39c.49.49.79,1.02,1.02,1.55-.34-1.23,2.91-1.66-1.02-1.55Z"/><path class="cls-1" d="m347.01,77.14c-.44-.13-.65-.32-.74-.66.02.25.05.5.09.74.26.06.5.08.65-.08Z"/><path class="cls-1" d="m122.41,17.78l-3.52-.25c.98.17,2.26.25,3.52.25Z"/><path class="cls-1" d="m95.06,95.63l.81-.21c-.31-.04-.6.01-.81.21Z"/><path class="cls-1" d="m108.45,17.78c-.63-.61-1.29-.96-1.98-1.19-.15.13-.31.25-.41.44l2.39.75Z"/><path class="cls-1" d="m255,96.95s0-.02,0-.02c0,0,0,.01,0,.02Z"/><path class="cls-1" d="m278.18,92.86c-3.35-.05-1.58,2.22-2.29,3.52-4,.64-1.85-1.67-3.21-2.83-2.5.6-4.42,2.68-6.28,2.59-.14-.37-.5-.51-.08-.98-2.64,1.8-7.84.09-10.92,2.35-.23-.2-.34-.39-.4-.56.5,1.13.58,2.29.47,3.11-1.5.04-2.79,1.43-3.36-.05.92.04,1-.55,1.43-1.02l-1.58.64c-1.42-2.13,2.15-.74,2.15-2.31-3.07.69-6.65,2.45-9.01,1.85-.49-2.08,5.5-.7,2.36-2.55l3.64.8c-2.78-3.29,2.21.23-.34-3.29-4.79-.6-5.36,1.06-10.14.45-1.08,1.16.36,1.71-.72,2.87-6.79,2.08-5.35-5.24-10.34-2.46-1.29,1.39-1.79,4.02-5.35,2.63l1.21-2.35c-4.64-.23-2.65,3.38-7.51,1.8.86-.93,3.65-.78,2.94-1.06-3.15-1.86-2.23,1.34-4.65,1.34l-.5-2.09c-4.94.33-10.38,1.83-15.85,2.21.3-.62,1.24-1.27-.04-1.91-6.9,1.04-14.73-.25-21.39-1.49l-2.54,1.8c-.59-.02-1.1-.81-.46-1.16-2.59-.68-.13,1.14-1.38,1.85-1.48.13-1.95-1.03-1.01-1.57-4.58,1.53-13.04,3.29-17.86,1.36l.94-.53c-3.76-.73-4.24,3.69-7.72,2.01l.67-.32c-8.15-.78-17.16.87-23.38-1.85-1.18,2.59-8.07-1.16-8.59,2.46-4.65-1.79-3.32-2.44-9.88-3.64-1.75-.17-2.61,2.26-4.77,2.63l-.05-1.89-2.94,1.98-1.56-2.26-2.03.49c.81.11,1.72.85,1.6,1.39-3.17.85-7.73-1.32-7.81-2.29l-7.5,1.6c.17-.76,1.42-1.02,2.42-1.51-4,1.93-.73-1.99-4.4-.22.49.43-.27,1.13-.35,1.51-1.83-1.14-5.99-1.15-9.07-.67l.59-1.3c-5.56-.33-11.73.63-17.98.6,2.24.61,1.73,2.87-.11,3.08l-.73-1.99c-1.18,1.23,1.91.75-.51,2.26-2.33-.23-1.57-2.27-.23-2.92l-2.84.69c-.17-.6.5-.91.67-1.67-1.16,1.24-4.9-2-6.58.15l-.16-.59c-6.24-.02-9.07.67-14.16.77-.1,1.72-2.09,1.34-3.6,2.74-.93-.14-1.89-.33-2.88-.53-.49-.1-.99-.2-1.5-.31l-.76-.15c-.16-.03-.18-.05-.22-.08l-.12-.07c-.65-.39-1.02-.69-1.64-.62-.73.43-1.19.79-1.53,1.18-.36.39-.6.79-1.44,1.3.24-.27.37-.49.43-.67.44-.69.68-1.26.92-1.66.24-.4.49-.59.96-.71-.13-.59-.21-1.01-.41-1.53-.06-.14-.12-.28-.18-.43,0-.03-.02-.03-.03-.07l-.03-.2c-.02-.13-.04-.27-.06-.41-.04-.28-.09-.56-.13-.86-.19-1.19-.43-2.56-.75-4.27-.65.74-.92,1.58-1.46,1.14-.26-1.24.66-2.82,1.41-2.64l.16.33c-2.35-7.67,4.58-17.71,1.31-23.82l.16.34-1.71-6.34c.27-2.91,1.18,1.75,2.15-.41-2.62-6.83.38-10.8-1.36-16.43,2.32-2.18,2.23-6.04,1.94-10.1-.15-2.03-.34-4.1-.32-6.04.01-.97.08-1.9.24-2.78.08-.42.18-.91.31-1.22.13-.05.28-.08.47-.09-.36-.04-.73-.06-1.09-.07-.54-.2-.38-.33-.06-.32.32,0,.81.1.93.1-.85-.34-.98-.03-1.57-.43-.23-.65-.33-1.42-.33-2.1.79,0,1.71.12,2.46.33l.27.08c.13.03.04.06.5.09l2.07.2c1.38.15,2.76.3,4.14.45,5.53.63,11.07,1.37,16.53,1.77,4.83.29,2.74-5.65,8.83-3.04l-1.73,2.03c9.74-2.43,19.92.08,29.46-1.98-.57.47-.58,1.07-1.52,1.07,2.01,1.47,7.45.07,7.48-1.13,1.49.14.34,1.09,1.26,1.7,2.02.87,5.07-1.88,6.15-.41.18.24-.57.48-.94.59,1.32-.71,6.13.18,4.87-1.52,3.58.81,6.85-.76,9.7.25,1.86-1.9,6.13.91,6.72-1.77-.26,2.77,6.27,2.24,8.54.93-.76.84,1.97.87,1.08,2.03,2.58-.04,4.95-.55,4.5-1.98,4.76,3.32,9.56-2.67,12.24,1.58,7.67-1.49,14.77-2.5,21.67-3.15-.25,2.77-7.63.28-7.33,3.18,6.55-1.14,10.32-3.51,16.82-2.85,1.68.38-.95,1.2-1.52,1.67,6.54-1.14,12.65.25,18.47-1.25-.02.26-.64.54-1.24.75,1.15-.09,2.67.4,2.54-.85l-1.12.34c-1.83-1.82,4.55-3.81,4.76-4.78-1.95,3.6,5.75.91,2.66,5.46.75-.24,1.7-.83,1.53-1.68,1.12.25,1.48.74.34,1.69,4.11-.68,2.65-2.02,6.37-1.99-.01.61-.76.84-1.15,1.56,1.88-1.19,3.78-2.37,6.92-1.86-.19.37.18.84-.76.84,5.4-.18,9.21-3.16,15.13-2.01-1.75,2.64,2.02.87,2.33,3.16l3.19-.68-1.28-1.11c2.79.04,5.26-1.63,7.66-.88l-2.07.94,5.23-.43-2.96-.87c2.83-1.18-.3-2.9,3.41-2.26-.75.23,2.79.03,4.25,1.38,0,0,0,0,0,0,1.38-.73,2.8-1.5,4.87-.93.54.73-.43,2.53-.08,3.02,1.36-1.91,6.54-.53,8.26-2.57-.58.48-.61,1.68-.42,1.92l1.14-1.55c1.29.5,1.48.74,1.27,1.7,3.89.28-1.24-2.9,3.38-1.65-.36.13-.19.36-.94.59,4.64.65,8.96-.99,13.22-.22,1.26,2.3-3.72.56-2.28,2.51,6.14-.42,12.72-2.76,18.67-2.22l-1.11-.25c.82-3.25,4.43,1.61,7.43.07-.74.24-.96,1.81-.77,1.44,4.07.52,8.32-.8,14.49-1.82l-.76.84c2.4.75,6.32.43,8.91.81.77-.83,2.25-.7,1.35-1.91,4,2.38,7.81,1.74,11.5,1,1.85-.37,3.67-.76,5.47-.82.9-.03,1.8.03,2.69.22.45.09.89.22,1.34.39l.33.13.22.15c.14.1.28.22.4.34-.13,0-.28.05-.41.12-.07.03-.13.07-.19.12-.09.05-.18.09-.25.13-.31.18-.44.36-.1.36l.36-.05.21-.05.43-.1.91-.19,1.99-.38c.25-.71.22-.92.09-1.1-.14-.18-.35-.31-.66-.86.9-.84,2.91-1.49,4.4-1.49-1.67.47-1.93,1.04-1.92,1.59.04.55.33,1.08.36,1.48.24-.43.96-.91,1.29-1.35.03.35.08.55.17.63-.26.82.55.07,1.24-.29.35-.18.67-.26.81.02.14.27.1.91-.26,1.99l-.74.27c.19.55.53,1.05.8,1.67.27.62.46,1.36.35,2.22-1.64.88-.76-1.41-2.11-1.04.05.88.82,1.6,1.38,2.75.56,1.18.9,2.32.09,3.43-.46-1.04-.46-2.53-.92-3.57-1.92,2.41-1.44,2.69-1.74,4.47l.04-.18-.87,4.13.52-1.05c4.27,3.06.78,6.22,3.58,10.34-2.65-4-1.53-.66-3.39-.97-.52,1.05-1.09,2.65-1.62,2.19,1.5,1.94-1.18,3.25,1.01,5.99-.6.12-.06,2.08-1.56,1.64.47,2.53,1.04-.6,1.79-.39,2.04,3.9-2.48,9.16.33,14.77,1.15,4.84,3.17,5.73,4.17,10.22-.96,1.51-2.18-1.24-2.18-1.24-.88,2.44-.72,4.28-.03,6.58-.52-.47-.96.01-1.63.72.16,1.85,2.18,1.24,1.29,3.67-.67-.42-1.73-.95-2.4-1.85.55,2.18,1.67,4.33,2.21,6.58-1.04.6-1.58-1.36-2.26-2.15.47,2.53.94,6.56,2.59,7.35l.59-1.63c.08.92-1.42.47-1.72-.21-1.29-2.17.57-3.13,1.17-3.25l.38,1.61c3.51-1.65-.56-6.45-.36-9.68l2.55,1.35-2.12-3.31c.66-.7,2.09-1.19,2.47.41,1.26-2.32-.91-2.05.5-4.04.22-.22.34-.12.44.08l-.76-2.26c.54.44,1.8-.38,1.43,1.01,1.47-4.06-1.91-6.55.02-8.08l.16.34c-.86-5.64-1.87-.54-4.07-4.77l4.62-2.85-1.87-.55c.07-.58.21-1.73.96-1.52-1.28-2.16-.81.37-2.02-.89,1.71-2.8-.8-7.72,2.19-8.35-1.42-1-1.1,2.68-2.09-.31,3.21-.85-.55-3.45.92-6.01,1.66.79.78,3.21,2.26.65-2.8-1.54.61-4.98.08-7.14-2.23-.1-.93-4.69-1.67-8.31.19.06.36-.34.52-1.02.08-.34.16-.75.24-1.21.08-.5.16-.88.23-1.64.31-2.79.63-6.4,1.04-9.04l.37-.12c-1.27.32-1.69-.94-1.89-2.58-1.58.16-3.19.19-4.65.4.99-1.35,1.91-1.88,4.4-2.48h-3.46c-1.24.73-2.44,1.11-4.56,1.37.44-.56.91-1.12,1.41-1.68-1.19.02-2.4.16-3.6.33-.59.09-1.18.18-1.78.28-.42.09-.85.18-1.29.28-1.71.34-3.53.53-5.56-.03-.23,1.57,3.24,4.37-1.07,5.42-.16-.85-.32-2.3.81-2.65-.37.11-1.32.71-2.06.34l1.72-1.43c-1.85-.63-.97,1.19-2.45,1.06.03-1.21-1.1-.86-.88-1.82.38-.12,1.29.5,1.86.03-1.67-.22-3.69-.94-4.36-1.85.15.69,0,1.63-1.22,1.79-3.16.09-1.08-1.46-2.93-2.08-.77.84-2.79-.03-2.84,1.78-.93,0-1.1-.85-1.46-1.34-1.64.8-7.65.23-5.8,2.15l.42.13c-.08.04-.17.04-.27.08h.01-.01c-5.37,1.8-11.15-1.03-16.48-.25v-.6c-3.17.69-7.07.41-9.34,1.71-.94,0-2.22-1.11-1.82-1.83-2.43.45-2.7,1.14-6.21.14,2.44-1.06-.84-.94,2.5-.77-3.16-.52-3.87-1.49-7.26.16,1.15-1.55-2.38-1.95-3.88-1.49l2.21,1.11c-1.69.23-3.16.09-4.66-.04l.81-2.04c-6.46-2.48-11.65,4.22-16.57.07-1.71,1.43,3.51,1,1.98,2.67-2.97-.28-6.07-3.2-7-3.21-4.07-1.13-3.8,2.98-8.06,2.21.54.73,1.06,2.67-2.12,3.35-2.98-.27-3.66-3.05-1.78-3.64.71-.06,1.06.17,1.03.42.96-.27,2.22-.58,1.04-1.37l-.39.73c-1.48-.74-5.57-.66-4.61-1.86-2.25.69-.96,1.2.7,1.57-3.82-1.05-5.96-.03-9.89-.74.62.4,1.2,1.26.58,1.25-5.76-.9-2.54,1.38-6.44,1.7-2.22-1.11.79-2.65-3.13-1.72-2.4-.75-.51-1.93.45-2.52-3.58,1.4-6.69-.92-8.73-1.18l1.89-.59c-1.13.35-2.05.34-2.99.33l1.08,1.46c-1.11-.25-2.04-.26-2.02-.87-1.14.95.87,2.42-1.39,3.72-1.48-.74-4.49.79-5-1.14,4.64.66-.51-1.94,3.42-2.25-.76.23-1.68.22-2.79-.03-.17-.22.16-.4.46-.51-4.44-1.73-2.04,2.18-6.64,2.14.58-1.09-1.07-2.06-1.82-1.83,1.85.02.89,1.82-.81,2.65-2.95-.85-3.21.63-4.75.53l1.76.4c-.6,1.09-2.07.94-4.13,1.29-.18-.85,1.87-.58,1.13-.96-2.28,1.91-5.16-1.98-8.35-.69-1.48-.74-.14-2.04-1.44-2.54-3.57,1.41-3.87-1.49-7.62-.32,1.08,1.46,1.27,1.1-1.37,2.53l6.17-1.03-3.96,2.13c1.86.02,3.93-.92,5.04-.67-1.89,1.19-1.69.83-.8,2.04-2.55-2.19-5.05,1.28-8-.2l.09-3.62c-4.43-1.61-7.87,1.86-13.61.95l1.85.63c-.77,1.44-3.55.2-5.41.78.17-1.21-.99-1.65-1.79-2.4.1.9-4.21-.08-4.73,2.34l-2.57-1.59c-4.64-.65-5.3,3.45-9.76,3.04,1.34-1.32-.68-2.17,2.31-3.12-1.49-.01-2.83-.23-2.85.61-.87-.76-4.13,1.63-5.5.48-.63.53-.83,1.8-2.51,1.7-.18-.25,0-.6,0-.6,0,.6-2.62.81-1.16,2.15-4.59-3.78-12.83.27-16.82-2.97-3.25.41-7.17.8-10.12.88.19-.36,0-.6.57-.48-4.07-1.13-2.5,3.47-7.14,2.22-2.37-1.96,2.46-1.06.98-1.8-.64-3.98-5.59.54-8.71-1.78l.75-.23c-2.38-1.35-5.81,1.51-9.71,1.22,0,0,.19-.35.02-.6-2.66,2.03-7.7,2.7-11.45,3.27,1.17-1.56,1.7-.82.99-2.41-1.68.22.49,2.54-2.86,2.99-1.09-.85-3.51-1.6-3.83-3.29l3.16-.09c-1.62-2.19-4.09.07-5.76-.31l.21-.96c-4.85.31-4.91,2.72-10.12,2.55l.54.72c-2.85,2.39-2.39-1.34-5.23.43l-.86-2.42c-1.88.58-6.58,2.34-9.95,2.79,1.91-1.79,5.85-2.71,8.29-3.78-1.86-.02-6.33.18-7.3,1.37.75-.23,1.7-.83,2.44-.45-1.14.95-2.46,1.66-3.96,2.13-.75.23-1.54.41-2.38.52l-.32.04-.38.03c-.26.02-.52.03-.78.05-.53.03-1.06.04-1.62.03.01-3.07-6.17-2.63-12.04-2.98-.18,2.79-.59,5.24-1.85,6.16.43,2.98.6,5.62.62,8.29v.76s-.02.62-.02.62l-.06,1.25c-.06.83-.14,1.67-.23,2.52-.37,3.39-.92,6.91-.78,10.74,3.65-2.71.1,2.23,3.85,1.76.24,1.78.18,2.46-.07,2.62l-2.24,5.4c-1.09,1.28-.83-1.69-1.67-1.53-.29,3.9-1.59,1.64-2.58,4.22,1.34-.53,1.92,1.36,1.41,3.58l1.73-3.13c2,5.45-3.15,4.71-1.17,10.2l-1.18-1.74c.7,2.82-.02,10.4,2.99,13.16-.43.5-1.46,1.16-1.73-.08-.45,6.73,3.21,14.99,1.35,20.23l-.92-.51c.27,1.26,1.72,2.19.8,3.76-.38-.08-.92-.51-.97.08.08.07.22.7.38,1.3.16.63.33,1.37.48,2.15.3,1.56.48,3.22.22,4.73-.34-.62-.69-1.29-1.03-2.01-.46,4.66-.2,8.42.34,11.15,3.08-.43,5.91-1.03,8.5-1.58,2.6-.54,4.96-1.03,7.42-1.22-.07.67.36,1.24,1.21,1.7.54.47,1.25.84,2.06,1.15,1.61.61,3.55.94,4.84,1.16l-.09.38c7.65.33,12.99-2.24,20.08-3.3,4.4,2.93,14.89,1.23,21.96,2.87-1.08-.49.18-2.1,1.43-2.37,1.66.55,4.58-1.87,4.32.6l-.59-.05c1.25,2.43,4.66,1.78,7.32,1.85l.44-3.24c6.96,4.71,18.24-1.73,22.04,2.49,1.68-.81,3.76-.8,5.43-1.61l-.09,1.74c4.65.44,6.98.66,12.73.25l-1.17,1.24c3.24.12,4.1-5.01,7.09-5.11l.9,2.59c5.66-.04,11.39,2.24,16.98-.12-.09.38-.26,1.13-1.17,1.23,2.66.07,10.31,1.75,9.34-1.8.07,2.32,5.84.23,8.9-.79l-.48,1.71c2.58-2.18,2.66-2.78,6.27-3.38.85.22.75,1.37-.39.93,2.85.9,2.22-1.62,5.67-.71l-1.29,1.09c2.93.13,2.7-.45,4.31-1.73,1.84-.69,5.55.43,5.99,1.98.39-.94,2-2.2,3.72-1.76.23.58-.4.95-.71,1.12,4.9,1.16,7.28-1.99,10.65-.31.07.57.29.85.57,1.02-3.89-.04-7.02-.13-6.73-.26,0,1.58,3.14,1.85.64,4.03,2.52-1.19,6.83-3.77,9.9-3.03.15.15.29.3.4.55l-.32.18c.71.16,1.34.01,1.94-.25.98.26,1.6.45,2.54.47.36,1.3,3.6.7,5.17.77-.13-1.72,1.92-1.45,0-2.87.25.12-.3.2-1.34.28-.24.05-.51.08-.67.18.03-.05.07-.1.11-.15-1.03.05-2.37.09-3.89.12,1.24-.88,2.53-1.61,4.26-.66.8-1.11,1.69-2.25,2.19-2.78,2.14,2.4,6.28,3.7,6.85,5.19,4.78-.97,11.27-.64,14.28-3.88,1.36-.42,1.56.93,2.07,1.44-.79.32-1.72.28-2.14.74,2.72-.83,8.06-.32,8.71-2.59,3.43,1.02-1.93,2.08,2.78,1.71l-.64.69c9.26,3.62,15.06-5.77,25.33-1.13-.71-.28-1.07-.42-1.21-.8,11.71,2.05,24.13-1.92,35.69,1.33,3.28.65,3.64-.79,5.65-1.89l.71,1.85,3.43-2.14c4.86-1.56,8.42,4.54,14.57,1.59l-.79-1.25c2.21.24,7-.74,6.63.7.23-.23.72-1.3,1.59-.65l.07.97,5.43-1.66c4.21.7-.66,3.85,5.48,4.03,2.28-.37,6.5-2.82,5.64-3.47-.92-.05-2.35-.6-2.42-1.57l2.09-.5c.38-2.86,1.98-5.78-3.14-7.77l-3.57,1.75-1.15-1.38,3.01-.09c-1.7-1.3-2.79-.15-4,.64-.29-.74-.79-1.25-1.5-1.53l-3.51,2.73c-.42-1.12,1.57-2.22-.78-2.83-1.64,1.27,1.58,2.5-1.14,3.34-1.71-1.3-1.21-2.35-3.21-1.25-.28-.74.14-1.2.94-1.53-1.79.88-4.72.37-5.65,1.89-1.78-1.6-6.03.42-5.85-2.29-.56.65-3.14,2.12-4.78,2.23,3-3.24-6.14-.19-5.35-3.66-2.22,2.91-8.01,1.29-11.93,2.91.22-.23.65-.7,1-.55-2.21-.24-2.85-1.12-4.27-1.67-.28,2.4-3.73,2.95-5.58,4.43-2.71-2.32,1.65-2.82.79-5.05.14,1.95-4.71,1.94-3.79,3.57-2.07-1.43-1.79-.7-2.85-2.69-.36,3-1.93.51-3.65,2.35-3-1.48-.77-2.81-4.06-1.9-1.57-.92,1.36-1.99,1.36-1.99Zm-78.32,5.19v-.03c.67-.04,1.25-.08,1.62-.1-.34.03-.8.07-1.62.13Zm-6.58.03c.8.07,1.8.08,2.85.07.23.6-.02,1.21-.68,1.18.36-.4-1.19-.74-2.17-1.24Zm13.92,11.95c-1.04.24-1.39-.09-1.53-.45.49-.03,1.07-.09,1.82-.21.03-.06.09-.14.12-.21-.1.33-.21.64-.41.87Z"/><path class="cls-1" d="m209.07,107.76c.15-.04.23-.11.43-.13-.21-.15-.42-.28-.62-.39-.13.19-.26.37-.37.54.19,0,.38-.02.56-.03Z"/><path class="cls-1" d="m313.89,6.55l-.14-.04c.12.07.22.14.29.25-.09-.08-.09-.14-.15-.21Z"/><polygon class="cls-1" points="102.39 94.78 102.4 95.22 102.97 94.84 102.39 94.78"/><path class="cls-1" d="m347.17,12.47c-.09.15-.14.31-.1.44.09-.11.11-.27.1-.44Z"/><path class="cls-1" d="m347.52,23.66l-.61,2.21c.35-.96.52-1.66.61-2.21Z"/><path class="cls-1" d="m346.66,35.7c.3.15.53.2.74.24,0,0,0-.02.01-.02l-.75-.21Z"/><path class="cls-1" d="m186.41,15.74c-.16,0-.32.03-.46.08-1.09.33-.35.2.46-.08Z"/><path class="cls-1" d="m243.38,11.71c-.6.31-1.2.62-1.83.81,1.01.13,1.8.17,1.83-.81Z"/><path class="cls-1" d="m122.8,17.81s0-.01,0-.03h-.39l.39.03Z"/><path class="cls-1" d="m238.9,12.49c1.01.34,1.86.27,2.65.03-.83-.12-1.81-.29-2.65-.03Z"/><path class="cls-1" d="m345.88,87.89l-.07.58c.11,0,.21.02.28.07l-.21-.65Z"/><path class="cls-1" d="m346.09,88.54l.2.64c0-.3-.01-.55-.2-.64Z"/><path class="cls-1" d="m346.72,90.54l-.43-1.36c0,.47-.06,1.05.43,1.36Z"/><path class="cls-1" d="m346.68,71.95l-.63-.18c.13.1.33.16.63.18Z"/><path class="cls-1" d="m346.5,67.1c-.14,1.16-1.33,2.9-.94,4.51l.5.15c-.93-.76,1.5-3.56.44-4.66Z"/><path class="cls-1" d="m354.22,46.89l-.5,4.06c.67-.71,1.56-1.64,1.72.2,1.99-5.12-1.49,1.06-1.22-4.26Z"/><path class="cls-1" d="m355.19,34.3c.31,2.18.97-.03,1.34.09-.61-1.38-.76-1.72-1.34-.09Z"/><path class="cls-1" d="m285.5,5.18l.22-1.57c-1.68.22-.02.61-.22,1.57Z"/><polygon class="cls-1" points="268.11 13.29 269.75 14.26 270.53 12.82 268.11 13.29"/><polygon class="cls-1" points="257.84 2.11 258.58 1.89 255.77 2.46 257.84 2.11"/><path class="cls-1" d="m105.1,2.67l.51,1.93c1.14-.35,1.37-2.52-.51-1.93Z"/><path class="cls-1" d="m39.16,4.64c-.72-.97-2.57-1.59-3.72-.64,1.48.13,2.96.89,3.72.64Z"/><polygon class="cls-1" points="84.9 110.27 83.57 110.92 86.07 110.38 84.9 110.27"/><path class="cls-2" d="m29.82,42.52h-2.57v5.73h-3.22v-15.64h5.81c1.85,0,3.27.41,4.28,1.24,1,.82,1.5,1.99,1.5,3.49,0,1.07-.23,1.96-.69,2.67-.46.71-1.16,1.28-2.1,1.7l3.38,6.39v.15h-3.46l-2.93-5.73Zm-2.57-2.61h2.6c.81,0,1.44-.21,1.88-.62.44-.41.67-.98.67-1.7s-.21-1.32-.63-1.74c-.42-.42-1.06-.63-1.93-.63h-2.59v4.69Z"/><path class="cls-2" d="m44.6,48.24c-.14-.28-.25-.63-.31-1.04-.75.84-1.73,1.26-2.93,1.26-1.14,0-2.08-.33-2.83-.99-.75-.66-1.12-1.49-1.12-2.49,0-1.23.46-2.18,1.37-2.84.91-.66,2.23-.99,3.96-1h1.43v-.67c0-.54-.14-.97-.41-1.29-.28-.32-.71-.48-1.31-.48-.52,0-.93.13-1.23.38-.3.25-.45.59-.45,1.03h-3.1c0-.67.21-1.3.62-1.87.42-.57,1-1.02,1.76-1.35.76-.33,1.61-.49,2.56-.49,1.43,0,2.57.36,3.41,1.08.84.72,1.26,1.73,1.26,3.03v5.04c0,1.1.16,1.94.46,2.5v.18h-3.14Zm-2.57-2.16c.46,0,.88-.1,1.27-.31s.67-.48.86-.82v-2h-1.16c-1.55,0-2.38.54-2.48,1.61v.18c-.01.39.12.71.4.96.27.25.64.38,1.12.38Z"/><path class="cls-2" d="m49.64,33.61c0-.47.16-.85.47-1.15.31-.3.74-.45,1.27-.45s.95.15,1.27.45.47.68.47,1.15-.16.86-.48,1.16c-.32.3-.74.45-1.26.45s-.94-.15-1.26-.45c-.32-.3-.48-.69-.48-1.16Zm3.3,14.63h-3.12v-11.62h3.12v11.62Z"/><path class="cls-2" d="m55.01,42.33c0-1.15.22-2.18.67-3.08s1.08-1.6,1.92-2.09c.83-.49,1.8-.74,2.91-.74,1.57,0,2.85.48,3.84,1.44.99.96,1.54,2.26,1.66,3.91l.02.79c0,1.78-.5,3.21-1.49,4.29-1,1.08-2.33,1.62-4.01,1.62s-3.01-.54-4.01-1.61c-1-1.07-1.5-2.54-1.5-4.38v-.14Zm3.1.22c0,1.1.21,1.95.62,2.53.42.58,1.01.88,1.78.88s1.34-.29,1.76-.87c.42-.58.63-1.5.63-2.77,0-1.08-.21-1.92-.63-2.52s-1.02-.89-1.78-.89-1.35.3-1.76.89-.62,1.51-.62,2.75Z"/><path class="cls-2" d="m77.8,40.23h-9.6v-2.54h9.6v2.54Zm0,4.65h-9.6v-2.54h9.6v2.54Z"/><path class="cls-2" d="m86.14,41.88c0-1.64.22-3.2.66-4.68s1.08-2.79,1.93-3.94c.85-1.14,1.78-1.94,2.77-2.38l.6,1.68c-1.05.77-1.86,1.97-2.45,3.59-.59,1.62-.88,3.51-.88,5.67v.33c0,2.17.29,4.07.87,5.69s1.4,2.84,2.46,3.64l-.6,1.64c-.97-.44-1.88-1.21-2.72-2.31-.84-1.11-1.48-2.38-1.93-3.83s-.68-2.96-.71-4.53v-.57Z"/><path class="cls-2" d="m96.58,36.62l.1,1.34c.83-1.04,1.94-1.56,3.34-1.56,1.23,0,2.15.36,2.75,1.08.6.72.91,1.8.92,3.24v7.51h-3.1v-7.43c0-.66-.14-1.14-.43-1.43-.29-.3-.76-.45-1.43-.45-.87,0-1.53.37-1.97,1.12v8.2h-3.1v-11.62h2.92Z"/><path class="cls-2" d="m112.08,42.8h-6.05v-2.5h6.05v2.5Z"/><path class="cls-2" d="m121.99,48.24h-3.1v-11.97l-3.71,1.15v-2.52l6.48-2.32h.33v15.66Z"/><path class="cls-2" d="m132.55,42.13c0,1.62-.23,3.18-.7,4.67s-1.13,2.82-2.01,3.96c-.87,1.15-1.81,1.93-2.8,2.36l-.6-1.64c1.02-.77,1.82-1.95,2.41-3.54s.89-3.43.91-5.51v-.57c0-2.14-.29-4.03-.88-5.66-.58-1.63-1.4-2.86-2.44-3.67l.6-1.64c.97.42,1.89,1.19,2.76,2.3.86,1.11,1.53,2.4,2.01,3.88.48,1.48.73,3,.75,4.59v.48Z"/><path class="cls-2" d="m90.2,80.24v-15.64h4.81c1.38,0,2.61.31,3.69.93,1.09.62,1.93,1.5,2.54,2.64.61,1.14.91,2.44.91,3.89v.72c0,1.45-.3,2.75-.9,3.88-.6,1.13-1.44,2.01-2.53,2.63s-2.32.94-3.68.95h-4.84Zm3.22-13.03v10.44h1.56c1.26,0,2.22-.41,2.89-1.24.67-.82,1.01-2,1.02-3.53v-.83c0-1.59-.33-2.79-.99-3.61-.66-.82-1.62-1.23-2.89-1.23h-1.59Z"/><path class="cls-2" d="m104.27,65.61c0-.47.16-.85.47-1.15.31-.3.74-.45,1.27-.45s.95.15,1.27.45.47.68.47,1.15-.16.86-.48,1.16c-.32.3-.74.45-1.26.45s-.94-.15-1.26-.45c-.32-.3-.48-.69-.48-1.16Zm3.3,14.63h-3.12v-11.62h3.12v11.62Z"/><path class="cls-2" d="m109.64,74.33c0-1.15.22-2.18.67-3.08s1.08-1.6,1.92-2.09c.83-.49,1.8-.74,2.91-.74,1.57,0,2.85.48,3.84,1.44.99.96,1.54,2.26,1.66,3.91l.02.79c0,1.78-.5,3.21-1.49,4.29-1,1.08-2.33,1.62-4.01,1.62s-3.01-.54-4.01-1.61c-1-1.07-1.5-2.54-1.5-4.38v-.14Zm3.1.22c0,1.1.21,1.95.62,2.53.42.58,1.01.88,1.78.88s1.34-.29,1.76-.87c.42-.58.63-1.5.63-2.77,0-1.08-.21-1.92-.63-2.52s-1.02-.89-1.78-.89-1.35.3-1.76.89-.62,1.51-.62,2.75Z"/><path class="cls-2" d="m133.03,74.54c0,1.79-.41,3.22-1.22,4.3-.81,1.08-1.91,1.62-3.29,1.62-1.17,0-2.12-.41-2.85-1.22v5.48h-3.1v-16.09h2.88l.11,1.14c.75-.9,1.73-1.35,2.94-1.35,1.43,0,2.55.53,3.34,1.59.79,1.06,1.19,2.52,1.19,4.38v.16Zm-3.1-.23c0-1.08-.19-1.92-.57-2.5-.38-.59-.94-.88-1.67-.88-.97,0-1.64.37-2.01,1.12v4.76c.38.77,1.06,1.15,2.03,1.15,1.48,0,2.22-1.21,2.22-3.64Z"/><rect class="cls-2" x="82.64" y="56.87" width="52.66" height="1"/><path class="cls-2" d="m208.97,50.37v-15.64h4.81c1.38,0,2.61.31,3.69.93,1.09.62,1.93,1.5,2.54,2.64.61,1.14.91,2.44.91,3.89v.72c0,1.45-.3,2.75-.9,3.88-.6,1.13-1.44,2.01-2.53,2.63s-2.32.94-3.68.95h-4.84Zm3.22-13.03v10.44h1.56c1.26,0,2.22-.41,2.89-1.24.67-.82,1.01-2,1.02-3.53v-.83c0-1.59-.33-2.79-.99-3.61-.66-.82-1.62-1.23-2.89-1.23h-1.59Z"/><path class="cls-2" d="m223.04,35.74c0-.47.16-.85.47-1.15.31-.3.74-.45,1.27-.45s.95.15,1.27.45.47.68.47,1.15-.16.86-.48,1.16c-.32.3-.74.45-1.26.45s-.94-.15-1.26-.45c-.32-.3-.48-.69-.48-1.16Zm3.3,14.63h-3.12v-11.62h3.12v11.62Z"/><path class="cls-2" d="m228.41,44.45c0-1.15.22-2.18.67-3.08s1.08-1.6,1.92-2.09c.83-.49,1.8-.74,2.91-.74,1.57,0,2.85.48,3.84,1.44.99.96,1.54,2.26,1.66,3.91l.02.79c0,1.78-.5,3.21-1.49,4.29-1,1.08-2.33,1.62-4.01,1.62s-3.01-.54-4.01-1.61c-1-1.07-1.5-2.54-1.5-4.38v-.14Zm3.1.22c0,1.1.21,1.95.62,2.53.42.58,1.01.88,1.78.88s1.34-.29,1.76-.87c.42-.58.63-1.5.63-2.77,0-1.08-.21-1.92-.63-2.52s-1.02-.89-1.78-.89-1.35.3-1.76.89-.62,1.51-.62,2.75Z"/><path class="cls-2" d="m251.8,44.67c0,1.79-.41,3.22-1.22,4.3-.81,1.08-1.91,1.62-3.29,1.62-1.17,0-2.12-.41-2.85-1.22v5.48h-3.1v-16.09h2.88l.11,1.14c.75-.9,1.73-1.35,2.94-1.35,1.43,0,2.55.53,3.34,1.59.79,1.06,1.19,2.52,1.19,4.38v.16Zm-3.1-.23c0-1.08-.19-1.92-.57-2.5-.38-.59-.94-.88-1.67-.88-.97,0-1.64.37-2.01,1.12v4.76c.38.77,1.06,1.15,2.03,1.15,1.48,0,2.22-1.21,2.22-3.64Z"/><path class="cls-2" d="m263.59,42.36h-9.6v-2.54h9.6v2.54Zm0,4.65h-9.6v-2.54h9.6v2.54Z"/><path class="cls-2" d="m271.93,44.01c0-1.64.22-3.2.66-4.68s1.08-2.79,1.93-3.94c.85-1.14,1.78-1.94,2.77-2.38l.6,1.68c-1.05.77-1.86,1.97-2.45,3.59-.59,1.62-.88,3.51-.88,5.67v.33c0,2.17.29,4.07.87,5.69s1.4,2.84,2.46,3.64l-.6,1.64c-.97-.44-1.88-1.21-2.72-2.31-.84-1.11-1.48-2.38-1.93-3.83s-.68-2.96-.71-4.53v-.57Z"/><path class="cls-2" d="m282.37,38.75l.1,1.34c.83-1.04,1.94-1.56,3.34-1.56,1.23,0,2.15.36,2.75,1.08.6.72.91,1.8.92,3.24v7.51h-3.1v-7.43c0-.66-.14-1.14-.43-1.43-.29-.3-.76-.45-1.43-.45-.87,0-1.53.37-1.97,1.12v8.2h-3.1v-11.62h2.92Z"/><path class="cls-2" d="m297.87,44.92h-6.05v-2.5h6.05v2.5Z"/><path class="cls-2" d="m307.77,50.37h-3.1v-11.97l-3.71,1.15v-2.52l6.48-2.32h.33v15.66Z"/><path class="cls-2" d="m318.33,44.26c0,1.62-.23,3.18-.7,4.67s-1.13,2.82-2.01,3.96c-.87,1.15-1.81,1.93-2.8,2.36l-.6-1.64c1.02-.77,1.82-1.95,2.41-3.54s.89-3.43.91-5.51v-.57c0-2.14-.29-4.03-.88-5.66-.58-1.63-1.4-2.86-2.44-3.67l.6-1.64c.97.42,1.89,1.19,2.76,2.3.86,1.11,1.53,2.4,2.01,3.88.48,1.48.73,3,.75,4.59v.48Z"/><path class="cls-2" d="m282.63,76.65h-2.57v5.73h-3.22v-15.64h5.81c1.85,0,3.27.41,4.28,1.24,1,.82,1.5,1.99,1.5,3.49,0,1.07-.23,1.96-.69,2.67-.46.71-1.16,1.28-2.1,1.7l3.38,6.39v.15h-3.46l-2.93-5.73Zm-2.57-2.61h2.6c.81,0,1.44-.21,1.88-.62.44-.41.67-.98.67-1.7s-.21-1.32-.63-1.74c-.42-.42-1.06-.63-1.93-.63h-2.59v4.69Z"/><path class="cls-2" d="m297.41,82.37c-.14-.28-.25-.63-.31-1.04-.75.84-1.73,1.26-2.93,1.26-1.14,0-2.08-.33-2.83-.99-.75-.66-1.12-1.49-1.12-2.49,0-1.23.46-2.18,1.37-2.84.91-.66,2.23-.99,3.96-1h1.43v-.67c0-.54-.14-.97-.41-1.29-.28-.32-.71-.48-1.31-.48-.52,0-.93.13-1.23.38-.3.25-.45.59-.45,1.03h-3.1c0-.67.21-1.3.62-1.87.42-.57,1-1.02,1.76-1.35.76-.33,1.61-.49,2.56-.49,1.43,0,2.57.36,3.41,1.08.84.72,1.26,1.73,1.26,3.03v5.04c0,1.1.16,1.94.46,2.5v.18h-3.14Zm-2.57-2.16c.46,0,.88-.1,1.27-.31s.67-.48.86-.82v-2h-1.16c-1.55,0-2.38.54-2.48,1.61v.18c-.01.39.12.71.4.96.27.25.64.38,1.12.38Z"/><path class="cls-2" d="m302.44,67.74c0-.47.16-.85.47-1.15.31-.3.74-.45,1.27-.45s.95.15,1.27.45.47.68.47,1.15-.16.86-.48,1.16c-.32.3-.74.45-1.26.45s-.94-.15-1.26-.45c-.32-.3-.48-.69-.48-1.16Zm3.3,14.63h-3.12v-11.62h3.12v11.62Z"/><path class="cls-2" d="m307.82,76.45c0-1.15.22-2.18.67-3.08s1.08-1.6,1.92-2.09c.83-.49,1.8-.74,2.91-.74,1.57,0,2.85.48,3.84,1.44.99.96,1.54,2.26,1.66,3.91l.02.79c0,1.78-.5,3.21-1.49,4.29-1,1.08-2.33,1.62-4.01,1.62s-3.01-.54-4.01-1.61c-1-1.07-1.5-2.54-1.5-4.38v-.14Zm3.1.22c0,1.1.21,1.95.62,2.53.42.58,1.01.88,1.78.88s1.34-.29,1.76-.87c.42-.58.63-1.5.63-2.77,0-1.08-.21-1.92-.63-2.52s-1.02-.89-1.78-.89-1.35.3-1.76.89-.62,1.51-.62,2.75Z"/><rect class="cls-2" x="268.43" y="58.99" width="52.66" height="1"/><text class="cls-4" transform="translate(159.76 64.23)"><tspan x="0" y="0">ou</tspan></text></g></svg>