<?xml version="1.0" encoding="UTF-8"?><svg id="Camada_2" xmlns="http://www.w3.org/2000/svg" viewBox="0 0 400 323.52"><defs><style>.cls-1{fill:#ffdfc9;}.cls-1,.cls-2,.cls-3,.cls-4,.cls-5,.cls-6,.cls-7,.cls-8,.cls-9,.cls-10{stroke-width:0px;}.cls-2{fill:#006652;}.cls-3{fill:#b26538;}.cls-4{fill:#f39257;}.cls-5{fill:#004b3a;opacity:.58;}.cls-6{fill:#4b5767;}.cls-7{fill:#303948;}.cls-8{fill:#fff;}.cls-9{fill:#ece4df;}.cls-10{fill:#d07a47;}</style></defs><g id="Camada_1-2"><polygon class="cls-2" points="12.68 9.48 25.1 285.56 383.47 261.18 390.79 12.15 12.68 9.48"/><polygon class="cls-5" points="155.57 277.21 105.43 165.54 20.59 191.87 25.1 285.56 155.57 277.21"/><path class="cls-4" d="m0,0l12.24,301.14,383.66-21.87L400,.28,0,0Zm383.47,261.18l-358.36,24.38L12.68,9.48l378.11,2.67-7.32,249.03Z"/><polygon class="cls-3" points="398.7 .28 388.96 12.14 390.79 12.15 390.74 13.77 399.97 2.5 400 .28 398.7 .28"/><polygon class="cls-3" points="383.54 258.8 383.47 261.18 381.92 261.28 394.43 279.35 395.9 279.26 395.94 276.65 383.54 258.8"/><polygon class="cls-3" points="25.1 285.56 24.99 283 12.14 298.59 12.24 301.14 13.8 301.05 26.61 285.46 25.1 285.56"/><polygon class="cls-3" points="12.68 9.48 14.86 9.49 2.57 0 0 0 .05 1.12 12.74 10.95 12.68 9.48"/><path class="cls-1" d="m8.33,37.62l.11,27.27c.05,12.13.42,24.39,1.13,36.74l5.47,95.9-2.49-95.83c-.35-13.43-1.05-26.4-2.1-38.92l-2.11-25.16Z"/><path class="cls-1" d="m390.3,253.3l2.01-36.25c.83-15.02,1.3-29.73,1.42-44.09l.74-93.98-3.8,92.48c-.63,15.38-.88,31.13-.71,47.21l.35,34.64Z"/><path class="cls-1" d="m108.12,4.7c-16.65-.15-33.25-.09-49.74.2l-34.25.6,36.2.66c15.59.28,31.15.38,46.64.27l110.31-.72-109.16-1.01Z"/><path class="cls-1" d="m336.23,270.44c-14.7.48-29.16,3.87-43.78,4.69h0c15.65-.8,31.21-1.74,46.61-2.92l41.7-3.21-44.53,1.45Z"/><path class="cls-8" d="m229.79,285.48l-18.52,1.29-.49-13.76,17.68-3.21c3.27-.59,6.37,2.05,7.11,6.07h0c.88,4.75-1.87,9.34-5.79,9.62Z"/><path class="cls-9" d="m214.86,279.56c.15,3.83-1.26,7.05-3.14,7.18-1.88.13-3.51-2.88-3.64-6.71-.13-3.81,1.28-6.99,3.15-7.11,1.86-.13,3.49,2.84,3.64,6.64Z"/><polygon class="cls-10" points="99.15 296.15 97.84 285.57 256.5 280.69 99.15 296.15"/><path class="cls-7" d="m167.42,262.7l-33.29,1.49c-4.14.19-7.7,4.38-8.06,9.53l-.73,10.49c-.38,5.4,2.82,9.81,7.15,9.81h33.94c4.33,0,7.99-4.41,8.18-9.81l.42-12.01c.19-5.41-3.26-9.7-7.61-9.51Z"/><path class="cls-6" d="m129.55,285.13l.68-10.19c.22-3.24,2.43-5.86,5.03-5.97,0,0,22.39-2.46,29.53-2.78h0c-7.82.35-30.79,1.38-30.79,1.38-2.69.12-4.97,2.82-5.2,6.15l-.71,10.49c-.24,3.47,1.83,6.31,4.61,6.31h.52c-2.69,0-3.91-2.02-3.68-5.39Z"/><path class="cls-4" d="m102.33,290.1l1.97,33.42s171.38-5.25,171.02-5.15c-.35.1,3.31-39.03,3.31-39.03l-176.3,10.76Z"/><path class="cls-10" d="m278.63,279.34h0c-15.32,14.23-33.7,23.33-53.24,26.23l-121.09,17.96,171.02-5.15,3.31-39.03Z"/><path class="cls-1" d="m106.92,315.83l-1.48-21.81,101.64-7.25-93.5,9.65c-3.07.32-5.65,3.58-5.9,7.46l-.76,11.96Z"/></g></svg>