<?xml version="1.0" encoding="UTF-8"?><svg id="Camada_2" xmlns="http://www.w3.org/2000/svg" viewBox="0 0 226.51 262.66"><defs><style>.cls-1{fill:#b3c9d7;}.cls-1,.cls-2,.cls-3,.cls-4,.cls-5,.cls-6,.cls-7,.cls-8,.cls-9{stroke-width:0px;}.cls-2{fill:#738194;}.cls-3{fill:#9adbdb;}.cls-4{fill:#dd4b3d;}.cls-5{fill:#ff6e56;}.cls-6{fill:#262c38;}.cls-7{fill:#c5edec;}.cls-8{fill:#465164;}.cls-9{fill:#89a4b0;}</style></defs><g id="Camada_1-2"><path class="cls-8" d="m219.39,52.65L62.58.5c-6.49-2.16-13.37,2.87-15.35,11.11L.29,207.95c-1.29,5.39,1.86,11.1,7.01,12.81l124.46,41.39c5.15,1.71,11.09-.97,13.28-6.06l79.98-185.35c3.36-7.78.86-15.93-5.63-18.09Z"/><path class="cls-2" d="m134.14,256.82L9.08,215.24c-2.33-.77-3.73-3.36-3.14-5.78L54.13,13.67c1.21-4.91,5.35-7.9,9.21-6.61l-2.22-.74c-3.97-1.32-8.18,1.73-9.41,6.77L3.93,209.16c-.81,3.31,1.12,6.84,4.3,7.89l125,41.57c3.18,1.06,6.83-.61,8.17-3.75l.74-1.73c-1.31,3.07-4.89,4.71-8,3.68Z"/><path class="cls-6" d="m65.21,124.23l6.1-21.29c.67-2.35-.41-4.81-2.43-5.49l-18.75-6.24c-2.02-.67-4.15.72-4.77,3.09l-5.53,21.48c-.58,2.26.54,4.61,2.49,5.26l18.18,6.05c1.96.65,4.06-.63,4.71-2.87Z"/><path class="cls-6" d="m99.66,135.69l6.88-21.03c.76-2.32-.26-4.76-2.28-5.43l-18.75-6.24c-2.02-.67-4.22.69-4.92,3.04l-6.31,21.22c-.66,2.23.39,4.56,2.35,5.21l18.18,6.05c1.96.65,4.13-.61,4.85-2.82Z"/><path class="cls-6" d="m134.11,147.14l7.66-20.77c.85-2.3-.1-4.71-2.12-5.38l-18.75-6.24c-2.02-.67-4.29.67-5.08,2.99l-7.09,20.96c-.75,2.21.24,4.51,2.2,5.16l18.18,6.05c1.96.65,4.2-.59,5-2.77Z"/><path class="cls-6" d="m168.56,158.6l8.43-20.52c.93-2.27.05-4.66-1.97-5.33l-18.75-6.24c-2.02-.67-4.36.65-5.23,2.94l-7.86,20.71c-.83,2.18.09,4.46,2.05,5.12l18.18,6.05c1.96.65,4.26-.56,5.15-2.72Z"/><path class="cls-6" d="m56.11,70.48c-4.69-1.56-7.33-7.47-5.87-13.23l6.99-27.65c1.56-6.15,6.84-9.88,11.76-8.24l132.78,44.16c4.92,1.64,6.92,7.78,4.48,13.64l-10.96,26.33c-2.28,5.49-7.94,8.63-12.63,7.08l-126.55-42.08Z"/><path class="cls-3" d="m190.99,104.06l10.84-26.37c1.2-2.93.2-5.98-2.25-6.79L67.52,26.98c-2.45-.81-5.08,1.02-5.87,4.09l-7.11,27.61c-.74,2.89.57,5.86,2.93,6.64l127.2,42.3c2.36.79,5.19-.8,6.32-3.56Z"/><path class="cls-1" d="m66.5,119.7l6.16-21.5c.68-2.38-.41-4.86-2.44-5.53l-18.84-6.27c-2.03-.67-4.18.73-4.79,3.13l-5.59,21.69c-.59,2.28.53,4.65,2.5,5.31l18.27,6.07c1.97.65,4.08-.64,4.73-2.9Z"/><path class="cls-9" d="m69.39,95.62l-.45-.15h0c-3.52,12.49-14.83,19.55-25.34,16.05h-.02s-.13.51-.13.51c-.19.72.17,1.48.79,1.69l18.32,6.09c.63.21,1.3-.21,1.5-.92l6.11-21.52c.21-.75-.13-1.54-.77-1.75Z"/><path class="cls-1" d="m101.12,131.22l6.95-21.24c.77-2.35-.25-4.81-2.28-5.48l-18.84-6.27c-2.03-.67-4.25.71-4.95,3.08l-6.37,21.43c-.67,2.25.38,4.6,2.35,5.26l18.27,6.07c1.97.65,4.15-.62,4.88-2.85Z"/><path class="cls-1" d="m135.74,142.73l7.73-20.98c.85-2.32-.09-4.75-2.12-5.43l-18.84-6.27c-2.03-.67-4.32.68-5.11,3.02l-7.15,21.17c-.75,2.23.23,4.55,2.2,5.21l18.27,6.07c1.97.65,4.22-.6,5.03-2.8Z"/><path class="cls-6" d="m53.28,165.81l5.57-19.44c.62-2.15-.45-4.41-2.38-5.05l-17.9-5.95c-1.93-.64-3.95.6-4.5,2.77l-5.05,19.61c-.53,2.07.56,4.24,2.43,4.86l17.38,5.78c1.87.62,3.86-.53,4.45-2.57Z"/><path class="cls-6" d="m86.22,176.77l6.28-19.2c.69-2.12-.31-4.37-2.23-5.01l-17.9-5.95c-1.93-.64-4.01.58-4.64,2.72l-5.76,19.38c-.61,2.04.42,4.19,2.29,4.81l17.38,5.78c1.87.62,3.92-.51,4.59-2.53Z"/><path class="cls-6" d="m119.15,187.72l6.99-18.97c.77-2.09-.16-4.32-2.09-4.96l-17.9-5.95c-1.93-.64-4.07.56-4.79,2.67l-6.47,19.14c-.68,2.02.29,4.15,2.16,4.77l17.38,5.78c1.87.62,3.98-.49,4.72-2.48Z"/><path class="cls-6" d="m152.09,198.67l7.7-18.73c.85-2.07-.02-4.27-1.95-4.91l-17.9-5.95c-1.93-.64-4.14.54-4.93,2.62l-7.18,18.9c-.76,1.99.15,4.1,2.02,4.72l17.38,5.78c1.87.62,4.04-.47,4.86-2.44Z"/><path class="cls-1" d="m54.47,161.68l5.62-19.62c.62-2.17-.44-4.45-2.38-5.1l-17.99-5.98c-1.94-.64-3.97.61-4.53,2.8l-5.1,19.79c-.54,2.08.55,4.27,2.44,4.9l17.46,5.81c1.88.63,3.88-.54,4.48-2.6Z"/><path class="cls-1" d="m87.56,172.68l6.34-19.38c.7-2.14-.3-4.4-2.24-5.05l-17.99-5.98c-1.94-.64-4.03.59-4.67,2.75l-5.81,19.56c-.61,2.06.42,4.23,2.3,4.85l17.46,5.81c1.88.63,3.94-.52,4.61-2.56Z"/><path class="cls-1" d="m120.64,183.68l7.06-19.14c.78-2.11-.16-4.36-2.09-5l-17.99-5.98c-1.94-.64-4.09.57-4.82,2.7l-6.53,19.32c-.69,2.03.28,4.18,2.16,4.81l17.46,5.81c1.88.63,4-.49,4.75-2.51Z"/><path class="cls-5" d="m176.91,128.15l-18.84-6.27c-2.03-.67-4.39.66-5.27,2.97l-23.44,61.73c-.76,2.01.15,4.14,2.03,4.76l17.46,5.81c1.88.63,4.07-.47,4.88-2.47l25.15-61.16c.94-2.29.06-4.7-1.97-5.38Z"/><path class="cls-6" d="m42.37,203.89l5.11-17.82c.56-1.96-.47-4.06-2.32-4.68l-17.13-5.7c-1.84-.61-3.76.5-4.27,2.49l-4.63,17.97c-.49,1.89.57,3.91,2.37,4.5l16.65,5.54c1.79.6,3.68-.44,4.22-2.31Z"/><path class="cls-6" d="m73.91,214.38l5.76-17.6c.63-1.94-.34-4.02-2.19-4.63l-17.13-5.7c-1.84-.61-3.81.48-4.4,2.44l-5.28,17.76c-.56,1.87.45,3.87,2.24,4.46l16.65,5.54c1.79.6,3.74-.42,4.34-2.27Z"/><path class="cls-6" d="m105.46,224.87l6.41-17.38c.71-1.92-.21-3.98-2.06-4.59l-17.13-5.7c-1.84-.61-3.87.46-4.53,2.4l-5.93,17.54c-.63,1.85.32,3.83,2.12,4.42l16.65,5.54c1.79.6,3.79-.4,4.47-2.23Z"/><path class="cls-6" d="m137,235.36l7.06-17.17c.78-1.89-.08-3.93-1.93-4.55l-17.13-5.7c-1.84-.61-3.93.44-4.66,2.36l-6.58,17.33c-.69,1.83.2,3.78,1.99,4.38l16.65,5.54c1.79.6,3.85-.38,4.59-2.19Z"/><path class="cls-1" d="m43.46,200.1l5.15-17.97c.57-1.98-.47-4.1-2.32-4.71l-17.21-5.72c-1.85-.62-3.77.51-4.29,2.51l-4.67,18.13c-.49,1.91.57,3.94,2.37,4.54l16.72,5.56c1.8.6,3.7-.45,4.24-2.34Z"/><path class="cls-1" d="m75.14,210.63l5.81-17.76c.64-1.96-.34-4.05-2.19-4.67l-17.21-5.72c-1.85-.62-3.83.49-4.42,2.47l-5.33,17.92c-.56,1.89.45,3.9,2.25,4.5l16.72,5.56c1.8.6,3.76-.43,4.37-2.3Z"/><path class="cls-1" d="m106.82,221.17l6.46-17.54c.71-1.93-.21-4.01-2.06-4.62l-17.21-5.72c-1.85-.62-3.89.47-4.55,2.43l-5.98,17.7c-.63,1.87.32,3.86,2.12,4.46l16.72,5.56c1.8.6,3.81-.41,4.49-2.26Z"/><path class="cls-1" d="m138.51,231.71l7.12-17.32c.79-1.91-.08-3.96-1.93-4.58l-17.21-5.72c-1.85-.62-3.95.45-4.68,2.38l-6.64,17.48c-.7,1.84.2,3.82,2,4.41l16.72,5.56c1.8.6,3.87-.39,4.62-2.22Z"/><polygon class="cls-7" points="102.44 38.59 66.57 68.35 84.79 74.4 116.41 43.24 102.44 38.59"/><polygon class="cls-7" points="125.36 46.22 93.67 77.36 107.51 81.96 141.44 51.56 125.36 46.22"/><path class="cls-9" d="m104.85,107.41l-.45-.15h0c-3.98,12.34-15.65,19.28-26.15,15.78h-.02s-.15.5-.15.5c-.21.71.12,1.46.74,1.67l18.32,6.09c.63.21,1.32-.2,1.55-.91l6.89-21.26c.24-.74-.08-1.52-.72-1.73Z"/><path class="cls-9" d="m140.3,119.2l-.45-.15h0c-4.43,12.19-16.46,19.01-26.97,15.51h-.02s-.17.5-.17.5c-.24.71.07,1.45.7,1.65l18.32,6.09c.63.21,1.34-.19,1.6-.89l7.68-20.99c.27-.73-.03-1.5-.67-1.72Z"/><path class="cls-9" d="m124.65,162.17l-.43-.14h0c-4.04,11.12-15.39,17.22-25.43,13.88h-.02s-.16.45-.16.45c-.22.65.09,1.33.68,1.53l17.51,5.82c.6.2,1.27-.16,1.51-.8l7.01-19.16c.24-.67-.05-1.38-.67-1.58Z"/><path class="cls-4" d="m175.57,131.44l-.45-.15h0l-18.32,37.52c-4.99,10.21-14.61,17.13-24.93,18.09h0l-.17.45c-.24.64.04,1.31.64,1.51l17.51,5.82c.6.2,1.29-.15,1.55-.78l24.8-60.77c.3-.72.02-1.49-.62-1.7Z"/><path class="cls-9" d="m90.8,150.91l-.43-.14h0c-3.63,11.25-14.65,17.47-24.69,14.13h-.02s-.14.46-.14.46c-.2.65.13,1.34.73,1.54l17.51,5.82c.6.2,1.25-.16,1.46-.81l6.29-19.4c.22-.68-.1-1.39-.71-1.6Z"/><path class="cls-9" d="m56.95,139.66l-.43-.14h0c-3.21,11.39-13.9,17.72-23.94,14.37h-.02s-.12.47-.12.47c-.17.66.17,1.36.77,1.56l17.51,5.82c.6.2,1.23-.17,1.42-.83l5.57-19.63c.19-.69-.14-1.41-.76-1.61Z"/><path class="cls-9" d="m45.59,179.87l-.41-.14h0c-2.94,10.43-13.07,16.12-22.69,12.92h-.02s-.11.43-.11.43c-.16.61.18,1.25.75,1.44l16.77,5.58c.57.19,1.17-.14,1.35-.74l5.11-17.99c.18-.63-.15-1.3-.74-1.49Z"/><path class="cls-9" d="m77.97,190.64l-.41-.14h0c-3.32,10.31-13.76,15.89-23.37,12.69h-.02s-.13.42-.13.42c-.18.6.14,1.24.71,1.43l16.77,5.58c.57.19,1.19-.14,1.39-.73l5.76-17.77c.2-.62-.11-1.28-.7-1.48Z"/><path class="cls-9" d="m110.35,201.41l-.41-.14h0c-3.7,10.18-14.44,15.66-24.05,12.46h-.02s-.14.42-.14.42c-.2.59.1,1.22.67,1.42l16.77,5.58c.57.19,1.21-.13,1.42-.72l6.42-17.55c.22-.61-.07-1.27-.65-1.46Z"/><path class="cls-9" d="m142.73,212.18l-.41-.14h0c-4.08,10.05-15.12,15.44-24.73,12.24h-.02s-.16.41-.16.41c-.22.58.06,1.21.63,1.4l16.77,5.58c.57.19,1.23-.12,1.46-.7l7.07-17.33c.25-.6-.03-1.25-.61-1.45Z"/></g></svg>