<?xml version="1.0" encoding="UTF-8"?><svg id="Camada_2" xmlns="http://www.w3.org/2000/svg" viewBox="0 0 404.58 104.78"><defs><style>.cls-1{fill:#d9a43c;}.cls-1,.cls-2{stroke-width:0px;}</style></defs><g id="Camada_1-2"><path class="cls-2" d="m30.39,29.36c0-.61-.23-1.13-.7-1.54-.46-.42-1.29-.76-2.47-1.05-1.43-.34-2.54-.84-3.34-1.51s-1.2-1.5-1.2-2.5c0-1.05.43-1.93,1.29-2.64.86-.71,1.98-1.06,3.35-1.06,1.48,0,2.66.41,3.53,1.21.88.81,1.3,1.75,1.27,2.82l-.02.06h-1.74c0-.79-.26-1.43-.78-1.92-.52-.49-1.27-.73-2.25-.73-.91,0-1.61.21-2.09.62s-.73.95-.73,1.61c0,.59.26,1.08.79,1.47s1.38.74,2.56,1.03c1.42.35,2.5.87,3.25,1.56s1.11,1.54,1.11,2.55c0,1.09-.45,1.96-1.34,2.62-.89.66-2.05.99-3.49.99-1.35,0-2.54-.37-3.58-1.1-1.04-.73-1.54-1.71-1.51-2.94l.02-.06h1.74c0,.87.32,1.52.96,1.98.64.45,1.43.68,2.37.68s1.65-.19,2.19-.58c.54-.39.81-.91.81-1.58Z"/><path class="cls-2" d="m38.7,32.96c-1.4,0-2.51-.47-3.33-1.4-.83-.93-1.24-2.14-1.24-3.62v-.41c0-1.43.43-2.62,1.28-3.57.85-.95,1.86-1.42,3.02-1.42,1.35,0,2.38.41,3.07,1.22.69.82,1.04,1.91,1.04,3.27v1.14h-6.51l-.03.05c.02.96.26,1.75.73,2.37.47.62,1.13.93,1.98.93.62,0,1.16-.09,1.63-.26s.87-.42,1.21-.73l.71,1.19c-.36.35-.83.65-1.42.89-.59.24-1.3.36-2.13.36Zm-.28-8.98c-.61,0-1.13.26-1.57.77-.43.52-.7,1.16-.8,1.94l.02.05h4.63v-.24c0-.71-.19-1.31-.58-1.79-.38-.48-.95-.72-1.71-.72Z"/><path class="cls-2" d="m46.22,22.73l.13,1.49c.33-.53.75-.94,1.26-1.24.5-.29,1.08-.44,1.72-.44,1.08,0,1.92.32,2.51.95s.89,1.61.89,2.94v6.34h-1.83v-6.3c0-.88-.17-1.51-.52-1.88s-.88-.56-1.6-.56c-.53,0-.99.13-1.4.38-.41.25-.73.6-.97,1.04v7.32h-1.83v-10.04h1.63Z"/><path class="cls-2" d="m54.97,27.93c0-1.61.34-2.92,1.03-3.91.69-.99,1.66-1.48,2.9-1.48.59,0,1.11.11,1.56.33.45.22.84.53,1.16.95v-5.52h1.83v14.47h-1.49l-.21-1.23c-.33.47-.73.83-1.21,1.07-.48.24-1.03.36-1.66.36-1.22,0-2.18-.44-2.88-1.33-.69-.89-1.04-2.06-1.04-3.5v-.19Zm1.83.19c0,1.01.21,1.83.62,2.44s1.06.91,1.93.91c.54,0,1-.12,1.37-.37.37-.25.67-.59.91-1.04v-4.69c-.24-.41-.54-.74-.91-.99-.37-.24-.82-.37-1.35-.37-.88,0-1.53.36-1.94,1.09-.42.72-.63,1.66-.63,2.82v.19Z"/><path class="cls-2" d="m65.76,27.65c0-1.48.4-2.71,1.21-3.67.8-.96,1.9-1.44,3.28-1.44s2.49.48,3.3,1.44c.81.96,1.21,2.18,1.21,3.67v.2c0,1.5-.4,2.72-1.21,3.67-.8.95-1.9,1.43-3.28,1.43s-2.48-.48-3.29-1.43c-.81-.96-1.21-2.18-1.21-3.67v-.2Zm1.83.2c0,1.06.22,1.94.67,2.63.45.69,1.11,1.04,2,1.04s1.53-.35,1.99-1.04.68-1.57.68-2.63v-.2c0-1.05-.23-1.92-.68-2.62-.45-.7-1.12-1.05-2-1.05s-1.53.35-1.98,1.05c-.45.7-.67,1.57-.67,2.62v.2Z"/><path class="cls-2" d="m78.98,24.64h-1.83v-1.89h1.83v1.89Zm0,8.13h-1.83v-1.89h1.83v1.89Z"/><path class="cls-2" d="m24.86,45.53l.08,1.16c.72-.9,1.68-1.35,2.89-1.35,1.06,0,1.86.31,2.38.94.52.62.79,1.56.8,2.8v6.48h-2.68v-6.42c0-.57-.12-.98-.37-1.24-.25-.26-.66-.38-1.23-.38-.75,0-1.32.32-1.7.96v7.08h-2.68v-10.04h2.52Z"/><path class="cls-2" d="m46.29,48.64h-8.29v-2.19h8.29v2.19Zm0,4.02h-8.29v-2.19h8.29v2.19Z"/><path class="cls-2" d="m55.94,55.57h-1.84v-13.51h1.84v13.51Zm-.04-16.9h2.13l.02.06-2.5,2.41h-1.36l1.72-2.47Z"/><path class="cls-2" d="m60.67,45.53l.13,1.49c.33-.53.75-.94,1.26-1.24.5-.29,1.08-.44,1.72-.44,1.08,0,1.92.32,2.51.95.59.63.89,1.61.89,2.94v6.34h-1.83v-6.3c0-.88-.17-1.51-.52-1.88s-.88-.56-1.6-.56c-.53,0-.99.13-1.4.38-.41.25-.73.6-.97,1.04v7.32h-1.83v-10.04h1.63Z"/><path class="cls-2" d="m69.42,50.73c0-1.61.34-2.92,1.03-3.91s1.66-1.48,2.9-1.48c.59,0,1.11.11,1.56.32.45.22.84.53,1.16.95v-5.52h1.83v14.47h-1.49l-.21-1.23c-.33.47-.73.83-1.21,1.07-.48.24-1.03.36-1.66.36-1.22,0-2.18-.44-2.88-1.33s-1.04-2.06-1.04-3.5v-.19Zm1.83.19c0,1.01.21,1.83.62,2.44.41.61,1.06.91,1.93.91.54,0,1-.12,1.37-.37.37-.25.67-.59.91-1.04v-4.69c-.24-.41-.54-.74-.91-.99s-.82-.37-1.35-.37c-.88,0-1.53.36-1.94,1.09-.42.72-.63,1.66-.63,2.82v.19Z"/><path class="cls-2" d="m82.61,42.96h-1.83v-1.86h1.83v1.86Zm0,12.61h-1.83v-10.04h1.83v10.04Z"/><path class="cls-2" d="m89.5,54.32c.61,0,1.14-.19,1.6-.56s.69-.83.69-1.38h1.64l.02.06c.03.87-.35,1.64-1.16,2.31-.8.67-1.73,1.01-2.8,1.01-1.46,0-2.58-.48-3.35-1.43-.77-.95-1.16-2.15-1.16-3.59v-.39c0-1.43.39-2.62,1.16-3.58.78-.96,1.89-1.43,3.34-1.43,1.18,0,2.14.35,2.88,1.04s1.11,1.54,1.08,2.55l-.02.06h-1.65c0-.61-.22-1.13-.65-1.56-.43-.43-.98-.64-1.64-.64-.96,0-1.64.34-2.05,1.03s-.62,1.53-.62,2.53v.39c0,1.03.21,1.88.61,2.56s1.09,1.02,2.06,1.02Z"/><path class="cls-2" d="m99.67,55.76c-1.4,0-2.51-.47-3.33-1.4-.83-.93-1.24-2.14-1.24-3.62v-.41c0-1.43.43-2.62,1.28-3.57.85-.95,1.86-1.42,3.02-1.42,1.35,0,2.38.41,3.07,1.22.69.82,1.04,1.9,1.04,3.27v1.14h-6.51l-.03.05c.02.96.26,1.75.73,2.37.47.62,1.13.93,1.98.93.62,0,1.16-.09,1.63-.26.47-.18.87-.42,1.21-.73l.71,1.19c-.36.36-.83.65-1.42.89-.59.24-1.3.35-2.13.35Zm-.28-8.98c-.61,0-1.13.26-1.57.77-.43.52-.7,1.16-.8,1.94l.02.05h4.63v-.24c0-.72-.19-1.31-.58-1.79s-.95-.72-1.71-.72Z"/><path class="cls-2" d="m109.86,50.73c0-1.61.34-2.92,1.03-3.91s1.66-1.48,2.9-1.48c.59,0,1.11.11,1.56.32.45.22.84.53,1.16.95v-5.52h1.83v14.47h-1.49l-.21-1.23c-.33.47-.73.83-1.21,1.07-.48.24-1.03.36-1.66.36-1.22,0-2.18-.44-2.88-1.33s-1.04-2.06-1.04-3.5v-.19Zm1.83.19c0,1.01.21,1.83.62,2.44.41.61,1.06.91,1.93.91.54,0,1-.12,1.37-.37.37-.25.67-.59.91-1.04v-4.69c-.24-.41-.54-.74-.91-.99s-.82-.37-1.35-.37c-.88,0-1.53.36-1.94,1.09-.42.72-.63,1.66-.63,2.82v.19Z"/><path class="cls-2" d="m125.24,55.76c-1.4,0-2.51-.47-3.33-1.4-.83-.93-1.24-2.14-1.24-3.62v-.41c0-1.43.43-2.62,1.28-3.57.85-.95,1.86-1.42,3.02-1.42,1.35,0,2.38.41,3.07,1.22.69.82,1.04,1.9,1.04,3.27v1.14h-6.51l-.03.05c.02.96.26,1.75.73,2.37.47.62,1.13.93,1.98.93.62,0,1.16-.09,1.63-.26.47-.18.87-.42,1.21-.73l.71,1.19c-.36.36-.83.65-1.42.89-.59.24-1.3.35-2.13.35Zm-.28-8.98c-.61,0-1.13.26-1.57.77-.43.52-.7,1.16-.8,1.94l.02.05h4.63v-.24c0-.72-.19-1.31-.58-1.79s-.95-.72-1.71-.72Z"/><path class="cls-2" d="m140.59,47.14l-.94-.06c-.48,0-.89.11-1.22.34-.33.23-.59.55-.77.96v7.17h-1.83v-10.04h1.63l.18,1.47c.28-.52.64-.92,1.05-1.22.42-.29.9-.44,1.44-.44.14,0,.27.01.39.03.12.02.23.04.31.07l-.25,1.7Z"/><path class="cls-2" d="m146.35,55.76c-1.4,0-2.51-.47-3.33-1.4-.83-.93-1.24-2.14-1.24-3.62v-.41c0-1.43.43-2.62,1.28-3.57.85-.95,1.86-1.42,3.02-1.42,1.35,0,2.38.41,3.07,1.22.69.82,1.04,1.9,1.04,3.27v1.14h-6.51l-.03.05c.02.96.26,1.75.73,2.37.47.62,1.13.93,1.98.93.62,0,1.16-.09,1.63-.26.47-.18.87-.42,1.21-.73l.71,1.19c-.36.36-.83.65-1.42.89-.59.24-1.3.35-2.13.35Zm-.28-8.98c-.61,0-1.13.26-1.57.77-.43.52-.7,1.16-.8,1.94l.02.05h4.63v-.24c0-.72-.19-1.31-.58-1.79s-.95-.72-1.71-.72Z"/><path class="cls-2" d="m152.99,55.57v-8.68h-1.57v-1.35h1.57v-1.27c0-1.07.28-1.9.84-2.48.56-.58,1.34-.88,2.34-.88.21,0,.42.02.64.05.21.03.45.08.71.14l-.22,1.39c-.11-.02-.25-.05-.4-.06-.16-.02-.32-.03-.5-.03-.53,0-.93.16-1.19.48s-.39.78-.39,1.39v1.27h2.09v1.35h-2.09v8.68h-1.83Z"/><path class="cls-2" d="m163.54,47.14l-.94-.06c-.48,0-.89.11-1.22.34-.33.23-.59.55-.77.96v7.17h-1.83v-10.04h1.63l.18,1.47c.28-.52.64-.92,1.05-1.22.42-.29.9-.44,1.44-.44.14,0,.27.01.39.03.12.02.23.04.31.07l-.25,1.7Z"/><path class="cls-2" d="m171.47,55.57c-.06-.3-.11-.57-.14-.8-.03-.23-.05-.47-.06-.7-.34.48-.78.89-1.33,1.21-.55.33-1.14.49-1.77.49-1.04,0-1.84-.27-2.39-.8-.55-.53-.82-1.27-.82-2.21s.39-1.71,1.16-2.25,1.83-.81,3.16-.81h1.99v-.99c0-.59-.18-1.05-.54-1.4-.36-.34-.87-.51-1.52-.51-.59,0-1.07.15-1.43.45s-.55.66-.55,1.08h-1.74l-.02-.06c-.04-.73.31-1.4,1.03-2s1.67-.91,2.82-.91,2.05.29,2.75.87c.69.58,1.04,1.41,1.04,2.5v4.83c0,.36.02.71.06,1.04s.1.66.2.98h-1.88Zm-3.03-1.35c.66,0,1.26-.17,1.79-.51s.88-.73,1.04-1.17v-1.63h-2.05c-.74,0-1.33.19-1.77.55-.44.37-.66.81-.66,1.3,0,.44.14.8.42,1.05.28.26.69.39,1.23.39Z"/><path class="cls-2" d="m179.83,54.32c.61,0,1.14-.19,1.6-.56s.69-.83.69-1.38h1.64l.02.06c.03.87-.35,1.64-1.16,2.31-.8.67-1.73,1.01-2.8,1.01-1.46,0-2.58-.48-3.35-1.43-.77-.95-1.16-2.15-1.16-3.59v-.39c0-1.43.39-2.62,1.16-3.58.78-.96,1.89-1.43,3.34-1.43,1.18,0,2.14.35,2.88,1.04s1.11,1.54,1.08,2.55l-.02.06h-1.65c0-.61-.22-1.13-.65-1.56-.43-.43-.98-.64-1.64-.64-.96,0-1.64.34-2.05,1.03s-.62,1.53-.62,2.53v.39c0,1.03.21,1.88.61,2.56s1.09,1.02,2.06,1.02Zm.28,1.32l-.11.48c.4.07.74.23,1,.48.27.25.4.63.4,1.12,0,.59-.24,1.07-.73,1.42-.49.35-1.19.53-2.1.53l-.06-1.01c.45,0,.8-.08,1.08-.23.27-.15.41-.38.41-.68s-.11-.5-.33-.62c-.22-.12-.6-.2-1.14-.24l.3-1.25h1.3Z"/><path class="cls-2" d="m192,55.57c-.06-.3-.11-.57-.14-.8-.03-.23-.05-.47-.06-.7-.34.48-.78.89-1.33,1.21-.55.33-1.14.49-1.77.49-1.04,0-1.84-.27-2.39-.8-.55-.53-.82-1.27-.82-2.21s.39-1.71,1.16-2.25,1.83-.81,3.16-.81h1.99v-.99c0-.59-.18-1.05-.54-1.4-.36-.34-.87-.51-1.52-.51-.59,0-1.07.15-1.43.45s-.55.66-.55,1.08h-1.74l-.02-.06c-.04-.73.31-1.4,1.03-2s1.67-.91,2.82-.91,2.05.29,2.75.87c.69.58,1.04,1.41,1.04,2.5v4.83c0,.36.02.71.06,1.04s.1.66.2.98h-1.88Zm.87-14.12c0,.58-.18,1.07-.55,1.48-.37.4-.83.6-1.39.6-.44,0-.9-.14-1.37-.43-.48-.29-.87-.43-1.19-.43-.27,0-.49.1-.67.3-.18.2-.27.44-.27.73l-1-.24c0-.58.18-1.07.55-1.5.37-.42.83-.64,1.39-.64.35,0,.78.15,1.3.44.52.29.94.44,1.26.44.25,0,.47-.1.66-.3s.28-.45.28-.74l1,.3Zm-3.91,12.77c.66,0,1.26-.17,1.79-.51s.88-.73,1.04-1.17v-1.63h-2.05c-.74,0-1.33.19-1.77.55-.44.37-.66.81-.66,1.3,0,.44.14.8.42,1.05.28.26.69.39,1.23.39Z"/><path class="cls-2" d="m195.85,50.45c0-1.48.4-2.71,1.21-3.67.8-.96,1.9-1.44,3.28-1.44s2.49.48,3.3,1.44c.81.96,1.21,2.18,1.21,3.67v.2c0,1.5-.4,2.72-1.21,3.67-.8.95-1.9,1.43-3.28,1.43s-2.48-.48-3.29-1.43c-.81-.96-1.21-2.18-1.21-3.67v-.2Zm1.83.2c0,1.06.22,1.94.67,2.63.45.69,1.11,1.04,2,1.04s1.53-.35,1.99-1.04c.45-.69.68-1.57.68-2.63v-.2c0-1.05-.23-1.92-.68-2.62-.45-.7-1.12-1.05-2-1.05s-1.53.35-1.98,1.05c-.45.7-.67,1.57-.67,2.62v.2Z"/><path class="cls-2" d="m211.38,50.73c0-1.61.34-2.92,1.03-3.91s1.66-1.48,2.9-1.48c.59,0,1.11.11,1.56.32.45.22.84.53,1.16.95v-5.52h1.83v14.47h-1.49l-.21-1.23c-.33.47-.73.83-1.21,1.07-.48.24-1.03.36-1.66.36-1.22,0-2.18-.44-2.88-1.33s-1.04-2.06-1.04-3.5v-.19Zm1.83.19c0,1.01.21,1.83.62,2.44.41.61,1.06.91,1.93.91.54,0,1-.12,1.37-.37.37-.25.67-.59.91-1.04v-4.69c-.24-.41-.54-.74-.91-.99s-.82-.37-1.35-.37c-.88,0-1.53.36-1.94,1.09-.42.72-.63,1.66-.63,2.82v.19Z"/><path class="cls-2" d="m228.77,55.57c-.06-.3-.11-.57-.14-.8-.03-.23-.05-.47-.06-.7-.34.48-.78.89-1.33,1.21-.55.33-1.14.49-1.77.49-1.04,0-1.84-.27-2.39-.8-.55-.53-.82-1.27-.82-2.21s.39-1.71,1.16-2.25,1.83-.81,3.16-.81h1.99v-.99c0-.59-.18-1.05-.54-1.4-.36-.34-.87-.51-1.52-.51-.59,0-1.07.15-1.43.45s-.55.66-.55,1.08h-1.74l-.02-.06c-.04-.73.31-1.4,1.03-2s1.67-.91,2.82-.91,2.05.29,2.75.87c.69.58,1.04,1.41,1.04,2.5v4.83c0,.36.02.71.06,1.04s.1.66.2.98h-1.88Zm-3.03-1.35c.66,0,1.26-.17,1.79-.51s.88-.73,1.04-1.17v-1.63h-2.05c-.74,0-1.33.19-1.77.55-.44.37-.66.81-.66,1.3,0,.44.14.8.42,1.05.28.26.69.39,1.23.39Z"/><path class="cls-2" d="m241.85,54.32c.61,0,1.14-.19,1.6-.56s.69-.83.69-1.38h1.64l.02.06c.03.87-.35,1.64-1.16,2.31-.8.67-1.73,1.01-2.8,1.01-1.46,0-2.58-.48-3.35-1.43-.77-.95-1.16-2.15-1.16-3.59v-.39c0-1.43.39-2.62,1.16-3.58.78-.96,1.89-1.43,3.34-1.43,1.18,0,2.14.35,2.88,1.04s1.11,1.54,1.08,2.55l-.02.06h-1.65c0-.61-.22-1.13-.65-1.56-.43-.43-.98-.64-1.64-.64-.96,0-1.64.34-2.05,1.03s-.62,1.53-.62,2.53v.39c0,1.03.21,1.88.61,2.56s1.09,1.02,2.06,1.02Z"/><path class="cls-2" d="m247.42,50.45c0-1.48.4-2.71,1.21-3.67.8-.96,1.9-1.44,3.28-1.44s2.49.48,3.3,1.44c.81.96,1.21,2.18,1.21,3.67v.2c0,1.5-.4,2.72-1.21,3.67-.8.95-1.9,1.43-3.28,1.43s-2.48-.48-3.29-1.43c-.81-.96-1.21-2.18-1.21-3.67v-.2Zm1.83.2c0,1.06.22,1.94.67,2.63.45.69,1.11,1.04,2,1.04s1.53-.35,1.99-1.04c.45-.69.68-1.57.68-2.63v-.2c0-1.05-.23-1.92-.68-2.62-.45-.7-1.12-1.05-2-1.05s-1.53.35-1.98,1.05c-.45.7-.67,1.57-.67,2.62v.2Zm3.55-9h2.13l.02.06-2.51,2.41h-1.36l1.72-2.47Z"/><path class="cls-2" d="m263.4,47.14l-.94-.06c-.48,0-.89.11-1.22.34-.33.23-.59.55-.77.96v7.17h-1.83v-10.04h1.63l.18,1.47c.28-.52.64-.92,1.05-1.22.42-.29.9-.44,1.44-.44.14,0,.27.01.39.03.12.02.23.04.31.07l-.25,1.7Z"/><path class="cls-2" d="m266.79,45.53l.13,1.49c.33-.53.75-.94,1.26-1.24.5-.29,1.08-.44,1.72-.44,1.08,0,1.92.32,2.51.95.59.63.89,1.61.89,2.94v6.34h-1.83v-6.3c0-.88-.17-1.51-.52-1.88s-.88-.56-1.6-.56c-.53,0-.99.13-1.4.38-.41.25-.73.6-.97,1.04v7.32h-1.83v-10.04h1.63Z"/><path class="cls-2" d="m280.12,55.76c-1.4,0-2.51-.47-3.33-1.4-.83-.93-1.24-2.14-1.24-3.62v-.41c0-1.43.43-2.62,1.28-3.57.85-.95,1.86-1.42,3.02-1.42,1.35,0,2.38.41,3.07,1.22.69.82,1.04,1.9,1.04,3.27v1.14h-6.51l-.03.05c.02.96.26,1.75.73,2.37.47.62,1.13.93,1.98.93.62,0,1.16-.09,1.63-.26.47-.18.87-.42,1.21-.73l.71,1.19c-.36.36-.83.65-1.42.89-.59.24-1.3.35-2.13.35Zm-.28-8.98c-.61,0-1.13.26-1.57.77-.43.52-.7,1.16-.8,1.94l.02.05h4.63v-.24c0-.72-.19-1.31-.58-1.79s-.95-.72-1.71-.72Z"/><path class="cls-2" d="m292.18,55.57c-.06-.3-.11-.57-.14-.8-.03-.23-.05-.47-.06-.7-.34.48-.78.89-1.33,1.21-.55.33-1.14.49-1.77.49-1.04,0-1.84-.27-2.39-.8-.55-.53-.82-1.27-.82-2.21s.39-1.71,1.16-2.25,1.83-.81,3.16-.81h1.99v-.99c0-.59-.18-1.05-.54-1.4-.36-.34-.87-.51-1.52-.51-.59,0-1.07.15-1.43.45s-.55.66-.55,1.08h-1.74l-.02-.06c-.04-.73.31-1.4,1.03-2s1.67-.91,2.82-.91,2.05.29,2.75.87c.69.58,1.04,1.41,1.04,2.5v4.83c0,.36.02.71.06,1.04s.1.66.2.98h-1.88Zm-3.03-1.35c.66,0,1.26-.17,1.79-.51s.88-.73,1.04-1.17v-1.63h-2.05c-.74,0-1.33.19-1.77.55-.44.37-.66.81-.66,1.3,0,.44.14.8.42,1.05.28.26.69.39,1.23.39Z"/><path class="cls-2" d="m304.27,47.93h-7.74v-1.54h7.74v1.54Zm0,3.88h-7.74v-1.54h7.74v1.54Z"/><path class="cls-2" d="m311.77,50.08c0-2.44.49-4.52,1.47-6.24.98-1.73,2.02-2.88,3.1-3.45h.05s.35,1.09.35,1.09c-.85.66-1.59,1.72-2.21,3.18-.63,1.46-.94,3.26-.94,5.41v.12c0,2.15.31,3.95.94,5.41s1.36,2.55,2.22,3.27l-.35,1h-.05c-1.08-.58-2.12-1.72-3.1-3.45-.98-1.72-1.47-3.81-1.47-6.25v-.08Z"/><path class="cls-2" d="m323.16,55.57h-1.83v-11.73l-2.76.04v-1.32l4.59-.5v13.51Z"/><path class="cls-2" d="m330.46,55.12l-1.39,2.84h-1.09l.65-2.93v-1.51h1.83v1.6Z"/><path class="cls-2" d="m334.89,47.97h1.6c.81,0,1.38-.2,1.72-.61s.51-.97.51-1.69c0-.77-.19-1.36-.58-1.76-.38-.4-.95-.6-1.7-.6s-1.28.21-1.71.63c-.43.42-.64.97-.64,1.67h-1.75l-.02-.06c-.03-1.02.34-1.89,1.11-2.6.77-.71,1.78-1.07,3.02-1.07s2.25.33,2.99,1c.74.67,1.11,1.61,1.11,2.84,0,.56-.17,1.11-.51,1.67-.34.55-.84.98-1.52,1.27.81.27,1.38.68,1.72,1.25.34.57.5,1.21.5,1.91,0,1.23-.4,2.2-1.21,2.9-.81.71-1.84,1.06-3.09,1.06s-2.25-.33-3.06-1c-.81-.67-1.2-1.57-1.16-2.7l.03-.06h1.74c0,.71.22,1.27.65,1.69.44.42,1.04.63,1.79.63s1.38-.21,1.82-.63c.44-.42.66-1.04.66-1.86s-.19-1.45-.58-1.84c-.39-.39-1-.59-1.85-.59h-1.6v-1.44Z"/><path class="cls-2" d="m345.59,47.97h1.6c.81,0,1.38-.2,1.72-.61s.51-.97.51-1.69c0-.77-.19-1.36-.58-1.76-.38-.4-.95-.6-1.7-.6s-1.28.21-1.71.63c-.43.42-.64.97-.64,1.67h-1.75l-.02-.06c-.03-1.02.34-1.89,1.11-2.6.77-.71,1.78-1.07,3.02-1.07s2.25.33,2.99,1c.74.67,1.11,1.61,1.11,2.84,0,.56-.17,1.11-.51,1.67-.34.55-.84.98-1.52,1.27.81.27,1.38.68,1.72,1.25.34.57.5,1.21.5,1.91,0,1.23-.4,2.2-1.21,2.9-.81.71-1.84,1.06-3.09,1.06s-2.25-.33-3.06-1c-.81-.67-1.2-1.57-1.16-2.7l.03-.06h1.74c0,.71.22,1.27.65,1.69.44.42,1.04.63,1.79.63s1.38-.21,1.82-.63c.44-.42.66-1.04.66-1.86s-.19-1.45-.58-1.84c-.39-.39-1-.59-1.85-.59h-1.6v-1.44Z"/><path class="cls-2" d="m362.54,43.5c-1.63,1.94-2.74,3.66-3.31,5.16s-.98,3.32-1.24,5.45l-.15,1.46h-1.83l.15-1.46c.26-2.13.76-4.03,1.51-5.71s1.77-3.31,3.07-4.91h-7.35v-1.44h9.14v1.44Z"/><path class="cls-2" d="m368.42,50.17c0,2.44-.49,4.53-1.48,6.25-.99,1.72-2.02,2.87-3.09,3.45h-.06l-.35-1c.83-.65,1.57-1.72,2.2-3.21s.95-3.31.95-5.47v-.12c0-2.12-.33-3.92-.98-5.41-.65-1.49-1.38-2.58-2.18-3.26l.35-1h.06c1.08.58,2.11,1.73,3.09,3.45s1.48,3.81,1.48,6.24v.08Z"/><path class="cls-2" d="m28.79,78.37h-2.68v-10.33l-3.2.99v-2.18l5.59-2h.29v13.53Z"/><path class="cls-2" d="m46.55,71.44h-8.29v-2.19h8.29v2.19Zm0,4.02h-8.29v-2.19h8.29v2.19Z"/><path class="cls-2" d="m63.82,74.03l.02.06c.03,1.27-.42,2.33-1.34,3.19-.92.86-2.12,1.28-3.63,1.28s-2.77-.54-3.73-1.62-1.44-2.46-1.44-4.12v-2.4c0-1.66.48-3.04,1.44-4.12s2.21-1.63,3.73-1.63,2.74.41,3.65,1.22c.9.81,1.34,1.89,1.32,3.23l-.02.06h-1.75c0-.95-.28-1.69-.83-2.25-.56-.55-1.34-.83-2.36-.83s-1.83.41-2.44,1.23c-.61.82-.91,1.84-.91,3.06v2.42c0,1.23.3,2.26.91,3.08.61.82,1.42,1.23,2.44,1.23s1.8-.27,2.36-.82c.56-.55.83-1.3.83-2.27h1.75Z"/><path class="cls-2" d="m65.53,73.25c0-1.48.4-2.71,1.21-3.67.8-.96,1.9-1.44,3.28-1.44s2.49.48,3.3,1.44c.81.96,1.21,2.18,1.21,3.67v.2c0,1.5-.4,2.72-1.21,3.67-.8.95-1.9,1.43-3.28,1.43s-2.48-.48-3.29-1.43c-.81-.96-1.21-2.18-1.21-3.67v-.2Zm1.83.2c0,1.06.22,1.94.67,2.63.45.69,1.11,1.04,2,1.04s1.53-.35,1.99-1.04c.45-.69.68-1.57.68-2.63v-.2c0-1.05-.23-1.92-.68-2.62-.45-.7-1.12-1.05-2-1.05s-1.53.35-1.98,1.05c-.45.7-.67,1.57-.67,2.62v.2Z"/><path class="cls-2" d="m78.39,68.33l.13,1.49c.33-.53.75-.94,1.26-1.24.5-.29,1.08-.44,1.72-.44,1.08,0,1.92.32,2.51.95.59.63.89,1.61.89,2.94v6.34h-1.83v-6.3c0-.88-.17-1.51-.52-1.88s-.88-.56-1.6-.56c-.53,0-.99.13-1.4.38-.41.25-.73.6-.97,1.04v7.32h-1.83v-10.04h1.63Z"/><path class="cls-2" d="m93.39,75.69c0-.4-.15-.73-.46-.99-.31-.26-.89-.49-1.74-.68-1.22-.27-2.13-.63-2.75-1.08-.62-.45-.92-1.07-.92-1.86s.35-1.51,1.04-2.08c.69-.57,1.6-.86,2.71-.86,1.17,0,2.1.3,2.79.9.69.6,1.02,1.33.99,2.19l-.02.06h-1.74c0-.44-.18-.83-.55-1.18-.37-.35-.86-.52-1.46-.52-.65,0-1.13.14-1.45.43-.31.29-.47.63-.47,1.03s.14.71.42.94c.28.23.84.43,1.7.61,1.27.27,2.21.64,2.83,1.11.62.47.93,1.09.93,1.88,0,.89-.36,1.61-1.08,2.16-.72.55-1.66.83-2.83.83-1.28,0-2.29-.32-3.02-.97s-1.08-1.41-1.05-2.27l.02-.06h1.74c.03.65.27,1.12.72,1.42.45.3.98.45,1.59.45.65,0,1.16-.13,1.53-.39.37-.26.55-.61.55-1.03Z"/><path class="cls-2" d="m99.9,65.91v2.42h1.9v1.35h-1.9v6.09c0,.47.1.8.29.99.19.19.45.29.77.29.11,0,.22-.01.35-.04.13-.02.24-.06.34-.09l.24,1.25c-.14.11-.34.2-.6.27s-.53.11-.79.11c-.74,0-1.33-.22-1.77-.67-.44-.45-.66-1.15-.66-2.11v-6.09h-1.6v-1.35h1.6v-2.42h1.83Z"/><path class="cls-2" d="m110.23,78.37c-.06-.3-.11-.57-.14-.8-.03-.23-.05-.46-.06-.7-.34.48-.78.89-1.33,1.21-.55.32-1.14.49-1.77.49-1.04,0-1.84-.27-2.39-.8-.55-.54-.82-1.27-.82-2.21s.39-1.71,1.16-2.25,1.83-.81,3.16-.81h1.99v-.99c0-.59-.18-1.05-.54-1.4s-.87-.52-1.52-.52c-.59,0-1.07.15-1.43.45s-.55.66-.55,1.08h-1.74l-.02-.06c-.04-.73.31-1.4,1.03-2,.73-.61,1.67-.91,2.82-.91s2.05.29,2.75.87c.69.58,1.04,1.41,1.04,2.5v4.83c0,.36.02.71.06,1.04s.1.66.2.98h-1.88Zm-3.03-1.35c.66,0,1.26-.17,1.79-.51.53-.34.88-.73,1.04-1.17v-1.63h-2.05c-.74,0-1.33.19-1.77.56-.44.37-.66.8-.66,1.3,0,.44.14.8.42,1.05.28.26.69.39,1.23.39Z"/><path class="cls-2" d="m116.14,68.33l.13,1.49c.33-.53.75-.94,1.26-1.24.5-.29,1.08-.44,1.72-.44,1.08,0,1.92.32,2.51.95.59.63.89,1.61.89,2.94v6.34h-1.83v-6.3c0-.88-.17-1.51-.52-1.88s-.88-.56-1.6-.56c-.53,0-.99.13-1.4.38-.41.25-.73.6-.97,1.04v7.32h-1.83v-10.04h1.63Z"/><path class="cls-2" d="m127.72,65.91v2.42h1.9v1.35h-1.9v6.09c0,.47.1.8.29.99.19.19.45.29.77.29.11,0,.22-.01.35-.04.13-.02.24-.06.34-.09l.24,1.25c-.14.11-.34.2-.6.27s-.53.11-.79.11c-.74,0-1.33-.22-1.77-.67-.44-.45-.66-1.15-.66-2.11v-6.09h-1.6v-1.35h1.6v-2.42h1.83Z"/><path class="cls-2" d="m136.04,78.56c-1.4,0-2.51-.46-3.33-1.4-.83-.93-1.24-2.14-1.24-3.62v-.41c0-1.43.43-2.62,1.28-3.57.85-.95,1.86-1.42,3.02-1.42,1.35,0,2.38.41,3.07,1.22.69.82,1.04,1.9,1.04,3.27v1.14h-6.51l-.03.05c.02.96.26,1.75.73,2.37.47.62,1.13.93,1.98.93.62,0,1.16-.09,1.63-.26.47-.18.87-.42,1.21-.73l.71,1.19c-.36.35-.83.65-1.42.89s-1.3.35-2.13.35Zm-.28-8.98c-.61,0-1.13.26-1.57.77-.43.51-.7,1.16-.8,1.94l.02.05h4.63v-.24c0-.72-.19-1.31-.58-1.79-.38-.48-.95-.72-1.71-.72Z"/><path class="cls-2" d="m146.23,73.53c0-1.61.34-2.92,1.03-3.91.69-.99,1.66-1.48,2.9-1.48.59,0,1.11.11,1.56.32.45.22.84.53,1.16.95v-5.52h1.83v14.47h-1.49l-.21-1.23c-.33.47-.73.83-1.21,1.07-.48.24-1.03.36-1.66.36-1.22,0-2.18-.44-2.88-1.33s-1.04-2.05-1.04-3.5v-.2Zm1.83.2c0,1.01.21,1.83.62,2.44.41.61,1.06.91,1.93.91.54,0,1-.12,1.37-.37.37-.25.67-.59.91-1.04v-4.68c-.24-.41-.54-.74-.91-.99s-.82-.37-1.35-.37c-.88,0-1.53.36-1.94,1.08-.42.72-.63,1.66-.63,2.82v.2Z"/><path class="cls-2" d="m163.61,78.37c-.06-.3-.11-.57-.14-.8-.03-.23-.05-.46-.06-.7-.34.48-.78.89-1.33,1.21-.55.32-1.14.49-1.77.49-1.04,0-1.84-.27-2.39-.8-.55-.54-.82-1.27-.82-2.21s.39-1.71,1.16-2.25,1.83-.81,3.16-.81h1.99v-.99c0-.59-.18-1.05-.54-1.4s-.87-.52-1.52-.52c-.59,0-1.07.15-1.43.45s-.55.66-.55,1.08h-1.74l-.02-.06c-.04-.73.31-1.4,1.03-2,.73-.61,1.67-.91,2.82-.91s2.05.29,2.75.87c.69.58,1.04,1.41,1.04,2.5v4.83c0,.36.02.71.06,1.04s.1.66.2.98h-1.88Zm-3.03-1.35c.66,0,1.26-.17,1.79-.51.53-.34.88-.73,1.04-1.17v-1.63h-2.05c-.74,0-1.33.19-1.77.56-.44.37-.66.8-.66,1.3,0,.44.14.8.42,1.05.28.26.69.39,1.23.39Z"/><path class="cls-2" d="m176.78,78.56c-1.4,0-2.51-.46-3.33-1.4-.83-.93-1.24-2.14-1.24-3.62v-.41c0-1.43.43-2.62,1.28-3.57.85-.95,1.86-1.42,3.02-1.42,1.35,0,2.38.41,3.07,1.22.69.82,1.04,1.9,1.04,3.27v1.14h-6.51l-.03.05c.02.96.26,1.75.73,2.37.47.62,1.13.93,1.98.93.62,0,1.16-.09,1.63-.26.47-.18.87-.42,1.21-.73l.71,1.19c-.36.35-.83.65-1.42.89s-1.3.35-2.13.35Zm-.28-8.98c-.61,0-1.13.26-1.57.77-.43.51-.7,1.16-.8,1.94l.02.05h4.63v-.24c0-.72-.19-1.31-.58-1.79-.38-.48-.95-.72-1.71-.72Z"/><path class="cls-2" d="m182.24,73.53c0-1.61.34-2.92,1.03-3.91.69-.99,1.66-1.48,2.9-1.48.61,0,1.15.12,1.61.35s.86.57,1.18,1.02l.27-1.18h1.39v13.9h-1.83v-4.81c-.32.38-.7.66-1.14.85s-.94.29-1.5.29c-1.22,0-2.18-.44-2.88-1.33s-1.04-2.05-1.04-3.5v-.2Zm1.83.19c0,1.01.21,1.83.63,2.46.42.63,1.06.94,1.92.94.5,0,.93-.11,1.29-.33.36-.22.65-.53.9-.94v-5.06c-.24-.38-.54-.67-.9-.89-.36-.22-.78-.32-1.27-.32-.87,0-1.52.37-1.94,1.11-.42.74-.63,1.69-.63,2.84v.2Z"/><path class="cls-2" d="m199.83,76.88c-.32.54-.72.95-1.22,1.24-.49.29-1.07.44-1.72.44-1.09,0-1.95-.35-2.56-1.05s-.92-1.79-.92-3.27v-5.92h1.83v5.94c0,1.07.16,1.81.47,2.21.32.4.81.6,1.48.6s1.19-.13,1.61-.39c.42-.26.74-.64.96-1.12v-7.24h1.83v10.04h-1.64l-.12-1.48Z"/><path class="cls-2" d="m210.43,78.37c-.06-.3-.11-.57-.14-.8-.03-.23-.05-.46-.06-.7-.34.48-.78.89-1.33,1.21-.55.32-1.14.49-1.77.49-1.04,0-1.84-.27-2.39-.8-.55-.54-.82-1.27-.82-2.21s.39-1.71,1.16-2.25,1.83-.81,3.16-.81h1.99v-.99c0-.59-.18-1.05-.54-1.4s-.87-.52-1.52-.52c-.59,0-1.07.15-1.43.45s-.55.66-.55,1.08h-1.74l-.02-.06c-.04-.73.31-1.4,1.03-2,.73-.61,1.67-.91,2.82-.91s2.05.29,2.75.87c.69.58,1.04,1.41,1.04,2.5v4.83c0,.36.02.71.06,1.04s.1.66.2.98h-1.88Zm-3.03-1.35c.66,0,1.26-.17,1.79-.51.53-.34.88-.73,1.04-1.17v-1.63h-2.05c-.74,0-1.33.19-1.77.56-.44.37-.66.8-.66,1.3,0,.44.14.8.42,1.05.28.26.69.39,1.23.39Z"/><path class="cls-2" d="m218.78,77.12c.61,0,1.14-.19,1.6-.56s.69-.83.69-1.38h1.64l.02.06c.03.87-.35,1.64-1.16,2.31-.8.67-1.73,1.01-2.8,1.01-1.46,0-2.58-.48-3.35-1.43-.77-.95-1.16-2.15-1.16-3.59v-.39c0-1.43.39-2.62,1.16-3.58.78-.96,1.89-1.43,3.34-1.43,1.18,0,2.14.35,2.88,1.04.75.69,1.11,1.54,1.08,2.55l-.02.06h-1.65c0-.61-.22-1.13-.65-1.56-.43-.43-.98-.65-1.64-.65-.96,0-1.64.34-2.05,1.03-.41.69-.62,1.53-.62,2.53v.39c0,1.03.21,1.88.61,2.56s1.09,1.02,2.06,1.02Zm.28,1.32l-.11.48c.4.07.74.23,1,.48.27.25.4.63.4,1.12,0,.59-.24,1.07-.73,1.42-.49.35-1.19.53-2.1.53l-.06-1.01c.45,0,.8-.08,1.08-.23s.41-.38.41-.68-.11-.5-.33-.62-.6-.2-1.14-.24l.3-1.25h1.3Z"/><path class="cls-2" d="m230.96,78.37c-.06-.3-.11-.57-.14-.8-.03-.23-.05-.46-.06-.7-.34.48-.78.89-1.33,1.21-.55.32-1.14.49-1.77.49-1.04,0-1.84-.27-2.39-.8-.55-.54-.82-1.27-.82-2.21s.39-1.71,1.16-2.25,1.83-.81,3.16-.81h1.99v-.99c0-.59-.18-1.05-.54-1.4s-.87-.52-1.52-.52c-.59,0-1.07.15-1.43.45s-.55.66-.55,1.08h-1.74l-.02-.06c-.04-.73.31-1.4,1.03-2,.73-.61,1.67-.91,2.82-.91s2.05.29,2.75.87c.69.58,1.04,1.41,1.04,2.5v4.83c0,.36.02.71.06,1.04s.1.66.2.98h-1.88Zm.87-14.12c0,.58-.18,1.07-.55,1.47-.37.4-.83.6-1.39.6-.44,0-.9-.14-1.37-.43-.48-.29-.87-.43-1.19-.43-.27,0-.49.1-.67.3-.18.2-.27.44-.27.73l-1-.24c0-.58.18-1.07.55-1.5.37-.42.83-.64,1.39-.64.35,0,.78.15,1.3.44.52.29.94.44,1.26.44.25,0,.47-.1.66-.3s.28-.45.28-.74l1,.3Zm-3.91,12.77c.66,0,1.26-.17,1.79-.51.53-.34.88-.73,1.04-1.17v-1.63h-2.05c-.74,0-1.33.19-1.77.56-.44.37-.66.8-.66,1.3,0,.44.14.8.42,1.05.28.26.69.39,1.23.39Z"/><path class="cls-2" d="m234.81,73.25c0-1.48.4-2.71,1.21-3.67.8-.96,1.9-1.44,3.28-1.44s2.49.48,3.3,1.44c.81.96,1.21,2.18,1.21,3.67v.2c0,1.5-.4,2.72-1.21,3.67-.8.95-1.9,1.43-3.28,1.43s-2.48-.48-3.29-1.43c-.81-.96-1.21-2.18-1.21-3.67v-.2Zm1.83.2c0,1.06.22,1.94.67,2.63.45.69,1.11,1.04,2,1.04s1.53-.35,1.99-1.04c.45-.69.68-1.57.68-2.63v-.2c0-1.05-.23-1.92-.68-2.62-.45-.7-1.12-1.05-2-1.05s-1.53.35-1.98,1.05c-.45.7-.67,1.57-.67,2.62v.2Z"/><path class="cls-1" d="m401.07,101.29c.2.52.65.23.56-1.21l-.76-1.02.2,2.24Z"/><path class="cls-1" d="m402.48,91.6c-.37-1.69-1.02-3.65-1.72-2.55.73,1.68.43,2.08,1.3,3.89.09,1.44-.24,2.52-.52,2.27.2.51-.17,2.24.31,3.02.59-1.88.61-4.25.13-6.74.17-.53.37-.02.51.11Z"/><path class="cls-1" d="m349.88,2.35l.91.09c-.25-.05-.56-.08-.91-.09Z"/><path class="cls-1" d="m262.59,1.94c.66-.02.94-.09.98-.16-.62.05-1.12.1-.98.16Z"/><path class="cls-1" d="m247.69,1.1c.32.02.59.03.88.05-.33-.07-.67-.11-.88-.05Z"/><path class="cls-1" d="m349.88,2.35l-2.33-.24c-.16.25,1.2.18,2.33.24Z"/><path class="cls-1" d="m400.65,72.17c.04.49.11.89.2,1.27-.03-.4-.05-.79-.08-1.19-.04-.02-.08-.04-.12-.08Z"/><path class="cls-1" d="m388.37,1.74h.71c.21-.09.4-.19.59-.31l-1.3.31Z"/><path class="cls-1" d="m404.4,18.72c.03-.67-.62-.9-.9-1.16.27.38.39.87.44,1.46.12.01.27-.08.46-.3Z"/><path class="cls-1" d="m403.27,65.55l.09.83c-.02-.22-.06-.58-.09-.83Z"/><path class="cls-1" d="m367.23,1.6c-.05-.1-.16-.18-.27-.23,0,.08.11.16.27.23Z"/><path class="cls-1" d="m368.37,98.25s0,.08,0,.12c.17-.07.22-.11,0-.12Z"/><path class="cls-1" d="m402.6,101.46l-.47.03c-.05.12-.1.24-.1.36l.58-.4Z"/><path class="cls-1" d="m220.41.27c.05,0,.07,0,.12.01.72-.07.31-.06-.12-.01Z"/><path class="cls-1" d="m1.05,37.14c.58-2.84.74,4.62,1.38.35-.25.4-1.01-3.88-1.38-.35Z"/><path class="cls-1" d="m400.73,71.4c0-.4,0-.8,0-1.21-.02.55-.02.92,0,1.21Z"/><path class="cls-1" d="m2.43,37.48h0l.06-.44c-.03.18-.04.29-.07.44Z"/><path class="cls-1" d="m157.56.66c.13.11.38.2.64.28-.02-.07-.17-.15-.64-.28Z"/><path class="cls-1" d="m204.38,1.58l-1.16-.09c.46.06.83.08,1.16.09Z"/><path class="cls-1" d="m133.25,1.57c-.63-.05-.84-.14-1.7-.05.08.03.16.06.26.08.31-.09.73-.13,1.44-.03Z"/><path class="cls-1" d="m107.95,1.57c.13.05.31.09.47.13.25-.01.54-.02.8-.03l-1.27-.1Z"/><path class="cls-1" d="m291.47,98.57c.55.18.9.38,1.17.58-.39-.46,3.33-.62-1.17-.58Z"/><path class="cls-1" d="m401.01,72.15c-.16-.15-.24-.36-.28-.75.01.29.02.57.03.84.1.07.19.09.24-.09Z"/><path class="cls-1" d="m132.22,6.67l-4.02-.1c1.12.06,2.58.1,4.02.1Z"/><path class="cls-1" d="m109.95,98.66l.92-.08c-.36-.01-.68,0-.92.08Z"/><path class="cls-1" d="m116.27,6.67c-.72-.23-1.48-.36-2.26-.45-.17.05-.36.09-.47.17l2.73.28Z"/><path class="cls-1" d="m292.65,99.15s0,0,0,0c0,0,0,0,0,0Z"/><path class="cls-1" d="m319.13,97.62c-3.83-.02-1.8.83-2.61,1.32-4.57.24-2.12-.63-3.67-1.06-2.85.22-5.04,1.01-7.17.97-.16-.14-.57-.19-.09-.37-3.02.68-8.96.03-12.48.88-.26-.08-.39-.15-.46-.21.57.43.66.86.54,1.17-1.72.01-3.19.54-3.83-.02,1.05.02,1.14-.21,1.63-.38l-1.8.24c-1.62-.8,2.46-.28,2.46-.87-3.51.26-7.6.92-10.29.7-.56-.78,6.29-.26,2.7-.96l4.16.3c-3.18-1.23,2.53.09-.39-1.23-5.47-.23-6.12.4-11.58.17-1.23.43.41.64-.82,1.08-7.76.78-6.11-1.97-11.82-.92-1.48.52-2.05,1.51-6.11.99l1.39-.88c-5.3-.09-3.03,1.27-8.58.68.99-.35,4.17-.29,3.36-.4-3.6-.7-2.54.5-5.31.5l-.57-.78c-5.64.12-11.86.69-18.11.83.35-.23,1.42-.48-.05-.72-7.88.39-16.83-.1-24.43-.56l-2.9.68c-.68,0-1.25-.31-.52-.44-2.96-.26-.15.43-1.58.69-1.69.05-2.23-.39-1.16-.59-5.23.57-14.9,1.23-20.4.51l1.07-.2c-4.29-.27-4.84,1.38-8.82.75l.76-.12c-9.31-.29-19.6.33-26.7-.69-1.35.97-9.22-.43-9.81.92-5.32-.67-3.79-.91-11.28-1.37-2-.06-2.98.85-5.45.99l-.06-.71-3.36.74-1.79-.85-2.32.18c.92.04,1.96.32,1.82.52-3.62.32-8.83-.49-8.92-.86l-8.57.6c.19-.29,1.63-.38,2.76-.57-4.57.72-.83-.75-5.02-.08.56.16-.3.42-.4.57-2.09-.43-6.85-.43-10.37-.25l.68-.49c-6.36-.12-13.4.23-20.53.23,2.56.23,1.97,1.08-.12,1.16l-.84-.75c-1.35.46,2.19.28-.59.85-2.67-.09-1.79-.85-.26-1.1l-3.24.26c-.19-.22.57-.34.77-.63-1.33.47-5.59-.75-7.51.06l-.18-.22c-7.13,0-10.37.25-16.17.29-.11.65-2.38.5-4.12,1.03-4.27-.21-9.01-.71-14.15-.66-3.61.32-1.06.55-2.68.93-.27-.59-5.4-.53-2.74-.96-.72.01-1.38.02-2,.03-.31,0-.6.01-.89.01h-.22s-.11.02-.11.02c-.32.03-.6.05-.89.08-.05-.35-.1-.71-.16-1.14-.08-1.42-.18-3.07-.29-5.15-.24.85-.35,1.8-.55,1.31-.1-1.42.25-3.22.53-3.02l.06.37c-.88-8.76,1.72-20.23.49-27.21l.06.39-.64-7.24c.1-3.33.44,2,.81-.47-.98-7.81.14-12.33-.51-18.76,1.74-4.98-.12-17.66.99-24.38l-.41.39c-.4-1.74.23-2.1.33-3.38-.32.18-.37,1.88-.59.81-.04-1.69-.08-3.39-.13-5.13,2.22.04,4.46.08,6.72.12,3.14.1,6.29.2,9.45.3,6.32.24,12.65.51,18.88.67,5.51.11,3.13-2.12,10.08-1.14l-1.97.76c11.13-.91,22.75.03,33.65-.74-.65.18-.67.4-1.73.4,2.3.55,8.51.03,8.55-.42,1.7.05.39.41,1.44.64,2.31.33,5.79-.71,7.02-.16.21.09-.65.18-1.07.22,1.5-.27,7.01.07,5.57-.57,4.09.3,7.82-.28,11.08.09,2.13-.71,7,.34,7.67-.66-.29,1.04,7.17.84,9.75.35-.87.31,2.25.33,1.23.76,2.95-.01,5.65-.21,5.14-.74,5.44,1.25,10.92-1,13.99.59,8.76-.56,16.87-.94,24.76-1.18-.28,1.04-8.71.1-8.38,1.19,7.48-.43,11.79-1.32,19.21-1.07,1.92.14-1.09.45-1.74.63,7.47-.43,14.45.09,21.1-.47-.02.1-.74.2-1.41.28,1.31-.03,3.05.15,2.9-.32l-1.28.13c-2.09-.68,5.2-1.43,5.44-1.79-2.22,1.35,6.57.34,3.03,2.05.86-.09,1.94-.31,1.75-.63,1.28.09,1.69.28.39.64,4.69-.26,3.03-.76,7.28-.75-.02.23-.87.32-1.31.59,2.15-.45,4.32-.89,7.91-.7-.22.14.2.32-.87.31,6.17-.07,10.52-1.19,17.29-.76-2,.99,2.3.33,2.66,1.19l3.64-.26-1.46-.42c3.19.01,6.01-.61,8.75-.33l-2.37.35,5.98-.16-3.38-.33c3.23-.44-.35-1.09,3.9-.85-.86.09,3.19.01,4.85.52h-.01c1.58-.27,3.2-.56,5.56-.35.61.27-.49.95-.09,1.13,1.56-.72,7.47-.2,9.44-.96-.66.18-.69.63-.48.72l1.31-.58c1.48.19,1.69.28,1.45.64,4.44.11-1.41-1.09,3.86-.62-.41.05-.22.13-1.08.22,5.3.24,10.23-.37,15.1-.08,1.44.86-4.25.21-2.61.94,7.02-.16,14.53-1.04,21.32-.83l-1.27-.1c.94-1.22,5.06.6,8.49.03-.84.09-1.1.68-.88.54,4.65.2,9.51-.3,16.56-.68l-.87.31c2.74.28,7.22.16,10.18.3.88-.31,2.57-.26,1.54-.72,9.13,1.79,17.41-.96,25.51.53-.97,0-2.31.27-1.54.27l6.9-.29c-.55-.53-.9-.32-2.35-.74.87-.32,2.82-.56,4.53-.56-3.1.35.03.85,1.37,1.15-.22-.16.23-.34.12-.51,3.6.95.6-1.07,5.52-.43l-.26.28c.4-.03.82-.07,1.2-.12l1.09-.14c.75-.09,1.59-.17,2.42-.18,0,.21,0,.43-.01.65-.3.62-.38.23-.44-.2-.57.06-1.21.1-1.41.36.36,0,.74-.04,1.15-.1.14.73.38,1.55.52,2.55.14,1.04.19,2.17-.07,3.2-.09-.59-.13-1.31-.17-2.04-.02-.35-.05-.7-.07-1.03-.03-.28-.06-.55-.1-.77-.36,1.05-.5,1.92-.55,2.58-.06.68-.04,1.27-.1,2.29l.02-.2-.33,4.72.2-1.2c1.6,3.49.29,7.11,1.34,11.81-.99-4.57-.58-.76-1.27-1.11-.19,1.2-.41,3.03-.61,2.51.56,2.22-.44,3.71.38,6.85-.22.14-.02,2.38-.59,1.88.18,2.89.39-.68.67-.44.77,4.45-.93,10.47.12,16.87.43,5.52,1.19,6.55,1.57,11.67-.36,1.73-.82-1.42-.82-1.42-.33,2.79-.27,4.89-.01,7.52-.2-.53-.36.02-.61.82.06,2.11.82,1.41.49,4.19-.25-.48-.65-1.09-.9-2.11.21,2.49.63,4.94.83,7.52-.39.68-.59-1.55-.85-2.46.18,2.89.35,7.5.97,8.39l.22-1.86c.03,1.05-.53.54-.64-.24-.49-2.48.21-3.58.44-3.72l.14,1.83c1.32-1.88-.21-7.37-.13-11.06l.96,1.54-.79-3.79c.25-.81.78-1.36.93.47.47-2.65-.34-2.34.19-4.62.08-.25.13-.14.17.1l-.29-2.59c.2.51.68-.43.54,1.16.55-4.64-.72-7.48,0-9.23l.06.39c-.32-6.44-.7-.62-1.53-5.45l1.73-3.25-.7-.63c.03-.66.08-1.98.36-1.74-.48-2.47-.31.42-.76-1.01.64-3.2-.3-8.82.82-9.54-.53-1.15-.41,3.06-.78-.36,1.2-.97-.21-3.95.35-6.87.62.9.29,3.66.85.74-1.05-1.76.23-5.69.03-8.15-.84-.12-.35-5.36-.63-9.49.09.08.16-.63.24-1.78.04-.49.07-1.43.11-2.38.03-.98.07-2.04.11-3.12-1.3-.05-2.62-.1-3.86-.14-.32-.01-.64-.03-.94-.04-.24-.01-.47-.03-.69-.04-.43-.03-.83-.06-1.2-.08l.11-.14c-.74.85-4.71.69-7.6.86.11-.51.63-.71,2.2-.93h-2.72c-.64.27-1.49.42-3.25.51l.68-.63c-3.61.03-7.28.74-11.93.32-.26.59,3.7,1.64-1.22,2.03-.18-.32-.36-.86.92-.99-.42.04-1.5.26-2.35.13l1.96-.54c-2.12-.24-1.11.45-2.8.4.03-.45-1.25-.32-1.01-.68.43-.04,1.48.19,2.13,0-1.91-.08-4.22-.35-4.98-.69.17.26,0,.61-1.4.67-3.61.03-1.24-.55-3.35-.78-.88.32-3.18-.01-3.24.67-1.06,0-1.25-.32-1.66-.5-1.87.3-8.74.09-6.63.81l.48.05c-.09,0-.2.02-.31.03h.02-.02c-6.13.68-12.74-.38-18.82-.09v-.23c-3.62.26-8.07.15-10.67.64-1.07,0-2.54-.42-2.08-.69-2.78.17-3.09.43-7.1.05,2.79-.4-.96-.35,2.86-.29-3.61-.2-4.42-.56-8.3.06,1.32-.58-2.72-.73-4.43-.56l2.53.42c-1.93.08-3.61.03-5.33-.02l.93-.77c-7.38-.93-13.31,1.58-18.93.03-1.95.54,4.01.38,2.26,1-3.4-.1-6.93-1.2-8-1.2-4.65-.42-4.34,1.12-9.21.83.62.27,1.21,1-2.43,1.26-3.4-.1-4.18-1.15-2.03-1.36.81-.02,1.21.06,1.17.16,1.1-.1,2.54-.22,1.19-.51l-.44.27c-1.69-.28-6.36-.25-5.26-.7-2.57.26-1.1.45.8.59-4.36-.4-6.81-.01-11.29-.28.71.15,1.37.47.66.47-6.58-.34-2.9.52-7.36.64-2.53-.42.91-.99-3.58-.65-2.74-.28-.58-.72.51-.95-4.09.53-7.64-.35-9.98-.44l2.15-.22c-1.29.13-2.34.13-3.42.13l1.23.55c-1.26-.1-2.34-.1-2.31-.32-1.3.36,1,.91-1.59,1.4-1.69-.28-5.13.3-5.72-.43,5.3.25-.59-.73,3.9-.85-.87.09-1.92.08-3.19-.01-.19-.08.18-.15.52-.19-5.07-.65-2.33.82-7.59.8.67-.41-1.22-.77-2.08-.69,2.12,0,1.01.68-.93.99-3.37-.32-3.66.24-5.43.2l2.02.15c-.68.41-2.37.35-4.72.48-.2-.32,2.13-.22,1.3-.36-2.61.72-5.9-.74-9.54-.26-1.69-.28-.16-.77-1.64-.96-4.08.53-4.42-.56-8.7-.12,1.24.55,1.45.41-1.57.95l7.05-.39-4.52.8c2.13,0,4.49-.35,5.76-.25-2.15.45-1.93.31-.92.77-2.91-.82-5.77.48-9.13-.08l.1-1.36c-5.06-.61-8.99.7-15.55.36l2.11.24c-.88.54-4.05.08-6.18.29.2-.45-1.13-.62-2.04-.9.11.34-4.81-.03-5.4.88l-2.93-.6c-5.3-.25-6.05,1.29-11.15,1.14,1.54-.49-.78-.82,2.63-1.17-1.7,0-3.23-.09-3.26.23-.99-.28-4.72.61-6.28.18-.72.2-.95.68-2.86.64-.21-.09,0-.22,0-.22,0,.22-2.99.31-1.32.81-5.24-1.42-14.65.1-19.22-1.11-3.71.15-8.19.3-11.56.33.22-.14.01-.23.65-.18-4.65-.42-2.86,1.3-8.15.83-2.7-.73,2.81-.4,1.12-.68-.73-1.5-6.39.2-9.95-.67l.86-.09c-2.72-.51-6.64.57-11.09.46,0,0,.22-.13.03-.23-3.04.76-8.8,1.01-13.08,1.23,1.33-.58,1.94-.31,1.13-.9-1.92.08.56.95-3.27,1.12-1.25-.32-4.01-.6-4.37-1.23l3.61-.03c-1.85-.82-4.67.03-6.58-.11l.24-.36c-5.53.12-5.61,1.02-11.56.96l.62.27c-3.25.9-2.73-.5-5.97.16l-.98-.91c-2.15.22-7.51.88-11.36,1.05,2.18-.67,6.68-1.02,9.47-1.42-2.13,0-7.23.07-8.33.52.86-.09,1.94-.31,2.78-.17-2.61.71-6.04,1.07-10.28,1.05.25-.58-.85-.82-2.54-.94-.42-.03-.88-.05-1.37-.07-.56-.01-1.15-.03-1.76-.04-1.58-.02-3.24-.05-4.84-.07-.03,1.67-.09,3.27-.2,4.72-.01.18-.03.36-.04.53-.01.18-.03.36-.05.44-.03.22-.07.42-.11.61-.08.38-.18.71-.3.98.65,7.5-.28,14.87-.17,23.6,1.37-3.1.04,2.55,1.45,2.01.09,2.03.07,2.81-.02,2.99l-.84,6.16c-.41,1.46-.31-1.93-.63-1.75-.11,4.45-.6,1.87-.97,4.82.5-.6.72,1.55.53,4.09l.65-3.57c.75,6.22-1.18,5.38-.44,11.65l-.44-1.98c.26,3.22,0,11.88,1.12,15.03-.16.57-.55,1.32-.65-.1-.17,7.69,1.2,17.12.51,23.1l-.34-.58c.05.72.21,1.34.32,2.01.05.33.09.68.1,1.06,0,.13,0,.56-.02.86-.02.34-.05.69-.09,1.08-.14-.1-.34-.92-.36.26.06.69.22,2.39.33,4.2,1.89-.1,3.8-.16,5.29-.07l-2.93.39c.82.02,1.62.04,2.4.06.67,0,1.31.02,1.94.02.84,0,1.64-.01,2.4-.05,1.53-.07,2.93-.21,4.3-.37,2.73-.32,5.3-.73,8.45-.85-.02,1.01,5.89,1.34,8.83,1.51l-.1.14c8.74.13,14.84-.84,22.93-1.24,5.02,1.1,17.01.46,25.09,1.08-1.23-.18.2-.79,1.64-.89,1.89.21,5.24-.7,4.94.23l-.68-.02c1.43.91,5.32.67,8.36.69l.5-1.22c7.95,1.77,20.83-.65,25.17.93,1.92-.3,4.3-.3,6.2-.6l-.1.65c5.32.17,7.97.25,14.54.09l-1.34.47c3.71.04,4.68-1.88,8.1-1.92l1.03.97c6.47-.02,13.01.84,19.4-.04-.1.14-.29.42-1.34.46,3.04.03,11.77.66,10.67-.68.08.87,6.67.08,10.16-.3l-.54.64c2.95-.82,3.04-1.04,7.16-1.27.98.08.85.51-.44.35,3.25.34,2.53-.61,6.47-.27l-1.47.41c3.34.05,3.08-.17,4.92-.65,2.1-.26,6.34.16,6.84.74.45-.35,2.28-.83,4.25-.66.27.22-.45.36-.81.42,5.59.44,8.32-.75,12.16-.12.08.21.33.32.65.38-4.44-.02-8.02-.05-7.69-.1,0,.59,3.59.7.73,1.51,2.88-.45,7.81-1.41,11.3-1.14.17.06.33.11.46.2l-.36.07c.81.06,1.53,0,2.21-.1,1.12.1,1.83.17,2.9.18.41.49,4.12.26,5.9.29-.15-.65,2.19-.54,0-1.08.28.05-.34.08-1.53.1-.27.02-.59.03-.76.07.03-.02.08-.04.12-.06-1.17.01-2.71.03-4.45.04,1.41-.33,2.89-.61,4.87-.25.92-.42,1.93-.84,2.5-1.04,2.45.9,7.17,1.39,7.83,1.95,5.46-.36,12.87-.24,16.31-1.45,1.55-.16,1.79.35,2.37.54-.9.12-1.96.1-2.45.28,3.11-.31,9.2-.12,9.94-.97,3.92.38-2.2.78,3.18.64l-.73.26c10.58,1.36,17.2-2.17,28.94-.43-.81-.11-1.22-.16-1.39-.3,13.38.77,27.56-.72,40.76.5,3.75.25,4.16-.3,6.45-.71l.81.7,3.92-.8c5.55-.59,9.61,1.71,16.64.6l-.91-.47c2.52.09,8-.28,7.57.26.26-.09.83-.49,1.81-.24l.08.36,6.2-.62c4.81.26-.75,1.44,6.26,1.51,2.61-.14,7.42-1.06,6.45-1.3-1.05-.02-2.69-.23-2.77-.59l2.39-.19c.43-1.07,2.27-2.17-3.59-2.92l-4.08.66-1.31-.52,3.43-.03c-1.95-.49-3.18-.06-4.56.24-.33-.28-.9-.47-1.71-.57l-4,1.02c-.48-.42,1.8-.83-.89-1.06-1.88.48,1.8.94-1.31,1.25-1.95-.49-1.38-.88-3.67-.47-.32-.28.16-.45,1.07-.57-2.04.33-5.4.14-6.45.71-2.03-.6-6.88.16-6.68-.86-.64.24-3.59.8-5.46.84,3.42-1.21-7.01-.07-6.11-1.37-2.53,1.09-9.15.48-13.63,1.09.25-.09.74-.26,1.14-.21-2.52-.09-3.26-.42-4.88-.63-.32.9-4.26,1.11-6.37,1.66-3.09-.87,1.88-1.06.91-1.89.16.73-5.38.73-4.32,1.34-2.37-.54-2.04-.26-3.26-1.01-.42,1.13-2.2.19-4.17.88-3.42-.56-.88-1.06-4.64-.71-1.79-.35,1.56-.75,1.56-.75Zm-89.47,1.95h0c.77-.03,1.43-.04,1.85-.05-.38.01-.92.02-1.85.05Zm-7.52.01c.92.03,2.06.03,3.26.03.26.22-.02.45-.78.44.41-.15-1.36-.28-2.48-.47Zm15.9,4.48c-1.19.09-1.59-.04-1.75-.17.56-.01,1.22-.03,2.08-.08.03-.02.11-.05.14-.08-.11.12-.24.24-.47.32Z"/><path class="cls-1" d="m240.18,103.21c.17-.01.27-.04.49-.05-.24-.06-.47-.11-.71-.15-.14.07-.29.14-.42.2.22,0,.44,0,.64-.01Z"/><path class="cls-1" d="m350.95,2.46h-.16c.13.01.25.04.33.08-.11-.03-.11-.05-.17-.08Z"/><polygon class="cls-1" points="118.32 98.34 118.33 98.5 118.99 98.36 118.32 98.34"/><path class="cls-1" d="m392.36,4.68c.08.06.23.12.54.17-.02-.04-.26-.1-.54-.17Z"/><path class="cls-1" d="m401.2,11.07l-.23,2.53c.13-1.09.19-1.89.23-2.53Z"/><path class="cls-1" d="m400.88,24.82c.11.17.2.22.28.27,0-.01,0-.02,0-.03l-.28-.24Z"/><path class="cls-1" d="m205.33,5.91c-.18,0-.37.01-.53.03-1.24.13-.4.08.53-.03Z"/><path class="cls-1" d="m270.4,4.39c-.69.12-1.37.23-2.09.31,1.16.05,2.06.06,2.09-.31Z"/><path class="cls-1" d="m132.66,6.68s0,0,0-.01h-.45.44Z"/><path class="cls-1" d="m265.29,4.69c1.16.13,2.13.1,3.03.01-.95-.04-2.07-.11-3.03-.01Z"/><path class="cls-1" d="m400.59,84.43l-.03.66s.08.03.1.08l-.08-.74Z"/><path class="cls-1" d="m400.66,85.17l.08.74c0-.34,0-.63-.08-.74Z"/><path class="cls-1" d="m400.9,87.46l-.16-1.55c0,.54-.02,1.2.16,1.55Z"/><path class="cls-1" d="m400.88,66.22l-.23-.21c.05.11.12.19.23.21Z"/><path class="cls-1" d="m400.82,60.69c-.05,1.32-.5,3.31-.35,5.15l.19.17c-.35-.87.56-4.07.17-5.32Z"/><path class="cls-1" d="m403.72,37.6l-.19,4.64c.25-.81.59-1.88.65.23.75-5.84-.56,1.21-.46-4.87Z"/><path class="cls-1" d="m404.08,23.22c.12,2.49.36-.03.5.1-.23-1.58-.29-1.96-.5-.1Z"/><path class="cls-1" d="m318.52,1.94l.25-.59c-1.92.08-.02.23-.25.59Z"/><polygon class="cls-1" points="298.66 4.99 300.53 5.35 301.42 4.81 298.66 4.99"/><polygon class="cls-1" points="286.93 .79 287.76 .71 284.56 .92 286.93 .79"/><path class="cls-1" d="m112.45,1l.58.73c1.3-.13,1.57-.94-.58-.73Z"/><path class="cls-1" d="m37.13,1.74c-.82-.36-2.94-.6-4.24-.24,1.69.05,3.38.33,4.24.24Z"/><polygon class="cls-1" points="98.34 104.15 96.83 104.4 99.68 104.19 98.34 104.15"/></g></svg>