<?xml version="1.0" encoding="UTF-8"?><svg id="Camada_2" xmlns="http://www.w3.org/2000/svg" viewBox="0 0 721.79 435.25"><defs><style>.cls-1{fill:#3b99b9;stroke-width:0px;}</style></defs><g id="Camada_1-2"><path class="cls-1" d="m717.1,430.7c.26,1.2.84.52.73-2.79l-.99-2.35.27,5.14Z"/><path class="cls-1" d="m718.94,408.44c-.48-3.89-1.33-8.38-2.24-5.86.95,3.85.56,4.79,1.69,8.93.12,3.31-.32,5.78-.68,5.22.25,1.17-.22,5.14.41,6.92.77-4.31.8-9.77.17-15.46.22-1.22.48-.04.66.24Z"/><path class="cls-1" d="m720.48,84.97l-.12,2.08c.07-.57.1-1.28.12-2.08Z"/><path class="cls-1" d="m599.19,2.52c1.53-.02,2.16-.12,2.24-.21-1.42.07-2.58.13-2.24.21Z"/><path class="cls-1" d="m564.97,1.43c.73.02,1.35.05,2.02.07-.77-.09-1.54-.14-2.02-.07Z"/><path class="cls-1" d="m720.48,84.97l.31-5.35c-.32-.37-.24,2.74-.31,5.35Z"/><path class="cls-1" d="m716.54,363.84c.05,1.12.14,2.05.26,2.91-.04-.92-.07-1.81-.1-2.73-.05-.05-.1-.09-.16-.18Z"/><path class="cls-1" d="m721.29,173.32v1.63c.11.48.25.93.41,1.35l-.41-2.98Z"/><path class="cls-1" d="m721.44,241.12c.04-1.53-.81-2.07-1.17-2.65.35.87.51,2,.58,3.34.16.02.35-.18.6-.69Z"/><path class="cls-1" d="m719.96,348.64l.12,1.91c-.03-.5-.08-1.33-.12-1.91Z"/><path class="cls-1" d="m721.47,124.79c.12-.11.23-.36.3-.62-.11,0-.21.24-.3.62Z"/><path class="cls-1" d="m640.5,426.74c-.05.06.02.1,0,.15.39-.08.52-.14,0-.15Z"/><path class="cls-1" d="m719.09,430.92l-1.09.05c-.12.16-.24.32-.24.47l1.32-.52Z"/><path class="cls-1" d="m502.34.35c.12,0,.16,0,.28.02,1.65-.1.71-.08-.28-.02Z"/><path class="cls-1" d="m1.36,81.87c.75-6.51.97,10.6,1.8.79-.33.91-1.31-8.91-1.8-.79Z"/><path class="cls-1" d="m716.65,362.08c0-.92,0-1.85,0-2.78-.03,1.27-.02,2.12,0,2.78Z"/><path class="cls-1" d="m3.17,82.66h0l.08-1.01c-.04.42-.06.66-.09,1.01Z"/><path class="cls-1" d="m358.05.86c.29.15.87.26,1.47.37-.05-.09-.38-.19-1.47-.37Z"/><path class="cls-1" d="m465.55,2.06l-2.66-.11c1.05.08,1.91.1,2.66.11Z"/><path class="cls-1" d="m302.24,2.05c-1.45-.06-1.94-.18-3.91-.07.18.04.36.07.6.1.71-.12,1.66-.17,3.31-.04Z"/><path class="cls-1" d="m244.15,2.05c.31.06.71.11,1.07.17.58-.01,1.25-.03,1.84-.05l-2.91-.12Z"/><path class="cls-1" d="m463.95,427.15c1.27.24,2.06.5,2.68.76-.9-.6,7.64-.81-2.68-.76Z"/><path class="cls-1" d="m717.02,363.81c-.21-.34-.32-.84-.36-1.73.02.67.03,1.31.05,1.93.13.17.24.21.32-.21Z"/><path class="cls-1" d="m299.88,8.7l-9.23-.12c2.58.08,5.93.12,9.23.12Z"/><path class="cls-1" d="m47.19,427.27l2.12-.1c-.82-.02-1.57,0-2.12.1Z"/><path class="cls-1" d="m263.26,8.7c-1.65-.3-3.39-.47-5.2-.58-.38.07-.82.12-1.07.22l6.27.37Z"/><path class="cls-1" d="m466.65,427.92s-.02,0-.02,0c0,0,0,0,.02,0Z"/><path class="cls-1" d="m527.45,425.91c-8.79-.02-4.13,1.08-6,1.72-10.5.31-4.86-.82-8.43-1.38-6.56.29-11.58,1.31-16.47,1.27-.36-.18-1.31-.25-.2-.48-6.93.88-20.57.04-28.64,1.15-.6-.1-.9-.19-1.05-.27,1.31.56,1.51,1.12,1.24,1.52-3.94.02-7.32.7-8.8-.02,2.42.02,2.62-.27,3.75-.5l-4.13.32c-3.72-1.04,5.64-.36,5.64-1.13-8.06.34-17.44,1.2-23.62.91-1.29-1.02,14.43-.34,6.2-1.25l9.55.39c-7.3-1.61,5.8.11-.9-1.61-12.57-.3-14.06.52-26.6.22-2.82.57.93.84-1.89,1.4-17.82,1.02-14.03-2.56-27.13-1.2-3.39.68-4.71,1.97-14.04,1.29l3.18-1.15c-12.17-.11-6.95,1.66-19.69.88,2.27-.45,9.56-.38,7.72-.52-8.26-.91-5.84.65-12.19.65l-1.31-1.02c-12.96.16-27.23.9-41.58,1.08.79-.3,3.25-.62-.1-.93-18.1.51-38.63-.12-56.09-.73l-6.67.88c-1.55-.01-2.88-.4-1.2-.57-6.8-.33-.35.56-3.62.9-3.87.06-5.11-.51-2.66-.77-12.01.75-34.2,1.61-46.85.67l2.47-.26c-9.85-.36-11.11,1.8-20.25.98l1.75-.16c-21.38-.38-45,.42-61.31-.9-3.1,1.27-21.16-.57-22.53,1.2-12.21-.88-8.71-1.19-25.9-1.78-4.59-.08-6.84,1.1-12.52,1.29l-.14-.92-7.71.97-4.1-1.11-5.32.24c2.12.05,4.51.42,4.19.68-8.32.42-20.27-.64-20.48-1.12l-19.67.78c.44-.37,3.73-.5,6.34-.74-5.25.47-5.73.23-6.1-.03-.18-.13-.34-.26-1.05-.3-.36-.02-.85-.02-1.56.01-.35.02-.76.05-1.23.07-.13.03-.17.08-.3.13.08.1.04.24-.09.38-.13.13-.35.27-.44.36-.16-.07-.33-.14-.57-.19.09-.46.16-.88.21-1.29v-.09s.02-.32.02-.32c0-.22,0-.44.01-.66,0-.44.02-.89.02-1.35,0-.92.02-1.86.02-2.81.01-3.83-.04-7.88-.15-11.4l.64,1.55c.16-14.59-.31-30.76-.29-47.14-.3,5.88-1.4,4.53-1.51-.28l.98-1.92c-.6-3.1-.37,5.02-1.11-1.35.11-6.12,1.11-4.11,1.43-.6l-.34-7.44c.29-.44.45,1.31.82,1.76-.61-3.05.98-12.84-.07-17.24l.29-.42c0-16.37-.33-23.8-.38-37.14-.84-.26-.66-5.48-1.34-9.45.27-9.8.93-20.68.86-32.49-.42-8.3-.71-2.42-1.22-6.16.77-.61.7-12.41,1.25-6.29-.12-14.17-.15-18.1-.78-36.03-.32,1.95-.45,4.13-.71,3-.13-3.25.32-7.4.69-6.93l.08.86c-1.15-20.12,2.24-46.44.64-62.46l.08.9-.83-16.62c.13-7.64.58,4.58,1.05-1.07-1.28-17.92.19-28.32-.67-43.08,2.27-11.42-.16-40.54,1.29-55.96l-.53.89c-.52-3.98.31-4.82.43-7.76-.41.42-.48,4.32-.77,1.85-.04-2.93-.08-5.87-.12-8.83-.01-1.83-.03-3.68-.04-5.54,2.41.01,4.83.03,7.26.04,3.58.04,7.17.08,10.77.12,7.2.13,14.45.26,21.7.4,14.5.31,29.03.67,43.34.87,12.66.14,7.19-2.76,23.15-1.49l-4.53.99c25.55-1.19,52.24.04,77.25-.97-1.49.23-1.53.53-3.97.52,5.28.72,19.54.04,19.62-.55,3.9.07.9.53,3.3.83,5.3.42,13.3-.92,16.12-.2.48.12-1.49.23-2.46.29,3.45-.35,16.09.09,12.78-.74,9.39.4,17.96-.37,25.44.12,4.88-.93,16.07.45,17.62-.87-.67,1.36,16.46,1.09,22.39.46-1.99.41,5.16.42,2.83.99,6.77-.02,12.98-.27,11.8-.97,12.48,1.62,25.08-1.31,32.11.77,20.12-.73,38.74-1.22,56.84-1.54-.65,1.35-20.01.14-19.23,1.56,17.17-.56,27.08-1.72,44.1-1.39,4.41.18-2.5.59-3.99.82,17.15-.56,33.17.12,48.43-.61-.04.13-1.69.26-3.25.37,3.01-.04,7,.2,6.66-.42l-2.93.17c-4.8-.89,11.95-1.86,12.48-2.34-5.11,1.76,15.08.44,6.97,2.67,1.98-.12,4.46-.41,4.01-.82,2.94.12,3.87.36.89.83,10.77-.33,6.95-.99,16.71-.97-.03.3-2,.41-3.01.76,4.94-.58,9.91-1.16,18.16-.91-.5.18.46.41-2,.41,14.17-.09,24.15-1.55,39.69-.99-4.58,1.29,5.29.43,6.11,1.55l8.36-.33-3.35-.54c7.32.02,13.79-.8,20.09-.43l-5.44.46,13.72-.21-7.77-.42c7.41-.58-.79-1.42,8.95-1.11-1.98.11,7.32.01,11.14.67h-.02c3.62-.35,7.35-.73,12.76-.45,1.41.36-1.13,1.24-.22,1.48,3.57-.94,17.15-.26,21.67-1.26-1.51.23-1.59.82-1.09.94l3-.76c3.39.24,3.89.36,3.34.83,10.2.14-3.24-1.42,8.87-.81-.95.06-.5.17-2.48.29,12.16.32,23.5-.48,34.67-.11,3.3,1.13-9.76.28-5.99,1.23,4.48-.06,9.05-.19,13.64-.34,2.3-.08,4.6-.16,6.9-.24l1.73-.06,1.16-.06,2.17-.11.08,1.67.04.87.04,1.11c.04,1.82.07,3.63.11,5.43.05,3.6.06,7.14,0,10.6l.12-2.91c1.59,2.16-.79,11.61-.04,19.5-.12-1.93-.88-2.53-.71-2.01-.26,10.68.39,21.83.89,38.01l-.41-2c-.36,6.29-.21,16.57-.4,23.37.41,2.02.34,5.9.94,3.54-2.33,20.96,1.25,39.98-.69,58.57,0-2.22-.36-5.3-.36-3.53l.38,15.84c.69-1.25.42-2.08.96-5.4.41,2,.73,6.48.73,10.4-.46-7.12-1.11.06-1.5,3.14.21-.52.45.54.66.28-1.23,8.27,1.4,1.39.56,12.68l-.36-.6c.19,4.23.67,8.12.56,12.68-.8,1.89-.37-4.5-1.03-4.79.05,6.4,1.52,12.64.72,18.43-.22-2.72-.23-6.63-.45-9.35-.94,6.31-.7,7.04-.85,11.73l.02-.46-.43,10.84.25-2.76c2.09,8.01.38,16.32,1.75,27.11-1.3-10.49-.75-1.73-1.66-2.54-.25,2.76-.53,6.95-.79,5.75.73,5.1-.58,8.52.49,15.72-.29.32-.03,5.46-.76,4.31.23,6.63.51-1.57.88-1.01,1,10.22-1.21,24.03.16,38.74.56,12.68,1.55,15.03,2.04,26.8-.47,3.97-1.07-3.25-1.07-3.25-.43,6.41-.35,11.23-.02,17.27-.25-1.22-.47.04-.8,1.88.08,4.85,1.06,3.24.63,9.63-.33-1.1-.85-2.5-1.18-4.84.27,5.71.82,11.35,1.08,17.26-.51,1.57-.77-3.57-1.11-5.65.23,6.64.46,17.22,1.27,19.27l.29-4.26c.04,2.42-.69,1.25-.84-.54-.63-5.69.28-8.21.57-8.53l.19,4.21c1.72-4.32-.28-16.91-.18-25.39l1.25,3.53-1.04-8.69c.32-1.85,1.02-3.11,1.21,1.07.62-6.08-.44-5.38.24-10.6.11-.58.17-.32.22.22l-.37-5.94c.26,1.16.88-.99.7,2.66.72-10.66-.94-17.18,0-21.2l.08.89c-.42-14.78-.92-1.43-1.99-12.52l2.26-7.46-.92-1.45c.03-1.53.1-4.54.47-3.98-.63-5.68-.4.97-.99-2.33.83-7.34-.39-20.24,1.07-21.9-.7-2.63-.54,7.02-1.02-.82,1.57-2.24-.27-9.06.45-15.77.81,2.06.38,8.41,1.1,1.7-1.37-4.05.3-13.06.04-18.72-1.09-.27-.45-12.3-.82-21.79.37.6.6-17.86.99-26.69l.18.26c-1.1-1.71-.89-10.82-1.12-17.45.66.26.92,1.45,1.22,5.05v-6.23c-.36-1.47-.54-3.42-.67-7.46l.82,1.57c-.05-8.3-.97-16.71-.42-27.39-.77-.6-2.14,8.49-2.65-2.8.42-.42,1.13-.84,1.3,2.12-.05-.97-.35-3.45-.17-5.4l.7,4.51c.31-4.86-.58-2.54-.52-6.43.59.08.42-2.88.89-2.32.06.99-.25,3.39-.01,4.88.11-4.38.46-9.68.91-11.43-.34.38-.8,0-.87-3.21-.04-8.3.71-2.84,1.02-7.68-.41-2.01.02-7.3-.87-7.44,0-2.43.42-2.88.66-3.82-.39-4.29-.11-20.06-1.05-15.22l-.06,1.1c-.01-.21-.02-.45-.04-.7v.03-.03c-.88-14.08.5-29.24.12-43.21l.3.02c-.34-8.34-.2-18.56-.84-24.51,0-2.47.54-5.82.89-4.77-.11-2.41-.18-4.01-.25-5.57-.01-.45-.03-.91-.04-1.37,0-.5-.02-1.02-.02-1.56,0-1.08,0-2.27.02-3.73-.89-.02-1.88-.05-3.01-.08-1.11-.04-2.34-.09-3.73-.14.94-.07,1.61-.12,2.1-.16.54-.05.88-.08,1.08-.12.4-.07.22-.11.06-.13-.32-.05-.54-.02,4.12.01,0,.3,0,.93-.01,1.64.02-.66.03-1.3.04-1.67-4.53-.14-7.45-.23-10.54-.32-2.5-.03-5.14.06-9.34.45,3.03-.76-6.23-.96-10.17-.73l5.8.54c-4.43.11-8.3.04-12.23-.02l2.13-1c-16.95-1.21-30.56,2.07-43.46.03-4.48.7,9.2.49,5.2,1.31-7.8-.13-15.92-1.57-18.36-1.57-10.68-.55-9.96,1.46-21.14,1.08,1.43.36,2.78,1.31-5.57,1.64-7.8-.13-9.59-1.49-4.66-1.78,1.87-.03,2.77.08,2.69.2,2.52-.13,5.83-.28,2.74-.67l-1.01.36c-3.87-.36-14.6-.33-12.08-.91-5.9.34-2.52.58,1.85.77-10.01-.52-15.63-.02-25.93-.36,1.64.2,3.15.61,1.52.61-15.11-.44-6.65.68-16.89.83-5.82-.54,2.08-1.3-8.22-.84-6.29-.37-1.33-.94,1.17-1.23-9.39.69-17.54-.45-22.9-.58l4.94-.29c-2.96.17-5.38.17-7.84.16l2.82.71c-2.9-.12-5.36-.13-5.31-.42-2.99.47,2.29,1.18-3.65,1.82-3.87-.36-11.79.39-13.12-.56,12.17.32-1.34-.95,8.96-1.1-1.99.11-4.41.11-7.32-.02-.44-.11.41-.2,1.21-.25-11.65-.84-5.35,1.07-17.43,1.05,1.53-.53-2.8-1.01-4.77-.9,4.87.01,2.33.89-2.14,1.3-7.74-.41-8.41.31-12.47.26l4.63.2c-1.57.53-5.44.46-10.83.63-.46-.41,4.9-.29,2.98-.47-5.99.94-13.54-.97-21.89-.34-3.87-.36-.37-1-3.77-1.24-9.36.69-10.14-.73-19.98-.16,2.84.72,3.33.54-3.6,1.24l16.18-.5-10.38,1.04c4.88.01,10.3-.45,13.23-.33-4.95.58-4.44.41-2.1,1-6.68-1.07-13.25.63-20.97-.1l.24-1.77c-11.61-.79-20.63.91-35.71.46l4.85.31c-2.02.7-9.31.1-14.19.38.45-.59-2.6-.81-4.68-1.18.25.44-11.04-.04-12.41,1.14l-6.73-.78c-12.17-.32-13.89,1.69-25.6,1.49,3.53-.64-1.79-1.06,6.05-1.52-3.91,0-7.42-.11-7.48.3-2.28-.37-10.83.8-14.43.24-1.65.26-2.19.88-6.57.83-.48-.12.02-.29.02-.29-.02.29-6.87.4-3.03,1.05-12.04-1.85-33.64.13-44.12-1.45-8.53.2-18.8.39-26.54.43.5-.18.02-.3,1.49-.23-10.68-.55-6.56,1.7-18.72,1.09-6.21-.96,6.45-.52,2.58-.88-1.68-1.95-14.67.27-22.84-.87l1.98-.11c-6.25-.66-15.25.74-25.46.6,0,0,.5-.17.06-.29-6.98.99-20.21,1.32-30.03,1.6,3.06-.76,4.46-.4,2.6-1.18-4.4.11,1.29,1.24-7.5,1.46-2.86-.42-9.2-.78-10.04-1.61l8.29-.04c-4.25-1.07-10.73.04-15.1-.15l.56-.47c-12.71.15-12.88,1.33-26.54,1.25l1.41.35c-7.46,1.17-6.26-.66-13.7.21l-2.25-1.18c-4.92.29-17.25,1.14-26.08,1.37,5-.88,15.34-1.33,21.73-1.85-4.88,0-16.59.09-19.13.67,1.97-.11,4.45-.4,6.39-.22-5.99.93-13.87,1.39-23.6,1.37.56-.75-1.95-1.07-5.84-1.23-1.94-.08-4.23-.11-6.65-.14-3.2-.03-6.57-.06-9.82-.09-.03,1.94-.06,3.85-.09,5.68-.01.46-.02.92-.03,1.37-.01.32-.03.64-.04.95-.03.58-.06,1.15-.09,1.69-.14,2.17-.34,3.99-.65,5.21.85,17.21-.36,34.14-.23,54.19,1.79-7.11.05,5.85,1.88,4.62.12,4.67.09,6.45-.03,6.87l-1.1,14.15c-.53,3.35-.4-4.44-.82-4.01-.14,10.22-.78,4.29-1.27,11.06.66-1.39.94,3.56.69,9.38l.85-8.21c.98,14.29-1.54,12.35-.57,26.75l-.58-4.56c.34,7.39-.01,27.26,1.46,34.51-.21,1.31-.71,3.03-.85-.22-.22,17.66,1.57,39.32.66,53.04l-.45-1.34c.13,3.29.84,5.74.39,9.86-.19-.21-.45-1.33-.47.2.15,1.74.79,8.75.52,13.12l-.5-3.73c-.59,17.23,1.23,26.44,1.54,40.89-1.32-.04-1.75,13.52-1.96,20.28l-.19-.24c-.16,20.06,1.09,34.08,1.61,52.65-1.43,11.53-.6,39.06-1.4,57.6.24-2.83,1.03.46,1.16,3.76-.27,4.35.92,12.02-.29,11.33l.02-1.55c-.44,1.2-.67,3.16-.79,5.51-.02.59-.05,1.2-.07,1.83,0,.31-.02.63-.02.96,0,.55-.01,1.1-.02,1.65,0,2.44,0,4.98-.01,7.52,3.41,0,6.83,0,10.01-.01l1.15-1.58c18.26,2.3,47.83-.85,57.79,1.22,4.4-.4,9.86-.39,14.23-.79l-.24.85c12.21.22,18.3.32,33.39.12l-3.08.61c8.51.06,10.75-2.45,18.6-2.5l2.36,1.27c14.85-.02,29.87,1.09,44.54-.06-.24.19-.68.55-3.08.6,6.99.03,27.03.86,24.49-.88.17,1.13,15.32.11,23.34-.39l-1.25.84c6.77-1.07,6.98-1.36,16.43-1.66,2.24.11,1.96.67-1.01.46,7.46.44,5.82-.79,14.86-.35l-3.37.53c7.68.06,7.07-.22,11.3-.84,4.83-.34,14.57.21,15.7.97,1.03-.46,5.24-1.08,9.77-.86.61.29-1.04.46-1.87.55,12.84.57,19.09-.97,27.92-.15.18.28.76.42,1.49.5-10.2-.02-18.41-.07-17.65-.13,0,.77,8.24.91,1.68,1.97,6.61-.58,17.92-1.84,25.95-1.48.39.07.77.15,1.06.27l-.83.09c1.85.08,3.51,0,5.08-.12,2.56.13,4.19.22,6.65.23.95.64,9.45.34,13.56.38-.34-.84,5.04-.71,0-1.4.65.06-.78.1-3.51.14-.62.02-1.34.04-1.75.09.08-.02.18-.05.28-.07-2.7.01-6.21.03-10.21.06,3.25-.43,6.64-.79,11.18-.32,2.11-.54,4.43-1.1,5.74-1.36,5.62,1.18,16.46,1.81,17.97,2.54,12.54-.47,29.55-.31,37.44-1.9,3.57-.2,4.1.45,5.43.7-2.06.16-4.51.13-5.62.36,7.13-.41,21.13-.16,22.83-1.26,8.99.5-5.05,1.02,7.3.84l-1.67.34c24.3,1.77,39.5-2.83,66.44-.55-1.87-.14-2.8-.2-3.18-.39,30.71,1,63.29-.94,93.59.65,8.61.32,9.55-.39,14.8-.92l1.87.91,8.99-1.05c12.75-.77,22.07,2.22,38.21.78l-2.08-.61c5.8.12,18.36-.36,17.39.34.59-.11,1.9-.63,4.17-.32l.18.47,14.24-.81c11.04.34-1.73,1.88,14.38,1.97,5.99-.18,17.05-1.38,14.8-1.7-2.42-.02-6.17-.3-6.35-.77l5.48-.25c.99-1.4,5.2-2.83-8.24-3.8l-9.37.85-3.02-.68,7.88-.04c-4.47-.64-7.31-.07-10.48.31-.75-.36-2.07-.61-3.92-.75l-9.19,1.33c-1.11-.55,4.12-1.08-2.05-1.39-4.31.62,4.13,1.23-3,1.63-4.48-.64-3.17-1.15-8.43-.61-.74-.36.37-.59,2.46-.75-4.68.43-12.39.18-14.8.92-4.67-.78-15.8.2-15.34-1.12-1.47.32-8.24,1.04-12.54,1.09,7.85-1.58-16.09-.09-14.02-1.79-5.81,1.42-21,.63-31.3,1.42.58-.11,1.71-.34,2.62-.27-5.8-.12-7.48-.55-11.2-.82-.74,1.18-9.77,1.44-14.64,2.17-7.1-1.13,4.31-1.38,2.08-2.47.36.95-12.34.95-9.93,1.74-5.43-.7-4.68-.34-7.48-1.31-.95,1.47-5.06.25-9.56,1.15-7.86-.72-2.02-1.38-10.66-.93-4.11-.45,3.57-.97,3.57-.97Zm-205.41,2.54v-.02c1.77-.02,3.28-.04,4.24-.05-.88.01-2.11.03-4.24.06Zm-17.26.01c2.1.03,4.72.04,7.49.03.6.29-.05.59-1.79.58.94-.19-3.13-.36-5.7-.61Zm36.51,5.84c-2.73.12-3.65-.05-4.02-.22,1.29-.03,2.8-.06,4.78-.1.08-.03.24-.07.32-.1-.26.16-.56.31-1.08.42Z"/><path class="cls-1" d="m346.2,433.2c.39-.02.61-.05,1.13-.06-.56-.07-1.09-.14-1.63-.19-.33.09-.67.18-.97.26.5,0,1.01,0,1.47-.01Z"/><path class="cls-1" d="m720.35,87.42l.02-.36c-.03.3-.07.58-.12.76.04-.24.07-.24.1-.4Z"/><polygon class="cls-1" points="66.41 426.85 66.44 427.07 67.95 426.88 66.41 426.85"/><path class="cls-1" d="m717.45,182.49c-.07.18-.15.54-.22,1.25.06-.05.13-.59.22-1.25Z"/><path class="cls-1" d="m717.26,223.56l-.3,5.81c.17-2.51.25-4.34.3-5.81Z"/><path class="cls-1" d="m716.85,255.14c.15.4.26.51.36.62,0-.02,0-.04,0-.06l-.37-.56Z"/><path class="cls-1" d="m467.72,7.7c-.42,0-.84.02-1.22.04-2.86.16-.92.1,1.22-.04Z"/><path class="cls-1" d="m617.13,5.73c-1.59.15-3.15.3-4.8.4,2.66.06,4.73.08,4.8-.4Z"/><path class="cls-1" d="m300.89,8.71s0,0,.02-.01h-1.03,1.01Z"/><path class="cls-1" d="m605.38,6.11c2.66.17,4.88.13,6.95.01-2.18-.06-4.75-.14-6.95-.01Z"/><path class="cls-1" d="m716.46,391.99l-.04,1.52c.06-.02.1.06.14.18l-.1-1.7Z"/><path class="cls-1" d="m716.56,393.69l.1,1.69c0-.78,0-1.45-.1-1.69Z"/><path class="cls-1" d="m716.88,398.94l-.21-3.56c0,1.23-.03,2.75.21,3.56Z"/><path class="cls-1" d="m716.85,350.19l-.31-.48c.06.26.16.43.31.48Z"/><path class="cls-1" d="m716.76,337.49c-.07,3.03-.65,7.6-.46,11.83l.24.39c-.46-1.99.73-9.35.22-12.22Z"/><path class="cls-1" d="m720.54,284.47l-.24,10.64c.33-1.86.76-4.31.84.53.97-13.42-.73,2.77-.6-11.18Z"/><path class="cls-1" d="m721.02,251.46c.15,5.72.47-.07.66.24-.3-3.63-.37-4.51-.66-.24Z"/><path class="cls-1" d="m721.02,12.95l.77.58c-.11-4.41-.3-.04-.77-.58Z"/><polygon class="cls-1" points="681.99 6.5 686.28 6.98 688.32 6.27 681.99 6.5"/><polygon class="cls-1" points="655.06 1.03 656.98 .92 649.63 1.2 655.06 1.03"/><path class="cls-1" d="m254.48,1.31l1.33.95c2.98-.17,3.6-1.23-1.33-.95Z"/><path class="cls-1" d="m81.55,2.27c-1.88-.47-6.75-.78-9.75-.31,3.89.07,7.77.43,9.75.31Z"/><polygon class="cls-1" points="20.55 434.43 17.07 434.75 23.63 434.48 20.55 434.43"/></g></svg>