<?xml version="1.0" encoding="UTF-8"?><svg id="Camada_2" xmlns="http://www.w3.org/2000/svg" viewBox="0 0 406.41 175.33"><defs><style>.cls-1{fill:#d9a43c;stroke-width:0px;}</style></defs><g id="Camada_1-2"><path class="cls-1" d="m401.74,170.78c.26.59.84.26.73-1.38l-.99-1.16.27,2.55Z"/><path class="cls-1" d="m403.58,159.75c-.48-1.93-1.33-4.15-2.24-2.9.95,1.91.56,2.37,1.69,4.43.12,1.64-.32,2.86-.68,2.59.25.58-.22,2.55.41,3.43.77-2.13.8-4.84.17-7.66.22-.61.48-.02.66.12Z"/><path class="cls-1" d="m398.72,3.07l1.26.12c-.32-.07-.84-.1-1.26-.12Z"/><path class="cls-1" d="m299.39,2.52c.76-.02,1.07-.12,1.11-.21-.7.07-1.28.13-1.11.21Z"/><path class="cls-1" d="m282.43,1.43c.36.02.67.05,1,.07-.38-.09-.76-.14-1-.07Z"/><path class="cls-1" d="m398.72,3.07l-2.65-.31c-.19.32,1.36.24,2.65.31Z"/><path class="cls-1" d="m401.18,137.64c.05.56.14,1.02.26,1.44-.04-.46-.08-.9-.1-1.35-.05-.02-.1-.05-.16-.09Z"/><path class="cls-1" d="m405.93,43.23v.81c.11.24.25.46.4.67l-.4-1.48Z"/><path class="cls-1" d="m406.08,76.83c.04-.76-.81-1.02-1.17-1.32.35.43.51.99.58,1.66.16.01.35-.09.6-.34Z"/><path class="cls-1" d="m404.6,130.11l.12.95c-.03-.25-.08-.66-.12-.95Z"/><path class="cls-1" d="m406.11,19.18c.12-.06.23-.18.3-.31-.11,0-.21.12-.3.31Z"/><path class="cls-1" d="m364.78,166.82c-.03.06.01.1,0,.15.2-.08.26-.14,0-.15Z"/><path class="cls-1" d="m403.73,171l-.54.05c-.06.16-.12.32-.12.47l.66-.52Z"/><path class="cls-1" d="m251.4.35c.06,0,.08,0,.14.02.82-.1.35-.08-.14-.02Z"/><path class="cls-1" d="m1.36,42.82c.75-3.23.97,5.25,1.8.39-.33.45-1.31-4.42-1.8-.39Z"/><path class="cls-1" d="m401.29,136.77c0-.45-.02-.91,0-1.38-.03.63-.02,1.05,0,1.38Z"/><path class="cls-1" d="m3.17,43.21h0l.08-.5c-.04.21-.06.32-.09.5Z"/><path class="cls-1" d="m179.89.86c.15.15.43.26.73.37-.02-.09-.19-.19-.73-.37Z"/><path class="cls-1" d="m233.16,2.06l-1.32-.11c.52.08.95.1,1.32.11Z"/><path class="cls-1" d="m152.23,2.05c-.72-.06-.96-.18-1.94-.07.09.04.18.07.3.1.35-.12.82-.17,1.64-.04Z"/><path class="cls-1" d="m123.44,2.05c.15.06.35.11.53.17.29-.01.62-.03.91-.05l-1.44-.12Z"/><path class="cls-1" d="m277.29,167.23c.63.24,1.02.5,1.33.76-.44-.6,3.79-.81-1.33-.76Z"/><path class="cls-1" d="m401.65,137.63c-.21-.17-.32-.41-.36-.86.02.33.03.65.05.96.13.08.24.1.32-.1Z"/><path class="cls-1" d="m151.06,8.7l-4.57-.12c1.28.08,2.94.12,4.57.12Z"/><path class="cls-1" d="m70.75,167.35l1.05-.1c-.4-.02-.78,0-1.05.1Z"/><path class="cls-1" d="m132.91,8.7c-.82-.3-1.68-.47-2.58-.58-.19.07-.41.12-.53.22l3.11.37Z"/><path class="cls-1" d="m278.63,168s0,0,0,0c0,0,0,0,0,0Z"/><path class="cls-1" d="m308.76,165.99c-4.36-.02-2.05,1.08-2.97,1.72-5.2.31-2.41-.82-4.18-1.38-3.25.29-5.74,1.31-8.16,1.27-.18-.18-.65-.25-.1-.48-3.43.88-10.19.04-14.19,1.15-.3-.1-.45-.19-.52-.27.65.56.75,1.12.61,1.52-1.95.02-3.63.7-4.36-.02,1.2.02,1.3-.27,1.86-.5l-2.05.31c-1.84-1.04,2.79-.36,2.79-1.13-3.99.34-8.65,1.2-11.7.91-.64-1.02,7.15-.34,3.07-1.25l4.73.39c-3.62-1.61,2.88.11-.45-1.61-6.23-.3-6.97.52-13.18.22-1.4.57.46.84-.94,1.4-8.83,1.02-6.95-2.56-13.44-1.2-1.68.68-2.33,1.97-6.96,1.29l1.58-1.15c-6.03-.11-3.44,1.66-9.76.88,1.12-.45,4.74-.38,3.83-.52-4.09-.91-2.89.65-6.04.65l-.65-1.02c-6.42.16-13.49.9-20.6,1.08.39-.3,1.61-.62-.05-.93-8.97.51-19.15-.12-27.8-.73l-3.31.88c-.77-.01-1.43-.4-.59-.57-3.37-.33-.17.56-1.79.9-1.92.06-2.53-.51-1.32-.77-5.95.75-16.95,1.61-23.22.67l1.22-.26c-4.88-.36-5.51,1.8-10.04.98l.87-.16c-10.59-.38-22.3.42-30.38-.9-1.54,1.27-10.49-.57-11.17,1.2-6.05-.88-4.32-1.19-12.84-1.78-2.27-.08-3.39,1.1-6.2,1.29l-.07-.92-3.82.97-2.03-1.11-2.64.24c1.05.05,2.23.42,2.07.68-4.12.42-10.05-.64-10.15-1.12l-9.75.78c.22-.37,1.85-.5,3.14-.74-5.2.94-.95-.97-5.71-.11.64.21-.35.55-.45.74-2.38-.56-7.79-.56-11.79-.33l.77-.64c-7.23-.16-15.25.31-23.36.29,2.91.3,2.24,1.4-.14,1.51l-.95-.98c-1.54.6,2.49.37-.67,1.11-3.03-.11-2.04-1.11-.3-1.43l-3.69.34c-.22-.29.65-.45.87-.82-.3.12-.73.15-1.24.14-.13,0-.26-.01-.4-.02l-.21-.02c-.07,0-.17-.01-.15-.02-.04-.03-.08-.06-.11-.1-.15-.15-.08-.34-.21-.28-.03-.01-.14.04-.36.12l.29-.21c0-.08,0-.16-.01-.23-.01-.86-.03-1.67-.04-2.44-.04-1.59-.08-3.02-.12-4.4-.09-2.76-.19-5.33-.21-8.64-.84-.13-.66-2.71-1.34-4.68.27-4.86.93-10.25.86-16.1-.42-4.11-.71-1.2-1.22-3.05.77-.3.7-6.15,1.25-3.12-.12-7.02-.15-8.97-.78-17.86-.32.96-.45,2.05-.71,1.49-.13-1.61.32-3.67.69-3.44l.08.43c-1.15-9.97,2.24-23.01.64-30.95l.08.45-.83-8.23c.13-3.79.58,2.27,1.05-.53-1.28-8.88.19-14.03-.67-21.35,2.27-5.66-.16-20.09,1.29-27.73l-.53.44c-.52-1.97.31-2.39.43-3.84-.41.21-.48,2.14-.77.92-.04-1.35-.08-2.71-.12-4.09-.03-.42-.04-.87-.04-1.31,2.38.05,4.79.11,7.21.16,3.57.1,7.16.24,10.75.4,7.19.31,14.39.67,21.48.87,6.27.14,3.56-2.76,11.47-1.49l-2.25.99c12.66-1.19,25.89.04,38.29-.97-.74.23-.76.53-1.97.52,2.62.72,9.68.04,9.73-.55,1.93.07.45.53,1.64.83,2.63.42,6.59-.92,7.99-.2.24.12-.74.23-1.22.29,1.71-.35,7.97.09,6.33-.74,4.65.4,8.9-.37,12.61.12,2.42-.93,7.96.45,8.73-.87-.33,1.36,8.16,1.09,11.1.46-.98.41,2.56.42,1.4.99,3.36-.02,6.43-.27,5.85-.97,6.18,1.62,12.43-1.31,15.91.77,9.97-.73,19.2-1.22,28.17-1.54-.32,1.35-9.92.14-9.53,1.56,8.51-.56,13.42-1.72,21.86-1.39,2.18.18-1.24.59-1.98.82,8.5-.56,16.44.12,24-.61-.02.13-.84.26-1.61.37,1.49-.04,3.47.2,3.3-.42l-1.45.17c-2.38-.89,5.92-1.86,6.19-2.34-2.53,1.76,7.47.44,3.45,2.67.98-.12,2.21-.41,1.99-.82,1.46.12,1.92.36.44.83,5.34-.33,3.44-.99,8.28-.97-.02.3-.99.41-1.49.76,2.45-.58,4.91-1.16,9-.91-.25.18.23.41-.99.41,7.02-.09,11.97-1.55,19.67-.99-2.27,1.29,2.62.43,3.03,1.55l4.14-.33-1.66-.54c3.63.02,6.83-.8,9.95-.43l-2.7.46,6.8-.21-3.85-.42c3.67-.58-.39-1.42,4.44-1.11-.98.11,3.63.01,5.52.67h-.01c1.8-.35,3.64-.73,6.32-.45.7.36-.56,1.24-.11,1.48,1.77-.94,8.5-.26,10.74-1.26-.75.23-.79.82-.54.94l1.49-.76c1.68.24,1.93.36,1.65.83,5.06.14-1.61-1.42,4.39-.81-.47.06-.25.17-1.23.29,6.03.32,11.64-.48,17.18-.11,1.63,1.13-4.84.28-2.97,1.23,7.98-.2,16.53-1.35,24.26-1.09l-1.44-.12c1.07-1.59,5.75.79,9.66.04-.96.12-1.25.88-1,.71,5.29.26,10.82-.39,18.84-.89l-.99.41c1.22.14,2.77.21,4.35.24.94.02,1.93.05,2.82.07-.02.53-.04,1.01-.08,1.45.41.35.34,1.77.94.86-.15.44-.27,1.13-.37,1.77s-.18,1.28-.25,1.91c-.13,1.27-.19,2.53-.2,3.77-.02,2.49.15,4.93.33,7.33.36,4.81.77,9.47-.2,14.07,0-1.1-.36-2.63-.36-1.75l.38,7.85c.69-.62.42-1.03.96-2.68.41.99.73,3.21.73,5.15-.46-3.53-1.11.03-1.5,1.56.21-.26.45.27.66.14-1.23,4.1,1.4.69.56,6.29l-.36-.3c.19,2.1.67,4.03.56,6.29-.8.94-.37-2.23-1.03-2.37.05,3.17,1.52,6.26.72,9.13-.22-1.35-.23-3.29-.45-4.63-.94,3.13-.7,3.49-.85,5.81l.02-.23-.43,5.37.25-1.37c2.09,3.97.38,8.09,1.75,13.44-1.3-5.2-.75-.86-1.66-1.26-.25,1.37-.53,3.44-.79,2.85.73,2.53-.58,4.22.49,7.79-.29.16-.03,2.7-.76,2.13.23,3.29.51-.78.88-.5,1,5.07-1.21,11.91.16,19.2.56,6.29,1.55,7.45,2.04,13.28-.47,1.97-1.07-1.61-1.07-1.61-.43,3.18-.35,5.56-.02,8.56-.25-.61-.47.02-.8.93.08,2.4,1.07,1.61.63,4.77-.33-.54-.85-1.24-1.18-2.4.27,2.83.82,5.63,1.08,8.56-.51.78-.77-1.77-1.11-2.8.23,3.29.46,8.53,1.27,9.55l.29-2.11c.04,1.2-.69.62-.84-.27-.63-2.82.28-4.07.57-4.23l.19,2.09c1.72-2.14-.28-8.38-.18-12.58l1.25,1.75-1.04-4.31c.32-.92,1.02-1.54,1.21.53.62-3.01-.44-2.67.24-5.25.11-.29.17-.16.22.11l-.37-2.94c.26.58.88-.49.7,1.32.72-5.28-.94-8.52,0-10.5l.08.44c-.42-7.33-.92-.71-1.99-6.2l2.26-3.7-.92-.72c.03-.76.1-2.25.47-1.97-.63-2.81-.4.48-.99-1.15.83-3.64-.39-10.03,1.07-10.85-.7-1.31-.54,3.48-1.02-.4,1.57-1.11-.27-4.49.45-7.81.81,1.02.38,4.17,1.1.84-1.37-2.01.3-6.47.04-9.28-1.09-.13-.45-6.1-.82-10.8.37.3.6-8.85.99-13.23l.18.13c-1.1-.85-.89-5.36-1.12-8.65.66.13.92.72,1.22,2.5v-3.09c-.36-.73-.54-1.69-.67-3.7l.82.78c-.05-4.11-.97-8.28-.42-13.57-.77-.3-2.14,4.21-2.65-1.39.42-.21,1.13-.41,1.3,1.05-.05-.48-.35-1.71-.17-2.68l.7,2.24c.31-2.41-.58-1.26-.52-3.19.59.04.42-1.43.89-1.15.06.49-.25,1.68-.01,2.42.11-2.17.46-4.8.91-5.67-.34.19-.8,0-.87-1.59-.04-4.11.71-1.41,1.02-3.81-.41-1,.02-3.62-.87-3.69,0-.3.03-.54.07-.74.04-.24.1-.47.17-.66.13-.38.3-.65.42-1.02-.14-1.09-.19-3.2-.25-5.27-1.95.05-3.87.1-5.02.21-1.16.11-1.49.29-.57.59l.67.06c-.13.01-.28.02-.44.04h.02-.02c-.53.05-1.07.09-1.61.14-.44.03-.88.06-1.33.09-.89.05-1.78.07-2.68.07-1.79,0-3.6-.08-5.41-.17-3.62-.19-7.23-.44-10.69-.25v-.3c-4.12.34-9.19.2-12.14.84-1.22,0-2.88-.54-2.36-.89-3.16.22-3.51.56-8.08.07,3.18-.52-1.1-.46,3.25-.38-4.1-.26-5.03-.73-9.44.08,1.5-.76-3.09-.96-5.04-.73l2.88.54c-2.19.11-4.11.04-6.06-.02l1.05-1c-8.4-1.21-15.15,2.07-21.54.03-2.22.7,4.56.49,2.57,1.31-3.86-.13-7.89-1.57-9.1-1.57-5.29-.55-4.94,1.46-10.48,1.08.71.36,1.38,1.31-2.76,1.64-3.87-.13-4.75-1.49-2.31-1.78.93-.03,1.37.08,1.34.2,1.25-.13,2.89-.28,1.36-.67l-.5.36c-1.92-.36-7.24-.33-5.99-.91-2.92.34-1.25.58.92.77-4.96-.52-7.75-.02-12.85-.36.81.2,1.56.61.75.61-7.49-.44-3.3.68-8.37.83-2.88-.54,1.03-1.3-4.07-.84-3.12-.37-.66-.94.58-1.23-4.65.69-8.69-.45-11.35-.58l2.45-.29c-1.47.17-2.67.17-3.89.16l1.4.71c-1.44-.12-2.66-.13-2.63-.42-1.48.47,1.13,1.18-1.81,1.82-1.92-.36-5.84.39-6.5-.56,6.03.32-.67-.95,4.44-1.1-.98.11-2.19.11-3.63-.02-.22-.11.2-.2.6-.25-5.77-.84-2.65,1.07-8.64,1.05.76-.53-1.39-1.01-2.36-.9,2.41.01,1.15.89-1.06,1.3-3.84-.41-4.17.31-6.18.26l2.29.2c-.78.53-2.7.46-5.37.63-.23-.41,2.43-.29,1.47-.47-2.97.94-6.71-.97-10.85-.34-1.92-.36-.19-1-1.87-1.25-4.64.69-5.02-.73-9.9-.16,1.41.72,1.65.54-1.78,1.24l8.02-.5-5.15,1.04c2.42.01,5.11-.45,6.56-.33-2.45.58-2.2.41-1.04,1-3.31-1.07-6.56.63-10.39-.1l.12-1.77c-5.75-.79-10.22.91-17.7.46l2.4.31c-1,.7-4.61.1-7.03.38.23-.59-1.29-.81-2.32-1.18.12.44-5.47-.04-6.15,1.14l-3.34-.78c-6.03-.32-6.89,1.69-12.69,1.49,1.75-.64-.89-1.06,3-1.52-1.94,0-3.68-.11-3.71.3-1.13-.37-5.37.8-7.15.24-.82.26-1.08.88-3.26.83-.24-.12,0-.29,0-.29,0,.29-3.4.4-1.5,1.05-5.96-1.85-16.67.13-21.86-1.45-4.23.2-9.32.39-13.15.43.25-.18.01-.3.74-.23-5.29-.55-3.25,1.7-9.28,1.09-3.08-.96,3.2-.52,1.28-.88-.83-1.95-7.27.27-11.32-.87l.98-.11c-3.1-.66-7.56.74-12.62.6,0,0,.25-.17.03-.29-3.46.99-10.01,1.32-14.88,1.6,1.51-.76,2.21-.4,1.29-1.18-2.18.11.64,1.24-3.72,1.46-1.42-.42-4.56-.78-4.98-1.61l4.11-.04c-2.1-1.07-5.32.04-7.48-.15l.28-.47c-6.3.15-6.39,1.33-13.15,1.25l.7.35c-3.7,1.17-3.1-.66-6.79.21l-1.12-1.18c-2.44.29-8.55,1.14-12.93,1.37,2.48-.88,7.6-1.33,10.77-1.85-2.42,0-8.22.09-9.48.67.98-.11,2.2-.4,3.17-.22-2.97.93-6.87,1.39-11.69,1.37.28-.75-.97-1.07-2.89-1.23-1.03-.08-1.84-.11-3.85-.14-1.8-.03-3.69-.06-5.52-.09-.05,1.89-.12,3.71-.26,5.34-.04.41-.08.81-.12,1.18-.04.37-.09.8-.14.96-.11.44-.23.81-.39,1.11.85,8.53-.36,16.92-.23,26.85,1.79-3.52.05,2.9,1.89,2.29.12,2.31.09,3.2-.03,3.4l-1.1,7.01c-.53,1.66-.4-2.2-.82-1.99-.14,5.07-.78,2.13-1.26,5.48.66-.69.94,1.76.69,4.65l.85-4.07c.98,7.08-1.54,6.12-.57,13.26l-.58-2.26c.34,3.66-.01,13.51,1.46,17.1-.21.65-.71,1.5-.85-.11-.22,8.75,1.57,19.48.66,26.29l-.45-.66c.13,1.63.84,2.84.39,4.89-.19-.11-.45-.66-.47.1.15.86.79,4.34.52,6.5l-.5-1.85c-.59,8.54,1.23,13.1,1.54,20.26-1.32-.02-1.75,6.7-1.96,10.05l-.19-.12c-.07,4.39.13,8.2.43,11.88.16,1.84.33,3.65.49,5.49l.06.69.06,1.09c.04.76.08,1.52.12,2.29.08,1.47.15,2.97.23,4.5,1.53-.06,3.23-.14,4.97-.21.52.09,1.12.17,1.78.24.33.03.68.07,1.03.1.22.03.45.06.68.09.94.12,1.98.2,3.09.27,2.23.14,4.75.19,7.39.23,5.27.07,10.98.06,15.57.47-1.4-.24.23-1.03,1.86-1.16,2.16.27,5.96-.92,5.62.29l-.77-.02c1.62,1.19,6.05.87,9.51.9l.57-1.58c9.05,2.3,23.7-.85,28.64,1.22,2.18-.4,4.89-.39,7.05-.79l-.12.85c6.05.22,9.07.32,16.55.12l-1.52.61c4.22.06,5.33-2.45,9.22-2.5l1.17,1.27c7.36-.02,14.81,1.09,22.08-.06-.12.19-.34.55-1.53.6,3.46.03,13.4.86,12.14-.88.09,1.13,7.59.11,11.56-.39l-.62.84c3.35-1.07,3.46-1.36,8.14-1.66,1.11.11.97.67-.5.46,3.7.44,2.88-.79,7.37-.35l-1.67.53c3.81.06,3.5-.22,5.6-.84,2.39-.34,7.22.21,7.78.97.51-.46,2.6-1.08,4.84-.86.3.29-.51.46-.92.55,6.36.57,9.46-.97,13.84-.15.09.28.38.42.74.5-5.05-.02-9.13-.07-8.74-.13,0,.77,4.08.91.83,1.97,3.28-.58,8.88-1.84,12.86-1.48.19.07.38.15.53.27l-.41.09c.92.08,1.74,0,2.52-.12,1.27.13,2.08.22,3.3.23.47.64,4.68.34,6.72.38-.17-.84,2.5-.71,0-1.4.32.06-.38.1-1.74.14-.31.02-.67.04-.87.09.04-.02.09-.05.14-.07-1.34.01-3.08.03-5.06.06,1.61-.43,3.29-.79,5.54-.32,1.04-.54,2.19-1.1,2.84-1.36,2.79,1.18,8.16,1.81,8.9,2.54,6.22-.47,14.65-.31,18.55-1.9,1.77-.2,2.03.45,2.69.7-1.02.16-2.23.13-2.79.36,3.53-.41,10.47-.16,11.31-1.26,4.45.5-2.5,1.02,3.62.84l-.83.34c12.04,1.77,19.58-2.83,32.92-.55-.92-.14-1.39-.2-1.58-.39,15.22,1,31.36-.94,46.38.65,4.27.32,4.73-.39,7.34-.92l.92.91,4.45-1.05c6.32-.77,10.94,2.22,18.93.78l-1.03-.61c2.87.12,9.1-.36,8.62.34.29-.11.94-.63,2.06-.32l.09.47,7.05-.81c5.47.34-.86,1.88,7.13,1.97,2.97-.18,8.45-1.38,7.33-1.7-1.2-.02-3.06-.3-3.15-.77l2.71-.25c.49-1.4,2.58-2.83-4.08-3.8l-4.64.85-1.5-.68,3.91-.04c-2.22-.64-3.62-.07-5.19.31-.37-.36-1.02-.61-1.95-.75l-4.56,1.33c-.55-.55,2.04-1.08-1.01-1.39-2.13.62,2.05,1.23-1.49,1.63-2.22-.64-1.57-1.15-4.18-.61-.37-.36.19-.59,1.22-.75-2.32.43-6.14.18-7.34.92-2.31-.78-7.83.2-7.6-1.12-.73.32-4.09,1.04-6.22,1.09,3.89-1.58-7.98-.09-6.95-1.79-2.88,1.42-10.41.63-15.51,1.42.29-.11.85-.34,1.3-.27-2.87-.12-3.71-.55-5.55-.82-.37,1.18-4.84,1.44-7.25,2.17-3.52-1.13,2.14-1.38,1.03-2.47.18.95-6.12.95-4.92,1.74-2.69-.7-2.32-.34-3.71-1.31-.47,1.47-2.51.25-4.74,1.15-3.9-.72-1-1.38-5.28-.93-2.04-.45,1.77-.97,1.77-.97Zm-101.8,2.54v-.02c.88-.02,1.62-.04,2.1-.05-.44.01-1.04.03-2.1.06Zm-8.56.01c1.04.03,2.34.04,3.71.03.3.29-.02.59-.89.58.47-.19-1.55-.36-2.83-.61Zm18.1,5.84c-1.35.12-1.81-.05-1.99-.22.64-.01,1.39-.04,2.37-.1.04-.03.12-.07.16-.1-.13.16-.28.31-.53.42Z"/><path class="cls-1" d="m218.93,173.28c.2-.02.3-.05.56-.06-.28-.07-.54-.14-.81-.19-.17.09-.33.18-.48.26.25,0,.5,0,.73-.01Z"/><path class="cls-1" d="m400.2,3.21l-.22-.02c.18.03.35.07.45.12-.14-.04-.13-.07-.22-.1Z"/><polygon class="cls-1" points="80.28 166.93 80.29 167.15 81.04 166.96 80.28 166.93"/><path class="cls-1" d="m402.09,47.77c-.07.09-.15.27-.22.62.06-.03.13-.29.22-.62Z"/><path class="cls-1" d="m401.9,68.13l-.3,2.88c.17-1.25.25-2.15.3-2.88Z"/><path class="cls-1" d="m401.49,83.77c.15.2.26.25.36.31,0-.01,0-.02,0-.03l-.37-.28Z"/><path class="cls-1" d="m234.24,7.7c-.21,0-.42.02-.6.04-1.42.16-.45.1.6-.04Z"/><path class="cls-1" d="m308.28,5.73c-.79.15-1.56.3-2.38.4,1.32.06,2.34.08,2.38-.4Z"/><path class="cls-1" d="m151.56,8.71s0,0,0-.01h-.51.5Z"/><path class="cls-1" d="m302.46,6.11c1.32.17,2.42.13,3.44.01-1.08-.06-2.35-.14-3.44-.01Z"/><path class="cls-1" d="m401.1,151.6l-.04.75c.06-.01.1.03.14.09l-.1-.84Z"/><path class="cls-1" d="m401.2,152.44l.1.84c0-.38,0-.72-.1-.84Z"/><path class="cls-1" d="m401.52,155.04l-.21-1.76c0,.61-.03,1.36.21,1.76Z"/><path class="cls-1" d="m401.49,130.88l-.31-.24c.06.13.16.21.31.24Z"/><path class="cls-1" d="m401.4,124.59c-.07,1.5-.65,3.77-.46,5.86l.24.2c-.46-.98.73-4.63.22-6.06Z"/><path class="cls-1" d="m405.18,98.31l-.24,5.27c.33-.92.76-2.13.84.26.97-6.65-.73,1.37-.6-5.54Z"/><path class="cls-1" d="m405.66,81.95c.15,2.83.47-.03.66.12-.3-1.8-.37-2.23-.66-.12Z"/><path class="cls-1" d="m363.02,2.53l.29-.77c-2.19.11-.02.3-.29.77Z"/><polygon class="cls-1" points="340.43 6.5 342.56 6.98 343.57 6.27 340.43 6.5"/><polygon class="cls-1" points="327.08 1.03 328.04 .92 324.39 1.2 327.08 1.03"/><path class="cls-1" d="m128.56,1.31l.66.95c1.48-.17,1.79-1.23-.66-.95Z"/><path class="cls-1" d="m42.86,2.27c-.93-.47-3.34-.78-4.83-.31,1.93.07,3.85.43,4.83.31Z"/><polygon class="cls-1" points="57.55 174.51 55.82 174.83 59.07 174.56 57.55 174.51"/></g></svg>