<?xml version="1.0" encoding="UTF-8"?><svg id="Camada_2" xmlns="http://www.w3.org/2000/svg" viewBox="0 0 418.4 759.18"><defs><style>.cls-1{fill:#e9c942;}.cls-1,.cls-2{stroke-width:0px;}.cls-2{fill:#0ed1c5;}</style></defs><g id="Camada_1-2"><rect class="cls-1" x="120.51" y="202.38" width="24.64" height="100.68"/><rect class="cls-1" x="82.49" y="240.4" width="100.68" height="24.64"/><rect class="cls-1" x="183.17" y="694.27" width="15.89" height="64.91"/><rect class="cls-1" x="158.66" y="718.78" width="64.91" height="15.89"/><rect class="cls-1" x="312.08" y="407.16" width="24.64" height="100.68"/><rect class="cls-1" x="274.06" y="445.17" width="100.68" height="24.64"/><rect class="cls-2" x="357.12" y="141.19" width="61.28" height="15.84"/><path class="cls-2" d="m197.21,41.04h-1.13c-1.29-1.04-2.93-1.67-4.72-1.67s-3.43.63-4.72,1.67h-1.13v1.13c-1.05,1.29-1.67,2.93-1.67,4.72s.63,3.43,1.67,4.72v1.13h1.13c1.29,1.05,2.93,1.67,4.72,1.67s3.43-.63,4.72-1.67h1.13v-1.13c1.05-1.29,1.67-2.93,1.67-4.72s-.63-3.43-1.67-4.72v-1.13Z"/><path class="cls-2" d="m197.21,1.67h-1.13c-1.29-1.04-2.93-1.67-4.72-1.67s-3.43.63-4.72,1.67h-1.13v1.13c-1.05,1.29-1.67,2.93-1.67,4.72s.63,3.43,1.67,4.72v1.13h1.13c1.29,1.04,2.93,1.67,4.72,1.67s3.43-.63,4.72-1.67h1.13v-1.13c1.05-1.29,1.67-2.93,1.67-4.72s-.63-3.43-1.67-4.72v-1.13Z"/><path class="cls-2" d="m235.89,41.04h-1.13c-1.29-1.04-2.93-1.67-4.72-1.67s-3.43.63-4.72,1.67h-1.13v1.13c-1.04,1.29-1.67,2.93-1.67,4.72s.63,3.43,1.67,4.72v1.13h1.13c1.29,1.05,2.93,1.67,4.72,1.67s3.43-.63,4.72-1.67h1.13v-1.13c1.04-1.29,1.67-2.93,1.67-4.72s-.63-3.43-1.67-4.72v-1.13Z"/><path class="cls-2" d="m235.89,1.67h-1.13c-1.29-1.04-2.93-1.67-4.72-1.67s-3.43.63-4.72,1.67h-1.13v1.13c-1.04,1.29-1.67,2.93-1.67,4.72s.63,3.43,1.67,4.72v1.13h1.13c1.29,1.04,2.93,1.67,4.72,1.67s3.43-.63,4.72-1.67h1.13v-1.13c1.04-1.29,1.67-2.93,1.67-4.72s-.63-3.43-1.67-4.72v-1.13Z"/><path class="cls-2" d="m274.58,41.04h-1.13c-1.29-1.04-2.93-1.67-4.72-1.67s-3.43.63-4.72,1.67h-1.13v1.13c-1.05,1.29-1.67,2.93-1.67,4.72s.63,3.43,1.67,4.72v1.13h1.13c1.29,1.05,2.93,1.67,4.72,1.67s3.43-.63,4.72-1.67h1.13v-1.13c1.04-1.29,1.67-2.93,1.67-4.72s-.63-3.43-1.67-4.72v-1.13Z"/><path class="cls-2" d="m274.58,1.67h-1.13c-1.29-1.04-2.93-1.67-4.72-1.67s-3.43.63-4.72,1.67h-1.13v1.13c-1.05,1.29-1.67,2.93-1.67,4.72s.63,3.43,1.67,4.72v1.13h1.13c1.29,1.04,2.93,1.67,4.72,1.67s3.43-.63,4.72-1.67h1.13v-1.13c1.04-1.29,1.67-2.93,1.67-4.72s-.63-3.43-1.67-4.72v-1.13Z"/><path class="cls-2" d="m313.26,41.04h-1.13c-1.29-1.04-2.93-1.67-4.72-1.67s-3.43.63-4.72,1.67h-1.13v1.13c-1.04,1.29-1.67,2.93-1.67,4.72s.63,3.43,1.67,4.72v1.13h1.13c1.29,1.05,2.93,1.67,4.72,1.67s3.43-.63,4.72-1.67h1.13v-1.13c1.04-1.29,1.67-2.93,1.67-4.72s-.63-3.43-1.67-4.72v-1.13Z"/><path class="cls-2" d="m313.26,1.67h-1.13c-1.29-1.04-2.93-1.67-4.72-1.67s-3.43.63-4.72,1.67h-1.13v1.13c-1.04,1.29-1.67,2.93-1.67,4.72s.63,3.43,1.67,4.72v1.13h1.13c1.29,1.04,2.93,1.67,4.72,1.67s3.43-.63,4.72-1.67h1.13v-1.13c1.04-1.29,1.67-2.93,1.67-4.72s-.63-3.43-1.67-4.72v-1.13Z"/><path class="cls-2" d="m247.71,744.83h-1.13c-1.29-1.04-2.93-1.67-4.72-1.67s-3.43.63-4.72,1.67h-1.13v1.13c-1.04,1.29-1.67,2.93-1.67,4.72s.63,3.43,1.67,4.72v1.13h1.13c1.29,1.04,2.93,1.67,4.72,1.67s3.43-.63,4.72-1.67h1.13v-1.13c1.04-1.29,1.67-2.93,1.67-4.72s-.63-3.43-1.67-4.72v-1.13Z"/><path class="cls-2" d="m247.71,705.47h-1.13c-1.29-1.04-2.93-1.67-4.72-1.67s-3.43.63-4.72,1.67h-1.13v1.13c-1.04,1.29-1.67,2.93-1.67,4.72s.63,3.43,1.67,4.72v1.13h1.13c1.29,1.04,2.93,1.67,4.72,1.67s3.43-.63,4.72-1.67h1.13v-1.13c1.04-1.29,1.67-2.93,1.67-4.72s-.63-3.43-1.67-4.72v-1.13Z"/><path class="cls-2" d="m247.71,666.1h-1.13c-1.29-1.04-2.93-1.67-4.72-1.67s-3.43.63-4.72,1.67h-1.13v1.13c-1.04,1.29-1.67,2.93-1.67,4.72s.63,3.43,1.67,4.72v1.13h1.13c1.29,1.04,2.93,1.67,4.72,1.67s3.43-.63,4.72-1.67h1.13v-1.13c1.04-1.29,1.67-2.93,1.67-4.72s-.63-3.43-1.67-4.72v-1.13Z"/><path class="cls-2" d="m286.4,744.83h-1.13c-1.29-1.04-2.93-1.67-4.72-1.67s-3.43.63-4.72,1.67h-1.13v1.13c-1.04,1.29-1.67,2.93-1.67,4.72s.63,3.43,1.67,4.72v1.13h1.13c1.29,1.04,2.93,1.67,4.72,1.67s3.43-.63,4.72-1.67h1.13v-1.13c1.04-1.29,1.67-2.93,1.67-4.72s-.63-3.43-1.67-4.72v-1.13Z"/><path class="cls-2" d="m286.4,705.47h-1.13c-1.29-1.04-2.93-1.67-4.72-1.67s-3.43.63-4.72,1.67h-1.13v1.13c-1.04,1.29-1.67,2.93-1.67,4.72s.63,3.43,1.67,4.72v1.13h1.13c1.29,1.04,2.93,1.67,4.72,1.67s3.43-.63,4.72-1.67h1.13v-1.13c1.04-1.29,1.67-2.93,1.67-4.72s-.63-3.43-1.67-4.72v-1.13Z"/><path class="cls-2" d="m286.4,666.1h-1.13c-1.29-1.04-2.93-1.67-4.72-1.67s-3.43.63-4.72,1.67h-1.13v1.13c-1.04,1.29-1.67,2.93-1.67,4.72s.63,3.43,1.67,4.72v1.13h1.13c1.29,1.04,2.93,1.67,4.72,1.67s3.43-.63,4.72-1.67h1.13v-1.13c1.04-1.29,1.67-2.93,1.67-4.72s-.63-3.43-1.67-4.72v-1.13Z"/><path class="cls-2" d="m325.08,744.83h-1.13c-1.29-1.04-2.93-1.67-4.72-1.67s-3.43.63-4.72,1.67h-1.13v1.13c-1.04,1.29-1.67,2.93-1.67,4.72s.63,3.43,1.67,4.72v1.13h1.13c1.29,1.04,2.93,1.67,4.72,1.67s3.43-.63,4.72-1.67h1.13v-1.13c1.04-1.29,1.67-2.93,1.67-4.72s-.63-3.43-1.67-4.72v-1.13Z"/><path class="cls-2" d="m325.08,705.47h-1.13c-1.29-1.04-2.93-1.67-4.72-1.67s-3.43.63-4.72,1.67h-1.13v1.13c-1.04,1.29-1.67,2.93-1.67,4.72s.63,3.43,1.67,4.72v1.13h1.13c1.29,1.04,2.93,1.67,4.72,1.67s3.43-.63,4.72-1.67h1.13v-1.13c1.04-1.29,1.67-2.93,1.67-4.72s-.63-3.43-1.67-4.72v-1.13Z"/><path class="cls-2" d="m325.08,666.1h-1.13c-1.29-1.04-2.93-1.67-4.72-1.67s-3.43.63-4.72,1.67h-1.13v1.13c-1.04,1.29-1.67,2.93-1.67,4.72s.63,3.43,1.67,4.72v1.13h1.13c1.29,1.04,2.93,1.67,4.72,1.67s3.43-.63,4.72-1.67h1.13v-1.13c1.04-1.29,1.67-2.93,1.67-4.72s-.63-3.43-1.67-4.72v-1.13Z"/><rect class="cls-2" y="567.23" width="61.28" height="15.84"/></g></svg>