<?xml version="1.0" encoding="UTF-8"?><svg id="Camada_2" xmlns="http://www.w3.org/2000/svg" viewBox="0 0 349.92 758.21"><defs><style>.cls-1{fill:#e9c942;}.cls-1,.cls-2{stroke-width:0px;}.cls-2{fill:#0ed1c5;}</style></defs><g id="Camada_1-2"><rect class="cls-1" x="92.32" y="53.88" width="15.34" height="62.66"/><rect class="cls-1" x="68.65" y="77.55" width="62.66" height="15.34"/><rect class="cls-1" x="159.86" y="498.76" width="24.64" height="100.68"/><rect class="cls-1" x="121.84" y="536.78" width="100.68" height="24.64"/><rect class="cls-1" x="308.22" y="303.06" width="16.4" height="66.99"/><rect class="cls-1" x="282.93" y="328.35" width="66.99" height="16.4"/><path class="cls-2" d="m197.21,41.04h-1.13c-1.29-1.04-2.93-1.67-4.72-1.67s-3.43.63-4.72,1.67h-1.13v1.13c-1.05,1.29-1.67,2.93-1.67,4.72s.63,3.43,1.67,4.72v1.13h1.13c1.29,1.05,2.93,1.67,4.72,1.67s3.43-.63,4.72-1.67h1.13v-1.13c1.05-1.29,1.67-2.93,1.67-4.72s-.63-3.43-1.67-4.72v-1.13Z"/><path class="cls-2" d="m197.21,1.67h-1.13c-1.29-1.04-2.93-1.67-4.72-1.67s-3.43.63-4.72,1.67h-1.13v1.13c-1.05,1.29-1.67,2.93-1.67,4.72s.63,3.43,1.67,4.72v1.13h1.13c1.29,1.04,2.93,1.67,4.72,1.67s3.43-.63,4.72-1.67h1.13v-1.13c1.05-1.29,1.67-2.93,1.67-4.72s-.63-3.43-1.67-4.72v-1.13Z"/><path class="cls-2" d="m235.89,41.04h-1.13c-1.29-1.04-2.93-1.67-4.72-1.67s-3.43.63-4.72,1.67h-1.13v1.13c-1.04,1.29-1.67,2.93-1.67,4.72s.63,3.43,1.67,4.72v1.13h1.13c1.29,1.05,2.93,1.67,4.72,1.67s3.43-.63,4.72-1.67h1.13v-1.13c1.04-1.29,1.67-2.93,1.67-4.72s-.63-3.43-1.67-4.72v-1.13Z"/><path class="cls-2" d="m235.89,1.67h-1.13c-1.29-1.04-2.93-1.67-4.72-1.67s-3.43.63-4.72,1.67h-1.13v1.13c-1.04,1.29-1.67,2.93-1.67,4.72s.63,3.43,1.67,4.72v1.13h1.13c1.29,1.04,2.93,1.67,4.72,1.67s3.43-.63,4.72-1.67h1.13v-1.13c1.04-1.29,1.67-2.93,1.67-4.72s-.63-3.43-1.67-4.72v-1.13Z"/><path class="cls-2" d="m274.58,41.04h-1.13c-1.29-1.04-2.93-1.67-4.72-1.67s-3.43.63-4.72,1.67h-1.13v1.13c-1.05,1.29-1.67,2.93-1.67,4.72s.63,3.43,1.67,4.72v1.13h1.13c1.29,1.05,2.93,1.67,4.72,1.67s3.43-.63,4.72-1.67h1.13v-1.13c1.04-1.29,1.67-2.93,1.67-4.72s-.63-3.43-1.67-4.72v-1.13Z"/><path class="cls-2" d="m274.58,1.67h-1.13c-1.29-1.04-2.93-1.67-4.72-1.67s-3.43.63-4.72,1.67h-1.13v1.13c-1.05,1.29-1.67,2.93-1.67,4.72s.63,3.43,1.67,4.72v1.13h1.13c1.29,1.04,2.93,1.67,4.72,1.67s3.43-.63,4.72-1.67h1.13v-1.13c1.04-1.29,1.67-2.93,1.67-4.72s-.63-3.43-1.67-4.72v-1.13Z"/><path class="cls-2" d="m313.26,41.04h-1.13c-1.29-1.04-2.93-1.67-4.72-1.67s-3.43.63-4.72,1.67h-1.13v1.13c-1.04,1.29-1.67,2.93-1.67,4.72s.63,3.43,1.67,4.72v1.13h1.13c1.29,1.05,2.93,1.67,4.72,1.67s3.43-.63,4.72-1.67h1.13v-1.13c1.04-1.29,1.67-2.93,1.67-4.72s-.63-3.43-1.67-4.72v-1.13Z"/><path class="cls-2" d="m313.26,1.67h-1.13c-1.29-1.04-2.93-1.67-4.72-1.67s-3.43.63-4.72,1.67h-1.13v1.13c-1.04,1.29-1.67,2.93-1.67,4.72s.63,3.43,1.67,4.72v1.13h1.13c1.29,1.04,2.93,1.67,4.72,1.67s3.43-.63,4.72-1.67h1.13v-1.13c1.04-1.29,1.67-2.93,1.67-4.72s-.63-3.43-1.67-4.72v-1.13Z"/><path class="cls-2" d="m247.71,744.83h-1.13c-1.29-1.04-2.93-1.67-4.72-1.67s-3.43.63-4.72,1.67h-1.13v1.13c-1.04,1.29-1.67,2.93-1.67,4.72s.63,3.43,1.67,4.72v1.13h1.13c1.29,1.04,2.93,1.67,4.72,1.67s3.43-.63,4.72-1.67h1.13v-1.13c1.04-1.29,1.67-2.93,1.67-4.72s-.63-3.43-1.67-4.72v-1.13Z"/><path class="cls-2" d="m247.71,705.47h-1.13c-1.29-1.04-2.93-1.67-4.72-1.67s-3.43.63-4.72,1.67h-1.13v1.13c-1.04,1.29-1.67,2.93-1.67,4.72s.63,3.43,1.67,4.72v1.13h1.13c1.29,1.04,2.93,1.67,4.72,1.67s3.43-.63,4.72-1.67h1.13v-1.13c1.04-1.29,1.67-2.93,1.67-4.72s-.63-3.43-1.67-4.72v-1.13Z"/><path class="cls-2" d="m247.71,666.1h-1.13c-1.29-1.04-2.93-1.67-4.72-1.67s-3.43.63-4.72,1.67h-1.13v1.13c-1.04,1.29-1.67,2.93-1.67,4.72s.63,3.43,1.67,4.72v1.13h1.13c1.29,1.04,2.93,1.67,4.72,1.67s3.43-.63,4.72-1.67h1.13v-1.13c1.04-1.29,1.67-2.93,1.67-4.72s-.63-3.43-1.67-4.72v-1.13Z"/><path class="cls-2" d="m286.4,744.83h-1.13c-1.29-1.04-2.93-1.67-4.72-1.67s-3.43.63-4.72,1.67h-1.13v1.13c-1.04,1.29-1.67,2.93-1.67,4.72s.63,3.43,1.67,4.72v1.13h1.13c1.29,1.04,2.93,1.67,4.72,1.67s3.43-.63,4.72-1.67h1.13v-1.13c1.04-1.29,1.67-2.93,1.67-4.72s-.63-3.43-1.67-4.72v-1.13Z"/><path class="cls-2" d="m286.4,705.47h-1.13c-1.29-1.04-2.93-1.67-4.72-1.67s-3.43.63-4.72,1.67h-1.13v1.13c-1.04,1.29-1.67,2.93-1.67,4.72s.63,3.43,1.67,4.72v1.13h1.13c1.29,1.04,2.93,1.67,4.72,1.67s3.43-.63,4.72-1.67h1.13v-1.13c1.04-1.29,1.67-2.93,1.67-4.72s-.63-3.43-1.67-4.72v-1.13Z"/><path class="cls-2" d="m286.4,666.1h-1.13c-1.29-1.04-2.93-1.67-4.72-1.67s-3.43.63-4.72,1.67h-1.13v1.13c-1.04,1.29-1.67,2.93-1.67,4.72s.63,3.43,1.67,4.72v1.13h1.13c1.29,1.04,2.93,1.67,4.72,1.67s3.43-.63,4.72-1.67h1.13v-1.13c1.04-1.29,1.67-2.93,1.67-4.72s-.63-3.43-1.67-4.72v-1.13Z"/><path class="cls-2" d="m325.08,744.83h-1.13c-1.29-1.04-2.93-1.67-4.72-1.67s-3.43.63-4.72,1.67h-1.13v1.13c-1.04,1.29-1.67,2.93-1.67,4.72s.63,3.43,1.67,4.72v1.13h1.13c1.29,1.04,2.93,1.67,4.72,1.67s3.43-.63,4.72-1.67h1.13v-1.13c1.04-1.29,1.67-2.93,1.67-4.72s-.63-3.43-1.67-4.72v-1.13Z"/><path class="cls-2" d="m325.08,705.47h-1.13c-1.29-1.04-2.93-1.67-4.72-1.67s-3.43.63-4.72,1.67h-1.13v1.13c-1.04,1.29-1.67,2.93-1.67,4.72s.63,3.43,1.67,4.72v1.13h1.13c1.29,1.04,2.93,1.67,4.72,1.67s3.43-.63,4.72-1.67h1.13v-1.13c1.04-1.29,1.67-2.93,1.67-4.72s-.63-3.43-1.67-4.72v-1.13Z"/><path class="cls-2" d="m325.08,666.1h-1.13c-1.29-1.04-2.93-1.67-4.72-1.67s-3.43.63-4.72,1.67h-1.13v1.13c-1.04,1.29-1.67,2.93-1.67,4.72s.63,3.43,1.67,4.72v1.13h1.13c1.29,1.04,2.93,1.67,4.72,1.67s3.43-.63,4.72-1.67h1.13v-1.13c1.04-1.29,1.67-2.93,1.67-4.72s-.63-3.43-1.67-4.72v-1.13Z"/><rect class="cls-2" y="385.23" width="61.28" height="15.84"/></g></svg>