<?xml version="1.0" encoding="UTF-8"?><svg id="Camada_2" xmlns="http://www.w3.org/2000/svg" viewBox="0 0 261.36 357.9"><defs><style>.cls-1{fill:#0b3b4b;}.cls-1,.cls-2,.cls-3,.cls-4{stroke-width:0px;}.cls-2{fill:#28aeb1;}.cls-3{opacity:.28;}.cls-3,.cls-4{fill:#fff;}</style></defs><g id="Camada_1-2"><circle class="cls-3" cx="158.12" cy="103.61" r="80.12" transform="translate(-26.96 142.15) rotate(-45)"/><path class="cls-1" d="m246.56,155.74c29.31-48.53,13.72-111.64-34.81-140.94C163.22-14.51,100.11,1.07,70.81,49.61c-29.31,48.53-13.72,111.64,34.81,140.94,48.53,29.31,111.64,13.72,140.94-34.81Zm-129.86,16.46c-37.88-22.87-50.04-72.12-27.17-110,22.87-37.88,72.12-50.04,110-27.17,37.88,22.87,50.04,72.12,27.17,110-22.87,37.88-72.12,50.04-110,27.17Z"/><path class="cls-1" d="m60.13,273.88h0c-5.53-3.34-7.33-10.6-3.99-16.14l42.44-70.28c3.34-5.53,10.6-7.33,16.14-3.99h0c5.53,3.34,7.33,10.6,3.99,16.14l-42.44,70.28c-3.34,5.53-10.6,7.33-16.14,3.99Z"/><path class="cls-2" d="m11.85,353.83h0c-9.65-5.83-14.37-15.85-10.49-22.27l61.47-101.8c3.88-6.42,14.94-6.91,24.59-1.09h0c9.65,5.83,14.37,15.85,10.49,22.27l-61.47,101.8c-3.88,6.42-14.94,6.91-24.59,1.09Z"/><path class="cls-4" d="m207.91,143.58c-1.51-4.71-6.01-10.12-9.41-13.33-7.7,15.25-25.54,31.92-43.45,34.34-8.65,1.17-16.99-1.25-25.72-1.86,9.03,13.74,23.17,15.69,38.53,12.68,17.12-3.35,38.93-19.53,40.05-31.83Z"/></g></svg>