<?xml version="1.0" encoding="UTF-8"?><svg id="Camada_2" xmlns="http://www.w3.org/2000/svg" viewBox="0 0 378.58 882.87"><defs><style>.cls-1{fill:#fff;}.cls-2,.cls-3{fill:none;}.cls-3{opacity:.3;}</style></defs><g id="Camada_1-2"><g class="cls-3"><path class="cls-1" d="m266.02,558.36c3.95,0,7.76,6.05,9.33,11.14,6.81-1.17,13.29-3.27,19.3-6.15-1.83-5.04-2.68-12.44.95-14.49,3.42-1.92,9.82,1.46,13.79,5.1,5.19-4.26,9.76-9.22,13.56-14.72-4.17-3.47-8.7-9.46-6.6-13.01,1.97-3.33,9.27-3.52,14.58-2.29,2.27-6.11,3.7-12.61,4.16-19.36-5.39-.97-12.39-3.96-12.39-8.05,0-3.85,6.21-7.56,11.44-9.08-1.2-6.64-3.35-12.95-6.31-18.81-5.17,1.79-12.78,2.61-14.87-.93-1.98-3.33,1.5-9.56,5.23-13.43-4.37-5.06-9.46-9.51-15.11-13.21-3.57,4.06-9.72,8.47-13.35,6.43-3.42-1.92-3.61-9.02-2.36-14.2-6.27-2.21-12.94-3.61-19.88-4.06-1,5.25-4.06,12.07-8.25,12.07-3.95,0-7.76-6.05-9.33-11.14-6.81,1.17-13.29,3.27-19.3,6.15,1.83,5.04,2.68,12.44-.96,14.48-3.42,1.92-9.82-1.45-13.79-5.1-5.2,4.26-9.76,9.22-13.56,14.72,4.17,3.47,8.7,9.47,6.6,13.01-1.98,3.33-9.26,3.52-14.57,2.29-2.27,6.11-3.71,12.61-4.17,19.36,5.39.98,12.39,3.96,12.39,8.05,0,3.85-6.21,7.56-11.44,9.08,1.2,6.64,3.35,12.95,6.31,18.81,5.17-1.79,12.77-2.61,14.87.93,1.97,3.33-1.5,9.56-5.24,13.43,4.37,5.06,9.46,9.52,15.11,13.21,3.56-4.06,9.72-8.48,13.35-6.43,3.42,1.92,3.61,9.03,2.36,14.2,6.27,2.21,12.94,3.61,19.88,4.06,1-5.25,4.06-12.07,8.26-12.07Zm-51.76-58.52c0-26.02,21.66-47.12,48.37-47.12s48.37,21.1,48.37,47.12-21.66,47.12-48.37,47.12-48.37-21.1-48.37-47.12Z"/><path class="cls-1" d="m302.14,499.84c0,21.23-17.73,38.5-39.52,38.5s-39.52-17.27-39.52-38.5,17.73-38.5,39.52-38.5,39.52,17.27,39.52,38.5m3.12,0c0-22.94-19.09-41.54-42.64-41.54s-42.64,18.6-42.64,41.54,19.09,41.54,42.64,41.54,42.64-18.6,42.64-41.54h0Z"/><path class="cls-1" d="m195.56,237.18c3.84,0,7.54,5.88,9.06,10.82,6.61-1.14,12.91-3.17,18.74-5.97-1.78-4.89-2.6-12.08.93-14.07,3.32-1.87,9.54,1.41,13.39,4.95,5.04-4.14,9.48-8.95,13.17-14.3-4.05-3.37-8.45-9.19-6.41-12.63,1.92-3.24,9-3.42,14.16-2.23,2.2-5.93,3.6-12.24,4.04-18.8-5.23-.94-12.03-3.85-12.03-7.81,0-3.74,6.03-7.34,11.11-8.82-1.17-6.44-3.26-12.58-6.13-18.26-5.02,1.74-12.41,2.54-14.44-.9-1.92-3.23,1.45-9.28,5.08-13.04-4.24-4.91-9.18-9.24-14.67-12.83-3.46,3.94-9.44,8.23-12.97,6.24-3.32-1.87-3.51-8.76-2.29-13.79-6.09-2.15-12.57-3.51-19.3-3.94-.97,5.1-3.94,11.72-8.02,11.72-3.84,0-7.54-5.88-9.06-10.82-6.61,1.14-12.91,3.17-18.74,5.97,1.78,4.89,2.6,12.08-.93,14.06-3.32,1.87-9.53-1.41-13.39-4.95-5.04,4.14-9.48,8.95-13.17,14.3,4.05,3.37,8.44,9.19,6.41,12.63-1.92,3.24-8.99,3.42-14.15,2.23-2.21,5.93-3.6,12.24-4.05,18.8,5.23.95,12.03,3.85,12.03,7.81,0,3.74-6.03,7.34-11.11,8.82,1.17,6.44,3.26,12.58,6.13,18.26,5.02-1.73,12.4-2.54,14.44.9,1.92,3.23-1.45,9.29-5.09,13.04,4.24,4.91,9.19,9.24,14.68,12.83,3.46-3.94,9.44-8.23,12.97-6.25,3.32,1.87,3.51,8.77,2.29,13.79,6.09,2.15,12.57,3.51,19.3,3.94.97-5.1,3.95-11.72,8.02-11.72Zm-50.27-56.83c0-25.27,21.03-45.76,46.97-45.76s46.97,20.49,46.97,45.76-21.03,45.76-46.97,45.76-46.97-20.49-46.97-45.76Z"/><path class="cls-1" d="m230.63,180.36c0,20.61-17.21,37.38-38.37,37.38s-38.37-16.77-38.37-37.38,17.21-37.38,38.37-37.38,38.37,16.77,38.37,37.38m3.03,0c0-22.28-18.54-40.34-41.41-40.34s-41.4,18.06-41.4,40.34,18.54,40.34,41.4,40.34,41.41-18.06,41.41-40.34h0Z"/><path class="cls-1" d="m114.98,674.43c4.54,0,8.92,6.95,10.72,12.81,7.83-1.34,15.28-3.76,22.19-7.07-2.11-5.79-3.08-14.3,1.1-16.65,3.93-2.21,11.29,1.67,15.85,5.86,5.97-4.9,11.22-10.6,15.58-16.92-4.79-3.99-10-10.88-7.59-14.95,2.27-3.83,10.65-4.05,16.76-2.64,2.61-7.02,4.26-14.49,4.78-22.26-6.19-1.12-14.24-4.55-14.24-9.25,0-4.42,7.14-8.69,13.15-10.44-1.38-7.63-3.85-14.89-7.26-21.62-5.95,2.06-14.68,3-17.09-1.06-2.27-3.83,1.72-10.99,6.02-15.44-5.02-5.81-10.87-10.93-17.37-15.18-4.1,4.66-11.17,9.74-15.35,7.39-3.93-2.21-4.15-10.37-2.71-16.32-7.2-2.55-14.87-4.15-22.85-4.66-1.15,6.03-4.67,13.87-9.49,13.87-4.54,0-8.92-6.95-10.72-12.8-7.83,1.35-15.28,3.76-22.18,7.07,2.11,5.79,3.08,14.3-1.1,16.65-3.93,2.21-11.28-1.67-15.85-5.86-5.97,4.9-11.22,10.6-15.58,16.92,4.79,3.99,9.99,10.88,7.59,14.95-2.27,3.83-10.65,4.05-16.75,2.64-2.61,7.02-4.26,14.49-4.79,22.26,6.19,1.12,14.24,4.55,14.24,9.25,0,4.42-7.14,8.69-13.15,10.44,1.38,7.63,3.86,14.89,7.26,21.62,5.94-2.05,14.68-3.01,17.09,1.06,2.27,3.83-1.72,10.99-6.02,15.44,5.02,5.82,10.87,10.94,17.37,15.19,4.09-4.66,11.17-9.74,15.35-7.39,3.93,2.21,4.15,10.38,2.71,16.32,7.2,2.55,14.87,4.15,22.85,4.66,1.15-6.04,4.67-13.87,9.49-13.87Zm-59.5-67.26c0-29.91,24.89-54.16,55.6-54.16s55.6,24.25,55.6,54.16-24.89,54.16-55.6,54.16-55.6-24.25-55.6-54.16Z"/><path class="cls-1" d="m156.5,607.17c0,24.4-20.38,44.25-45.42,44.25s-45.42-19.85-45.42-44.25,20.37-44.25,45.42-44.25,45.42,19.85,45.42,44.25m3.59,0c0-26.37-21.94-47.74-49.01-47.74s-49.01,21.38-49.01,47.74,21.94,47.74,49.01,47.74,49.01-21.38,49.01-47.74h0Z"/><path class="cls-1" d="m299.2,389.11c4.54,0,8.92,6.95,10.72,12.81,7.83-1.34,15.28-3.76,22.18-7.07-2.11-5.79-3.08-14.3,1.1-16.65,3.93-2.21,11.29,1.67,15.85,5.86,5.97-4.9,11.22-10.6,15.58-16.92-4.79-3.99-10-10.88-7.59-14.95,2.27-3.83,10.65-4.05,16.76-2.64,2.61-7.02,4.26-14.49,4.78-22.26-6.19-1.12-14.24-4.55-14.24-9.25,0-4.42,7.14-8.69,13.15-10.44-1.38-7.63-3.85-14.89-7.26-21.62-5.95,2.06-14.68,3.01-17.09-1.06-2.27-3.83,1.72-10.99,6.02-15.44-5.02-5.81-10.87-10.93-17.37-15.18-4.1,4.67-11.17,9.74-15.35,7.39-3.93-2.21-4.15-10.37-2.71-16.32-7.2-2.55-14.87-4.15-22.85-4.66-1.15,6.03-4.67,13.87-9.49,13.87-4.54,0-8.92-6.95-10.72-12.8-7.83,1.35-15.28,3.76-22.18,7.07,2.11,5.79,3.08,14.3-1.1,16.65-3.93,2.21-11.28-1.67-15.85-5.86-5.97,4.9-11.22,10.6-15.58,16.92,4.79,3.99,9.99,10.88,7.59,14.95-2.27,3.83-10.65,4.05-16.75,2.64-2.61,7.02-4.26,14.49-4.79,22.26,6.19,1.12,14.24,4.55,14.24,9.25,0,4.42-7.14,8.69-13.15,10.44,1.38,7.63,3.86,14.89,7.26,21.62,5.94-2.05,14.68-3.01,17.09,1.06,2.27,3.83-1.72,10.99-6.02,15.44,5.02,5.82,10.87,10.94,17.37,15.19,4.09-4.66,11.17-9.74,15.35-7.39,3.93,2.21,4.15,10.38,2.71,16.32,7.2,2.55,14.87,4.15,22.85,4.66,1.15-6.04,4.67-13.87,9.49-13.87Zm-59.5-67.26c0-29.91,24.89-54.16,55.6-54.16s55.6,24.25,55.6,54.16-24.89,54.16-55.6,54.16-55.6-24.25-55.6-54.16Z"/><path class="cls-1" d="m340.72,321.85c0,24.4-20.38,44.25-45.42,44.25s-45.42-19.85-45.42-44.25,20.37-44.25,45.42-44.25,45.42,19.85,45.42,44.25m3.59,0c0-26.37-21.94-47.74-49.01-47.74s-49.01,21.38-49.01,47.74,21.94,47.74,49.01,47.74,49.01-21.38,49.01-47.74h0Z"/><path class="cls-1" d="m196.17,793.37c3.53,0,6.93,5.4,8.32,9.95,6.08-1.04,11.86-2.92,17.23-5.49-1.64-4.49-2.39-11.11.85-12.93,3.05-1.72,8.76,1.3,12.31,4.55,4.63-3.8,8.71-8.23,12.1-13.14-3.72-3.1-7.77-8.45-5.89-11.61,1.76-2.98,8.27-3.14,13.01-2.05,2.03-5.45,3.31-11.25,3.71-17.28-4.81-.87-11.06-3.54-11.06-7.18,0-3.43,5.54-6.75,10.21-8.11-1.07-5.92-2.99-11.56-5.64-16.79-4.62,1.6-11.4,2.33-13.27-.83-1.76-2.97,1.33-8.53,4.67-11.99-3.9-4.51-8.44-8.49-13.49-11.79-3.18,3.62-8.68,7.56-11.92,5.74-3.06-1.72-3.23-8.05-2.1-12.67-5.59-1.98-11.55-3.22-17.74-3.62-.89,4.69-3.63,10.77-7.37,10.77-3.53,0-6.93-5.4-8.32-9.94-6.08,1.04-11.86,2.92-17.23,5.49,1.64,4.49,2.39,11.1-.85,12.93-3.05,1.72-8.76-1.3-12.31-4.55-4.64,3.8-8.71,8.23-12.1,13.14,3.72,3.1,7.76,8.45,5.89,11.61-1.76,2.98-8.27,3.14-13.01,2.05-2.03,5.45-3.31,11.25-3.72,17.28,4.81.87,11.06,3.54,11.06,7.18,0,3.43-5.54,6.75-10.21,8.11,1.07,5.92,2.99,11.56,5.64,16.79,4.61-1.59,11.4-2.33,13.27.83,1.76,2.97-1.33,8.53-4.68,11.99,3.9,4.52,8.44,8.49,13.49,11.79,3.18-3.62,8.68-7.56,11.92-5.74,3.06,1.72,3.22,8.06,2.1,12.68,5.59,1.98,11.55,3.22,17.74,3.62.89-4.69,3.63-10.77,7.37-10.77Zm-46.2-52.23c0-23.23,19.33-42.06,43.17-42.06s43.18,18.83,43.18,42.06-19.33,42.06-43.18,42.06-43.17-18.83-43.17-42.06Z"/><path class="cls-1" d="m228.41,741.14c0,18.95-15.82,34.36-35.27,34.36s-35.27-15.41-35.27-34.36,15.82-34.36,35.27-34.36,35.27,15.41,35.27,34.36m2.79,0c0-20.48-17.04-37.08-38.06-37.08s-38.06,16.6-38.06,37.08,17.04,37.08,38.06,37.08,38.06-16.6,38.06-37.08h0Z"/><path class="cls-2" d="m30.01,836.07c29.86-6.75,48.51-35.91,41.58-65-6.93-29.09-36.87-47.26-66.73-40.51-1.66.38-3.27.85-4.86,1.35v102.74c9.38,3.04,19.69,3.74,30.01,1.41Z"/><path class="cls-2" d="m32.82,847.89c36.61-8.28,59.4-43.9,50.9-79.57s-45.07-57.86-81.68-49.58c-.7.16-1.35.39-2.04.57v8.16c1.28-.38,2.55-.78,3.87-1.08,32.27-7.3,64.51,12.27,72,43.71s-12.59,62.84-44.87,70.14c-10.64,2.41-21.25,1.84-31-1.05v8.2c10.4,2.7,21.61,3.05,32.82.51Z"/><path class="cls-2" d="m71.21,99.3c0-29.86-24.94-54.16-55.59-54.16-5.43,0-10.66.8-15.62,2.21v103.88c4.96,1.42,10.19,2.21,15.62,2.21,30.65,0,55.59-24.29,55.59-54.16Z"/><path class="cls-2" d="m62.89,450.94c41.42,0,75.12-32.83,75.12-73.18s-33.7-73.18-75.12-73.18c-26.31,0-49.47,13.27-62.89,33.28v79.79c13.42,20.01,36.58,33.28,62.89,33.28Z"/><path class="cls-2" d="m154.84,377.77c0-49.47-41.17-89.57-91.95-89.57-24.33,0-46.44,9.22-62.89,24.26v15.52c14.86-17.79,37.51-29.16,62.89-29.16,44.76,0,81.05,35.35,81.05,78.96s-36.29,78.96-81.05,78.96c-25.38,0-48.02-11.37-62.89-29.16v15.52c16.45,15.03,38.55,24.26,62.89,24.26,50.78,0,91.95-40.1,91.95-89.57Z"/><path class="cls-2" d="m83.67,99.3c0-36.61-30.47-66.29-68.05-66.29-5.38,0-10.6.67-15.62,1.82v8.1c4.99-1.31,10.21-2.07,15.62-2.07,33.13,0,59.99,26.16,59.99,58.44s-26.86,58.44-59.99,58.44c-5.41,0-10.63-.76-15.62-2.07v8.1c5.02,1.15,10.24,1.82,15.62,1.82,37.58,0,68.05-29.68,68.05-66.29Z"/><path class="cls-1" d="m62.89,288.19c50.78,0,91.95,40.1,91.95,89.57s-41.17,89.57-91.95,89.57c-24.33,0-46.44-9.22-62.89-24.26v35.22c4.18-2.06,8.27-2.82,11.38-1.06,6.51,3.66,6.87,17.16,4.48,27,11.91,4.21,24.6,6.87,37.78,7.71,1.9-9.99,7.72-22.95,15.69-22.95,7.51,0,14.75,11.5,17.73,21.18,12.95-2.22,25.26-6.21,36.69-11.69-3.48-9.57-5.09-23.65,1.81-27.54,6.5-3.66,18.67,2.77,26.21,9.69,9.87-8.1,18.56-17.53,25.77-27.99-7.92-6.59-16.54-17.99-12.55-24.72,3.75-6.34,17.61-6.69,27.71-4.36,4.31-11.61,7.04-23.96,7.91-36.81-10.24-1.85-23.55-7.53-23.55-15.29,0-7.31,11.81-14.37,21.75-17.26-2.28-12.61-6.37-24.62-12-35.75-9.83,3.4-24.29,4.97-28.27-1.76-3.76-6.33,2.84-18.18,9.95-25.53-8.31-9.61-17.97-18.08-28.72-25.11-6.78,7.71-18.48,16.1-25.39,12.22-6.51-3.66-6.87-17.15-4.48-26.99-11.91-4.21-24.6-6.87-37.78-7.71-1.9,9.98-7.72,22.94-15.69,22.94-7.51,0-14.76-11.5-17.73-21.18-12.95,2.23-25.26,6.21-36.69,11.69,3.48,9.57,5.09,23.65-1.81,27.53-.07.04-.14.06-.2.09v27.79c16.45-15.03,38.55-24.26,62.89-24.26Z"/><path class="cls-1" d="m62.89,304.59c41.42,0,75.12,32.83,75.12,73.18s-33.7,73.18-75.12,73.18c-26.31,0-49.47-13.27-62.89-33.28v9.9c14.86,17.79,37.51,29.16,62.89,29.16,44.76,0,81.05-35.35,81.05-78.96s-36.29-78.96-81.05-78.96c-25.38,0-48.02,11.37-62.89,29.16v9.9c13.42-20.01,36.58-33.28,62.89-33.28Z"/><path class="cls-1" d="m15.62,33.01c37.58,0,68.05,29.68,68.05,66.29s-30.47,66.29-68.05,66.29c-5.38,0-10.6-.67-15.62-1.82v33.86c2.89.43,5.81.79,8.78.98,1.41-7.39,5.72-16.98,11.61-16.98,5.56,0,10.92,8.51,13.12,15.68,9.58-1.65,18.7-4.6,27.15-8.65-2.58-7.08-3.77-17.5,1.34-20.38,4.81-2.71,13.81,2.05,19.4,7.17,7.3-5.99,13.73-12.97,19.07-20.71-5.86-4.88-12.24-13.31-9.29-18.3,2.78-4.69,13.04-4.95,20.51-3.23,3.19-8.59,5.21-17.73,5.86-27.24-7.58-1.37-17.43-5.57-17.43-11.32,0-5.41,8.74-10.63,16.09-12.78-1.69-9.33-4.72-18.22-8.88-26.46-7.28,2.52-17.97,3.68-20.92-1.3-2.78-4.69,2.1-13.45,7.36-18.89-6.15-7.11-13.3-13.38-21.25-18.58-5.02,5.71-13.68,11.92-18.79,9.04-4.82-2.71-5.08-12.69-3.31-19.97C41.61,2.59,32.22.63,22.46,0c-1.4,7.39-5.71,16.98-11.61,16.98-4.13,0-8.15-4.7-10.85-10.06v27.92c5.02-1.15,10.24-1.82,15.62-1.82Z"/><path class="cls-1" d="m15.62,45.15c30.65,0,55.59,24.29,55.59,54.16s-24.94,54.16-55.59,54.16c-5.43,0-10.66-.8-15.62-2.21v4.42c4.99,1.31,10.21,2.07,15.62,2.07,33.13,0,59.99-26.16,59.99-58.44S48.75,40.87,15.62,40.87c-5.41,0-10.63.76-15.62,2.07v4.42c4.96-1.42,10.19-2.21,15.62-2.21Z"/><path class="cls-1" d="m2.04,718.74c36.61-8.28,73.18,13.92,81.68,49.58s-14.29,71.29-50.9,79.57c-11.22,2.54-22.42,2.19-32.82-.51v17.72c3.54,3.42,5.29,10.94,5.26,17.05,9.31,1.09,18.91.94,28.56-.6-.35-7.51,1.63-17.8,7.37-19.1,5.41-1.22,12.61,5.89,16.42,12.38,8.95-3.71,17.14-8.6,24.44-14.41-4.16-6.33-7.74-16.22-3.42-20.15,4.06-3.7,13.93-1.05,20.56,2.71,5.72-7.45,10.37-15.66,13.77-24.38-6.84-3.46-15.01-10.27-13.3-15.78,1.62-5.18,11.55-7.7,19.23-7.66,1.11-9.07.96-18.42-.62-27.82-7.7.34-18.27-1.59-19.61-7.19-1.26-5.27,6.04-12.28,12.71-15.99-3.81-8.72-8.82-16.71-14.79-23.82-6.5,4.06-16.65,7.54-20.68,3.34-3.8-3.95-1.07-13.57,2.79-20.03-7.64-5.58-16.07-10.1-25.02-13.42-3.56,6.67-10.55,14.62-16.2,12.95-5.32-1.58-7.9-11.24-7.86-18.72-9.31-1.09-18.91-.94-28.56.6.15,3.33-.15,7.22-1.04,10.62v23.61c.69-.18,1.35-.41,2.04-.57Z"/><path class="cls-1" d="m4.86,730.57c29.86-6.75,59.79,11.42,66.73,40.51,6.93,29.09-11.72,58.25-41.58,65-10.32,2.33-20.62,1.63-30.01-1.41v4.52c9.75,2.9,20.36,3.46,31,1.05,32.27-7.3,52.36-38.7,44.87-70.14s-39.73-51.01-72-43.71c-1.32.3-2.59.7-3.87,1.08v4.45c1.59-.51,3.2-.98,4.86-1.35Z"/></g></g></svg>