<?xml version="1.0" encoding="UTF-8"?><svg id="Camada_2" xmlns="http://www.w3.org/2000/svg" viewBox="0 0 363.83 870.97"><defs><style>.cls-1{fill:#fff;}.cls-2,.cls-3{fill:none;}.cls-3{opacity:.3;}</style></defs><g id="Camada_1-2"><g class="cls-3"><path class="cls-1" d="m108.18,320.13c-3.8,0-7.46-5.97-8.96-10.99-6.55,1.15-12.77,3.22-18.55,6.07,1.76,4.97,2.58,12.27-.92,14.29-3.29,1.9-9.44-1.44-13.25-5.03-4.99,4.2-9.38,9.1-13.03,14.52,4,3.42,8.36,9.34,6.35,12.83-1.9,3.29-8.9,3.47-14.01,2.26-2.18,6.03-3.56,12.44-4,19.1,5.18.96,11.91,3.91,11.91,7.94,0,3.8-5.97,7.46-10.99,8.96,1.15,6.55,3.22,12.78,6.07,18.55,4.97-1.77,12.28-2.58,14.29.91,1.9,3.29-1.44,9.43-5.03,13.25,4.2,4.99,9.09,9.38,14.52,13.03,3.43-4,9.34-8.36,12.83-6.34,3.29,1.9,3.47,8.9,2.26,14.01,6.02,2.18,12.44,3.56,19.1,4,.96-5.18,3.9-11.9,7.93-11.9,3.8,0,7.46,5.97,8.96,10.99,6.55-1.15,12.77-3.22,18.55-6.07-1.76-4.97-2.58-12.27.92-14.29,3.29-1.9,9.43,1.43,13.25,5.03,4.99-4.2,9.38-9.1,13.03-14.52-4-3.43-8.36-9.34-6.34-12.83,1.9-3.29,8.9-3.48,14.01-2.26,2.18-6.03,3.56-12.44,4-19.1-5.18-.96-11.91-3.91-11.91-7.94,0-3.8,5.97-7.46,10.99-8.96-1.15-6.55-3.22-12.78-6.07-18.55-4.97,1.76-12.27,2.58-14.29-.91-1.9-3.29,1.44-9.43,5.03-13.25-4.2-4.99-9.09-9.39-14.52-13.03-3.42,4-9.34,8.36-12.83,6.35-3.29-1.9-3.47-8.91-2.26-14.01-6.02-2.18-12.44-3.56-19.1-4-.96,5.18-3.9,11.91-7.93,11.91Zm49.75,57.73c0,25.67-20.81,46.49-46.49,46.49s-46.49-20.81-46.49-46.49,20.81-46.49,46.49-46.49,46.49,20.81,46.49,46.49Z"/><path class="cls-1" d="m73.46,377.86c0-20.94,17.04-37.98,37.98-37.98s37.98,17.04,37.98,37.98-17.04,37.98-37.98,37.98-37.98-17.04-37.98-37.98m-3,0c0,22.63,18.35,40.98,40.98,40.98s40.98-18.35,40.98-40.98-18.35-40.98-40.98-40.98-40.98,18.35-40.98,40.98h0Z"/><path class="cls-1" d="m175.89,636.98c-3.69,0-7.24-5.8-8.7-10.68-6.36,1.12-12.4,3.13-18.01,5.89,1.71,4.82,2.5,11.92-.89,13.88-3.19,1.84-9.16-1.4-12.87-4.88-4.84,4.08-9.11,8.83-12.65,14.1,3.89,3.32,8.12,9.07,6.16,12.46-1.84,3.19-8.65,3.37-13.6,2.2-2.12,5.85-3.46,12.08-3.88,18.55,5.03.93,11.56,3.8,11.56,7.71,0,3.69-5.8,7.24-10.68,8.7,1.12,6.36,3.13,12.41,5.89,18.02,4.83-1.71,11.92-2.5,13.88.89,1.84,3.19-1.4,9.16-4.88,12.87,4.08,4.84,8.83,9.11,14.1,12.65,3.33-3.89,9.07-8.11,12.46-6.16,3.19,1.84,3.37,8.64,2.2,13.6,5.85,2.12,12.08,3.46,18.55,3.89.93-5.03,3.79-11.56,7.7-11.56,3.69,0,7.24,5.8,8.7,10.67,6.36-1.12,12.4-3.13,18.01-5.89-1.71-4.82-2.5-11.92.89-13.87,3.19-1.84,9.16,1.39,12.87,4.88,4.85-4.08,9.11-8.83,12.65-14.1-3.89-3.33-8.12-9.07-6.16-12.46,1.84-3.19,8.64-3.38,13.6-2.2,2.12-5.85,3.46-12.08,3.89-18.55-5.03-.94-11.56-3.8-11.56-7.71,0-3.69,5.8-7.24,10.68-8.7-1.12-6.36-3.13-12.41-5.89-18.02-4.82,1.71-11.92,2.51-13.88-.89-1.84-3.19,1.4-9.16,4.89-12.87-4.08-4.85-8.83-9.12-14.1-12.66-3.32,3.89-9.07,8.12-12.46,6.16-3.19-1.84-3.37-8.65-2.2-13.6-5.85-2.12-12.08-3.46-18.55-3.89-.93,5.03-3.79,11.56-7.7,11.56Zm48.31,56.06c0,24.93-20.21,45.14-45.14,45.14s-45.14-20.21-45.14-45.14,20.21-45.14,45.14-45.14,45.14,20.21,45.14,45.14Z"/><path class="cls-1" d="m142.18,693.04c0-20.33,16.54-36.88,36.88-36.88s36.88,16.54,36.88,36.88-16.54,36.88-36.88,36.88-36.88-16.54-36.88-36.88m-2.91,0c0,21.98,17.82,39.79,39.79,39.79s39.79-17.82,39.79-39.79-17.82-39.79-39.79-39.79-39.79,17.82-39.79,39.79h0Z"/><path class="cls-1" d="m253.33,205.62c-4.36,0-8.57-6.86-10.3-12.64-7.52,1.33-14.68,3.7-21.32,6.97,2.02,5.71,2.96,14.11-1.05,16.43-3.78,2.18-10.85-1.65-15.23-5.78-5.73,4.83-10.78,10.46-14.98,16.69,4.6,3.93,9.61,10.73,7.29,14.75-2.18,3.78-10.24,3.99-16.1,2.6-2.51,6.93-4.09,14.29-4.6,21.96,5.95,1.1,13.69,4.49,13.69,9.12,0,4.36-6.86,8.57-12.64,10.3,1.33,7.52,3.7,14.68,6.97,21.33,5.71-2.03,14.11-2.96,16.43,1.05,2.18,3.78-1.65,10.84-5.78,15.23,4.83,5.73,10.45,10.78,16.69,14.98,3.94-4.6,10.74-9.61,14.75-7.29,3.78,2.18,3.99,10.23,2.6,16.1,6.92,2.51,14.29,4.1,21.96,4.6,1.1-5.95,4.49-13.68,9.12-13.68,4.36,0,8.57,6.86,10.3,12.63,7.52-1.33,14.68-3.7,21.32-6.97-2.02-5.71-2.96-14.11,1.06-16.42,3.78-2.18,10.84,1.65,15.23,5.78,5.74-4.83,10.78-10.46,14.98-16.69-4.6-3.94-9.61-10.74-7.29-14.75,2.18-3.78,10.23-4,16.1-2.6,2.51-6.93,4.1-14.29,4.6-21.96-5.95-1.11-13.69-4.49-13.69-9.12,0-4.36,6.86-8.57,12.64-10.3-1.33-7.52-3.7-14.69-6.97-21.33-5.71,2.02-14.11,2.97-16.43-1.05-2.18-3.78,1.65-10.84,5.79-15.23-4.83-5.74-10.45-10.79-16.69-14.98-3.93,4.6-10.74,9.61-14.75,7.29-3.78-2.18-3.99-10.24-2.6-16.1-6.92-2.51-14.29-4.1-21.96-4.6-1.1,5.96-4.49,13.69-9.12,13.69Zm57.18,66.36c0,29.51-23.92,53.43-53.43,53.43s-53.43-23.92-53.43-53.43,23.92-53.43,53.43-53.43,53.43,23.92,53.43,53.43Z"/><path class="cls-1" d="m213.43,271.98c0-24.07,19.58-43.65,43.65-43.65s43.65,19.58,43.65,43.65-19.58,43.65-43.65,43.65-43.65-19.58-43.65-43.65m-3.45,0c0,26.01,21.09,47.1,47.1,47.1s47.1-21.09,47.1-47.1-21.09-47.1-47.1-47.1-47.1,21.09-47.1,47.1h0Z"/><path class="cls-1" d="m76.29,487.1c-4.36,0-8.57-6.86-10.3-12.64-7.52,1.33-14.68,3.7-21.32,6.97,2.02,5.71,2.96,14.11-1.06,16.43-3.78,2.18-10.85-1.65-15.23-5.78-5.73,4.83-10.78,10.45-14.98,16.69,4.6,3.93,9.61,10.73,7.29,14.75-2.18,3.78-10.24,3.99-16.1,2.6-2.51,6.93-4.09,14.29-4.6,21.96,5.95,1.1,13.69,4.49,13.69,9.12,0,4.36-6.86,8.57-12.64,10.3,1.33,7.52,3.7,14.68,6.97,21.33,5.71-2.03,14.11-2.96,16.43,1.05,2.18,3.78-1.65,10.84-5.78,15.23,4.83,5.73,10.45,10.78,16.69,14.98,3.94-4.6,10.74-9.61,14.75-7.29,3.78,2.18,3.99,10.23,2.6,16.1,6.92,2.51,14.29,4.1,21.96,4.6,1.1-5.95,4.49-13.68,9.12-13.68,4.36,0,8.57,6.86,10.3,12.63,7.52-1.33,14.68-3.71,21.32-6.98-2.02-5.71-2.96-14.11,1.06-16.42,3.78-2.18,10.84,1.65,15.23,5.78,5.74-4.83,10.78-10.46,14.98-16.69-4.6-3.94-9.61-10.74-7.29-14.75,2.18-3.78,10.23-4,16.1-2.6,2.51-6.93,4.1-14.29,4.6-21.96-5.95-1.11-13.69-4.49-13.69-9.12,0-4.36,6.86-8.57,12.64-10.3-1.33-7.52-3.71-14.68-6.97-21.33-5.71,2.02-14.11,2.97-16.43-1.05-2.18-3.78,1.65-10.84,5.79-15.23-4.83-5.74-10.45-10.79-16.69-14.98-3.93,4.6-10.74,9.61-14.75,7.29-3.78-2.18-3.99-10.24-2.6-16.1-6.92-2.51-14.29-4.1-21.96-4.6-1.1,5.96-4.49,13.69-9.12,13.69Zm57.18,66.36c0,29.51-23.92,53.43-53.43,53.43s-53.43-23.92-53.43-53.43,23.92-53.43,53.43-53.43,53.43,23.92,53.43,53.43Z"/><path class="cls-1" d="m36.39,553.46c0-24.07,19.58-43.65,43.65-43.65s43.65,19.58,43.65,43.65-19.58,43.65-43.65,43.65-43.65-19.58-43.65-43.65m-3.45,0c0,26.01,21.09,47.1,47.1,47.1s47.1-21.09,47.1-47.1-21.09-47.1-47.1-47.1-47.1,21.09-47.1,47.1h0Z"/><path class="cls-1" d="m175.31,88.29c-3.39,0-6.66-5.33-8-9.81-5.84,1.03-11.4,2.88-16.56,5.42,1.57,4.43,2.3,10.96-.82,12.76-2.93,1.69-8.42-1.28-11.83-4.49-4.45,3.75-8.37,8.12-11.63,12.96,3.57,3.05,7.46,8.33,5.66,11.45-1.69,2.94-7.95,3.1-12.5,2.02-1.95,5.38-3.18,11.1-3.57,17.05,4.62.86,10.63,3.49,10.63,7.08,0,3.39-5.33,6.65-9.81,8,1.03,5.84,2.88,11.4,5.42,16.56,4.44-1.58,10.96-2.3,12.76.82,1.69,2.93-1.28,8.42-4.49,11.83,3.75,4.45,8.11,8.37,12.96,11.63,3.06-3.57,8.34-7.46,11.46-5.66,2.94,1.69,3.1,7.94,2.02,12.5,5.38,1.95,11.1,3.18,17.05,3.57.86-4.62,3.48-10.63,7.08-10.63,3.39,0,6.66,5.33,8,9.81,5.84-1.03,11.4-2.88,16.56-5.42-1.57-4.43-2.3-10.95.82-12.75,2.93-1.69,8.42,1.28,11.83,4.49,4.46-3.75,8.38-8.12,11.63-12.96-3.57-3.06-7.46-8.34-5.66-11.45,1.69-2.94,7.94-3.1,12.5-2.02,1.95-5.38,3.18-11.1,3.57-17.05-4.62-.86-10.63-3.49-10.63-7.08,0-3.39,5.33-6.65,9.81-8-1.03-5.84-2.88-11.4-5.42-16.56-4.43,1.57-10.95,2.3-12.76-.82-1.69-2.93,1.28-8.42,4.49-11.83-3.75-4.46-8.11-8.38-12.96-11.63-3.05,3.57-8.34,7.46-11.46,5.66-2.94-1.69-3.1-7.95-2.02-12.5-5.38-1.95-11.1-3.18-17.05-3.57-.86,4.63-3.48,10.63-7.08,10.63Zm44.4,51.53c0,22.92-18.58,41.49-41.49,41.49s-41.49-18.58-41.49-41.49,18.58-41.49,41.49-41.49,41.49,18.58,41.49,41.49Z"/><path class="cls-1" d="m144.32,139.82c0-18.69,15.21-33.9,33.9-33.9s33.9,15.21,33.9,33.9-15.21,33.9-33.9,33.9-33.9-15.21-33.9-33.9m-2.68,0c0,20.2,16.38,36.58,36.58,36.58s36.57-16.38,36.57-36.58-16.37-36.58-36.57-36.58-36.58,16.38-36.58,36.58h0Z"/><path class="cls-2" d="m334.99,46.16c-28.69,6.66-46.62,35.43-39.96,64.12s35.43,46.62,64.13,39.96c1.59-.37,3.14-.83,4.67-1.34V47.55c-9.02-3-18.92-3.69-28.84-1.39Z"/><path class="cls-2" d="m332.29,34.5c-35.18,8.17-57.08,43.31-48.91,78.49,8.17,35.18,43.31,57.08,78.49,48.91.67-.16,1.3-.39,1.96-.56v-8.05c-1.23.37-2.45.77-3.72,1.06-31.01,7.2-61.99-12.1-69.19-43.12-7.2-31.01,12.1-61.99,43.12-69.19,10.22-2.37,20.42-1.82,29.79,1.04v-8.09c-10-2.66-20.76-3.01-31.54-.5Z"/><path class="cls-2" d="m295.39,773c0,29.46,23.97,53.43,53.43,53.43,5.21,0,10.24-.79,15.01-2.18v-102.48c-4.77-1.4-9.8-2.18-15.01-2.18-29.46,0-53.43,23.97-53.43,53.43Z"/><path class="cls-2" d="m303.39,426.1c-39.81,0-72.19,32.38-72.19,72.19s32.38,72.19,72.19,72.19c25.29,0,47.54-13.09,60.44-32.83v-78.72c-12.9-19.74-35.15-32.83-60.44-32.83Z"/><path class="cls-2" d="m215.03,498.29c0,48.8,39.56,88.37,88.37,88.37,23.38,0,44.63-9.1,60.44-23.93v-15.31c-14.28,17.55-36.05,28.77-60.44,28.77-43.02,0-77.9-34.88-77.9-77.9s34.88-77.89,77.9-77.89c24.39,0,46.15,11.22,60.44,28.77v-15.31c-15.81-14.83-37.05-23.93-60.44-23.93-48.8,0-88.37,39.56-88.37,88.37Z"/><path class="cls-2" d="m283.42,773c0,36.12,29.28,65.4,65.4,65.4,5.17,0,10.18-.66,15.01-1.8v-7.99c-4.79,1.29-9.81,2.04-15.01,2.04-31.84,0-57.65-25.81-57.65-57.65s25.81-57.65,57.65-57.65c5.2,0,10.22.75,15.01,2.04v-7.99c-4.83-1.14-9.84-1.8-15.01-1.8-36.12,0-65.4,29.28-65.4,65.4Z"/><path class="cls-1" d="m303.39,586.66c-48.8,0-88.37-39.56-88.37-88.37s39.56-88.37,88.37-88.37c23.38,0,44.63,9.1,60.44,23.93v-34.75c-4.01,2.03-7.95,2.78-10.94,1.05-6.25-3.61-6.6-16.93-4.3-26.63-11.45-4.15-23.64-6.77-36.31-7.61-1.82,9.85-7.42,22.64-15.08,22.64-7.22,0-14.18-11.35-17.04-20.9-12.44,2.19-24.28,6.13-35.26,11.53,3.35,9.44,4.9,23.33-1.74,27.17-6.24,3.61-17.94-2.73-25.19-9.56-9.48,7.99-17.84,17.29-24.77,27.61,7.61,6.51,15.89,17.75,12.06,24.39-3.61,6.25-16.93,6.6-26.63,4.3-4.15,11.46-6.77,23.64-7.6,36.31,9.85,1.82,22.64,7.43,22.64,15.09,0,7.22-11.35,14.17-20.9,17.03,2.19,12.44,6.13,24.29,11.53,35.27,9.45-3.36,23.34-4.9,27.17,1.74,3.61,6.25-2.73,17.93-9.56,25.19,7.98,9.48,17.27,17.84,27.6,24.77,6.51-7.61,17.76-15.89,24.4-12.06,6.25,3.61,6.6,16.92,4.3,26.62,11.45,4.15,23.64,6.77,36.31,7.61,1.82-9.84,7.42-22.63,15.08-22.63,7.22,0,14.18,11.35,17.04,20.89,12.44-2.2,24.28-6.13,35.26-11.54-3.35-9.44-4.9-23.33,1.74-27.16.06-.04.13-.06.2-.09v-27.41c-15.81,14.83-37.05,23.93-60.44,23.93Z"/><path class="cls-1" d="m303.39,570.48c-39.81,0-72.19-32.38-72.19-72.19s32.38-72.19,72.19-72.19c25.29,0,47.54,13.09,60.44,32.83v-9.77c-14.28-17.55-36.05-28.77-60.44-28.77-43.02,0-77.9,34.87-77.9,77.89s34.88,77.9,77.9,77.9c24.39,0,46.15-11.22,60.44-28.77v-9.77c-12.9,19.74-35.15,32.83-60.44,32.83Z"/><path class="cls-1" d="m348.82,838.4c-36.12,0-65.4-29.28-65.4-65.4s29.28-65.4,65.4-65.4c5.17,0,10.18.66,15.01,1.8v-33.4c-2.78-.43-5.59-.78-8.44-.97-1.35,7.29-5.49,16.75-11.16,16.75-5.34,0-10.49-8.4-12.61-15.47-9.21,1.62-17.97,4.53-26.1,8.54,2.48,6.99,3.62,17.27-1.29,20.11-4.62,2.67-13.28-2.02-18.64-7.08-7.02,5.91-13.2,12.8-18.33,20.43,5.63,4.81,11.76,13.14,8.93,18.05-2.67,4.63-12.53,4.88-19.71,3.18-3.07,8.48-5.01,17.49-5.63,26.87,7.29,1.35,16.75,5.5,16.75,11.17,0,5.34-8.4,10.49-15.47,12.6,1.62,9.21,4.53,17.97,8.54,26.1,6.99-2.48,17.27-3.63,20.11,1.29,2.67,4.62-2.02,13.27-7.08,18.64,5.91,7.02,12.79,13.2,20.43,18.33,4.82-5.63,13.14-11.76,18.06-8.92,4.63,2.67,4.89,12.52,3.19,19.7,8.47,3.07,17.49,5.01,26.87,5.63,1.35-7.29,5.49-16.75,11.16-16.75,3.97,0,7.83,4.64,10.43,9.92v-27.54c-4.83,1.14-9.84,1.8-15.01,1.8Z"/><path class="cls-1" d="m348.82,826.43c-29.46,0-53.43-23.97-53.43-53.43s23.97-53.43,53.43-53.43c5.21,0,10.24.79,15.01,2.18v-4.36c-4.79-1.29-9.81-2.04-15.01-2.04-31.84,0-57.65,25.81-57.65,57.65s25.81,57.65,57.65,57.65c5.2,0,10.22-.75,15.01-2.04v-4.36c-4.77,1.4-9.8,2.18-15.01,2.18Z"/><path class="cls-1" d="m361.87,161.91c-35.18,8.17-70.33-13.73-78.49-48.91-8.17-35.18,13.73-70.33,48.91-78.49,10.78-2.5,21.55-2.16,31.54.5v-17.48c-3.4-3.38-5.08-10.79-5.06-16.82-8.95-1.08-18.18-.93-27.45.59.33,7.41-1.56,17.56-7.08,18.84-5.2,1.21-12.12-5.81-15.78-12.21-8.6,3.66-16.48,8.48-23.49,14.22,4,6.25,7.43,16,3.29,19.88-3.9,3.65-13.39,1.03-19.76-2.68-5.5,7.35-9.96,15.45-13.23,24.05,6.58,3.42,14.43,10.13,12.78,15.56-1.55,5.11-11.1,7.59-18.48,7.56-1.07,8.95-.92,18.17.6,27.45,7.4-.33,17.56,1.57,18.84,7.09,1.21,5.2-5.81,12.12-12.21,15.78,3.66,8.6,8.48,16.48,14.22,23.49,6.25-4,16-7.44,19.88-3.29,3.65,3.9,1.03,13.38-2.68,19.76,7.34,5.5,15.44,9.97,24.04,13.24,3.42-6.58,10.14-14.42,15.57-12.77,5.11,1.55,7.59,11.09,7.56,18.47,8.95,1.08,18.18.93,27.45-.59-.15-3.29.15-7.12,1-10.47v-23.29c-.66.18-1.29.41-1.96.56Z"/><path class="cls-1" d="m359.16,150.25c-28.7,6.66-57.46-11.26-64.13-39.96s11.26-57.46,39.96-64.12c9.92-2.3,19.82-1.61,28.84,1.39v-4.46c-9.37-2.86-19.57-3.41-29.79-1.04-31.01,7.2-50.32,38.18-43.12,69.19,7.2,31.01,38.18,50.32,69.19,43.12,1.27-.29,2.49-.69,3.72-1.06v-4.39c-1.53.5-3.08.97-4.67,1.34Z"/></g></g></svg>