<?xml version="1.0" encoding="UTF-8"?><svg id="Camada_2" xmlns="http://www.w3.org/2000/svg" viewBox="0 0 161.65 65.07"><defs><style>.cls-1{fill:#fff;}.cls-2{fill:#0b3b4b;}.cls-3{fill:none;}</style></defs><g id="Camada_1-2"><path class="cls-2" d="m129.12,0H0l19.84,26.77L1.43,37.42l13.28,27.65h114.41c17.97,0,32.54-14.57,32.54-32.54h0c0-17.97-14.57-32.54-32.54-32.54Z"/><path class="cls-3" d="m76.67,26.85h-2.35v4.27h2.36c.74,0,1.31-.19,1.71-.56s.61-.89.61-1.55-.19-1.2-.57-1.58-.96-.58-1.75-.58Z"/><path class="cls-3" d="m65.93,28.67c0-.64-.19-1.11-.56-1.39s-.96-.42-1.77-.42h-2.05v3.58h2.17c1.48-.03,2.22-.62,2.22-1.77Z"/><path class="cls-3" d="m64.23,32.51h-2.69v3.84h2.51c.69,0,1.23-.16,1.62-.49s.58-.78.58-1.36c0-1.3-.67-1.96-2.02-1.98Z"/><path class="cls-3" d="m26,26.71c-.98,0-1.74.38-2.28,1.15s-.8,1.89-.81,3.36v.69c0,1.45.27,2.58.8,3.38s1.3,1.2,2.3,1.2,1.74-.39,2.27-1.16.79-1.9.8-3.37v-.69c0-1.49-.27-2.62-.8-3.4s-1.3-1.16-2.29-1.16Z"/><path class="cls-3" d="m7.25,36.49c.98,0,1.74-.39,2.27-1.16.49-.71.74-1.73.78-3.04l-5.3,3.06c.53.75,1.28,1.14,2.25,1.14Z"/><polygon class="cls-3" points="114.08 33.4 117.63 33.4 115.85 28.07 114.08 33.4"/><path class="cls-3" d="m101.98,26.85h-1.45v9.49h1.42c1.15,0,2.02-.37,2.63-1.12s.92-1.82.93-3.21v-.75c0-1.45-.3-2.54-.9-3.29s-1.47-1.12-2.63-1.12Z"/><polygon class="cls-3" points="87.83 33.4 91.38 33.4 89.6 28.07 87.83 33.4"/><path class="cls-1" d="m9.52,35.33c-.53.77-1.28,1.16-2.27,1.16s-1.72-.38-2.25-1.14l-2.36,1.36c.41.53.89.98,1.46,1.33.92.57,1.98.85,3.15.85s2.25-.29,3.17-.86,1.63-1.39,2.12-2.44.74-2.28.74-3.68v-.63c0-.24-.02-.47-.03-.7l-2.95,1.71c-.04,1.31-.3,2.33-.78,3.04Z"/><path class="cls-1" d="m29.16,25.14c-.92-.57-1.97-.85-3.16-.85s-2.24.28-3.16.85-1.63,1.39-2.14,2.45-.76,2.3-.76,3.7v.7c0,1.37.26,2.58.77,3.63s1.22,1.86,2.15,2.43,1.98.85,3.15.85c.37,0,.73-.03,1.07-.09l3.03,2.43,1.87-1.65-2.36-1.86c.76-.59,1.36-1.38,1.79-2.36s.64-2.13.64-3.46v-.63c0-1.39-.25-2.62-.76-3.69s-1.22-1.88-2.14-2.45Zm-.07,6.82c0,1.48-.27,2.6-.8,3.37s-1.28,1.16-2.27,1.16-1.77-.4-2.3-1.2-.8-1.93-.8-3.38v-.69c0-1.48.28-2.6.81-3.36s1.29-1.15,2.28-1.15,1.75.39,2.29,1.16.8,1.91.8,3.4v.69Z"/><path class="cls-1" d="m42.03,33.94c-.03,1.73-.86,2.6-2.51,2.6-.79,0-1.4-.21-1.85-.64s-.67-1.1-.67-2.04v-9.38h-2.93v9.47c.02,1.54.52,2.74,1.49,3.62s2.29,1.32,3.96,1.32,3.02-.45,3.99-1.36,1.46-2.14,1.46-3.69v-9.37h-2.94v9.46Z"/><polygon class="cls-1" points="50.3 32.54 55.92 32.54 55.92 30.24 50.3 30.24 50.3 26.85 56.88 26.85 56.88 24.48 47.37 24.48 47.37 38.7 56.9 38.7 56.9 36.34 50.3 36.34 50.3 32.54"/><path class="cls-1" d="m66.83,31.38c.64-.25,1.14-.64,1.49-1.17s.54-1.14.54-1.84c0-1.28-.45-2.24-1.34-2.91s-2.2-.99-3.93-.99h-4.98v14.22h5.53c1.61-.01,2.86-.37,3.73-1.07s1.31-1.74,1.31-3.11c0-.8-.21-1.48-.63-2.03s-.99-.92-1.72-1.1Zm-5.28-4.53h2.05c.81,0,1.4.14,1.77.42s.56.75.56,1.39c0,1.15-.74,1.74-2.22,1.77h-2.17v-3.58Zm4.13,9c-.39.33-.93.49-1.62.49h-2.51v-3.84h2.69c1.35.02,2.02.68,2.02,1.98,0,.58-.19,1.03-.58,1.36Z"/><path class="cls-1" d="m81.29,31.2c.42-.65.63-1.46.63-2.43,0-1.37-.46-2.43-1.37-3.17s-2.21-1.12-3.89-1.12h-5.28v14.22h2.93v-5.21h2.33l2.67,5.21h3.14v-.14l-3.08-5.81c.85-.38,1.49-.9,1.91-1.55Zm-2.91-.64c-.4.37-.97.56-1.71.56h-2.36v-4.27h2.35c.79,0,1.37.19,1.75.58s.57.91.57,1.58-.2,1.17-.61,1.55Z"/><path class="cls-1" d="m88.24,24.48l-5.29,14.22h3.12l.98-2.93h5.14l.99,2.93h3.12l-5.32-14.22h-2.71Zm-.41,8.92l1.77-5.32,1.79,5.32h-3.55Z"/><path class="cls-1" d="m105.33,25.32c-.99-.56-2.1-.84-3.35-.84h-4.38v14.22h4.4c1.24,0,2.36-.29,3.35-.86s1.76-1.36,2.3-2.39.82-2.2.82-3.53v-.65c0-1.32-.28-2.5-.83-3.54s-1.32-1.84-2.31-2.4Zm.17,6.68c-.01,1.39-.32,2.46-.93,3.21s-1.48,1.12-2.63,1.12h-1.42v-9.49h1.45c1.15,0,2.03.37,2.63,1.12s.9,1.84.9,3.29v.75Z"/><path class="cls-1" d="m117.2,24.48h-2.71l-5.29,14.22h3.12l.98-2.93h5.14l.99,2.93h3.12l-5.32-14.22Zm-3.12,8.92l1.77-5.32,1.79,5.32h-3.55Z"/></g></svg>