<?xml version="1.0" encoding="UTF-8"?><svg id="Camada_2" xmlns="http://www.w3.org/2000/svg" viewBox="0 0 141.2 65.07"><defs><style>.cls-1{fill:#fff;}.cls-2{fill:#0b3b4b;}.cls-3{fill:none;}</style></defs><g id="Camada_1-2"><path class="cls-2" d="m141.2,26.77L121.35,0H32.54C14.57,0,0,14.57,0,32.54h0c0,17.97,14.57,32.54,32.54,32.54h103.53l-13.28-27.65,18.42-10.65Z"/><polygon class="cls-3" points="87.05 33.4 90.61 33.4 88.82 28.07 87.05 33.4"/><polygon class="cls-3" points="43.14 33.4 46.69 33.4 44.9 28.07 43.14 33.4"/><path class="cls-3" d="m58.2,26.85h-2.35v4.27h2.36c.74,0,1.31-.19,1.71-.56s.61-.89.61-1.55-.19-1.2-.57-1.58-.97-.58-1.75-.58Z"/><path class="cls-1" d="m43.55,24.48l-5.29,14.22h3.12l.98-2.93h5.14l.99,2.93h3.12l-5.32-14.22h-2.71Zm-.41,8.92l1.77-5.32,1.79,5.32h-3.55Z"/><path class="cls-1" d="m62.82,31.2c.42-.65.63-1.46.63-2.43,0-1.37-.46-2.43-1.37-3.17s-2.21-1.12-3.89-1.12h-5.28v14.22h2.93v-5.21h2.33l2.67,5.21h3.14v-.14l-3.08-5.81c.85-.38,1.49-.9,1.91-1.55Zm-2.91-.64c-.4.37-.97.56-1.71.56h-2.36v-4.27h2.35c.79,0,1.37.19,1.75.58s.57.91.57,1.58-.2,1.17-.61,1.55Z"/><polygon class="cls-1" points="73.16 34.79 69.5 24.48 65.68 24.48 65.68 38.7 68.61 38.7 68.61 34.81 68.31 28.11 72.14 38.7 74.15 38.7 77.99 28.1 77.7 34.81 77.7 38.7 80.64 38.7 80.64 24.48 76.79 24.48 73.16 34.79"/><path class="cls-1" d="m87.46,24.48l-5.29,14.22h3.12l.98-2.93h5.14l.99,2.93h3.12l-5.32-14.22h-2.71Zm-.41,8.92l1.77-5.32,1.79,5.32h-3.55Z"/><path class="cls-1" d="m99.91,27.74c.48-.7,1.22-1.05,2.19-1.05.9,0,1.57.21,2.01.62s.69,1.08.77,2h2.93c-.16-1.59-.74-2.82-1.74-3.7s-2.32-1.32-3.96-1.32c-1.19,0-2.23.28-3.12.83s-1.58,1.36-2.07,2.4-.72,2.25-.72,3.61v.87c0,2.14.52,3.83,1.57,5.05.83.97,1.91,1.56,3.23,1.76l.04-.17h2.11l-.03.18c1.19-.15,2.19-.56,2.99-1.25,1.02-.88,1.58-2.08,1.69-3.61h-2.93c-.06.87-.32,1.51-.77,1.92s-1.12.62-2.03.62c-1,0-1.74-.35-2.2-1.06s-.7-1.83-.7-3.37v-1.07c.01-1.47.26-2.56.75-3.26Z"/><path class="cls-1" d="m101.03,38.64l-.04.17c.34.05.7.08,1.07.08s.71-.03,1.04-.07l.03-.18h-2.11Z"/><path class="cls-1" d="m100.99,38.81l-.27,1.23c.49.03.84.1,1.06.2s.33.29.33.56c0,.53-.36.79-1.09.79l.07,1.63c1.08,0,1.92-.21,2.51-.62s.89-.98.89-1.7c0-.95-.49-1.51-1.46-1.69l.07-.38c-.33.04-.68.07-1.04.07s-.73-.03-1.07-.08Z"/><path class="cls-1" d="m113.4,22.81c.16-.16.35-.24.58-.24.18,0,.34.02.49.06s.39.15.73.34.6.3.8.36.41.08.66.08c.62,0,1.14-.25,1.57-.75s.64-1.11.64-1.85l-1.63-.11c0,.3-.08.53-.25.69s-.36.24-.59.24c-.16,0-.32-.02-.47-.06s-.42-.15-.81-.34-.67-.31-.84-.36-.36-.07-.55-.07c-.62,0-1.14.25-1.57.76s-.64,1.12-.64,1.85l1.64.1c0-.3.08-.53.24-.69Z"/><path class="cls-1" d="m113.8,24.48l-5.29,14.22h3.12l.98-2.93h5.14l.99,2.93h3.12l-5.32-14.22h-2.71Zm-.41,8.92l1.77-5.32,1.79,5.32h-3.55Z"/><path class="cls-1" d="m131.75,25.14c-.92-.57-1.97-.85-3.16-.85s-2.24.28-3.16.85-1.63,1.39-2.14,2.45-.76,2.3-.76,3.7v.7c0,1.37.26,2.58.77,3.63.2.41.43.77.69,1.1l2.36-1.36s-.04-.04-.05-.06c-.53-.8-.8-1.93-.8-3.38v-.69c0-1.48.28-2.6.81-3.36s1.29-1.15,2.28-1.15,1.75.39,2.29,1.16.8,1.91.8,3.4v.69c0,.12-.01.22-.02.33l2.95-1.71c-.07-1.11-.31-2.11-.72-2.99-.5-1.06-1.22-1.88-2.14-2.45Z"/></g></svg>