<?xml version="1.0" encoding="UTF-8"?><svg id="Camada_2" xmlns="http://www.w3.org/2000/svg" viewBox="0 0 161.65 65.07"><defs><style>.cls-1{fill:#fff;}.cls-2{fill:#0b3b4b;}.cls-3{fill:none;}</style></defs><g id="Camada_1-2"><path class="cls-2" d="m129.12,0H0l19.84,26.77L1.43,37.42l13.28,27.65h114.41c17.97,0,32.54-14.57,32.54-32.54h0c0-17.97-14.57-32.54-32.54-32.54Z"/><path class="cls-3" d="m50.41,17.69h-2.69v4.46h2.62c.77,0,1.37-.18,1.77-.55.41-.36.61-.89.61-1.56s-.21-1.26-.62-1.69-.98-.65-1.7-.66Z"/><polygon class="cls-3" points="71.87 48.23 75.42 48.23 73.63 42.91 71.87 48.23"/><path class="cls-3" d="m87.58,27.33c.98,0,1.74-.39,2.27-1.16s.79-1.9.8-3.37v-.69c0-1.49-.27-2.62-.8-3.4-.53-.77-1.3-1.16-2.29-1.16s-1.74.38-2.28,1.15c-.53.77-.8,1.89-.81,3.36v.69c0,1.45.27,2.58.8,3.38.53.8,1.3,1.2,2.3,1.2Z"/><polygon class="cls-3" points="135.26 24.23 138.81 24.23 137.03 18.91 135.26 24.23"/><polygon class="cls-3" points="72.39 24.23 75.94 24.23 74.16 18.91 72.39 24.23"/><path class="cls-3" d="m86.02,41.69h-1.45v9.49h1.42c1.15,0,2.02-.37,2.63-1.12s.91-1.82.93-3.21v-.75c0-1.45-.3-2.54-.9-3.29-.6-.75-1.47-1.12-2.63-1.12Z"/><polygon class="cls-3" points="98.12 48.23 101.67 48.23 99.88 42.91 98.12 48.23"/><path class="cls-1" d="m21.65,28.87c.92-.57,1.63-1.39,2.12-2.44.49-1.05.74-2.28.74-3.68v-.63c0-1.39-.25-2.62-.76-3.69-.5-1.06-1.22-1.88-2.14-2.45-.92-.57-1.97-.85-3.16-.85s-2.24.28-3.16.85c-.79.49-1.42,1.17-1.9,2.02l2.07,2.79c.12-.86.35-1.57.72-2.09.53-.77,1.29-1.15,2.28-1.15s1.75.39,2.29,1.16c.53.77.8,1.91.8,3.4v.69c0,1.48-.27,2.6-.8,3.37-.21.31-.47.54-.75.72l.19.25-3.83,2.21c.66.24,1.36.37,2.13.37,1.19,0,2.25-.29,3.17-.86Z"/><path class="cls-1" d="m31.96,29.73c1.69,0,3.02-.45,3.99-1.36.97-.9,1.46-2.14,1.46-3.69v-9.37h-2.94v9.46c-.03,1.73-.86,2.6-2.51,2.6-.79,0-1.41-.21-1.85-.64-.45-.43-.67-1.1-.67-2.04v-9.38h-2.93v9.47c.02,1.54.52,2.74,1.49,3.62s2.29,1.32,3.96,1.32Z"/><path class="cls-1" d="m55.03,17.57c-.44-.72-1.06-1.27-1.87-1.67s-1.75-.59-2.82-.59h-5.55v14.22h2.93v-5.01h2.57c1.69,0,3.01-.4,3.96-1.21.95-.8,1.43-1.9,1.43-3.3,0-.92-.22-1.74-.65-2.46Zm-2.92,4.04c-.41.36-1,.55-1.77.55h-2.62v-4.46h2.69c.72.01,1.29.23,1.7.66s.62.99.62,1.69-.2,1.2-.61,1.56Z"/><polygon class="cls-1" points="60.62 15.32 57.69 15.32 57.69 29.54 66.84 29.54 66.84 27.18 60.62 27.18 60.62 15.32"/><path class="cls-1" d="m72.8,15.32l-5.29,14.22h3.12l.98-2.93h5.14l.99,2.93h3.12l-5.32-14.22h-2.71Zm-.41,8.92l1.77-5.32,1.79,5.32h-3.55Z"/><path class="cls-1" d="m84.43,28.88c.92.57,1.98.85,3.15.85.37,0,.73-.03,1.07-.09l3.03,2.43,1.87-1.65-2.36-1.86c.76-.59,1.36-1.38,1.79-2.36s.64-2.13.64-3.46v-.63c0-1.39-.25-2.62-.76-3.69-.5-1.06-1.22-1.88-2.14-2.45-.92-.57-1.97-.85-3.16-.85s-2.24.28-3.16.85c-.92.57-1.63,1.39-2.14,2.45-.5,1.06-.76,2.3-.76,3.7v.7c0,1.37.26,2.58.77,3.63s1.22,1.86,2.15,2.43Zm.05-6.83c0-1.48.28-2.6.81-3.36.53-.77,1.29-1.15,2.28-1.15s1.75.39,2.29,1.16c.53.77.8,1.91.8,3.4v.69c0,1.48-.27,2.6-.8,3.37s-1.28,1.16-2.27,1.16-1.77-.4-2.3-1.2c-.53-.8-.8-1.93-.8-3.38v-.69Z"/><path class="cls-1" d="m101.08,29.73c1.69,0,3.02-.45,3.99-1.36.97-.9,1.46-2.14,1.46-3.69v-9.37h-2.94v9.46c-.03,1.73-.86,2.6-2.51,2.6-.79,0-1.41-.21-1.85-.64-.45-.43-.67-1.1-.67-2.04v-9.38h-2.93v9.47c.02,1.54.52,2.74,1.49,3.62s2.29,1.32,3.96,1.32Z"/><polygon class="cls-1" points="111.86 23.37 117.49 23.37 117.49 21.08 111.86 21.08 111.86 17.69 118.44 17.69 118.44 15.32 108.93 15.32 108.93 29.54 118.46 29.54 118.46 27.18 111.86 27.18 111.86 23.37"/><polygon class="cls-1" points="131.08 15.32 119.5 15.32 119.5 17.69 123.8 17.69 123.8 29.54 126.72 29.54 126.72 17.69 131.08 17.69 131.08 15.32"/><path class="cls-1" d="m138.38,15.32h-2.71l-5.29,14.22h3.12l.98-2.93h5.14l.99,2.93h3.12l-5.32-14.22Zm-3.12,8.92l1.77-5.32,1.79,5.32h-3.55Z"/><path class="cls-1" d="m10.81,48.33l2.67,5.21h3.14v-.14l-3.08-5.81c.85-.38,1.49-.9,1.91-1.55s.63-1.46.63-2.43c0-1.37-.46-2.43-1.37-3.17-.91-.75-2.21-1.12-3.89-1.12h-5.28v6.35l2.93,6.1v-3.44h2.33Zm-2.33-6.64h2.35c.79,0,1.37.19,1.75.58s.57.91.57,1.58-.2,1.17-.61,1.55c-.4.37-.97.56-1.71.56h-2.36v-4.27Z"/><path class="cls-1" d="m22.4,39.32l-5.29,14.22h3.12l.98-2.93h5.14l.99,2.93h3.12l-5.32-14.22h-2.71Zm-.41,8.92l1.77-5.32,1.79,5.32h-3.55Z"/><polygon class="cls-1" points="31.77 53.54 34.7 53.54 34.7 47.73 40.32 47.73 40.32 45.36 34.7 45.36 34.7 41.69 41.03 41.69 41.03 39.32 31.77 39.32 31.77 53.54"/><path class="cls-1" d="m50.55,48.78c-.03,1.73-.86,2.6-2.51,2.6-.79,0-1.41-.21-1.85-.64-.45-.43-.67-1.1-.67-2.04v-9.38h-2.93v9.47c.02,1.54.52,2.74,1.49,3.62s2.29,1.32,3.96,1.32,3.02-.45,3.99-1.36c.97-.9,1.46-2.14,1.46-3.69v-9.37h-2.94v9.46Z"/><path class="cls-1" d="m59.26,41.91c.4-.3.95-.45,1.67-.45s1.32.18,1.73.54.62.87.62,1.52h2.93c0-.85-.22-1.61-.66-2.29s-1.06-1.19-1.85-1.56c-.79-.37-1.7-.55-2.71-.55s-1.92.17-2.73.51-1.43.81-1.87,1.41c-.43.6-.65,1.29-.65,2.06,0,1.48.81,2.65,2.42,3.53.59.32,1.4.64,2.41.97s1.72.64,2.11.94.59.72.59,1.27c0,.51-.2.9-.59,1.19s-.93.42-1.63.42c-1.88,0-2.81-.78-2.81-2.35h-2.94c0,.92.24,1.73.71,2.42.47.7,1.16,1.25,2.06,1.65s1.89.6,2.99.6c1.58,0,2.83-.35,3.76-1.05.93-.7,1.4-1.67,1.4-2.9,0-1.11-.38-2.03-1.14-2.77s-1.98-1.36-3.64-1.87c-.91-.27-1.59-.57-2.06-.88-.47-.31-.7-.7-.7-1.16,0-.49.2-.89.6-1.2Z"/><path class="cls-1" d="m72.28,39.32l-5.29,14.22h3.12l.98-2.93h5.14l.99,2.93h3.12l-5.32-14.22h-2.71Zm-.41,8.92l1.77-5.32,1.79,5.32h-3.55Z"/><path class="cls-1" d="m89.37,40.16c-.99-.56-2.1-.84-3.35-.84h-4.38v14.22h4.4c1.24,0,2.36-.29,3.35-.86.99-.57,1.76-1.36,2.3-2.39.54-1.03.82-2.2.82-3.53v-.65c0-1.32-.28-2.5-.83-3.54-.55-1.04-1.32-1.84-2.31-2.4Zm.17,6.68c-.01,1.39-.32,2.46-.93,3.21s-1.48,1.12-2.63,1.12h-1.42v-9.49h1.45c1.15,0,2.03.37,2.63,1.12.6.75.9,1.84.9,3.29v.75Z"/><path class="cls-1" d="m98.53,39.32l-5.29,14.22h3.12l.98-2.93h5.14l.99,2.93h3.12l-5.32-14.22h-2.71Zm-.41,8.92l1.77-5.32,1.79,5.32h-3.55Z"/></g></svg>