<?xml version="1.0" encoding="UTF-8"?><svg id="Camada_2" xmlns="http://www.w3.org/2000/svg" viewBox="0 0 161.65 65.07"><defs><style>.cls-1{fill:#fff;}.cls-2{fill:#0b3b4b;}.cls-3{fill:none;}</style></defs><g id="Camada_1-2"><path class="cls-2" d="m129.12,0H0l19.84,26.77L1.43,37.42l13.28,27.65h114.41c17.97,0,32.54-14.57,32.54-32.54h0c0-17.97-14.57-32.54-32.54-32.54Z"/><polygon class="cls-3" points="92.18 36.24 95.74 36.24 93.95 30.92 92.18 36.24"/><polygon class="cls-3" points="30.89 36.24 34.45 36.24 32.66 30.92 30.89 36.24"/><path class="cls-3" d="m106.33,29.7h-1.45v9.49h1.42c1.15,0,2.02-.37,2.63-1.12s.92-1.82.93-3.21v-.75c0-1.45-.3-2.54-.9-3.29s-1.47-1.12-2.63-1.12Z"/><polygon class="cls-3" points="118.43 36.24 121.99 36.24 120.2 30.92 118.43 36.24"/><polygon class="cls-1" points="3.67 41.54 13.2 41.54 13.2 39.19 6.6 39.19 6.6 35.38 12.22 35.38 12.22 33.09 9.91 33.09 3.67 36.7 3.67 41.54"/><path class="cls-1" d="m20.18,27.14c-.06,0-.11,0-.17,0-1.01,0-1.92.17-2.73.51s-1.43.81-1.87,1.41c-.26.36-.43.75-.53,1.17l5.31-3.07h0Z"/><path class="cls-1" d="m18.29,29.92c.4-.3.95-.45,1.67-.45s1.32.18,1.73.54.62.87.62,1.52h2.93c0-.85-.22-1.61-.66-2.29s-1.06-1.19-1.85-1.56c-.75-.35-1.6-.52-2.54-.54h0s-5.31,3.08-5.31,3.08c-.07.28-.12.58-.12.89,0,1.48.81,2.65,2.42,3.53.59.32,1.4.64,2.41.97s1.72.64,2.11.94.59.72.59,1.27c0,.51-.2.9-.59,1.19s-.93.42-1.63.42c-1.88,0-2.81-.78-2.81-2.35h-2.94c0,.92.24,1.73.71,2.42s1.16,1.25,2.06,1.65,1.89.6,2.99.6c1.58,0,2.83-.35,3.76-1.05s1.4-1.67,1.4-2.9c0-1.11-.38-2.03-1.14-2.77s-1.98-1.36-3.64-1.87c-.91-.27-1.59-.57-2.06-.88s-.7-.7-.7-1.16c0-.49.2-.89.6-1.2Z"/><path class="cls-1" d="m31.3,27.32l-5.29,14.22h3.12l.98-2.93h5.14l.99,2.93h3.12l-5.32-14.22h-2.71Zm-.41,8.92l1.77-5.32,1.79,5.32h-3.55Z"/><path class="cls-1" d="m46.4,37.17c0,.71-.17,1.26-.5,1.64s-.78.58-1.34.58c-.63,0-1.09-.17-1.39-.5s-.44-.85-.44-1.54h-2.95c0,1.4.42,2.48,1.26,3.25s2.01,1.15,3.52,1.15c.92,0,1.74-.19,2.47-.57.73-.38,1.29-.91,1.69-1.61s.6-1.49.6-2.4v-9.84h-2.93v9.84Z"/><path class="cls-1" d="m59.66,36.79c-.03,1.73-.86,2.6-2.51,2.6-.79,0-1.4-.21-1.85-.64s-.67-1.1-.67-2.04v-9.38h-2.93v9.47c.02,1.54.52,2.74,1.49,3.62s2.29,1.32,3.96,1.32,3.02-.45,3.99-1.36,1.46-2.14,1.46-3.69v-9.37h-2.94v9.46Z"/><path class="cls-1" d="m68.37,29.92c.4-.3.95-.45,1.67-.45s1.32.18,1.73.54.62.87.62,1.52h2.93c0-.85-.22-1.61-.66-2.29s-1.06-1.19-1.85-1.56-1.7-.55-2.71-.55-1.92.17-2.73.51-1.43.81-1.87,1.41-.65,1.29-.65,2.06c0,1.48.81,2.65,2.42,3.53.59.32,1.4.64,2.41.97s1.72.64,2.11.94.59.72.59,1.27c0,.51-.2.9-.59,1.19s-.93.42-1.63.42c-1.88,0-2.81-.78-2.81-2.35h-2.94c0,.92.24,1.73.71,2.42s1.16,1.25,2.06,1.65,1.89.6,2.99.6c1.58,0,2.83-.35,3.76-1.05s1.4-1.67,1.4-2.9c0-1.11-.38-2.03-1.14-2.77s-1.98-1.36-3.64-1.87c-.91-.27-1.59-.57-2.06-.88s-.7-.7-.7-1.16c0-.49.2-.89.6-1.2Z"/><polygon class="cls-1" points="88 27.32 76.42 27.32 76.42 29.7 80.72 29.7 80.72 41.54 83.65 41.54 83.65 29.7 88 29.7 88 27.32"/><path class="cls-1" d="m92.59,27.32l-5.29,14.22h3.12l.98-2.93h5.14l.99,2.93h3.12l-5.32-14.22h-2.71Zm-.41,8.92l1.77-5.32,1.79,5.32h-3.55Z"/><path class="cls-1" d="m109.69,28.17c-.99-.56-2.1-.84-3.35-.84h-4.38v14.22h4.4c1.24,0,2.36-.29,3.35-.86s1.76-1.36,2.3-2.39.82-2.2.82-3.53v-.65c0-1.32-.28-2.5-.83-3.54s-1.32-1.84-2.31-2.4Zm.17,6.68c-.01,1.39-.32,2.46-.93,3.21s-1.48,1.12-2.63,1.12h-1.42v-9.49h1.45c1.15,0,2.03.37,2.63,1.12s.9,1.84.9,3.29v.75Z"/><path class="cls-1" d="m118.84,27.32l-5.29,14.22h3.12l.98-2.93h5.14l.99,2.93h3.12l-5.32-14.22h-2.71Zm-.41,8.92l1.77-5.32,1.79,5.32h-3.55Z"/><path class="cls-1" d="m133.74,33.15c-.91-.27-1.59-.57-2.06-.88s-.7-.7-.7-1.16c0-.49.2-.89.6-1.2s.95-.45,1.67-.45,1.32.18,1.73.54.62.87.62,1.52h2.93c0-.85-.22-1.61-.66-2.29s-1.06-1.19-1.85-1.56-1.7-.55-2.71-.55-1.92.17-2.73.51-1.43.81-1.87,1.41-.65,1.29-.65,2.06c0,1.48.81,2.65,2.42,3.53.59.32,1.4.64,2.41.97s1.72.64,2.11.94.59.72.59,1.27c0,.51-.2.9-.59,1.19s-.93.42-1.63.42c-1.88,0-2.81-.78-2.81-2.35h-2.94c0,.92.24,1.73.71,2.42s1.16,1.25,2.06,1.65,1.89.6,2.99.6c1.58,0,2.83-.35,3.76-1.05s1.4-1.67,1.4-2.9c0-1.11-.38-2.03-1.14-2.77s-1.98-1.36-3.64-1.87Z"/></g></svg>