<?xml version="1.0" encoding="UTF-8"?><svg id="Camada_2" xmlns="http://www.w3.org/2000/svg" viewBox="0 0 141.2 65.07"><defs><style>.cls-1{fill:#fff;}.cls-2{fill:#0b3b4b;}.cls-3{fill:none;}</style></defs><g id="Camada_1-2"><path class="cls-2" d="m141.2,26.77L121.35,0H32.54C14.57,0,0,14.57,0,32.54h0c0,17.97,14.57,32.54,32.54,32.54h103.53l-13.28-27.65,18.42-10.65Z"/><path class="cls-3" d="m116.4,29.7h-1.45v9.49h1.42c1.15,0,2.02-.37,2.63-1.12s.92-1.82.93-3.21v-.75c0-1.45-.3-2.54-.9-3.29s-1.47-1.12-2.63-1.12Z"/><polygon class="cls-3" points="49.05 36.24 52.61 36.24 50.82 30.92 49.05 36.24"/><polygon class="cls-1" points="39.71 33.09 34 33.09 34 27.32 31.07 27.32 31.07 41.54 34 41.54 34 35.45 39.71 35.45 39.71 41.54 42.64 41.54 42.64 27.32 39.71 27.32 39.71 33.09"/><path class="cls-1" d="m49.46,27.32l-5.29,14.22h3.12l.98-2.93h5.14l.99,2.93h3.12l-5.32-14.22h-2.71Zm-.41,8.92l1.77-5.32,1.79,5.32h-3.55Z"/><path class="cls-1" d="m62.2,29.92c.4-.3.95-.45,1.67-.45s1.32.18,1.73.54.62.87.62,1.52h2.93c0-.85-.22-1.61-.66-2.29s-1.06-1.19-1.85-1.56-1.7-.55-2.71-.55-1.92.17-2.73.51-1.43.81-1.87,1.41-.65,1.29-.65,2.06c0,1.48.81,2.65,2.42,3.53.59.32,1.4.64,2.41.97s1.72.64,2.11.94.59.72.59,1.27c0,.51-.2.9-.59,1.19s-.93.42-1.63.42c-1.88,0-2.81-.78-2.81-2.35h-2.94c0,.92.24,1.73.71,2.42s1.16,1.25,2.06,1.65,1.89.6,2.99.6c1.58,0,2.83-.35,3.76-1.05s1.4-1.67,1.4-2.9c0-1.11-.38-2.03-1.14-2.77s-1.98-1.36-3.64-1.87c-.91-.27-1.59-.57-2.06-.88s-.7-.7-.7-1.16c0-.49.2-.89.6-1.2Z"/><polygon class="cls-1" points="70.25 29.7 74.54 29.7 74.54 41.54 77.47 41.54 77.47 29.7 81.83 29.7 81.83 27.32 70.25 27.32 70.25 29.7"/><polygon class="cls-1" points="86.43 35.38 92.05 35.38 92.05 33.09 86.43 33.09 86.43 29.7 93.01 29.7 93.01 27.32 83.5 27.32 83.5 41.54 93.03 41.54 93.03 39.19 86.43 39.19 86.43 35.38"/><path class="cls-1" d="m98.12,29.92c.4-.3.95-.45,1.67-.45s1.32.18,1.73.54.62.87.62,1.52h2.93c0-.85-.22-1.61-.66-2.29s-1.06-1.19-1.85-1.56-1.7-.55-2.71-.55-1.92.17-2.73.51-1.43.81-1.87,1.41-.65,1.29-.65,2.06c0,1.48.81,2.65,2.42,3.53.59.32,1.4.64,2.41.97s1.72.64,2.11.94.59.72.59,1.27c0,.51-.2.9-.59,1.19s-.93.42-1.63.42c-1.88,0-2.81-.78-2.81-2.35h-2.94c0,.92.24,1.73.71,2.42s1.16,1.25,2.06,1.65,1.89.6,2.99.6c1.58,0,2.83-.35,3.76-1.05s1.4-1.67,1.4-2.9c0-1.11-.38-2.03-1.14-2.77s-1.98-1.36-3.64-1.87c-.91-.27-1.59-.57-2.06-.88s-.7-.7-.7-1.16c0-.49.2-.89.6-1.2Z"/><path class="cls-1" d="m119.75,28.17c-.99-.56-2.1-.84-3.35-.84h-4.38v14.22h4.4c1.24,0,2.36-.29,3.35-.86s1.76-1.36,2.3-2.39.82-2.2.82-3.53v-.65c0-1.32-.28-2.5-.83-3.54s-1.32-1.84-2.31-2.4Zm.17,6.68c-.01,1.39-.32,2.46-.93,3.21s-1.48,1.12-2.63,1.12h-1.42v-9.49h1.45c1.15,0,2.03.37,2.63,1.12s.9,1.84.9,3.29v.75Z"/><polygon class="cls-1" points="127.95 29.7 134.53 29.7 134.53 27.32 125.02 27.32 125.02 36.7 131.27 33.09 127.95 33.09 127.95 29.7"/></g></svg>