<?xml version="1.0" encoding="UTF-8"?><svg id="Camada_2" xmlns="http://www.w3.org/2000/svg" viewBox="0 0 74.88 74.93"><defs><style>.cls-1{fill:#2a80ba;}.cls-2{fill:#f0c419;}.cls-3{fill:#ff5364;}.cls-4{fill:#f3d55c;}.cls-5{fill:#f3d55b;}</style></defs><g id="Camada_1-2"><path class="cls-3" d="m72.98,0c.92.44,1.7,1.02,1.86,2.12.12.8-.02,1.54-.62,2.14C50.95,27.53,27.67,50.81,4.39,74.08c-1.4,1.4-3.41,1-4.23-.86-.04-.08-.1-.15-.15-.23,0-.49,0-.98,0-1.46.63-.75,1.21-1.56,1.9-2.25C24.24,46.91,46.59,24.56,68.95,2.22c.8-.8,1.71-1.48,2.57-2.22.49,0,.98,0,1.46,0Z"/><path class="cls-5" d="m37.59,0c.77.5.83,1.21.67,2.04-.14.71-.17,1.43-.23,2.15-.2,2.3-.39,4.61-.58,6.91-.06.67-.1,1.35-.15,2.02-.06.88-.39,1.28-1.29,1.34-.82.05-1.66.06-2.48,0-.64-.05-1.1-.48-1.19-1.1-.16-1.1-.22-2.21-.31-3.31-.14-1.66-.29-3.32-.43-4.98-.1-1.2-.19-2.4-.31-3.61C31.23.75,31.7.38,32.18,0h5.41Z"/><path class="cls-5" d="m0,32.03c.69-.83,1.63-.62,2.5-.56,1.61.1,3.22.26,4.83.41,2.04.19,4.08.39,6.12.58.63.06.89.41.88,1.02,0,.83-.06,1.66.01,2.48.08.9-.31,1.36-1.39,1.46-2.6.24-5.2.4-7.81.6-1.16.09-2.31.17-3.46.3-.73.08-1.28-.13-1.68-.74v-5.56Z"/><path class="cls-2" d="m43.08,24.33c-6.25,6.25-12.51,12.51-18.76,18.76-3.25-4.32-3.44-11.27.83-16.36,4.7-5.59,12.8-6,17.93-2.4Z"/><path class="cls-4" d="m22.8,18.08c-.29-.22-.69-.4-.9-.7-2.28-3.24-4.55-6.5-6.8-9.77-.54-.78-.36-1.38.48-1.87,1.2-.7,2.4-1.39,3.6-2.08.96-.55,1.58-.36,2.06.65,1.65,3.47,3.29,6.95,4.92,10.43.39.83.23,1.39-.54,1.86-.64.39-1.3.76-1.96,1.13-.23.13-.48.2-.86.36Z"/><path class="cls-4" d="m55.02,6.74c-.25.5-.39.86-.6,1.17-2.13,3.08-4.27,6.16-6.42,9.24-.66.94-1.14,1.05-2.13.47-.61-.36-1.23-.7-1.83-1.07-.79-.5-.89-.93-.5-1.75,1.63-3.45,3.26-6.91,4.88-10.37.52-1.11,1.15-1.34,2.2-.73,1.16.67,2.33,1.32,3.46,2.03.37.23.61.66.93,1.02Z"/><path class="cls-4" d="m18.02,46.94c-.2.28-.36.69-.66.9-3.2,2.26-6.42,4.49-9.65,6.71-.85.58-1.49.41-2.01-.48-.71-1.22-1.42-2.44-2.12-3.67-.46-.81-.25-1.45.58-1.85,3.43-1.63,6.86-3.25,10.29-4.86,1.23-.58,1.7-.41,2.37.79.27.49.58.96.83,1.46.14.27.21.58.36.99Z"/><path class="cls-4" d="m6.79,14.79c.41.16.7.23.93.38,3.19,2.2,6.37,4.41,9.54,6.63.71.5.86,1.08.45,1.87-.33.65-.71,1.28-1.09,1.9-.5.81-1.05.98-1.91.57-3-1.41-5.99-2.83-8.98-4.24-.55-.26-1.11-.5-1.65-.78-.72-.38-.93-1-.54-1.72.73-1.32,1.48-2.64,2.28-3.91.2-.32.65-.48.97-.71Z"/><path class="cls-1" d="m42.01,45.74c-.36,1.29-.72,2.49-1.04,3.69-.71,2.65-1.41,5.3-2.07,7.96-.09.38-.07.88.1,1.23,1.68,3.48,3.39,6.95,5.1,10.42.43.87.72,1.73.37,2.7-.33.91-1.46,1.89-2.39,1.79-.92-.1-1.82-.41-2.3-1.39-.9-1.85-1.84-3.68-2.76-5.52-.1-.21-.21-.41-.4-.79-.39,1.39-.74,2.59-1.06,3.8-.31,1.15-.58,2.31-.9,3.46-.33,1.21-1.93,2.1-3.13,1.76-1.37-.38-2.22-1.81-1.88-3.13.6-2.33,1.2-4.65,1.85-7.14-.31.16-.51.24-.69.36-1.61,1.07-3.23,2.14-4.83,3.23-2.05,1.38-3.99.14-4.29-1.91-.15-1.06.55-1.89,1.44-2.49,3.19-2.14,6.36-4.3,9.57-6.4.64-.42,1.03-.92,1.22-1.63.88-3.3,1.76-6.59,2.65-9.88.06-.24.2-.49.37-.66,2.7-2.71,5.36-5.46,8.14-8.09.59-.55,1.58-.73,2.41-.96,2.88-.81,5.78-1.56,8.66-2.36.29-.08.6-.29.77-.53,2.3-3.37,4.57-6.76,6.84-10.15.69-1.03,1.63-1.53,2.85-1.3,1.12.21,1.78.96,2.06,2.07.21.8-.11,1.48-.52,2.1-1.19,1.81-2.41,3.61-3.76,5.62,1.15-.31,2.09-.56,3.03-.81,1.29-.35,2.57-.79,3.88-1.04,1.54-.29,2.97-.01,3.5,2.01.31,1.19-.46,2.52-1.78,2.91-2.36.7-4.75,1.32-7.25,2,.78.4,1.49.76,2.21,1.11,1.33.65,2.69,1.24,3.99,1.94,1.15.62,1.61,1.57,1.4,2.77-.22,1.23-1.39,2.26-2.53,2.24-.41,0-.85-.16-1.23-.35-3.36-1.64-6.72-3.27-10.04-4.98-.98-.51-1.87-.67-2.95-.36-3.43.98-6.89,1.88-10.33,2.81-.15.04-.3.12-.49.2.16.17.29.34.44.49,2.72,2.72,5.45,5.44,8.16,8.18.33.34.67.46,1.14.48,2.72.16,5.44.38,8.16.56,1.18.08,2.37.09,3.56.16,1.53.08,2.4.81,2.68,2.05.42,1.86-1.02,3.22-2.42,3.19-2.05-.05-4.09-.26-6.13-.4-.29-.02-.58,0-.9,0,1.67,1.67,3.31,3.32,4.95,4.96.98.98,1.22,2.14.65,3.28-.77,1.54-2.86,1.91-4.09.7-1.56-1.54-3.11-3.09-4.65-4.66-.18-.18-.24-.49-.35-.73-.08.09-.16.18-.24.28,0,.82-.03,1.64,0,2.46.08,1.69.26,3.38.26,5.06,0,1.23-1.81,2.33-3,1.98-1.32-.4-2.07-1.19-2.12-2.63-.04-1.4-.17-2.79-.28-4.18-.19-2.4-.53-4.8-.53-7.2,0-1.25-.62-1.89-1.36-2.63-2.38-2.37-4.76-4.76-7.14-7.13-.17-.17-.35-.33-.6-.57Z"/></g></svg>