<?xml version="1.0" encoding="UTF-8"?><svg id="Camada_2" xmlns="http://www.w3.org/2000/svg" viewBox="0 0 76.52 70.7"><defs><style>.cls-1{fill:#fff;}.cls-2{fill:#d8edff;}.cls-3{fill:#b3bfc8;}.cls-4{fill:#feffff;}.cls-5{fill:#010101;}</style></defs><g id="Camada_1-2"><path class="cls-5" d="m5.71,42.45c11-8.22,24.88-.79,25.86,11.04,4.38-2.83,8.78-2.84,13.21-.02.92-6.22,3.92-10.83,9.64-13.25,5.69-2.41,11.08-1.44,16.19,2.16-.07-.37-.12-.68-.19-.99-.07-.31-.16-.62-.24-.93-1.64-5.71-3.28-11.42-4.94-17.13-1.66-5.71-3.34-11.41-5-17.11-.07-.26-.14-.52-.19-.78-.35-1.85-1.69-2.57-3.35-2.76-1.55-.18-3.18.4-4,2.12-.3.63-.75,1.03-1.51,1-.65-.02-1-.43-1.09-.98-.07-.38.01-.85.19-1.19C51.45,1.36,53.27.1,55.9.02c2.11-.07,3.91.55,5.41,2.04,1.05,1.04,1.27,2.45,1.67,3.77.71,2.35,1.34,4.72,2.02,7.07,1.03,3.59,2.07,7.18,3.11,10.76,1.54,5.33,3.08,10.66,4.62,15.99,1.13,3.89,2.41,7.75,3.35,11.69,1.15,4.84.07,9.29-3,13.25-2.45,3.15-5.7,5.03-9.54,5.81-3.06.62-6.12.28-9.02-.96-1.99-.86-3.8-2.03-5.28-3.62-2.24-2.41-3.71-5.24-4.22-8.53-.05-.31-.3-.67-.57-.86-1.38-1-2.87-1.76-4.56-2.17-1.81-.44-3.49-.16-5.12.55-.85.37-1.6.97-2.44,1.37-.7.33-.86.91-.97,1.54-.43,2.56-1.51,4.81-3.1,6.85-2.45,3.15-5.69,5.06-9.53,5.82-3.09.61-6.17.31-9.1-.97-1.96-.86-3.75-2.01-5.21-3.57-2.26-2.43-3.76-5.26-4.23-8.59-.39-2.75-.08-5.39.78-8.05,1.24-3.85,2.23-7.78,3.35-11.67.96-3.35,1.97-6.69,2.93-10.03.96-3.36,1.88-6.73,2.85-10.08.85-2.96,1.74-5.92,2.6-8.88.43-1.49.77-3,1.24-4.47.64-2.03,2.11-3.27,4.11-3.78,3.17-.82,6.58.16,8.14,3.42.42.88.26,1.57-.47,1.95-.78.4-1.48.19-1.92-.71-.85-1.73-2.3-2.4-4.1-2.23-1.94.18-2.81.85-3.33,2.61-.79,2.71-1.55,5.44-2.32,8.16-1.16,4.11-2.31,8.22-3.48,12.32-1.1,3.84-2.24,7.67-3.36,11.51-.48,1.66-.95,3.33-1.46,5.16Zm47.86,23.39c.12.11.22.24.35.32,2.76,1.59,5.71,2.22,8.86,1.64,3.69-.68,6.66-2.54,8.78-5.66,2.11-3.1,2.72-6.53,1.95-10.16-.53-2.48-1.59-4.74-3.6-6.43-1.14-1.24-2.47-2.2-4.04-2.84-1.35-.56-2.74-.8-4.18-1-1.57-.21-3.06-.03-4.54.35-2.85.73-5.12,2.33-6.94,4.64-1.52,1.92-2.44,4.1-2.68,6.48-.32,3.06.21,6.01,1.95,8.65,1.08,1.64,2.32,3.1,4.1,4.01Zm-28.51-20.3c-1.14-1.24-2.47-2.2-4.04-2.84-1.35-.56-2.74-.8-4.18-1-1.57-.21-3.06-.03-4.54.35-2.85.73-5.12,2.33-6.94,4.64-1.52,1.92-2.44,4.1-2.68,6.48-.32,3.06.21,6.01,1.95,8.65,1.08,1.64,2.32,3.1,4.1,4.01.12.11.22.24.35.32,2.76,1.59,5.71,2.22,8.86,1.64,3.69-.68,6.66-2.54,8.78-5.66,2.11-3.1,2.72-6.53,1.95-10.16-.53-2.48-1.59-4.74-3.6-6.43Z"/><path class="cls-2" d="m8.73,65.85c-1.78-.91-3.03-2.38-4.1-4.01-1.74-2.64-2.27-5.58-1.95-8.65.25-2.38,1.16-4.56,2.68-6.48,1.83-2.31,4.09-3.92,6.94-4.64,1.48-.38,2.97-.56,4.54-.35,1.44.19,2.83.44,4.18,1,1.57.65,2.9,1.6,4.04,2.84.1.24.17.51.31.72,2.05,2.99,2.75,6.29,2.18,9.85-.51,3.21-2.04,5.9-4.58,7.91-3.09,2.45-6.58,3.65-10.55,2.83-1.25-.26-2.47-.67-3.7-1.01Zm5.13-21.94c-.38.07-.96.11-1.51.27-3.14.92-5.2,3.04-6.47,5.98-.34.78-.03,1.58.66,1.88.67.3,1.41-.07,1.78-.87.22-.47.43-.95.71-1.38,1.2-1.88,2.83-3.1,5.13-3.23.86-.05,1.37-.55,1.34-1.32-.03-.84-.56-1.31-1.64-1.32Z"/><path class="cls-2" d="m53.58,65.85c-1.78-.91-3.03-2.38-4.1-4.01-1.74-2.64-2.27-5.58-1.95-8.65.25-2.38,1.16-4.56,2.68-6.48,1.83-2.31,4.09-3.92,6.94-4.64,1.48-.38,2.97-.56,4.54-.35,1.44.19,2.83.44,4.18,1,1.57.65,2.9,1.6,4.04,2.84.1.24.17.51.31.72,2.05,2.99,2.75,6.29,2.18,9.85-.51,3.21-2.04,5.9-4.58,7.91-3.09,2.45-6.58,3.65-10.55,2.83-1.25-.26-2.47-.67-3.7-1.01Zm-3.34-14.96c.49.45.84.98,1.33,1.18.55.22,1.12-.07,1.41-.68.25-.51.47-1.05.78-1.53,1.2-1.86,2.81-3.13,5.1-3.31.95-.08,1.47-.49,1.49-1.29.02-.68-.76-1.4-1.58-1.34-.73.05-1.47.16-2.16.4-1.93.68-3.54,1.86-4.7,3.55-.61.89-1.06,1.9-1.67,3.02Z"/><path class="cls-3" d="m8.73,65.85c1.23.34,2.45.75,3.7,1.01,3.98.82,7.47-.38,10.55-2.83,2.54-2.02,4.07-4.7,4.58-7.91.57-3.56-.13-6.86-2.18-9.85-.15-.21-.21-.48-.31-.72,2.01,1.69,3.07,3.95,3.6,6.43.77,3.63.16,7.06-1.95,10.16-2.12,3.12-5.08,4.98-8.78,5.66-3.15.58-6.1-.05-8.86-1.64-.13-.08-.24-.21-.35-.32Z"/><path class="cls-3" d="m53.58,65.85c1.23.34,2.45.75,3.7,1.01,3.98.82,7.47-.38,10.55-2.83,2.54-2.02,4.07-4.7,4.58-7.91.57-3.56-.13-6.86-2.18-9.85-.15-.21-.21-.48-.31-.72,2.01,1.69,3.07,3.95,3.6,6.43.77,3.63.16,7.06-1.95,10.16-2.12,3.12-5.08,4.98-8.78,5.66-3.15.58-6.1-.05-8.86-1.64-.13-.08-.24-.21-.35-.32Z"/><path class="cls-1" d="m13.86,43.9c1.09,0,1.61.48,1.64,1.32.03.77-.48,1.27-1.34,1.32-2.3.14-3.93,1.36-5.13,3.23-.28.43-.49.92-.71,1.38-.38.8-1.12,1.17-1.78.87-.69-.31-1-1.1-.66-1.88,1.28-2.94,3.33-5.06,6.47-5.98.54-.16,1.12-.2,1.51-.27Z"/><path class="cls-4" d="m50.23,50.89c.61-1.13,1.06-2.13,1.67-3.02,1.16-1.69,2.77-2.87,4.7-3.55.68-.24,1.43-.35,2.16-.4.82-.06,1.6.65,1.58,1.34-.02.8-.54,1.22-1.49,1.29-2.29.18-3.9,1.45-5.1,3.31-.31.48-.53,1.02-.78,1.53-.3.61-.86.9-1.41.68-.49-.2-.85-.73-1.33-1.18Z"/></g></svg>