<?xml version="1.0" encoding="UTF-8"?><svg id="Camada_2" xmlns="http://www.w3.org/2000/svg" viewBox="0 0 79.75 79.71"><defs><style>.cls-1{fill:#50d7e2;}.cls-2{fill:#fefeff;}.cls-3{fill:#9a9acf;}.cls-4{fill:#020288;}.cls-5{fill:#030388;}</style></defs><g id="Camada_1-2"><path class="cls-1" d="m38.18,79.71c-1.34-.36-2.52-.98-3.57-1.9-1.37-1.2-2.38-2.66-3.22-4.23-2.1-3.91-3.38-8.11-4.24-12.44-.55-2.75-1.02-5.53-1.38-8.31-.29-2.25-.42-4.52-.5-6.79-.11-3.31-.23-6.63-.13-9.94.1-3.24.42-6.48.74-9.71.4-4.14,1.18-8.22,2.35-12.22,1.1-3.76,2.4-7.45,4.83-10.6,1.28-1.66,2.79-3.04,4.97-3.46,2.04-.39,3.78.24,5.31,1.54,2.49,2.1,3.86,4.95,5.1,7.86.15.35.32.7.48,1.04.16.6.29,1.22.48,1.81.43,1.38.9,2.75,1.35,4.13.02.05.04.1.06.15v-.02c.02.35.04.71.1,1.06.32,1.77.66,3.53.97,5.29.27,1.56.52,3.13.78,4.69.1,1.14.21,2.29.31,3.43-.05.29-.16.59-.14.88.08,1.36.24,2.72.28,4.08.05,2.07.02,4.15.01,6.22,0,.7,0,1.4-.04,2.1-.07,1.26-.18,2.52-.26,3.77,0,.13.1.28.15.41-.45,1.15-.43,2.35-.32,3.56-.05.17-.13.34-.16.51-.37,2.31-.72,4.62-1.09,6.93-.19,1.16-.4,2.32-.61,3.49,0,0,.01-.02.01-.02-.02.05-.04.1-.06.15-.35,1.07-.71,2.13-1.05,3.2-.28.91-.53,1.83-.79,2.74-.66,1.43-1.29,2.88-2,4.28-.84,1.64-1.92,3.1-3.28,4.38-1.04.98-2.27,1.48-3.58,1.9h-1.87Z"/><path class="cls-5" d="m79.75,40.48c-.91.83-1.83,1.65-2.72,2.5-1.99,1.87-3.96,3.77-5.96,5.64-2.25,2.12-4.52,4.21-6.79,6.32-2.26,2.11-4.52,4.21-6.79,6.32-2.24,2.09-4.49,4.18-6.73,6.26-.6.56-1.23,1.09-1.85,1.63.26-.91.51-1.83.79-2.74.33-1.07.7-2.14,1.05-3.2.02-.05.04-.1.06-.15,0,0-.01.02-.01.02,1-.88,2.02-1.74,3-2.64,2.2-2.02,4.38-4.06,6.56-6.1,1.99-1.87,3.96-3.76,5.96-5.63.96-.9,1.94-1.76,2.92-2.63.4-.36.81-.71,1.22-1.06-.06-.07-.12-.14-.18-.2-.92.38-1.85.76-2.77,1.14-2.36.98-4.73,1.96-7.09,2.94-2.59,1.08-5.18,2.17-7.77,3.26-.11-1.21-.12-2.4.32-3.56,3.39-1.39,6.78-2.78,10.16-4.18,3.6-1.49,7.19-2.99,10.9-4.53-.68-.3-1.27-.56-1.87-.81-3.18-1.32-6.35-2.63-9.53-3.95-3.22-1.33-6.44-2.67-9.65-4-.1-1.14-.21-2.29-.31-3.43,1.18.47,2.37.94,3.55,1.42,3.92,1.61,7.85,3.22,11.77,4.83.78.32,1.56.66,2.34.99.03-.06.07-.11.1-.17-.61-.54-1.23-1.08-1.83-1.63-1.46-1.34-2.91-2.7-4.36-4.05-2.32-2.16-4.64-4.32-6.95-6.49-1.99-1.87-3.97-3.76-5.96-5.64-.14-.14-.34-.21-.51-.32,0,0,.01.02.01.02-.02-.05-.04-.1-.06-.15-.45-1.37-.91-2.75-1.35-4.13-.19-.6-.32-1.21-.48-1.81,1.71,1.59,3.43,3.19,5.14,4.78,2.41,2.25,4.81,4.5,7.22,6.75,1.34,1.25,2.69,2.47,4.02,3.72,2.45,2.28,4.89,4.58,7.33,6.86,1.41,1.32,2.84,2.62,4.24,3.94.96.91,1.9,1.85,2.85,2.77v1.09Z"/><path class="cls-5" d="m16.41,41.41c-4.95,0-9.91,0-14.86,0-.72,0-1.19-.34-1.41-.95-.21-.59-.24-1.28.32-1.69.38-.27.91-.46,1.38-.46,4.62-.03,9.24-.02,13.85-.02.25,0,.49,0,.97,0-.76-.74-1.37-1.32-1.97-1.92-.78-.78-.85-1.6-.24-2.29.54-.6,1.59-.68,2.28-.01,1.63,1.56,3.22,3.16,4.78,4.79.54.56.47,1.52-.1,2.1-1.51,1.54-3.01,3.08-4.57,4.57-.87.83-2.18.85-2.7-.5-.22-.58-.1-1.05.31-1.46.68-.67,1.38-1.31,2.08-1.97-.04-.07-.09-.13-.13-.2Z"/><path class="cls-4" d="m16.39,60.09c-.57-.6-1.14-1.19-1.71-1.79-.86-.9-.77-1.69-.13-2.35.59-.62,1.62-.52,2.31.17,1.47,1.47,2.93,2.93,4.4,4.4.83.83.84,1.57.02,2.38-1.5,1.5-3.01,3.01-4.51,4.51-.75.75-1.46.81-2.12.19-.76-.71-.81-1.56-.07-2.35.58-.62,1.2-1.21,1.95-1.95-.4,0-.67,0-.93,0-4.62,0-9.23,0-13.85,0-1.03,0-1.69-.64-1.7-1.63,0-.87.65-1.48,1.69-1.48,4.56-.01,9.13,0,13.69,0,.31,0,.62,0,.93-.01.04,0,.07,0,.11.01-.03-.04-.05-.07-.08-.11Z"/><path class="cls-4" d="m16.36,19.52c-4.8,0-9.59,0-14.39-.01-.59,0-1.15,0-1.59-.56-.7-.89-.28-2.23.84-2.46.33-.07.66-.1,1-.1,4.43,0,8.87,0,13.3,0,.28,0,.55,0,1.03,0-.73-.72-1.35-1.28-1.92-1.9-.43-.47-.76-.99-.44-1.71.43-1,1.64-1.38,2.42-.63,1.66,1.6,3.28,3.24,4.9,4.89.49.5.5,1.37,0,1.88-1.62,1.65-3.24,3.28-4.89,4.89-.54.53-1.59.47-2.08-.05-.66-.69-.66-1.5.03-2.25.59-.64,1.21-1.27,1.82-1.9.03-.04.05-.07.08-.11-.04,0-.07,0-.11.01Z"/><path class="cls-3" d="m16.36,19.52s.07,0,.11-.01c-.03.04-.05.07-.08.11l-.05-.04.02-.06Z"/><path class="cls-3" d="m16.39,60.09s.05.07.08.11c-.04,0-.07,0-.11-.01,0,0-.02-.06-.02-.06l.05-.04Z"/><path class="cls-2" d="m50.76,16.5c.02.05.04.1.06.15-.02-.05-.04-.1-.06-.15Z"/><path class="cls-2" d="m50.82,63.06c-.02.05-.04.1-.06.15.02-.05.04-.1.06-.15Z"/></g></svg>