<?xml version="1.0" encoding="UTF-8"?><svg xmlns="http://www.w3.org/2000/svg" viewBox="0 0 206.21 423.16"><defs><style>.cls-1{fill:#fff;}.cls-2{fill:#0b3b4b;}.cls-3{fill:#4e588b;}.cls-4{isolation:isolate;}.cls-4,.cls-5,.cls-6{fill:none;}.cls-5{mix-blend-mode:screen;}.cls-6{opacity:.69;}</style></defs><g class="cls-4"><g id="Camada_2"><g id="Camada_1-2"><g class="cls-6"><path class="cls-1" d="m171.66,43.64C138.88,5.59,81.46,1.32,43.41,34.1,5.37,66.89,1.1,124.31,33.88,162.35c32.78,38.05,90.2,42.32,128.25,9.53,38.05-32.78,42.32-90.2,9.53-128.25Z"/></g><path class="cls-2" d="m3.61,129.83c14.89,54.62,71.63,86.89,126.49,71.94,54.86-14.95,87.38-71.55,72.49-126.17C187.71,20.97,130.97-11.3,76.1,3.66,21.24,18.61-11.28,75.21,3.61,129.83Zm15.31-4.17C6.3,79.37,33.76,31.57,80.26,18.9c46.5-12.67,94.42,14.58,107.03,60.87,12.62,46.29-14.85,94.09-61.34,106.76-46.5,12.67-94.42-14.58-107.03-60.87Z"/><rect class="cls-3" x="120.27" y="194.36" width="21.44" height="21.35" transform="translate(311.3 368.41) rotate(164.75)"/><path class="cls-2" d="m164.21,407.4c2.71,11.35,14.49,18.13,26.03,14.99,11.54-3.15,18.26-14.97,14.82-26.12l-46.53-151.05-2.59-8.41-1.95-6.31-2.59-8.42-3.24-10.52-28.66,7.81,2.54,10.71,2.04,8.56,1.52,6.43,2.04,8.56,36.56,153.77Z"/><polygon class="cls-1" points="122.99 234.59 152.89 226.44 150.25 217.84 120.9 225.84 122.99 234.59"/><polygon class="cls-1" points="126.64 249.9 157.52 241.48 154.88 232.88 124.54 241.15 126.64 249.9"/><g class="cls-5"><path class="cls-1" d="m126.55,42.3c24.56,11.81,33.45,33.86,35.48,32.54,2.4-1.57-6.19-34.76-32.68-46.4-26.09-11.46-56.09,3.9-55.65,6.98.4,2.82,26.06-6,52.85,6.88Z"/></g><g class="cls-5"><path class="cls-1" d="m162.36,87.15c-2.01,3.5-.8,7.95,2.71,9.95,3.51,2,7.98.78,9.99-2.72,2.01-3.5.8-7.95-2.71-9.95-3.51-2-7.98-.78-9.99,2.72Z"/></g></g></g></g></svg>