<?xml version="1.0" encoding="UTF-8"?><svg xmlns="http://www.w3.org/2000/svg" xmlns:xlink="http://www.w3.org/1999/xlink" viewBox="0 0 321.21 668.64"><defs><style>.cls-1{fill:#6a6a6a;}.cls-2{fill:#979797;}.cls-3{fill:#9d9d9d;}.cls-4{fill:#a7a7a7;}.cls-5{fill:#797979;}.cls-6{fill:#c7c7c9;opacity:.19;}.cls-7{fill:#c4c4c7;opacity:.2;}.cls-8{fill:#d5d5d8;opacity:.13;}.cls-9{fill:url(#linear-gradient-2);}.cls-10{fill:#f0f0f0;}.cls-11{fill:#111;opacity:.93;}.cls-12{fill:#262626;}.cls-13{fill:#181819;opacity:.9;}.cls-14{fill:#aaaaac;opacity:.31;}.cls-15{fill:#c33;}.cls-16{fill:#ccccce;opacity:.17;}.cls-17,.cls-18{fill:#0f0f0f;}.cls-19{fill:#29292a;opacity:.83;}.cls-20{fill:#fff;}.cls-21{fill:#727273;opacity:.53;}.cls-22{fill:#8b8b8b;}.cls-23{fill:#585858;}.cls-24{fill:#3a3a3b;opacity:.76;}.cls-25{fill:#c5c5c5;}.cls-26,.cls-27{fill:#3d3d3d;}.cls-28{fill:#f3f3f6;opacity:0;}.cls-29{fill:#7e7e80;opacity:.49;}.cls-30{fill:#727272;}.cls-31{fill:#a3a3a5;opacity:.34;}.cls-32{fill:#4c4c4c;}.cls-33{fill:#fafafa;}.cls-34{fill:#3f3f3f;}.cls-35{fill:#cacaca;}.cls-36{fill:#1b1b1b;opacity:.89;}.cls-37{fill:#aeaeae;}.cls-38{fill:#272727;opacity:.84;}.cls-39{fill:#565656;}.cls-40{fill:#949496;opacity:.4;}.cls-41{fill:#020202;opacity:.99;}.cls-42{fill:silver;}.cls-43{fill:#1fb53b;}.cls-44,.cls-45{fill:#f5f5f8;}.cls-46{fill:#666667;opacity:.58;}.cls-47{fill:#f5f5f5;}.cls-48{fill:#6b6b6c;opacity:.56;}.cls-49{fill:#ebebee;opacity:.04;}.cls-50{fill:#777;}.cls-51{fill:#dadadd;opacity:.11;}.cls-52{fill:#a9a9a9;}.cls-53{fill:#0c0c0c;opacity:.95;}.cls-54{fill:#9f9f9f;}.cls-55{opacity:.96;}.cls-55,.cls-56{fill:#0a0a0a;}.cls-57{fill:#323232;}.cls-58{fill:#959595;}.cls-59{fill:#868686;}.cls-60{fill:#2c2c2c;opacity:.82;}.cls-61{fill:#707071;opacity:.54;}.cls-62{fill:#49494a;opacity:.7;}.cls-63{fill:#303030;}.cls-64{fill:#4b4b4c;opacity:.69;}.cls-65{fill:#b4b4b6;opacity:.27;}.cls-66{fill:#909090;}.cls-67{fill:#444445;opacity:.72;}.cls-68{fill:#9e9ea0;opacity:.36;}.cls-69{fill:#4e4e4e;}.cls-70{fill:#616162;opacity:.6;}.cls-71{fill:#7c7c7c;}.cls-72{fill:#232323;}.cls-27{opacity:.75;}.cls-73{fill:#1c1c1c;}.cls-74{fill:#8d8d8d;}.cls-75{fill:#bdbdc0;opacity:.23;}.cls-76{fill:#414142;opacity:.73;}.cls-77{fill:#656565;}.cls-78{fill:#c7c7c7;}.cls-79{fill:#a4a4a4;}.cls-80{opacity:.32;}.cls-80,.cls-81,.cls-82{fill:none;}.cls-80,.cls-82{mix-blend-mode:multiply;}.cls-83{fill:#dedede;}.cls-84{fill:#bbbbbd;opacity:.24;}.cls-85{fill:#d3d3d6;opacity:.14;}.cls-86{fill:#eeeef1;opacity:.03;}.cls-87{fill:#cfcfcf;}.cls-88{fill:#d7d7d7;}.cls-89{fill:#bdbdbd;}.cls-90{fill:#b6b6b8;opacity:.26;}.cls-91{fill:#333334;opacity:.79;}.cls-92{fill:#505051;opacity:.67;}.cls-93{fill:#636365;opacity:.59;}.cls-94{opacity:.98;}.cls-94,.cls-95{fill:#050505;}.cls-96{fill:#2e2e2f;opacity:.81;}.cls-97{fill:#818181;}.cls-98{fill:#b8b8bb;opacity:.25;}.cls-99{fill:#e1e1e1;}.cls-100{fill:#929292;}.cls-101{fill:#e6e6e6;}.cls-102{fill:#282828;}.cls-103{fill:#f0f0f3;opacity:.02;}.cls-104{fill:#030303;}.cls-105{fill:#626262;}.cls-106{fill:#242425;opacity:.85;}.cls-45{opacity:0;}.cls-107{fill:#444;}.cls-108{opacity:.77;}.cls-108,.cls-109{fill:#383838;}.cls-110{fill:#5f5f60;opacity:.61;}.cls-111{fill:#0d0d0d;}.cls-112{fill:#d4d4d4;}.cls-113{fill:#1d1d1d;opacity:.88;}.cls-114{fill:#080808;}.cls-115{fill:#a0a0a2;opacity:.35;}.cls-116{fill:#88888a;opacity:.45;}.cls-117{fill:#4e4e4f;opacity:.68;}.cls-18{opacity:.94;}.cls-118{fill:#353536;opacity:.78;}.cls-119{fill:#6f6f6f;}.cls-120{fill:#b8b8b8;}.cls-121{fill:#e6e6e9;opacity:.06;}.cls-122{fill:#747474;}.cls-123{fill:#a7a7a9;opacity:.32;}.cls-124{fill:#424242;}.cls-125{fill:#2b2b2b;}.cls-126{fill:#3a3a3a;}.cls-127{fill:#a5a5a7;opacity:.33;}.cls-81{isolation:isolate;}.cls-128{fill:#c2c2c4;opacity:.21;}.cls-129{fill:#c0c0c2;opacity:.22;}.cls-82{opacity:.23;}.cls-130{fill:#525253;opacity:.66;}.cls-131{fill:#171717;}.cls-132{fill:#222;opacity:.86;}.cls-133{fill:#212121;}.cls-134{fill:#d8d8db;opacity:.12;}.cls-135{fill:#8f8f91;opacity:.42;}.cls-136{fill:#838385;opacity:.47;}.cls-137{fill:#969698;opacity:.39;}.cls-138{fill:#b6b6b6;}.cls-139{fill:#9b9b9d;opacity:.37;}.cls-140{fill:#5d5d5d;}.cls-141{fill:#131314;opacity:.92;}.cls-142{fill:#494949;}.cls-143{fill:#5c5c5d;opacity:.62;}.cls-144{fill:#ebebeb;}.cls-145{fill:#68686a;opacity:.57;}.cls-146{fill:#121212;}.cls-147{fill:#e9e9ec;opacity:.05;}.cls-148{fill:#070707;opacity:.97;}.cls-149{fill:#dcdcdc;}.cls-150{fill:#353535;}.cls-151{fill:#474747;}.cls-152{fill:#141414;}.cls-153{fill:#acacae;opacity:.3;}.cls-154{fill:#535353;}.cls-155{fill:#e8e8e8;}.cls-156{fill:#c9c9cc;opacity:.18;}.cls-157{fill:#515151;}.cls-158{fill:#dddddf;opacity:.1;}.cls-159{fill:#b1b1b1;}.cls-160{fill:#2d2d2d;}.cls-161{fill:#161616;opacity:.91;}.cls-162{fill:#555556;opacity:.65;}.cls-163{fill:#202020;opacity:.87;}.cls-164{fill:#d1d1d3;opacity:.15;}.cls-165{fill:#bbb;}.cls-166{fill:#f7f7f7;}.cls-167{fill:#b3b3b3;}.cls-168{fill:#8d8d8e;opacity:.43;}.cls-169{fill:#7e7e7e;}.cls-170{fill:#9a9a9a;}.cls-171{fill:#dfdfe2;opacity:.09;}.cls-172{fill:#191919;}.cls-173{fill:#747476;opacity:.52;}.cls-174{fill:#606060;}.cls-175{fill:#c2c2c2;}.cls-176{fill:#b1b1b3;opacity:.28;}.cls-177{fill:#6d6d6e;opacity:.55;}.cls-178{fill:#99999b;opacity:.38;}.cls-179{fill:#e2e2e4;opacity:.08;}.cls-180{fill:url(#linear-gradient);}.cls-181{fill:#acacac;}.cls-182{fill:#777778;opacity:.51;}.cls-183{fill:#d9d9d9;}.cls-184{fill:#6d6d6d;}.cls-185{fill:#929293;opacity:.41;}.cls-186{fill:#79797b;opacity:.5;}.cls-187{fill:#cdcdcd;}.cls-188{fill:#5b5b5b;}.cls-189{fill:#d2d2d2;}.cls-190{fill:#464647;opacity:.71;}.cls-191{fill:#838383;}.cls-192{fill:#686868;}.cls-193{fill:#1e1e1e;}.cls-194{fill:#3f3f40;opacity:.74;}.cls-195{fill:#7c7c7d;opacity:.5;}.cls-196{fill:#8a8a8c;opacity:.44;}.cls-197{fill:#5a5a5b;opacity:.63;}.cls-198{fill:#f2f2f2;}.cls-199{fill:#818182;opacity:.48;}.cls-200{fill:#858587;opacity:.46;}.cls-201{fill:#888;}.cls-202{fill:#ceced1;opacity:.16;}.cls-203{fill:#a2a2a2;}.cls-204{fill:#e3e3e3;}.cls-205{fill:#313131;opacity:.8;}.cls-206{fill:#fcfcfc;}.cls-207{fill:#ededed;}.cls-208{fill:#afafb1;opacity:.29;}.cls-209{fill:#e4e4e7;opacity:.07;}.cls-210{fill:#575758;opacity:.64;}</style><linearGradient id="linear-gradient" x1="234" y1="133.98" x2="237.73" y2="133.98" gradientUnits="userSpaceOnUse"><stop offset="0" stop-color="#d7d7d6"/><stop offset=".51" stop-color="#61605e"/><stop offset=".74" stop-color="#bbb"/></linearGradient><linearGradient id="linear-gradient-2" x1="72.97" x2="76.7" xlink:href="#linear-gradient"/></defs><g class="cls-81"><g id="Camada_2"><g id="Camada_1-2"><rect class="cls-180" x="234" width="3.73" height="267.96"/><rect class="cls-9" x="72.97" width="3.73" height="267.96"/><g class="cls-80"><rect class="cls-45" x="9.67" y="264.49" width="311.53" height="404.14"/><rect class="cls-28" x="9.58" y="264.37" width="311.52" height="404.12"/><rect class="cls-103" x="9.48" y="264.25" width="311.5" height="404.1"/><rect class="cls-86" x="9.38" y="264.12" width="311.48" height="404.08"/><rect class="cls-49" x="9.29" y="264" width="311.47" height="404.05"/><rect class="cls-147" x="9.19" y="263.87" width="311.45" height="404.03"/><rect class="cls-121" x="9.1" y="263.75" width="311.43" height="404.01"/><rect class="cls-209" x="9" y="263.63" width="311.42" height="403.99"/><rect class="cls-179" x="8.91" y="263.5" width="311.4" height="403.97"/><rect class="cls-171" x="8.81" y="263.38" width="311.38" height="403.94"/><rect class="cls-158" x="8.71" y="263.25" width="311.37" height="403.92"/><rect class="cls-51" x="8.62" y="263.13" width="311.35" height="403.9"/><rect class="cls-134" x="8.52" y="263" width="311.33" height="403.88"/><rect class="cls-8" x="8.43" y="262.88" width="311.31" height="403.86"/><rect class="cls-85" x="8.33" y="262.76" width="311.3" height="403.84"/><rect class="cls-164" x="8.24" y="262.63" width="311.28" height="403.81"/><rect class="cls-202" x="8.14" y="262.51" width="311.26" height="403.79"/><rect class="cls-16" x="8.04" y="262.38" width="311.25" height="403.77"/><rect class="cls-156" x="7.95" y="262.26" width="311.23" height="403.75"/><rect class="cls-6" x="7.85" y="262.13" width="311.21" height="403.73"/><rect class="cls-7" x="7.76" y="262.01" width="311.2" height="403.7"/><rect class="cls-128" x="7.66" y="261.89" width="311.18" height="403.68"/><rect class="cls-129" x="7.57" y="261.76" width="311.16" height="403.66"/><rect class="cls-75" x="7.47" y="261.64" width="311.15" height="403.64"/><rect class="cls-84" x="7.37" y="261.51" width="311.13" height="403.62"/><rect class="cls-98" x="7.28" y="261.39" width="311.11" height="403.59"/><rect class="cls-90" x="7.18" y="261.26" width="311.1" height="403.57"/><rect class="cls-65" x="7.09" y="261.14" width="311.08" height="403.55"/><rect class="cls-176" x="6.99" y="261.02" width="311.06" height="403.53"/><rect class="cls-208" x="6.9" y="260.89" width="311.04" height="403.51"/><rect class="cls-153" x="6.8" y="260.77" width="311.03" height="403.48"/><rect class="cls-14" x="6.7" y="260.64" width="311.01" height="403.46"/><rect class="cls-123" x="6.61" y="260.52" width="310.99" height="403.44"/><rect class="cls-127" x="6.51" y="260.4" width="310.98" height="403.42"/><rect class="cls-31" x="6.42" y="260.27" width="310.96" height="403.4"/><rect class="cls-115" x="6.32" y="260.15" width="310.94" height="403.37"/><rect class="cls-68" x="6.22" y="260.02" width="310.93" height="403.35"/><rect class="cls-139" x="6.13" y="259.9" width="310.91" height="403.33"/><rect class="cls-178" x="6.03" y="259.77" width="310.89" height="403.31"/><rect class="cls-137" x="5.94" y="259.65" width="310.88" height="403.29"/><rect class="cls-40" x="5.84" y="259.53" width="310.86" height="403.27"/><rect class="cls-185" x="5.75" y="259.4" width="310.84" height="403.24"/><rect class="cls-135" x="5.65" y="259.28" width="310.82" height="403.22"/><rect class="cls-168" x="5.55" y="259.15" width="310.81" height="403.2"/><rect class="cls-196" x="5.46" y="259.03" width="310.79" height="403.18"/><rect class="cls-116" x="5.36" y="258.9" width="310.77" height="403.16"/><rect class="cls-200" x="5.27" y="258.78" width="310.76" height="403.13"/><rect class="cls-136" x="5.17" y="258.66" width="310.74" height="403.11"/><rect class="cls-199" x="5.08" y="258.53" width="310.72" height="403.09"/><rect class="cls-29" x="4.98" y="258.41" width="310.71" height="403.07"/><rect class="cls-195" x="4.88" y="258.28" width="310.69" height="403.05"/><rect class="cls-186" x="4.79" y="258.16" width="310.67" height="403.02"/><rect class="cls-182" x="4.69" y="258.03" width="310.66" height="403"/><rect class="cls-173" x="4.6" y="257.91" width="310.64" height="402.98"/><rect class="cls-21" x="4.5" y="257.79" width="310.62" height="402.96"/><rect class="cls-61" x="4.41" y="257.66" width="310.61" height="402.94"/><rect class="cls-177" x="4.31" y="257.54" width="310.59" height="402.91"/><rect class="cls-48" x="4.21" y="257.41" width="310.57" height="402.89"/><rect class="cls-145" x="4.12" y="257.29" width="310.55" height="402.87"/><rect class="cls-46" x="4.02" y="257.17" width="310.54" height="402.85"/><rect class="cls-93" x="3.93" y="257.04" width="310.52" height="402.83"/><rect class="cls-70" x="3.83" y="256.92" width="310.5" height="402.8"/><rect class="cls-110" x="3.73" y="256.79" width="310.49" height="402.78"/><rect class="cls-143" x="3.64" y="256.67" width="310.47" height="402.76"/><rect class="cls-197" x="3.54" y="256.54" width="310.45" height="402.74"/><rect class="cls-210" x="3.45" y="256.42" width="310.44" height="402.72"/><rect class="cls-162" x="3.35" y="256.3" width="310.42" height="402.7"/><rect class="cls-130" x="3.26" y="256.17" width="310.4" height="402.67"/><rect class="cls-92" x="3.16" y="256.05" width="310.39" height="402.65"/><rect class="cls-117" x="3.06" y="255.92" width="310.37" height="402.63"/><rect class="cls-64" x="2.97" y="255.8" width="310.35" height="402.61"/><rect class="cls-62" x="2.87" y="255.67" width="310.33" height="402.59"/><rect class="cls-190" x="2.78" y="255.55" width="310.32" height="402.56"/><rect class="cls-67" x="2.68" y="255.43" width="310.3" height="402.54"/><rect class="cls-76" x="2.59" y="255.3" width="310.28" height="402.52"/><rect class="cls-194" x="2.49" y="255.18" width="310.27" height="402.5"/><rect class="cls-27" x="2.39" y="255.05" width="310.25" height="402.48"/><rect class="cls-24" x="2.3" y="254.93" width="310.23" height="402.45"/><rect class="cls-108" x="2.2" y="254.8" width="310.22" height="402.43"/><rect class="cls-118" x="2.11" y="254.68" width="310.2" height="402.41"/><rect class="cls-91" x="2.01" y="254.56" width="310.18" height="402.39"/><rect class="cls-205" x="1.92" y="254.43" width="310.17" height="402.37"/><rect class="cls-96" x="1.82" y="254.31" width="310.15" height="402.34"/><rect class="cls-60" x="1.72" y="254.18" width="310.13" height="402.32"/><rect class="cls-19" x="1.63" y="254.06" width="310.12" height="402.3"/><rect class="cls-38" x="1.53" y="253.94" width="310.1" height="402.28"/><rect class="cls-106" x="1.44" y="253.81" width="310.08" height="402.26"/><rect class="cls-132" x="1.34" y="253.69" width="310.06" height="402.23"/><rect class="cls-163" x="1.24" y="253.56" width="310.05" height="402.21"/><rect class="cls-113" x="1.15" y="253.44" width="310.03" height="402.19"/><rect class="cls-36" x="1.05" y="253.31" width="310.01" height="402.17"/><rect class="cls-13" x=".96" y="253.19" width="310" height="402.15"/><rect class="cls-161" x=".86" y="253.07" width="309.98" height="402.13"/><rect class="cls-141" x=".77" y="252.94" width="309.96" height="402.1"/><rect class="cls-11" x=".67" y="252.82" width="309.95" height="402.08"/><rect class="cls-18" x=".57" y="252.69" width="309.93" height="402.06"/><rect class="cls-53" x=".48" y="252.57" width="309.91" height="402.04"/><rect class="cls-55" x=".38" y="252.44" width="309.9" height="402.02"/><rect class="cls-148" x=".29" y="252.32" width="309.88" height="401.99"/><rect class="cls-94" x=".19" y="252.2" width="309.86" height="401.97"/><rect class="cls-41" x=".1" y="252.07" width="309.84" height="401.95"/><rect y="251.95" width="309.83" height="401.93"/></g><rect class="cls-44" x=".44" y="251.95" width="309.83" height="401.93"/><rect class="cls-44" x="13.13" y="268.42" width="284.44" height="368.99"/><rect class="cls-44" x="13.13" y="267.96" width="284.44" height="368.99"/><path d="m174.65,297.97v15.88h-12.43v-6.39h-11.49v9.91h13.65v9.55h-13.65v11.71h11.49v-6.68h12.43v16.24h-43.32v-9.55h4.53v-31.18h-4.53v-9.48h43.32Z"/><path d="m103.65,531v2.83h-2.27v-1.14h-1.93v2.23h2.43v1.7h-2.43v1.63h1.31v1.7h-4.76v-1.7h.79v-5.56h-.79v-1.69h7.66Z"/><path d="m121.31,531v2.83h-2.21v-1.14h-2.05v1.77h2.43v1.7h-2.43v2.09h2.05v-1.19h2.21v2.89h-7.72v-1.7h.81v-5.56h-.81v-1.69h7.72Z"/><path d="m135.54,531v1.69h-.68v5.56h1.65v-1.63h2.15v3.33h-7.17v-1.7h.7v-5.56h-.7v-1.69h4.05Z"/><path d="m148.16,535.43c0-2.77,1.84-4.67,4.49-4.67,3.14,0,4.6,1.88,4.6,4.76s-1.61,4.66-4.51,4.66c-2.68,0-4.58-1.55-4.58-4.75Zm5.89.09c0-1.55-.42-2.79-1.41-2.79-.78-.01-1.32,1.11-1.32,2.7,0,1.68.6,2.74,1.42,2.74s1.31-1.06,1.31-2.65Z"/><path d="m170.65,531c2.97,0,3.53,1.28,3.53,2.74,0,1.69-1.54,2.54-3.37,2.54h-.97v1.98h.78v1.69h-4.12v-1.69h.72v-5.58h-.72v-1.68h4.15Zm-.81,3.89h.58c.74,0,1.25-.38,1.25-1.06,0-.76-.45-1.17-1.19-1.17h-.64v2.23Z"/><path d="m183.8,531h8.4l.03,1.7-4.69,5.56h2.38v-1.64h2.27v3.33h-8.46v-1.66l4.66-5.58h-2.41v1.66h-2.18v-3.37Z"/><path d="m201.22,538.24h.79v-5.56h-.79v-1.69h3.91c3.1,0,4.86,1.91,4.86,4.35,0,2.92-1.77,4.6-4.92,4.6h-3.85v-1.7Zm3.91,0c1.36-.02,1.92-1.29,1.92-2.89,0-1.37-.56-2.66-1.92-2.66h-.49v5.56h.49Z"/><path d="m102.7,557.07h.56v-3.91h-.56v-1.19h2.75c2.18,0,3.43,1.34,3.43,3.07,0,2.06-1.24,3.24-3.46,3.24h-2.71v-1.2Zm2.75,0c.96-.02,1.35-.91,1.35-2.04,0-.96-.4-1.88-1.35-1.88h-.34v3.91h.34Z"/><path d="m122.01,551.97v1.99h-1.56v-.8h-1.44v1.24h1.71v1.2h-1.71v1.47h1.44v-.84h1.56v2.04h-5.44v-1.2h.57v-3.91h-.57v-1.19h5.44Z"/><path d="m135.49,551.97v1.99h-1.6v-.8h-1.36v1.57h1.71v1.2h-1.71v1.14h.92v1.2h-3.35v-1.2h.56v-3.91h-.56v-1.19h5.39Z"/><path d="m146.52,551.97c2.09,0,2.49.9,2.49,1.93,0,1.19-1.08,1.78-2.37,1.78h-.69v1.4h.55v1.19h-2.9v-1.19h.5v-3.93h-.5v-1.18h2.92Zm-.57,2.74h.41c.52,0,.88-.27.88-.75,0-.53-.32-.82-.84-.82h-.45v1.57Z"/><path d="m156.6,555.09c0-1.95,1.3-3.29,3.16-3.29,2.21,0,3.24,1.33,3.24,3.35s-1.14,3.28-3.17,3.28c-1.88,0-3.23-1.09-3.23-3.34Zm4.15.06c0-1.09-.3-1.97-.99-1.97-.55,0-.93.78-.93,1.9,0,1.18.42,1.93,1,1.93s.92-.75.92-1.87Z"/><path d="m176.33,554.31h-1.33v-1.15h-.76v3.91h.75v1.2h-3.35v-1.2h.74v-3.91h-.78v1.15h-1.33v-2.34h6.05v2.34Z"/><path d="m189.53,551.97v1.99h-1.56v-.8h-1.44v1.24h1.71v1.2h-1.71v1.47h1.44v-.84h1.56v2.04h-5.44v-1.2h.57v-3.91h-.57v-1.19h5.44Z"/><path d="m203.27,557.14c-.61.68-1.55,1.27-2.73,1.27-1.91,0-3.18-1.23-3.18-3.24s1.56-3.32,2.74-3.32c.9,0,1.31.5,1.39.61l.21-.5h1.42v2.56h-1.61c-.03-.59-.32-1.14-.96-1.14s-1.07.8-1.07,1.79c0,.89.46,1.69,1.32,1.69.76,0,1.35-.79,1.43-.88l1.05,1.15Z"/><path d="m97.45,495.78v3.33h-2.61v-1.34h-2.41v2.08h2.86v2h-2.86v2.46h2.41v-1.4h2.61v3.41h-9.09v-2h.95v-6.54h-.95v-1.99h9.09Z"/><path d="m111.78,504.31h.93v-6.54h-.93v-1.99h4.6c3.65,0,5.73,2.25,5.73,5.12,0,3.44-2.08,5.41-5.79,5.41h-4.54v-2Zm4.6,0c1.6-.03,2.26-1.52,2.26-3.41,0-1.61-.66-3.14-2.26-3.14h-.57v6.54h.57Z"/><path d="m145.49,495.78v3.33h-2.67v-1.34h-2.28v2.62h2.86v2h-2.86v1.91h1.54v2h-5.61v-2h.93v-6.54h-.93v-1.99h9.01Z"/><path d="m169.96,504.43c-1.02,1.13-2.59,2.13-4.57,2.13-3.2,0-5.32-2.05-5.32-5.41s2.61-5.55,4.58-5.55c1.51,0,2.19.84,2.32,1.02l.35-.84h2.37v4.28h-2.7c-.05-.98-.53-1.9-1.6-1.9s-1.79,1.34-1.79,2.98c0,1.49.77,2.83,2.2,2.83,1.27,0,2.26-1.33,2.4-1.48l1.76,1.93Z"/><path d="m184.14,495.78h9.89l.03,2-5.52,6.54h2.8v-1.93h2.67v3.92h-9.96v-1.96l5.49-6.57h-2.83v1.96h-2.56v-3.96Z"/><path d="m213.46,495.78c3.5,0,4.16,1.51,4.16,3.23,0,1.99-1.81,2.99-3.96,2.99h-1.15v2.34h.92v1.99h-4.85v-1.99h.84v-6.57h-.84v-1.97h4.88Zm-.95,4.58h.68c.87,0,1.48-.45,1.48-1.25,0-.89-.53-1.37-1.4-1.37h-.75v2.62Z"/><path d="m104.44,577.46v1.04h-.42v3.41h1.01v-1h1.32v2.04h-4.4v-1.04h.43v-3.41h-.43v-1.04h2.48Z"/><path d="m120.41,577.46v1.74h-1.36v-.7h-1.26v1.08h1.49v1.04h-1.49v1.28h1.26v-.73h1.36v1.78h-4.74v-1.04h.49v-3.41h-.49v-1.04h4.74Z"/><path d="m134.28,577.46v1.74h-1.39v-.7h-1.19v1.37h1.49v1.05h-1.49v1h.8v1.04h-2.92v-1.04h.49v-3.41h-.49v-1.04h4.7Z"/><path d="m143.04,580.18c0-1.7,1.13-2.87,2.76-2.87,1.92,0,2.82,1.15,2.82,2.92s-.99,2.86-2.77,2.86c-1.64,0-2.81-.95-2.81-2.91Zm3.61.06c0-.95-.26-1.71-.86-1.71-.48,0-.81.68-.81,1.66,0,1.03.37,1.68.87,1.68s.8-.65.8-1.63Z"/><path d="m157.02,581.91h.49v-3.41h-.49v-1.04h2.4c1.9,0,2.99,1.17,2.99,2.67,0,1.79-1.08,2.82-3.02,2.82h-2.37v-1.04Zm2.4,0c.83-.02,1.18-.79,1.18-1.78,0-.84-.35-1.63-1.18-1.63h-.3v3.41h.3Z"/><path d="m173.79,577.46c1.82,0,2.17.79,2.17,1.68,0,1.04-.94,1.56-2.07,1.56h-.6v1.22h.48v1.04h-2.53v-1.04h.44v-3.43h-.44v-1.03h2.55Zm-.49,2.39h.35c.46,0,.77-.24.77-.65,0-.46-.28-.72-.73-.72h-.39v1.37Z"/><path d="m190.07,581.97c-.53.59-1.35,1.11-2.38,1.11-1.67,0-2.77-1.07-2.77-2.82s1.36-2.89,2.39-2.89c.79,0,1.14.44,1.21.53l.18-.44h1.23v2.23h-1.41c-.02-.51-.27-.99-.83-.99s-.93.7-.93,1.56c0,.78.4,1.48,1.15,1.48.66,0,1.18-.69,1.25-.77l.92,1.01Z"/><path d="m204.02,579.5h-1.15v-1.01h-.66v3.41h.65v1.04h-2.92v-1.04h.64v-3.41h-.68v1.01h-1.16v-2.04h5.27v2.04Z"/><path d="m112.63,596.09v1.51h-1.21v-.61h-1.03v1.19h1.3v.91h-1.3v.87h.7v.91h-2.54v-.91h.42v-2.96h-.42v-.9h4.08Z"/><path d="m120.31,599.95h.42v-2.96h-.42v-.9h2.08c1.65,0,2.59,1.02,2.59,2.32,0,1.56-.94,2.45-2.62,2.45h-2.05v-.91Zm2.08,0c.72-.01,1.02-.69,1.02-1.54,0-.73-.3-1.42-1.02-1.42h-.26v2.96h.26Z"/><path d="m136.75,596.09v1.51h-1.21v-.61h-1.03v1.19h1.3v.91h-1.3v.87h.7v.91h-2.54v-.91h.42v-2.96h-.42v-.9h4.08Z"/><path d="m147.01,596.09v.9h-.36v2.96h.88v-.87h1.15v1.77h-3.82v-.91h.38v-2.96h-.38v-.9h2.16Z"/><path d="m161.11,597.86h-1v-.87h-.57v2.96h.57v.91h-2.54v-.91h.56v-2.96h-.59v.87h-1v-1.77h4.58v1.77Z"/><path d="m173.12,600.01c-.46.51-1.17.96-2.07.96-1.45,0-2.41-.93-2.41-2.45s1.18-2.51,2.07-2.51c.68,0,.99.38,1.05.46l.16-.38h1.07v1.94h-1.22c-.02-.44-.24-.86-.72-.86s-.81.61-.81,1.35c0,.68.35,1.28,1,1.28.57,0,1.02-.6,1.09-.67l.8.87Z"/><path d="m185,596.09v1.51h-1.18v-.61h-1.09v.94h1.3v.91h-1.3v1.11h1.09v-.64h1.18v1.54h-4.11v-.91h.43v-2.96h-.43v-.9h4.11Z"/><path d="m192.58,598.45c0-1.47.98-2.49,2.4-2.49,1.67,0,2.45,1,2.45,2.54s-.86,2.48-2.4,2.48c-1.43,0-2.44-.83-2.44-2.53Zm3.14.05c0-.83-.23-1.49-.75-1.49-.42,0-.7.59-.7,1.44,0,.89.32,1.46.76,1.46s.7-.57.7-1.41Z"/><path d="m115.16,612.11c1.06,0,1.26.46,1.26.98,0,.6-.55.91-1.2.91h-.35v.71h.28v.6h-1.47v-.6h.26v-1.99h-.26v-.6h1.48Zm-.29,1.39h.21c.27,0,.45-.14.45-.38,0-.27-.16-.42-.43-.42h-.23v.8Z"/><path d="m125.98,612.11v1.01h-.79v-.41h-.73v.63h.87v.61h-.87v.75h.73v-.42h.79v1.03h-2.76v-.61h.29v-1.98h-.29v-.6h2.76Z"/><path d="m132.64,612.11h3v.61s-1.66,1.98-1.66,1.98h.85v-.58h.81v1.19h-3.02v-.59l1.66-1.99h-.86v.59h-.78v-1.2Z"/><path d="m142.16,613.7c0-.99.66-1.67,1.6-1.67,1.12,0,1.64.67,1.64,1.7s-.58,1.66-1.61,1.66c-.96,0-1.64-.55-1.64-1.7Zm2.1.03c0-.55-.15-1-.5-1-.28,0-.47.4-.47.96,0,.6.21.98.51.98s.47-.38.47-.95Z"/><path d="m153.4,612.11v.6h-.24v1.98h.59v-.58h.77v1.19h-2.56v-.61h.25v-1.98h-.25v-.6h1.44Z"/><path d="m164.4,614.74c-.31.34-.79.64-1.38.64-.97,0-1.61-.62-1.61-1.64s.79-1.68,1.39-1.68c.46,0,.66.26.7.31l.11-.26h.72v1.3h-.82c-.01-.3-.16-.58-.48-.58s-.54.41-.54.9c0,.45.23.86.67.86.38,0,.69-.4.73-.45l.53.58Z"/><path d="m173.67,612.11v1.01h-.81v-.41h-.69v.8h.87v.61h-.87v.58h.47v.61h-1.7v-.61h.28v-1.98h-.28v-.6h2.73Z"/><path d="m183.26,613.3h-.67v-.58h-.38v1.98h.38v.61h-1.7v-.61h.37v-1.98h-.39v.58h-.67v-1.19h3.07v1.19Z"/><path d="m189.17,614.7h.28v-1.98h-.28v-.6h1.39c1.11,0,1.74.68,1.74,1.55,0,1.04-.63,1.64-1.75,1.64h-1.38v-.61Zm1.39,0c.48,0,.69-.46.69-1.03,0-.49-.2-.95-.69-.95h-.17v1.98h.17Z"/><path d="m94.36,472.61c4.63,0,5.5,1.99,5.5,4.27,0,2.63-2.39,3.95-5.24,3.95h-1.52v3.09h1.22v2.63h-6.42v-2.63h1.12v-8.69h-1.12v-2.61h6.46Zm-1.26,6.06h.9c1.16,0,1.95-.6,1.95-1.65,0-1.18-.7-1.81-1.85-1.81h-1v3.47Z"/><path d="m129.23,472.61v4.41h-3.45v-1.78h-3.19v2.75h3.79v2.65h-3.79v3.25h3.19v-1.85h3.45v4.51h-12.02v-2.65h1.26v-8.65h-1.26v-2.63h12.02Z"/><path d="m159.1,484.06c-1.36,1.5-3.43,2.81-6.04,2.81-4.23,0-7.04-2.71-7.04-7.16s3.45-7.34,6.06-7.34c1.99,0,2.89,1.12,3.07,1.36l.46-1.12h3.13v5.66h-3.57c-.06-1.3-.7-2.51-2.11-2.51s-2.37,1.77-2.37,3.95c0,1.97,1.02,3.75,2.91,3.75,1.67,0,2.99-1.75,3.17-1.95l2.33,2.55Z"/><path d="m187.87,472.61v4.41h-3.53v-1.78h-3.01v3.47h3.79v2.65h-3.79v2.53h2.03v2.65h-7.42v-2.65h1.24v-8.65h-1.24v-2.63h11.92Z"/><path d="m204.42,483.9h1.24v-8.65h-1.24v-2.63h6.08c4.83,0,7.58,2.97,7.58,6.78,0,4.55-2.75,7.16-7.66,7.16h-6v-2.65Zm6.08,0c2.11-.04,2.99-2.01,2.99-4.51,0-2.13-.88-4.15-2.99-4.15h-.76v8.65h.76Z"/><path d="m96.28,441.9v3.4h-1.36v11.17h3.32v-3.27h4.32v6.69h-14.41v-3.42h1.42v-11.17h-1.42v-3.4h8.13Z"/><path d="m133.86,441.9c5.97,0,7.1,2.57,7.1,5.51,0,3.4-3.09,5.09-6.77,5.09h-1.96v3.99h1.57v3.4h-8.29v-3.4h1.44v-11.22h-1.44v-3.37h8.34Zm-1.62,7.82h1.16c1.49,0,2.52-.77,2.52-2.14,0-1.52-.9-2.34-2.39-2.34h-1.29v4.48Z"/><path d="m178.89,441.9v5.69h-4.45v-2.29h-4.12v3.55h4.89v3.42h-4.89v4.19h4.12v-2.39h4.45v5.82h-15.52v-3.42h1.62v-11.17h-1.62v-3.4h15.52Z"/><path d="m200.2,456.47h1.6v-11.17h-1.6v-3.4h7.85c6.23,0,9.78,3.83,9.78,8.75,0,5.87-3.55,9.24-9.88,9.24h-7.75v-3.42Zm7.85,0c2.73-.05,3.86-2.6,3.86-5.82,0-2.75-1.13-5.35-3.86-5.35h-.98v11.17h.98Z"/><path d="m118.62,414.37h-4.69v-4.08h-2.68v13.84h2.65v4.24h-11.86v-4.24h2.61v-13.84h-2.74v4.08h-4.69v-8.29h21.39v8.29Z"/><path d="m141.73,417.12c0-6.89,4.59-11.64,11.19-11.64,7.81,0,11.45,4.69,11.45,11.86s-4.02,11.61-11.22,11.61c-6.66,0-11.41-3.86-11.41-11.83Zm14.67.22c0-3.86-1.05-6.95-3.51-6.95-1.94-.03-3.28,2.77-3.28,6.73,0,4.18,1.5,6.82,3.54,6.82s3.25-2.65,3.25-6.6Z"/><path d="m187.77,406.08h20.91l.06,4.24-11.67,13.84h5.93v-4.08h5.64v8.29h-21.07v-4.14l11.61-13.9h-5.99v4.14h-5.42v-8.39Z"/><path d="m134.32,359.47v8.79h-7.04v-3.54h-6.01v6.92h7.56v5.29h-7.56v5.05h4.06v5.29h-14.79v-5.29h2.47v-17.26h-2.47v-5.25h23.78Z"/><path d="m184.46,359.47c9.23,0,10.98,3.98,10.98,8.51,0,5.25-4.77,7.87-10.46,7.87h-3.02v6.16h2.43v5.25h-12.81v-5.25h2.23v-17.34h-2.23v-5.21h12.89Zm-2.51,12.09h1.79c2.31,0,3.9-1.19,3.9-3.3,0-2.35-1.39-3.62-3.7-3.62h-1.99v6.92Z"/><rect class="cls-43" x="83.75" y="514.55" width="138.48" height="6.98"/><rect class="cls-15" x="99.1" y="562.02" width="107.77" height="8.5"/><path d="m48.95,330.83v-5.78l-1.15.31v-.92c.74-.24,1.22-.5,1.44-.78h.94v7.17h-1.23Z"/><path d="m47.43,377.44v-.87l1.75-2.74s.1-.15.21-.32c.12-.17.19-.29.23-.36.04-.07.09-.17.16-.31.07-.14.11-.27.14-.39.02-.12.04-.25.04-.39,0-.28-.05-.5-.15-.64-.1-.15-.25-.21-.46-.2-.44.02-.66.4-.66,1.15v.3h-1.21v-.31c0-.33.03-.62.1-.88.07-.26.18-.48.32-.68.14-.2.34-.35.58-.45.24-.1.53-.16.86-.16.61,0,1.06.16,1.37.49.31.33.46.79.46,1.39,0,.2-.02.4-.06.58-.04.18-.1.36-.18.53-.08.17-.16.32-.23.44-.07.12-.17.27-.3.46-.01.02-.03.04-.03.05,0,.01-.02.03-.03.04-.01.02-.02.03-.03.05l-1.47,2.24h2.15v.99h-3.56Z"/><path d="m49.3,422.1c-.64,0-1.11-.18-1.42-.53-.31-.35-.46-.85-.46-1.5v-.26h1.23v.2c0,.36.05.63.15.8.09.17.26.26.51.26.11,0,.2-.02.28-.06.08-.04.14-.09.19-.15.05-.06.08-.14.11-.24.02-.1.04-.21.05-.31,0-.1.01-.23.01-.38,0-.38-.06-.67-.19-.87-.12-.2-.34-.31-.65-.32-.01,0-.04,0-.1,0-.05,0-.08,0-.09,0v-1.03c.09,0,.15,0,.16,0,.32,0,.54-.09.67-.25.13-.16.19-.42.19-.78,0-.32-.05-.56-.14-.71-.1-.16-.27-.24-.51-.24-.1,0-.19.02-.27.05-.08.03-.14.08-.18.14-.05.06-.08.13-.11.22-.03.09-.05.18-.06.28,0,.1-.02.21-.02.33v.24h-1.23v-.33c0-.61.16-1.08.49-1.42.32-.34.79-.5,1.38-.5s1.07.16,1.39.49c.32.33.49.8.49,1.41,0,.41-.09.75-.26,1.02-.18.27-.41.45-.7.53.31.11.55.31.71.59.17.29.25.67.25,1.14,0,.68-.15,1.22-.45,1.6-.3.38-.77.58-1.42.58Z"/><path d="m49.41,454.97v-1.75h-2.11v-1.13l1.82-4.29h1.44v4.4h.74v1.02h-.74v1.75h-1.16Zm-1.04-2.77h1.04v-3.04l-1.04,3.04Z"/><path d="m49.29,483.88c-.35,0-.65-.05-.89-.15-.24-.1-.43-.25-.56-.44-.13-.2-.23-.42-.28-.67-.06-.25-.08-.55-.08-.9h1.21c0,.2,0,.36.02.49.01.13.04.26.09.38.04.12.11.21.2.28.09.06.21.09.35.09.09,0,.17-.02.24-.05.07-.03.12-.07.17-.11.04-.04.08-.11.11-.19.03-.09.06-.17.07-.23.02-.07.03-.17.03-.3,0-.13.01-.24.01-.33,0-.09,0-.21,0-.38,0-.18,0-.33-.01-.45,0-.12-.02-.24-.05-.37-.03-.13-.06-.23-.11-.3-.05-.07-.11-.13-.19-.18-.08-.05-.18-.07-.3-.07-.17,0-.31.06-.43.17-.12.11-.2.27-.25.45h-1.06l.06-3.98h3.26v1.12h-2.21l-.07,1.69c.1-.1.23-.19.4-.25.17-.07.35-.1.56-.11.28-.01.52.03.73.13.21.1.37.24.5.44.13.2.22.43.28.69.06.27.09.57.09.91,0,.32-.02.6-.05.85-.03.25-.09.49-.17.72-.08.23-.19.42-.33.57-.14.15-.32.27-.54.36-.23.09-.49.14-.79.14Z"/><path d="m49.31,505.04c-.26,0-.49-.04-.7-.12-.21-.08-.39-.19-.53-.33-.14-.14-.26-.31-.36-.51-.1-.2-.17-.42-.21-.65-.04-.23-.07-.48-.07-.75v-2.42c0-.3.02-.57.05-.81.03-.24.1-.47.18-.69.09-.22.2-.41.34-.56.14-.15.32-.27.54-.36.22-.09.47-.13.76-.13,1.19,0,1.79.6,1.81,1.8v.1h-1.19c0-.33-.04-.57-.13-.72-.08-.15-.25-.22-.49-.22s-.4.11-.5.34c-.1.23-.15.61-.15,1.14v.85c.08-.14.21-.26.38-.34.17-.08.36-.13.59-.13,1.03-.01,1.54.67,1.54,2.05,0,.36-.03.68-.1.97-.07.29-.17.54-.31.77-.14.23-.34.4-.58.52-.25.12-.54.18-.88.18Zm0-.96c.12,0,.23-.03.32-.09.09-.06.15-.15.2-.27.04-.12.08-.25.09-.39.02-.14.03-.3.03-.49,0-.14,0-.24,0-.31,0-.07,0-.16-.01-.28,0-.11-.02-.2-.03-.26-.02-.06-.04-.13-.07-.21-.03-.08-.07-.14-.11-.18-.04-.04-.1-.07-.17-.1-.07-.03-.15-.04-.24-.04-.28,0-.49.14-.64.42v1.08c0,.74.22,1.12.65,1.12Z"/><path d="m48.19,538.95l1.4-6.23h-1.89v-.94h3.1v.72l-1.41,6.45h-1.19Z"/><path d="m49.25,559.18c-1.25,0-1.88-.73-1.87-2.18,0-.81.28-1.38.84-1.7-.48-.36-.73-.89-.74-1.58,0-.6.14-1.06.44-1.4.3-.33.74-.5,1.32-.5s1.02.17,1.31.5c.29.33.44.8.43,1.39,0,.7-.25,1.23-.73,1.58.56.33.84.9.84,1.7.01,1.45-.61,2.18-1.86,2.18Zm-.3-1.01c.09.05.19.07.3.07s.21-.02.3-.07c.08-.05.15-.11.2-.18.05-.07.09-.16.11-.27.03-.11.05-.22.05-.31,0-.1.01-.21.01-.34,0-.79-.22-1.19-.67-1.19s-.68.4-.68,1.19c0,.13,0,.24.01.34,0,.1.03.21.06.32.03.11.07.2.11.27.05.07.11.13.2.18Zm.3-3.36c.38,0,.57-.38.57-1.13,0-.27-.05-.49-.14-.66-.09-.17-.24-.25-.43-.25s-.35.08-.45.25c-.09.17-.14.38-.14.66,0,.76.2,1.14.59,1.14Z"/><path d="m49.23,583.64c-1.19,0-1.79-.61-1.81-1.82v-.09h1.19c0,.33.04.56.13.72.08.15.25.23.5.23.23,0,.39-.11.49-.34.09-.23.14-.61.14-1.15v-.85c-.18.3-.5.46-.96.46-.23,0-.43-.03-.61-.1-.18-.07-.33-.17-.44-.29-.12-.12-.21-.27-.29-.45-.07-.18-.13-.37-.16-.57-.03-.2-.05-.43-.05-.67,0-.36.03-.68.1-.96.07-.29.18-.54.32-.76.14-.22.34-.39.58-.51.24-.12.53-.18.86-.18s.61.06.85.18c.24.12.44.28.59.5.15.21.26.46.33.74.07.28.11.58.11.93v2.45c0,.3-.02.57-.05.81-.03.24-.1.47-.18.69-.09.22-.2.41-.34.56-.14.15-.32.27-.54.36-.22.09-.48.13-.76.13Zm.01-3.77c.27,0,.48-.14.62-.41v-1.08c0-.75-.21-1.12-.63-1.12-.12,0-.23.03-.31.1-.09.06-.15.16-.19.27-.05.12-.08.25-.09.39-.02.14-.03.3-.03.49v.24c0,.05,0,.13,0,.22,0,.1,0,.17.02.22,0,.05.02.11.03.19.01.08.03.13.05.17.02.04.05.09.08.13.03.05.07.09.11.11.04.02.09.04.15.06.06.02.12.03.19.03Z"/><path d="m46.69,602.98v-5.78l-1.15.31v-.92c.74-.24,1.22-.5,1.44-.78h.94v7.17h-1.23Z"/><path d="m52.85,602.5c-.32.38-.78.57-1.38.57s-1.06-.19-1.38-.57c-.32-.38-.48-.89-.48-1.52v-3.15c0-.65.16-1.17.47-1.55.31-.38.78-.56,1.4-.56s1.08.19,1.4.57c.31.38.47.89.47,1.54v3.15c0,.64-.16,1.14-.48,1.52Zm-1.38-.48c.42,0,.62-.35.62-1.06v-3.11c0-.09,0-.18,0-.25,0-.08-.02-.16-.03-.24-.01-.09-.03-.16-.07-.23-.03-.07-.07-.13-.11-.18-.04-.06-.1-.1-.17-.13-.07-.03-.15-.04-.24-.04-.11,0-.2.02-.28.07-.08.05-.14.1-.18.17-.04.07-.08.15-.1.25-.02.1-.04.2-.05.29,0,.09-.01.19-.01.3v3.11c0,.7.21,1.06.62,1.06Z"/><path d="m46.73,616.32v-5.78l-1.15.31v-.92c.74-.24,1.22-.51,1.44-.78h.94v7.17h-1.23Z"/><path d="m51.17,616.32v-5.78l-1.15.31v-.92c.74-.24,1.22-.51,1.44-.78h.94v7.17h-1.23Z"/><path d="m246.98,330.83v-.87l1.75-2.74s.1-.15.21-.32c.12-.17.19-.29.23-.36.04-.07.09-.17.16-.31.07-.14.11-.27.14-.39.02-.12.04-.25.04-.39,0-.28-.05-.5-.15-.64-.1-.15-.25-.21-.46-.2-.44.02-.66.4-.66,1.15v.3h-1.21v-.31c0-.33.03-.62.1-.88.07-.26.18-.48.32-.68.14-.2.34-.35.58-.45.24-.1.53-.16.86-.16.61,0,1.06.16,1.37.49.31.33.46.79.46,1.39,0,.2-.02.4-.06.58-.04.18-.1.36-.18.53-.08.17-.16.32-.23.44-.07.12-.17.27-.3.46-.01.02-.02.04-.03.05,0,.01-.02.03-.03.04-.01.02-.02.03-.03.05l-1.47,2.24h2.15v.99h-3.56Z"/><path d="m254.66,330.36c-.32.38-.78.57-1.38.57s-1.06-.19-1.38-.57c-.32-.38-.48-.89-.48-1.52v-3.15c0-.65.16-1.17.47-1.55.31-.38.78-.56,1.4-.56s1.08.19,1.4.57c.31.38.47.89.47,1.54v3.15c0,.63-.16,1.14-.48,1.52Zm-1.38-.48c.42,0,.62-.35.62-1.06v-3.11c0-.09,0-.18,0-.25,0-.08-.02-.16-.03-.24-.01-.09-.03-.16-.07-.23-.03-.06-.07-.13-.11-.18-.04-.06-.1-.1-.17-.13-.07-.03-.15-.04-.24-.04-.11,0-.2.02-.28.07-.08.05-.14.1-.18.17-.04.07-.08.15-.1.25-.02.1-.04.2-.05.29,0,.09-.01.19-.01.31v3.11c0,.7.21,1.06.62,1.06Z"/><path d="m255.84,330.83l2.03-7.17h.84l-2.03,7.17h-.84Z"/><path d="m259.44,330.83v-.87l1.75-2.74s.1-.15.21-.32c.11-.17.19-.29.23-.36.04-.07.09-.17.16-.31.07-.14.11-.27.14-.39.02-.12.04-.25.04-.39,0-.28-.05-.5-.15-.64-.1-.15-.25-.21-.46-.2-.44.02-.66.4-.66,1.15v.3h-1.21v-.31c0-.33.03-.62.1-.88.07-.26.18-.48.32-.68.14-.2.34-.35.58-.45.24-.1.53-.16.86-.16.61,0,1.06.16,1.37.49.31.33.46.79.46,1.39,0,.2-.02.4-.06.58-.04.18-.1.36-.18.53-.08.17-.16.32-.23.44-.07.12-.17.27-.3.46-.01.02-.03.04-.03.05,0,.01-.02.03-.03.04-.01.02-.02.03-.03.05l-1.47,2.24h2.15v.99h-3.56Z"/><path d="m267.12,330.36c-.32.38-.78.57-1.38.57s-1.06-.19-1.38-.57c-.32-.38-.48-.89-.48-1.52v-3.15c0-.65.16-1.17.47-1.55.31-.38.78-.56,1.4-.56s1.08.19,1.4.57c.31.38.47.89.47,1.54v3.15c0,.63-.16,1.14-.48,1.52Zm-1.38-.48c.42,0,.62-.35.62-1.06v-3.11c0-.09,0-.18,0-.25,0-.08-.02-.16-.03-.24-.01-.09-.03-.16-.07-.23-.03-.06-.07-.13-.11-.18-.04-.06-.1-.1-.17-.13-.07-.03-.15-.04-.24-.04-.11,0-.2.02-.28.07-.08.05-.14.1-.18.17-.04.07-.08.15-.1.25-.02.1-.04.2-.05.29,0,.09-.01.19-.01.31v3.11c0,.7.21,1.06.62,1.06Z"/><path d="m271.64,330.36c-.32.38-.78.57-1.38.57s-1.06-.19-1.38-.57c-.32-.38-.48-.89-.48-1.52v-3.15c0-.65.16-1.17.47-1.55.31-.38.78-.56,1.4-.56s1.08.19,1.4.57c.31.38.47.89.47,1.54v3.15c0,.63-.16,1.14-.48,1.52Zm-1.38-.48c.42,0,.62-.35.62-1.06v-3.11c0-.09,0-.18,0-.25,0-.08-.01-.16-.03-.24-.01-.09-.03-.16-.06-.23-.03-.06-.07-.13-.11-.18-.04-.06-.1-.1-.17-.13-.07-.03-.15-.04-.24-.04-.11,0-.2.02-.28.07-.08.05-.14.1-.18.17-.04.07-.08.15-.1.25-.02.1-.04.2-.05.29,0,.09-.01.19-.01.31v3.11c0,.7.21,1.06.62,1.06Z"/><path d="m246.98,377.44v-.87l1.75-2.74s.1-.15.21-.32c.12-.17.19-.29.23-.36.04-.07.09-.17.16-.31.07-.14.11-.27.14-.39s.04-.25.04-.39c0-.28-.05-.5-.15-.64-.1-.15-.25-.21-.46-.2-.44.02-.66.4-.66,1.15v.3h-1.21v-.31c0-.33.03-.62.1-.88.07-.26.18-.48.32-.68.14-.2.34-.35.58-.45.24-.1.53-.16.86-.16.61,0,1.06.16,1.37.49.31.33.46.79.46,1.39,0,.2-.02.4-.06.58-.04.18-.1.36-.18.53-.08.17-.16.32-.23.44-.07.12-.17.27-.3.46-.01.02-.02.04-.03.05,0,.01-.02.03-.03.04-.01.02-.02.03-.03.05l-1.47,2.24h2.15v.99h-3.56Z"/><path d="m254.66,376.97c-.32.38-.78.57-1.38.57s-1.06-.19-1.38-.57c-.32-.38-.48-.89-.48-1.52v-3.15c0-.65.16-1.17.47-1.55.31-.38.78-.56,1.4-.56s1.08.19,1.4.57c.31.38.47.89.47,1.54v3.15c0,.63-.16,1.14-.48,1.52Zm-1.38-.48c.42,0,.62-.35.62-1.06v-3.11c0-.09,0-.18,0-.25,0-.08-.02-.16-.03-.24-.01-.09-.03-.16-.07-.23-.03-.06-.07-.13-.11-.18-.04-.06-.1-.1-.17-.13-.07-.03-.15-.04-.24-.04-.11,0-.2.02-.28.07-.08.05-.14.1-.18.17-.04.07-.08.15-.1.25-.02.1-.04.2-.05.29,0,.09-.01.19-.01.3v3.11c0,.7.21,1.06.62,1.06Z"/><path d="m255.84,377.44l2.03-7.17h.84l-2.03,7.17h-.84Z"/><path d="m260.96,377.44v-5.78l-1.15.31v-.92c.74-.24,1.22-.5,1.44-.78h.94v7.17h-1.23Z"/><path d="m267.12,376.97c-.32.38-.78.57-1.38.57s-1.06-.19-1.38-.57c-.32-.38-.48-.89-.48-1.52v-3.15c0-.65.16-1.17.47-1.55.31-.38.78-.56,1.4-.56s1.08.19,1.4.57c.31.38.47.89.47,1.54v3.15c0,.63-.16,1.14-.48,1.52Zm-1.38-.48c.42,0,.62-.35.62-1.06v-3.11c0-.09,0-.18,0-.25,0-.08-.02-.16-.03-.24-.01-.09-.03-.16-.07-.23-.03-.06-.07-.13-.11-.18-.04-.06-.1-.1-.17-.13-.07-.03-.15-.04-.24-.04-.11,0-.2.02-.28.07-.08.05-.14.1-.18.17-.04.07-.08.15-.1.25-.02.1-.04.2-.05.29,0,.09-.01.19-.01.3v3.11c0,.7.21,1.06.62,1.06Z"/><path d="m271.64,376.97c-.32.38-.78.57-1.38.57s-1.06-.19-1.38-.57c-.32-.38-.48-.89-.48-1.52v-3.15c0-.65.16-1.17.47-1.55.31-.38.78-.56,1.4-.56s1.08.19,1.4.57c.31.38.47.89.47,1.54v3.15c0,.63-.16,1.14-.48,1.52Zm-1.38-.48c.42,0,.62-.35.62-1.06v-3.11c0-.09,0-.18,0-.25,0-.08-.01-.16-.03-.24-.01-.09-.03-.16-.06-.23-.03-.06-.07-.13-.11-.18-.04-.06-.1-.1-.17-.13-.07-.03-.15-.04-.24-.04-.11,0-.2.02-.28.07-.08.05-.14.1-.18.17-.04.07-.08.15-.1.25-.02.1-.04.2-.05.29,0,.09-.01.19-.01.3v3.11c0,.7.21,1.06.62,1.06Z"/><path d="m246.98,422v-.87l1.75-2.74s.1-.15.21-.32c.12-.17.19-.29.23-.36.04-.07.09-.17.16-.31.07-.14.11-.27.14-.39.02-.12.04-.25.04-.39,0-.28-.05-.5-.15-.64-.1-.15-.25-.21-.46-.2-.44.02-.66.4-.66,1.15v.3h-1.21v-.31c0-.33.03-.62.1-.88.07-.26.18-.48.32-.68.14-.2.34-.35.58-.45.24-.1.53-.16.86-.16.61,0,1.06.16,1.37.49.31.33.46.79.46,1.39,0,.2-.02.4-.06.58-.04.18-.1.36-.18.53-.08.17-.16.32-.23.44-.07.12-.17.27-.3.46-.01.02-.02.04-.03.05,0,.01-.02.03-.03.04-.01.02-.02.03-.03.05l-1.47,2.24h2.15v.99h-3.56Z"/><path d="m254.66,421.52c-.32.38-.78.57-1.38.57s-1.06-.19-1.38-.57c-.32-.38-.48-.89-.48-1.52v-3.15c0-.65.16-1.17.47-1.55.31-.38.78-.56,1.4-.56s1.08.19,1.4.57c.31.38.47.89.47,1.54v3.15c0,.63-.16,1.14-.48,1.52Zm-1.38-.48c.42,0,.62-.35.62-1.06v-3.11c0-.09,0-.18,0-.25,0-.08-.02-.16-.03-.24-.01-.09-.03-.16-.07-.23-.03-.06-.07-.13-.11-.18-.04-.06-.1-.1-.17-.13-.07-.03-.15-.04-.24-.04-.11,0-.2.02-.28.07-.08.05-.14.1-.18.17-.04.07-.08.15-.1.25-.02.1-.04.2-.05.29,0,.09-.01.19-.01.3v3.11c0,.7.21,1.06.62,1.06Z"/><path d="m255.84,422l2.03-7.17h.84l-2.03,7.17h-.84Z"/><path d="m259.89,422l1.4-6.23h-1.89v-.94h3.1v.72l-1.41,6.45h-1.19Z"/><path d="m266.49,421.52c-.32.38-.78.57-1.38.57s-1.06-.19-1.38-.57c-.32-.38-.48-.89-.48-1.52v-3.15c0-.65.16-1.17.47-1.55.31-.38.78-.56,1.4-.56s1.08.19,1.4.57c.31.38.47.89.47,1.54v3.15c0,.63-.16,1.14-.48,1.52Zm-1.38-.48c.42,0,.62-.35.62-1.06v-3.11c0-.09,0-.18,0-.25,0-.08-.02-.16-.03-.24-.01-.09-.03-.16-.07-.23-.03-.06-.07-.13-.11-.18-.04-.06-.1-.1-.17-.13-.07-.03-.15-.04-.24-.04-.11,0-.2.02-.28.07-.08.05-.14.1-.18.17-.04.07-.08.15-.1.25-.02.1-.04.2-.05.29,0,.09-.01.19-.01.3v3.11c0,.7.21,1.06.62,1.06Z"/><path d="m246.98,454.97v-.87l1.75-2.74s.1-.15.21-.32c.12-.17.19-.29.23-.36.04-.07.09-.17.16-.31.07-.14.11-.27.14-.39s.04-.25.04-.39c0-.28-.05-.5-.15-.64-.1-.15-.25-.22-.46-.2-.44.02-.66.4-.66,1.15v.3h-1.21v-.31c0-.33.03-.62.1-.88.07-.26.18-.48.32-.68.14-.2.34-.35.58-.45.24-.1.53-.16.86-.16.61,0,1.06.16,1.37.49.31.33.46.79.46,1.39,0,.2-.02.4-.06.58-.04.18-.1.36-.18.53-.08.17-.16.32-.23.44-.07.12-.17.27-.3.46-.01.02-.02.04-.03.05,0,.01-.02.03-.03.04-.01.02-.02.03-.03.05l-1.47,2.24h2.15v.99h-3.56Z"/><path d="m254.66,454.5c-.32.38-.78.57-1.38.57s-1.06-.19-1.38-.57c-.32-.38-.48-.89-.48-1.52v-3.15c0-.65.16-1.17.47-1.55.31-.38.78-.56,1.4-.56s1.08.19,1.4.57c.31.38.47.89.47,1.54v3.15c0,.63-.16,1.14-.48,1.52Zm-1.38-.48c.42,0,.62-.35.62-1.06v-3.11c0-.09,0-.18,0-.25,0-.08-.02-.16-.03-.24-.01-.09-.03-.16-.07-.23-.03-.06-.07-.13-.11-.18-.04-.06-.1-.1-.17-.13-.07-.03-.15-.04-.24-.04-.11,0-.2.02-.28.07-.08.04-.14.1-.18.17-.04.07-.08.15-.1.25-.02.1-.04.2-.05.29,0,.09-.01.19-.01.31v3.11c0,.7.21,1.06.62,1.06Z"/><path d="m255.84,454.97l2.03-7.17h.84l-2.03,7.17h-.84Z"/><path d="m261.29,455.07c-.35,0-.65-.05-.89-.15-.24-.1-.43-.25-.56-.45-.13-.2-.23-.42-.28-.67-.06-.25-.08-.55-.08-.9h1.21c0,.2,0,.36.02.49.01.13.04.26.09.38.04.12.11.21.2.27.09.06.21.09.35.09.09,0,.17-.02.24-.05.07-.03.12-.07.17-.11.04-.04.08-.1.11-.19.03-.09.06-.17.07-.23.02-.07.03-.17.03-.3,0-.13.01-.24.01-.33,0-.09,0-.21,0-.38,0-.18,0-.33-.01-.45,0-.12-.02-.25-.05-.37-.03-.13-.06-.23-.11-.3-.05-.07-.11-.13-.19-.18-.08-.05-.18-.07-.3-.07-.17,0-.31.06-.43.17-.12.12-.2.27-.25.45h-1.06l.06-3.98h3.26v1.12h-2.21l-.07,1.69c.1-.1.23-.19.4-.25.17-.07.36-.1.56-.11.28-.01.52.03.73.13.21.1.37.25.5.44.13.2.22.43.28.69.06.27.09.57.09.91,0,.32-.02.6-.05.85-.03.25-.09.49-.17.72-.08.23-.19.42-.33.57-.14.15-.32.27-.54.36-.22.09-.49.14-.79.14Z"/><path d="m267.1,454.5c-.32.38-.78.57-1.38.57s-1.06-.19-1.38-.57c-.32-.38-.48-.89-.48-1.52v-3.15c0-.65.16-1.17.47-1.55.31-.38.78-.56,1.4-.56s1.08.19,1.4.57c.31.38.47.89.47,1.54v3.15c0,.63-.16,1.14-.48,1.52Zm-1.38-.48c.42,0,.62-.35.62-1.06v-3.11c0-.09,0-.18,0-.25,0-.08-.02-.16-.03-.24-.01-.09-.03-.16-.07-.23-.03-.06-.07-.13-.11-.18-.04-.06-.1-.1-.17-.13-.07-.03-.15-.04-.24-.04-.11,0-.2.02-.28.07-.08.04-.14.1-.18.17-.04.07-.08.15-.1.25-.02.1-.04.2-.05.29,0,.09-.01.19-.01.31v3.11c0,.7.21,1.06.62,1.06Z"/><path d="m246.98,483.78v-.87l1.75-2.74s.1-.15.21-.32c.12-.17.19-.29.23-.36.04-.07.09-.17.16-.31.07-.14.11-.27.14-.39.02-.12.04-.25.04-.39,0-.28-.05-.5-.15-.64-.1-.15-.25-.22-.46-.2-.44.02-.66.4-.66,1.15v.3h-1.21v-.31c0-.33.03-.62.1-.88.07-.26.18-.48.32-.68.14-.2.34-.35.58-.45.24-.1.53-.16.86-.16.61,0,1.06.16,1.37.49.31.33.46.79.46,1.39,0,.2-.02.4-.06.58-.04.18-.1.36-.18.53-.08.17-.16.32-.23.44-.07.12-.17.27-.3.46-.01.02-.02.04-.03.05,0,.01-.02.02-.03.04-.01.02-.02.03-.03.05l-1.47,2.24h2.15v.99h-3.56Z"/><path d="m254.66,483.31c-.32.38-.78.57-1.38.57s-1.06-.19-1.38-.57c-.32-.38-.48-.89-.48-1.52v-3.15c0-.65.16-1.17.47-1.55.31-.38.78-.56,1.4-.56s1.08.19,1.4.57c.31.38.47.89.47,1.54v3.15c0,.64-.16,1.14-.48,1.52Zm-1.38-.48c.42,0,.62-.35.62-1.06v-3.11c0-.09,0-.18,0-.25,0-.08-.02-.16-.03-.24-.01-.09-.03-.16-.07-.23-.03-.07-.07-.13-.11-.18-.04-.06-.1-.1-.17-.13-.07-.03-.15-.04-.24-.04-.11,0-.2.02-.28.07-.08.05-.14.1-.18.17-.04.07-.08.15-.1.25-.02.1-.04.2-.05.29,0,.09-.01.19-.01.3v3.11c0,.7.21,1.06.62,1.06Z"/><path d="m255.84,483.78l2.03-7.17h.84l-2.03,7.17h-.84Z"/><path d="m261.46,483.78v-1.75h-2.11v-1.13l1.82-4.29h1.44v4.4h.74v1.02h-.74v1.75h-1.16Zm-1.04-2.77h1.04v-3.04l-1.04,3.04Z"/><path d="m267.2,483.31c-.32.38-.78.57-1.38.57s-1.06-.19-1.38-.57c-.32-.38-.48-.89-.48-1.52v-3.15c0-.65.16-1.17.47-1.55.31-.38.78-.56,1.4-.56s1.08.19,1.4.57c.31.38.47.89.47,1.54v3.15c0,.64-.16,1.14-.48,1.52Zm-1.38-.48c.42,0,.62-.35.62-1.06v-3.11c0-.09,0-.18,0-.25,0-.08-.02-.16-.03-.24-.01-.09-.03-.16-.07-.23-.03-.07-.07-.13-.11-.18-.04-.06-.1-.1-.17-.13-.07-.03-.15-.04-.24-.04-.11,0-.2.02-.28.07-.08.05-.14.1-.18.17-.04.07-.08.15-.1.25-.02.1-.04.2-.05.29,0,.09-.01.19-.01.3v3.11c0,.7.21,1.06.62,1.06Z"/><path d="m246.98,504.96v-.87l1.75-2.74s.1-.15.21-.32c.12-.17.19-.29.23-.36.04-.07.09-.17.16-.31.07-.14.11-.27.14-.39.02-.12.04-.25.04-.39,0-.28-.05-.5-.15-.64-.1-.15-.25-.22-.46-.2-.44.02-.66.4-.66,1.15v.3h-1.21v-.31c0-.33.03-.62.1-.88.07-.26.18-.48.32-.68.14-.2.34-.35.58-.45.24-.1.53-.16.86-.16.61,0,1.06.16,1.37.49.31.33.46.79.46,1.39,0,.2-.02.4-.06.58-.04.18-.1.36-.18.53-.08.17-.16.32-.23.44-.07.12-.17.27-.3.46-.01.02-.02.04-.03.05,0,.01-.02.02-.03.04-.01.02-.02.03-.03.05l-1.47,2.24h2.15v.99h-3.56Z"/><path d="m254.66,504.49c-.32.38-.78.57-1.38.57s-1.06-.19-1.38-.57c-.32-.38-.48-.89-.48-1.52v-3.15c0-.65.16-1.17.47-1.55.31-.38.78-.56,1.4-.56s1.08.19,1.4.57c.31.38.47.89.47,1.54v3.15c0,.64-.16,1.14-.48,1.52Zm-1.38-.48c.42,0,.62-.35.62-1.06v-3.11c0-.09,0-.18,0-.25,0-.08-.02-.16-.03-.24-.01-.09-.03-.16-.07-.23-.03-.07-.07-.13-.11-.18-.04-.06-.1-.1-.17-.13-.07-.03-.15-.04-.24-.04-.11,0-.2.02-.28.07-.08.05-.14.1-.18.17-.04.07-.08.15-.1.25-.02.1-.04.2-.05.29,0,.09-.01.19-.01.3v3.11c0,.7.21,1.06.62,1.06Z"/><path d="m255.84,504.96l2.03-7.17h.84l-2.03,7.17h-.84Z"/><path d="m261.28,505.06c-.64,0-1.11-.18-1.42-.53-.31-.35-.46-.85-.46-1.5v-.26h1.23v.2c0,.36.05.63.15.8.09.17.26.26.51.26.11,0,.2-.02.28-.06.08-.04.14-.09.19-.15s.08-.14.11-.24c.02-.1.04-.21.05-.31,0-.1.01-.23.01-.38,0-.38-.06-.67-.19-.87-.12-.2-.34-.31-.65-.32-.01,0-.04,0-.1,0-.05,0-.08,0-.09,0v-1.03c.09,0,.15,0,.16,0,.32,0,.54-.09.67-.25.13-.16.19-.42.19-.78,0-.32-.05-.55-.14-.71-.1-.16-.27-.24-.51-.24-.1,0-.19.02-.27.05-.08.03-.14.08-.18.14-.05.06-.08.13-.11.22-.03.09-.05.18-.06.28-.01.1-.02.21-.02.33v.24h-1.23v-.33c0-.61.16-1.08.49-1.42.32-.34.79-.5,1.38-.5s1.07.16,1.39.49c.32.33.49.8.49,1.41,0,.41-.09.75-.26,1.02-.18.27-.41.45-.7.53.31.11.55.3.71.6.17.29.25.67.25,1.14,0,.68-.15,1.22-.45,1.6-.3.38-.77.57-1.42.57Z"/><path d="m267.04,504.49c-.32.38-.78.57-1.38.57s-1.06-.19-1.38-.57c-.32-.38-.48-.89-.48-1.52v-3.15c0-.65.16-1.17.47-1.55.31-.38.78-.56,1.4-.56s1.08.19,1.4.57c.31.38.47.89.47,1.54v3.15c0,.64-.16,1.14-.48,1.52Zm-1.38-.48c.42,0,.62-.35.62-1.06v-3.11c0-.09,0-.18,0-.25,0-.08-.02-.16-.03-.24-.01-.09-.03-.16-.07-.23-.03-.07-.07-.13-.11-.18-.04-.06-.1-.1-.17-.13-.07-.03-.15-.04-.24-.04-.11,0-.2.02-.28.07-.08.05-.14.1-.18.17-.04.07-.08.15-.1.25-.02.1-.04.2-.05.29,0,.09-.01.19-.01.3v3.11c0,.7.21,1.06.62,1.06Z"/><path d="m246.98,538.95v-.87l1.75-2.74s.1-.15.21-.32c.12-.17.19-.29.23-.36.04-.07.09-.17.16-.31.07-.14.11-.27.14-.39.02-.12.04-.25.04-.39,0-.28-.05-.5-.15-.64-.1-.15-.25-.22-.46-.2-.44.02-.66.4-.66,1.15v.3h-1.21v-.31c0-.33.03-.62.1-.88.07-.26.18-.48.32-.68.14-.2.34-.35.58-.45.24-.1.53-.16.86-.16.61,0,1.06.16,1.37.49.31.33.46.79.46,1.39,0,.2-.02.4-.06.58-.04.18-.1.36-.18.53-.08.17-.16.32-.23.44-.07.12-.17.27-.3.46-.01.02-.02.04-.03.05,0,.01-.02.03-.03.04-.01.02-.02.03-.03.04l-1.47,2.24h2.15v.99h-3.56Z"/><path d="m254.66,538.48c-.32.38-.78.57-1.38.57s-1.06-.19-1.38-.57c-.32-.38-.48-.89-.48-1.52v-3.15c0-.66.16-1.17.47-1.55.31-.38.78-.56,1.4-.56s1.08.19,1.4.57c.31.38.47.89.47,1.54v3.15c0,.64-.16,1.14-.48,1.52Zm-1.38-.48c.42,0,.62-.35.62-1.06v-3.11c0-.09,0-.18,0-.25,0-.08-.02-.16-.03-.24-.01-.09-.03-.16-.07-.23-.03-.07-.07-.13-.11-.18-.04-.06-.1-.1-.17-.13-.07-.03-.15-.04-.24-.04-.11,0-.2.02-.28.07-.08.05-.14.1-.18.17-.04.07-.08.15-.1.25-.02.1-.04.2-.05.29,0,.09-.01.19-.01.3v3.11c0,.7.21,1.06.62,1.06Z"/><path d="m255.84,538.95l2.03-7.17h.84l-2.03,7.17h-.84Z"/><path d="m259.44,538.95v-.87l1.75-2.74s.1-.15.21-.32c.11-.17.19-.29.23-.36.04-.07.09-.17.16-.31.07-.14.11-.27.14-.39.02-.12.04-.25.04-.39,0-.28-.05-.5-.15-.64-.1-.15-.25-.22-.46-.2-.44.02-.66.4-.66,1.15v.3h-1.21v-.31c0-.33.03-.62.1-.88.07-.26.18-.48.32-.68.14-.2.34-.35.58-.45.24-.1.53-.16.86-.16.61,0,1.06.16,1.37.49.31.33.46.79.46,1.39,0,.2-.02.4-.06.58-.04.18-.1.36-.18.53-.08.17-.16.32-.23.44-.07.12-.17.27-.3.46-.01.02-.03.04-.03.05,0,.01-.02.03-.03.04-.01.02-.02.03-.03.04l-1.47,2.24h2.15v.99h-3.56Z"/><path d="m265.72,539.05c-.35,0-.65-.05-.89-.15-.24-.1-.43-.25-.56-.44-.13-.2-.23-.42-.28-.67-.06-.25-.08-.55-.08-.9h1.21c0,.2,0,.36.02.49.01.13.04.26.09.38.04.12.11.21.2.28.09.06.21.09.35.09.09,0,.17-.02.24-.05.07-.03.12-.07.17-.11.04-.04.08-.11.11-.19.03-.09.06-.17.07-.23.02-.07.03-.17.03-.3,0-.13.01-.24.01-.33,0-.09,0-.21,0-.38,0-.18,0-.33-.01-.45,0-.12-.02-.24-.05-.37-.03-.13-.06-.23-.11-.3-.05-.07-.11-.13-.2-.18-.08-.05-.18-.07-.3-.07-.17,0-.31.06-.43.17-.12.12-.2.27-.25.45h-1.06l.06-3.98h3.26v1.12h-2.21l-.07,1.69c.1-.1.23-.19.4-.25.17-.07.36-.1.56-.11.28-.01.52.03.73.13.21.1.37.24.5.44.13.2.22.43.28.69.06.27.09.57.09.91,0,.32-.01.6-.05.85-.03.25-.09.49-.17.72-.08.23-.19.42-.33.57-.14.15-.32.27-.54.36-.22.09-.49.14-.79.14Z"/><path d="m246.98,559.09v-.87l1.75-2.74s.1-.15.21-.32c.12-.17.19-.29.23-.36.04-.07.09-.17.16-.31.07-.14.11-.27.14-.39.02-.12.04-.25.04-.39,0-.28-.05-.5-.15-.64-.1-.15-.25-.22-.46-.2-.44.02-.66.4-.66,1.15v.3h-1.21v-.31c0-.33.03-.62.1-.88.07-.26.18-.48.32-.68.14-.2.34-.35.58-.45.24-.1.53-.16.86-.16.61,0,1.06.16,1.37.49.31.33.46.79.46,1.39,0,.2-.02.4-.06.58-.04.18-.1.36-.18.53-.08.17-.16.32-.23.44-.07.12-.17.27-.3.46-.01.02-.02.04-.03.05,0,.01-.02.03-.03.04-.01.02-.02.03-.03.05l-1.47,2.24h2.15v.99h-3.56Z"/><path d="m254.66,558.62c-.32.38-.78.57-1.38.57s-1.06-.19-1.38-.57c-.32-.38-.48-.89-.48-1.52v-3.15c0-.66.16-1.17.47-1.55.31-.38.78-.56,1.4-.56s1.08.19,1.4.57c.31.38.47.89.47,1.54v3.15c0,.64-.16,1.14-.48,1.52Zm-1.38-.48c.42,0,.62-.35.62-1.06v-3.11c0-.09,0-.18,0-.25,0-.08-.02-.16-.03-.24-.01-.09-.03-.16-.07-.23-.03-.07-.07-.13-.11-.18-.04-.06-.1-.1-.17-.13-.07-.03-.15-.04-.24-.04-.11,0-.2.02-.28.07-.08.05-.14.1-.18.17-.04.07-.08.15-.1.25-.02.1-.04.2-.05.29,0,.09-.01.19-.01.3v3.11c0,.7.21,1.06.62,1.06Z"/><path d="m255.84,559.09l2.03-7.17h.84l-2.03,7.17h-.84Z"/><path d="m259.44,559.09v-.87l1.75-2.74s.1-.15.21-.32c.11-.17.19-.29.23-.36.04-.07.09-.17.16-.31.07-.14.11-.27.14-.39.02-.12.04-.25.04-.39,0-.28-.05-.5-.15-.64-.1-.15-.25-.22-.46-.2-.44.02-.66.4-.66,1.15v.3h-1.21v-.31c0-.33.03-.62.1-.88.07-.26.18-.48.32-.68.14-.2.34-.35.58-.45.24-.1.53-.16.86-.16.61,0,1.06.16,1.37.49.31.33.46.79.46,1.39,0,.2-.02.4-.06.58-.04.18-.1.36-.18.53-.08.17-.16.32-.23.44-.07.12-.17.27-.3.46-.01.02-.03.04-.03.05,0,.01-.02.03-.03.04-.01.02-.02.03-.03.05l-1.47,2.24h2.15v.99h-3.56Z"/><path d="m267.12,558.62c-.32.38-.78.57-1.38.57s-1.06-.19-1.38-.57c-.32-.38-.48-.89-.48-1.52v-3.15c0-.66.16-1.17.47-1.55.31-.38.78-.56,1.4-.56s1.08.19,1.4.57c.31.38.47.89.47,1.54v3.15c0,.64-.16,1.14-.48,1.52Zm-1.38-.48c.42,0,.62-.35.62-1.06v-3.11c0-.09,0-.18,0-.25,0-.08-.02-.16-.03-.24-.01-.09-.03-.16-.07-.23-.03-.07-.07-.13-.11-.18-.04-.06-.1-.1-.17-.13-.07-.03-.15-.04-.24-.04-.11,0-.2.02-.28.07-.08.05-.14.1-.18.17-.04.07-.08.15-.1.25-.02.1-.04.2-.05.29,0,.09-.01.19-.01.3v3.11c0,.7.21,1.06.62,1.06Z"/><path d="m247.03,583.64v-.86l1.75-2.74s.1-.15.21-.32c.11-.17.19-.29.23-.36.04-.07.09-.17.16-.31.07-.14.11-.27.14-.39.02-.12.04-.25.04-.39,0-.28-.05-.5-.15-.64-.1-.15-.25-.21-.46-.2-.44.02-.66.4-.66,1.15v.3h-1.21v-.31c0-.33.03-.62.1-.88.07-.26.18-.48.32-.68.14-.2.34-.35.58-.45.24-.1.53-.16.86-.16.61,0,1.06.16,1.37.49s.46.79.46,1.39c0,.2-.02.4-.06.58-.04.18-.1.36-.18.53-.08.17-.16.32-.23.44-.07.12-.17.27-.3.46-.01.02-.03.04-.03.05,0,.01-.02.03-.03.04-.01.02-.02.03-.03.05l-1.47,2.24h2.15v.99h-3.56Z"/><path d="m254.71,583.17c-.32.38-.78.57-1.38.57s-1.06-.19-1.38-.57c-.32-.38-.48-.89-.48-1.52v-3.15c0-.65.16-1.17.46-1.55s.78-.56,1.4-.56,1.08.19,1.39.57c.31.38.47.89.47,1.54v3.15c0,.63-.16,1.14-.48,1.52Zm-1.38-.48c.41,0,.62-.35.62-1.05v-3.11c0-.09,0-.18,0-.25,0-.08-.02-.16-.03-.25-.01-.09-.03-.16-.06-.23-.03-.06-.07-.13-.11-.18-.04-.06-.1-.1-.17-.13-.07-.03-.15-.04-.24-.04-.11,0-.2.02-.28.07-.08.04-.14.1-.18.17-.04.07-.08.15-.1.25-.02.1-.04.2-.05.28,0,.09-.01.19-.01.31v3.11c0,.7.21,1.05.62,1.05Z"/><path d="m255.89,583.64l2.03-7.17h.84l-2.03,7.17h-.84Z"/><path d="m261,583.64v-5.78l-1.15.31v-.92c.73-.24,1.22-.5,1.44-.78h.94v7.17h-1.23Z"/><path d="m265.76,583.74c-.35,0-.65-.05-.89-.15-.24-.1-.43-.25-.56-.45s-.23-.42-.28-.67c-.06-.25-.08-.55-.08-.9h1.21c0,.2,0,.36.02.49.01.13.04.26.09.38.04.12.11.21.2.27.09.06.21.09.35.09.09,0,.17-.02.24-.05.07-.03.12-.07.17-.11.04-.04.08-.1.11-.19.03-.09.06-.17.07-.23.02-.07.03-.17.03-.3,0-.13.01-.24.01-.33,0-.09,0-.21,0-.38,0-.18,0-.33-.01-.45,0-.12-.02-.25-.05-.37-.03-.13-.06-.23-.11-.3-.05-.07-.11-.13-.19-.18-.08-.05-.18-.07-.3-.07-.17,0-.31.06-.43.17-.12.12-.2.26-.25.45h-1.05l.06-3.98h3.26v1.12h-2.2l-.07,1.69c.1-.1.23-.19.4-.25.17-.06.36-.1.56-.11.28-.01.52.03.73.13.21.1.37.24.5.44.13.2.22.43.28.69s.09.57.09.91c0,.32-.01.6-.04.85-.03.25-.09.49-.17.72-.08.23-.19.42-.33.57-.14.15-.32.27-.54.36-.22.09-.49.14-.79.14Z"/><path d="m247.03,603.07v-.86l1.75-2.74s.1-.15.21-.32c.11-.17.19-.29.23-.36.04-.07.09-.17.16-.31.07-.14.11-.27.14-.39.02-.12.04-.25.04-.39,0-.28-.05-.5-.15-.64-.1-.15-.25-.21-.46-.2-.44.02-.66.4-.66,1.15v.3h-1.21v-.31c0-.33.03-.62.1-.88.07-.26.18-.48.32-.68.14-.2.34-.35.58-.45.24-.1.53-.16.86-.16.61,0,1.06.16,1.37.49s.46.79.46,1.39c0,.2-.02.4-.06.58-.04.18-.1.36-.18.53-.08.17-.16.32-.23.44-.07.12-.17.27-.3.46-.01.02-.03.04-.03.05,0,.01-.02.02-.03.04-.01.02-.02.03-.03.05l-1.47,2.24h2.15v.99h-3.56Z"/><path d="m254.71,602.6c-.32.38-.78.57-1.38.57s-1.06-.19-1.38-.57c-.32-.38-.48-.89-.48-1.52v-3.15c0-.65.16-1.17.46-1.55.31-.38.78-.56,1.4-.56s1.08.19,1.39.57c.31.38.47.89.47,1.54v3.15c0,.63-.16,1.14-.48,1.52Zm-1.38-.48c.41,0,.62-.35.62-1.05v-3.11c0-.09,0-.18,0-.25,0-.08-.02-.16-.03-.24-.01-.09-.03-.16-.06-.23-.03-.06-.07-.13-.11-.18-.04-.06-.1-.1-.17-.13-.07-.03-.15-.04-.24-.04-.11,0-.2.02-.28.07-.08.04-.14.1-.18.17-.04.07-.08.15-.1.25-.02.1-.04.2-.05.28,0,.09-.01.19-.01.31v3.11c0,.7.21,1.05.62,1.05Z"/><path d="m255.89,603.07l2.03-7.17h.84l-2.03,7.17h-.84Z"/><path d="m261,603.07v-5.78l-1.15.31v-.92c.73-.25,1.22-.5,1.44-.78h.94v7.17h-1.23Z"/><path d="m265.75,603.17c-.64,0-1.11-.18-1.42-.53-.31-.35-.46-.85-.46-1.5v-.26h1.23v.2c0,.36.05.63.14.8.09.17.26.26.51.26.11,0,.2-.02.28-.06.08-.04.14-.09.19-.14.05-.06.08-.14.11-.24.03-.1.04-.21.05-.31,0-.1.01-.23.01-.38,0-.38-.06-.67-.19-.87-.12-.2-.34-.31-.65-.32-.01,0-.04,0-.1,0-.05,0-.08,0-.09,0v-1.03c.09,0,.15,0,.16,0,.32,0,.54-.09.67-.25.13-.16.19-.42.19-.78,0-.32-.05-.55-.15-.71-.1-.16-.27-.24-.51-.24-.1,0-.19.02-.27.05-.08.03-.14.08-.18.14-.05.06-.08.13-.11.22-.03.09-.05.18-.06.28-.01.09-.02.21-.02.33v.24h-1.23v-.33c0-.61.16-1.08.49-1.42.32-.34.78-.5,1.38-.5s1.07.16,1.39.49c.32.33.49.8.49,1.41,0,.41-.09.75-.26,1.02-.18.27-.41.45-.7.53.31.11.55.31.71.6.17.29.25.67.25,1.14,0,.68-.15,1.22-.45,1.6-.3.38-.77.57-1.42.57Z"/><path d="m247.03,616.32v-.86l1.75-2.74s.1-.15.21-.32c.11-.17.19-.29.23-.36.04-.07.09-.17.16-.31.07-.14.11-.27.14-.39.02-.12.04-.25.04-.39,0-.28-.05-.5-.15-.64-.1-.15-.25-.21-.46-.2-.44.02-.66.4-.66,1.15v.3h-1.21v-.31c0-.33.03-.62.1-.88.07-.26.18-.48.32-.68.14-.2.34-.35.58-.45.24-.1.53-.16.86-.16.61,0,1.06.16,1.37.49s.46.79.46,1.39c0,.2-.02.4-.06.58-.04.18-.1.36-.18.53-.08.17-.16.32-.23.44-.07.12-.17.27-.3.46-.01.02-.03.04-.03.05,0,.01-.02.02-.03.04-.01.02-.02.03-.03.05l-1.47,2.24h2.15v.99h-3.56Z"/><path d="m254.71,615.85c-.32.38-.78.57-1.38.57s-1.06-.19-1.38-.57c-.32-.38-.48-.89-.48-1.52v-3.15c0-.65.16-1.17.46-1.55.31-.38.78-.56,1.4-.56s1.08.19,1.39.57c.31.38.47.89.47,1.54v3.15c0,.63-.16,1.14-.48,1.52Zm-1.38-.48c.41,0,.62-.35.62-1.05v-3.11c0-.09,0-.18,0-.25,0-.08-.02-.16-.03-.24-.01-.09-.03-.16-.06-.23-.03-.06-.07-.13-.11-.18-.04-.06-.1-.1-.17-.13-.07-.03-.15-.04-.24-.04-.11,0-.2.02-.28.07-.08.04-.14.1-.18.17-.04.07-.08.15-.1.25-.02.1-.04.2-.05.28,0,.09-.01.19-.01.31v3.11c0,.7.21,1.05.62,1.05Z"/><path d="m255.89,616.32l2.03-7.17h.84l-2.03,7.17h-.84Z"/><path d="m261,616.32v-5.78l-1.15.31v-.92c.73-.25,1.22-.5,1.44-.78h.94v7.17h-1.23Z"/><path d="m267.16,615.85c-.32.38-.78.57-1.38.57s-1.06-.19-1.38-.57c-.32-.38-.48-.89-.48-1.52v-3.15c0-.65.16-1.17.46-1.55.31-.38.78-.56,1.4-.56s1.08.19,1.39.57c.31.38.47.89.47,1.54v3.15c0,.63-.16,1.14-.48,1.52Zm-1.38-.48c.41,0,.62-.35.62-1.05v-3.11c0-.09,0-.18,0-.25,0-.08-.02-.16-.03-.24-.01-.09-.03-.16-.06-.23-.03-.06-.07-.13-.11-.18-.04-.06-.1-.1-.17-.13-.07-.03-.15-.04-.24-.04-.11,0-.2.02-.28.07-.08.04-.14.1-.18.17-.04.07-.08.15-.1.25-.02.1-.04.2-.05.28,0,.09-.01.19-.01.31v3.11c0,.7.21,1.05.62,1.05Z"/><g class="cls-82"><path class="cls-20" d="m286.06,630.34H24.64v-351.16h261.42v351.16ZM14.04,264.93v379.65h282.62v-379.65H14.04Z"/><path class="cls-206" d="m286.09,630.38H24.61v-351.24h261.48v351.24ZM14.01,264.89v379.73h282.69v-379.73H14.01Z"/><path class="cls-33" d="m286.12,630.42H24.58v-351.32h261.53v351.32ZM13.98,264.85v379.82h282.75v-379.82H13.98Z"/><path class="cls-166" d="m286.15,630.46H24.55v-351.4h261.59v351.4ZM13.94,264.81v379.9h282.81v-379.9H13.94Z"/><path class="cls-47" d="m286.18,630.5H24.53v-351.48h261.65v351.48ZM13.91,264.76v379.99h282.88v-379.99H13.91Z"/><path class="cls-198" d="m286.21,630.53H24.5v-351.55h261.71v351.55ZM13.88,264.72v380.07h282.94v-380.07H13.88Z"/><path class="cls-10" d="m286.24,630.57H24.47v-351.63h261.77v351.63ZM13.85,264.68v380.16h283v-380.16H13.85Z"/><path class="cls-207" d="m286.27,630.61H24.44v-351.71h261.83v351.71ZM13.82,264.64v380.24h283.07v-380.24H13.82Z"/><path class="cls-144" d="m286.29,630.65H24.41v-351.79h261.89v351.79ZM13.79,264.59v380.33h283.13v-380.33H13.79Z"/><path class="cls-155" d="m286.32,630.69H24.38v-351.87h261.94v351.87ZM13.75,264.55v380.41h283.19v-380.41H13.75Z"/><path class="cls-101" d="m286.35,630.73H24.35v-351.95h262v351.95ZM13.72,264.51v380.5h283.26v-380.5H13.72Z"/><path class="cls-204" d="m286.38,630.77H24.32v-352.03h262.06v352.03ZM13.69,264.47v380.58h283.32v-380.58H13.69Z"/><path class="cls-99" d="m286.41,630.81H24.29v-352.11h262.12v352.11ZM13.66,264.42v380.67h283.38v-380.67H13.66Z"/><path class="cls-83" d="m286.44,630.85H24.26v-352.18h262.18v352.18ZM13.63,264.38v380.75h283.45v-380.75H13.63Z"/><path class="cls-149" d="m286.47,630.89H24.23v-352.26h262.24v352.26ZM13.6,264.34v380.84h283.51v-380.84H13.6Z"/><path class="cls-183" d="m286.5,630.93H24.2v-352.34h262.3v352.34ZM13.56,264.3v380.92h283.57v-380.92H13.56Z"/><path class="cls-88" d="m286.53,630.97H24.17v-352.42h262.36v352.42ZM13.53,264.25v381.01h283.64v-381.01H13.53Z"/><path class="cls-112" d="m286.56,631.01H24.14v-352.5h262.41v352.5ZM13.5,264.21v381.09h283.7v-381.09H13.5Z"/><path class="cls-189" d="m286.59,631.05H24.12v-352.58h262.47v352.58ZM13.47,264.17v381.18h283.76v-381.18H13.47Z"/><path class="cls-87" d="m286.62,631.09H24.09v-352.66h262.53v352.66ZM13.44,264.13v381.26h283.83v-381.26H13.44Z"/><path class="cls-187" d="m286.65,631.13H24.06v-352.74h262.59v352.74ZM13.41,264.08v381.35h283.89v-381.35H13.41Z"/><path class="cls-35" d="m286.68,631.16H24.03v-352.81h262.65v352.81ZM13.37,264.04v381.43h283.95v-381.43H13.37Z"/><path class="cls-78" d="m286.7,631.2H24v-352.89h262.71v352.89ZM13.34,264v381.52h284.02v-381.52H13.34Z"/><path class="cls-25" d="m286.73,631.24H23.97v-352.97h262.77v352.97ZM13.31,263.96v381.6h284.08v-381.6H13.31Z"/><path class="cls-175" d="m286.76,631.28H23.94v-353.05h262.82v353.05ZM13.28,263.91v381.69h284.14v-381.69H13.28Z"/><path class="cls-42" d="m286.79,631.32H23.91v-353.13h262.88v353.13ZM13.25,263.87v381.77h284.21v-381.77H13.25Z"/><path class="cls-89" d="m286.82,631.36H23.88v-353.21h262.94v353.21ZM13.22,263.83v381.86h284.27v-381.86H13.22Z"/><path class="cls-165" d="m286.85,631.4H23.85v-353.29h263v353.29ZM13.18,263.79v381.94h284.33v-381.94H13.18Z"/><path class="cls-120" d="m286.88,631.44H23.82v-353.37h263.06v353.37ZM13.15,263.74v382.03h284.4v-382.03H13.15Z"/><path class="cls-138" d="m286.91,631.48H23.79v-353.44h263.12v353.44ZM13.12,263.7v382.11h284.46v-382.11H13.12Z"/><path class="cls-167" d="m286.94,631.52H23.76v-353.52h263.18v353.52ZM13.09,263.66v382.2h284.52v-382.2H13.09Z"/><path class="cls-159" d="m286.97,631.56H23.73v-353.6h263.23v353.6ZM13.06,263.61v382.29h284.59v-382.29H13.06Z"/><path class="cls-37" d="m287,631.6H23.7v-353.68h263.29v353.68ZM13.03,263.57v382.37h284.65v-382.37H13.03Z"/><path class="cls-181" d="m287.03,631.64H23.68v-353.76h263.35v353.76ZM12.99,263.53v382.46h284.71v-382.46H12.99Z"/><path class="cls-52" d="m287.06,631.68H23.65v-353.84h263.41v353.84ZM12.96,263.49v382.54h284.78v-382.54H12.96Z"/><path class="cls-4" d="m287.09,631.72H23.62v-353.92h263.47v353.92ZM12.93,263.44v382.63h284.84v-382.63H12.93Z"/><path class="cls-79" d="m287.12,631.76H23.59v-354h263.53v354ZM12.9,263.4v382.71h284.9v-382.71H12.9Z"/><path class="cls-203" d="m287.14,631.79H23.56v-354.07h263.59v354.07ZM12.87,263.36v382.8h284.97v-382.8H12.87Z"/><path class="cls-54" d="m287.17,631.83H23.53v-354.15h263.64v354.15ZM12.84,263.32v382.88h285.03v-382.88H12.84Z"/><path class="cls-3" d="m287.2,631.87H23.5v-354.23h263.7v354.23ZM12.8,263.27v382.97h285.09v-382.97H12.8Z"/><path class="cls-170" d="m287.23,631.91H23.47v-354.31h263.76v354.31ZM12.77,263.23v383.05h285.16v-383.05H12.77Z"/><path class="cls-2" d="m287.26,631.95H23.44v-354.39h263.82v354.39ZM12.74,263.19v383.14h285.22v-383.14H12.74Z"/><path class="cls-58" d="m287.29,631.99H23.41v-354.47h263.88v354.47ZM12.71,263.15v383.22h285.28v-383.22H12.71Z"/><path class="cls-100" d="m287.32,632.03H23.38v-354.55h263.94v354.55ZM12.68,263.1v383.31h285.35v-383.31H12.68Z"/><path class="cls-66" d="m287.35,632.07H23.35v-354.63h264v354.63ZM12.65,263.06v383.39h285.41v-383.39H12.65Z"/><path class="cls-74" d="m287.38,632.11H23.32v-354.7h264.06v354.7ZM12.61,263.02v383.48h285.47v-383.48H12.61Z"/><path class="cls-22" d="m287.41,632.15H23.29v-354.78h264.11v354.78ZM12.58,262.98v383.56h285.54v-383.56H12.58Z"/><path class="cls-201" d="m287.44,632.19H23.27v-354.86h264.17v354.86ZM12.55,262.93v383.65h285.6v-383.65H12.55Z"/><path class="cls-59" d="m287.47,632.23H23.24v-354.94h264.23v354.94ZM12.52,262.89v383.73h285.66v-383.73H12.52Z"/><path class="cls-191" d="m287.5,632.27H23.21v-355.02h264.29v355.02ZM12.49,262.85v383.82h285.73v-383.82H12.49Z"/><path class="cls-97" d="m287.53,632.31H23.18v-355.1h264.35v355.1ZM12.46,262.81v383.9h285.79v-383.9H12.46Z"/><path class="cls-169" d="m287.55,632.35H23.15v-355.18h264.41v355.18ZM12.42,262.76v383.99h285.85v-383.99H12.42Z"/><path class="cls-71" d="m287.58,632.39H23.12v-355.26h264.47v355.26ZM12.39,262.72v384.07h285.92v-384.07H12.39Z"/><path class="cls-5" d="m287.61,632.42H23.09v-355.33h264.52v355.33ZM12.36,262.68v384.16h285.98v-384.16H12.36Z"/><path class="cls-50" d="m287.64,632.46H23.06v-355.41h264.58v355.41ZM12.33,262.64v384.24h286.05v-384.24H12.33Z"/><path class="cls-122" d="m287.67,632.5H23.03v-355.49h264.64v355.49ZM12.3,262.59v384.33h286.11v-384.33H12.3Z"/><path class="cls-30" d="m287.7,632.54H23v-355.57h264.7v355.57ZM12.27,262.55v384.41h286.17v-384.41H12.27Z"/><path class="cls-119" d="m287.73,632.58H22.97v-355.65h264.76v355.65ZM12.23,262.51v384.5h286.24v-384.5H12.23Z"/><path class="cls-184" d="m287.76,632.62H22.94v-355.73h264.82v355.73ZM12.2,262.47v384.58h286.3v-384.58H12.2Z"/><path class="cls-1" d="m287.79,632.66H22.91v-355.81h264.88v355.81ZM12.17,262.42v384.67h286.36v-384.67H12.17Z"/><path class="cls-192" d="m287.82,632.7H22.88v-355.89h264.93v355.89ZM12.14,262.38v384.75h286.43v-384.75H12.14Z"/><path class="cls-77" d="m287.85,632.74H22.85v-355.96h264.99v355.96ZM12.11,262.34v384.84h286.49v-384.84H12.11Z"/><path class="cls-105" d="m287.88,632.78H22.83v-356.04h265.05v356.04ZM12.08,262.3v384.92h286.55v-384.92H12.08Z"/><path class="cls-174" d="m287.91,632.82H22.8v-356.12h265.11v356.12ZM12.04,262.25v385.01h286.62v-385.01H12.04Z"/><path class="cls-140" d="m287.94,632.86H22.77v-356.2h265.17v356.2ZM12.01,262.21v385.09h286.68v-385.09H12.01Z"/><path class="cls-188" d="m287.96,632.9H22.74v-356.28h265.23v356.28ZM11.98,262.17v385.18h286.74v-385.18H11.98Z"/><path class="cls-23" d="m287.99,632.94H22.71v-356.36h265.29v356.36ZM11.95,262.13v385.26h286.81v-385.26H11.95Z"/><path class="cls-39" d="m288.02,632.98H22.68v-356.44h265.34v356.44ZM11.92,262.08v385.35h286.87v-385.35H11.92Z"/><path class="cls-154" d="m288.05,633.01H22.65v-356.52h265.4v356.52ZM11.89,262.04v385.43h286.93v-385.43H11.89Z"/><path class="cls-157" d="m288.08,633.05H22.62v-356.59h265.46v356.59ZM11.85,262v385.52h287v-385.52H11.85Z"/><path class="cls-69" d="m288.11,633.09H22.59v-356.67h265.52v356.67ZM11.82,261.95v385.6h287.06v-385.6H11.82Z"/><path class="cls-32" d="m288.14,633.13H22.56v-356.75h265.58v356.75ZM11.79,261.91v385.69h287.12v-385.69H11.79Z"/><path class="cls-142" d="m288.17,633.17H22.53v-356.83h265.64v356.83ZM11.76,261.87v385.78h287.19v-385.78H11.76Z"/><path class="cls-151" d="m288.2,633.21H22.5v-356.91h265.7v356.91ZM11.73,261.83v385.86h287.25v-385.86H11.73Z"/><path class="cls-107" d="m288.23,633.25H22.47v-356.99h265.75v356.99ZM11.7,261.78v385.95h287.31v-385.95H11.7Z"/><path class="cls-124" d="m288.26,633.29H22.44v-357.07h265.81v357.07ZM11.66,261.74v386.03h287.38v-386.03H11.66Z"/><path class="cls-34" d="m288.29,633.33H22.42v-357.14h265.87v357.14ZM11.63,261.7v386.12h287.44v-386.12H11.63Z"/><path class="cls-26" d="m288.32,633.37H22.39v-357.22h265.93v357.22ZM11.6,261.66v386.2h287.5v-386.2H11.6Z"/><path class="cls-126" d="m288.35,633.41H22.36v-357.3h265.99v357.3ZM11.57,261.61v386.29h287.57v-386.29H11.57Z"/><path class="cls-109" d="m288.38,633.45H22.33v-357.38h266.05v357.38ZM11.54,261.57v386.37h287.63v-386.37H11.54Z"/><path class="cls-150" d="m288.4,633.49H22.3v-357.46h266.11v357.46ZM11.5,261.53v386.46h287.69v-386.46H11.5Z"/><path class="cls-57" d="m288.43,633.53H22.27v-357.54h266.17v357.54ZM11.47,261.49v386.54h287.76v-386.54H11.47Z"/><path class="cls-63" d="m288.46,633.57H22.24v-357.62h266.22v357.62ZM11.44,261.44v386.63h287.82v-386.63H11.44Z"/><path class="cls-160" d="m288.49,633.61H22.21v-357.7h266.28v357.7ZM11.41,261.4v386.71h287.88v-386.71H11.41Z"/><path class="cls-125" d="m288.52,633.64H22.18v-357.77h266.34v357.77ZM11.38,261.36v386.8h287.95v-386.8H11.38Z"/><path class="cls-102" d="m288.55,633.68H22.15v-357.85h266.4v357.85ZM11.35,261.32v386.88h288.01v-386.88H11.35Z"/><path class="cls-12" d="m288.58,633.72H22.12v-357.93h266.46v357.93ZM11.31,261.27v386.97h288.07v-386.97H11.31Z"/><path class="cls-72" d="m288.61,633.76H22.09v-358.01h266.52v358.01ZM11.28,261.23v387.05h288.14v-387.05H11.28Z"/><path class="cls-133" d="m288.64,633.8H22.06v-358.09h266.58v358.09ZM11.25,261.19v387.14h288.2v-387.14H11.25Z"/><path class="cls-193" d="m288.67,633.84H22.03v-358.17h266.63v358.17ZM11.22,261.15v387.22h288.26v-387.22H11.22Z"/><path class="cls-73" d="m288.7,633.88H22v-358.25h266.69v358.25ZM11.19,261.1v387.31h288.33v-387.31H11.19Z"/><path class="cls-172" d="m288.73,633.92H21.98v-358.33h266.75v358.33ZM11.16,261.06v387.39h288.39v-387.39H11.16Z"/><path class="cls-131" d="m288.76,633.96H21.95v-358.4h266.81v358.4ZM11.12,261.02v387.48h288.45v-387.48H11.12Z"/><path class="cls-152" d="m288.79,634H21.92v-358.48h266.87v358.48ZM11.09,260.98v387.56h288.52v-387.56H11.09Z"/><path class="cls-146" d="m288.81,634.04H21.89v-358.56h266.93v358.56ZM11.06,260.93v387.65h288.58v-387.65H11.06Z"/><path class="cls-17" d="m288.84,634.08H21.86v-358.64h266.99v358.64ZM11.03,260.89v387.73h288.64v-387.73H11.03Z"/><path class="cls-111" d="m288.87,634.12H21.83v-358.72h267.04v358.72ZM11,260.85v387.82h288.71v-387.82H11Z"/><path class="cls-56" d="m288.9,634.16H21.8v-358.8h267.1v358.8ZM10.97,260.81v387.9h288.77v-387.9H10.97Z"/><path class="cls-114" d="m288.93,634.2H21.77v-358.88h267.16v358.88ZM10.93,260.76v387.99h288.83v-387.99H10.93Z"/><path class="cls-95" d="m288.96,634.24H21.74v-358.96h267.22v358.96ZM10.9,260.72v388.07h288.9v-388.07H10.9Z"/><path class="cls-104" d="m288.99,634.27H21.71v-359.03h267.28v359.03ZM10.87,260.68v388.16h288.96v-388.16H10.87Z"/><path d="m289.02,634.31H21.68v-359.11h267.34v359.11ZM10.84,260.64v388.24h289.02v-388.24H10.84Z"/></g><path class="cls-150" d="m.44,251.95v401.93h309.83V251.95H.44Zm289.97,380.24H20.3v-358.55h270.1v358.55Z"/></g></g></g></svg>