<?xml version="1.0" encoding="UTF-8"?><svg id="Camada_2" xmlns="http://www.w3.org/2000/svg" viewBox="0 0 275.7 91"><defs><style>.cls-1{fill:#171733;}.cls-2{fill:#fff;opacity:.63;}.cls-3{fill:#3c3c54;}</style></defs><g id="Camada_1-2"><path class="cls-3" d="m3.29,56.56c-1.55-.55-2.79-1.86-3.17-3.58-.58-2.65,1.09-5.28,3.74-5.86L153.84,14.04c18.4-4.06,37.55-1.45,53.92,7.34,16.46,8.84,28.57,23.09,34.11,40.14l.04.13c.84,2.58-.57,5.36-3.16,6.2-2.58.84-5.36-.57-6.2-3.16l-.04-.13c-9.83-30.24-43.46-48.21-76.56-40.91L5.98,56.72c-.93.2-1.85.13-2.69-.16Z"/><path class="cls-3" d="m45.36,89.57c-2.07-.73-3.46-2.78-3.26-5.07v-.14c1.56-17.85,10.14-34.48,24.18-46.8,13.96-12.26,32.03-19.12,50.88-19.32l153.58-1.64c2.72-.03,4.94,2.15,4.97,4.87.03,2.72-2.15,4.94-4.87,4.97l-153.58,1.64c-33.9.36-62.6,25.46-65.35,57.14v.14c-.25,2.71-2.63,4.71-5.34,4.47-.42-.04-.83-.13-1.21-.26Z"/><path class="cls-2" d="m59.93,61.35c2.06-12.84,4.03-25.69,6.21-38.51-14.57,1.75-28.76,4.05-38.95,6.47-4.72,1.12-7.74,5.65-7.26,10.87,1.01,11,3.14,27.7,7,38.85,1.48,4.27,5.54,7.22,9.93,7.2,5.31-.03,11.76-.35,18.75-.89,1.51-7.99,3.03-15.98,4.32-24Z"/><path class="cls-2" d="m122.37,28.27c-.82-5.02-4.68-8.59-9.4-8.64-6.89-.07-15.47.31-24.68,1.02-2.57,14.64-9.29,56.34-10.45,62.49,13.91-1.67,27.68-3.82,37.55-5.96,4.3-.93,7.63-4.73,8.11-9.25,1.22-11.31.72-28.23-1.15-39.66Z"/><path class="cls-2" d="m217.1,5.87c-20.89,1.67-44.83,4.99-59.95,8.58-4.72,1.12-7.74,5.65-7.26,10.87,1.01,11,3.14,27.7,7,38.85,1.48,4.27,5.54,7.22,9.93,7.2,11.18-.05,27.35-1.42,43.09-3.37,2.68-20.68,5.49-41.35,7.19-62.14Z"/><path class="cls-1" d="m31.98,90.16c-4.34-1.53-7.97-5.04-9.54-9.56-4.24-12.23-6.36-30.3-7.25-39.98-.69-7.57,3.89-14.27,10.9-15.93,22.64-5.38,64.07-10.06,86.93-9.82,7.06.07,12.83,5.27,14.04,12.63,1.96,11.95,2.46,29.17,1.18,40.94-.71,6.53-5.57,12.03-11.84,13.38-21.77,4.71-59.67,9.08-79.52,9.18-1.69,0-3.34-.29-4.91-.84ZM114.35,24.63c-.45-.16-.93-.24-1.43-.25-22.24-.23-62.58,4.33-84.63,9.57-2.39.57-3.88,2.96-3.62,5.81.85,9.25,2.85,26.45,6.76,37.73.81,2.33,3.08,4.01,5.41,4,19.33-.09,56.29-4.37,77.55-8.96,2.28-.49,4.12-2.64,4.39-5.11,1.17-10.85.7-27.34-1.11-38.38-.36-2.18-1.63-3.81-3.33-4.41Z"/><path class="cls-1" d="m161.93,75.3c-4.34-1.53-7.97-5.04-9.54-9.56-4.24-12.23-6.36-30.3-7.25-39.98-.69-7.57,3.89-14.27,10.9-15.93C178.69,4.45,220.12-.23,242.98,0c7.06.07,12.83,5.27,14.04,12.63,1.96,11.95,2.46,29.17,1.18,40.94-.71,6.53-5.57,12.03-11.84,13.38-21.77,4.71-59.67,9.08-79.52,9.18-1.69,0-3.34-.29-4.91-.84ZM244.3,9.77c-.45-.16-.93-.24-1.43-.25-22.24-.23-62.58,4.33-84.63,9.57-2.39.57-3.88,2.96-3.62,5.81.85,9.25,2.85,26.45,6.76,37.73.81,2.33,3.08,4.01,5.41,4,19.33-.09,56.29-4.37,77.55-8.96,2.28-.49,4.12-2.64,4.39-5.11,1.17-10.85.7-27.34-1.11-38.38-.36-2.18-1.63-3.81-3.33-4.41Z"/><path class="cls-1" d="m124.58,28.93l-3.67-8.78c5.98-2.5,22.51-4.42,29.99-3.48l-1.18,9.44c-5.82-.73-20.63.93-25.14,2.82Z"/></g></svg>