<?xml version="1.0" encoding="UTF-8"?><svg xmlns="http://www.w3.org/2000/svg" viewBox="0 0 1640.43 2116.34"><defs><style>.cls-1{isolation:isolate;}.cls-2{fill:#f2ecda;}.cls-2,.cls-3,.cls-4,.cls-5{stroke-width:0px;}.cls-3{fill:#f19395;}.cls-4{fill:#d9d9d9;}.cls-6{opacity:.6;}.cls-5{fill:#b1b1b1;mix-blend-mode:multiply;}</style></defs><g class="cls-1"><g id="Camada_2"><g id="Camada_1-2"><path class="cls-5" d="m1571.78,5.25c-.1-3.01-2.61-5.35-5.61-5.25L196.42,43.97l-1.03.05v.08c-2.78.3-4.93,2.65-4.85,5.5l18.05,562.21h0L190.36,44.16l-142.4,4.58,3.21,99.65c.27,0,.54.02.69.03.9-.01,1.4.05,2.23.48.71.38.99.66,1.77.73.71.07,1.5-.05,2.21-.09,2.63-.06,4.93-.2,7.41-1.13,1.38-.47,2.52-1.25,3.72-2,.79-.51,1.73-.87,2.5-1.39,1.55-1.05,2.73-2.8,4.17-4.03.48-.26.93-.6,1.34-1.01.56-.66.8-1.5,1.33-2.2,2-2.57,4.44-4.77,6.58-7.22,1.12-1.25,1.87-2.45,3.39-3.28,1.31-.72,2.21-1.89,3.6-2.49,2.78-1.18,5.81-1.42,8.72-2.22,2.36-.64,4.63-1.5,6.86-2.54,6.88-3.27,12.8-8.44,20.92-6.62,10.41,2.35,19.14,10.49,22.22,20.68.76,2.49,1.18,5.11,1.25,7.7.32,9.98-4.48,19.65-12.66,25.42-4.08,2.86-8.86,4.68-13.83,5.23-4.01.44-8.54.63-12.3-1.08-3.3-1.5-5.46-4.44-7.16-7.52-1.22-2.2-2.19-4.51-3.26-6.79-1.11-2.3-2.44-4.91-5.03-5.76-1.94-.64-4.65-.56-6.29.74-1.17.95-2.56,1.55-3.76,2.31-2.77,1.76-5.53,3.71-8.51,5.29-2.44,1.3-4.43,3.52-6.7,5.07-1.39.98-3.25,1.75-4.96,1.86-1.75.09-3.54.02-5.3.16-2.71.15-5.33,1.26-7.96,1.9-.89.23-1.69.66-2.51,1.02l2.53,78.68c.05,1.4.2,2.72.31,4.1.02.06.03.12.02.18-.01.46-.11.96.16,1.34.49.75,2.17.35,2.92.32,1.97-.03,3.92-.13,5.86-.19,1.09-.02,2.19.03,3.22-.19,1.04-.23,1.93-.56,3.02-.44.83.09,1.46.43,2.24.82,1.09.54,1.86.8,3.12.77,1.77-.01,3.1-.69,4.49-1.78.95-.74,1.96-1.33,2.93-2,1.01-.69,2.2-1.51,3.42-1.8,2.08-.47,4.59-.28,6.74-.31.6.01,1.15.07,1.7.31.71.33.98,1.12,1.56,1.46,1.19.68,1.54-1.61,1.84-2.47.89-2.43,2.05-4.7,3.52-6.82,2.92-4.21,6.91-7.64,11.5-9.89,3.77-1.82,7.9-2.85,12.09-2.98,16.48-.52,30.28,12.41,30.81,28.9.52,16.47-12.41,30.27-28.89,30.81-2.99.09-5.98-.27-8.88-1.06-5.03-1.39-9.65-4.1-13.32-7.82-1.82-1.84-3.4-3.93-4.67-6.18-.61-1.06-1-2.11-1.9-2.94-1.05-.93-2.08-1.88-2.71-3.2-.14-.3-.22-1.08-.44-1.34-.38-.49-.73-.25-1.25-.45-.56-.23-.72-.68-1.34-.79-.38-.06-.95.07-1.32.09-1.06.03-2.14.05-3.19.09-1.13.05-2.36-.09-3.47.1-1.13.18-1.9.95-3.06,1-2.13.14-4.33.96-6.53.68-1.11-.15-1.84-.96-2.95-1.17-.88-.18-1.74-.18-2.64-.35-1.78-.36-3.94.02-5.77.08-1.18.03-2.39-.12-3.45.52-.84.52-1.76,1.28-2.48,1.89-.77.63-1.14,1.2-1.47,2.15-.13.44-.26.43-.31.98-.04.52.05.88-.13,1.37-.09.23-.37.31-.47.58-.1.26.01.68.01.94.04.66.05,1.32.07,1.97l2.36,73.33c.27-.01.55-.01.81-.01,1.1-.03,2.5-.34,3.54-.01,1.55.47,2.9,1.95,4.38,2.6,1.31.56,2.51,1.08,3.88,1.32,2.41.42,4.4,1.62,6.88,1.88,3.03.28,7,.32,10.03-.32,1.89-.44,3.82-.75,5.71-1.25,1.18-.3,2.39-.52,3.58-.89,1.46-.4,3.23-.11,4.58-.65,1.94-.76,3.24-2.1,5.36-2.4,2.29-.3,4.43-1.18,6.71-1.5,3.8-.56,7.76-.17,11.6-.69,4.87-.68,9.94-2.31,14.83-.93,11.57,3.29,19.67,15.83,20.03,27.41.53,16.51-12.39,30.3-28.86,30.82-4.13.12-9.77.01-12.33-3.7-2.68-3.89-7.29-3.3-11.11-5.47-2.66-1.5-5.11-3.42-7.37-5.36-1.07-.92-2.17-1.63-2.79-2.97-.85-1.87-1.35-3.92-2.27-5.78-1.61-3.35-4.36-6.08-6.05-9.38-.59-1.18-1.49-3.05-2.5-3.96-.85-.83-2.52-2.16-3.63-2.39-1.17-.26-2.94.11-4.15.15-1.7.06-4.2-.32-5.78.31-1.41.55-2.78,1.62-4.19,2.25-1.28.62-2.72,1.42-4.09,1.9-2.03.72-4.2,1.98-6.02,3.45l2.94,92.01c3.53-.07,5.98,3.56,10,5.72,20.52,10.91,41.28-17.37,63.18-12.73,15.74,3.32,27.05,17.02,28.4,31.03.95,10.01-3.17,20.13-14.44,26.71-4.27,2.49-9.16,3.89-14.1,4.07-7.09.23-15.84-2.15-20.72-7.64-3.64-4.08-.56-7.58-7.43-7.87-7.39-.3-16.43,10.68-21.6,15.05-5.88,4.94-14.05,4.76-21.37,5.27l1.95,60.9c3.35-2.48,7.92-3.32,12.55-3.85,9.37-1.07,14.33-1.13,20.08-9.54,4.98-7.33,5.68-14.94,15.39-17.14,9.14-2.07,17.44,1.58,23.75-7.16,1.86-2.63,5.16-10.91,2.69-13.06,17.04,4.26,9.71,22.97,12.92,36.74,1.01,4.37,3.29,8.37,4.9,12.54,7.18,7.3,9.97,18.45,8.05,28.83l-63.99,2.05c-6.78-10.02-11.86-18.88-28.44-12.63-2.67.99-5.19,1.57-7.32,1.5l.42,12.9.59-.02,1.26,39.51c10.44,7.89,21.32,26,27.11,28.65,12.46,5.72,29.57-.36,39.44,10.48.43.47.79.96,1.17,1.46,1.55-.31,3.18-.52,4.84-.58,16.48-.54,30.26,12.42,30.8,28.89.52,16.49-12.38,30.29-28.88,30.79-16.48.57-30.26-12.38-30.8-28.85-.06-1.51.05-2.98.21-4.42-.98-.73-1.95-1.41-2.94-2.13-8.78-6.41-15.84-6.91-26.1-4.06-3.79,1.05-7.24,1.47-10.48,1.18-7.36-6.7-10.89-16.69-9.4-26.5-5.44,1.14-9.64,5.72-12.86,11.6-4.25,7.78-9.21,14.81-17.19,19.1-6.84,3.7-15.27,3.29-22.72,4.63-2.41.43-6.51,1.24-10.25,2.68l47.99,23.87c7.16-6.39,3.88-19.17,10.6-26.22,3.31-3.47,7.37-5.69,11.48-7.8l3.25,100.95c1.03.59,2.08,1.18,3.15,1.68,9.23,4.24,17.44-.85,26.19-3.69,5.52-1.8,11.47-3.18,17.29-3.09,3.82.03,6.97.68,9.55,1.76,4.32-2.7,9.38-4.36,14.83-4.53,16.49-.52,30.27,12.4,30.8,28.89.52,16.49-12.39,30.28-28.88,30.8-14.68.45-27.18-9.74-30.15-23.6-4.41,5.49-8.53,11.87-14.2,14.14-9.21,3.76-18.37.88-27.32-2.97l.47,15.21c6.28,2.4,12.14,5.73,17.24,10.78,8.09,7.99,13.46,17.8,9.86,29.32-2.26,7.22-6.46,15.14-3.68,22.82,2.37,6.52,7.04,10.24,13.81,11.53,2.48.48,5.17.72,7.88.98,3.34-12.38,14.42-21.66,27.89-22.09,16.48-.52,30.27,12.42,30.8,28.9.52,16.49-12.39,30.29-28.89,30.82-6.65.22-12.86-1.81-17.94-5.33-1.57.92-3.19,1.8-4.88,2.53-10.43,4.55-29.62,5.04-41.24,11.89-4.51-5.12-7.63-12.55-8.24-21.01-.12-1.78-.11-3.54-.01-5.27-9.65-1.96-18.66-4.83-19.63-21.83-.79-13.78,7.27-24.16-1.09-37.44-4.41-7.01-9.52-11.42-15.13-14.49l8.48,118.55c4.73-6.63,12.85-9.29,19.77-11.2,4.23-1.2,8.47-2.57,12.38-4.87-1.2,1.04-2.37,2.07-3.26,3.35l1.26,39.3-72.35,18.86c1.16,2.53,2.64,4.83,4.7,6.46,5.64,4.45,10.81,2.77,16.8.74,5.56-1.87,10.21-2.49,14.54,1.97,8.94,9.29-7,29.92,2.98,36.64,3.27-8.84,10.65-16,20.48-18.55,9.1-2.38,18.32-.27,25.32,4.94.51-3.15,1.8-6.32,2.88-10.21,3.36-12.1-9.33-17.76-11.25-28.71-.5-2.82-.57-5.58-.47-8.31,3.8,1.1,7.65,1.77,11.6,1.26,7.44-.93,15.4-8.36,23.1-6.65,6.82,1.48,11.86,7.11,18.24,8.02,4.31-2.68,9.33-4.32,14.76-4.48,16.49-.52,30.28,12.4,30.8,28.89.53,16.49-12.39,30.28-28.88,30.81-5.05.18-9.84-.96-14.08-3.04-8.1,9.18-21.5-3.19-32.82-4.58-11.87-1.47-7.67,10.76-7.78,16.95-.1,3.85-.92,6.88-3.06,10.16-2.73,4.17-7.6,6.11-12.67,7.07l1.25,39.18c.36.31.67.67,1.02.98,4.96,4.09,10.77,6.13,17.21,5.78,5.16-.25,10.24-1.37,15.41-1.63,3.76-.19,8.16.01,11.24,2.49,4.61-9.87,14.45-16.89,26.09-17.24,16.48-.55,30.27,12.41,30.8,28.89.52,16.49-12.39,30.28-28.89,30.81-7.51.23-14.44-2.35-19.85-6.75-5.25,4.75-11.16,8.45-18.58,9.63-7.53,1.15-15.13-.17-22.68.41-.79.05-1.55.23-2.34.33-2.38-7.18-2.19-15.22,1.42-22.56,2.11-4.21,5.09-7.71,8.59-10.41-.26-.6-.53-1.2-.95-1.77-2.99-4.2-8.44-6.13-13.07-7.89-4.54-1.72-9.42-3.24-13.38-6.17-4.06-3.01-6.79-7.19-8.51-11.81l-24.52,49.52c2.57-.07,5.16.34,7.78,1.31,6.87,2.56,12.76,7.16,19.47,10.1,5.04,2.2,10.28,2.97,15.57,2.7l1.29,40.21-45.11,22.47c2.23.48,5.28.54,7.04.82,3.84.63,7.14,1.79,10.68,3.43,10.36,4.78,15.17,14.75,21.26,23.34,1.66-1.32,3.46-2.49,5.41-3.46,4.8-2.41,9.94-3.37,14.93-3.1,2.15-2.03,4.49-4.15,5.64-6.51,1.04-2.14-7.28-10.76-8.53-12.53-4.9-6.98-8.05-14.88-10.37-23.04,2.24.5,4.42.98,6.35,1.22,13.9,1.66,32.9-8.71,45.14.12,3.26,2.36,5.11,5.94,6.73,9.67,3.75-1.87,7.92-3.01,12.38-3.14,16.49-.54,30.28,12.41,30.79,28.88.55,16.5-12.39,30.3-28.87,30.81-7.38.23-14.2-2.24-19.56-6.51-4.26,1.16-8.8,1.95-13.6,2.65-11.61,1.68-17.34,5.57-24,15.26-2.85,4.19-6.64,8.3-11.42,10.29-.68.28-1.33.5-1.96.71l2.21,69.22c.27,0,.54.03.69.02.91.01,1.39.07,2.23.5.71.34.99.65,1.78.71.71.07,1.5-.06,2.21-.07,2.62-.1,4.93-.22,7.4-1.14,1.39-.47,2.53-1.24,3.74-1.98.8-.52,1.7-.89,2.49-1.41,1.58-1.05,2.74-2.8,4.16-4.03.49-.28.95-.61,1.35-1,.57-.66.8-1.53,1.33-2.2,2.02-2.6,4.44-4.78,6.59-7.22,1.12-1.27,1.87-2.47,3.38-3.29,1.3-.69,2.23-1.86,3.6-2.46,2.79-1.21,5.82-1.44,8.73-2.22,2.35-.66,4.64-1.56,6.85-2.57,6.89-3.28,12.81-8.43,20.93-6.59,10.4,2.33,19.14,10.48,22.21,20.68.76,2.49,1.17,5.08,1.26,7.67.3,10.01-4.51,19.66-12.67,25.4-4.09,2.89-8.86,4.69-13.84,5.24-4.01.46-8.53.64-12.31-1.07-3.28-1.5-5.46-4.44-7.16-7.53-1.2-2.2-2.17-4.5-3.25-6.78-1.09-2.29-2.44-4.92-5.03-5.75-1.92-.63-4.65-.57-6.29.73-1.2.92-2.56,1.56-3.76,2.31-2.79,1.74-5.56,3.72-8.52,5.29-2.44,1.28-4.41,3.51-6.69,5.08-1.39.94-3.26,1.72-4.96,1.84-1.77.1-3.54.03-5.31.14-2.7.18-5.32,1.26-7.95,1.91-.88.23-1.7.66-2.5,1.02l2.53,78.71c.03,1.39.18,2.71.31,4.07.01.07.02.14.02.19,0,.45-.13.94.16,1.35.49.75,2.16.36,2.93.34,1.95-.07,3.9-.15,5.85-.22,1.08-.02,2.19.05,3.24-.18,1-.24,1.9-.57,2.98-.48.84.1,1.47.45,2.23.82,1.12.56,1.87.8,3.14.82,1.76-.03,3.09-.75,4.48-1.82.94-.72,1.98-1.36,2.94-1.99.99-.69,2.19-1.5,3.4-1.79,2.1-.47,4.6-.3,6.77-.31.57.01,1.15.05,1.68.3.69.35.96,1.12,1.56,1.47,1.19.66,1.54-1.62,1.83-2.47.87-2.41,2.06-4.71,3.52-6.82,2.9-4.21,6.88-7.65,11.49-9.88,3.76-1.86,7.9-2.87,12.09-3.01,16.49-.51,30.28,12.42,30.8,28.9.54,16.49-12.4,30.27-28.88,30.82-2.98.08-5.98-.26-8.86-1.05-5.03-1.4-9.66-4.12-13.33-7.83-1.82-1.86-3.41-3.94-4.68-6.18-.6-1.07-.99-2.11-1.89-2.92-1.04-.96-2.07-1.93-2.69-3.22-.15-.33-.24-1.08-.43-1.35-.41-.49-.75-.24-1.28-.43-.54-.23-.73-.68-1.35-.79-.38-.09-.93.05-1.32.06-1.06.05-2.14.08-3.21.11-1.1.05-2.36-.09-3.46.1-1.12.18-1.9.93-3.06,1-2.16.12-4.33.94-6.54.67-1.11-.14-1.83-.93-2.94-1.16-.87-.17-1.75-.19-2.64-.36-1.78-.36-3.95.02-5.77.09-1.18.05-2.4-.12-3.46.51-.83.52-1.75,1.28-2.49,1.9-.77.64-1.15,1.2-1.46,2.15-.15.42-.27.42-.32.99-.03.5.07.88-.14,1.34-.07.22-.36.32-.44.6-.09.25,0,.65.01.92.01.67.03,1.33.07,2l2.34,73.31c.27-.01.55-.01.82-.02,1.1-.03,2.49-.33,3.55-.01,1.54.48,2.87,1.95,4.37,2.61,1.31.57,2.51,1.09,3.89,1.33,2.41.41,4.4,1.62,6.87,1.83,3.04.32,7,.36,10.04-.3,1.91-.43,3.8-.73,5.73-1.23,1.17-.32,2.39-.55,3.56-.89,1.45-.41,3.22-.15,4.57-.68,1.91-.74,3.26-2.07,5.35-2.36,2.29-.32,4.45-1.22,6.72-1.53,3.8-.55,7.74-.15,11.59-.69,4.87-.67,9.95-2.32,14.84-.93,11.59,3.29,19.66,15.81,20.02,27.41.54,16.48-12.4,30.28-28.87,30.82-4.12.13-9.75,0-12.3-3.69-2.69-3.92-7.3-3.29-11.15-5.49-2.64-1.5-5.08-3.4-7.34-5.36-1.06-.93-2.18-1.61-2.79-2.94-.84-1.9-1.35-3.94-2.25-5.8-1.63-3.36-4.36-6.09-6.06-9.39-.59-1.17-1.5-3.04-2.52-3.97-.84-.82-2.49-2.15-3.62-2.4-1.19-.24-2.95.15-4.16.18-1.68.05-4.19-.33-5.77.28-1.39.55-2.78,1.6-4.19,2.27-1.28.61-2.72,1.42-4.08,1.89-2.03.72-4.2,1.99-6.03,3.46l2.95,92c3.53-.09,5.97,3.56,9.99,5.69,20.51,10.93,41.28-17.35,63.17-12.73,15.75,3.32,27.07,17.05,28.4,31.06.98,9.96-3.17,20.12-14.43,26.68-4.28,2.52-9.16,3.92-14.11,4.06-7.09.24-15.83-2.15-20.71-7.61-3.64-4.09-.56-7.61-7.42-7.88-7.39-.3-16.43,10.67-21.62,15.04-5.86,4.95-14.02,4.76-21.37,5.27l1.96,60.92c3.35-2.49,7.9-3.34,12.53-3.88,9.41-1.07,14.35-1.09,20.1-9.52,4.98-7.33,5.68-14.94,15.39-17.15,9.14-2.07,17.44,1.59,23.74-7.17,1.87-2.61,5.17-10.89,2.7-13.05,17.03,4.26,9.71,22.99,12.93,36.76,1.02,4.36,3.28,8.39,4.89,12.54,14.04,14.29,11.72,43.28-10.88,52.24-12.9,5.1-29.45-3.06-38.35-12.58-11.52-12.34-13.7-29.47-35.15-21.41-2.69.99-5.21,1.56-7.32,1.53l7.51,233.55,142.39-4.55-.1-3.1c.87,1.67,2.57,2.79,4.54,2.88v.07h.39v-.02s1373.04-9.48,1373.04-9.48c2.99-.09,5.35-2.59,5.24-5.59L1571.78,5.25ZM183.56,2034.27c-5.32.16-10.5-3.23-15.42-2.94-4.78.3-9.52,3.56-14.66,3.91-5.12.36-14-2.48-17.68-6.68-2.81-3.2-1.9-9.11-2.15-13.47-.43-6.83-2.07-13.35-4.78-19.62-1-2.33-5.45-8.44-5.09-10.74.62-3.96,12.23-6.66,16.17-7.98,4.82-1.59,12.79-5.72,17.98-4.24,3.41.99,5.24,5.33,8.82,6.35,4.16,1.18,6.71-1.14,9.97-2.7,16.62-8.07,35.21,11.76,35.71,27.31.53,16.5-12.4,30.27-28.88,30.8Z"/><path class="cls-2" d="m42.84,1254.66c2.19.54,5.26.68,7,1.04,3.85.77,7.11,2.04,10.61,3.79,10.2,5.11,14.72,15.25,20.55,24.07,1.68-1.27,3.53-2.41,5.53-3.31,4.89-2.24,10.06-3.05,15.06-2.61,2.21-1.96,4.62-4.01,5.85-6.34,1.12-2.12-6.94-11.01-8.13-12.84-5.02-7.63-8.02-16.24-10.09-25.07l-46.37,21.28Z"/><path class="cls-2" d="m72.46,1128.93l-26.15,48.84c2.57.02,5.16.51,7.74,1.57,6.81,2.77,12.54,7.58,19.16,10.73,7.56,3.59,15.61,4.17,23.72,2.32-2.84-7.75-2.52-16.6,1.68-24.45,2.23-4.17,5.33-7.56,8.92-10.16-.23-.61-.49-1.22-.89-1.8-2.88-4.29-8.26-6.4-12.84-8.32-4.49-1.88-9.34-3.55-13.2-6.6-3.97-3.14-6.56-7.43-8.15-12.13Z"/><path class="cls-2" d="m92.73,1007.67l-77.07,17.48c1.06,2.56,2.46,4.92,4.48,6.6,5.51,4.65,10.74,3.12,16.81,1.29,5.64-1.71,10.32-2.16,14.5,2.47,8.65,9.56-7.99,29.74,1.81,36.78,3.56-8.75,11.19-15.68,21.1-17.92,9.21-2.11,18.37.32,25.23,5.75.6-3.13,2.01-6.26,3.22-10.11,3.75-12.04-8.76-18.09-10.35-29.14-.64-4.53-.43-8.93.28-13.2Z"/><path class="cls-2" d="m69.28,914.51c-.35-13.83,8.04-23.97.11-37.53-4.2-7.18-9.18-11.77-14.69-15.02l4.69,119.03c4.95-6.48,13.18-8.89,20.17-10.6,5.58-1.37,11.17-3.02,16.13-6.76-4.36-5.26-7.26-12.82-7.6-21.33-.07-1.8,0-3.58.15-5.29-9.59-2.27-18.53-5.43-18.95-22.49Z"/><path class="cls-2" d="m88.73,621.93c10.21,8.23,20.51,26.72,26.24,29.57,12.29,6.14,29.63.59,39.18,11.77.41.48.76.98,1.1,1.49,1.59-.25,3.22-.42,4.89-.42,16.53,0,29.94,13.39,29.94,29.92s-13.4,29.95-29.94,29.95-29.93-13.41-29.93-29.95c0-1.5.15-2.96.36-4.42-.96-.72-1.91-1.47-2.89-2.22-8.6-6.7-15.63-7.42-26.02-4.91-4.76,1.16-9.12,1.75-12.93.65v102.72c1.02.63,2.04,1.28,3.1,1.8,9.13,4.54,17.51-.3,26.36-2.85,5.58-1.63,11.59-2.81,17.43-2.54,3.82.15,6.95.91,9.5,2.07,4.42-2.56,9.53-4.06,15.01-4.06,16.53,0,29.94,13.41,29.94,29.92s-13.4,29.94-29.94,29.94c-14.72,0-26.93-10.62-29.43-24.62-4.6,5.36-8.92,11.61-14.7,13.74-9.35,3.42-18.43.25-27.27-3.88v15.25c6.21,2.63,11.97,6.14,16.91,11.35,7.85,8.28,12.91,18.29,8.93,29.7-2.49,7.16-6.95,14.98-4.41,22.75,2.16,6.62,6.72,10.49,13.47,12.01,2.45.54,5.14.87,7.87,1.23,3.73-12.29,15.13-21.22,28.63-21.22,16.53,0,29.94,13.41,29.94,29.92s-13.4,29.95-29.94,29.95c-6.67,0-12.82-2.21-17.8-5.92-1.59.9-3.26,1.71-4.98,2.39-13.03,5.18-39.34,3.63-48.62,16.17v42.23c4.88,2.04,9.89,3.22,15.1,2.73,7.48-.69,15.7-7.88,23.36-5.92,6.8,1.72,11.64,7.52,18.01,8.63,4.4-2.54,9.49-4.02,14.93-4.02,16.53,0,29.94,13.41,29.94,29.94s-13.4,29.94-29.94,29.94c-5.06,0-9.83-1.25-14.01-3.5-8.41,8.93-21.45-3.89-32.74-5.64-11.83-1.84-8.03,10.52-8.35,16.72-.2,3.87-1.12,6.9-3.37,10.09-2.88,4.11-7.83,5.89-12.94,6.68v39.31c.34.32.63.67.98.98,4.84,4.29,10.6,6.51,17.05,6.39,5.18-.11,10.31-1.06,15.49-1.15,3.79-.08,8.2.26,11.19,2.86,4.94-9.75,15.03-16.43,26.69-16.43,16.53,0,29.94,13.4,29.94,29.92s-13.4,29.94-29.94,29.94c-7.53,0-14.4-2.8-19.66-7.4-5.41,4.59-11.47,8.12-18.93,9.04-7.58.93-15.15-.64-22.75-.32-3.36.15-6.79.68-9.82,2.25-.09.03-.16.09-.24.15v42.25c2.58.65,5.05,1.29,7.25,1.62,13.86,2.13,33.24-7.66,45.21,1.57,3.19,2.47,4.93,6.14,6.44,9.92,3.81-1.75,8.03-2.77,12.5-2.77,16.53,0,29.94,13.39,29.94,29.94s-13.4,29.94-29.94,29.94c-7.4,0-14.15-2.71-19.37-7.16-4.32,1.04-8.88,1.67-13.72,2.23-11.68,1.3-17.55,5.03-24.51,14.51-3.01,4.12-6.94,8.11-11.79,9.95-.69.27-1.35.45-2.01.66v69.39c.28.02.54.05.7.06.9.03,1.41.1,2.21.56.72.39.98.69,1.76.77.71.1,1.5-.01,2.22-.01,2.63,0,4.94-.06,7.48-.88,1.38-.43,2.56-1.18,3.79-1.89.83-.49,1.74-.81,2.55-1.3,1.61-1,2.83-2.73,4.3-3.92.5-.27.96-.59,1.38-.97.59-.66.85-1.5,1.41-2.18,2.09-2.53,4.59-4.63,6.83-7.01,1.16-1.23,1.95-2.39,3.49-3.17,1.33-.67,2.28-1.82,3.68-2.37,2.83-1.12,5.88-1.25,8.82-1.96,2.38-.57,4.7-1.37,6.95-2.35,7.01-3.05,13.11-8.02,21.18-5.92,10.34,2.69,18.83,11.11,21.6,21.42.67,2.53,1.01,5.14,1.01,7.76,0,10-5.15,19.54-13.52,25.03-4.19,2.76-9.04,4.42-14.03,4.79-4.04.33-8.57.38-12.29-1.47-3.24-1.62-5.32-4.62-6.93-7.77-1.15-2.23-2.03-4.58-3.04-6.88-1.02-2.35-2.28-5.02-4.86-5.94-1.9-.68-4.63-.69-6.31.54-1.22.89-2.61,1.47-3.85,2.19-2.84,1.66-5.67,3.54-8.69,5.04-2.48,1.21-4.54,3.38-6.87,4.86-1.42.91-3.32,1.64-5.02,1.7-1.78.05-3.56-.09-5.33-.02-2.72.09-5.39,1.07-8.03,1.66-.89.21-1.72.6-2.55.95v78.92c0,1.39.1,2.72.19,4.1v.18c-.02.46-.14.95.12,1.35.47.76,2.16.41,2.92.41,1.96.01,3.92,0,5.88,0,1.08,0,2.19.1,3.23-.1,1.03-.18,1.94-.48,3.03-.35.83.11,1.45.49,2.2.89,1.1.59,1.85.88,3.12.9,1.77.05,3.13-.62,4.54-1.65.98-.71,2.03-1.29,3.02-1.91,1.02-.65,2.25-1.45,3.47-1.67,2.11-.41,4.62-.16,6.77-.09.59.02,1.16.09,1.69.35.69.36.94,1.15,1.52,1.5,1.16.73,1.59-1.56,1.93-2.4.96-2.4,2.21-4.66,3.75-6.73,3.04-4.13,7.15-7.44,11.82-9.52,3.83-1.73,8.02-2.61,12.21-2.61,16.53,0,29.94,13.39,29.94,29.91s-13.4,29.95-29.94,29.95c-2.99,0-5.98-.44-8.84-1.33-5-1.55-9.55-4.43-13.11-8.27-1.77-1.91-3.27-4.05-4.49-6.35-.57-1.07-.93-2.14-1.8-2.98-1.02-.99-2.03-1.98-2.6-3.3-.14-.32-.21-1.1-.39-1.35-.39-.54-.73-.28-1.26-.5-.54-.24-.7-.71-1.33-.83-.37-.09-.93.02-1.33.02-1.06.01-2.13,0-3.2,0-1.12,0-2.37-.15-3.47,0-1.13.14-1.94.88-3.11.9-2.13.06-4.37.83-6.55.48-1.11-.18-1.81-1.01-2.9-1.28-.88-.19-1.75-.23-2.64-.44-1.78-.41-3.95-.09-5.78-.09-1.19,0-2.4-.21-3.48.42-.84.48-1.8,1.21-2.55,1.8-.79.62-1.2,1.16-1.54,2.12-.16.43-.29.43-.35.98-.06.51.02.88-.18,1.34-.1.23-.39.31-.49.58-.09.26,0,.68,0,.94v75.51c.28,0,.55.02.83.02,1.1,0,2.5-.26,3.54.1,1.54.51,2.83,2.04,4.31,2.74,1.28.6,2.47,1.16,3.83,1.45,2.41.51,4.36,1.77,6.84,2.08,3.02.39,6.99.57,10.04,0,1.92-.34,3.84-.58,5.78-1.04,1.19-.3,2.41-.46,3.6-.76,1.47-.38,3.24-.06,4.62-.52,1.94-.69,3.31-2,5.43-2.22,2.31-.25,4.49-1.06,6.77-1.3,3.83-.43,7.77.09,11.64-.32,4.9-.54,10.04-2.01,14.88-.48,11.5,3.67,19.21,16.5,19.21,28.11,0,16.53-13.4,29.95-29.94,29.95-4.13,0-9.78-.31-12.21-4.1-2.56-3.99-7.2-3.53-10.98-5.83-2.61-1.6-5-3.58-7.2-5.63-1.02-.96-2.14-1.68-2.7-3.05-.79-1.89-1.22-3.99-2.07-5.86-1.52-3.4-4.17-6.24-5.76-9.6-.56-1.21-1.41-3.1-2.37-4.06-.84-.84-2.45-2.24-3.57-2.52-1.17-.3-2.96.05-4.17.05-1.7,0-4.2-.47-5.8.09-1.42.51-2.84,1.51-4.27,2.15-1.31.56-2.77,1.33-4.16,1.78-2.05.65-4.27,1.82-6.15,3.26v92.27c3.55.03,5.86,3.75,9.83,6.02,20.2,11.6,41.91-16.07,63.7-10.71,15.67,3.83,26.57,17.94,27.46,32.01.64,10.03-3.83,20.06-15.32,26.29-4.37,2.38-9.3,3.62-14.27,3.62-7.1,0-15.8-2.66-20.5-8.31-3.52-4.2-.32-7.63-7.19-8.12-7.4-.54-16.8,10.16-22.13,14.38-6.05,4.76-14.22,4.3-21.58,4.57v61.1c3.43-2.39,8.03-3.09,12.68-3.47,9.45-.77,14.4-.66,20.43-8.92,5.24-7.16,6.18-14.77,15.99-16.66,9.22-1.79,17.42,2.15,23.99-6.43,1.97-2.56,5.55-10.75,3.13-12.98,16.93,4.82,9,23.33,11.77,37.25.88,4.4,3.02,8.5,4.51,12.71,13.6,14.75,10.34,43.74-12.59,51.98-13.09,4.7-29.41-4.01-38.02-13.83-11.14-12.73-12.79-29.97-34.52-22.59-2.7.91-5.26,1.42-7.37,1.31v234.23h142.81V581.66H88.73v40.27Zm47.72,1321.3c3.39,1.07,5.07,5.51,8.64,6.65,4.13,1.32,6.77-.94,10.08-2.4,16.92-7.54,34.9,12.92,34.9,28.52,0,16.52-13.4,29.91-29.94,29.91-5.32,0-10.41-3.56-15.35-3.44-4.81.15-9.65,3.28-14.8,3.44-5.15.19-13.97-2.94-17.5-7.24-2.72-3.33-1.61-9.19-1.74-13.57-.19-6.85-1.63-13.42-4.14-19.81-.93-2.37-5.19-8.62-4.75-10.92.75-3.95,12.46-6.26,16.46-7.46,4.87-1.47,13-5.33,18.14-3.68Z"/><path class="cls-2" d="m69.3,667.96c-4.5,7.64-9.71,14.52-17.84,18.56-6.96,3.47-15.41,2.81-22.9,3.92-2.44.36-6.58,1.02-10.36,2.33l47.31,25.46c7.37-6.16,4.5-19.09,11.46-25.93,4.11-4.03,9.16-6.33,14.21-8.65-7.2-6.96-10.44-17.09-8.63-26.91-5.48.98-9.83,5.41-13.26,11.22Z"/><path class="cls-2" d="m124,582.3c-6.67-10.53-11.32-20.04-28.48-14.21-2.72.92-5.26,1.4-7.38,1.31v12.9h35.86Z"/><path class="cls-2" d="m88.14,12.4v99.92c.28.03.54.06.71.06.91.03,1.4.11,2.22.56.71.39.98.69,1.75.78.71.1,1.51-.01,2.22-.01,2.62,0,4.94-.07,7.47-.88,1.39-.44,2.56-1.17,3.79-1.9.82-.5,1.74-.82,2.55-1.31,1.6-.98,2.82-2.72,4.29-3.91.5-.26.96-.58,1.38-.98.59-.64.85-1.48,1.41-2.16,2.1-2.51,4.59-4.62,6.82-7,1.16-1.24,1.95-2.4,3.5-3.18,1.33-.67,2.28-1.81,3.68-2.37,2.83-1.12,5.88-1.24,8.82-1.96,2.38-.56,4.7-1.38,6.95-2.34,7.01-3.04,13.11-8.02,21.19-5.93,10.34,2.69,18.83,11.12,21.6,21.42.67,2.55,1.01,5.16,1.01,7.77,0,10.01-5.14,19.53-13.5,25.03-4.19,2.76-9.04,4.42-14.04,4.81-4.04.32-8.57.38-12.29-1.48-3.24-1.6-5.32-4.61-6.93-7.74-1.15-2.26-2.04-4.61-3.04-6.91-1.03-2.32-2.28-5-4.86-5.93-1.91-.68-4.63-.69-6.33.54-1.21.9-2.61,1.47-3.85,2.2-2.84,1.66-5.67,3.54-8.69,5.02-2.49,1.22-4.55,3.39-6.87,4.87-1.42.91-3.31,1.64-5.03,1.7-1.77.05-3.55-.09-5.32-.02-2.72.08-5.39,1.08-8.03,1.66-.89.2-1.71.6-2.56.93v78.93c0,1.39.11,2.72.19,4.1v.19c-.01.44-.14.95.12,1.36.48.77,2.16.41,2.92.41h5.89c1.06,0,2.17.09,3.23-.09,1.04-.22,1.94-.51,3.02-.36.84.1,1.46.49,2.2.88,1.11.59,1.86.89,3.13.91,1.77.03,3.13-.63,4.54-1.66.97-.71,2.03-1.29,3.02-1.9,1.02-.67,2.25-1.46,3.47-1.68,2.11-.42,4.62-.15,6.77-.09.59.02,1.16.09,1.69.36.68.34.94,1.13,1.52,1.49,1.17.73,1.58-1.56,1.92-2.41.94-2.38,2.21-4.65,3.74-6.72,3.05-4.11,7.16-7.44,11.83-9.53,3.84-1.72,8.02-2.61,12.21-2.61,16.53,0,29.93,13.41,29.93,29.94s-13.4,29.92-29.93,29.92c-2.99,0-5.98-.42-8.84-1.31-5-1.56-9.55-4.44-13.11-8.28-1.77-1.91-3.28-4.05-4.49-6.34-.57-1.08-.93-2.14-1.8-2.99-1.02-.98-2.03-1.98-2.6-3.31-.15-.31-.21-1.09-.4-1.34-.38-.54-.73-.26-1.25-.49-.54-.24-.71-.72-1.33-.85-.37-.08-.94.03-1.32.05-1.07.01-2.14,0-3.21,0-1.12,0-2.36-.16-3.47-.01-1.13.15-1.93.88-3.11.91-2.13.06-4.36.8-6.55.45-1.1-.17-1.82-1.01-2.9-1.25-.88-.21-1.75-.23-2.64-.44-1.78-.42-3.95-.11-5.77-.11-1.2,0-2.41-.18-3.49.43-.84.47-1.79,1.21-2.54,1.8-.8.63-1.2,1.17-1.54,2.12-.15.43-.28.43-.35.97-.06.52.02.9-.18,1.35-.09.24-.39.31-.48.58-.09.26-.01.67-.01.95v75.51c.28,0,.56.01.84.01,1.1,0,2.5-.25,3.54.11,1.54.52,2.83,2.05,4.31,2.76,1.28.6,2.46,1.15,3.82,1.44,2.42.5,4.37,1.77,6.85,2.1,3.03.38,6.98.56,10.04,0,1.92-.34,3.85-.62,5.77-1.06,1.2-.27,2.41-.44,3.61-.74,1.47-.38,3.25-.06,4.61-.55,1.95-.68,3.33-1.99,5.44-2.22,2.3-.23,4.49-1.04,6.77-1.31,3.83-.41,7.77.11,11.64-.31,4.9-.52,10.03-2,14.88-.47,11.5,3.68,19.2,16.48,19.2,28.11,0,16.53-13.4,29.95-29.93,29.95-4.13,0-9.78-.31-12.21-4.09-2.56-4.01-7.2-3.54-10.97-5.85-2.62-1.58-5-3.57-7.21-5.61-1.02-.96-2.13-1.67-2.7-3.05-.78-1.9-1.23-3.98-2.07-5.88-1.53-3.4-4.17-6.23-5.77-9.59-.56-1.21-1.41-3.11-2.37-4.07-.84-.85-2.44-2.23-3.56-2.52-1.18-.3-2.95.03-4.17.03-1.7,0-4.19-.47-5.8.1-1.42.51-2.84,1.53-4.27,2.15-1.3.56-2.77,1.32-4.16,1.77-2.04.65-4.28,1.84-6.16,3.27v92.26c3.55.03,5.87,3.77,9.84,6.03,20.2,11.6,41.92-16.08,63.7-10.71,15.66,3.84,26.56,17.95,27.45,32.01.64,10.04-3.83,20.05-15.32,26.29-4.37,2.38-9.3,3.62-14.27,3.62-7.1,0-15.79-2.65-20.51-8.31-3.52-4.21-.32-7.63-7.18-8.13-7.4-.54-16.8,10.18-22.13,14.38-6.05,4.77-14.21,4.32-21.58,4.59v61.08c3.44-2.37,8.03-3.07,12.69-3.46,9.44-.77,14.39-.65,20.42-8.9,5.24-7.17,6.18-14.78,15.98-16.67,9.23-1.78,17.42,2.16,24-6.43,1.97-2.56,5.55-10.75,3.14-12.98,16.93,4.83,8.99,23.33,11.77,37.25.88,4.41,3.02,8.49,4.51,12.7,7.1,7.72,9.56,19.3,7.06,29.79h43.24V12.4H88.14Z"/><path class="cls-2" d="m1616.15,2080.51c0,3.01-2.44,5.43-5.44,5.43H236.38c-3,0-5.43-2.43-5.43-5.43V17.83c0-2.99,2.43-5.43,5.43-5.43h1374.33c3.01,0,5.44,2.44,5.44,5.43v2062.68Z"/><rect class="cls-3" x="235.99" y="12.4" width="11.49" height="2073.55"/><g class="cls-6"><rect class="cls-4" x="295.1" y="128.49" width="1247.66" height="8.15"/><rect class="cls-4" x="295.1" y="220.9" width="1247.66" height="8.15"/><rect class="cls-4" x="295.1" y="313.33" width="1247.66" height="8.15"/><rect class="cls-4" x="295.1" y="405.74" width="1247.66" height="8.15"/><rect class="cls-4" x="295.1" y="498.16" width="1247.66" height="8.16"/><rect class="cls-4" x="295.1" y="590.57" width="1247.66" height="8.16"/><rect class="cls-4" x="295.1" y="683" width="1247.66" height="8.14"/><rect class="cls-4" x="295.1" y="775.41" width="1247.66" height="8.15"/><rect class="cls-4" x="295.1" y="867.84" width="1247.66" height="8.15"/><rect class="cls-4" x="295.1" y="960.25" width="1247.66" height="8.16"/><rect class="cls-4" x="295.1" y="1052.67" width="1247.66" height="8.16"/><rect class="cls-4" x="295.1" y="1145.09" width="1247.66" height="8.15"/><rect class="cls-4" x="295.1" y="1237.51" width="1247.66" height="8.15"/><rect class="cls-4" x="295.1" y="1329.92" width="1247.66" height="8.15"/><rect class="cls-4" x="295.1" y="1422.34" width="1247.66" height="8.16"/><rect class="cls-4" x="295.1" y="1514.78" width="1247.66" height="8.15"/><rect class="cls-4" x="295.1" y="1607.19" width="1247.66" height="8.15"/><rect class="cls-4" x="295.1" y="1699.61" width="1247.66" height="8.15"/><rect class="cls-4" x="295.1" y="1792.02" width="1247.66" height="8.15"/><rect class="cls-4" x="295.1" y="1884.43" width="1247.66" height="8.15"/><rect class="cls-4" x="295.1" y="1976.86" width="1247.66" height="8.15"/></g></g></g></g></svg>