<?xml version="1.0" encoding="UTF-8"?>
<svg id="Camada_2" data-name="Camada 2" xmlns="http://www.w3.org/2000/svg" viewBox="0 0 1782.72 1000.71">
  <defs>
    <style>
      .cls-1 {
        fill: #4ac3c6;
      }

      .cls-1, .cls-2, .cls-3 {
        stroke-width: 0px;
      }

      .cls-2 {
        fill: #358d8d;
      }

      .cls-3 {
        fill: #e3c342;
      }
    </style>
  </defs>
  <g id="Camada_1-2" data-name="Camada 1">
    <rect class="cls-2" width="279.36" height="279.36" rx="31.15" ry="31.15"/>
    <rect class="cls-2" y="360.68" width="279.36" height="279.36" rx="31.15" ry="31.15"/>
    <rect class="cls-1" y="721.35" width="279.36" height="279.36" rx="31.15" ry="31.15"/>
    <rect class="cls-1" x="375.84" width="279.36" height="279.36" rx="31.15" ry="31.15"/>
    <rect class="cls-2" x="375.84" y="721.35" width="279.36" height="279.36" rx="31.15" ry="31.15"/>
    <rect class="cls-2" x="751.68" width="279.36" height="279.36" rx="31.15" ry="31.15"/>
    <rect class="cls-1" x="751.68" y="721.35" width="279.36" height="279.36" rx="31.15" ry="31.15"/>
    <rect class="cls-1" x="1127.52" width="279.36" height="279.36" rx="31.15" ry="31.15"/>
    <rect class="cls-2" x="1503.36" width="279.36" height="279.36" rx="31.15" ry="31.15"/>
    <rect class="cls-1" x="1503.36" y="360.68" width="279.36" height="279.36" rx="31.15" ry="31.15"/>
    <rect class="cls-1" x="1503.36" y="721.35" width="279.36" height="279.36" rx="31.15" ry="31.15"/>
    <path class="cls-3" d="m155.77,546.02c-1.99-6.65-4.89-13.03-8.68-19.15-3.79-6.11-7.42-11.37-10.87-15.76-5.45,4.12-10.61,8.68-15.46,13.66-4.86,4.99-9.28,10.34-13.26,16.06-.27,2.79-.6,5.09-1,6.88-.4,1.79-1.1,3.29-2.09,4.49-1,1.2-2.26,2.23-3.79,3.09-1.53.86-3.49,1.76-5.88,2.69-4.39-3.19-7.58-7.15-9.57-11.87-1.99-4.72-2.26-9.41-.8-14.06.13-3.32.97-6.58,2.49-9.77,1.53-3.19,3.39-6.21,5.58-9.08,2.19-2.86,4.55-5.58,7.08-8.18,2.52-2.59,4.92-5.02,7.18-7.28.4-1.33,1.16-2.49,2.29-3.49,1.13-1,2.33-1.96,3.59-2.89,1.26-.93,2.52-1.93,3.79-2.99,1.26-1.06,2.29-2.32,3.09-3.79-.93-3.06-2.73-6.15-5.39-9.27-2.66-3.12-5.12-6.35-7.38-9.67-.27-.66-.77-.86-1.5-.6-.73.27-1.23.2-1.5-.2.26-1.73-.1-3.59-1.1-5.58-1-1.99-2.23-3.72-3.69-5.19.4-1.46.86-3.22,1.4-5.29.53-2.06.4-4.35-.4-6.88,0-1.06.2-2.09.6-3.09.4-1,.8-1.93,1.2-2.79.4-.86.73-1.73,1-2.59.26-.86.2-1.7-.2-2.49,1.73-.27,3.26-.2,4.59.2,1.33.4,2.59.87,3.79,1.4,1.2.53,2.29.93,3.29,1.2,1,.27,2.03.2,3.09-.2-.13.67-.13,1.13,0,1.4.13.27.33.47.6.6.26.13.53.3.8.5.26.2.4.5.4.9,2.12.67,4.45,2.09,6.98,4.29,2.52,2.19,4.95,4.62,7.28,7.28,2.33,2.66,4.42,5.32,6.28,7.98,1.86,2.66,3.26,4.66,4.19,5.98,3.19-1.99,6.65-4.35,10.37-7.08,3.72-2.72,7.58-5.55,11.57-8.48,3.99-2.92,8.01-5.68,12.07-8.28,4.05-2.59,8.01-4.69,11.87-6.28,2.26,1.07,4.02,2.36,5.29,3.89,1.26,1.53,2.32,3.13,3.19,4.79.86,1.66,1.63,3.39,2.29,5.19.66,1.79,1.6,3.36,2.79,4.69-1.07,2.26-2.23,4.16-3.49,5.68-1.27,1.53-2.16,3.29-2.69,5.29-2.79,1.2-6.12,2.99-9.97,5.39-3.46,2.13-7.68,4.99-12.67,8.58s-11,8.38-18.05,14.36c1.6,1.86,2.92,3.66,3.99,5.39,1.06,1.73,1.93,3.19,2.59,4.39.66,1.46,1.26,2.79,1.79,3.99,1.2.93,2.19,1.99,2.99,3.19s1.56,2.43,2.29,3.69c.73,1.27,1.56,2.46,2.49,3.59.93,1.13,2.13,2.03,3.59,2.69.8,3.99,1.93,7.55,3.39,10.67,1.46,3.13,2.12,6.35,1.99,9.67-.93,3.06-2.29,5.58-4.09,7.58-1.79,1.99-3.09,4.06-3.89,6.18-1.2.4-2.39.8-3.59,1.2-1.2.4-2.13,1-2.79,1.79l-11.37-8.18Z"/>
    <path class="cls-3" d="m552.15,876.18c2.39.53,3.79,1.33,4.19,2.39.4,1.07.27,2.23-.4,3.49-.67,1.27-1.7,2.56-3.09,3.89-1.4,1.33-2.69,2.53-3.89,3.59-1.2-.26-2.46-.03-3.79.7-1.33.73-2.53,1.5-3.59,2.29-3.72-.4-7.55-.43-11.47-.1-3.92.33-7.55.63-10.87.9-.67,0-1.03.27-1.1.8-.07.53-.3.87-.7,1-3.86-1.2-7.98-1.66-12.37-1.4-4.39.27-8.98.8-13.76,1.6-4.79.8-9.64,1.63-14.56,2.49-4.92.87-9.84,1.37-14.76,1.5-1.46-1.06-2.56-2.36-3.29-3.89-.73-1.53-1.23-3.19-1.5-4.99-.27-1.79-.37-3.62-.3-5.48.07-1.86.1-3.72.1-5.58.4-1.46,1.13-2.59,2.19-3.39,1.06-.8,2.13-1.53,3.19-2.19,3.32-.13,6.31-.33,8.98-.6,2.66-.27,5.22-.53,7.68-.8,2.46-.27,4.92-.53,7.38-.8,2.46-.27,5.15-.46,8.08-.6,1.73-.4,4.72-.8,8.98-1.2,3.59-.26,8.68-.53,15.26-.8,6.58-.26,15.46-.4,26.63-.4-.13,1.2.23,2.06,1.1,2.59.86.53,1.76.97,2.69,1.3.93.33,1.76.73,2.49,1.2.73.47.9,1.3.5,2.49Zm11.57-38.5c1.86.27,3.12.73,3.79,1.4.66.67,1,1.46,1,2.39s-.2,1.96-.6,3.09c-.4,1.13-.8,2.29-1.2,3.49-3.86,2.13-8.81,3.62-14.86,4.49-6.05.87-12.27,1.46-18.65,1.8-6.38.33-12.53.47-18.45.4-5.92-.07-10.67.1-14.26.5-7.18.8-12.83,1.56-16.95,2.29-4.12.73-7.05,1.43-8.78,2.09-2.39-.13-4.22-.6-5.48-1.4-1.27-.8-2.19-1.76-2.79-2.89-.6-1.13-1-2.39-1.2-3.79-.2-1.4-.57-2.89-1.1-4.49.93-1.06,1.53-2.52,1.8-4.39.26-1.86-.07-3.26-1-4.19,1.06-.26,2.03-1.03,2.89-2.29.86-1.26,1.16-2.23.9-2.89,2.39-.53,4.82-.9,7.28-1.1,2.46-.2,4.89-.36,7.28-.5,2.39-.13,4.69-.33,6.88-.6,2.19-.26,4.22-.8,6.08-1.6,6.51-.26,13.36-.5,20.54-.7,7.18-.2,13.89-.43,20.15-.7,1.99.67,4.49,1.03,7.48,1.1,2.99.07,5.88.27,8.68.6,2.79.33,5.22,1.03,7.28,2.09,2.06,1.07,3.16,2.99,3.29,5.78Z"/>
    <g>
      <rect class="cls-2" x="1127.52" y="721.35" width="279.36" height="279.36" rx="31.15" ry="31.15"/>
      <path class="cls-3" d="m1313.91,857.74c1.99.27,3.42.73,4.29,1.4.86.67,1.43,1.5,1.7,2.49.26,1,.36,2.09.3,3.29-.07,1.2-.1,2.39-.1,3.59-1.99,1.33-4.49,2.43-7.48,3.29-2.99.87-6.28,1.53-9.87,1.99-3.59.47-7.35.8-11.27,1-3.92.2-7.81.37-11.67.5-.67,3.72-1.46,7.68-2.39,11.87-.93,4.19-2.46,9.27-4.59,15.26-1.86,4.12-3.99,7.02-6.38,8.68-2.39,1.66-4.89,2.49-7.48,2.49s-5.22-.63-7.88-1.89c-2.66-1.26-5.19-2.69-7.58-4.29-.27-1.73-.33-3.79-.2-6.18.13-2.39.33-4.95.6-7.68.26-2.72.63-5.45,1.1-8.18.46-2.72.9-5.42,1.3-8.08-4.26.67-7.68,1.27-10.27,1.79-2.59.53-4.42,1-5.49,1.4-2.53-.13-4.52-.6-5.98-1.4-1.46-.8-2.66-1.76-3.59-2.89-.93-1.13-1.73-2.42-2.39-3.89-.67-1.46-1.46-2.99-2.39-4.59.53-1.06.63-2.59.3-4.59-.33-1.99-1.1-3.52-2.29-4.59,1.06-.13,1.86-.9,2.39-2.29.53-1.4.53-2.42,0-3.09,2.13-.53,4.42-.9,6.88-1.1,2.46-.2,4.89-.36,7.28-.5,2.39-.13,4.65-.36,6.78-.7,2.12-.33,3.99-.9,5.58-1.7,1.86,0,3.62-.03,5.29-.1,1.66-.07,3.42-.1,5.29-.1.4-1.73.33-3.19-.2-4.39-.53-1.2-.67-2.26-.4-3.19.26-.66.76-1.1,1.5-1.3.73-.2,1.16-.63,1.3-1.3.53-1.73.66-3.09.4-4.09-.27-1,0-2.29.8-3.89.66-1.06,1.56-2.72,2.69-4.99,1.13-2.26,1.56-4.65,1.3-7.18,1.33-.93,2.56-1.99,3.69-3.19,1.13-1.2,2.33-2.29,3.59-3.29,1.26-1,2.66-1.86,4.19-2.59,1.53-.73,3.42-1.1,5.68-1.1,1.2,1.46,2.06,2.86,2.59,4.19.53,1.33,1.06,2.59,1.6,3.79.53,1.2,1.23,2.33,2.09,3.39.86,1.07,2.16,2.06,3.89,2.99,0,1.2-.2,2.66-.6,4.39-.4,1.73-.73,3.46-1,5.19-.27,1.73-.33,3.26-.2,4.59.13,1.33.8,2.26,2,2.79-.53,1.46-1.03,2.89-1.5,4.29-.47,1.4-.9,2.76-1.3,4.09,2.26.4,4.85.63,7.78.7,2.92.07,5.72.33,8.38.8,2.66.47,5.09,1.27,7.28,2.39,2.19,1.13,3.75,3.03,4.69,5.68Z"/>
    </g>
    <path class="cls-3" d="m1670.98,94.11c1.73-1.06,3.69-2.69,5.88-4.89,2.19-2.19,4.49-4.52,6.88-6.98,2.39-2.46,4.85-5.02,7.38-7.68,2.52-2.66,5.05-5.02,7.58-7.08,2.52-2.06,4.99-3.69,7.38-4.89,2.39-1.2,4.65-1.73,6.78-1.6,1.06,4.66,1.23,9.27.5,13.86-.73,4.59-2.23,9.74-4.49,15.46-1.46,1.46-3.56,3.42-6.28,5.88-2.73,2.46-5.72,5.19-8.98,8.18-3.26,2.99-6.62,6.12-10.07,9.37-3.46,3.26-6.75,6.38-9.87,9.37-3.13,2.99-5.85,5.72-8.18,8.18-2.33,2.46-3.96,4.36-4.89,5.68-2.26,1.99-5.22,4.72-8.88,8.18-3.66,3.46-7.51,7.12-11.57,10.97-4.06,3.86-7.98,7.65-11.77,11.37-3.79,3.72-6.88,6.78-9.28,9.18-.27.67-.2,1.23.2,1.7.4.47.6,1.03.6,1.7-1.6,1.33-2.63,2.56-3.09,3.69-.47,1.13-.73,2.23-.8,3.29-.07,1.07-.07,2.16,0,3.29.07,1.13-.1,2.36-.5,3.69-1.07.8-2.03,1.7-2.89,2.69-.87,1-1.7,1.99-2.49,2.99-.8,1-1.7,1.93-2.69,2.79-1,.87-2.23,1.63-3.69,2.29-2.66-.13-4.79-.43-6.38-.9-1.6-.46-3.53-.9-5.78-1.3-1.86-1.73-2.89-3.92-3.09-6.58-.2-2.66,0-5.39.6-8.18s1.46-5.55,2.59-8.28c1.13-2.72,2.23-5.09,3.29-7.08,1.33-3.06,2.72-5.19,4.19-6.38,1.46-1.2,2.33-2.32,2.59-3.39,1.2-1.33,3.36-3.46,6.48-6.38,3.12-2.92,6.55-6.05,10.27-9.37,3.72-3.32,7.34-6.55,10.87-9.67,3.52-3.12,6.21-5.62,8.08-7.48,1.2-2.13,3.52-4.85,6.98-8.18,3.46-3.32,7.08-6.71,10.87-10.17,3.79-3.46,7.21-6.75,10.27-9.87,3.06-3.12,4.85-5.62,5.38-7.48Zm-30.92-24.53c-.27.67-.5,1.37-.7,2.09-.2.73-.63,1.3-1.3,1.7.66,1.46.93,2.33.8,2.59,1.6,2.66,3.02,5.39,4.29,8.18,1.26,2.79,2.69,5.52,4.29,8.18-.27,1.6,0,3.13.8,4.59.8,1.46,1.33,2.93,1.6,4.39.26,1.86.03,3.92-.7,6.18-.73,2.26-1.83,3.86-3.29,4.79-.93,1.07-2.06,1.93-3.39,2.59-1.33.67-2.53,1.53-3.59,2.59-.8.53-1.63.87-2.49,1-.87.13-1.76.33-2.69.6-1.46.93-3.39,1.79-5.78,2.59s-4.39,1.07-5.98.8c-2,.67-3.96,1.13-5.88,1.4-1.93.27-4.16.13-6.68-.4-4.92.67-8.98-.3-12.17-2.89-3.19-2.59-5.52-5.68-6.98-9.27-.53-3.86-.4-7.35.4-10.47.8-3.12,1.96-6.01,3.49-8.68,1.53-2.66,3.26-5.12,5.19-7.38,1.93-2.26,3.76-4.45,5.49-6.58.8.27,1.36.07,1.7-.6.33-.66.83-1.13,1.5-1.4.53-1.06,1.23-1.83,2.09-2.29.86-.46,1.56-1.16,2.09-2.09,1.2-.27,2.09-.8,2.69-1.6s1.43-1.33,2.49-1.6c1.33-1.33,2.26-2.32,2.79-2.99.53-.66,1.2-1.53,2-2.59h1.5c.33,0,.9-.07,1.7-.2.53-.93,1-1.63,1.4-2.09.4-.46,1.06-.96,2-1.5.8.4,1.7.67,2.69.8,1,.13,1.83.53,2.49,1.2,0,.67.2,1.2.6,1.6.4.4.8.77,1.2,1.1.4.33.76.67,1.1,1,.33.33.56.77.7,1.3,1.06.8,1.7,1.37,1.89,1.7.2.33.43.9.7,1.7Zm-14.36,28.52c.4-1.33.6-2.03.6-2.09s-.07-.23-.2-.5c-.53-.8-1-1.66-1.4-2.59-.4-.93-.87-1.79-1.4-2.59-.8.8-1.6.93-2.39.4-.67.67-1.36,1.27-2.09,1.79-.73.53-1.43,1.2-2.09,1.99-.8,1.07-1.5,1.93-2.09,2.59-.6.67-.97,1.66-1.1,2.99.93.67,2.06.87,3.39.6,1.33-.26,2.52-.4,3.59-.4,1.06-.26,1.99-.6,2.79-1l2.39-1.2Zm72.6,72c-.27,1.6-.03,3.09.7,4.49.73,1.4,1.23,2.83,1.5,4.29.26,1.86.07,3.96-.6,6.28-.67,2.33-1.73,3.89-3.19,4.69-.93,1.2-2.09,2.13-3.49,2.79-1.4.67-2.63,1.53-3.69,2.59-.8.4-1.6.7-2.39.9-.8.2-1.73.43-2.79.7-1.46.8-3.36,1.6-5.68,2.39-2.33.8-4.36,1.13-6.08,1-1.99.67-3.92,1.13-5.78,1.4-1.86.27-4.12.13-6.78-.4-4.92.67-8.94-.3-12.07-2.89-3.13-2.59-5.42-5.75-6.88-9.47-.53-3.72-.4-7.15.4-10.27.8-3.12,1.93-6.01,3.39-8.68,1.46-2.66,3.16-5.12,5.09-7.38,1.93-2.26,3.82-4.45,5.68-6.58.66.27,1.2.03,1.6-.7.4-.73.93-1.16,1.59-1.3.4-1.06,1.06-1.83,2-2.29.93-.46,1.66-1.23,2.19-2.29,1.06-.26,1.93-.76,2.59-1.5.66-.73,1.53-1.23,2.59-1.5,1.2-1.33,2.09-2.32,2.69-2.99.6-.66,1.3-1.53,2.09-2.59.66-.13,1.16-.17,1.5-.1.33.07.83.03,1.5-.1.66-1.06,1.2-1.79,1.6-2.19.4-.4,1-.93,1.79-1.6.8.53,1.7.83,2.69.9,1,.07,1.83.5,2.49,1.3.13,1.46.73,2.36,1.79,2.69,1.06.33,1.73,1.1,1.99,2.29.93.8,1.53,1.33,1.8,1.6.26.27.53.87.8,1.79-.27.67-.53,1.37-.8,2.09-.27.73-.73,1.23-1.4,1.5.8,1.46,1.06,2.33.8,2.59,1.6,2.66,3.02,5.42,4.29,8.28,1.26,2.86,2.76,5.62,4.49,8.28Zm-21.74,5.58c.26-1.2.4-2.06.4-2.59-.67-.8-1.17-1.66-1.5-2.59-.33-.93-.77-1.8-1.3-2.59-.67.67-1.17,1-1.5,1s-.63-.13-.9-.4c-.8.67-1.56,1.27-2.29,1.79-.73.53-1.43,1.13-2.09,1.8-.67,1.2-1.33,2.13-2,2.79-.67.67-1,1.6-1,2.79.93.8,2.06,1.07,3.39.8,1.33-.26,2.52-.4,3.59-.4,1.06-.26,1.96-.6,2.69-1,.73-.4,1.56-.86,2.49-1.4Z"/>
  </g>
</svg>