<?xml version="1.0" encoding="UTF-8"?><svg id="Camada_2" xmlns="http://www.w3.org/2000/svg" viewBox="0 0 371.17 61.89"><defs><style>.cls-1{stroke-width:0px;}</style></defs><g id="Camada_1-2"><path class="cls-1" d="m1.08,19.47c-.12-.12-.21-.27-.27-.45-.05-.17-.18-.31-.39-.42-.03-.23-.07-.5-.13-.81-.05-.3-.11-.62-.16-.94s-.09-.64-.12-.96S0,15.29.05,15.02c.03-.14.08-.27.15-.4.07-.12.14-.25.21-.36s.12-.24.16-.36c.04-.12.04-.25.01-.38.09-.02.15-.07.18-.15.02-.09.1-.11.22-.08.11-.34.23-.66.35-.96s.26-.59.4-.87.29-.57.43-.86.28-.61.41-.97c-.27-.25-.46-.52-.57-.81-.12-.29-.21-.58-.27-.88-.06-.3-.11-.6-.14-.9s-.09-.61-.19-.93c.19-.28.41-.51.68-.69s.56-.33.88-.45c.32-.12.67-.21,1.04-.28s.77-.15,1.19-.25c.75-.23,1.42-.42,2.02-.55.59-.13,1.17-.24,1.73-.33.56-.09,1.15-.16,1.76-.23s1.31-.18,2.11-.32c.01.05.04.07.08.07h.15c.05.11.13.16.26.16,0-.05,0-.09-.01-.13,0-.04-.01-.07-.01-.11.03,0,.07,0,.13.02.05.02.1.03.14.05.04.02.07.01.11-.01.03-.02.04-.07.02-.15.19.33.43.6.73.81.3.21.62.4.98.55.02.14.02.24.01.3,0,.06-.02.12-.04.18-.02.06-.02.12-.02.19s.02.17.05.29c-.25.42-.54.75-.85.98-.32.23-.66.41-1.02.54-.36.12-.74.22-1.14.28s-.8.13-1.22.2-.83.17-1.25.29-.84.31-1.24.56c-.12-.05-.24-.07-.34-.06-.1,0-.21.03-.32.06-.11.03-.23.06-.36.09-.13.03-.29.03-.48,0-.12.11-.27.19-.43.23s-.33.09-.5.14c.08.17.11.34.11.52,0,.17.01.32.06.45.66.06,1.38.06,2.18-.01s1.58-.12,2.34-.15c.02.08,0,.13-.02.16-.03.03-.05.09-.05.16.14.09.27.21.4.35s.25.28.39.41.27.24.41.33.3.12.49.11c.08.16.13.32.16.49.03.17,0,.35-.07.54-.31.2-.62.41-.91.62-.3.21-.61.4-.93.57-.32.17-.67.31-1.04.42-.38.11-.78.16-1.22.14h-.2c-.05,0-.12-.03-.2-.09-.16.08-.36.11-.62.08s-.47,0-.64.08c-.22-.08-.47-.12-.76-.12s-.54-.04-.76-.12c-.28.41-.55.83-.8,1.28-.25.45-.47.92-.66,1.42.64.09,1.17.13,1.59.12s.82-.05,1.2-.09.76-.09,1.16-.14.89-.06,1.46-.05c.39-.19.84-.32,1.35-.39s.98-.18,1.42-.32c.16.05.29.14.4.27.11.13.21.27.32.4.1.13.21.25.32.34.11.09.25.12.42.09.08.08.13.17.15.28s.05.21.07.3.06.17.11.22.13.07.26.06c-.3.61-.63,1.08-1,1.41-.37.33-.78.58-1.24.76-.46.18-.98.31-1.55.4-.57.09-1.21.19-1.91.32-.17.03-.32.03-.43-.01-.12-.04-.24-.06-.36-.06-.44.08-.96.16-1.56.23-.6.08-1.21.11-1.82.09-.61-.02-1.2-.09-1.76-.23s-1.03-.39-1.41-.75Z"/><path class="cls-1" d="m35.27,15.19c.28.06.45.16.49.28s.03.26-.05.41-.2.3-.36.46-.32.3-.46.42c-.14-.03-.29,0-.45.08s-.3.18-.42.27c-.44-.05-.89-.05-1.35-.01s-.89.07-1.28.11c-.08,0-.12.03-.13.09s-.04.1-.08.12c-.45-.14-.94-.2-1.45-.16s-1.05.09-1.62.19-1.13.19-1.71.29c-.58.1-1.16.16-1.73.18-.17-.12-.3-.28-.39-.46s-.14-.38-.18-.59-.04-.43-.04-.64.01-.44.01-.66c.05-.17.13-.3.26-.4s.25-.18.38-.26c.39-.02.74-.04,1.05-.07.31-.03.61-.06.9-.09.29-.03.58-.06.87-.09.29-.03.6-.05.95-.07.2-.05.55-.09,1.05-.14.42-.03,1.02-.06,1.79-.09.77-.03,1.82-.05,3.13-.05-.02.14.03.24.13.3.1.06.21.11.32.15.11.04.21.09.29.14.09.06.11.15.06.29Zm1.36-4.52c.22.03.37.09.45.16.08.08.12.17.12.28s-.02.23-.07.36-.09.27-.14.41c-.45.25-1.04.43-1.75.53s-1.44.17-2.19.21-1.47.05-2.17.05-1.25.01-1.68.06c-.84.09-1.51.18-1.99.27-.48.09-.83.17-1.03.25-.28-.02-.5-.07-.64-.16s-.26-.21-.33-.34c-.07-.13-.12-.28-.14-.44s-.07-.34-.13-.53c.11-.12.18-.3.21-.52s0-.38-.12-.49c.12-.03.24-.12.34-.27s.14-.26.11-.34c.28-.06.57-.11.86-.13s.57-.04.86-.06c.28-.02.55-.04.81-.07.26-.03.5-.09.71-.19.76-.03,1.57-.06,2.41-.08s1.63-.05,2.37-.08c.23.08.53.12.88.13.35,0,.69.03,1.02.07.33.04.61.12.86.25.24.13.37.35.39.68Z"/><path class="cls-1" d="m53.42,9.16l-.84,1.05-.02.66c-.19.39-.36.8-.5,1.24s-.29.93-.41,1.48c-.14.59-.22,1.22-.23,1.86-.02.65.01,1.29.08,1.93s.18,1.27.32,1.87.3,1.16.49,1.66c-.05.06-.09.18-.13.36-.04.18-.07.37-.09.57-.02.2-.04.39-.05.57,0,.18,0,.31.04.39l.16.26c.06.03.1.09.12.16s.03.15.05.21c.03.39-.07.77-.3,1.12-.31-.05-.61-.12-.88-.22-.27-.1-.53-.21-.76-.32-.17-.38-.36-.68-.55-.91-.2-.23-.39-.46-.57-.68-.17-.19-.34-.38-.5-.59-.16-.2-.33-.46-.5-.77-.06-.52-.14-.98-.23-1.41s-.2-.86-.33-1.31l-.07-.26c.03-.58.06-1.17.09-1.77s.03-1.12,0-1.56c.03-.12.05-.26.06-.41,0-.15.02-.3.04-.46v-.28c0-.12,0-.22.02-.28l.52-.05-.16-.75.26-.28.09-.42c.05-.89.17-1.67.38-2.33.2-.66.49-1.32.87-1.96l.19-.35c.27-.36.53-.74.8-1.15.26-.41.57-.84.91-1.31.55-.59,1.03-1.1,1.44-1.52s.83-.77,1.25-1.03l.21-.26c.3-.28.55-.51.76-.69s.4-.36.57-.53c.17-.16.33-.3.47-.42s.28-.23.42-.3c.22.16.43.22.63.19s.37-.07.49-.12c.19.2.28.38.28.52s-.03.34-.09.59c-.05.2-.09.44-.13.7s0,.55.13.87c-.08.17-.14.35-.2.53-.05.18-.11.36-.18.55s-.12.32-.16.41c-.05.09-.1.16-.15.21-.05.06-.12.11-.19.16-.07.06-.15.14-.25.27-.36.14-.72.36-1.09.67s-.71.64-1.03,1.01-.6.75-.84,1.14-.42.75-.53,1.08l-.14.4Z"/><path class="cls-1" d="m66.21,13.15c.16.09.28.21.38.35s.2.27.3.4c0,.3.03.64.08,1.03.05.39.05.77-.01,1.15-.31.5-.66.97-1.03,1.41s-.84.8-1.38,1.08c-.08.02-.1.07-.07.18.03.1,0,.17-.07.2-.12,0-.22.04-.28.11s-.15.06-.26-.04c-.17.11-.35.21-.54.29-.19.09-.35.19-.49.32-.14-.02-.27,0-.38.02-.11.03-.22.07-.33.11-.11.04-.22.07-.33.11-.11.03-.22.03-.33,0-.5.25-1.05.45-1.66.61-.61.16-1.26.18-1.95.07-.47-.08-.88-.25-1.22-.52s-.62-.6-.82-1-.33-.85-.38-1.36,0-1.04.14-1.58c-.03-.05-.05-.11-.06-.19s-.01-.16-.01-.23v-.23c0-.08-.02-.13-.07-.16.09-.16.18-.32.25-.48s.07-.35-.01-.57c.08-.02.13-.06.16-.13s.06-.15.08-.25.05-.18.07-.26c.02-.08.07-.14.13-.19.03-.42.11-.82.23-1.19s.27-.74.43-1.09.34-.7.53-1.04c.19-.34.37-.69.54-1.05-.06-.12-.08-.21-.06-.25.02-.04.04-.13.06-.27.23-.39.47-.81.7-1.25s.48-.89.75-1.34c.26-.45.55-.88.84-1.29.3-.41.63-.78,1.01-1.09.25-.05.49-.12.73-.23.23-.11.47-.2.7-.28.23-.08.47-.13.71-.15s.5.03.79.15c.03.14.04.24.04.3,0,.06,0,.13.04.21.25.13.39.33.43.61s.07.55.11.82c.19.09.32.23.4.42s.14.4.19.63c-.19.19-.36.37-.53.54s-.33.32-.5.45c-.06.03-.15.04-.26.04s-.18-.02-.21-.04c-.47.2-.88.47-1.23.81-.35.34-.66.71-.91,1.14s-.48.87-.66,1.34-.32.93-.43,1.38c-.45.67-.82,1.37-1.1,2.09-.28.72-.52,1.52-.7,2.41.01.12.08.18.2.16s.23-.02.34,0c.19-.33.31-.64.36-.94.05-.3.08-.64.08-1.03.17-.3.36-.58.56-.84.2-.27.39-.55.56-.87.25-.19.48-.35.7-.49s.44-.26.66-.36.46-.2.71-.28.57-.16.93-.22c.38.03.7.11.97.23s.5.28.69.46.34.38.45.59c.11.21.19.41.23.6Z"/><path class="cls-1" d="m73.03,20.67c-.61.09-1.17.06-1.69-.09-.52-.16-.97-.41-1.37-.75-.4-.34-.75-.75-1.04-1.22s-.54-.97-.73-1.5c-.12-1.11-.09-2.12.12-3.02.2-.91.5-1.74.88-2.51s.82-1.48,1.3-2.14c.48-.66.95-1.3,1.41-1.91.09.05.17.04.23-.01.06-.05.12-.12.18-.2.05-.08.11-.16.16-.23.05-.08.13-.13.22-.16.06-.14.14-.26.23-.36s.19-.2.29-.29.2-.19.29-.28.17-.21.23-.35c.14-.03.27-.09.38-.18s.21-.18.3-.27.19-.18.29-.27c.1-.09.22-.15.36-.2v-.3c.31-.17.54-.35.68-.55.14-.19.31-.44.52-.74.16-.03.28-.04.38-.04.09,0,.23,0,.4-.04.14-.27.27-.47.38-.61s.27-.3.49-.47c.2.12.43.21.68.25s.46.16.63.36c.02.2.07.36.15.47.09.11.18.21.29.29.11.09.21.18.3.28.09.1.16.24.19.41.06,0,.11-.02.13-.05.02-.03.07-.04.13-.02.03.14.06.25.09.33.03.08.06.15.09.22.03.07.07.14.11.21.04.07.07.17.11.29-.08.19-.14.39-.2.61-.06.22-.17.37-.34.45,0,.12.04.2.13.21.08.02.14.08.15.19,0,.16-.02.28-.07.38.41.77.77,1.57,1.09,2.4.32.84.68,1.63,1.09,2.38-.03.23-.02.46.04.68.05.22.12.43.19.64.07.21.14.42.21.62.07.2.12.41.15.63.03.28.04.58.01.9-.02.32-.08.63-.16.93s-.2.57-.34.82c-.14.25-.3.44-.49.56-.03-.02-.12.03-.26.13s-.3.23-.48.39c-.18.16-.36.33-.55.52l-.49.49c-.19.13-.39.21-.62.27-.23.06-.46.11-.69.18-.19.13-.41.25-.67.39-.26.13-.52.25-.8.34s-.54.17-.81.22c-.27.05-.5.07-.7.04-.52.22-1.01.36-1.49.43s-1.04.03-1.7-.13Zm.52-8.86c-.12.38-.27.71-.45,1.01-.17.3-.34.6-.5.91-.16.31-.3.64-.42,1s-.18.76-.2,1.23c.25.27.55.43.9.49.35.06.71.07,1.08.02s.73-.11,1.09-.19.69-.12.98-.14c0-.14.05-.2.16-.19.52-.06,1-.25,1.46-.57.46-.32.94-.64,1.44-.97.06-.2.14-.38.25-.52s.15-.34.15-.61c-.06-.17-.1-.3-.12-.39-.02-.09-.02-.23-.02-.43-.33-.59-.61-1.24-.86-1.93-.24-.69-.52-1.34-.83-1.93-.03.08-.09.16-.16.23-.08.08-.16.06-.26-.05-.08.31-.21.45-.41.42-.2-.03-.38-.12-.55-.28-.44.45-.88.89-1.31,1.32s-.83.93-1.17,1.49c-.06.05-.1.06-.12.04s-.06-.01-.14.04Z"/><path class="cls-1" d="m91.13,7.12c.28-.2.59-.54.91-1s.68-.92,1.04-1.37.74-.85,1.12-1.18c.38-.34.77-.48,1.16-.43.25.56.38,1.12.4,1.68.02.55-.04,1.18-.16,1.89-.14.17-.34.41-.61.7s-.56.63-.88,1c-.32.37-.65.75-1,1.14-.34.39-.67.77-.97,1.12s-.57.69-.8.98-.38.53-.46.7c-.22.23-.51.56-.88.98s-.75.87-1.14,1.34c-.39.47-.77.93-1.14,1.37-.37.45-.67.82-.9,1.11-.02.08,0,.15.07.21.06.06.11.13.14.21-.17.16-.27.3-.3.43-.03.13-.04.27-.02.41s.04.28.07.41c.03.13.04.28.02.43-.11.09-.2.2-.27.33-.07.13-.14.25-.21.36s-.16.23-.26.34-.23.2-.39.28c-.33-.03-.59-.07-.8-.13-.2-.06-.45-.11-.73-.15-.27-.22-.45-.49-.54-.81-.09-.32-.14-.65-.13-.98,0-.34.05-.67.12-1.01s.14-.63.22-.88c.17-.11.18-.19.02-.23.06-.22.17-.4.33-.55s.23-.28.23-.39c.11-.17.32-.43.63-.79s.65-.73,1.02-1.14c.37-.41.72-.8,1.07-1.18.34-.38.61-.68.8-.9.09-.25.31-.57.64-.97.33-.4.69-.81,1.05-1.23s.7-.82,1.01-1.2c.3-.37.46-.68.48-.91Z"/><path class="cls-1" d="m110.51,16.19c.38.19.57.42.57.7s-.08.54-.26.79-.41.43-.7.55c-.29.13-.55.12-.79-.02-.03.13-.1.21-.2.25-.1.04-.17.11-.2.22-1.52.23-3.06.52-4.64.87-1.58.34-3.16.6-4.73.77-1.22-.05-2.23-.23-3.05-.54-.33-.28-.57-.63-.74-1.05s-.26-.87-.29-1.34c-.03-.47-.02-.93.05-1.37s.16-.83.28-1.16c.81-1.03,1.66-2.02,2.54-2.96.88-.95,1.89-1.78,3.01-2.52.33-.41.71-.75,1.15-1.04.44-.29.84-.61,1.2-.97-.47-.17-.96-.26-1.48-.26s-1.02.04-1.52.13-.97.19-1.41.32-.82.22-1.15.28c-.25-.12-.54-.19-.88-.21-.34-.02-.67-.08-1-.19-.19-.16-.32-.36-.39-.61s-.11-.51-.13-.77-.02-.52-.02-.76-.03-.44-.09-.6c.12-.2.24-.41.34-.61.1-.2.22-.39.36-.56.73-.2,1.55-.37,2.44-.5.89-.13,1.79-.19,2.69-.18.91.02,1.78.13,2.62.34s1.59.56,2.25,1.04c.08.44.24.79.49,1.04.25.26.55.46.91.6.17.31.32.63.45.95.12.32.21.66.26,1.02-.31.83-.75,1.53-1.32,2.1s-1.14,1.09-1.72,1.56c-.31.27-.65.49-1.01.68s-.67.41-.94.66c-.06.06-.1.15-.12.25-.02.1-.05.18-.12.22-.28.25-.59.47-.94.67-.34.2-.66.42-.94.67-.2.17-.37.36-.5.56-.13.2-.31.38-.53.54.28.09.56.13.83.12s.55-.05.84-.09.59-.09.89-.14.62-.06.95-.05c.45-.16.95-.29,1.5-.41s1.09-.16,1.64-.13c.47-.19.92-.32,1.35-.41.43-.09.84-.11,1.23-.06.2.08.36.22.46.42.1.2.26.34.48.42-.05.17-.06.3-.04.38s.04.22.04.42Z"/><path class="cls-1" d="m117.43,6.47c-.03.59-.06,1.19-.09,1.78-.03.59-.03,1.11,0,1.55-.03.14-.05.29-.06.43s-.02.29-.04.43v.28c0,.12,0,.22-.02.28l-.52.07.16.73-.26.28-.09.42c-.05.89-.17,1.67-.38,2.33s-.49,1.32-.87,1.98l-.19.33c-.27.36-.53.75-.8,1.16-.27.41-.57.86-.91,1.32-.55.59-1.03,1.1-1.44,1.51-.41.41-.83.75-1.25,1.02l-.21.26c-.3.28-.55.51-.76.69s-.4.36-.57.53c-.17.16-.33.3-.47.42s-.28.23-.42.3c-.22-.16-.43-.21-.63-.18s-.37.07-.49.11c-.19-.19-.28-.36-.28-.5s.03-.34.09-.57c.05-.22.09-.46.13-.73.04-.27,0-.56-.13-.87.08-.17.14-.34.2-.52.06-.17.11-.36.18-.56.06-.19.12-.32.16-.41s.1-.16.15-.21c.05-.05.12-.11.19-.16.07-.05.15-.14.25-.27.34-.14.7-.36,1.08-.67s.72-.64,1.04-1.01c.32-.37.6-.74.84-1.12s.42-.74.53-1.07l.14-.42.82-1.05.05-.66c.36-.73.66-1.64.91-2.72.14-.58.21-1.19.22-1.84,0-.65-.02-1.3-.09-1.94s-.18-1.28-.32-1.89-.3-1.16-.47-1.66c.05-.06.09-.18.13-.36.04-.18.07-.37.09-.57.02-.2.04-.39.05-.57,0-.18,0-.31-.04-.39l-.16-.23c-.06-.05-.1-.11-.12-.18-.02-.07-.03-.14-.05-.22-.03-.39.07-.77.3-1.12.3.05.58.12.86.22.27.1.53.21.79.32.17.38.35.68.55.91s.39.46.57.68c.17.2.34.4.5.6.16.2.33.45.5.76.06.52.14.98.23,1.41s.2.86.33,1.31l.07.26Z"/><path class="cls-1" d="m128.56,9.28c.17.13.28.26.33.41.05.15.05.29.02.43-.05.23-.18.44-.4.61s-.46.26-.73.26l-.33.16c-.31.05-.63.1-.96.15s-.67.11-1.03.18c-.45.08-.91.16-1.37.23s-.92.14-1.39.19c-.14-.02-.23-.03-.26-.05-.28,0-.54-.02-.79-.06-.24-.04-.47-.1-.69-.18-.3-.2-.5-.43-.61-.67s-.18-.49-.2-.75-.02-.51.01-.75c.03-.24.09-.45.16-.62.48-.56.95-1.06,1.39-1.49s.96-.81,1.56-1.14c.09-.09.16-.16.21-.19-.19.03-.37.06-.54.09-.17.03-.34.06-.49.09-.08.03-.15.05-.22.06s-.14.02-.22.04l-.23-.02c-.09-.03-.21-.05-.35-.05-.08-.02-.17-.03-.27-.05-.1-.02-.2-.04-.29-.07-.31-.2-.49-.41-.53-.63s-.06-.41-.06-.59v-.14s0-.09-.02-.12l.02-.42c.09-.12.17-.23.22-.33s.12-.18.2-.26l.23-.14c.42-.09.85-.17,1.29-.22.44-.05.86-.08,1.26-.08,1.2,0,2.15.23,2.84.7l.21.28c.02.08.05.15.09.21.05.06.15.13.3.19l.23.16c.12.19.22.36.28.53s.11.34.14.53l-.02.26c-.17.41-.41.75-.73,1.03s-.63.55-.96.8c-.08.06-.16.12-.26.16s-.18.09-.26.14c-.08.03-.15.07-.21.11-.06.04-.12.07-.16.11-.03.03-.06.07-.08.13-.02.06-.07.11-.13.15-.05.03-.1.07-.15.11-.05.04-.11.07-.15.11.05-.02.13-.02.26-.02.23-.06.48-.12.75-.16s.53-.07.8-.07c.45-.16.86-.23,1.22-.23.05,0,.09,0,.14.01.05,0,.09.01.12.01.19.05.32.11.39.18s.12.13.15.18l.26.52Z"/><path class="cls-1" d="m142.53,19.84c-.17-.55-.41-1.08-.72-1.59-.32-.51-.62-.95-.91-1.31-.45.34-.88.72-1.29,1.14-.4.42-.77.86-1.1,1.34-.02.23-.05.42-.08.57s-.09.27-.17.37c-.08.1-.19.19-.32.26-.13.07-.29.15-.49.22-.37-.27-.63-.59-.8-.99-.17-.39-.19-.78-.07-1.17.01-.28.08-.55.21-.81.13-.27.28-.52.46-.76.18-.24.38-.46.59-.68s.41-.42.6-.61c.03-.11.1-.21.19-.29.09-.08.19-.16.3-.24.11-.08.21-.16.32-.25.1-.09.19-.19.26-.32-.08-.25-.23-.51-.45-.77-.22-.26-.43-.53-.61-.81-.02-.06-.06-.07-.12-.05-.06.02-.1.02-.12-.02.02-.14,0-.3-.09-.46-.08-.17-.18-.31-.31-.43.03-.12.07-.27.12-.44.04-.17.03-.36-.03-.57,0-.09.02-.17.05-.26s.07-.16.1-.23c.03-.07.06-.14.08-.22.02-.07.02-.14-.02-.21.14-.02.27-.02.38.02s.22.07.32.12c.1.04.19.08.27.1.08.02.17.02.26-.02-.01.06-.01.09,0,.12.01.02.03.04.05.05.02.01.04.02.07.04s.03.04.03.07c.18.06.37.17.58.36s.41.38.61.61c.19.22.37.44.52.66.16.22.27.39.35.5.27-.17.55-.36.86-.59.31-.23.63-.46.96-.71.33-.24.67-.47,1-.69.34-.22.67-.39.99-.52.19.09.33.2.44.32.1.13.19.26.27.4.07.14.13.28.19.43s.13.28.23.39c-.09.19-.19.35-.29.47-.11.13-.18.27-.22.44-.23.1-.51.25-.83.45-.29.18-.64.42-1.05.71-.41.3-.92.7-1.5,1.2.13.16.24.3.33.45.09.14.16.27.22.37.06.12.11.23.15.33.1.08.18.17.25.27s.13.2.19.31c.06.11.13.21.21.3.08.09.18.17.3.22.07.33.16.63.28.89.12.26.18.53.17.81-.08.25-.19.46-.34.63-.15.17-.26.34-.32.51l-.3.1c-.1.03-.18.08-.23.15l-.95-.68Z"/><path class="cls-1" d="m152.62,4.34c.86-.17,1.71-.35,2.55-.53.84-.18,1.69-.33,2.54-.46.85-.12,1.72-.21,2.61-.26s1.83-.02,2.81.07c.39.41.73.85,1.03,1.32.3.48.58.97.84,1.49-.03.11-.05.22-.06.33,0,.11-.03.23-.06.35-.08.2-.18.39-.32.55-.13.16-.24.36-.32.57-.39.22-.76.45-1.11.7-.35.25-.7.51-1.04.77-.28.13-.57.24-.88.34-.3.1-.54.29-.69.57.52.22.97.48,1.36.8s.73.66,1.03,1.05.55.81.77,1.27c.22.45.41.92.59,1.41-.03.23-.07.48-.12.73-.05.25-.05.46,0,.63-.11.33-.25.59-.43.79s-.36.46-.53.79c-.55.23-.99.56-1.34.98-.16,0-.23-.03-.23-.09-.48.33-1.05.61-1.69.83-.64.23-1.33.4-2.06.53-.73.13-1.51.2-2.32.21-.81.02-1.62-.02-2.44-.09-.06-.05-.12-.1-.16-.16-.05-.06-.14-.09-.28-.07-.06-.16-.14-.29-.25-.41s-.18-.25-.25-.41c.16-.25.26-.54.32-.87.05-.33.12-.64.19-.95s.17-.58.29-.82.34-.42.63-.53c.12-.02.2.02.21.12s.06.16.14.19c.61,0,1.22-.01,1.83-.04s1.19-.08,1.73-.16,1.06-.21,1.54-.39.89-.41,1.23-.73c-.47-.38-1.02-.66-1.64-.86-.62-.19-1.23-.39-1.82-.57-.58-.19-1.11-.43-1.56-.71-.45-.29-.75-.71-.89-1.28.08-.36.13-.68.16-.96.03-.28.07-.54.12-.77s.12-.46.22-.67c.1-.21.27-.42.5-.62-.08-.05-.19-.06-.34-.04-.15.02-.31.06-.48.12-.17.06-.34.12-.5.19l-.41.18c-.33-.08-.66-.13-1-.15s-.64-.12-.93-.29c-.03-.17-.07-.36-.12-.57-.05-.21-.08-.43-.09-.64s0-.44.05-.66.16-.42.33-.61c-.03-.11-.05-.22-.07-.33s-.05-.2-.09-.28c.17-.14.36-.28.55-.42s.3-.3.32-.47Z"/><path class="cls-1" d="m165.53,16.78c.09.08.25.17.48.27s.46.2.71.3.48.19.7.27.38.12.47.14c.17.31.27.59.29.83.02.24.06.5.11.76-.08.08-.13.21-.15.39-.02.18-.04.31-.04.39-.02.13-.05.2-.09.22s-.09.09-.12.2c-.02.03,0,.08.02.14.03.06.04.11.02.14-.02.08-.05.12-.11.13-.05,0-.1.05-.13.13-.06.17-.11.28-.13.32-.02.04-.04.06-.05.07l-.05.05s-.07.11-.15.27c-.11.23-.24.46-.4.69-.16.23-.26.45-.3.67-.22.19-.49.43-.81.71s-.62.49-.9.6c-.14-.06-.36-.16-.67-.3s-.59-.3-.87-.47-.48-.36-.62-.56-.12-.39.05-.56c.28-.3.53-.65.74-1.07.21-.41.39-.86.55-1.34s.29-.97.41-1.48c.12-.51.23-1,.34-1.46.06.06.12.08.19.06s.12-.06.19-.12.12-.12.16-.2.09-.14.14-.19Z"/><path class="cls-1" d="m174.49,3.3c.17.34.39.62.67.83.27.21.54.43.81.64.33.61.53,1.29.61,2.04s.16,1.57.26,2.46c0,.72-.05,1.39-.14,2.03s-.21,1.25-.36,1.85c-.15.6-.32,1.2-.5,1.79s-.37,1.22-.54,1.88c-.22.23-.39.57-.5,1-.12.43-.13.85-.04,1.25-.2.25-.41.49-.61.73-.2.23-.43.45-.68.66-.09-.09-.21-.14-.36-.15-.15,0-.3,0-.46,0-.16,0-.3.02-.43.05s-.23.03-.29.01c-.08-.12-.18-.26-.32-.4s-.25-.29-.35-.45c-.1-.16-.18-.31-.23-.46-.05-.15-.04-.29.04-.43,0-.17-.09-.26-.28-.26.05-.72.16-1.43.35-2.12s.4-1.37.63-2.04c.23-.66.46-1.32.69-1.98.23-.66.4-1.3.52-1.95s.15-1.28.09-1.92c-.06-.64-.24-1.29-.55-1.94,0-.22,0-.4-.01-.55s-.02-.28-.02-.4-.02-.23-.04-.34c-.02-.11-.05-.23-.09-.35.08-.22.14-.42.18-.61s.04-.36-.01-.52c.02-.11.05-.2.09-.27s.1-.14.16-.21c.06-.07.12-.14.18-.21.05-.07.09-.16.11-.27h.52c.17.14.32.27.45.39.12.12.29.19.49.22Z"/><path class="cls-1" d="m190.38,3.09c.34.25.62.55.83.9s.38.73.5,1.12c.12.4.22.81.29,1.24s.13.84.18,1.23c-.16.55-.42,1.07-.8,1.57-.38.5-.82.9-1.34,1.2-.47.36-.89.68-1.25.97s-.8.48-1.3.57c-.12.12-.25.24-.36.34s-.22.23-.32.39c.27.72.54,1.43.82,2.13s.47,1.48.56,2.32c-.19.11-.29.27-.3.49s-.02.45-.02.7c-.19.22-.33.45-.42.69-.09.24-.24.45-.45.62-.05.03-.1.04-.15.01s-.11-.02-.15.01c-.2.11-.41.25-.62.42-.21.17-.43.29-.64.35-.41.11-.82.16-1.23.14-.41-.02-.81-.08-1.19-.19-.38-.11-.74-.26-1.07-.46-.33-.2-.62-.43-.87-.69-.17-.31-.31-.64-.42-.97-.11-.34-.29-.63-.54-.88-.08-.5-.12-1.09-.13-1.78s.1-1.37.32-2.04c.08-.22.18-.41.3-.59.12-.17.18-.37.16-.59.08-.02.14-.05.18-.09.04-.05.1-.09.18-.12.05-.12.04-.21-.01-.26-.06-.05-.07-.12-.04-.23-.23-.33-.46-.67-.69-1.02s-.42-.71-.57-1.09-.25-.77-.28-1.2.04-.87.21-1.36c0-.23.05-.5.15-.8s.24-.59.41-.87.37-.54.59-.76c.22-.23.46-.39.73-.5,0-.11.03-.18.08-.2.05-.02.08-.09.08-.2.2-.06.39-.14.56-.23.17-.09.35-.18.53-.27.18-.09.37-.16.58-.23s.46-.11.74-.13c.5-.03,1.01,0,1.54.09s.96.25,1.32.47c.16.41.35.77.57,1.08.23.31.39.6.5.87.03.23.06.44.09.62s.05.36.05.53-.02.35-.07.53-.13.39-.26.62c.31-.08.57-.2.79-.38s.37-.42.48-.75c0-.27-.07-.49-.21-.68s-.25-.4-.33-.63c.09-.05.16-.11.19-.18s.04-.14.02-.22c-.02-.08-.04-.16-.06-.23-.02-.08-.04-.16-.04-.23.09-.03.16-.03.19,0,.03.03.07.02.12-.02-.03-.12-.05-.19-.06-.2,0,0-.02-.06-.04-.15.06-.08.14-.16.23-.23.09-.08.18-.07.26.02-.09-.16-.1-.3-.01-.45s.2-.25.34-.33c.08.03.16.06.25.09.09.03.19.06.32.07Zm-5.55,13.36c0-.11.02-.19.07-.25s.09-.12.12-.2c-.19-.39-.37-.72-.55-1-.18-.27-.47-.54-.88-.79-.22.14-.38.31-.49.52-.11.2-.17.41-.19.62-.02.21.02.42.11.62.08.2.21.38.39.54.16-.05.38-.04.66.01s.54.03.77-.08Zm-.59-6.8c.23-.12.48-.23.73-.33l.75-.28c.25-.09.49-.2.73-.32s.44-.27.61-.46c-.59,0-1.08-.1-1.46-.3-.38-.2-.57-.56-.55-1.08-.22-.11-.45-.16-.7-.15s-.48.06-.68.16-.35.24-.45.42c-.09.18-.1.38-.02.6-.03.08-.09.12-.16.13-.08,0-.12.07-.12.18.23.22.44.46.62.73.18.27.42.5.71.7Z"/><path class="cls-1" d="m211.96,13.29c.23.03.4.09.5.16.1.08.17.18.2.29.03.12.04.25.04.39,0,.14-.01.28-.01.42-.23.16-.53.29-.88.39-.35.1-.74.18-1.16.23-.42.06-.86.09-1.32.12s-.92.04-1.37.06c-.08.44-.17.9-.28,1.39s-.29,1.09-.54,1.79c-.22.48-.47.82-.75,1.02-.28.2-.57.29-.88.29s-.61-.07-.92-.22c-.31-.15-.61-.32-.89-.5-.03-.2-.04-.45-.02-.73.01-.28.04-.58.07-.9.03-.32.07-.64.13-.96.05-.32.11-.64.15-.95-.5.08-.9.15-1.21.21s-.52.12-.64.16c-.3-.02-.53-.07-.7-.16s-.31-.21-.42-.34-.2-.28-.28-.46c-.08-.17-.17-.35-.28-.54.06-.12.07-.3.04-.54s-.13-.41-.27-.54c.12-.02.22-.11.28-.27s.06-.28,0-.36c.25-.06.52-.1.81-.13s.57-.04.86-.06.55-.04.8-.08c.25-.04.47-.11.66-.2.22,0,.42,0,.62-.01.19,0,.4-.01.62-.01.05-.2.04-.38-.02-.52-.06-.14-.08-.27-.05-.38.03-.08.09-.13.18-.15.08-.02.14-.07.15-.15.06-.2.08-.36.05-.48s0-.27.09-.46c.08-.12.18-.32.32-.59.13-.27.18-.55.15-.84.16-.11.3-.23.43-.38s.27-.27.42-.39.31-.22.49-.3.4-.13.67-.13c.14.17.24.34.3.49.06.16.12.3.19.45s.14.27.25.4c.1.13.25.24.46.35,0,.14-.02.31-.07.52-.05.2-.09.41-.12.61-.03.2-.04.38-.02.54s.09.27.23.33c-.06.17-.12.34-.18.5s-.11.32-.15.48c.27.05.57.07.91.08s.67.04.98.09.6.15.86.28.44.36.55.67Z"/><path class="cls-1" d="m227.13,3.3c.17.34.39.62.67.83.27.21.54.43.81.64.33.61.53,1.29.61,2.04s.16,1.57.26,2.46c0,.72-.05,1.39-.14,2.03s-.21,1.25-.36,1.85c-.15.6-.32,1.2-.5,1.79s-.37,1.22-.54,1.88c-.22.23-.39.57-.5,1-.12.43-.13.85-.04,1.25-.2.25-.41.49-.61.73-.2.23-.43.45-.68.66-.09-.09-.21-.14-.36-.15-.15,0-.3,0-.46,0-.16,0-.3.02-.43.05s-.23.03-.29.01c-.08-.12-.18-.26-.32-.4s-.25-.29-.35-.45c-.1-.16-.18-.31-.23-.46-.05-.15-.04-.29.04-.43,0-.17-.09-.26-.28-.26.05-.72.16-1.43.35-2.12s.4-1.37.63-2.04c.23-.66.46-1.32.69-1.98.23-.66.4-1.3.52-1.95s.15-1.28.09-1.92c-.06-.64-.24-1.29-.55-1.94,0-.22,0-.4-.01-.55s-.02-.28-.02-.4-.02-.23-.04-.34c-.02-.11-.05-.23-.09-.35.08-.22.14-.42.18-.61s.04-.36-.01-.52c.02-.11.05-.2.09-.27s.1-.14.16-.21c.06-.07.12-.14.18-.21.05-.07.09-.16.11-.27h.52c.17.14.32.27.45.39.12.12.29.19.49.22Z"/><path class="cls-1" d="m230.95,16.78c.09.08.25.17.48.27s.46.2.71.3.48.19.7.27.38.12.47.14c.17.31.27.59.29.83.02.24.06.5.11.76-.08.08-.13.21-.15.39-.02.18-.04.31-.04.39-.02.13-.05.2-.09.22s-.09.09-.12.2c-.02.03,0,.08.02.14.03.06.04.11.02.14-.02.08-.05.12-.11.13-.05,0-.1.05-.13.13-.06.17-.11.28-.13.32-.02.04-.04.06-.05.07l-.05.05s-.07.11-.15.27c-.11.23-.24.46-.4.69-.16.23-.26.45-.3.67-.22.19-.49.43-.81.71s-.62.49-.9.6c-.14-.06-.36-.16-.67-.3s-.59-.3-.87-.47-.48-.36-.62-.56-.12-.39.05-.56c.28-.3.53-.65.74-1.07.21-.41.39-.86.55-1.34s.29-.97.41-1.48c.12-.51.23-1,.34-1.46.06.06.12.08.19.06s.12-.06.19-.12.12-.12.16-.2.09-.14.14-.19Z"/><path class="cls-1" d="m248.62,8.58c.09.27.19.5.28.7.09.2.27.38.54.54-.06.36-.08.66-.05.89.03.23,0,.52-.12.87-.22.23-.48.42-.79.56s-.62.26-.94.36-.64.21-.96.32c-.32.11-.61.26-.88.45-.2.63-.42,1.24-.64,1.85s-.43,1.28-.6,2.02c.03.08.09.13.16.16s.14.08.19.14c-.08.22-.09.39-.02.53.06.13.15.25.26.36.11.11.22.22.34.33.12.11.2.23.25.38-.06.14-.1.28-.12.42s-.03.28-.04.42-.03.28-.07.42-.11.28-.22.42c-.31.12-.63.19-.95.19s-.61.04-.88.12c-.33-.08-.61-.24-.83-.48-.23-.24-.41-.52-.55-.83-.14-.31-.25-.63-.33-.96s-.14-.62-.19-.87c.09-.17.07-.25-.07-.23-.06-.22-.05-.43.02-.63s.09-.36.05-.47c.03-.39.09-.8.19-1.23s.2-.92.33-1.46c-.2-.05-.43-.09-.67-.13-.24-.04-.48-.07-.7-.09-.23-.02-.43-.04-.62-.06-.19-.02-.33-.02-.42-.02-.23-.06-.44-.16-.61-.29-.17-.13-.33-.28-.47-.45-.14-.16-.28-.33-.41-.5s-.27-.34-.41-.49c-.05-.55-.12-1.1-.23-1.66s-.21-1.11-.3-1.64c-.09-.53-.16-1.03-.21-1.5s-.02-.89.07-1.27c.16-.23.31-.46.47-.68s.34-.41.56-.56c.17.05.31.13.41.25.1.12.2.24.28.38.08.13.18.26.28.38.1.12.24.2.41.25.06.3.16.57.29.83.13.26.26.52.38.79s.22.54.3.83c.08.29.13.61.13.97.16.23.32.38.5.43.18.06.37.07.57.06.2-.02.41-.03.62-.05.21-.02.43,0,.64.07.05-.08.12-.12.23-.13.11,0,.2-.04.28-.08.09-.03.14-.11.15-.23,0-.12.07-.2.2-.21-.03-.27-.03-.53.01-.79s.08-.5.12-.74c.04-.23.06-.46.07-.68s-.03-.44-.11-.66c.16-.3.25-.65.29-1.07.04-.41.09-.82.14-1.21.05-.39.16-.75.3-1.07.15-.32.41-.54.79-.67.94.8,1.59,1.87,1.97,3.21-.16.66-.25,1.27-.27,1.83-.02.56-.03,1.12-.01,1.69.27-.08.54-.14.83-.19s.54-.09.76-.12Z"/><path class="cls-1" d="m270.14,15.19c.28.06.45.16.49.28s.03.26-.05.41-.2.3-.36.46-.32.3-.46.42c-.14-.03-.29,0-.45.08s-.3.18-.42.27c-.44-.05-.89-.05-1.35-.01s-.89.07-1.28.11c-.08,0-.12.03-.13.09s-.04.1-.08.12c-.45-.14-.94-.2-1.45-.16s-1.05.09-1.62.19-1.13.19-1.71.29c-.58.1-1.16.16-1.73.18-.17-.12-.3-.28-.39-.46s-.14-.38-.18-.59-.04-.43-.04-.64.01-.44.01-.66c.05-.17.13-.3.26-.4s.25-.18.38-.26c.39-.02.74-.04,1.05-.07.31-.03.61-.06.9-.09.29-.03.58-.06.87-.09.29-.03.6-.05.95-.07.2-.05.55-.09,1.05-.14.42-.03,1.02-.06,1.79-.09.77-.03,1.82-.05,3.13-.05-.02.14.03.24.13.3.1.06.21.11.32.15.11.04.21.09.29.14.09.06.11.15.06.29Zm1.36-4.52c.22.03.37.09.45.16.08.08.12.17.12.28s-.02.23-.07.36-.09.27-.14.41c-.45.25-1.04.43-1.75.53s-1.44.17-2.19.21-1.47.05-2.17.05-1.25.01-1.68.06c-.84.09-1.51.18-1.99.27-.48.09-.83.17-1.03.25-.28-.02-.5-.07-.64-.16s-.26-.21-.33-.34c-.07-.13-.12-.28-.14-.44s-.07-.34-.13-.53c.11-.12.18-.3.21-.52s0-.38-.12-.49c.12-.03.24-.12.34-.27s.14-.26.11-.34c.28-.06.57-.11.86-.13s.57-.04.86-.06c.28-.02.55-.04.81-.07.26-.03.5-.09.71-.19.76-.03,1.57-.06,2.41-.08s1.63-.05,2.37-.08c.23.08.53.12.88.13.35,0,.69.03,1.02.07.33.04.61.12.86.25.24.13.37.35.39.68Z"/><path class="cls-1" d="m294.73,8.58c.09.27.19.5.28.7.09.2.27.38.54.54-.06.36-.08.66-.05.89.03.23,0,.52-.12.87-.22.23-.48.42-.79.56s-.62.26-.94.36-.64.21-.96.32c-.32.11-.61.26-.88.45-.2.63-.42,1.24-.64,1.85s-.43,1.28-.6,2.02c.03.08.09.13.16.16s.14.08.19.14c-.08.22-.09.39-.02.53.06.13.15.25.26.36.11.11.22.22.34.33.12.11.2.23.25.38-.06.14-.1.28-.12.42s-.03.28-.04.42-.03.28-.07.42-.11.28-.22.42c-.31.12-.63.19-.95.19s-.61.04-.88.12c-.33-.08-.61-.24-.83-.48-.23-.24-.41-.52-.55-.83-.14-.31-.25-.63-.33-.96s-.14-.62-.19-.87c.09-.17.07-.25-.07-.23-.06-.22-.05-.43.02-.63s.09-.36.05-.47c.03-.39.09-.8.19-1.23s.2-.92.33-1.46c-.2-.05-.43-.09-.67-.13-.24-.04-.48-.07-.7-.09-.23-.02-.43-.04-.62-.06-.19-.02-.33-.02-.42-.02-.23-.06-.44-.16-.61-.29-.17-.13-.33-.28-.47-.45-.14-.16-.28-.33-.41-.5s-.27-.34-.41-.49c-.05-.55-.12-1.1-.23-1.66s-.21-1.11-.3-1.64c-.09-.53-.16-1.03-.21-1.5s-.02-.89.07-1.27c.16-.23.31-.46.47-.68s.34-.41.56-.56c.17.05.31.13.41.25.1.12.2.24.28.38.08.13.18.26.28.38.1.12.24.2.41.25.06.3.16.57.29.83.13.26.26.52.38.79s.22.54.3.83c.08.29.13.61.13.97.16.23.32.38.5.43.18.06.37.07.57.06.2-.02.41-.03.62-.05.21-.02.43,0,.64.07.05-.08.12-.12.23-.13.11,0,.2-.04.28-.08.09-.03.14-.11.15-.23,0-.12.07-.2.2-.21-.03-.27-.03-.53.01-.79s.08-.5.12-.74c.04-.23.06-.46.07-.68s-.03-.44-.11-.66c.16-.3.25-.65.29-1.07.04-.41.09-.82.14-1.21.05-.39.16-.75.3-1.07.15-.32.41-.54.79-.67.94.8,1.59,1.87,1.97,3.21-.16.66-.25,1.27-.27,1.83-.02.56-.03,1.12-.01,1.69.27-.08.54-.14.83-.19s.54-.09.76-.12Z"/><path class="cls-1" d="m296.07,16.78c.09.08.25.17.48.27s.46.2.71.3.48.19.7.27.38.12.47.14c.17.31.27.59.29.83.02.24.06.5.11.76-.08.08-.13.21-.15.39-.02.18-.04.31-.04.39-.02.13-.05.2-.09.22s-.09.09-.12.2c-.02.03,0,.08.02.14.03.06.04.11.02.14-.02.08-.05.12-.11.13-.05,0-.1.05-.13.13-.06.17-.11.28-.13.32-.02.04-.04.06-.05.07l-.05.05s-.07.11-.15.27c-.11.23-.24.46-.4.69-.16.23-.26.45-.3.67-.22.19-.49.43-.81.71s-.62.49-.9.6c-.14-.06-.36-.16-.67-.3s-.59-.3-.87-.47-.48-.36-.62-.56-.12-.39.05-.56c.28-.3.53-.65.74-1.07.21-.41.39-.86.55-1.34s.29-.97.41-1.48c.12-.51.23-1,.34-1.46.06.06.12.08.19.06s.12-.06.19-.12.12-.12.16-.2.09-.14.14-.19Z"/><path class="cls-1" d="m317.3,16.19c.38.19.57.42.57.7s-.08.54-.26.79-.41.43-.7.55c-.29.13-.55.12-.79-.02-.03.13-.1.21-.2.25-.1.04-.17.11-.2.22-1.52.23-3.06.52-4.64.87-1.58.34-3.16.6-4.73.77-1.22-.05-2.23-.23-3.05-.54-.33-.28-.57-.63-.74-1.05s-.26-.87-.29-1.34c-.03-.47-.02-.93.05-1.37s.16-.83.28-1.16c.81-1.03,1.66-2.02,2.54-2.96.88-.95,1.89-1.78,3.01-2.52.33-.41.71-.75,1.15-1.04.44-.29.84-.61,1.2-.97-.47-.17-.96-.26-1.48-.26s-1.02.04-1.52.13-.97.19-1.41.32-.82.22-1.15.28c-.25-.12-.54-.19-.88-.21-.34-.02-.67-.08-1-.19-.19-.16-.32-.36-.39-.61s-.11-.51-.13-.77-.02-.52-.02-.76-.03-.44-.09-.6c.12-.2.24-.41.34-.61.1-.2.22-.39.36-.56.73-.2,1.55-.37,2.44-.5.89-.13,1.79-.19,2.69-.18.91.02,1.78.13,2.62.34s1.59.56,2.25,1.04c.08.44.24.79.49,1.04.25.26.55.46.91.6.17.31.32.63.45.95.12.32.21.66.26,1.02-.31.83-.75,1.53-1.32,2.1s-1.14,1.09-1.72,1.56c-.31.27-.65.49-1.01.68s-.67.41-.94.66c-.06.06-.1.15-.12.25-.02.1-.05.18-.12.22-.28.25-.59.47-.94.67-.34.2-.66.42-.94.67-.2.17-.37.36-.5.56-.13.2-.31.38-.53.54.28.09.56.13.83.12s.55-.05.84-.09.59-.09.89-.14.62-.06.95-.05c.45-.16.95-.29,1.5-.41s1.09-.16,1.64-.13c.47-.19.92-.32,1.35-.41.43-.09.84-.11,1.23-.06.2.08.36.22.46.42.1.2.26.34.48.42-.05.17-.06.3-.04.38s.04.22.04.42Z"/><path class="cls-1" d="m327.03,13.15c.16.09.28.21.38.35s.2.27.3.4c0,.3.03.64.08,1.03.05.39.05.77-.01,1.15-.31.5-.66.97-1.03,1.41s-.84.8-1.38,1.08c-.08.02-.1.07-.07.18.03.1,0,.17-.07.2-.12,0-.22.04-.28.11s-.15.06-.26-.04c-.17.11-.35.21-.54.29-.19.09-.35.19-.49.32-.14-.02-.27,0-.38.02-.11.03-.22.07-.33.11-.11.04-.22.07-.33.11-.11.03-.22.03-.33,0-.5.25-1.05.45-1.66.61-.61.16-1.26.18-1.95.07-.47-.08-.88-.25-1.22-.52s-.62-.6-.82-1-.33-.85-.38-1.36,0-1.04.14-1.58c-.03-.05-.05-.11-.06-.19s-.01-.16-.01-.23v-.23c0-.08-.02-.13-.07-.16.09-.16.18-.32.25-.48s.07-.35-.01-.57c.08-.02.13-.06.16-.13s.06-.15.08-.25.05-.18.07-.26c.02-.08.07-.14.13-.19.03-.42.11-.82.23-1.19s.27-.74.43-1.09.34-.7.53-1.04c.19-.34.37-.69.54-1.05-.06-.12-.08-.21-.06-.25.02-.04.04-.13.06-.27.23-.39.47-.81.7-1.25s.48-.89.75-1.34c.26-.45.55-.88.84-1.29.3-.41.63-.78,1.01-1.09.25-.05.49-.12.73-.23.23-.11.47-.2.7-.28.23-.08.47-.13.71-.15s.5.03.79.15c.03.14.04.24.04.3,0,.06,0,.13.04.21.25.13.39.33.43.61s.07.55.11.82c.19.09.32.23.4.42s.14.4.19.63c-.19.19-.36.37-.53.54s-.33.32-.5.45c-.06.03-.15.04-.26.04s-.18-.02-.21-.04c-.47.2-.88.47-1.23.81-.35.34-.66.71-.91,1.14s-.48.87-.66,1.34-.32.93-.43,1.38c-.45.67-.82,1.37-1.1,2.09-.28.72-.52,1.52-.7,2.41.01.12.08.18.2.16s.23-.02.34,0c.19-.33.31-.64.36-.94.05-.3.08-.64.08-1.03.17-.3.36-.58.56-.84.2-.27.39-.55.56-.87.25-.19.48-.35.7-.49s.44-.26.66-.36.46-.2.71-.28.57-.16.93-.22c.38.03.7.11.97.23s.5.28.69.46.34.38.45.59c.11.21.19.41.23.6Z"/><path class="cls-1" d="m53.53,32.94c18.53.35,37.05.69,55.58,1.04,18.53.35,37.05.69,55.58,1.04,10.47.2,20.94.39,31.4.59,2.88.05,2.88-4.42,0-4.48-18.53-.35-37.05-.69-55.58-1.04-18.53-.35-37.05-.69-55.58-1.04-10.47-.2-20.94-.39-31.4-.59-2.88-.05-2.88,4.42,0,4.48h0Z"/><path class="cls-1" d="m333.39,8.86l-.85-.18.1.08c.03.12.3.35.38.47.21.32.34.7.45,1.06.28.91.41,1.88.57,2.82.35,2.05.62,4.1.81,6.17.11,1.22,3.73,1.67,3.67.78-.16-2.33-.35-4.67-.48-7-.05-.85-.06-1.74.22-2.56.14-.39.35-.77.69-1.02.02-.01.46-.3.5-.22l-.43-.03c-.4-.2-.52-.23-.36-.1.01-.03.5.98.53,1.1.11.45.15.91.2,1.37.11.98.37,1.9.76,2.8.78,1.79,1.98,3.5,2.18,5.48l3.5.34c-.52-.65-.45-1.58-.45-2.35,0-.97,0-1.94,0-2.91s-.01-2.03,0-3.04c0-.4,0-.81.11-1.19.12-.43.36-.54.58-.87.1-.14.2.04.06-.08-.02-.02-.46-.12-.49-.11-.13-.06-.11-.04.05.06l.19.19c.12.13.24.28.33.43.46.7.7,1.57.94,2.36.59,1.92,1.05,3.88,1.41,5.86.19,1.04,3.84,1.55,3.62.34-.45-2.49-.96-5.15-1.98-7.48s-3.41-3.6-5.94-3.34c-1,.1-1.92.52-2.33,1.48-.46,1.06-.24,2.46-.24,3.58,0,1.37,0,2.74,0,4.11,0,1.13.06,2.15.79,3.06.41.52,1.38.73,2,.79.27.03,1.55.06,1.5-.45-.26-2.57-1.85-4.56-2.62-6.96-.37-1.15-.27-2.39-.67-3.52-.46-1.29-1.64-1.99-2.89-2.36-2.48-.72-5.12.04-5.42,2.88-.14,1.27.05,2.58.14,3.85.11,1.57.21,3.15.32,4.72l3.67.78c-.26-2.82-.62-5.65-1.19-8.43-.23-1.11-.58-2.2-1.41-3.01-1.08-1.06-2.62-1.45-4.1-1.47-.54,0-1.35.28-.88.91s1.72.8,2.45.81h0Z"/><path class="cls-1" d="m352.34,8.86l-.85-.18.1.08c.03.12.3.35.38.47.21.32.34.7.45,1.06.28.91.41,1.88.57,2.82.35,2.05.62,4.1.81,6.17.11,1.22,3.73,1.67,3.67.78-.16-2.33-.35-4.67-.48-7-.05-.85-.06-1.74.22-2.56.14-.39.35-.77.69-1.02.02-.01.46-.3.5-.22l-.43-.03c-.4-.2-.52-.23-.36-.1.01-.03.5.98.53,1.1.11.45.15.91.2,1.37.11.98.37,1.9.76,2.8.78,1.79,1.98,3.5,2.18,5.48l3.5.34c-.52-.65-.45-1.58-.45-2.35,0-.97,0-1.94,0-2.91s-.01-2.03,0-3.04c0-.4,0-.81.11-1.19.12-.43.36-.54.58-.87.1-.14.2.04.06-.08-.02-.02-.46-.12-.49-.11-.13-.06-.11-.04.05.06l.19.19c.12.13.24.28.33.43.46.7.7,1.57.94,2.36.59,1.92,1.05,3.88,1.41,5.86.19,1.04,3.84,1.55,3.62.34-.45-2.49-.96-5.15-1.98-7.48s-3.41-3.6-5.94-3.34c-1,.1-1.92.52-2.33,1.48-.46,1.06-.24,2.46-.24,3.58,0,1.37,0,2.74,0,4.11,0,1.13.06,2.15.79,3.06.41.52,1.38.73,2,.79.27.03,1.55.06,1.5-.45-.26-2.57-1.85-4.56-2.62-6.96-.37-1.15-.27-2.39-.67-3.52-.46-1.29-1.64-1.99-2.89-2.36-2.48-.72-5.12.04-5.42,2.88-.14,1.27.05,2.58.14,3.85.11,1.57.21,3.15.32,4.72l3.67.78c-.26-2.82-.62-5.65-1.19-8.43-.23-1.11-.58-2.2-1.41-3.01-1.08-1.06-2.62-1.45-4.1-1.47-.54,0-1.35.28-.88.91s1.72.8,2.45.81h0Z"/><path class="cls-1" d="m95.65,44.37c.17.34.39.62.67.83.27.21.54.43.81.64.33.61.53,1.29.61,2.04s.16,1.57.26,2.46c0,.72-.05,1.39-.14,2.03s-.21,1.25-.36,1.85c-.15.6-.32,1.2-.5,1.79s-.37,1.22-.54,1.88c-.22.23-.39.57-.5,1-.12.43-.13.85-.04,1.25-.2.25-.41.49-.61.73-.2.23-.43.45-.68.66-.09-.09-.21-.14-.36-.15-.15,0-.3,0-.46,0-.16,0-.3.02-.43.05s-.23.03-.29.01c-.08-.12-.18-.26-.32-.4s-.25-.29-.35-.45c-.1-.16-.18-.31-.23-.46-.05-.15-.04-.29.04-.43,0-.17-.09-.26-.28-.26.05-.72.16-1.43.35-2.12s.4-1.37.63-2.04c.23-.66.46-1.32.69-1.98.23-.66.4-1.3.52-1.95s.15-1.28.09-1.92c-.06-.64-.24-1.29-.55-1.94,0-.22,0-.4-.01-.55s-.02-.28-.02-.4-.02-.23-.04-.34c-.02-.11-.05-.23-.09-.35.08-.22.14-.42.18-.61s.04-.36-.01-.52c.02-.11.05-.2.09-.27s.1-.14.16-.21c.06-.07.12-.14.18-.21.05-.07.09-.16.11-.27h.52c.17.14.32.27.45.39.12.12.29.19.49.22Z"/><path class="cls-1" d="m104.51,61.73c-.61.09-1.17.06-1.69-.09-.52-.16-.97-.41-1.37-.75-.4-.34-.75-.75-1.04-1.22s-.54-.97-.73-1.5c-.12-1.11-.09-2.12.12-3.02.2-.91.5-1.74.88-2.51s.82-1.48,1.3-2.14c.48-.66.95-1.3,1.41-1.91.09.05.17.04.23-.01.06-.05.12-.12.18-.2.05-.08.11-.16.16-.23.05-.08.13-.13.22-.16.06-.14.14-.26.23-.36s.19-.2.29-.29.2-.19.29-.28.17-.21.23-.35c.14-.03.27-.09.38-.18s.21-.18.3-.27.19-.18.29-.27c.1-.09.22-.15.36-.2v-.3c.31-.17.54-.35.68-.55.14-.19.31-.44.52-.74.16-.03.28-.04.38-.04.09,0,.23,0,.4-.04.14-.27.27-.47.38-.61s.27-.3.49-.47c.2.12.43.21.68.25s.46.16.63.36c.02.2.07.36.15.47.09.11.18.21.29.29.11.09.21.18.3.28.09.1.16.24.19.41.06,0,.11-.02.13-.05.02-.03.07-.04.13-.02.03.14.06.25.09.33.03.08.06.15.09.22.03.07.07.14.11.21.04.07.07.17.11.29-.08.19-.14.39-.2.61-.06.22-.17.37-.34.45,0,.12.04.2.13.21.08.02.14.08.15.19,0,.16-.02.28-.07.38.41.77.77,1.57,1.09,2.4.32.84.68,1.63,1.09,2.38-.03.23-.02.46.04.68.05.22.12.43.19.64.07.21.14.42.21.62.07.2.12.41.15.63.03.28.04.58.01.9-.02.32-.08.63-.16.93s-.2.57-.34.82c-.14.25-.3.44-.49.56-.03-.02-.12.03-.26.13s-.3.23-.48.39c-.18.16-.36.33-.55.52l-.49.49c-.19.13-.39.21-.62.27-.23.06-.46.11-.69.18-.19.13-.41.25-.67.39-.26.13-.52.25-.8.34s-.54.17-.81.22c-.27.05-.5.07-.7.04-.52.22-1.01.36-1.49.43s-1.04.03-1.7-.13Zm.52-8.86c-.12.38-.27.71-.45,1.01-.17.3-.34.6-.5.91-.16.31-.3.64-.42,1s-.18.76-.2,1.23c.25.27.55.43.9.49.35.06.71.07,1.08.02s.73-.11,1.09-.19.69-.12.98-.14c0-.14.05-.2.16-.19.52-.06,1-.25,1.46-.57.46-.32.94-.64,1.44-.97.06-.2.14-.38.25-.52s.15-.34.15-.61c-.06-.17-.1-.3-.12-.39-.02-.09-.02-.23-.02-.43-.33-.59-.61-1.24-.86-1.93-.24-.69-.52-1.34-.83-1.93-.03.08-.09.16-.16.23-.08.08-.16.06-.26-.05-.08.31-.21.45-.41.42-.2-.03-.38-.12-.55-.28-.44.45-.88.89-1.31,1.32s-.83.93-1.17,1.49c-.06.05-.1.06-.12.04s-.06-.01-.14.04Z"/><path class="cls-1" d="m121.06,61.73c-.61.09-1.17.06-1.69-.09-.52-.16-.97-.41-1.37-.75-.4-.34-.75-.75-1.04-1.22s-.54-.97-.73-1.5c-.12-1.11-.09-2.12.12-3.02.2-.91.5-1.74.88-2.51s.82-1.48,1.3-2.14c.48-.66.95-1.3,1.41-1.91.09.05.17.04.23-.01.06-.05.12-.12.18-.2.05-.08.11-.16.16-.23.05-.08.13-.13.22-.16.06-.14.14-.26.23-.36s.19-.2.29-.29.2-.19.29-.28.17-.21.23-.35c.14-.03.27-.09.38-.18s.21-.18.3-.27.19-.18.29-.27c.1-.09.22-.15.36-.2v-.3c.31-.17.54-.35.68-.55.14-.19.31-.44.52-.74.16-.03.28-.04.38-.04.09,0,.23,0,.4-.04.14-.27.27-.47.38-.61s.27-.3.49-.47c.2.12.43.21.68.25s.46.16.63.36c.02.2.07.36.15.47.09.11.18.21.29.29.11.09.21.18.3.28.09.1.16.24.19.41.06,0,.11-.02.13-.05.02-.03.07-.04.13-.02.03.14.06.25.09.33.03.08.06.15.09.22.03.07.07.14.11.21.04.07.07.17.11.29-.08.19-.14.39-.2.61-.06.22-.17.37-.34.45,0,.12.04.2.13.21.08.02.14.08.15.19,0,.16-.02.28-.07.38.41.77.77,1.57,1.09,2.4.32.84.68,1.63,1.09,2.38-.03.23-.02.46.04.68.05.22.12.43.19.64.07.21.14.42.21.62.07.2.12.41.15.63.03.28.04.58.01.9-.02.32-.08.63-.16.93s-.2.57-.34.82c-.14.25-.3.44-.49.56-.03-.02-.12.03-.26.13s-.3.23-.48.39c-.18.16-.36.33-.55.52l-.49.49c-.19.13-.39.21-.62.27-.23.06-.46.11-.69.18-.19.13-.41.25-.67.39-.26.13-.52.25-.8.34s-.54.17-.81.22c-.27.05-.5.07-.7.04-.52.22-1.01.36-1.49.43s-1.04.03-1.7-.13Zm.52-8.86c-.12.38-.27.71-.45,1.01-.17.3-.34.6-.5.91-.16.31-.3.64-.42,1s-.18.76-.2,1.23c.25.27.55.43.9.49.35.06.71.07,1.08.02s.73-.11,1.09-.19.69-.12.98-.14c0-.14.05-.2.16-.19.52-.06,1-.25,1.46-.57.46-.32.94-.64,1.44-.97.06-.2.14-.38.25-.52s.15-.34.15-.61c-.06-.17-.1-.3-.12-.39-.02-.09-.02-.23-.02-.43-.33-.59-.61-1.24-.86-1.93-.24-.69-.52-1.34-.83-1.93-.03.08-.09.16-.16.23-.08.08-.16.06-.26-.05-.08.31-.21.45-.41.42-.2-.03-.38-.12-.55-.28-.44.45-.88.89-1.31,1.32s-.83.93-1.17,1.49c-.06.05-.1.06-.12.04s-.06-.01-.14.04Z"/><path class="cls-1" d="m137.6,61.73c-.61.09-1.17.06-1.69-.09-.52-.16-.97-.41-1.37-.75-.4-.34-.75-.75-1.04-1.22s-.54-.97-.73-1.5c-.12-1.11-.09-2.12.12-3.02.2-.91.5-1.74.88-2.51s.82-1.48,1.3-2.14c.48-.66.95-1.3,1.41-1.91.09.05.17.04.23-.01.06-.05.12-.12.18-.2.05-.08.11-.16.16-.23.05-.08.13-.13.22-.16.06-.14.14-.26.23-.36s.19-.2.29-.29.2-.19.29-.28.17-.21.23-.35c.14-.03.27-.09.38-.18s.21-.18.3-.27.19-.18.29-.27c.1-.09.22-.15.36-.2v-.3c.31-.17.54-.35.68-.55.14-.19.31-.44.52-.74.16-.03.28-.04.38-.04.09,0,.23,0,.4-.04.14-.27.27-.47.38-.61s.27-.3.49-.47c.2.12.43.21.68.25s.46.16.63.36c.02.2.07.36.15.47.09.11.18.21.29.29.11.09.21.18.3.28.09.1.16.24.19.41.06,0,.11-.02.13-.05.02-.03.07-.04.13-.02.03.14.06.25.09.33.03.08.06.15.09.22.03.07.07.14.11.21.04.07.07.17.11.29-.08.19-.14.39-.2.61-.06.22-.17.37-.34.45,0,.12.04.2.13.21.08.02.14.08.15.19,0,.16-.02.28-.07.38.41.77.77,1.57,1.09,2.4.32.84.68,1.63,1.09,2.38-.03.23-.02.46.04.68.05.22.12.43.19.64.07.21.14.42.21.62.07.2.12.41.15.63.03.28.04.58.01.9-.02.32-.08.63-.16.93s-.2.57-.34.82c-.14.25-.3.44-.49.56-.03-.02-.12.03-.26.13s-.3.23-.48.39c-.18.16-.36.33-.55.52l-.49.49c-.19.13-.39.21-.62.27-.23.06-.46.11-.69.18-.19.13-.41.25-.67.39-.26.13-.52.25-.8.34s-.54.17-.81.22c-.27.05-.5.07-.7.04-.52.22-1.01.36-1.49.43s-1.04.03-1.7-.13Zm.52-8.86c-.12.38-.27.71-.45,1.01-.17.3-.34.6-.5.91-.16.31-.3.64-.42,1s-.18.76-.2,1.23c.25.27.55.43.9.49.35.06.71.07,1.08.02s.73-.11,1.09-.19.69-.12.98-.14c0-.14.05-.2.16-.19.52-.06,1-.25,1.46-.57.46-.32.94-.64,1.44-.97.06-.2.14-.38.25-.52s.15-.34.15-.61c-.06-.17-.1-.3-.12-.39-.02-.09-.02-.23-.02-.43-.33-.59-.61-1.24-.86-1.93-.24-.69-.52-1.34-.83-1.93-.03.08-.09.16-.16.23-.08.08-.16.06-.26-.05-.08.31-.21.45-.41.42-.2-.03-.38-.12-.55-.28-.44.45-.88.89-1.31,1.32s-.83.93-1.17,1.49c-.06.05-.1.06-.12.04s-.06-.01-.14.04Z"/></g></svg>